<svg width="25" height="24" viewBox="0 0 25 24" fill="none" xmlns="http://www.w3.org/2000/svg">
<g clip-path="url(#clip0_2012_1358)">
<path d="M28.2843 0.715729L0 29L10.6066 39.6066L38.8909 11.3223L28.2843 0.715729Z" fill="#3F25D6"/>
<path d="M23.375 15.125C23.375 15.2161 23.3587 15.3008 23.3262 15.3789C23.2936 15.4505 23.248 15.5124 23.1895 15.5645L18.1895 20.5645C18.1374 20.623 18.0723 20.6686 17.9941 20.7012C17.916 20.7337 17.8346 20.75 17.75 20.75C17.6654 20.75 17.584 20.7337 17.5059 20.7012C17.4277 20.6686 17.3626 20.623 17.3105 20.5645L14.8105 18.0645C14.752 18.0124 14.7064 17.9505 14.6738 17.8789C14.6413 17.8008 14.625 17.7161 14.625 17.625C14.625 17.4492 14.6836 17.3027 14.8008 17.1855C14.9245 17.0618 15.0742 17 15.25 17C15.3411 17 15.4225 17.0163 15.4941 17.0488C15.5723 17.0814 15.6374 17.127 15.6895 17.1855L17.75 19.2461L22.3105 14.6855C22.3626 14.627 22.4245 14.5814 22.4961 14.5488C22.5742 14.5163 22.6589 14.5 22.75 14.5C22.9258 14.5 23.0723 14.5618 23.1895 14.6855C23.3132 14.8027 23.375 14.9492 23.375 15.125Z" fill="white"/>
</g>
<defs>
<clipPath id="clip0_2012_1358">
<rect width="25" height="24" fill="white"/>
</clipPath>
</defs>
</svg>
