<svg width="250" height="80" viewBox="0 0 250 80" fill="none" xmlns="http://www.w3.org/2000/svg">
<mask id="mask0_19_2546" style="mask-type:luminance" maskUnits="userSpaceOnUse" x="0" y="0" width="66" height="80">
<path fill-rule="evenodd" clip-rule="evenodd" d="M18.1342 0C17.89 0 17.6709 0.144008 17.5707 0.367325C17.4726 0.59273 17.5185 0.857788 17.6876 1.03728L22.2729 5.8939H20.7055C20.6972 5.8939 17.3829 5.97321 17.3829 5.97321C17.3766 5.97321 10.2493 6.36976 10.2493 6.36976C9.97794 6.38436 9.74628 6.57846 9.68575 6.84561C9.62523 7.11275 9.74419 7.38616 9.98212 7.52182L15.4461 10.5856L9.9195 13.2362C9.68993 13.3468 9.55218 13.5848 9.57096 13.8373C9.58975 14.0898 9.76089 14.3048 10.003 14.38L10.9526 14.6701L8.40429 15.9912C8.17053 16.1122 8.03905 16.3752 8.08288 16.6361C8.12671 16.8991 8.33124 17.1036 8.59421 17.1432L11.2385 17.5523C10.4162 18.2264 9.6127 18.9548 8.83422 19.7333L1.1183 21.931C0.8929 21.9936 0.72176 22.1814 0.682105 22.4131L0.458788 23.68C0.389915 24.0619 -1.16078 33.1323 1.85922 44.5528C3.63532 51.2711 6.63236 57.4196 10.7669 62.8293C15.9136 69.5664 22.826 75.1472 31.3183 79.4174L32.2429 79.8828C32.3305 79.9267 32.4244 79.9475 32.5184 79.9475C32.6144 79.9475 32.7083 79.9267 32.7939 79.8828L33.7205 79.4174C42.2107 75.1472 49.1252 69.5664 54.272 62.8293C58.4044 57.4196 61.3993 51.2711 63.1775 44.5528C66.1996 33.1323 64.6468 24.0619 64.58 23.68L64.3567 22.4131C64.315 22.1814 64.1459 21.9936 63.9184 21.931L47.5704 17.2747C47.3074 11.0218 42.7221 6.0713 41.2549 4.64583C40.5828 3.86735 39.6165 3.4228 38.598 3.4228C37.9823 3.4228 37.3708 3.58977 36.8386 3.89866C31.3559 0.35689 25.6081 0.144008 24.9569 0.131486C24.9569 0.131486 18.1384 0 18.1342 0Z" fill="white"/>
</mask>
<g mask="url(#mask0_19_2546)">
<path fill-rule="evenodd" clip-rule="evenodd" d="M18.1342 0C17.89 0 17.6709 0.144008 17.5707 0.367325C17.4726 0.59273 17.5185 0.857788 17.6876 1.03728L22.2729 5.8939H20.7055C20.6972 5.8939 17.3829 5.97321 17.3829 5.97321C17.3766 5.97321 10.2493 6.36976 10.2493 6.36976C9.97794 6.38436 9.74628 6.57846 9.68575 6.84561C9.62523 7.11275 9.74419 7.38616 9.98212 7.52182L15.4461 10.5856L9.9195 13.2362C9.68993 13.3468 9.55218 13.5848 9.57096 13.8373C9.58975 14.0898 9.76089 14.3048 10.003 14.38L10.9526 14.6701L8.40429 15.9912C8.17053 16.1122 8.03905 16.3752 8.08288 16.6361C8.12671 16.8991 8.33124 17.1036 8.59421 17.1432L11.2385 17.5523C10.4162 18.2264 9.6127 18.9548 8.83422 19.7333L1.1183 21.931C0.8929 21.9936 0.72176 22.1814 0.682105 22.4131L0.458788 23.68C0.389915 24.0619 -1.16078 33.1323 1.85922 44.5528C3.63532 51.2711 6.63236 57.4196 10.7669 62.8293C15.9136 69.5664 22.826 75.1472 31.3183 79.4174L32.2429 79.8828C32.3305 79.9267 32.4244 79.9475 32.5184 79.9475C32.6144 79.9475 32.7083 79.9267 32.7939 79.8828L33.7205 79.4174C42.2107 75.1472 49.1252 69.5664 54.272 62.8293C58.4044 57.4196 61.3993 51.2711 63.1775 44.5528C66.1996 33.1323 64.6468 24.0619 64.58 23.68L64.3567 22.4131C64.315 22.1814 64.1459 21.9936 63.9184 21.931L47.5704 17.2747C47.3074 11.0218 42.7221 6.0713 41.2549 4.64583C40.5828 3.86735 39.6165 3.4228 38.598 3.4228C37.9823 3.4228 37.3708 3.58977 36.8386 3.89866C31.3559 0.35689 25.6081 0.144008 24.9569 0.131486C24.9569 0.131486 18.1384 0 18.1342 0Z" fill="#506CF0"/>
</g>
<path fill-rule="evenodd" clip-rule="evenodd" d="M61.9487 24.1483L32.5168 15.7687L3.08904 24.1483C3.08904 24.1483 -3.10749 59.1131 32.5168 77.0285C68.1432 59.1131 61.9487 24.1483 61.9487 24.1483Z" fill="#070F19"/>
<path fill-rule="evenodd" clip-rule="evenodd" d="M46.5464 32.7696C46.5318 32.7466 45.0291 30.4383 43.0506 28.1676C40.5837 25.3375 38.4277 23.7785 36.9855 23.7785C36.6829 23.7785 36.4158 23.8473 36.1695 23.9872C35.5747 24.3253 35.055 24.4902 34.5833 24.4902C33.5732 24.4902 32.9116 23.743 32.8949 22.5868C32.8615 20.364 35.2574 16.2107 39.273 16.0876C39.3252 16.0876 39.3752 16.0855 39.4295 16.0855C42.4203 16.0855 45.0625 18.6651 46.7531 20.8273C48.0178 22.449 50.2468 25.9991 49.9943 27.0072C49.8294 27.673 48.1556 32.1122 47.9677 32.6172L47.4084 34.0991L46.5464 32.7696Z" fill="#070F19"/>
<path fill-rule="evenodd" clip-rule="evenodd" d="M53.7877 67.5692C53.6625 67.5108 53.5393 67.4503 53.4183 67.3918C52.3935 66.8784 51.469 66.8095 50.6174 66.8095C50.415 66.8095 50.2084 66.8137 49.9997 66.8179C49.7951 66.822 49.5885 66.8262 49.3798 66.8262C48.0816 66.8262 46.3807 67.6005 45.9194 67.8218C45.8485 67.8009 45.7733 67.7863 45.6982 67.7863H44.7381C44.6234 67.7863 44.519 67.8134 44.4188 67.8551C44.3666 67.8322 44.3124 67.8134 44.2539 67.803L42.0625 67.3647L40.9438 66.3838C40.7915 66.2523 40.6057 66.1855 40.4158 66.1855C40.2488 66.1855 40.4513 65.4154 40.6057 65.1858C40.8124 64.8685 40.7706 64.449 40.5014 64.1798C39.8001 63.4786 38.4519 62.9547 37.7151 62.9547C37.5085 62.9547 37.3311 62.9923 37.1767 63.0695C36.9805 63.1676 36.8427 63.3366 36.778 63.5266C36.1352 63.0194 35.2065 62.5602 33.7059 62.5602C33.2717 62.5602 32.7959 62.5978 32.295 62.6729C31.9673 62.723 31.7044 62.9672 31.6334 63.2907C31.6021 63.4222 31.6084 63.5558 31.6438 63.681C31.3162 63.8187 30.6191 64.3029 28.3713 66.0123L27.0815 65.19C26.95 65.1065 26.7997 65.0647 26.6515 65.0647C26.5868 65.0647 26.5221 65.0752 26.4554 65.0919C26.4053 64.4845 26.2571 63.7666 25.9795 62.9067C28.3191 60.7716 28.7762 59.6634 28.8618 59.3628C29.0913 58.5614 29.1957 57.0524 28.5424 56.1884C28.2502 55.8002 27.8307 55.5873 27.3695 55.5873C27.2192 55.5873 27.0648 55.6103 26.9103 55.6541C26.7288 55.7042 26.5702 55.8211 26.4658 55.9797C26.4387 56.0193 26.4032 56.0757 26.3594 56.1425C25.9211 56.8375 24.6417 58.8724 22.4148 59.5361L20.5176 57.6389C19.9166 56.9439 17.9526 54.8088 16.4207 54.8088C16.0367 54.8088 15.684 54.9361 15.4064 55.1762C14.5298 55.9254 13.9872 56.9084 13.9517 57.7996C13.9329 58.3089 14.0915 58.7597 14.4004 59.0686C14.8199 59.4881 16.9028 61.3476 17.5832 61.955C17.1261 62.2931 16.7338 62.675 16.6085 63.0507C16.5084 63.3512 16.381 63.8751 16.2997 64.3217C16.1995 64.8727 16.164 65.2776 16.2621 65.5886C16.2183 65.766 16.1056 66.0853 15.9929 66.3525C15.9803 66.3796 15.9699 66.4109 15.9595 66.4401C15.1664 69.1366 17.554 70.9503 18.0048 71.2675C18.7645 71.7976 19.2675 71.9583 19.3009 71.9625C19.5993 72.0272 20.2234 72.1566 20.9371 72.1566C21.797 72.1566 22.5254 71.9646 23.1056 71.5931C23.1348 71.6348 23.1661 71.6766 23.2058 71.7121C23.4458 71.9563 23.7923 72.0877 24.1804 72.0877C24.7627 72.0877 25.3722 71.7997 25.8522 71.2967C25.8647 71.2821 25.8772 71.2675 25.8898 71.2571C25.9795 71.2884 26.0734 71.3072 26.1715 71.3072C26.2675 71.3072 26.8164 71.2905 28.125 70.9649C28.9139 70.7666 29.9303 70.0069 31.2264 68.9112C30.9488 71.1089 39.9295 72.9998 42.1251 70.9398L43.3001 71.5117C43.344 72.4864 44.878 72.7473 45.6982 72.7473C45.9361 72.7473 46.1657 72.6408 46.316 72.4572C46.6645 72.6179 47.1237 72.837 47.6559 73.1021C48.257 73.5821 49.1064 73.8263 50.1812 73.8263C50.5736 73.8263 50.9555 73.7929 51.2895 73.7491C51.2456 74.1915 51.2352 74.6695 51.3229 75.0222C51.5024 75.7422 52.0429 75.9989 52.4875 75.9989C52.717 75.9989 52.9529 75.93 53.1637 75.8132C53.3912 75.9071 53.6145 75.9551 53.8357 75.9551C54.6914 75.9551 55.1318 75.2997 55.3551 74.8239C55.7266 74.7488 56.192 74.5171 56.4696 73.8513C56.6553 73.4068 56.7409 72.8036 56.7409 71.95C56.7409 68.9717 55.0358 68.1619 53.7877 67.5692Z" fill="#070F19"/>
<path fill-rule="evenodd" clip-rule="evenodd" d="M45.9204 67.822C45.8494 67.8011 45.7743 67.7865 45.6992 67.7865H44.7391C44.6243 67.7865 44.5179 67.8137 44.4177 67.8554C44.3676 67.8324 44.3113 67.8137 44.2528 67.8032L42.0614 67.3649L40.9427 66.384C40.7925 66.2525 40.6046 66.1857 40.4147 66.1857C40.2477 66.1857 40.4523 65.4156 40.6046 65.186C40.8133 64.8688 40.7695 64.4493 40.5003 64.1801C39.799 63.4788 38.4528 62.9529 37.714 62.9529C37.5095 62.9529 37.3321 62.9925 37.1776 63.0697C36.9815 63.1678 36.8416 63.3369 36.7769 63.5268C36.1362 63.0196 35.2054 62.5605 33.7048 62.5605C33.2706 62.5605 32.7969 62.598 32.296 62.6732C31.9662 62.7233 31.7032 62.9675 31.6323 63.291C31.6031 63.4224 31.6093 63.556 31.6427 63.6812C31.3171 63.819 30.6201 64.3032 28.3723 66.0125L27.0825 65.1902C26.9489 65.1067 26.8007 65.065 26.6525 65.065C26.5857 65.065 26.521 65.0754 26.4563 65.0921C26.4042 64.4848 26.256 63.7668 25.9784 62.9069C28.318 60.7719 28.7751 59.6636 28.8607 59.3631C29.0923 58.5616 29.1946 57.0527 28.5434 56.1886C28.2491 55.8004 27.8317 55.5876 27.3684 55.5876C27.2181 55.5876 27.0658 55.6084 26.9113 55.6523C26.7297 55.7044 26.5711 55.8213 26.4668 55.9799C26.4376 56.0196 26.4021 56.0759 26.3603 56.1427C25.922 56.8377 24.6427 58.8705 22.4137 59.5363L20.5165 57.6392C19.9175 56.9442 17.9536 54.8091 16.4196 54.8091C16.0377 54.8091 15.6849 54.9364 15.4074 55.1743C14.5308 55.9257 13.9861 56.9087 13.9527 57.7999C13.9339 58.3091 14.0925 58.7599 14.3993 59.0688C14.8209 59.4883 16.9038 61.3479 17.5842 61.9531C17.125 62.2933 16.7347 62.6753 16.6074 63.0509C16.5072 63.3515 16.382 63.8753 16.3006 64.322C16.2443 64.6267 16.2109 64.8834 16.2067 65.1088C18.4921 67.5361 21.1573 69.8819 24.2566 72.0838C24.8159 72.0609 25.3919 71.7791 25.8532 71.297C25.8657 71.2824 25.8761 71.2678 25.8887 71.2573C25.9784 71.2886 26.0723 71.3074 26.1704 71.3074C26.2685 71.3074 26.8174 71.2907 28.126 70.9651C28.9149 70.7669 29.9313 70.0072 31.2274 68.9115C30.9895 70.7877 30.2548 73.7827 29.781 75.5713C30.6639 76.068 31.5759 76.5564 32.5172 77.0281C38.0313 74.2565 42.5414 71.0758 46.2293 67.6801C46.0999 67.7364 45.9935 67.7865 45.9204 67.822Z" fill="#070F19"/>
<path fill-rule="evenodd" clip-rule="evenodd" d="M40.4155 66.9863L41.697 68.1071L44.0971 68.5871L43.7757 70.8286L41.8556 70.1879L40.4155 66.9863Z" fill="white"/>
<path fill-rule="evenodd" clip-rule="evenodd" d="M44.7384 68.5874H45.6985C45.6985 68.5874 45.5378 71.1482 45.6985 71.9497C44.7384 71.9497 44.0956 71.6283 44.0956 71.4676C44.2584 70.8289 44.7384 68.5874 44.7384 68.5874Z" fill="white"/>
<path fill-rule="evenodd" clip-rule="evenodd" d="M34.6535 66.1863C34.6535 66.1863 34.9728 64.9049 37.2164 65.0656C36.415 64.2662 35.6136 62.9848 32.4141 63.4648C33.3741 64.1055 34.4949 65.0656 34.6535 66.1863Z" fill="white"/>
<path fill-rule="evenodd" clip-rule="evenodd" d="M33.9301 64.088C28.0424 64.088 23.286 61.6336 20.3328 59.5757C17.2084 57.3968 14.8792 54.7796 14.6643 53.6985C14.4409 52.5924 11.2269 45.4483 9.11891 40.9131C9.06673 40.8004 9.04168 40.6752 9.04586 40.55L9.52589 26.625C9.53632 26.3098 9.72833 26.0323 10.0205 25.9112L20.1032 21.7517C20.1783 21.7204 20.2555 21.7016 20.3369 21.6932L27.3787 21.0525C27.4038 21.0504 27.4288 21.0504 27.4518 21.0504C27.5081 21.0504 27.5645 21.0567 27.6229 21.0692L40.9072 23.9494C40.9531 23.9598 41.0032 23.9744 41.047 23.9953C41.3601 24.1268 48.7086 27.3659 49.6979 39.713C50.6914 52.1541 47.2185 60.5045 40.5816 63.0257C38.4319 63.8438 36.1549 64.088 33.9301 64.088Z" fill="#070F19"/>
<path fill-rule="evenodd" clip-rule="evenodd" d="M40.7355 24.7312C40.7355 24.7312 47.938 27.7742 48.8981 39.777C49.8602 51.7818 46.546 59.936 40.3369 62.2652C26.2512 67.5476 15.7678 55.142 15.4485 53.5412C15.1271 51.9425 9.84473 40.5763 9.84473 40.5763L10.3268 26.6513L20.4095 22.4918L27.4513 21.8511L40.7355 24.7312Z" fill="#FFEDD2"/>
<path fill-rule="evenodd" clip-rule="evenodd" d="M30.8138 33.695C30.8138 33.695 26.3328 29.8527 23.7699 31.9335C22.4905 34.3357 22.8098 36.2558 22.8098 36.2558C22.8098 36.2558 24.7299 31.2949 30.8138 33.695Z" fill="#070F19"/>
<path fill-rule="evenodd" clip-rule="evenodd" d="M39.4555 39.6168C39.4555 39.6168 41.8557 46.0179 43.6172 47.6187C43.4565 49.3802 40.4156 51.3003 35.7739 48.7394C35.7739 48.7394 41.0563 49.8602 42.1771 47.7794C41.697 46.98 39.4555 41.5369 39.4555 39.6168Z" fill="#070F19"/>
<path fill-rule="evenodd" clip-rule="evenodd" d="M39.2843 6.45803C39.1215 6.23054 38.8731 6.09488 38.5976 6.09488C38.3681 6.09488 38.1447 6.19506 37.9882 6.36411C37.8108 6.55821 37.6814 6.69595 37.719 7.92107C32.2341 3.006 25.2299 2.80982 24.9043 2.80356L22.9988 2.76599L28.4753 8.56597H20.7281L17.4472 8.64528L20.3712 10.0812C20.4234 10.1083 21.133 10.461 22.1682 10.9077C19.7806 11.4774 17.7791 12.4292 17.6622 12.4855L15.8193 13.3704L17.9815 14.0362L17.4013 14.3367L15.2266 15.4638L17.6517 15.8394C17.6559 15.8415 17.9899 15.8937 18.5701 16.1024C10.3052 19.7068 5.01241 28.5309 4.35916 30.6577C4.13584 31.3819 4.15463 32.9827 6.2897 38.9851C7.44386 42.2284 8.69401 45.2547 8.70654 45.2839L8.82967 45.5844L9.12813 45.7138C9.41614 45.8391 16.2597 48.7881 18.8539 49.4372L20.7698 49.9151L19.7284 48.2392C17.3157 44.3489 16.771 41.0972 16.243 37.952C16.1616 37.4657 16.0802 36.9857 15.9946 36.5119C15.6064 34.3852 19.2984 29.8354 22.0054 27.1368C23.3933 28.0551 27.2523 30.1067 34.4527 30.4928C34.8117 30.5116 35.1686 30.522 35.5067 30.522C39.4179 30.522 41.9954 29.2364 43.3854 26.59C44.5834 24.3067 44.742 21.2888 44.8964 18.3711C45.2158 12.3331 40.0565 7.19268 39.2843 6.45803Z" fill="#070F19"/>
<path fill-rule="evenodd" clip-rule="evenodd" d="M18.8883 40.0174C18.8883 40.0174 24.6507 37.6172 29.0523 37.2165C33.7608 36.7887 34.6541 37.8551 35.4534 38.1766C36.2548 38.4959 38.0142 38.4959 38.9764 38.0159C39.9364 37.5358 38.655 36.2564 43.7767 35.455C48.8983 34.6557 50.8205 34.0149 51.9392 36.2564C53.06 38.4959 53.7007 43.6176 51.4592 44.7383C49.2177 45.8591 45.3775 46.9798 43.7767 46.0177C42.1759 45.0597 40.5772 43.1375 39.7757 40.5767C38.8157 40.0967 36.4135 39.6166 36.0941 40.896C35.7748 42.1775 36.0941 45.0597 34.174 46.3391C32.2518 47.6206 25.0055 49.4175 23.2899 47.9399C20.9691 45.9384 20.4891 43.8576 20.6498 41.9375C19.8483 41.7768 18.8883 41.7768 18.8883 41.7768L11.7547 44.7446L9.39209 43.1104L18.7276 40.8167L18.8883 40.0174Z" fill="#070F19"/>
<path fill-rule="evenodd" clip-rule="evenodd" d="M23.3702 39.8572C25.2903 39.0558 26.9078 38.7761 28.1725 38.5758C31.2134 38.0958 34.4129 37.6157 34.6529 40.7359C34.8992 43.9291 34.0143 45.5383 33.0542 45.8576C32.0941 46.179 26.002 47.9488 24.5702 47.2998C23.8585 46.9763 22.2703 45.8492 21.7381 42.7917C21.4501 41.1366 22.4456 40.2434 23.3702 39.8572Z" fill="white"/>
<path fill-rule="evenodd" clip-rule="evenodd" d="M44.1108 36.8235C45.5926 36.5752 47.3562 36.3351 48.6606 36.3351C51.3801 36.3351 51.7015 37.7773 51.9394 39.9374C52.1731 42.0287 52.3401 43.5376 49.6206 44.4977C46.8991 45.4598 45.2315 45.4473 44.1776 44.9777C42.894 44.408 40.7276 43.1557 41.0094 39.0296C41.1367 37.1366 43.4116 36.9404 44.1108 36.8235Z" fill="white"/>
<path fill-rule="evenodd" clip-rule="evenodd" d="M16.2468 46.3387C15.6207 45.8149 10.7244 40.017 5.20408 44.2579C4.08332 45.3787 2.80395 47.2988 7.2849 50.661C11.7659 54.0212 13.1266 54.902 15.3661 53.4619C17.6076 52.0218 21.2099 50.5003 16.2468 46.3387Z" fill="#FFEDD2"/>
<path fill-rule="evenodd" clip-rule="evenodd" d="M5.46749 44.5595C4.97077 45.0604 4.47613 45.6866 4.53874 46.5297C4.61596 47.6317 5.61985 48.9132 7.52326 50.3407C12.1399 53.8011 13.2126 54.3709 15.1515 53.1249C15.3477 52.9976 15.5564 52.8703 15.7693 52.7388C16.9339 52.025 18.255 51.2152 18.3364 50.107C18.4053 49.1741 17.6164 48.0095 15.9905 46.6466C15.9217 46.5882 15.834 46.5005 15.6983 46.3669C12.0564 42.7646 8.6148 42.1573 5.46749 44.5595ZM13.4464 54.5295C11.879 54.5295 10.1738 53.3273 7.04532 50.9815C4.9165 49.3869 3.83749 47.9489 3.73939 46.5882C3.65382 45.3902 4.37386 44.5241 4.92068 43.9752L4.96033 43.9418C7.21646 42.2095 9.64164 41.8547 12.1649 42.892C14.1476 43.708 15.6274 45.171 16.2618 45.7972C16.3683 45.9057 16.4622 45.9954 16.5039 46.033C18.3656 47.5921 19.2255 48.9445 19.1358 50.1675C19.023 51.6827 17.5162 52.6073 16.1888 53.4233C15.9801 53.5507 15.7756 53.6738 15.5856 53.799C14.8218 54.2874 14.1476 54.5295 13.4464 54.5295Z" fill="#070F19"/>
<path fill-rule="evenodd" clip-rule="evenodd" d="M7.12402 46.9797C7.12402 46.9797 7.92546 46.1782 9.68695 46.1782C11.4443 46.1782 13.6879 46.819 14.9673 48.7391C13.8465 48.1004 11.605 46.9797 11.605 46.9797C11.605 46.9797 10.3256 49.3798 12.0871 49.7012C13.8465 50.0205 14.9673 49.7012 14.9673 49.7012C14.9673 49.7012 13.3665 51.1413 12.565 50.8199C11.7657 50.5006 10.1649 50.0205 10.1649 46.9797C9.04413 46.9797 7.76476 46.6603 7.12402 46.9797Z" fill="#070F19"/>
<path fill-rule="evenodd" clip-rule="evenodd" d="M37.7249 58.5381C34.2541 58.584 32.5218 56.7557 32.334 56.5032C31.9082 57.0166 31.7705 57.4361 31.7684 57.4403C31.7517 57.5091 31.6891 57.5571 31.6181 57.5592H31.6139C31.5451 57.5592 31.4845 57.5154 31.4616 57.4507C31.257 56.8225 31.3113 56.2861 31.6244 55.8541C32.1858 55.0798 33.4192 54.8732 34.0621 54.8732C34.0934 54.8732 34.1205 54.8732 34.1476 54.8753C34.2249 54.8773 34.2896 54.9316 34.3 55.0088C34.3125 55.0819 34.2729 55.1549 34.204 55.1841C33.7907 55.3448 33.4192 55.5452 33.0895 55.779C33.0916 55.781 34.2541 57.1439 36.6855 57.4653C36.9193 57.4966 37.1822 57.5363 37.4744 57.5363C40.0102 57.5363 43.4309 55.7873 43.4706 55.7685C43.4915 55.7581 43.5123 55.7539 43.5353 55.7539C43.5937 55.7539 43.648 55.7852 43.6772 55.8395C43.7169 55.9125 43.6918 56.0044 43.623 56.0503C43.5186 56.115 41.6674 57.6281 39.5615 58.273C38.9855 58.4483 38.3677 58.5381 37.7249 58.5381Z" fill="#070F19"/>
<path fill-rule="evenodd" clip-rule="evenodd" d="M25.4657 43.2499C25.856 43.1768 25.8726 42.9514 25.8372 42.7573C25.8079 42.6029 25.7579 42.4526 25.7057 42.3003C25.6556 42.15 25.6055 42.006 25.5784 41.8515C25.4824 41.3423 25.7725 41.0647 26.2441 40.9791L26.361 40.9562L26.4174 41.2609L26.3172 41.2797C25.9916 41.3381 25.9144 41.5364 25.9687 41.8348C25.9916 41.9621 26.0334 42.0915 26.0814 42.2209C26.1273 42.3545 26.169 42.4839 26.1982 42.6342C26.2692 42.9869 26.1461 43.1914 25.9102 43.3041L25.9123 43.3146C26.1711 43.3313 26.361 43.4899 26.4215 43.8447C26.4487 43.9929 26.4591 44.1348 26.4612 44.2705C26.4654 44.4145 26.4696 44.5439 26.4946 44.6774C26.553 44.9863 26.7117 45.1345 27.0205 45.0761L27.1207 45.0573L27.1771 45.362L27.0623 45.3829C26.601 45.4684 26.2212 45.3349 26.1189 44.7755C26.0918 44.6253 26.0855 44.4666 26.0793 44.3143C26.073 44.1598 26.0688 44.0075 26.0396 43.8572C26.0083 43.6861 25.9102 43.4586 25.5158 43.5316L25.4657 43.2499Z" fill="#0F1E33"/>
<path fill-rule="evenodd" clip-rule="evenodd" d="M27.4348 44.377C27.3972 44.1725 27.5078 44.0035 27.7019 43.968C27.896 43.9325 28.0547 44.0494 28.0922 44.2539C28.1298 44.4543 28.0296 44.6275 27.8251 44.6651C27.6331 44.7005 27.4724 44.5753 27.4348 44.377Z" fill="#0F1E33"/>
<path fill-rule="evenodd" clip-rule="evenodd" d="M28.5801 44.165C28.5405 43.9605 28.6532 43.7914 28.8473 43.7559C29.0414 43.7205 29.2 43.8373 29.2355 44.0419C29.273 44.2422 29.175 44.4155 28.9704 44.453C28.7763 44.4885 28.6177 44.3633 28.5801 44.165Z" fill="#0F1E33"/>
<path fill-rule="evenodd" clip-rule="evenodd" d="M29.7232 43.953C29.6835 43.7485 29.7962 43.5794 29.9903 43.544C30.1844 43.5064 30.3431 43.6253 30.3806 43.8299C30.4182 44.0302 30.318 44.2035 30.1135 44.241C29.9215 44.2765 29.7608 44.1513 29.7232 43.953Z" fill="#0F1E33"/>
<path fill-rule="evenodd" clip-rule="evenodd" d="M31.78 42.3703C31.3897 42.4434 31.3772 42.6917 31.4085 42.8629C31.4357 43.0132 31.4858 43.1572 31.5358 43.3012C31.5859 43.4473 31.6381 43.5975 31.6632 43.7478C31.7675 44.3051 31.4565 44.5701 31.0036 44.6536L30.8868 44.6745L30.8304 44.3698L30.9243 44.3531C31.2332 44.2904 31.3355 44.1005 31.277 43.7916C31.252 43.6581 31.2082 43.5349 31.1643 43.3993C31.1184 43.272 31.0704 43.1363 31.0412 42.9881C30.9765 42.6333 31.0976 42.4163 31.3292 42.3119L31.3271 42.2994C31.0725 42.2785 30.8826 42.1303 30.8179 41.7776C30.7908 41.6273 30.7887 41.4917 30.7845 41.3498C30.7782 41.212 30.7761 41.0764 30.7511 40.949C30.6948 40.6506 30.5487 40.5003 30.2272 40.5546L30.1271 40.5734L30.0707 40.2687L30.1792 40.2478C30.6509 40.1601 31.0287 40.3146 31.1226 40.8238C31.1497 40.9783 31.156 41.1306 31.1623 41.2892C31.1706 41.4499 31.1769 41.6086 31.2061 41.763C31.2395 41.9571 31.3355 42.1616 31.7299 42.0886L31.78 42.3703Z" fill="#0F1E33"/>
<path fill-rule="evenodd" clip-rule="evenodd" d="M43.3914 41.0089C43.7817 40.9359 43.7984 40.7105 43.7629 40.5164C43.7337 40.3619 43.6836 40.2116 43.6315 40.0593C43.5814 39.9111 43.5313 39.765 43.5042 39.6106C43.4102 39.1013 43.7003 38.8237 44.1699 38.7382L44.2868 38.7152L44.3432 39.0199L44.243 39.0387C43.9174 39.0992 43.8402 39.2954 43.8944 39.5939C43.9195 39.7212 43.9591 39.8506 44.0071 39.98C44.0531 40.1136 44.0948 40.2429 44.124 40.3932C44.195 40.7459 44.0718 40.9505 43.836 41.0632L43.8381 41.0757C44.099 41.0903 44.2889 41.2489 44.3473 41.6037C44.3765 41.7519 44.3849 41.8938 44.387 42.0316C44.3912 42.1735 44.3953 42.3029 44.4225 42.4365C44.4788 42.7454 44.6395 42.8935 44.9484 42.8351L45.0465 42.8184L45.1029 43.121L44.9881 43.1419C44.5289 43.2275 44.1491 43.0939 44.0447 42.5346C44.0176 42.3843 44.0113 42.2257 44.005 42.0733C44.0009 41.9189 43.9946 41.7665 43.9654 41.6183C43.9362 41.4451 43.836 41.2176 43.4415 41.2907L43.3914 41.0089Z" fill="#0F1E33"/>
<path fill-rule="evenodd" clip-rule="evenodd" d="M45.3624 42.1359C45.3227 41.9314 45.4354 41.7623 45.6295 41.7268C45.8236 41.6914 45.9822 41.8103 46.0177 42.0128C46.0553 42.2131 45.9572 42.3864 45.7526 42.4239C45.5585 42.4594 45.3999 42.3342 45.3624 42.1359Z" fill="#0F1E33"/>
<path fill-rule="evenodd" clip-rule="evenodd" d="M46.5054 41.9241C46.4658 41.7196 46.5785 41.5505 46.7726 41.5151C46.9667 41.4796 47.1253 41.5985 47.1628 41.801C47.2004 42.0013 47.1002 42.1746 46.8957 42.2121C46.7037 42.2476 46.543 42.1224 46.5054 41.9241Z" fill="#0F1E33"/>
<path fill-rule="evenodd" clip-rule="evenodd" d="M47.649 41.7121C47.6115 41.5076 47.7242 41.3385 47.9183 41.303C48.1103 41.2675 48.271 41.3865 48.3065 41.5889C48.344 41.7893 48.246 41.9625 48.0393 42.0001C47.8473 42.0356 47.6887 41.9104 47.649 41.7121Z" fill="#0F1E33"/>
<path fill-rule="evenodd" clip-rule="evenodd" d="M49.7073 40.1305C49.3149 40.2035 49.3045 40.4498 49.3337 40.6209C49.3629 40.7712 49.4109 40.9152 49.4631 41.0613C49.5111 41.2074 49.5633 41.3577 49.5904 41.508C49.6927 42.0652 49.3817 42.3282 48.9288 42.4117L48.8119 42.4346L48.7556 42.1299L48.8516 42.1132C49.1584 42.0485 49.2606 41.8586 49.2043 41.5497C49.1792 41.4161 49.1333 41.2951 49.0916 41.1594C49.0457 41.03 48.9956 40.8964 48.9685 40.7462C48.9038 40.3935 49.0248 40.1764 49.2544 40.07L49.2523 40.0595C48.9977 40.0387 48.8098 39.8905 48.7451 39.5357C48.7159 39.3875 48.7138 39.2497 48.7097 39.1078C48.7034 38.9722 48.7013 38.8344 48.6763 38.7071C48.6199 38.4107 48.4738 38.2605 48.1524 38.3126L48.0522 38.3335L47.998 38.0288L48.1065 38.0079C48.5761 37.9203 48.9538 38.0747 49.0498 38.5819C49.077 38.7384 49.0812 38.8908 49.0895 39.0494C49.0958 39.208 49.102 39.3666 49.1312 39.5211C49.1667 39.7152 49.2606 39.9197 49.6551 39.8487L49.7073 40.1305Z" fill="#0F1E33"/>
<path fill-rule="evenodd" clip-rule="evenodd" d="M39.7759 33.0551C39.7759 33.0551 44.0961 25.0532 46.1769 33.0551C44.5782 31.2936 43.6182 30.655 39.7759 33.0551Z" fill="#070F19"/>
<path fill-rule="evenodd" clip-rule="evenodd" d="M37.8555 65.0654C37.8555 65.0654 39.1348 64.4247 39.9363 64.7461C39.2955 64.1054 37.8555 63.6253 37.5361 63.7861C37.6948 64.1054 37.8555 65.0654 37.8555 65.0654Z" fill="white"/>
<path fill-rule="evenodd" clip-rule="evenodd" d="M29.4524 65.1949C29.1393 65.4307 28.7824 65.6999 28.3713 66.013L27.0815 65.1907C26.95 65.1072 26.7997 65.0655 26.6515 65.0655C26.5868 65.0655 26.5221 65.0759 26.4553 65.0926C26.4053 64.4853 26.2571 63.7652 25.9795 62.9074C28.3191 60.7703 28.7762 59.6641 28.8617 59.3636C29.0913 58.5621 29.1957 57.0532 28.5424 56.1891C28.2502 55.8009 27.8328 55.586 27.3695 55.586C27.2192 55.586 27.0648 55.6089 26.9103 55.6527C26.7288 55.7049 26.5701 55.8218 26.4658 55.9783C26.4387 56.0201 26.4032 56.0743 26.3614 56.1432C25.9231 56.8382 24.6417 58.871 22.4148 59.5368L20.5176 57.6396C19.9186 56.9426 17.9526 54.8096 16.4207 54.8096C16.0367 54.8096 15.6839 54.9348 15.4085 55.1748C14.5319 55.9262 13.9872 56.9071 13.9517 57.8004C13.9329 58.3096 14.0936 58.7604 14.4004 59.0693C14.8199 59.4888 16.9028 61.3484 17.5832 61.9536C17.1261 62.2917 16.7337 62.6737 16.6085 63.0514C16.5083 63.352 16.381 63.8758 16.2996 64.3225C16.1995 64.8714 16.164 65.2783 16.2621 65.5872C16.2182 65.7646 16.1055 66.086 15.9928 66.3511C15.9803 66.3803 15.9699 66.4116 15.9594 66.4408C15.1664 69.1373 17.554 70.951 18.0069 71.2683C18.7645 71.7984 19.2675 71.957 19.3009 71.9632C19.5993 72.0259 20.2233 72.1573 20.9371 72.1573C21.797 72.1573 22.5254 71.9653 23.1056 71.5918C23.1369 71.6356 23.1661 71.6752 23.2058 71.7128C23.4458 71.9549 23.7922 72.0885 24.1825 72.0885C24.7627 72.0885 25.3722 71.8005 25.8522 71.2975C25.8647 71.2829 25.8772 71.2683 25.8897 71.2557C25.9795 71.2891 26.0734 71.3079 26.1715 71.3079C26.2696 71.3079 26.8164 71.2912 28.125 70.9656C28.5111 70.8675 28.9515 70.6359 29.4524 70.2978V65.1949Z" fill="#070F19"/>
<path fill-rule="evenodd" clip-rule="evenodd" d="M39.9368 67.6262C39.9368 67.6262 36.8959 66.8268 36.7352 65.7061C35.1344 65.7061 34.8151 66.9855 34.8151 66.9855C34.8151 66.9855 33.855 66.0254 33.2122 65.0653C32.5736 64.1053 32.0935 64.4246 31.9328 64.4246C31.7742 64.4246 28.414 66.9855 28.414 66.9855L26.6525 65.8668C26.9718 67.6262 26.1704 70.5084 26.1704 70.5084C26.1704 70.5084 26.6525 70.5084 27.9319 70.1891C29.2113 69.8677 32.0935 66.9855 33.2122 66.1861C32.8929 66.8268 32.5736 67.1462 32.0935 67.6262C32.225 69.3251 30.9665 74.2318 30.5011 75.9703C31.1585 76.3293 31.8306 76.682 32.5172 77.0285C32.8532 76.8594 33.1872 76.6883 33.5148 76.5171C33.8717 76.3293 34.2244 76.1394 34.573 75.9495L34.6648 75.9015C35.3702 75.5133 36.0611 75.1188 36.7331 74.716C36.7561 74.7056 36.7748 74.6909 36.7978 74.6784C37.1192 74.4843 37.4385 74.2902 37.7516 74.0961C37.7683 74.0857 37.785 74.0773 37.7996 74.0669C38.4549 73.6599 39.0915 73.2425 39.7134 72.823C39.7406 72.8021 39.7698 72.7854 39.799 72.7646C40.4189 72.343 41.0241 71.913 41.6169 71.4789C40.9073 69.2917 39.9368 67.6262 39.9368 67.6262Z" fill="white"/>
<path fill-rule="evenodd" clip-rule="evenodd" d="M26.1706 67.4662L25.2106 68.1069C25.2106 68.1069 25.2106 70.3464 23.7705 71.1478C24.2505 71.6278 26.3313 70.9871 26.1706 67.4662Z" fill="white"/>
<path fill-rule="evenodd" clip-rule="evenodd" d="M25.0498 62.6655C25.0498 62.6655 27.7714 60.2653 28.0907 59.1446C28.4121 58.0238 28.2514 56.1016 27.1306 56.423C26.8113 56.903 25.2105 59.7832 22.1697 60.4239C21.6896 59.9439 19.9281 58.1845 19.9281 58.1845C19.9281 58.1845 17.048 54.8222 15.9272 55.7823C14.8085 56.7423 14.485 58.0238 14.9672 58.5038C15.4472 58.9839 18.3274 61.5447 18.3274 61.5447L18.9681 62.0247C18.9681 62.0247 17.528 62.8262 17.3673 63.3062C17.2066 63.7862 16.8873 65.2263 17.048 65.387C17.2066 65.5456 16.7287 66.6664 16.7287 66.6664C16.7287 66.6664 15.9272 69.3879 16.4072 69.3879C16.8873 69.3879 19.1288 71.1473 19.2874 71.1473C19.4481 71.1473 21.5289 71.7881 22.8104 70.828C24.0898 69.868 24.4091 68.5865 24.5719 67.6264C25.0498 67.3071 26.4899 66.6664 25.0498 62.6655Z" fill="white"/>
<path fill-rule="evenodd" clip-rule="evenodd" d="M20.1298 71.2401C20.0338 71.2401 19.9357 71.2338 19.8376 71.2234C18.2702 71.048 16.5985 70.3489 15.772 69.5245C14.7932 68.5456 15.0728 66.7925 16.4232 65.4422C16.5797 65.2835 16.7884 65.2042 16.9992 65.2042C17.1536 65.2042 17.3123 65.2481 17.45 65.3399C18.9965 66.3709 21.069 67.4833 21.7202 67.4833C22.171 67.4833 22.5341 67.8486 22.5341 68.2973C22.5341 68.5081 22.5049 69.2511 22.1334 69.969C21.7076 70.7872 20.996 71.2401 20.1298 71.2401Z" fill="#070F19"/>
<path fill-rule="evenodd" clip-rule="evenodd" d="M16.9992 66.0182C16.9992 66.0182 20.4179 68.2973 21.7202 68.2973C21.7202 68.9484 21.3946 70.5784 19.9295 70.4136C18.4644 70.2508 16.9992 69.5996 16.3481 68.9484C15.6969 68.2973 16.0204 66.9949 16.9992 66.0182Z" fill="white"/>
<path fill-rule="evenodd" clip-rule="evenodd" d="M22.0576 68.632C21.9741 68.632 21.8865 68.6278 21.8009 68.6195C20.0227 68.44 16.746 66.5199 16.2701 65.5682C15.9571 64.942 15.8277 63.9423 16.2409 63.1179C16.483 62.6317 17.0131 62.0055 18.1548 61.7989C18.2028 61.7885 18.2529 61.7843 18.3009 61.7843C18.3677 61.7843 18.4386 61.7927 18.5054 61.8093C18.5555 61.824 19.8119 62.1495 21.1309 62.6024C23.7523 63.5041 24.2741 64.1051 24.4473 64.6206C24.704 65.3908 24.6164 66.7119 23.9464 67.6385C23.4852 68.2793 22.8131 68.632 22.0576 68.632Z" fill="#070F19"/>
<path fill-rule="evenodd" clip-rule="evenodd" d="M18.3016 62.5991C18.3016 62.5991 23.3481 63.9015 23.6737 64.8782C23.9993 65.855 23.5109 67.9713 21.883 67.8085C20.2551 67.6457 17.2915 65.7861 16.9993 65.2038C16.6737 64.5526 16.5109 62.9247 18.3016 62.5991Z" fill="white"/>
<path fill-rule="evenodd" clip-rule="evenodd" d="M40.5461 68.5271C40.0243 67.1287 39.3606 65.8014 39.0017 65.2629C38.8681 65.0625 38.6531 64.9331 38.4152 64.9102C38.3881 64.9081 38.3609 64.906 38.3338 64.906C38.1314 64.906 37.9331 64.9832 37.7849 65.1272C37.6367 64.9519 37.4322 64.8622 37.2151 64.8622C37.0795 64.8622 36.9375 64.8977 36.8061 64.9707C36.4304 65.1794 36.3073 65.6803 36.4993 66.0643C36.8729 66.8115 36.8624 69.8315 36.7372 71.7349C36.7226 71.9436 36.7915 72.1503 36.9292 72.3089L38.2128 73.8074C39.2855 73.1249 40.3144 72.4257 41.2954 71.712C41.2933 71.1088 41.143 70.1279 40.5461 68.5271Z" fill="#070F19"/>
<path fill-rule="evenodd" clip-rule="evenodd" d="M37.2158 65.7063C37.8566 66.9857 37.5351 71.788 37.5351 71.788L38.8917 73.37C39.3989 73.0382 39.8956 72.7022 40.384 72.3599C40.3944 72.3307 40.4049 72.3015 40.4153 72.2702C40.8974 70.828 38.9773 66.6664 38.3345 65.7063C37.6938 66.347 37.2158 65.7063 37.2158 65.7063Z" fill="#EE4035"/>
<path fill-rule="evenodd" clip-rule="evenodd" d="M53.0606 68.1073C52.7767 67.9654 52.5012 67.8756 52.232 67.8005C52.616 68.2764 52.7725 68.938 52.6431 69.5224C52.4574 70.3634 50.9777 70.7662 50.1929 70.4114C49.1431 69.9335 49.1974 68.3035 49.3581 68.2785C49.4332 69.7227 50.458 70.0441 51.4055 69.8897C52.2111 69.7561 52.3551 68.7585 51.752 68.0468C51.5495 67.8089 51.2719 67.6962 50.9818 67.6231C50.4601 67.6043 49.9362 67.6273 49.379 67.6273C48.0996 67.6273 46.1774 68.5873 46.1774 68.5873L45.9395 71.4028C45.9395 71.4028 46.6804 71.7305 47.7698 72.2669C47.8971 72.2815 48.0349 72.3295 48.158 72.3295C48.1935 72.3295 48.229 72.3295 48.2603 72.3274C48.6339 72.319 49.0179 72.223 49.3998 72.0456C49.7985 71.8661 50.1366 71.576 50.3849 71.3465C50.4141 71.3172 50.4601 71.3005 50.4976 71.3005C50.5415 71.3005 50.5874 71.3193 50.6187 71.3506C50.6709 71.4049 50.6813 71.5009 50.6375 71.5635C50.3745 71.9434 50.0197 72.2564 49.6169 72.4735L49.5522 72.5048C49.3289 72.6258 49.0784 72.7344 48.8134 72.8137C50.2242 73.302 52.2612 72.749 52.2612 72.749C52.2612 72.749 51.9398 74.1891 52.1005 74.8298C52.2215 75.3077 52.6097 75.2493 52.8644 75.0552C52.7558 74.9216 52.664 74.7651 52.593 74.6086C52.449 74.283 52.4303 73.9323 52.4323 73.6652C52.4323 73.1038 52.5346 72.5236 52.7412 71.8954C52.7621 71.8286 52.8331 71.7806 52.9019 71.7806C52.9186 71.7806 52.9353 71.7847 52.952 71.7889C53.0376 71.8181 53.0856 71.9037 53.0647 71.9893C52.9979 72.2481 52.9458 72.5277 52.9145 72.822C52.8748 73.1372 52.8644 73.4085 52.879 73.6527C52.8957 73.9156 52.9479 74.1765 53.0397 74.4291C53.1232 74.6649 53.2526 74.907 53.4488 75.0552C54.269 75.4142 54.5862 74.6169 54.7511 74.1995C54.6509 74.139 54.5445 74.091 54.4568 73.997C54.2418 73.7716 54.0874 73.4794 53.9705 73.0808C53.8829 72.7824 53.8244 72.4651 53.7952 72.1082C53.7764 71.8599 53.7618 71.5698 53.8015 71.2755C53.7514 71.2505 53.7096 71.2254 53.67 71.1962C53.5802 71.1377 53.5009 71.048 53.4467 70.9395C53.3507 70.76 53.3256 70.5367 53.3757 70.3113C53.3945 70.2382 53.4654 70.1798 53.5406 70.1798C53.5531 70.1798 53.5656 70.1798 53.5781 70.184C53.6595 70.2007 53.7201 70.2925 53.7075 70.376C53.6825 70.5221 53.7034 70.664 53.7618 70.76C53.7931 70.8143 53.8328 70.8539 53.8808 70.881C53.9371 70.9207 54.0039 70.9395 54.0707 70.9583L54.102 70.9666C54.1813 70.9875 54.2335 71.0647 54.221 71.1461L54.2147 71.1795C54.1771 71.4279 54.1792 71.7096 54.2231 72.0644C54.2627 72.3775 54.3274 72.6697 54.4192 72.9347C54.5361 73.2666 54.6613 73.5087 54.8074 73.6986C54.893 73.8029 54.9911 73.8864 55.0955 73.9407C55.1664 73.9783 55.252 73.9845 55.3355 73.995C55.7612 73.8071 55.9428 73.1476 55.9428 71.9475C55.9428 69.2093 54.3399 68.748 53.0606 68.1073Z" fill="white"/>
<mask id="mask1_19_2546" style="mask-type:luminance" maskUnits="userSpaceOnUse" x="70" y="29" width="19" height="30">
<path fill-rule="evenodd" clip-rule="evenodd" d="M70.9604 29.7388V58.5571H88.158V48.7416H81.2497V52.9032H77.8708V35.3927H81.2497V39.5543H88.158V29.7388H70.9604Z" fill="white"/>
</mask>
<g mask="url(#mask1_19_2546)">
<path fill-rule="evenodd" clip-rule="evenodd" d="M70.9604 29.7388V58.5571H88.158V48.7416H81.2497V52.9032H77.8708V35.3927H81.2497V39.5543H88.158V29.7388H70.9604Z" fill="white"/>
</g>
<mask id="mask2_19_2546" style="mask-type:luminance" maskUnits="userSpaceOnUse" x="91" y="29" width="18" height="30">
<path fill-rule="evenodd" clip-rule="evenodd" d="M91.2988 58.5571H108.496V29.7388H91.2988V58.5571ZM98.2112 52.9032H101.588V35.3927H98.2112V52.9032Z" fill="white"/>
</mask>
<g mask="url(#mask2_19_2546)">
<path fill-rule="evenodd" clip-rule="evenodd" d="M91.2988 58.5571H108.496V29.7388H91.2988V58.5571ZM98.2112 52.9032H101.588V35.3927H98.2112V52.9032Z" fill="white"/>
</g>
<mask id="mask3_19_2546" style="mask-type:luminance" maskUnits="userSpaceOnUse" x="111" y="29" width="18" height="30">
<path fill-rule="evenodd" clip-rule="evenodd" d="M111.637 29.7388V58.5571H128.835V35.9416L122.63 29.7388H111.637ZM118.55 35.3927H119.727L122.004 37.6697V52.8239H118.55V35.3927Z" fill="white"/>
</mask>
<g mask="url(#mask3_19_2546)">
<path fill-rule="evenodd" clip-rule="evenodd" d="M111.637 29.7388V58.5571H128.835V35.9416L122.63 29.7388H111.637ZM118.55 35.3927H119.727L122.004 37.6697V52.8239H118.55V35.3927Z" fill="white"/>
</g>
<mask id="mask4_19_2546" style="mask-type:luminance" maskUnits="userSpaceOnUse" x="131" y="29" width="19" height="30">
<path fill-rule="evenodd" clip-rule="evenodd" d="M131.976 29.7388V58.5571H149.171V52.9032H138.884V46.9363H147.445V41.2824H138.884V35.3927H149.171V29.7388H131.976Z" fill="white"/>
</mask>
<g mask="url(#mask4_19_2546)">
<path fill-rule="evenodd" clip-rule="evenodd" d="M131.976 29.7388V58.5571H149.171V52.9032H138.884V46.9363H147.445V41.2824H138.884V35.3927H149.171V29.7388H131.976Z" fill="white"/>
</g>
<mask id="mask5_19_2546" style="mask-type:luminance" maskUnits="userSpaceOnUse" x="152" y="29" width="18" height="30">
<path fill-rule="evenodd" clip-rule="evenodd" d="M152.314 29.7388V58.5571H169.512V52.9032H159.223V29.7388H152.314Z" fill="white"/>
</mask>
<g mask="url(#mask5_19_2546)">
<path fill-rule="evenodd" clip-rule="evenodd" d="M152.314 29.7388V58.5571H169.512V52.9032H159.223V29.7388H152.314Z" fill="white"/>
</g>
<mask id="mask6_19_2546" style="mask-type:luminance" maskUnits="userSpaceOnUse" x="172" y="29" width="18" height="30">
<path fill-rule="evenodd" clip-rule="evenodd" d="M172.651 29.7388V58.5571H189.85V52.9032H179.563V46.9363H188.12V41.2824H179.563V35.3927H189.85V29.7388H172.651Z" fill="white"/>
</mask>
<g mask="url(#mask6_19_2546)">
<path fill-rule="evenodd" clip-rule="evenodd" d="M172.651 29.7388V58.5571H189.85V52.9032H179.563V46.9363H188.12V41.2824H179.563V35.3927H189.85V29.7388H172.651Z" fill="white"/>
</g>
<mask id="mask7_19_2546" style="mask-type:luminance" maskUnits="userSpaceOnUse" x="192" y="29" width="18" height="30">
<path fill-rule="evenodd" clip-rule="evenodd" d="M193.856 29.7388L192.597 58.5571H199.51L199.704 50.1149H202.609L202.805 58.5571H209.715L208.421 29.7388H193.856ZM200.213 35.3927H202.022L202.335 44.4234H199.9L200.213 35.3927Z" fill="white"/>
</mask>
<g mask="url(#mask7_19_2546)">
<path fill-rule="evenodd" clip-rule="evenodd" d="M193.856 29.7388L192.597 58.5571H199.51L199.704 50.1149H202.609L202.805 58.5571H209.715L208.421 29.7388H193.856ZM200.213 35.3927H202.022L202.335 44.4234H199.9L200.213 35.3927Z" fill="white"/>
</g>
<mask id="mask8_19_2546" style="mask-type:luminance" maskUnits="userSpaceOnUse" x="212" y="29" width="18" height="30">
<path fill-rule="evenodd" clip-rule="evenodd" d="M212.464 29.7388V58.5571H219.374V46.9363H221.493L222.751 48.1927V58.5571H229.659V48.1134L225.969 44.1876L229.659 40.1825V29.7388H212.464ZM219.374 35.3927H222.751V40.026L221.493 41.2824H219.374V35.3927Z" fill="white"/>
</mask>
<g mask="url(#mask8_19_2546)">
<path fill-rule="evenodd" clip-rule="evenodd" d="M212.464 29.7388V58.5571H219.374V46.9363H221.493L222.751 48.1927V58.5571H229.659V48.1134L225.969 44.1876L229.659 40.1825V29.7388H212.464ZM219.374 35.3927H222.751V40.026L221.493 41.2824H219.374V35.3927Z" fill="white"/>
</g>
<mask id="mask9_19_2546" style="mask-type:luminance" maskUnits="userSpaceOnUse" x="232" y="29" width="18" height="30">
<path fill-rule="evenodd" clip-rule="evenodd" d="M243.09 29.7388V40.89L239.713 29.7388H232.8V58.5571H239.713V47.408L243.325 58.5571H250V29.7388H243.09Z" fill="white"/>
</mask>
<g mask="url(#mask9_19_2546)">
<path fill-rule="evenodd" clip-rule="evenodd" d="M243.09 29.7388V40.89L239.713 29.7388H232.8V58.5571H239.713V47.408L243.325 58.5571H250V29.7388H243.09Z" fill="white"/>
</g>
</svg>