<svg width="512" height="512" viewBox="0 0 512 512" fill="none" xmlns="http://www.w3.org/2000/svg">
<path d="M256.05 141.1C192.45 141.1 141.15 192.4 141.15 256C141.15 319.6 192.45 370.9 256.05 370.9C319.65 370.9 370.95 319.6 370.95 256C370.95 192.4 319.65 141.1 256.05 141.1ZM256.05 330.7C214.95 330.7 181.35 297.2 181.35 256C181.35 214.8 214.85 181.3 256.05 181.3C297.25 181.3 330.75 214.8 330.75 256C330.75 297.2 297.15 330.7 256.05 330.7ZM402.45 136.4C402.45 151.3 390.45 163.2 375.65 163.2C360.75 163.2 348.85 151.2 348.85 136.4C348.85 121.6 360.85 109.6 375.65 109.6C390.45 109.6 402.45 121.6 402.45 136.4ZM478.55 163.6C476.85 127.7 468.65 95.9 442.35 69.7C416.15 43.5 384.35 35.3 348.45 33.5C311.45 31.4 200.55 31.4 163.55 33.5C127.75 35.2 95.95 43.4 69.65 69.6C43.35 95.8 35.25 127.6 33.45 163.5C31.35 200.5 31.35 311.4 33.45 348.4C35.15 384.3 43.35 416.1 69.65 442.3C95.95 468.5 127.65 476.7 163.55 478.5C200.55 480.6 311.45 480.6 348.45 478.5C384.35 476.8 416.15 468.6 442.35 442.3C468.55 416.1 476.75 384.3 478.55 348.4C480.65 311.4 480.65 200.6 478.55 163.6ZM430.75 388.1C422.95 407.7 407.85 422.8 388.15 430.7C358.65 442.4 288.65 439.7 256.05 439.7C223.45 439.7 153.35 442.3 123.95 430.7C104.35 422.9 89.25 407.8 81.35 388.1C69.65 358.6 72.35 288.6 72.35 256C72.35 223.4 69.75 153.3 81.35 123.9C89.15 104.3 104.25 89.2 123.95 81.3C153.45 69.6 223.45 72.3 256.05 72.3C288.65 72.3 358.75 69.7 388.15 81.3C407.75 89.1 422.85 104.2 430.75 123.9C442.45 153.4 439.75 223.4 439.75 256C439.75 288.6 442.45 358.7 430.75 388.1Z" fill="white"/>
</svg>
