<svg width="512" height="512" viewBox="0 0 512 512" fill="none" xmlns="http://www.w3.org/2000/svg">
<path d="M132.3 480H39.4V180.9H132.3V480ZM85.8 140.1C56.1 140.1 32 115.5 32 85.8C32 71.5314 37.6682 57.8471 47.7577 47.7577C57.8471 37.6682 71.5314 32 85.8 32C100.069 32 113.753 37.6682 123.842 47.7577C133.932 57.8471 139.6 71.5314 139.6 85.8C139.6 115.5 115.5 140.1 85.8 140.1ZM479.9 480H387.2V334.4C387.2 299.7 386.5 255.2 338.9 255.2C290.6 255.2 283.2 292.9 283.2 331.9V480H190.4V180.9H279.5V221.7H280.8C293.2 198.2 323.5 173.4 368.7 173.4C462.7 173.4 480 235.3 480 315.7V480H479.9Z" fill="white"/>
</svg>
