<?xml version="1.0" encoding="UTF-8"?>
<svg width="164px" height="60px" viewBox="0 0 164 60" version="1.1" xmlns="http://www.w3.org/2000/svg" xmlns:xlink="http://www.w3.org/1999/xlink">
    <!-- Generator: Sketch 53.1 (72631) - https://sketchapp.com -->
    <title>Logo-codelearn</title>
    <desc>Created with Sketch.</desc>
    <defs>
        <polygon id="path-1" points="0.000134008885 0 48.8099824 0 48.8099824 60 0.000134008885 60"></polygon>
    </defs>
    <g id="Page-1" stroke="none" stroke-width="1" fill="none" fill-rule="evenodd">
        <g id="Challenges_V3" transform="translate(-390.000000, -5.000000)">
            <g id="Menu">
                <g id="Logo-codelearn" transform="translate(390.000000, 5.000000)">
                    <g id="Group-3">
                        <mask id="mask-2" fill="white">
                            <use xlink:href="#path-1"></use>
                        </mask>
                        <g id="Clip-2"></g>
                        <path d="M24.4055,57.809 C-2.3315,44.364 2.3185,18.123 2.3185,18.123 L24.4055,11.833 L46.4915,18.123 C46.4915,18.123 51.1415,44.364 24.4055,57.809 M48.4675,17.773 L48.2995,16.822 C48.2675,16.648 48.1405,16.506 47.9705,16.458 L35.7025,12.964 C35.5055,8.273 32.0615,4.556 30.9625,3.487 C30.4585,2.903 29.7315,2.569 28.9675,2.569 C28.5055,2.569 28.0475,2.694 27.6475,2.925 C23.5325,0.268 19.2185,0.108 18.7305,0.099 C18.7305,0.099 13.6135,-7.10542736e-15 13.6105,-7.10542736e-15 C13.4275,-7.10542736e-15 13.2615,0.108 13.1885,0.275 C13.1135,0.445 13.1475,0.643 13.2745,0.778 L16.7175,4.422 L15.5385,4.422 C15.5345,4.422 13.0465,4.483 13.0465,4.483 C13.0415,4.483 7.6935,4.782 7.6935,4.782 C7.4885,4.792 7.3155,4.938 7.2695,5.138 C7.2235,5.337 7.3145,5.544 7.4935,5.644 L11.5925,7.944 L7.4445,9.935 C7.2725,10.017 7.1695,10.196 7.1835,10.385 C7.1975,10.575 7.3265,10.736 7.5085,10.791 L8.2195,11.01 L6.3085,12.001 C6.1325,12.093 6.0345,12.288 6.0665,12.485 C6.0985,12.682 6.2545,12.836 6.4515,12.867 L8.4335,13.173 C7.8185,13.678 7.2155,14.226 6.6305,14.809 L0.8395,16.458 C0.6705,16.506 0.5425,16.648 0.5115,16.822 L0.3435,17.773 C0.2925,18.059 -0.8705,24.867 1.3955,33.437 C2.7295,38.479 4.9785,43.094 8.0805,47.154 C11.9425,52.209 17.1315,56.397 23.5045,59.602 L24.1975,59.951 C24.2625,59.984 24.3345,60 24.4055,60 C24.4755,60 24.5475,59.984 24.6125,59.951 L25.3065,59.602 C31.6785,56.397 36.8675,52.209 40.7295,47.154 C43.8315,43.094 46.0805,38.479 47.4145,33.437 C49.6805,24.866 48.5175,18.059 48.4675,17.773" id="Fill-1" fill="#FFFFFF" mask="url(#mask-2)"></path>
                    </g>
                    <path d="M34.9329,24.5931 C34.9219,24.5751 33.7949,22.8441 32.3099,21.1411 C30.4579,19.0161 28.8409,17.8461 27.7569,17.8461 C27.5309,17.8461 27.3299,17.8971 27.1459,18.0021 C26.6989,18.2561 26.3089,18.3791 25.9539,18.3791 L25.9539,18.3791 C25.1979,18.3791 24.7009,17.8191 24.6879,16.9501 C24.6619,15.2831 26.4599,12.1661 29.4729,12.0741 C29.5129,12.0731 29.5519,12.0721 29.5909,12.0721 C31.8369,12.0721 33.8199,14.0071 35.0859,15.6311 C36.0369,16.8481 37.7099,19.5131 37.5219,20.2681 C37.3969,20.7681 36.1419,24.1001 35.9989,24.4791 L35.5799,25.5901 L34.9329,24.5931 Z" id="Fill-4" fill="#0F1E33"></path>
                    <path d="M40.3675,50.7103 C40.2735,50.6663 40.1805,50.6213 40.0905,50.5763 C39.3215,50.1923 38.6265,50.1393 37.9885,50.1393 C37.8355,50.1393 37.6805,50.1433 37.5235,50.1463 C37.3715,50.1493 37.2175,50.1523 37.0585,50.1523 C36.0855,50.1523 34.8085,50.7333 34.4635,50.8993 C34.4095,50.8843 34.3535,50.8733 34.2965,50.8733 L33.5755,50.8733 C33.4905,50.8733 33.4105,50.8933 33.3365,50.9253 C33.2975,50.9073 33.2565,50.8943 33.2135,50.8853 L31.5675,50.5563 L30.7275,49.8203 C30.6145,49.7223 30.4735,49.6723 30.3325,49.6723 C30.2075,49.6723 30.3595,49.0943 30.4725,48.9223 C30.6305,48.6843 30.5975,48.3683 30.3965,48.1663 C29.8705,47.6403 28.8575,47.2463 28.3045,47.2463 C28.1495,47.2463 28.0175,47.2743 27.9015,47.3333 C27.7545,47.4063 27.6505,47.5323 27.6005,47.6773 C27.1195,47.2963 26.4235,46.9503 25.2965,46.9503 C24.9715,46.9503 24.6145,46.9803 24.2365,47.0363 C23.9915,47.0723 23.7945,47.2573 23.7395,47.4993 C23.7185,47.5983 23.7225,47.6973 23.7495,47.7913 C23.5035,47.8953 22.9805,48.2593 21.2925,49.5413 L20.3245,48.9253 C20.2255,48.8623 20.1135,48.8313 20.0025,48.8313 C19.9525,48.8313 19.9035,48.8393 19.8555,48.8513 C19.8165,48.3953 19.7065,47.8563 19.4975,47.2113 C21.2535,45.6073 21.5965,44.7763 21.6605,44.5523 C21.8325,43.9493 21.9105,42.8183 21.4215,42.1693 C21.2015,41.8783 20.8885,41.7173 20.5405,41.7173 C20.4285,41.7173 20.3125,41.7343 20.1975,41.7673 C20.0595,41.8073 19.9415,41.8933 19.8625,42.0123 C19.8425,42.0423 19.8155,42.0833 19.7835,42.1353 C19.4545,42.6563 18.4935,44.1823 16.8215,44.6823 L15.3975,43.2573 C14.9475,42.7353 13.4735,41.1343 12.3245,41.1343 C12.0355,41.1343 11.7715,41.2293 11.5625,41.4083 C10.9055,41.9723 10.4975,42.7083 10.4715,43.3783 C10.4565,43.7613 10.5765,44.0993 10.8075,44.3313 C11.1225,44.6453 12.6865,46.0413 13.1975,46.4963 C12.8525,46.7503 12.5595,47.0363 12.4655,47.3193 C12.3895,47.5453 12.2945,47.9383 12.2335,48.2733 C12.1585,48.6863 12.1305,48.9903 12.2045,49.2243 C12.1715,49.3563 12.0875,49.5973 12.0025,49.7963 C11.9925,49.8173 11.9845,49.8403 11.9775,49.8623 C11.3835,51.8873 13.1735,53.2483 13.5135,53.4863 C14.0835,53.8853 14.4605,54.0033 14.4855,54.0083 C14.7105,54.0553 15.1785,54.1533 15.7135,54.1533 C16.3585,54.1533 16.9045,54.0103 17.3415,53.7303 C17.3625,53.7623 17.3875,53.7923 17.4155,53.8203 C17.5965,54.0023 17.8565,54.1023 18.1485,54.1023 C18.5845,54.1023 19.0425,53.8853 19.4035,53.5073 C19.4125,53.4973 19.4215,53.4863 19.4305,53.4773 C19.4975,53.5023 19.5685,53.5163 19.6415,53.5163 C19.7145,53.5163 20.1255,53.5033 21.1085,53.2583 C21.6995,53.1093 22.4645,52.5403 23.4355,51.7173 C23.2265,53.3663 29.9675,54.7843 31.6155,53.2393 L32.4965,53.6693 C32.5295,54.4013 33.6815,54.5973 34.2965,54.5973 C34.4755,54.5973 34.6465,54.5173 34.7615,54.3773 C35.0215,54.4993 35.3665,54.6633 35.7665,54.8623 C36.2175,55.2233 36.8535,55.4053 37.6615,55.4053 C37.9565,55.4053 38.2415,55.3813 38.4935,55.3483 C38.4605,55.6803 38.4525,56.0393 38.5185,56.3043 C38.6535,56.8443 39.0575,57.0363 39.3915,57.0363 C39.5635,57.0363 39.7405,56.9853 39.8985,56.8973 C40.0695,56.9683 40.2365,57.0033 40.4045,57.0033 C41.0455,57.0033 41.3755,56.5113 41.5445,56.1543 C41.8225,56.0993 42.1725,55.9243 42.3815,55.4243 C42.5195,55.0913 42.5845,54.6383 42.5845,53.9963 C42.5845,51.7633 41.3035,51.1543 40.3675,50.7103" id="Fill-6" fill="#0F1E33"></path>
                    <path d="M34.4632,50.8998 C34.4092,50.8838 34.3542,50.8738 34.2962,50.8738 L33.5752,50.8738 C33.4902,50.8738 33.4102,50.8928 33.3362,50.9248 C33.2972,50.9078 33.2562,50.8938 33.2132,50.8848 L31.5672,50.5558 L30.7282,49.8208 C30.6142,49.7218 30.4742,49.6718 30.3322,49.6718 C30.2072,49.6718 30.3592,49.0938 30.4732,48.9218 C30.6302,48.6838 30.5982,48.3688 30.3972,48.1668 C29.8702,47.6398 28.8582,47.2468 28.3052,47.2468 C28.1502,47.2468 28.0182,47.2748 27.9012,47.3338 C27.7542,47.4068 27.6512,47.5328 27.6012,47.6768 C27.1192,47.2958 26.4232,46.9508 25.2962,46.9508 C24.9712,46.9508 24.6142,46.9798 24.2362,47.0368 C23.9912,47.0728 23.7942,47.2568 23.7392,47.4998 C23.7182,47.5978 23.7232,47.6978 23.7492,47.7918 C23.5032,47.8948 22.9812,48.2588 21.2922,49.5418 L20.3242,48.9248 C20.2262,48.8628 20.1132,48.8318 20.0022,48.8318 C19.9522,48.8318 19.9032,48.8388 19.8562,48.8508 C19.8172,48.3948 19.7062,47.8558 19.4972,47.2118 C21.2532,45.6078 21.5962,44.7768 21.6602,44.5518 C21.8322,43.9498 21.9102,42.8188 21.4212,42.1698 C21.2012,41.8788 20.8882,41.7168 20.5402,41.7168 C20.4282,41.7168 20.3132,41.7348 20.1972,41.7668 C20.0602,41.8068 19.9422,41.8928 19.8622,42.0118 C19.8422,42.0428 19.8162,42.0838 19.7832,42.1348 C19.4542,42.6568 18.4932,44.1818 16.8212,44.6818 L15.3982,43.2568 C14.9472,42.7358 13.4742,41.1338 12.3242,41.1338 C12.0352,41.1338 11.7722,41.2288 11.5632,41.4088 C10.9052,41.9718 10.4972,42.7088 10.4712,43.3788 C10.4562,43.7608 10.5762,44.0988 10.8082,44.3318 C11.1222,44.6448 12.6872,46.0418 13.1972,46.4968 C12.8532,46.7508 12.5602,47.0368 12.4652,47.3198 C12.3902,47.5458 12.2942,47.9378 12.2342,48.2738 C12.1922,48.5018 12.1662,48.6948 12.1622,48.8628 C13.8792,50.6848 15.8782,52.4468 18.2052,54.0978 C18.6242,54.0808 19.0582,53.8688 19.4032,53.5068 C19.4122,53.4978 19.4212,53.4868 19.4302,53.4768 C19.4972,53.5028 19.5682,53.5158 19.6422,53.5158 C19.7142,53.5158 20.1252,53.5038 21.1092,53.2578 C21.6992,53.1098 22.4642,52.5408 23.4362,51.7168 C23.2582,53.1258 22.7062,55.3748 22.3502,56.7158 C23.0142,57.0878 23.6972,57.4538 24.4052,57.8088 C28.5422,55.7288 31.9272,53.3408 34.6942,50.7928 C34.5982,50.8368 34.5182,50.8738 34.4632,50.8998" id="Fill-8" fill="#0F1E33"></path>
                    <polygon id="Fill-10" fill="#FFFFFF" points="30.3323 50.2728 31.2933 51.1138 33.0953 51.4738 32.8543 53.1558 31.4133 52.6748"></polygon>
                    <path d="M33.5755,51.474 L34.2965,51.474 C34.2965,51.474 34.1765,53.396 34.2965,53.996 C33.5755,53.996 33.0955,53.756 33.0955,53.636 C33.2155,53.156 33.5755,51.474 33.5755,51.474" id="Fill-12" fill="#FFFFFF"></path>
                    <path d="M26.0081,49.6722 C26.0081,49.6722 26.2481,48.7112 27.9301,48.8312 C27.3291,48.2312 26.7291,47.2702 24.3261,47.6302 C25.0471,48.1102 25.8881,48.8312 26.0081,49.6722" id="Fill-14" fill="#FFFFFF"></path>
                    <path d="M25.4641,48.097 C21.0461,48.097 17.4771,46.255 15.2601,44.71 C12.9151,43.076 11.1661,41.111 11.0041,40.3 C10.8381,39.471 8.4261,34.108 6.8441,30.706 C6.8051,30.62 6.7851,30.527 6.7881,30.432 L7.1491,19.982 C7.1571,19.746 7.3021,19.537 7.5211,19.447 L15.0881,16.324 C15.1441,16.301 15.2021,16.286 15.2631,16.281 L20.5481,15.8 C20.5661,15.799 20.5841,15.798 20.6031,15.798 C20.6451,15.798 20.6881,15.803 20.7301,15.812 L30.6991,17.974 C30.7361,17.982 30.7721,17.993 30.8061,18.007 C31.0401,18.107 36.5561,20.538 37.2971,29.804 C38.0441,39.141 35.4381,45.408 30.4561,47.301 C28.8441,47.913 27.1351,48.097 25.4641,48.097" id="Fill-16" fill="#0F1E33"></path>
                    <path d="M30.5725,18.5609 C30.5725,18.5609 35.9775,20.8429 36.6985,29.8519 C37.4195,38.8619 34.9325,44.9819 30.2715,46.7289 C19.7015,50.6939 11.8335,41.3839 11.5935,40.1829 C11.3525,38.9819 7.3885,30.4529 7.3885,30.4529 L7.7495,20.0019 L15.3165,16.8789 L20.6025,16.3989 L30.5725,18.5609 Z" id="Fill-18" fill="#FFDEAB"></path>
                    <path d="M23.1253,25.2875 C23.1253,25.2875 19.7623,22.4045 17.8393,23.9665 C16.8783,25.7675 17.1183,27.2095 17.1183,27.2095 C17.1183,27.2095 18.5603,23.4855 23.1253,25.2875" id="Fill-20" fill="#0F1E33"></path>
                    <path d="M29.6116,29.7318 C29.6116,29.7318 31.4136,34.5378 32.7346,35.7388 C32.6146,37.0598 30.3326,38.5018 26.8486,36.5798 C26.8486,36.5798 30.8126,37.4198 31.6536,35.8588 C31.2936,35.2578 29.6116,31.1728 29.6116,29.7318" id="Fill-22" fill="#0F1E33"></path>
                    <path d="M29.4827,4.8461 C29.3607,4.6751 29.1737,4.5751 28.9667,4.5751 C28.7947,4.5751 28.6287,4.6481 28.5097,4.7761 C28.3777,4.9211 28.2807,5.0261 28.3087,5.9451 C24.1907,2.2551 18.9347,2.1091 18.6917,2.1051 L17.2607,2.0761 L21.3717,6.4291 L15.5567,6.4291 L13.0947,6.4891 L15.2887,7.5671 C15.3277,7.5861 15.8607,7.8511 16.6377,8.1871 C14.8457,8.6151 13.3437,9.3271 13.2547,9.3701 L11.8717,10.0341 L13.4957,10.5341 L13.0587,10.7601 L11.4277,11.6061 L13.2467,11.8871 C13.2517,11.8881 13.5017,11.9291 13.9367,12.0831 C7.7347,14.7901 3.7627,21.4121 3.2717,23.0091 C3.1047,23.5521 3.1187,24.7531 4.7207,29.2581 C5.5867,31.6921 6.5247,33.9631 6.5337,33.9861 L6.6277,34.2111 L6.8507,34.3081 C7.0687,34.4021 12.2037,36.6151 14.1507,37.1021 L15.5867,37.4611 L14.8057,36.2021 C12.9957,33.2841 12.5867,30.8431 12.1897,28.4831 C12.1287,28.1171 12.0687,27.7581 12.0037,27.4031 C11.7137,25.8071 14.4827,22.3921 16.5147,20.3661 C17.5567,21.0551 20.4537,22.5951 25.8557,22.8841 C26.1277,22.8991 26.3937,22.9071 26.6487,22.9071 C29.5847,22.9071 31.5177,21.9411 32.5607,19.9541 C33.4607,18.2421 33.5797,15.9781 33.6947,13.7871 C33.9327,9.2561 30.0617,5.3971 29.4827,4.8461" id="Fill-24" fill="#0F1E33"></path>
                    <path d="M14.1761,30.0326 C14.1761,30.0326 18.5001,28.2306 21.8041,27.9296 C25.3371,27.6086 26.0081,28.4106 26.6091,28.6506 C27.2091,28.8906 28.5301,28.8906 29.2511,28.5306 C29.9721,28.1706 29.0111,27.2096 32.8551,26.6086 C36.6981,26.0086 38.1401,25.5276 38.9811,27.2096 C39.8221,28.8906 40.3021,32.7346 38.6201,33.5756 C36.9391,34.4176 34.0561,35.2586 32.8551,34.5376 C31.6541,33.8156 30.4521,32.3746 29.8521,30.4526 C29.1311,30.0926 27.3291,29.7316 27.0891,30.6926 C26.8491,31.6536 27.0891,33.8156 25.6481,34.7776 C24.2061,35.7386 18.7661,37.0876 17.4791,35.9786 C15.7381,34.4766 15.3771,32.9156 15.4971,31.4736 C14.8971,31.3536 14.1761,31.3536 14.1761,31.3536 L8.8221,33.5806 L7.0491,32.3546 L14.0561,30.6336 L14.1761,30.0326 Z" id="Fill-26" fill="#0F1E33"></path>
                    <path d="M17.5393,29.9125 C18.9803,29.3115 20.1953,29.1005 21.1433,28.9515 C23.4253,28.5915 25.8273,28.2305 26.0083,30.5725 C26.1913,32.9685 25.5273,34.1765 24.8073,34.4175 C24.0863,34.6575 19.5143,35.9865 18.4393,35.4985 C17.9063,35.2555 16.7143,34.4105 16.3133,32.1145 C16.0983,30.8735 16.8453,30.2015 17.5393,29.9125" id="Fill-28" fill="#FFFFFF"></path>
                    <path d="M33.1048,27.6351 C34.2168,27.4481 35.5408,27.2701 36.5188,27.2701 C38.5608,27.2701 38.8008,28.3511 38.9808,29.9721 C39.1558,31.5421 39.2818,32.6751 37.2398,33.3961 C35.1978,34.1161 33.9468,34.1081 33.1548,33.7561 C32.1918,33.3281 30.5668,32.3871 30.7768,29.2901 C30.8728,27.8701 32.5808,27.7231 33.1048,27.6351" id="Fill-30" fill="#FFFFFF"></path>
                    <path d="M12.1936,34.7777 C11.7246,34.3827 8.0496,30.0327 3.9056,33.2157 C3.0646,34.0557 2.1036,35.4987 5.4666,38.0207 C8.8306,40.5437 9.8516,41.2037 11.5336,40.1227 C13.2146,39.0417 15.9176,37.9007 12.1936,34.7777" id="Fill-32" fill="#FFDEAB"></path>
                    <path d="M4.1038,33.4418 C3.7308,33.8178 3.3608,34.2868 3.4058,34.9208 C3.4638,35.7468 4.2178,36.7088 5.6478,37.7808 C9.1108,40.3778 9.9158,40.8048 11.3708,39.8708 C11.5188,39.7748 11.6748,39.6788 11.8338,39.5818 C12.7088,39.0448 13.7008,38.4368 13.7618,37.6048 C13.8138,36.9048 13.2208,36.0308 12.0008,35.0068 C11.9498,34.9638 11.8818,34.8978 11.7818,34.7978 C9.0478,32.0948 6.4648,31.6388 4.1038,33.4418 M10.0908,40.9238 C8.9158,40.9238 7.6338,40.0208 5.2878,38.2608 C3.6908,37.0628 2.8788,35.9848 2.8058,34.9628 C2.7428,34.0648 3.2818,33.4148 3.6938,33.0038 L3.7228,32.9778 C5.4158,31.6768 7.2358,31.4118 9.1288,32.1908 C10.6178,32.8018 11.7288,33.9018 12.2038,34.3708 C12.2848,34.4508 12.3538,34.5198 12.3868,34.5468 C13.7828,35.7178 14.4278,36.7328 14.3608,37.6488 C14.2768,38.7878 13.1458,39.4808 12.1488,40.0928 C11.9938,40.1888 11.8398,40.2818 11.6958,40.3758 C11.1248,40.7428 10.6188,40.9238 10.0908,40.9238" id="Fill-34" fill="#0F1E33"></path>
                    <path d="M5.347,35.2582 C5.347,35.2582 5.948,34.6572 7.269,34.6572 C8.59,34.6572 10.272,35.1382 11.233,36.5792 C10.392,36.0992 8.71,35.2582 8.71,35.2582 C8.71,35.2582 7.749,37.0602 9.071,37.3002 C10.392,37.5402 11.233,37.3002 11.233,37.3002 C11.233,37.3002 10.032,38.3812 9.431,38.1412 C8.83,37.9012 7.629,37.5402 7.629,35.2582 C6.788,35.2582 5.827,35.0182 5.347,35.2582" id="Fill-36" fill="#050600"></path>
                    <path d="M28.3128,43.932 C25.7078,43.966 24.4078,42.596 24.2658,42.405 C23.9478,42.79 23.8438,43.105 23.8428,43.109 C23.8298,43.161 23.7838,43.197 23.7308,43.199 L23.7268,43.199 C23.6748,43.199 23.6288,43.165 23.6128,43.116 C23.4588,42.645 23.4998,42.243 23.7348,41.917 C24.1558,41.337 25.0828,41.182 25.5638,41.182 C25.5858,41.182 25.6088,41.182 25.6278,41.183 C25.6858,41.185 25.7338,41.227 25.7438,41.283 C25.7528,41.339 25.7218,41.394 25.6678,41.415 C25.3608,41.536 25.0808,41.686 24.8338,41.862 C24.8358,41.863 25.7078,42.885 27.5328,43.128 C27.7088,43.152 27.9058,43.18 28.1248,43.18 C30.0278,43.18 32.5948,41.868 32.6248,41.854 C32.6398,41.847 32.6578,41.843 32.6738,41.843 C32.7168,41.843 32.7578,41.867 32.7798,41.906 C32.8098,41.961 32.7918,42.031 32.7388,42.065 C32.6618,42.114 31.2708,43.25 29.6908,43.733 C29.2568,43.866 28.7938,43.932 28.3128,43.932" id="Fill-38" fill="#0F1E33"></path>
                    <path d="M19.1116,32.4584 C19.4056,32.4034 19.4176,32.2344 19.3896,32.0894 C19.3686,31.9734 19.3306,31.8594 19.2926,31.7464 C19.2546,31.6344 19.2166,31.5244 19.1956,31.4084 C19.1256,31.0264 19.3436,30.8184 19.6966,30.7534 L19.7836,30.7374 L19.8256,30.9664 L19.7516,30.9794 C19.5066,31.0244 19.4476,31.1734 19.4896,31.3964 C19.5076,31.4924 19.5386,31.5904 19.5736,31.6874 C19.6086,31.7874 19.6396,31.8844 19.6606,31.9964 C19.7146,32.2614 19.6226,32.4154 19.4446,32.4994 L19.4466,32.5084 C19.6416,32.5194 19.7836,32.6384 19.8296,32.9044 C19.8496,33.0174 19.8566,33.1234 19.8586,33.2254 C19.8606,33.3324 19.8666,33.4304 19.8846,33.5294 C19.9276,33.7624 20.0476,33.8724 20.2796,33.8294 L20.3536,33.8154 L20.3956,34.0444 L20.3086,34.0604 C19.9656,34.1244 19.6796,34.0224 19.6016,33.6044 C19.5816,33.4914 19.5766,33.3724 19.5726,33.2574 C19.5686,33.1424 19.5636,33.0264 19.5436,32.9144 C19.5196,32.7864 19.4446,32.6154 19.1506,32.6704 L19.1116,32.4584 Z" id="Fill-40" fill="#0F1E33"></path>
                    <path d="M20.5901,33.3041 C20.5621,33.1511 20.6451,33.0241 20.7901,32.9971 C20.9361,32.9701 21.0551,33.0601 21.0831,33.2131 C21.1111,33.3631 21.0361,33.4921 20.8831,33.5211 C20.7371,33.5471 20.6171,33.4531 20.5901,33.3041" id="Fill-42" fill="#0F1E33"></path>
                    <path d="M21.4485,33.1449 C21.4205,32.9919 21.5045,32.8649 21.6485,32.8379 C21.7945,32.8109 21.9145,32.9009 21.9425,33.0539 C21.9695,33.2039 21.8955,33.3329 21.7415,33.3619 C21.5965,33.3879 21.4755,33.2939 21.4485,33.1449" id="Fill-44" fill="#0F1E33"></path>
                    <path d="M22.3079,32.9867 C22.2789,32.8327 22.3629,32.7057 22.5079,32.6787 C22.6539,32.6517 22.7729,32.7417 22.8009,32.8947 C22.8289,33.0447 22.7539,33.1737 22.6009,33.2027 C22.4549,33.2287 22.3349,33.1347 22.3079,32.9867" id="Fill-46" fill="#0F1E33"></path>
                    <path d="M23.8509,31.7992 C23.5569,31.8542 23.5479,32.0392 23.5719,32.1682 C23.5929,32.2802 23.6299,32.3892 23.6669,32.4982 C23.7049,32.6072 23.7439,32.7202 23.7639,32.8322 C23.8409,33.2512 23.6079,33.4482 23.2679,33.5122 L23.1799,33.5282 L23.1379,33.3002 L23.2079,33.2862 C23.4399,33.2392 23.5169,33.0972 23.4739,32.8642 C23.4549,32.7652 23.4209,32.6722 23.3889,32.5702 C23.3539,32.4752 23.3189,32.3742 23.2969,32.2622 C23.2479,31.9962 23.3379,31.8342 23.5129,31.7542 L23.5109,31.7462 C23.3199,31.7302 23.1779,31.6182 23.1289,31.3542 C23.1089,31.2412 23.1069,31.1392 23.1039,31.0312 C23.0979,30.9302 23.0959,30.8272 23.0789,30.7322 C23.0379,30.5082 22.9259,30.3962 22.6849,30.4362 L22.6099,30.4492 L22.5679,30.2222 L22.6509,30.2062 C23.0029,30.1412 23.2869,30.2562 23.3569,30.6372 C23.3779,30.7532 23.3829,30.8682 23.3879,30.9872 C23.3929,31.1082 23.3979,31.2272 23.4189,31.3432 C23.4459,31.4872 23.5179,31.6422 23.8119,31.5872 L23.8509,31.7992 Z" id="Fill-48" fill="#0F1E33"></path>
                    <path d="M32.5647,30.7767 C32.8597,30.7217 32.8707,30.5527 32.8437,30.4077 C32.8227,30.2917 32.7847,30.1777 32.7467,30.0647 C32.7087,29.9527 32.6697,29.8427 32.6487,29.7267 C32.5787,29.3447 32.7967,29.1367 33.1497,29.0717 L33.2377,29.0557 L33.2797,29.2847 L33.2047,29.2977 C32.9607,29.3427 32.9017,29.4917 32.9427,29.7147 C32.9607,29.8107 32.9917,29.9087 33.0267,30.0047 C33.0627,30.1057 33.0927,30.2027 33.1147,30.3147 C33.1677,30.5797 33.0767,30.7337 32.8987,30.8177 L32.8997,30.8267 C33.0947,30.8377 33.2377,30.9567 33.2827,31.2227 C33.3027,31.3357 33.3097,31.4407 33.3117,31.5437 C33.3147,31.6507 33.3197,31.7487 33.3377,31.8477 C33.3807,32.0807 33.5007,32.1907 33.7327,32.1477 L33.8077,32.1337 L33.8497,32.3627 L33.7627,32.3787 C33.4187,32.4427 33.1327,32.3407 33.0557,31.9217 C33.0357,31.8097 33.0307,31.6907 33.0257,31.5757 C33.0217,31.4607 33.0177,31.3447 32.9977,31.2327 C32.9727,31.1047 32.8987,30.9337 32.6037,30.9887 L32.5647,30.7767 Z" id="Fill-50" fill="#0F1E33"></path>
                    <path d="M34.0432,31.6224 C34.0152,31.4694 34.0992,31.3424 34.2432,31.3154 C34.3892,31.2884 34.5092,31.3774 34.5372,31.5314 C34.5642,31.6804 34.4902,31.8094 34.3362,31.8394 C34.1912,31.8654 34.0702,31.7714 34.0432,31.6224" id="Fill-52" fill="#0F1E33"></path>
                    <path d="M34.9026,31.4633 C34.8736,31.3103 34.9576,31.1833 35.1026,31.1563 C35.2486,31.1293 35.3676,31.2193 35.3956,31.3723 C35.4236,31.5213 35.3486,31.6503 35.1956,31.6803 C35.0496,31.7063 34.9296,31.6123 34.9026,31.4633" id="Fill-54" fill="#0F1E33"></path>
                    <path d="M35.761,31.3051 C35.733,31.1511 35.817,31.0241 35.961,30.9971 C36.107,30.9701 36.226,31.0601 36.255,31.2131 C36.282,31.3631 36.207,31.4921 36.054,31.5211 C35.909,31.5471 35.788,31.4531 35.761,31.3051" id="Fill-56" fill="#0F1E33"></path>
                    <path d="M37.305,30.1176 C37.01,30.1726 37.001,30.3576 37.026,30.4866 C37.046,30.5986 37.083,30.7076 37.121,30.8166 C37.159,30.9256 37.197,31.0386 37.217,31.1506 C37.295,31.5696 37.061,31.7666 36.721,31.8306 L36.634,31.8466 L36.592,31.6186 L36.662,31.6046 C36.894,31.5576 36.97,31.4156 36.927,31.1826 C36.909,31.0836 36.874,30.9906 36.843,30.8886 C36.808,30.7936 36.772,30.6926 36.751,30.5806 C36.701,30.3146 36.792,30.1526 36.966,30.0726 L36.964,30.0646 C36.773,30.0486 36.632,29.9366 36.582,29.6726 C36.562,29.5596 36.56,29.4576 36.558,29.3496 C36.552,29.2486 36.55,29.1456 36.533,29.0506 C36.491,28.8266 36.379,28.7146 36.138,28.7546 L36.064,28.7676 L36.021,28.5396 L36.104,28.5246 C36.457,28.4596 36.74,28.5746 36.811,28.9556 C36.832,29.0716 36.836,29.1866 36.841,29.3056 C36.846,29.4266 36.851,29.5456 36.872,29.6606 C36.9,29.8056 36.971,29.9606 37.266,29.9056 L37.305,30.1176 Z" id="Fill-58" fill="#0F1E33"></path>
                    <path d="M29.8518,24.807 C29.8518,24.807 33.0948,18.801 34.6568,24.807 C33.4558,23.486 32.7348,23.005 29.8518,24.807" id="Fill-60" fill="#0F1E33"></path>
                    <path d="M28.4104,48.8314 C28.4104,48.8314 29.3714,48.3514 29.9724,48.5914 C29.4914,48.1104 28.4104,47.7504 28.1704,47.8704 C28.2904,48.1104 28.4104,48.8314 28.4104,48.8314" id="Fill-62" fill="#FFFFFF"></path>
                    <path d="M22.1038,48.9281 C21.8688,49.1051 21.5998,49.3081 21.2918,49.5411 L20.3248,48.9251 C20.2258,48.8631 20.1138,48.8311 20.0018,48.8311 C19.9528,48.8311 19.9038,48.8391 19.8558,48.8511 C19.8168,48.3951 19.7068,47.8561 19.4978,47.2111 C21.2528,45.6081 21.5958,44.7771 21.6608,44.5521 C21.8328,43.9491 21.9108,42.8191 21.4208,42.1691 C21.2018,41.8781 20.8878,41.7171 20.5408,41.7171 C20.4278,41.7171 20.3128,41.7351 20.1978,41.7671 C20.0598,41.8071 19.9418,41.8931 19.8628,42.0121 C19.8418,42.0421 19.8158,42.0831 19.7838,42.1351 C19.4548,42.6571 18.4938,44.1821 16.8218,44.6821 L15.3978,43.2571 C14.9478,42.7361 13.4738,41.1341 12.3248,41.1341 C12.0358,41.1341 11.7718,41.2291 11.5628,41.4081 C10.9058,41.9721 10.4978,42.7081 10.4708,43.3781 C10.4568,43.7611 10.5768,44.0991 10.8078,44.3311 C11.1228,44.6451 12.6868,46.0411 13.1978,46.4961 C12.8528,46.7501 12.5598,47.0361 12.4648,47.3201 C12.3898,47.5451 12.2938,47.9381 12.2338,48.2741 C12.1588,48.6861 12.1298,48.9901 12.2048,49.2241 C12.1708,49.3571 12.0868,49.5971 12.0018,49.7961 C11.9928,49.8181 11.9848,49.8401 11.9778,49.8631 C11.3828,51.8871 13.1728,53.2481 13.5138,53.4871 C14.0828,53.8851 14.4598,54.0031 14.4858,54.0081 C14.7098,54.0551 15.1778,54.1541 15.7128,54.1541 C16.3588,54.1541 16.9048,54.0101 17.3408,53.7301 C17.3628,53.7621 17.3868,53.7921 17.4158,53.8211 C17.5958,54.0021 17.8568,54.1021 18.1488,54.1021 C18.5838,54.1021 19.0418,53.8851 19.4038,53.5071 C19.4128,53.4971 19.4208,53.4871 19.4298,53.4771 C19.4978,53.5021 19.5688,53.5161 19.6418,53.5161 C19.7138,53.5161 20.1248,53.5031 21.1088,53.2581 C21.3978,53.1861 21.7278,53.0121 22.1038,52.7571 L22.1038,48.9281 Z" id="Fill-64" fill="#0F1E33"></path>
                    <path d="M29.972,50.7533 C29.972,50.7533 27.69,50.1523 27.57,49.3123 C26.368,49.3123 26.128,50.2733 26.128,50.2733 C26.128,50.2733 25.408,49.5523 24.927,48.8313 C24.447,48.1103 24.086,48.3513 23.966,48.3513 C23.846,48.3513 21.324,50.2733 21.324,50.2733 L20.002,49.4323 C20.243,50.7533 19.642,52.9153 19.642,52.9153 C19.642,52.9153 20.002,52.9153 20.963,52.6753 C21.924,52.4353 24.086,50.2733 24.927,49.6723 C24.687,50.1523 24.447,50.3933 24.086,50.7533 C24.184,52.0293 23.24,55.7113 22.891,57.0153 C23.385,57.2843 23.888,57.5493 24.406,57.8093 C24.658,57.6833 24.906,57.5543 25.153,57.4253 C25.42,57.2843 25.685,57.1433 25.947,57.0003 C25.969,56.9873 25.993,56.9753 26.015,56.9633 C26.545,56.6723 27.064,56.3753 27.568,56.0743 C27.584,56.0653 27.6,56.0553 27.617,56.0453 C27.859,55.9003 28.097,55.7553 28.333,55.6073 C28.345,55.6013 28.357,55.5943 28.368,55.5863 C28.86,55.2793 29.338,54.9683 29.804,54.6523 C29.826,54.6393 29.846,54.6243 29.868,54.6093 C30.335,54.2923 30.789,53.9703 31.232,53.6453 C31.232,53.6443 31.233,53.6443 31.233,53.6443 C30.701,52.0023 29.972,50.7533 29.972,50.7533" id="Fill-66" fill="#FFFFFF"></path>
                    <path d="M19.6419,50.6332 L18.9199,51.1132 C18.9199,51.1132 18.9199,52.7952 17.8389,53.3962 C18.1999,53.7562 19.7619,53.2762 19.6419,50.6332" id="Fill-68" fill="#FFFFFF"></path>
                    <path d="M18.8001,47.0297 C18.8001,47.0297 20.8431,45.2277 21.0831,44.3867 C21.3231,43.5467 21.2031,42.1047 20.3621,42.3447 C20.1221,42.7057 18.9201,44.8677 16.6381,45.3477 C16.2781,44.9877 14.9561,43.6667 14.9561,43.6667 C14.9561,43.6667 12.7941,41.1437 11.9531,41.8647 C11.1131,42.5857 10.8721,43.5467 11.2331,43.9067 C11.5931,44.2667 13.7551,46.1887 13.7551,46.1887 L14.2361,46.5497 C14.2361,46.5497 13.1541,47.1497 13.0341,47.5097 C12.9141,47.8707 12.6741,48.9517 12.7941,49.0717 C12.9141,49.1917 12.5541,50.0327 12.5541,50.0327 C12.5541,50.0327 11.9531,52.0747 12.3141,52.0747 C12.6741,52.0747 14.3561,53.3957 14.4761,53.3957 C14.5961,53.3957 16.1571,53.8767 17.1181,53.1557 C18.0791,52.4347 18.3201,51.4737 18.4401,50.7537 C18.8001,50.5127 19.8821,50.0327 18.8001,47.0297" id="Fill-70" fill="#FFFFFF"></path>
                    <path d="M15.1067,53.4642 C15.0357,53.4642 14.9627,53.4602 14.8887,53.4522 C13.7117,53.3212 12.4567,52.7972 11.8357,52.1772 C11.1027,51.4432 11.3127,50.1262 12.3257,49.1132 C12.4437,48.9952 12.5997,48.9352 12.7567,48.9352 C12.8757,48.9352 12.9927,48.9682 13.0957,49.0372 C14.2567,49.8112 15.8117,50.6462 16.3007,50.6462 C16.6377,50.6462 16.9117,50.9192 16.9117,51.2562 C16.9117,51.4142 16.8897,51.9732 16.6107,52.5112 C16.2917,53.1262 15.7567,53.4642 15.1067,53.4642" id="Fill-72" fill="#0F1E33"></path>
                    <path d="M12.7571,49.5463 C12.7571,49.5463 15.3231,51.2563 16.3011,51.2563 C16.3011,51.7453 16.0571,52.9673 14.9571,52.8453 C13.8571,52.7233 12.7571,52.2343 12.2691,51.7453 C11.7791,51.2563 12.0251,50.2783 12.7571,49.5463" id="Fill-74" fill="#FFFFFF"></path>
                    <path d="M16.554,51.5072 C16.492,51.5072 16.427,51.5042 16.363,51.4972 C15.027,51.3642 12.569,49.9222 12.211,49.2082 C11.977,48.7392 11.878,47.9882 12.188,47.3692 C12.371,47.0032 12.769,46.5342 13.625,46.3792 C13.661,46.3722 13.699,46.3682 13.735,46.3682 C13.786,46.3682 13.837,46.3752 13.888,46.3882 C13.927,46.3992 14.869,46.6432 15.858,46.9832 C17.827,47.6592 18.218,48.1112 18.347,48.4972 C18.539,49.0752 18.474,50.0662 17.972,50.7622 C17.626,51.2422 17.122,51.5072 16.554,51.5072" id="Fill-76" fill="#0F1E33"></path>
                    <path d="M13.7346,46.9799 C13.7346,46.9799 17.5226,47.9579 17.7666,48.6909 C18.0116,49.4229 17.6446,51.0119 16.4226,50.8899 C15.2016,50.7679 12.9756,49.3729 12.7566,48.9349 C12.5126,48.4459 12.3906,47.2239 13.7346,46.9799" id="Fill-78" fill="#FFFFFF"></path>
                    <path d="M30.429,51.4291 C30.037,50.3791 29.539,49.3831 29.271,48.9791 C29.17,48.8291 29.009,48.7321 28.829,48.7141 C28.81,48.7121 28.79,48.7111 28.771,48.7111 C28.617,48.7111 28.469,48.7701 28.357,48.8761 C28.247,48.7461 28.093,48.6791 27.93,48.6791 C27.827,48.6791 27.722,48.7051 27.623,48.7601 C27.341,48.9151 27.248,49.2921 27.393,49.5801 C27.673,50.1421 27.665,52.4081 27.571,53.8361 C27.56,53.9931 27.612,54.1481 27.714,54.2671 L28.678,55.3921 C29.484,54.8801 30.255,54.3551 30.992,53.8201 C30.991,53.3671 30.877,52.6301 30.429,51.4291" id="Fill-80" fill="#0F1E33"></path>
                    <path d="M27.93,49.3119 C28.41,50.2729 28.17,53.8759 28.17,53.8759 L29.188,55.0639 C29.569,54.8139 29.943,54.5619 30.308,54.3069 C30.316,54.2839 30.325,54.2609 30.332,54.2369 C30.693,53.1559 29.251,50.0329 28.771,49.3119 C28.29,49.7919 27.93,49.3119 27.93,49.3119" id="Fill-82" fill="#EE4035"></path>
                    <path d="M39.8216,51.1136 C39.6086,51.0076 39.4036,50.9396 39.1996,50.8846 C39.4876,51.2406 39.6056,51.7376 39.5086,52.1756 C39.3686,52.8076 38.2596,53.1096 37.6706,52.8426 C36.8816,52.4846 36.9236,51.2606 37.0426,51.2416 C37.0986,52.3276 37.8686,52.5666 38.5796,52.4506 C39.1836,52.3506 39.2926,51.6026 38.8396,51.0686 C38.6876,50.8896 38.4786,50.8046 38.2606,50.7506 C37.8696,50.7366 37.4756,50.7536 37.0586,50.7536 C36.0976,50.7536 34.6566,51.4736 34.6566,51.4736 L34.4766,53.5886 C34.4766,53.5886 35.0346,53.8336 35.8506,54.2356 C35.9476,54.2476 36.0506,54.2836 36.1426,54.2836 C36.1696,54.2836 36.1946,54.2826 36.2196,54.2816 C36.4996,54.2746 36.7866,54.2026 37.0746,54.0686 C37.3736,53.9336 37.6266,53.7176 37.8136,53.5446 C37.8366,53.5236 37.8696,53.5096 37.8996,53.5096 C37.9306,53.5096 37.9666,53.5246 37.9886,53.5476 C38.0296,53.5886 38.0366,53.6606 38.0036,53.7086 C37.8046,53.9926 37.5396,54.2276 37.2356,54.3906 L37.1896,54.4156 C37.0206,54.5056 36.8326,54.5866 36.6336,54.6446 C37.6916,55.0136 39.2206,54.5966 39.2206,54.5966 C39.2206,54.5966 38.9806,55.6776 39.1006,56.1586 C39.1906,56.5186 39.4826,56.4736 39.6746,56.3286 C39.5926,56.2266 39.5226,56.1106 39.4716,55.9926 C39.3636,55.7486 39.3496,55.4856 39.3496,55.2856 C39.3506,54.8636 39.4266,54.4286 39.5816,53.9576 C39.5976,53.9076 39.6496,53.8706 39.7016,53.8706 C39.7146,53.8706 39.7286,53.8726 39.7406,53.8776 C39.8046,53.8996 39.8406,53.9646 39.8236,54.0276 C39.7736,54.2216 39.7366,54.4316 39.7116,54.6516 C39.6826,54.8886 39.6756,55.0926 39.6856,55.2756 C39.6976,55.4726 39.7376,55.6696 39.8056,55.8586 C39.8696,56.0346 39.9666,56.2176 40.1126,56.3286 C40.7286,56.5976 40.9676,55.9996 41.0906,55.6856 C41.0136,55.6396 40.9356,55.6056 40.8696,55.5346 C40.7096,55.3646 40.5926,55.1456 40.5036,54.8456 C40.4386,54.6226 40.3956,54.3836 40.3716,54.1166 C40.3576,53.9306 40.3476,53.7136 40.3776,53.4906 C40.3406,53.4726 40.3086,53.4546 40.2796,53.4316 C40.2126,53.3876 40.1526,53.3216 40.1096,53.2406 C40.0386,53.1056 40.0206,52.9376 40.0586,52.7676 C40.0716,52.7126 40.1256,52.6696 40.1816,52.6696 C40.1906,52.6696 40.2016,52.6706 40.2096,52.6726 C40.2716,52.6856 40.3176,52.7536 40.3056,52.8166 C40.2876,52.9256 40.3026,53.0316 40.3476,53.1056 C40.3716,53.1446 40.4016,53.1766 40.4356,53.1966 C40.4796,53.2256 40.5286,53.2406 40.5806,53.2546 L40.6036,53.2596 C40.6626,53.2756 40.7006,53.3336 40.6916,53.3936 L40.6876,53.4196 C40.6596,53.6056 40.6616,53.8166 40.6936,54.0836 C40.7226,54.3176 40.7726,54.5386 40.8426,54.7376 C40.9296,54.9846 41.0216,55.1676 41.1336,55.3096 C41.1976,55.3876 41.2696,55.4506 41.3476,55.4916 C41.4006,55.5186 41.4656,55.5246 41.5276,55.5336 C41.8486,55.3926 41.9836,54.8976 41.9836,53.9966 C41.9836,51.9406 40.7826,51.5936 39.8216,51.1136" id="Fill-84" fill="#FFFFFF"></path>
                    <g id="Group-2" transform="translate(59.000000, 21.000000)" fill="#FFFFFF">
                        <polygon id="Fill-86" points="0.7439 0.38 10.7439 0.38 10.7439 6.16980951 6.72561393 6.16980951 6.72561393 3.7150749 4.76218607 3.7150749 4.76218607 14.0449251 6.72561393 14.0449251 6.72561393 11.5901905 10.7439 11.5901905 10.7439 17.38 0.7439 17.38"></polygon>
                        <path d="M16.7621861,14.0457111 L18.7256139,14.0457111 L18.7256139,3.71586092 L16.7621861,3.71586092 L16.7621861,14.0457111 Z M12.7439,17.38 L22.7439,17.38 L22.7439,0.38 L12.7439,0.38 L12.7439,17.38 Z" id="Fill-88"></path>
                        <path d="M30.7713291,13.99855 L30.7713291,5.05837988 L29.446364,3.7150749 L28.7614112,3.7150749 L28.7614112,13.99855 L30.7713291,13.99855 Z M24.7439,17.38 L24.7439,0.38 L31.1362756,0.38 L34.7439,4.03970039 L34.7439,17.38 L24.7439,17.38 Z" id="Fill-90"></path>
                        <polygon id="Fill-91" points="36.7439 17.38 36.7439 0.38 46.7439 0.38 46.7439 3.7150749 40.7621861 3.7150749 40.7621861 7.18927501 45.7389411 7.18927501 45.7389411 10.5243499 40.7621861 10.5243499 40.7621861 14.0449251 46.7439 14.0449251 46.7439 17.38"></polygon>
                        <polygon id="Fill-92" points="47.7439 0.38 51.7621861 0.38 51.7621861 14.0449251 57.7439 14.0449251 57.7439 17.38 47.7439 17.38"></polygon>
                        <polygon id="Fill-93" points="59.7439 17.38 59.7439 0.38 69.7439 0.38 69.7439 3.7150749 63.7629609 3.7150749 63.7629609 7.18927501 68.7397159 7.18927501 68.7397159 10.5243499 63.7629609 10.5243499 63.7629609 14.0449251 69.7439 14.0449251 69.7439 17.38"></polygon>
                        <path d="M77.4323876,9.04270575 L77.2486871,3.71586092 L76.1931878,3.71586092 L76.0102657,9.04270575 L77.4323876,9.04270575 Z M71.7439,17.38 L72.4779235,0.38 L80.9865247,0.38 L81.7439,17.38 L77.7079383,17.38 L77.5927363,12.4005752 L75.8950637,12.4005752 L75.7806401,17.38 L71.7439,17.38 Z" id="Fill-94"></path>
                        <path d="M86.7626495,7.18927501 L87.995314,7.18927501 L88.7259253,6.44884594 L88.7259253,3.7150749 L86.7626495,3.7150749 L86.7626495,7.18927501 Z M82.7439,17.38 L82.7439,0.38 L92.7439,0.38 L92.7439,6.54081006 L90.5977777,8.90358054 L92.7439,11.2191899 L92.7439,17.38 L88.7259253,17.38 L88.7259253,11.266351 L87.995314,10.5243499 L86.7626495,10.5243499 L86.7626495,17.38 L82.7439,17.38 Z" id="Fill-95"></path>
                        <polygon id="Fill-96" points="94.7439 17.38 94.7439 0.38 98.7629609 0.38 100.726389 6.95739967 100.726389 0.38 104.7439 0.38 104.7439 17.38 100.862759 17.38 98.7629609 10.8026003 98.7629609 17.38"></polygon>
                    </g>
                </g>
            </g>
        </g>
    </g>
</svg>