<svg width="35" height="35" viewBox="0 0 35 35" fill="none" xmlns="http://www.w3.org/2000/svg">
<path d="M19.3515 23.523L18.9351 22.769L19.04 23.4322L19.4415 24.2769L19.3515 23.523Z" fill="#C67914"/>
<path d="M18.2617 30.4186L24.0439 30.1075L23.8081 29.594C23.8081 29.594 21.1403 29.1397 20.2816 26.8077C19.4229 24.4752 20.2816 22.8798 20.2816 22.8798H15.1055C15.1055 22.8798 15.9642 24.4752 15.1055 26.8077C14.2469 29.1402 11.579 29.594 11.579 29.594L11.3432 30.1075L17.1255 30.4186V30.4797L17.6936 30.4492L18.2617 30.4797V30.4186Z" fill="url(#paint0_linear_2005_3560)"/>
<path style="mix-blend-mode:multiply" d="M23.8095 29.594C23.8095 29.594 21.1417 29.1397 20.283 26.8077C19.4244 24.4752 20.283 22.8802 20.283 22.8802H15.1069C15.1069 22.8802 15.3785 23.3851 15.4634 24.2417C15.8997 24.3192 16.4014 24.5122 17.2239 24.6832C18.6548 24.981 18.8665 26.9741 20.1545 28.1901C20.9402 28.9317 22.6283 29.3869 23.8258 29.6291L23.8095 29.594Z" fill="url(#paint1_radial_2005_3560)"/>
<path style="mix-blend-mode:overlay" d="M15.843 24.7493C15.843 24.7493 15.5566 26.8665 14.8665 27.677C14.1763 28.4875 14.7653 28.9837 17.2229 29.0334C19.6805 29.0831 17.2568 24.1701 15.8425 24.7493H15.843Z" fill="url(#paint2_linear_2005_3560)"/>
<path d="M16.4914 25.1047C16.0356 24.8807 16.0621 26.6846 15.5826 27.5361C15.1032 28.3876 15.1199 28.6941 15.9697 28.3466C16.82 27.999 16.626 25.1708 16.4914 25.1047Z" fill="white"/>
<path d="M11.0053 32.0382H24.3809C25.0474 32.0382 24.9262 31.5023 24.9262 30.8473V30.7447C24.9262 30.0897 24.3809 29.5538 23.7144 29.5538H11.6723C11.0058 29.5538 10.4604 30.0897 10.4604 30.7447V30.8473C10.4604 31.5023 10.3393 32.0382 11.0058 32.0382H11.0053Z" fill="url(#paint3_linear_2005_3560)"/>
<path style="mix-blend-mode:overlay" d="M17.3357 29.7112C17.4763 29.9662 17.6857 30.5527 16.8614 30.6289C16.5991 30.653 11.8881 30.7958 11.5191 30.5212C11.1501 30.2467 11.2378 29.6223 11.9758 29.6223C12.7138 29.6223 17.2364 29.5311 17.3357 29.7117V29.7112Z" fill="url(#paint4_linear_2005_3560)"/>
<path style="mix-blend-mode:multiply" d="M20.9049 32.0382H24.3813C25.0478 32.0382 24.9267 31.5023 24.9267 30.8473V30.7447C24.9267 30.0897 24.3813 29.5538 23.7148 29.5538H23.6206C23.7408 29.89 23.7441 30.2936 23.1829 30.4528C22.1479 30.7456 19.7488 30.7962 19.7488 30.7962H10.4604V30.8473C10.4604 31.5023 10.3393 32.0382 11.0058 32.0382H20.9054H20.9049Z" fill="url(#paint5_radial_2005_3560)"/>
<path d="M9.49038 33.5H25.8963C26.5628 33.5 26.4417 32.9641 26.4417 32.3091V32.2065C26.4417 31.5515 25.8963 31.0156 25.2298 31.0156H10.1569C9.49038 31.0156 8.94501 31.5515 8.94501 32.2065V32.3091C8.94501 32.9641 8.82387 33.5 9.49038 33.5Z" fill="url(#paint6_linear_2005_3560)"/>
<path style="mix-blend-mode:overlay" d="M17.1138 31.4581C17.4183 31.801 17.6003 32.8099 16.5332 32.8396C16.2037 32.8487 10.271 32.8022 9.90111 32.674C9.2787 32.4583 9.49963 31.3071 10.4214 31.3071C11.3432 31.3071 16.769 31.0695 17.1143 31.4581H17.1138Z" fill="url(#paint7_linear_2005_3560)"/>
<path style="mix-blend-mode:multiply" d="M26.4398 32.2065C26.4398 31.5515 25.8944 31.0156 25.2279 31.0156H24.7559C24.9879 31.3066 24.935 32.0377 24.4848 32.5089C23.5148 33.5228 9.2782 33.3175 8.93799 32.9285C8.95423 33.2701 9.05263 33.5 9.48892 33.5H25.8949C26.5614 33.5 26.4402 32.9641 26.4402 32.3091V32.2065H26.4398Z" fill="url(#paint8_radial_2005_3560)"/>
<path d="M12.9477 29.7117C12.5611 29.7304 12.3327 30.3037 12.3922 30.4797C12.4516 30.6562 13.7052 30.638 13.9322 30.2079C14.1596 29.7778 13.6291 29.6784 12.9473 29.7117H12.9477Z" fill="white"/>
<path d="M11.9183 31.308C11.3028 31.3376 10.9399 32.2498 11.0341 32.5308C11.1283 32.8113 13.1236 32.7825 13.4852 32.0979C13.8468 31.4133 13.003 31.2555 11.9178 31.308H11.9183Z" fill="white"/>
<path style="mix-blend-mode:multiply" d="M26.4416 32.3091V32.2065C26.4416 31.5515 25.8963 31.0156 25.2298 31.0156H24.929C24.9276 30.9604 24.9267 30.9043 24.9267 30.8468V30.7442C24.9267 30.0893 24.3813 29.5534 23.7148 29.5534H23.6239C23.0047 29.4015 21.0047 28.768 20.283 26.8077C19.4243 24.4752 20.283 22.8802 20.283 22.8802H17.6935C17.6935 22.8802 18.5619 24.8383 18.5619 26.4779C18.5619 28.9842 17.6935 29.5547 17.6935 29.5547C17.7014 29.5547 17.7089 29.5534 17.7167 29.5534H20.6566C21.0042 29.5534 21.2888 29.8329 21.2888 30.1746C21.2888 30.5162 21.0042 30.7958 20.6566 30.7958H17.7167C17.7089 30.7958 17.7014 30.7948 17.6935 30.7944V31.0156H21.4405C22.107 31.0156 22.6524 31.5515 22.6524 32.2065V32.3091C22.6524 32.964 22.107 33.4999 21.4405 33.4999H25.8967C26.5632 33.4999 26.4421 32.964 26.4421 32.3091H26.4416Z" fill="url(#paint9_linear_2005_3560)"/>
<path d="M31.2117 14.4419C32.1107 14.8136 33.4859 14.0063 34.0007 12.4971C34.3906 11.356 34.3516 10.2271 34.3516 10.2271C34.3516 10.2271 32.5368 10.4757 31.6169 11.9516C31.3393 12.3958 31.1931 12.7981 31.123 13.1443C31.2265 12.0647 31.1977 10.9715 31.0163 9.90375C31 9.80706 30.981 9.71037 30.962 9.61367C31.0469 9.70854 31.1068 9.75369 31.1068 9.75369C32.0773 9.68619 32.9517 8.35212 32.7452 6.76993C32.5888 5.57405 32.0536 4.58068 32.0536 4.58068C32.0536 4.58068 30.5382 5.60963 30.3665 7.34187C30.359 7.41895 30.3539 7.49329 30.3507 7.56581C30.2476 7.31268 30.1349 7.06411 30.0133 6.81964C29.771 6.33618 29.493 5.87097 29.1792 5.43084C29.1077 5.3305 29.0335 5.23152 28.9578 5.13437C28.9699 5.13073 28.9768 5.12799 28.9768 5.12799C29.4526 4.27737 28.8162 2.81331 27.382 2.12051C26.2983 1.59691 25.1751 1.50159 25.1751 1.50159C25.1751 1.50159 25.2048 3.33645 26.5573 4.42834C27.3417 5.0614 28.0295 5.19549 28.4695 5.19686C28.5967 5.36561 28.7183 5.53984 28.8348 5.71681C29.1193 6.15146 29.3713 6.60665 29.5872 7.07779C29.6828 7.28851 29.7714 7.50196 29.8527 7.71815C29.57 7.39432 29.2005 7.10288 28.7531 6.88714C27.6693 6.36309 26.5466 6.26822 26.5466 6.26822C26.5466 6.26822 26.5758 8.10263 27.9283 9.19452C29.2804 10.2864 30.3484 9.89417 30.3484 9.89417C30.3688 9.85723 30.3864 9.81846 30.4036 9.77878C30.4184 9.86909 30.4333 9.95939 30.4458 10.0497C30.5758 10.9847 30.5865 11.9329 30.4909 12.8702C30.2885 12.3781 29.9311 11.8887 29.421 11.4964C28.4667 10.7617 27.3867 10.4392 27.3867 10.4392C27.3867 10.4392 27.0428 12.2408 28.1432 13.5867C28.9304 14.5482 29.7297 14.7379 30.1214 14.768C29.9859 15.2177 29.8188 15.6578 29.6178 16.0825C29.3611 16.6293 29.052 17.1506 28.7039 17.6441C28.8455 16.9189 28.7285 16.0264 28.2625 15.1876C27.5969 13.9908 26.6162 13.1662 26.6162 13.1662C26.6162 13.1662 25.4461 14.8902 25.9901 16.7903C26.4157 18.2804 27.2739 18.8081 27.6253 18.9668C27.0242 19.6062 26.3572 20.1846 25.6443 20.6968C25.3616 20.9006 25.0697 21.0917 24.7722 21.2728C25.0873 20.7424 25.2892 20.0655 25.2869 19.3143C25.2827 17.9447 24.8219 16.7474 24.8219 16.7474C24.8219 16.7474 22.9667 17.6884 22.5244 19.6149C22.2143 20.9654 22.5777 21.8101 22.8237 22.1946C22.8149 22.1968 22.8061 22.1996 22.7973 22.2019C22.7476 22.2137 22.6799 22.2242 22.6158 22.237L22.231 22.3109C21.9739 22.361 21.4893 22.4135 21.2336 22.4664C20.7226 22.5736 19.9841 22.6844 19.4736 22.8012L19.2601 22.8504L19.3093 23.0662L19.3928 23.4256L19.442 23.6399L19.6564 23.5907C20.1786 23.4721 20.9319 23.3549 21.4559 23.2445C21.7182 23.1884 22.2101 23.135 22.4719 23.0835L22.866 23.0069C23.0117 22.9809 23.1523 22.9385 23.2842 22.8938C23.5608 22.7966 23.8258 22.6821 24.0839 22.5572C23.901 22.8413 23.8518 23.0466 23.8518 23.0466C24.3545 24.0326 26.1363 24.3523 27.6935 23.4288C28.8696 22.7318 29.6665 21.7271 29.6665 21.7271C29.6665 21.7271 28.1493 20.7506 26.4204 21.0958C27.0567 20.6051 27.6526 20.0623 28.1961 19.4699C28.185 19.5447 28.1836 19.588 28.1836 19.588C28.8831 20.445 30.6918 20.3789 32.0183 19.1465C33.0204 18.2151 33.5871 17.064 33.5871 17.064C33.5871 17.064 31.6391 16.3347 29.926 17.3144C29.8522 17.3568 29.7816 17.4006 29.7139 17.4439C29.9292 17.0804 30.1242 16.7055 30.2955 16.3183C30.6788 15.4571 30.9406 14.5404 31.0701 13.6086C31.0562 14.134 31.2131 14.4433 31.2131 14.4433L31.2117 14.4419Z" fill="url(#paint10_linear_2005_3560)"/>
<g style="mix-blend-mode:multiply">
<path d="M30.1548 12.2492C30.01 12.0421 29.836 11.8433 29.6327 11.6599C29.8499 11.9222 30.0184 12.2027 30.1344 12.4845C30.1423 12.4061 30.1483 12.3276 30.1548 12.2492Z" fill="url(#paint11_linear_2005_3560)"/>
<path d="M28.1957 13.6334C28.7314 14.2637 29.2674 14.5452 29.6736 14.6669C29.7051 14.5721 29.7362 14.4772 29.765 14.3819C29.441 14.3568 28.839 14.2218 28.1957 13.6334Z" fill="url(#paint12_linear_2005_3560)"/>
<path d="M27.176 18.6769C27.2071 18.6445 27.2382 18.6131 27.2688 18.5807C27.136 18.5205 26.9304 18.4074 26.703 18.2094C26.8641 18.4092 27.027 18.5615 27.176 18.6769Z" fill="url(#paint13_linear_2005_3560)"/>
<path d="M27.8272 19.2019C27.8272 19.2019 27.8281 19.1585 27.8397 19.0837C27.2962 19.6762 26.7002 20.219 26.0639 20.7097C26.3735 20.6477 26.6756 20.629 26.9643 20.6386C27.3848 20.2805 27.7849 19.8983 28.1604 19.4924C28.0328 19.4121 27.9205 19.315 27.8276 19.2019H27.8272Z" fill="url(#paint14_linear_2005_3560)"/>
<path d="M32.3897 6.38476C32.5962 7.96695 31.7218 9.30103 30.7513 9.36853C30.7513 9.36853 30.6914 9.32383 30.6064 9.22851C30.6255 9.3252 30.6445 9.42189 30.6608 9.51858C30.8422 10.5863 30.871 11.6796 30.7675 12.7591C30.8302 12.449 30.955 12.0937 31.1797 11.7037C31.1704 11.0958 31.1184 10.4887 31.0167 9.88984C31.0005 9.79315 30.9815 9.69646 30.9624 9.59977C31.0474 9.69464 31.1073 9.73979 31.1073 9.73979C32.0778 9.67229 32.9522 8.33821 32.7457 6.75602C32.5893 5.56014 32.0541 4.56677 32.0541 4.56677C32.0541 4.56677 32.0021 4.60189 31.9167 4.67031C32.0833 5.07349 32.2996 5.6956 32.3901 6.38522L32.3897 6.38476Z" fill="url(#paint15_linear_2005_3560)"/>
<path d="M30.8562 14.0571C30.8562 14.0571 30.6993 13.7479 30.7132 13.2225C30.5837 14.1543 30.3219 15.0715 29.9386 15.9321C29.7673 16.3194 29.5724 16.6943 29.357 17.0578C29.4248 17.0144 29.4953 16.9711 29.5691 16.9282C29.7515 16.8238 29.9362 16.7403 30.121 16.6719C30.1808 16.5501 30.2389 16.4274 30.2941 16.3034C30.6079 15.5992 30.8385 14.8571 30.9833 14.1005C30.9402 14.0881 30.897 14.0745 30.8557 14.0571H30.8562Z" fill="url(#paint16_linear_2005_3560)"/>
<path d="M28.7393 16.6624C28.6882 16.1771 28.536 15.6658 28.2617 15.1728C27.8193 14.3778 27.2382 13.747 26.898 13.4131C27.2146 13.7639 27.5947 14.2419 27.9061 14.8015C28.3721 15.6398 28.4891 16.5324 28.3475 17.258C28.4844 17.0637 28.6153 16.8649 28.7393 16.6624Z" fill="url(#paint17_linear_2005_3560)"/>
<path d="M25.1291 20.4224C25.2298 20.0758 25.2874 19.6981 25.2864 19.2986C25.2823 17.9289 24.8214 16.7317 24.8214 16.7317C24.8214 16.7317 24.7452 16.7705 24.6218 16.8471C24.7559 17.3214 24.9281 18.0922 24.9304 18.9273C24.9323 19.679 24.7309 20.3558 24.4157 20.8858C24.658 20.7385 24.8961 20.5843 25.1286 20.4219L25.1291 20.4224Z" fill="url(#paint18_linear_2005_3560)"/>
<path d="M27.3366 23.0422C26.0839 23.7852 24.6854 23.7232 23.9252 23.1567C24.5105 24.0424 26.2036 24.2965 27.6921 23.4135C28.8683 22.7166 29.6652 21.7118 29.6652 21.7118C29.6652 21.7118 29.4939 21.6019 29.2015 21.4687C28.9467 21.7615 28.2584 22.4958 27.3366 23.0422Z" fill="url(#paint19_linear_2005_3560)"/>
<path d="M31.6614 18.7609C30.5233 19.8181 29.0307 20.016 28.1878 19.5098C28.1831 19.5499 28.1827 19.5732 28.1827 19.5732C28.8821 20.4302 30.6909 20.364 32.0174 19.1317C33.0195 18.2003 33.5862 17.0492 33.5862 17.0492C33.5862 17.0492 33.4038 16.9812 33.1026 16.9146C32.883 17.3 32.3864 18.0877 31.6619 18.7609H31.6614Z" fill="url(#paint20_linear_2005_3560)"/>
<path d="M34.3511 10.2132C34.3511 10.2132 34.2095 10.2328 33.9854 10.2926C33.9608 10.7263 33.8823 11.4164 33.6447 12.1119C33.1778 13.4816 32.0021 14.2729 31.1165 14.1301C31.1583 14.3221 31.2112 14.428 31.2112 14.428C32.1102 14.7997 33.4855 13.9924 34.0002 12.4832C34.3901 11.342 34.3511 10.2132 34.3511 10.2132Z" fill="url(#paint21_linear_2005_3560)"/>
<path d="M28.6204 4.74235C28.6204 4.74235 28.6134 4.74509 28.6014 4.74874C28.6775 4.84634 28.7518 4.94486 28.8228 5.0452C29.1365 5.48533 29.4145 5.951 29.6568 6.43401C29.7789 6.67847 29.8912 6.9275 29.9943 7.18018C29.9975 7.10766 30.0026 7.03331 30.01 6.95623C30.0142 6.91473 30.0198 6.87368 30.0254 6.83309C30.0207 6.82397 30.0165 6.81439 30.0119 6.80527C29.7696 6.32226 29.4916 5.85614 29.1778 5.41646C29.1064 5.31612 29.0321 5.21715 28.9564 5.12C28.9685 5.11635 28.9755 5.11361 28.9755 5.11361C29.3491 4.44544 29.0367 3.39961 28.1906 2.64569C28.761 3.34534 28.9351 4.17862 28.6199 4.74281L28.6204 4.74235Z" fill="url(#paint22_linear_2005_3560)"/>
<path d="M26.2008 4.04224C26.1605 4.0094 26.121 3.9761 26.0829 3.94189C26.2194 4.10791 26.3758 4.26709 26.5564 4.41304C27.2874 5.00322 27.9344 5.15967 28.3753 5.17882C28.2904 5.05385 28.2036 4.93025 28.1131 4.8103C27.6726 4.80893 26.9848 4.67529 26.2008 4.04224Z" fill="url(#paint23_linear_2005_3560)"/>
<path d="M27.5719 8.80844C27.5315 8.7756 27.4925 8.74231 27.4545 8.70856C27.5909 8.87458 27.7473 9.03375 27.9279 9.1797C28.9091 9.97194 29.7399 9.98288 30.1223 9.92906C30.1121 9.84058 30.1019 9.7521 30.0899 9.66362C30.0773 9.57331 30.0625 9.483 30.0476 9.3927C30.0309 9.43238 30.0128 9.47115 29.9924 9.50809C29.9924 9.50809 28.9244 9.90033 27.5724 8.80844H27.5719Z" fill="url(#paint24_linear_2005_3560)"/>
<path d="M23.4953 22.66C23.4953 22.66 23.545 22.4547 23.7274 22.1706C23.4694 22.2956 23.2048 22.41 22.9277 22.5072C22.7959 22.5519 22.6553 22.5943 22.5095 22.6203L22.1155 22.6969C21.8537 22.7489 21.3617 22.8023 21.0995 22.8579C20.5894 22.9656 19.8621 23.0791 19.3422 23.1945L19.3924 23.4098L19.4416 23.6242L19.656 23.5749C20.1781 23.4563 20.9314 23.3391 21.4555 23.2287C21.7177 23.1731 22.2097 23.1193 22.4715 23.0677L22.8655 22.9911C23.0112 22.9651 23.1519 22.9227 23.2837 22.878C23.3779 22.8447 23.4698 22.8091 23.5613 22.7726C23.5376 22.7357 23.5153 22.6983 23.4953 22.6595V22.66Z" fill="url(#paint25_linear_2005_3560)"/>
</g>
<g style="mix-blend-mode:overlay">
<path d="M29.7357 16.3486C29.9367 15.9235 30.0574 15.5664 30.1934 15.1162C30.2031 14.9379 30.2384 14.7933 30.121 14.7664C30.0045 15.113 29.7742 15.7502 29.6174 16.0809C29.4275 16.485 28.9267 17.3137 28.6854 17.6891C28.6951 17.9468 28.5916 17.9299 28.7592 17.9299C29.1068 17.4359 29.479 16.895 29.7357 16.3482V16.3486Z" fill="url(#paint26_linear_2005_3560)"/>
<path d="M27.596 10.7815C27.596 10.7815 28.6765 11.1044 29.6303 11.8392C29.9279 12.0677 30.172 12.3304 30.3646 12.6068C30.1534 12.2054 29.8392 11.8173 29.4196 11.4953C28.4654 10.7605 27.3853 10.438 27.3853 10.438C27.3853 10.438 27.0748 12.0686 27.9924 13.3858C27.3366 12.1452 27.596 10.7819 27.596 10.7819V10.7815Z" fill="url(#paint27_linear_2005_3560)"/>
<path d="M30.6129 10.122C30.5549 10.0107 30.5062 9.6417 30.4848 9.6791C30.4848 9.6791 30.4236 9.71924 30.4055 9.79495C30.5846 10.8549 30.5777 11.9609 30.4955 12.807C30.5749 12.9411 30.644 13.077 30.7002 13.2134C30.7963 12.2756 30.7861 11.327 30.6552 10.3924C30.6431 10.3021 30.6282 10.2118 30.6134 10.122H30.6129Z" fill="url(#paint28_linear_2005_3560)"/>
<path d="M31.6164 11.951C31.5278 12.0928 31.2038 12.641 31.1411 13.0593C31.1383 13.4355 31.5496 12.7405 31.8271 12.2953C32.553 11.1305 33.8364 10.7309 34.3446 10.6142C34.3562 10.3733 34.3511 10.2269 34.3511 10.2269C34.3511 10.2269 32.5363 10.4755 31.6164 11.9514V11.951Z" fill="url(#paint29_linear_2005_3560)"/>
<path d="M30.2788 17.1353C30.0258 17.2827 29.8304 17.3556 29.7357 17.4277C29.8035 17.3839 30.1084 17.3752 30.1934 17.3616C32.2444 17.0218 32.8213 17.1467 33.4549 17.3055C33.5417 17.1536 33.5862 17.0619 33.5862 17.0619C33.5862 17.0619 31.8958 16.4298 30.2792 17.1349L30.2788 17.1353Z" fill="url(#paint30_linear_2005_3560)"/>
<path d="M29.389 5.77404C29.4907 5.91725 29.5877 6.06457 29.6824 6.2128C29.5311 5.95282 29.3691 5.69878 29.195 5.45386C29.1918 5.45979 29.189 5.46572 29.1857 5.47165C29.1857 5.47165 29.1788 5.47393 29.1672 5.47757C29.2433 5.57472 29.3176 5.67324 29.3886 5.77404H29.389Z" fill="url(#paint31_linear_2005_3560)"/>
<path d="M25.3844 1.84481C25.3844 1.84481 26.5076 1.94013 27.5919 2.46418C28.1465 2.73191 28.5819 3.11594 28.8789 3.53463C28.5972 2.98595 28.0857 2.45962 27.3807 2.11892C26.2969 1.59532 25.1737 1.5 25.1737 1.5C25.1737 1.5 25.1932 2.68402 25.9024 3.7157C25.3993 2.78208 25.384 1.84435 25.384 1.84435L25.3844 1.84481Z" fill="url(#paint32_linear_2005_3560)"/>
<path d="M30.561 7.9095C30.5647 7.83698 30.5698 7.76264 30.5772 7.68556C30.7327 6.11158 31.9984 5.11866 32.2282 4.94991C32.1279 4.71684 32.0537 4.58002 32.0537 4.58002C32.0537 4.58002 30.5382 5.60896 30.3665 7.34121C30.3633 7.37678 30.36 7.4119 30.3582 7.44611C30.4287 7.5989 30.4974 7.75352 30.561 7.9095Z" fill="url(#paint33_linear_2005_3560)"/>
<path d="M29.8518 7.71699C29.5691 7.39316 29.1997 7.10172 28.7522 6.88599C27.6685 6.36193 26.5457 6.26707 26.5457 6.26707C26.5457 6.26707 26.5657 7.45109 27.2744 8.48323C26.7713 7.5496 26.7564 6.61187 26.7564 6.61187C26.7564 6.61187 27.8792 6.70674 28.963 7.23079C29.4104 7.44653 29.7803 7.73797 30.0625 8.0618C29.9808 7.84561 29.8926 7.63216 29.7961 7.42144C29.5988 6.98906 29.3691 6.57037 29.1129 6.16901C29.2851 6.4641 29.4438 6.76695 29.5863 7.07709C29.6819 7.2878 29.7706 7.50126 29.8518 7.71744V7.71699Z" fill="url(#paint34_linear_2005_3560)"/>
<path d="M19.5195 23.4085L19.4703 23.1923L19.6838 23.1435C20.1939 23.0267 20.9324 22.9159 21.4434 22.8087C21.6996 22.7553 22.1841 22.7038 22.4413 22.6527L22.8265 22.5788C22.8901 22.5661 22.9579 22.556 23.0085 22.5437C23.0164 22.5419 23.0256 22.5392 23.0345 22.5369C22.7889 22.1528 22.4246 21.3077 22.7351 19.9577C23.1208 18.2738 24.5861 17.3429 24.95 17.1344C24.8775 16.8891 24.8219 16.7449 24.8219 16.7449C24.8219 16.7449 22.9667 17.6859 22.5244 19.6124C22.2143 20.9629 22.5777 21.8076 22.8237 22.1921C22.8149 22.1943 22.8061 22.1971 22.7973 22.1994C22.7476 22.2112 22.6798 22.2217 22.6158 22.2345L22.231 22.3084C21.9739 22.3585 21.4893 22.411 21.2336 22.4639C20.7226 22.5711 19.9841 22.6819 19.4736 22.7987L19.2601 22.8479L19.3093 23.0637L19.3928 23.4231L19.442 23.6374L19.5664 23.6087L19.52 23.408L19.5195 23.4085Z" fill="url(#paint35_linear_2005_3560)"/>
<path d="M25.9896 16.7887C26.1395 17.3128 26.3428 17.7178 26.5587 18.0297C26.4241 17.7784 26.3001 17.4824 26.2003 17.1331C25.6568 15.233 26.826 13.5098 26.826 13.5098C26.826 13.5098 27.5937 14.1552 28.2314 15.1326C27.5672 13.965 26.6157 13.165 26.6157 13.165C26.6157 13.165 25.4456 14.8891 25.9896 16.7892V16.7887Z" fill="url(#paint36_linear_2005_3560)"/>
<path d="M27.1458 21.0208C26.8056 21.0208 26.5313 21.0673 26.419 21.0942C27.3115 21.2352 28.9871 21.6183 29.5311 21.8828C29.6183 21.7843 29.6652 21.7255 29.6652 21.7255C29.6652 21.7255 28.5513 21.0099 27.1458 21.0208Z" fill="url(#paint37_linear_2005_3560)"/>
<path d="M24.7717 21.2707C24.6891 21.5152 25.6438 20.982 25.9265 20.7786C26.6389 20.2664 27.2344 19.7483 27.835 19.1084C27.7464 19.0683 27.7631 19.0623 27.6248 18.9647C27.0604 19.5472 26.3029 20.2213 25.6438 20.6947C25.5278 20.7786 24.8905 21.1909 24.7717 21.2707Z" fill="url(#paint38_linear_2005_3560)"/>
</g>
<g style="mix-blend-mode:overlay">
<path d="M28.5861 10.9571C28.8126 11.0939 28.9922 11.1956 28.9922 11.1956C28.9922 11.1956 28.8102 11.0825 28.5861 10.9571Z" fill="url(#paint39_linear_2005_3560)"/>
</g>
<path d="M3.78842 14.4418C2.88938 14.8135 1.51414 14.0062 0.999405 12.497C0.609064 11.3554 0.648515 10.2266 0.648515 10.2266C0.648515 10.2266 2.4633 10.4751 3.38323 11.9511C3.66078 12.3953 3.80698 12.7976 3.87707 13.1437C3.77357 12.0642 3.80234 10.9709 3.98382 9.9032C4.00007 9.80651 4.0191 9.70982 4.03813 9.61312C3.95319 9.70799 3.89331 9.75314 3.89331 9.75314C2.9228 9.68564 2.04836 8.35157 2.2549 6.76938C2.41132 5.5735 2.94647 4.58013 2.94647 4.58013C2.94647 4.58013 4.46189 5.60908 4.63362 7.34132C4.64104 7.4184 4.64615 7.49274 4.6494 7.56526C4.75244 7.31213 4.86522 7.06356 4.98683 6.81909C5.22911 6.33563 5.50713 5.87042 5.82089 5.43029C5.89236 5.32995 5.96663 5.23097 6.04228 5.13383C6.03021 5.13018 6.02325 5.12744 6.02325 5.12744C5.54751 4.27683 6.18384 2.81276 7.61803 2.11996C8.7018 1.59636 9.82502 1.50104 9.82502 1.50104C9.82502 1.50104 9.79531 3.3359 8.44281 4.42779C7.65841 5.06085 6.97056 5.19494 6.53056 5.19631C6.40338 5.36507 6.28178 5.53929 6.16528 5.71626C5.88076 6.15092 5.62873 6.6061 5.41291 7.07724C5.31729 7.28796 5.22864 7.50141 5.14742 7.7176C5.43008 7.39377 5.79954 7.10233 6.24697 6.88659C7.33073 6.36254 8.45348 6.26768 8.45348 6.26768C8.45348 6.26768 8.42424 8.10209 7.07174 9.19397C5.7197 10.2859 4.65172 9.89362 4.65172 9.89362C4.6313 9.85668 4.61366 9.81791 4.59649 9.77823C4.58163 9.86854 4.56678 9.95884 4.55425 10.0492C4.42429 10.9841 4.41362 11.9324 4.50923 12.8696C4.71159 12.3775 5.06898 11.8881 5.57907 11.4959C6.53334 10.7611 7.61339 10.4387 7.61339 10.4387C7.61339 10.4387 7.95732 12.2402 6.85685 13.5862C6.06966 14.5476 5.27042 14.7373 4.87868 14.7674C5.01421 15.2171 5.1813 15.6573 5.38227 16.0819C5.63894 16.6288 5.94806 17.1501 6.29616 17.6436C6.1546 16.9184 6.27157 16.0258 6.73756 15.187C7.40314 13.9903 8.38386 13.1656 8.38386 13.1656C8.38386 13.1656 9.55396 14.8897 9.00999 16.7898C8.58437 18.2798 7.72618 18.8075 7.37482 18.9662C7.97589 19.6057 8.64285 20.184 9.35577 20.6962C9.63843 20.9001 9.93038 21.0912 10.2279 21.2723C9.91274 20.7418 9.71084 20.065 9.71316 19.3138C9.71734 17.9441 10.1782 16.7469 10.1782 16.7469C10.1782 16.7469 12.0334 17.6878 12.4757 19.6144C12.7858 20.9648 12.4223 21.8095 12.1763 22.194C12.1852 22.1963 12.194 22.199 12.2028 22.2013C12.2525 22.2132 12.3202 22.2237 12.3843 22.2364L12.7691 22.3103C13.0262 22.3605 13.5107 22.4129 13.7665 22.4659C14.2775 22.573 15.016 22.6839 15.5265 22.8006L15.74 22.8499L15.6908 23.0656L15.6073 23.425L15.5581 23.6394L15.3436 23.5901C14.8215 23.4715 14.0682 23.3543 13.5442 23.2439C13.2819 23.1878 12.7899 23.1345 12.5282 23.0829L12.1341 23.0063C11.9884 22.9803 11.8477 22.9379 11.7159 22.8932C11.4393 22.7961 11.1743 22.6816 10.9162 22.5566C11.0991 22.8408 11.1483 23.046 11.1483 23.046C10.6456 24.0321 8.86378 24.3518 7.3066 23.4282C6.13047 22.7313 5.33354 21.7265 5.33354 21.7265C5.33354 21.7265 6.85081 20.75 8.57973 21.0953C7.9434 20.6045 7.34744 20.0618 6.80393 19.4693C6.81507 19.5441 6.81647 19.5874 6.81647 19.5874C6.11701 20.4444 4.30826 20.3783 2.98174 19.1459C1.97967 18.2146 1.41295 17.0634 1.41295 17.0634C1.41295 17.0634 3.36095 16.3341 5.07409 17.3138C5.14788 17.3562 5.21843 17.4 5.2862 17.4433C5.07084 17.0798 4.8759 16.7049 4.70463 16.3177C4.32125 15.4566 4.05948 14.5399 3.92998 13.6081C3.94391 14.1335 3.78703 14.4427 3.78703 14.4427L3.78842 14.4418Z" fill="url(#paint40_linear_2005_3560)"/>
<g style="mix-blend-mode:multiply">
<path d="M4.84528 12.2492C4.99009 12.0421 5.16414 11.8433 5.36743 11.6599C5.15022 11.9222 4.98173 12.2027 4.8657 12.4845C4.85781 12.4061 4.85177 12.3276 4.84528 12.2492Z" fill="url(#paint41_linear_2005_3560)"/>
<path d="M6.80442 13.6334C6.26881 14.2637 5.73273 14.5452 5.3266 14.6669C5.29504 14.5721 5.26395 14.4772 5.23517 14.3819C5.55914 14.3568 6.16113 14.2218 6.80442 13.6334Z" fill="url(#paint42_linear_2005_3560)"/>
<path d="M7.82366 18.6769C7.79257 18.6445 7.76147 18.6131 7.73083 18.5807C7.86358 18.5205 8.06919 18.4074 8.29662 18.2094C8.13556 18.4092 7.97265 18.5615 7.82366 18.6769Z" fill="url(#paint43_linear_2005_3560)"/>
<path d="M7.17291 19.2019C7.17291 19.2019 7.17198 19.1585 7.16038 19.0837C7.70389 19.6762 8.29984 20.219 8.93618 20.7097C8.6266 20.6477 8.32444 20.629 8.03575 20.6386C7.61524 20.2805 7.21515 19.8983 6.83966 19.4924C6.9673 19.4121 7.07962 19.315 7.17245 19.2019H7.17291Z" fill="url(#paint44_linear_2005_3560)"/>
<path d="M2.61045 6.38476C2.40391 7.96695 3.27835 9.30103 4.24886 9.36853C4.24886 9.36853 4.30874 9.32383 4.39368 9.22851C4.37465 9.3252 4.35562 9.42189 4.33937 9.51858C4.15789 10.5863 4.12912 11.6796 4.23262 12.7591C4.16996 12.449 4.04511 12.0937 3.82046 11.7037C3.82975 11.0958 3.88173 10.4887 3.98338 9.88984C3.99962 9.79315 4.01865 9.69646 4.03768 9.59977C3.95274 9.69464 3.89287 9.73979 3.89287 9.73979C2.92235 9.67229 2.04791 8.33821 2.25446 6.75602C2.41087 5.56014 2.94602 4.56677 2.94602 4.56677C2.94602 4.56677 2.99801 4.60189 3.08341 4.67031C2.91678 5.07349 2.70049 5.6956 2.60999 6.38522L2.61045 6.38476Z" fill="url(#paint45_linear_2005_3560)"/>
<path d="M4.14396 14.0571C4.14396 14.0571 4.30084 13.7479 4.28691 13.2225C4.41641 14.1543 4.67818 15.0715 5.06156 15.9321C5.23283 16.3194 5.42777 16.6943 5.64313 17.0578C5.57537 17.0144 5.50482 16.9711 5.43102 16.9282C5.24861 16.8238 5.06388 16.7403 4.87916 16.6719C4.81928 16.5501 4.76126 16.4274 4.70603 16.3034C4.39227 15.5992 4.1616 14.8571 4.01678 14.1005C4.05995 14.0881 4.10311 14.0745 4.14442 14.0571H4.14396Z" fill="url(#paint46_linear_2005_3560)"/>
<path d="M6.26044 16.6624C6.31149 16.1771 6.46373 15.6658 6.73804 15.1728C7.18036 14.3778 7.76146 13.747 8.10168 13.4131C7.78514 13.7639 7.40501 14.2419 7.09357 14.8015C6.62757 15.6398 6.51061 16.5324 6.65217 17.258C6.51525 17.0637 6.38436 16.8649 6.26044 16.6624Z" fill="url(#paint47_linear_2005_3560)"/>
<path d="M9.87098 20.4224C9.77026 20.0758 9.71271 19.6981 9.71363 19.2986C9.71781 17.9289 10.1787 16.7317 10.1787 16.7317C10.1787 16.7317 10.2548 16.7705 10.3783 16.8471C10.2441 17.3214 10.0719 18.0922 10.0696 18.9273C10.0678 19.679 10.2692 20.3558 10.5844 20.8858C10.3421 20.7385 10.104 20.5843 9.87144 20.4219L9.87098 20.4224Z" fill="url(#paint48_linear_2005_3560)"/>
<path d="M7.66306 23.0422C8.91577 23.7852 10.3142 23.7232 11.0745 23.1567C10.4892 24.0424 8.79602 24.2965 7.30753 23.4135C6.1314 22.7166 5.33447 21.7118 5.33447 21.7118C5.33447 21.7118 5.50574 21.6019 5.79815 21.4687C6.05296 21.7615 6.74128 22.4958 7.66306 23.0422Z" fill="url(#paint49_linear_2005_3560)"/>
<path d="M3.33818 18.7609C4.47625 19.8181 5.96892 20.016 6.8118 19.5098C6.81644 19.5499 6.8169 19.5732 6.8169 19.5732C6.11744 20.4302 4.30869 20.364 2.98218 19.1317C1.98011 18.2003 1.41339 17.0492 1.41339 17.0492C1.41339 17.0492 1.5958 16.9812 1.89702 16.9146C2.11656 17.3 2.61319 18.0877 3.33771 18.7609H3.33818Z" fill="url(#paint50_linear_2005_3560)"/>
<path d="M0.648515 10.2132C0.648515 10.2132 0.790078 10.2328 1.01426 10.2926C1.03886 10.7263 1.1173 11.4164 1.35494 12.1119C1.82186 13.4816 2.99753 14.2729 3.8831 14.1301C3.84133 14.3221 3.78842 14.428 3.78842 14.428C2.88938 14.7997 1.51414 13.9924 0.999405 12.4832C0.609064 11.342 0.648515 10.2132 0.648515 10.2132Z" fill="url(#paint51_linear_2005_3560)"/>
<path d="M6.37968 4.74235C6.37968 4.74235 6.38664 4.74509 6.39871 4.74874C6.32259 4.84634 6.24833 4.94486 6.17732 5.0452C5.86356 5.48533 5.58554 5.951 5.34326 6.43401C5.22119 6.67847 5.10887 6.9275 5.00583 7.18018C5.00258 7.10766 4.99747 7.03331 4.99005 6.95623C4.98587 6.91473 4.9803 6.87368 4.97473 6.83309C4.97937 6.82397 4.98355 6.81439 4.98819 6.80527C5.23047 6.32226 5.50849 5.85614 5.82225 5.41646C5.89373 5.31612 5.96799 5.21715 6.04364 5.12C6.03158 5.11635 6.02461 5.11361 6.02461 5.11361C5.65098 4.44544 5.96335 3.39961 6.80947 2.64569C6.23905 3.34534 6.065 4.17862 6.38015 4.74281L6.37968 4.74235Z" fill="url(#paint52_linear_2005_3560)"/>
<path d="M8.79882 4.04224C8.8392 4.0094 8.87865 3.9761 8.91671 3.94189C8.78026 4.10791 8.62384 4.26709 8.44329 4.41304C7.71227 5.00322 7.06526 5.15967 6.62433 5.17882C6.70927 5.05385 6.79606 4.93025 6.88657 4.8103C7.32704 4.80893 8.01489 4.67529 8.79882 4.04224Z" fill="url(#paint53_linear_2005_3560)"/>
<path d="M7.42819 8.80844C7.46857 8.7756 7.50756 8.74231 7.54562 8.70856C7.40916 8.87458 7.25275 9.03375 7.0722 9.1797C6.09101 9.97194 5.2602 9.98288 4.87775 9.92906C4.88796 9.84058 4.89817 9.7521 4.91024 9.66362C4.92277 9.57331 4.93762 9.483 4.95247 9.3927C4.96918 9.43238 4.98728 9.47115 5.00771 9.50809C5.00771 9.50809 6.07569 9.90033 7.42773 8.80844H7.42819Z" fill="url(#paint54_linear_2005_3560)"/>
<path d="M11.5047 22.66C11.5047 22.66 11.4551 22.4547 11.2726 22.1706C11.5307 22.2956 11.7953 22.41 12.0724 22.5072C12.2042 22.5519 12.3448 22.5943 12.4905 22.6203L12.8846 22.6969C13.1464 22.7489 13.6384 22.8023 13.9006 22.8579C14.4107 22.9656 15.138 23.0791 15.6578 23.1945L15.6077 23.4098L15.5585 23.6242L15.3441 23.5749C14.8219 23.4563 14.0686 23.3391 13.5446 23.2287C13.2824 23.1731 12.7904 23.1193 12.5286 23.0677L12.1346 22.9911C11.9888 22.9651 11.8482 22.9227 11.7164 22.878C11.6221 22.8447 11.5302 22.8091 11.4388 22.7726C11.4625 22.7357 11.4848 22.6983 11.5047 22.6595V22.66Z" fill="url(#paint55_linear_2005_3560)"/>
</g>
<g style="mix-blend-mode:overlay">
<path d="M5.26442 16.3486C5.06345 15.9235 4.94277 15.5664 4.80678 15.1162C4.79703 14.9379 4.76175 14.7933 4.87918 14.7664C4.99568 15.113 5.22589 15.7502 5.38277 16.0809C5.57261 16.485 6.07341 17.3137 6.31477 17.6891C6.30502 17.9468 6.40852 17.9299 6.24097 17.9299C5.89333 17.4359 5.52109 16.895 5.26442 16.3482V16.3486Z" fill="url(#paint56_linear_2005_3560)"/>
<path d="M7.40409 10.7815C7.40409 10.7815 6.32357 11.1044 5.36977 11.8392C5.07225 12.0677 4.82812 12.3304 4.6355 12.6068C4.84668 12.2054 5.1609 11.8173 5.58049 11.4953C6.53476 10.7605 7.61481 10.438 7.61481 10.438C7.61481 10.438 7.92532 12.0686 7.00771 13.3858C7.66354 12.1452 7.40409 10.7819 7.40409 10.7819V10.7815Z" fill="url(#paint57_linear_2005_3560)"/>
<path d="M4.38715 10.122C4.44516 10.0107 4.4939 9.6417 4.51525 9.6791C4.51525 9.6791 4.57651 9.71924 4.59462 9.79495C4.41546 10.8549 4.42242 11.9609 4.50457 12.807C4.4252 12.9411 4.35605 13.077 4.29989 13.2134C4.20381 12.2756 4.21402 11.327 4.34491 10.3924C4.35698 10.3021 4.37183 10.2118 4.38668 10.122H4.38715Z" fill="url(#paint58_linear_2005_3560)"/>
<path d="M3.38369 11.951C3.47234 12.0928 3.79631 12.641 3.85897 13.0593C3.86176 13.4355 3.45053 12.7405 3.17297 12.2953C2.44706 11.1305 1.16371 10.7309 0.655016 10.6142C0.643413 10.3733 0.648519 10.2269 0.648519 10.2269C0.648519 10.2269 2.4633 10.4755 3.38323 11.9514L3.38369 11.951Z" fill="url(#paint59_linear_2005_3560)"/>
<path d="M4.72085 17.1353C4.97381 17.2827 5.16921 17.3556 5.26389 17.4277C5.19613 17.3839 4.89119 17.3752 4.80625 17.3616C2.75522 17.0218 2.17829 17.1467 1.54474 17.3055C1.45795 17.1536 1.41339 17.0619 1.41339 17.0619C1.41339 17.0619 3.10379 16.4298 4.72038 17.1349L4.72085 17.1353Z" fill="url(#paint60_linear_2005_3560)"/>
<path d="M5.61066 5.77404C5.50901 5.91725 5.41201 6.06457 5.31732 6.2128C5.46863 5.95282 5.63062 5.69878 5.80467 5.45386C5.80792 5.45979 5.8107 5.46572 5.81395 5.47165C5.81395 5.47165 5.82091 5.47393 5.83252 5.47757C5.7564 5.57472 5.68214 5.67324 5.61112 5.77404H5.61066Z" fill="url(#paint61_linear_2005_3560)"/>
<path d="M9.61523 1.84481C9.61523 1.84481 8.49202 1.94013 7.40779 2.46418C6.85314 2.73191 6.41778 3.11594 6.12073 3.53463C6.40246 2.98595 6.91394 2.45962 7.61897 2.11892C8.70274 1.59532 9.82595 1.5 9.82595 1.5C9.82595 1.5 9.80646 2.68402 9.09725 3.7157C9.60038 2.78208 9.6157 1.84435 9.6157 1.84435L9.61523 1.84481Z" fill="url(#paint62_linear_2005_3560)"/>
<path d="M4.43916 7.9095C4.43545 7.83698 4.43034 7.76264 4.42292 7.68556C4.26743 6.11158 3.00172 5.11866 2.77197 4.94991C2.87223 4.71684 2.94649 4.58002 2.94649 4.58002C2.94649 4.58002 4.4619 5.60896 4.63364 7.34121C4.63688 7.37678 4.64013 7.4119 4.64199 7.44611C4.57144 7.5989 4.50275 7.75352 4.43916 7.9095Z" fill="url(#paint63_linear_2005_3560)"/>
<path d="M5.14791 7.71699C5.43058 7.39316 5.80003 7.10172 6.24746 6.88599C7.33123 6.36193 8.45398 6.26707 8.45398 6.26707C8.45398 6.26707 8.43402 7.45109 7.72528 8.48323C8.22841 7.5496 8.24326 6.61187 8.24326 6.61187C8.24326 6.61187 7.12051 6.70674 6.03674 7.23079C5.58931 7.44653 5.21939 7.73797 4.93719 8.0618C5.01888 7.84561 5.10707 7.63216 5.20361 7.42144C5.40087 6.98906 5.63062 6.57037 5.88682 6.16901C5.71463 6.4641 5.55589 6.76695 5.4134 7.07709C5.31779 7.2878 5.22914 7.50126 5.14791 7.71744V7.71699Z" fill="url(#paint64_linear_2005_3560)"/>
<path d="M15.4805 23.4085L15.5297 23.1923L15.3162 23.1435C14.8061 23.0267 14.0677 22.9159 13.5567 22.8087C13.3005 22.7553 12.8159 22.7038 12.5588 22.6527L12.1735 22.5788C12.11 22.5661 12.0422 22.556 11.9916 22.5437C11.9837 22.5419 11.9744 22.5392 11.9656 22.5369C12.2111 22.1528 12.5755 21.3077 12.265 19.9577C11.8793 18.2738 10.414 17.3429 10.0501 17.1344C10.1225 16.8891 10.1782 16.7449 10.1782 16.7449C10.1782 16.7449 12.0334 17.6859 12.4757 19.6124C12.7857 20.9629 12.4223 21.8076 12.1763 22.1921C12.1852 22.1943 12.194 22.1971 12.2028 22.1994C12.2525 22.2112 12.3202 22.2217 12.3843 22.2345L12.769 22.3084C13.0262 22.3585 13.5107 22.411 13.7665 22.4639C14.2775 22.5711 15.0159 22.6819 15.5265 22.7987L15.74 22.8479L15.6908 23.0637L15.6073 23.4231L15.5581 23.6374L15.4337 23.6087L15.4801 23.408L15.4805 23.4085Z" fill="url(#paint65_linear_2005_3560)"/>
<path d="M9.01041 16.7887C8.86049 17.3128 8.6572 17.7178 8.44137 18.0297C8.57597 17.7784 8.6999 17.4824 8.79969 17.1331C9.3432 15.233 8.17403 13.5098 8.17403 13.5098C8.17403 13.5098 7.40634 14.1552 6.76862 15.1326C7.4328 13.965 8.38429 13.165 8.38429 13.165C8.38429 13.165 9.55438 14.8891 9.01041 16.7892V16.7887Z" fill="url(#paint66_linear_2005_3560)"/>
<path d="M7.85382 21.0208C8.19404 21.0208 8.46834 21.0673 8.58066 21.0942C7.68812 21.2352 6.01258 21.6183 5.46861 21.8828C5.38135 21.7843 5.33447 21.7255 5.33447 21.7255C5.33447 21.7255 6.44841 21.0099 7.85382 21.0208Z" fill="url(#paint67_linear_2005_3560)"/>
<path d="M10.2284 21.2707C10.311 21.5152 9.35624 20.982 9.07358 20.7786C8.36113 20.2664 7.76564 19.7483 7.16504 19.1084C7.25369 19.0683 7.23698 19.0623 7.37529 18.9647C7.93969 19.5472 8.69716 20.2213 9.35624 20.6947C9.47228 20.7786 10.1095 21.1909 10.2284 21.2707Z" fill="url(#paint68_linear_2005_3560)"/>
</g>
<g style="mix-blend-mode:overlay">
<path d="M6.41406 10.9571C6.18756 11.0939 6.00793 11.1956 6.00793 11.1956C6.00793 11.1956 6.18988 11.0825 6.41406 10.9571Z" fill="url(#paint69_linear_2005_3560)"/>
</g>
<path d="M17.6096 23.8182C17.4402 23.5682 13.1209 21.8415 13.1209 21.8415C12.6549 21.592 12.8665 22.1534 13.1209 23.0068C13.3752 23.8597 13.4811 24.2551 13.8194 24.3796C14.1582 24.5046 16.847 25.1285 17.313 25.1705C17.7785 25.212 17.7785 24.0677 17.6096 23.8182Z" fill="url(#paint70_linear_2005_3560)"/>
<path d="M17.7776 23.818C17.947 23.5681 22.2663 21.8413 22.2663 21.8413C22.7318 21.5918 22.5202 22.1533 22.2663 23.0066C22.0119 23.8595 21.9066 24.2549 21.5678 24.3795C21.2289 24.5044 18.5402 25.1284 18.0742 25.1703C17.6086 25.2118 17.6086 24.0675 17.7776 23.818Z" fill="url(#paint71_linear_2005_3560)"/>
<path d="M17.8184 24.0971C17.9878 23.8472 22.3071 22.1204 22.3071 22.1204C22.4134 22.0634 22.4839 22.0493 22.5271 22.0703C22.5721 21.8098 22.5197 21.7054 22.2663 21.8408C22.2663 21.8408 17.947 23.5676 17.7776 23.8176C17.6764 23.9667 17.6355 24.4365 17.7191 24.7808C17.7005 24.4976 17.7423 24.208 17.8179 24.0967L17.8184 24.0971Z" fill="#FFF064"/>
<path d="M13.4049 23.4053C13.1511 22.5524 12.9394 21.9905 13.4049 22.2399C13.4049 22.2399 16.8108 23.6014 17.6922 24.0812C17.6741 23.9658 17.6462 23.8709 17.6096 23.8176C17.4402 23.5676 13.1209 21.8409 13.1209 21.8409C12.6549 21.5914 12.8665 22.1528 13.1209 23.0062C13.3432 23.7523 13.4523 24.1487 13.7029 24.3193C13.6101 24.1013 13.5238 23.803 13.4049 23.4048V23.4053Z" fill="#FFF064"/>
<path d="M17.6625 21.1942L14.0775 23.3775L17.6625 25.5603L21.2479 23.3775L17.6625 21.1942Z" fill="url(#paint72_linear_2005_3560)"/>
<g style="mix-blend-mode:overlay" opacity="0.49">
<path d="M17.6625 21.4017L21.0771 23.481L21.2479 23.3775L17.6625 21.1942L14.0775 23.3775L14.2478 23.481L17.6625 21.4017Z" fill="white"/>
</g>
<path opacity="0.25" d="M17.6439 25.5466L21.2067 23.3775L17.6439 21.2078V25.5466Z" fill="#B55F09"/>
<g style="mix-blend-mode:overlay" opacity="0.49">
<path d="M17.6648 25.5161L17.597 22.8771L17.6625 21.1942L14.1879 23.31L16.4854 23.912L17.6648 25.5161Z" fill="white"/>
</g>
<g style="mix-blend-mode:overlay" opacity="0.41">
<path d="M17.6625 21.2357L14.0775 23.3775L17.6625 23.2388L21.2479 23.3775L17.6625 21.2357Z" fill="white"/>
</g>
<path d="M17.6699 22.1287C16.9097 22.1287 16.2933 22.7175 16.2933 23.444C16.2933 24.1706 16.9097 24.7594 17.6699 24.7594C18.4302 24.7594 19.0465 24.1706 19.0465 23.444C19.0465 22.7175 18.4302 22.1287 17.6699 22.1287Z" fill="url(#paint73_linear_2005_3560)"/>
<g style="mix-blend-mode:overlay" opacity="0.35">
<path d="M17.668 24.847C16.8665 24.847 16.2144 24.2231 16.2144 23.4564C16.2144 22.6897 16.8665 22.0657 17.668 22.0657C18.4696 22.0657 19.1217 22.6897 19.1217 23.4564C19.1217 24.2231 18.4696 24.847 17.668 24.847ZM17.668 22.1921C16.937 22.1921 16.3429 22.7595 16.3429 23.4564C16.3429 24.1533 16.937 24.7207 17.668 24.7207C18.3991 24.7207 18.9932 24.1533 18.9932 23.4564C18.9932 22.7595 18.3991 22.1921 17.668 22.1921Z" fill="white"/>
</g>
<path d="M17.6699 22.1287C17.2661 22.1287 16.9032 22.2947 16.6511 22.5592C16.8967 22.3412 17.2262 22.2076 17.5878 22.2076C18.348 22.2076 18.9644 22.7964 18.9644 23.5229C18.9644 23.8636 18.8289 24.1742 18.6065 24.4078C18.8771 24.1674 19.0465 23.8244 19.0465 23.444C19.0465 22.7179 18.4302 22.1287 17.6699 22.1287Z" fill="#B06518"/>
<path opacity="0.25" d="M16.8126 24.2221C16.8126 23.3733 17.4295 22.9068 18.1893 22.9068C18.4998 22.9068 18.7862 23.0053 19.0164 23.1708C18.885 22.5756 18.3322 22.1287 17.6699 22.1287C16.9097 22.1287 16.2933 22.7175 16.2933 23.444C16.2933 23.8741 16.5091 24.2554 16.8424 24.4953C16.8229 24.4073 16.8126 24.3156 16.8126 24.2221Z" fill="#B55F09"/>
<g style="mix-blend-mode:overlay" opacity="0.35">
<path d="M11.2128 5.59299L12.951 9.4967L15.1343 8.7186V20.2331H20.6395V3.55243H16.2116L11.2128 5.59299Z" fill="white"/>
</g>
<path d="M11.8441 5.89037L13.2068 8.97128L15.5929 8.1494V19.7825H20.1809V4.00305H16.3091L11.8441 5.89037Z" fill="#B06518"/>
<path d="M15.9373 19.5896V7.74985L13.3947 8.61916L12.2896 6.12068L16.3796 4.38251H19.9168V19.5891H15.9377L15.9373 19.5896Z" fill="url(#paint74_linear_2005_3560)"/>
<path d="M16.0519 19.5568H16.2812V7.60529L16.0519 7.74713V19.5568Z" fill="white"/>
<path d="M16.3792 4.22882L12.2892 6.06642L13.3948 8.61416L13.5363 8.5909L12.7046 6.67713L16.7946 4.90475H19.9517V4.22882H16.3792Z" fill="white"/>
<g style="mix-blend-mode:overlay" opacity="0.35">
<path d="M12.2892 6.04362L13.4514 8.58087L16.0515 7.75032V14.8225C17.4277 14.5863 18.8804 13.9692 19.9512 13.0761V4.22882H16.3792L12.2892 6.04362Z" fill="white"/>
</g>
<defs>
<linearGradient id="paint0_linear_2005_3560" x1="11.3432" y1="26.68" x2="24.0439" y2="26.68" gradientUnits="userSpaceOnUse">
<stop stop-color="#F7E436"/>
<stop offset="1" stop-color="#D58D21"/>
</linearGradient>
<radialGradient id="paint1_radial_2005_3560" cx="0" cy="0" r="1" gradientUnits="userSpaceOnUse" gradientTransform="translate(19.3659 23.5904) scale(7.12872 7.00515)">
<stop offset="0.25" stop-color="#F7E436"/>
<stop offset="1" stop-color="#D58D21"/>
</radialGradient>
<linearGradient id="paint2_linear_2005_3560" x1="14.7411" y1="25.6957" x2="17.3191" y2="28.4536" gradientUnits="userSpaceOnUse">
<stop stop-color="white"/>
<stop offset="1" stop-color="white"/>
</linearGradient>
<linearGradient id="paint3_linear_2005_3560" x1="17.183" y1="27.677" x2="17.9961" y2="33.338" gradientUnits="userSpaceOnUse">
<stop offset="0.25" stop-color="#F7E436"/>
<stop offset="1" stop-color="#D58D21"/>
</linearGradient>
<linearGradient id="paint4_linear_2005_3560" x1="14.2585" y1="29.6314" x2="14.8087" y2="31.8052" gradientUnits="userSpaceOnUse">
<stop stop-color="white"/>
<stop offset="1" stop-color="white"/>
</linearGradient>
<radialGradient id="paint5_radial_2005_3560" cx="0" cy="0" r="1" gradientUnits="userSpaceOnUse" gradientTransform="translate(17.6935 30.7958) scale(5.19836 5.10825)">
<stop offset="0.25" stop-color="#F7E436"/>
<stop offset="1" stop-color="#D58D21"/>
</radialGradient>
<linearGradient id="paint6_linear_2005_3560" x1="17.4095" y1="26.0401" x2="17.7995" y2="35.4034" gradientUnits="userSpaceOnUse">
<stop offset="0.25" stop-color="#F7E436"/>
<stop offset="1" stop-color="#D58D21"/>
</linearGradient>
<linearGradient id="paint7_linear_2005_3560" x1="13.2652" y1="31.4074" x2="14.0193" y2="34.3866" gradientUnits="userSpaceOnUse">
<stop stop-color="white"/>
<stop offset="1" stop-color="white"/>
</linearGradient>
<radialGradient id="paint8_radial_2005_3560" cx="0" cy="0" r="1" gradientUnits="userSpaceOnUse" gradientTransform="translate(17.6935 32.258) scale(6.25521 6.14677)">
<stop offset="0.25" stop-color="#F7E436"/>
<stop offset="1" stop-color="#D58D21"/>
</radialGradient>
<linearGradient id="paint9_linear_2005_3560" x1="8.59873" y1="27.9698" x2="27.0142" y2="28.3122" gradientUnits="userSpaceOnUse">
<stop offset="0.25" stop-color="#F7E436"/>
<stop offset="1" stop-color="#D58D21"/>
</linearGradient>
<linearGradient id="paint10_linear_2005_3560" x1="28.5192" y1="5.29994" x2="26.1162" y2="22.6969" gradientUnits="userSpaceOnUse">
<stop stop-color="#F7E436"/>
<stop offset="1" stop-color="#D58D21"/>
</linearGradient>
<linearGradient id="paint11_linear_2005_3560" x1="29.6327" y1="12.0718" x2="30.1548" y2="12.0718" gradientUnits="userSpaceOnUse">
<stop stop-color="#D58D21"/>
<stop offset="0.75" stop-color="#F7E436"/>
</linearGradient>
<linearGradient id="paint12_linear_2005_3560" x1="28.1957" y1="14.1502" x2="29.765" y2="14.1502" gradientUnits="userSpaceOnUse">
<stop stop-color="#D58D21"/>
<stop offset="0.75" stop-color="#F7E436"/>
</linearGradient>
<linearGradient id="paint13_linear_2005_3560" x1="26.703" y1="18.4429" x2="27.2688" y2="18.4429" gradientUnits="userSpaceOnUse">
<stop stop-color="#D58D21"/>
<stop offset="0.75" stop-color="#F7E436"/>
</linearGradient>
<linearGradient id="paint14_linear_2005_3560" x1="26.0634" y1="19.897" x2="28.16" y2="19.897" gradientUnits="userSpaceOnUse">
<stop stop-color="#D58D21"/>
<stop offset="0.75" stop-color="#F7E436"/>
</linearGradient>
<linearGradient id="paint15_linear_2005_3560" x1="30.606" y1="8.66295" x2="32.7758" y2="8.66295" gradientUnits="userSpaceOnUse">
<stop stop-color="#D58D21"/>
<stop offset="0.75" stop-color="#F7E436"/>
</linearGradient>
<linearGradient id="paint16_linear_2005_3560" x1="29.3575" y1="15.1399" x2="30.9838" y2="15.1399" gradientUnits="userSpaceOnUse">
<stop stop-color="#D58D21"/>
<stop offset="0.75" stop-color="#F7E436"/>
</linearGradient>
<linearGradient id="paint17_linear_2005_3560" x1="26.8985" y1="15.3356" x2="28.7393" y2="15.3356" gradientUnits="userSpaceOnUse">
<stop stop-color="#D58D21"/>
<stop offset="0.75" stop-color="#F7E436"/>
</linearGradient>
<linearGradient id="paint18_linear_2005_3560" x1="24.4157" y1="18.8092" x2="25.2864" y2="18.8092" gradientUnits="userSpaceOnUse">
<stop stop-color="#D58D21"/>
<stop offset="0.75" stop-color="#F7E436"/>
</linearGradient>
<linearGradient id="paint19_linear_2005_3560" x1="23.9252" y1="22.7152" x2="29.6652" y2="22.7152" gradientUnits="userSpaceOnUse">
<stop stop-color="#D58D21"/>
<stop offset="0.75" stop-color="#F7E436"/>
</linearGradient>
<linearGradient id="paint20_linear_2005_3560" x1="28.1827" y1="18.531" x2="33.5857" y2="18.531" gradientUnits="userSpaceOnUse">
<stop stop-color="#D58D21"/>
<stop offset="0.75" stop-color="#F7E436"/>
</linearGradient>
<linearGradient id="paint21_linear_2005_3560" x1="31.117" y1="12.3655" x2="34.3525" y2="12.3655" gradientUnits="userSpaceOnUse">
<stop stop-color="#D58D21"/>
<stop offset="0.75" stop-color="#F7E436"/>
</linearGradient>
<linearGradient id="paint22_linear_2005_3560" x1="28.1911" y1="4.91293" x2="30.0263" y2="4.91293" gradientUnits="userSpaceOnUse">
<stop stop-color="#D58D21"/>
<stop offset="0.75" stop-color="#F7E436"/>
</linearGradient>
<linearGradient id="paint23_linear_2005_3560" x1="26.0829" y1="4.56081" x2="28.3758" y2="4.56081" gradientUnits="userSpaceOnUse">
<stop stop-color="#D58D21"/>
<stop offset="0.75" stop-color="#F7E436"/>
</linearGradient>
<linearGradient id="paint24_linear_2005_3560" x1="27.454" y1="9.32793" x2="30.1219" y2="9.32793" gradientUnits="userSpaceOnUse">
<stop stop-color="#D58D21"/>
<stop offset="0.75" stop-color="#F7E436"/>
</linearGradient>
<linearGradient id="paint25_linear_2005_3560" x1="19.3422" y1="22.8976" x2="23.7274" y2="22.8976" gradientUnits="userSpaceOnUse">
<stop stop-color="#D58D21"/>
<stop offset="0.75" stop-color="#F7E436"/>
</linearGradient>
<linearGradient id="paint26_linear_2005_3560" x1="28.6626" y1="16.3482" x2="30.2054" y2="16.3482" gradientUnits="userSpaceOnUse">
<stop stop-color="white"/>
<stop offset="1" stop-color="white"/>
</linearGradient>
<linearGradient id="paint27_linear_2005_3560" x1="27.3352" y1="11.9112" x2="30.3651" y2="11.9112" gradientUnits="userSpaceOnUse">
<stop stop-color="white"/>
<stop offset="1" stop-color="white"/>
</linearGradient>
<linearGradient id="paint28_linear_2005_3560" x1="30.4055" y1="11.4446" x2="30.7633" y2="11.4446" gradientUnits="userSpaceOnUse">
<stop stop-color="white"/>
<stop offset="1" stop-color="white"/>
</linearGradient>
<linearGradient id="paint29_linear_2005_3560" x1="31.1411" y1="11.6969" x2="34.3525" y2="11.6969" gradientUnits="userSpaceOnUse">
<stop stop-color="white"/>
<stop offset="1" stop-color="white"/>
</linearGradient>
<linearGradient id="paint30_linear_2005_3560" x1="29.7357" y1="17.1148" x2="33.5858" y2="17.1148" gradientUnits="userSpaceOnUse">
<stop stop-color="white"/>
<stop offset="1" stop-color="white"/>
</linearGradient>
<linearGradient id="paint31_linear_2005_3560" x1="29.1676" y1="5.83333" x2="29.6828" y2="5.83333" gradientUnits="userSpaceOnUse">
<stop stop-color="white"/>
<stop offset="1" stop-color="white"/>
</linearGradient>
<linearGradient id="paint32_linear_2005_3560" x1="25.1742" y1="2.60831" x2="28.8794" y2="2.60831" gradientUnits="userSpaceOnUse">
<stop stop-color="white"/>
<stop offset="1" stop-color="white"/>
</linearGradient>
<linearGradient id="paint33_linear_2005_3560" x1="30.3577" y1="6.24476" x2="32.2277" y2="6.24476" gradientUnits="userSpaceOnUse">
<stop stop-color="white"/>
<stop offset="1" stop-color="white"/>
</linearGradient>
<linearGradient id="paint34_linear_2005_3560" x1="26.5457" y1="7.32566" x2="30.0625" y2="7.32566" gradientUnits="userSpaceOnUse">
<stop stop-color="white"/>
<stop offset="1" stop-color="white"/>
</linearGradient>
<linearGradient id="paint35_linear_2005_3560" x1="19.2596" y1="20.1916" x2="24.9495" y2="20.1916" gradientUnits="userSpaceOnUse">
<stop stop-color="white"/>
<stop offset="1" stop-color="white"/>
</linearGradient>
<linearGradient id="paint36_linear_2005_3560" x1="25.8453" y1="15.5969" x2="28.2309" y2="15.5969" gradientUnits="userSpaceOnUse">
<stop stop-color="white"/>
<stop offset="1" stop-color="white"/>
</linearGradient>
<linearGradient id="paint37_linear_2005_3560" x1="26.4195" y1="21.4518" x2="29.6652" y2="21.4518" gradientUnits="userSpaceOnUse">
<stop stop-color="white"/>
<stop offset="1" stop-color="white"/>
</linearGradient>
<linearGradient id="paint38_linear_2005_3560" x1="24.7666" y1="20.1497" x2="27.835" y2="20.1497" gradientUnits="userSpaceOnUse">
<stop stop-color="white"/>
<stop offset="1" stop-color="white"/>
</linearGradient>
<linearGradient id="paint39_linear_2005_3560" x1="28.5861" y1="11.0761" x2="28.9917" y2="11.0761" gradientUnits="userSpaceOnUse">
<stop stop-color="white"/>
<stop offset="1" stop-color="white"/>
</linearGradient>
<linearGradient id="paint40_linear_2005_3560" x1="7.72804" y1="6.4679" x2="8.43757" y2="22.5217" gradientUnits="userSpaceOnUse">
<stop stop-color="#F7E436"/>
<stop offset="1" stop-color="#D58D21"/>
</linearGradient>
<linearGradient id="paint41_linear_2005_3560" x1="5.36697" y1="-0.204906" x2="4.84481" y2="-0.204906" gradientUnits="userSpaceOnUse">
<stop stop-color="#D58D21"/>
<stop offset="0.75" stop-color="#F7E436"/>
</linearGradient>
<linearGradient id="paint42_linear_2005_3560" x1="6.80396" y1="14.1502" x2="5.2347" y2="14.1502" gradientUnits="userSpaceOnUse">
<stop stop-color="#D58D21"/>
<stop offset="0.75" stop-color="#F7E436"/>
</linearGradient>
<linearGradient id="paint43_linear_2005_3560" x1="8.29662" y1="18.4429" x2="7.73083" y2="18.4429" gradientUnits="userSpaceOnUse">
<stop stop-color="#D58D21"/>
<stop offset="0.75" stop-color="#F7E436"/>
</linearGradient>
<linearGradient id="paint44_linear_2005_3560" x1="8.93618" y1="19.897" x2="6.84012" y2="19.897" gradientUnits="userSpaceOnUse">
<stop stop-color="#D58D21"/>
<stop offset="0.75" stop-color="#F7E436"/>
</linearGradient>
<linearGradient id="paint45_linear_2005_3560" x1="4.39368" y1="8.66295" x2="2.22429" y2="8.66295" gradientUnits="userSpaceOnUse">
<stop stop-color="#D58D21"/>
<stop offset="0.75" stop-color="#F7E436"/>
</linearGradient>
<linearGradient id="paint46_linear_2005_3560" x1="5.64267" y1="15.1399" x2="4.01632" y2="15.1399" gradientUnits="userSpaceOnUse">
<stop stop-color="#D58D21"/>
<stop offset="0.75" stop-color="#F7E436"/>
</linearGradient>
<linearGradient id="paint47_linear_2005_3560" x1="8.10121" y1="15.3356" x2="6.26044" y2="15.3356" gradientUnits="userSpaceOnUse">
<stop stop-color="#D58D21"/>
<stop offset="0.75" stop-color="#F7E436"/>
</linearGradient>
<linearGradient id="paint48_linear_2005_3560" x1="10.5839" y1="18.8092" x2="9.71317" y2="18.8092" gradientUnits="userSpaceOnUse">
<stop stop-color="#D58D21"/>
<stop offset="0.75" stop-color="#F7E436"/>
</linearGradient>
<linearGradient id="paint49_linear_2005_3560" x1="11.0745" y1="22.7152" x2="5.33447" y2="22.7152" gradientUnits="userSpaceOnUse">
<stop stop-color="#D58D21"/>
<stop offset="0.75" stop-color="#F7E436"/>
</linearGradient>
<linearGradient id="paint50_linear_2005_3560" x1="6.8169" y1="18.531" x2="1.41386" y2="18.531" gradientUnits="userSpaceOnUse">
<stop stop-color="#D58D21"/>
<stop offset="0.75" stop-color="#F7E436"/>
</linearGradient>
<linearGradient id="paint51_linear_2005_3560" x1="3.8831" y1="12.3655" x2="0.647587" y2="12.3655" gradientUnits="userSpaceOnUse">
<stop stop-color="#D58D21"/>
<stop offset="0.75" stop-color="#F7E436"/>
</linearGradient>
<linearGradient id="paint52_linear_2005_3560" x1="6.80855" y1="4.91293" x2="4.9738" y2="4.91293" gradientUnits="userSpaceOnUse">
<stop stop-color="#D58D21"/>
<stop offset="0.75" stop-color="#F7E436"/>
</linearGradient>
<linearGradient id="paint53_linear_2005_3560" x1="8.91671" y1="4.56081" x2="6.62386" y2="4.56081" gradientUnits="userSpaceOnUse">
<stop stop-color="#D58D21"/>
<stop offset="0.75" stop-color="#F7E436"/>
</linearGradient>
<linearGradient id="paint54_linear_2005_3560" x1="7.54562" y1="9.32793" x2="4.87775" y2="9.32793" gradientUnits="userSpaceOnUse">
<stop stop-color="#D58D21"/>
<stop offset="0.75" stop-color="#F7E436"/>
</linearGradient>
<linearGradient id="paint55_linear_2005_3560" x1="15.6574" y1="22.8976" x2="11.2722" y2="22.8976" gradientUnits="userSpaceOnUse">
<stop stop-color="#D58D21"/>
<stop offset="0.75" stop-color="#F7E436"/>
</linearGradient>
<linearGradient id="paint56_linear_2005_3560" x1="4.79424" y1="16.3482" x2="6.33751" y2="16.3482" gradientUnits="userSpaceOnUse">
<stop stop-color="white"/>
<stop offset="1" stop-color="white"/>
</linearGradient>
<linearGradient id="paint57_linear_2005_3560" x1="4.63503" y1="11.9112" x2="7.66494" y2="11.9112" gradientUnits="userSpaceOnUse">
<stop stop-color="white"/>
<stop offset="1" stop-color="white"/>
</linearGradient>
<linearGradient id="paint58_linear_2005_3560" x1="4.2363" y1="11.4446" x2="4.59462" y2="11.4446" gradientUnits="userSpaceOnUse">
<stop stop-color="white"/>
<stop offset="1" stop-color="white"/>
</linearGradient>
<linearGradient id="paint59_linear_2005_3560" x1="0.64759" y1="11.6969" x2="3.85897" y2="11.6969" gradientUnits="userSpaceOnUse">
<stop stop-color="white"/>
<stop offset="1" stop-color="white"/>
</linearGradient>
<linearGradient id="paint60_linear_2005_3560" x1="1.41386" y1="17.1148" x2="5.26436" y2="17.1148" gradientUnits="userSpaceOnUse">
<stop stop-color="white"/>
<stop offset="1" stop-color="white"/>
</linearGradient>
<linearGradient id="paint61_linear_2005_3560" x1="5.31732" y1="5.83333" x2="5.83252" y2="5.83333" gradientUnits="userSpaceOnUse">
<stop stop-color="white"/>
<stop offset="1" stop-color="white"/>
</linearGradient>
<linearGradient id="paint62_linear_2005_3560" x1="6.12073" y1="2.60831" x2="9.82549" y2="2.60831" gradientUnits="userSpaceOnUse">
<stop stop-color="white"/>
<stop offset="1" stop-color="white"/>
</linearGradient>
<linearGradient id="paint63_linear_2005_3560" x1="2.77197" y1="6.24476" x2="4.64199" y2="6.24476" gradientUnits="userSpaceOnUse">
<stop stop-color="white"/>
<stop offset="1" stop-color="white"/>
</linearGradient>
<linearGradient id="paint64_linear_2005_3560" x1="4.93766" y1="7.32566" x2="8.45444" y2="7.32566" gradientUnits="userSpaceOnUse">
<stop stop-color="white"/>
<stop offset="1" stop-color="white"/>
</linearGradient>
<linearGradient id="paint65_linear_2005_3560" x1="10.0506" y1="20.1916" x2="15.7405" y2="20.1916" gradientUnits="userSpaceOnUse">
<stop stop-color="white"/>
<stop offset="1" stop-color="white"/>
</linearGradient>
<linearGradient id="paint66_linear_2005_3560" x1="6.76862" y1="15.5969" x2="9.15476" y2="15.5969" gradientUnits="userSpaceOnUse">
<stop stop-color="white"/>
<stop offset="1" stop-color="white"/>
</linearGradient>
<linearGradient id="paint67_linear_2005_3560" x1="5.33447" y1="21.4518" x2="8.58066" y2="21.4518" gradientUnits="userSpaceOnUse">
<stop stop-color="white"/>
<stop offset="1" stop-color="white"/>
</linearGradient>
<linearGradient id="paint68_linear_2005_3560" x1="7.16504" y1="20.1497" x2="10.2335" y2="20.1497" gradientUnits="userSpaceOnUse">
<stop stop-color="white"/>
<stop offset="1" stop-color="white"/>
</linearGradient>
<linearGradient id="paint69_linear_2005_3560" x1="6.00793" y1="11.0761" x2="6.41406" y2="11.0761" gradientUnits="userSpaceOnUse">
<stop stop-color="white"/>
<stop offset="1" stop-color="white"/>
</linearGradient>
<linearGradient id="paint70_linear_2005_3560" x1="12.8452" y1="23.4766" x2="17.7126" y2="23.4766" gradientUnits="userSpaceOnUse">
<stop stop-color="#F7E436"/>
<stop offset="1" stop-color="#CE7C1D"/>
</linearGradient>
<linearGradient id="paint71_linear_2005_3560" x1="22.5415" y1="-0.20492" x2="17.6741" y2="-0.20492" gradientUnits="userSpaceOnUse">
<stop stop-color="#F7E436"/>
<stop offset="1" stop-color="#CE7C1D"/>
</linearGradient>
<linearGradient id="paint72_linear_2005_3560" x1="17.63" y1="21.7415" x2="17.7882" y2="29.9476" gradientUnits="userSpaceOnUse">
<stop stop-color="#F7E436"/>
<stop offset="1" stop-color="#CE7C1D"/>
</linearGradient>
<linearGradient id="paint73_linear_2005_3560" x1="17.9062" y1="24.5961" x2="17.5485" y2="22.7885" gradientUnits="userSpaceOnUse">
<stop stop-color="#F7E436"/>
<stop offset="1" stop-color="#D58D21"/>
</linearGradient>
<linearGradient id="paint74_linear_2005_3560" x1="16.103" y1="4.01216" x2="16.103" y2="20.6263" gradientUnits="userSpaceOnUse">
<stop stop-color="#F7E436"/>
<stop offset="1" stop-color="#D58D21"/>
</linearGradient>
</defs>
</svg>
