<svg width="35" height="35" viewBox="0 0 35 35" fill="none" xmlns="http://www.w3.org/2000/svg">
<g clip-path="url(#clip0_2005_3561)">
<path d="M18.0843 30.2678L24.0375 29.9416L23.7947 29.4029C23.7947 29.4029 21.048 28.9263 20.164 26.4802C19.2799 24.0336 20.164 22.36 20.164 22.36H14.8349C14.8349 22.36 15.7189 24.0336 14.8349 26.4802C13.9509 28.9268 11.2041 29.4029 11.2041 29.4029L10.9614 29.9416L16.9145 30.2678V30.3319L17.4994 30.2999L18.0843 30.3319V30.2678Z" fill="url(#paint0_linear_2005_3561)"/>
<path style="mix-blend-mode:multiply" d="M23.7962 29.4024C23.7962 29.4024 21.0494 28.9259 20.1654 26.4797C19.2813 24.0331 20.1654 22.36 20.1654 22.36H14.8363C14.8363 22.36 15.1159 22.8897 15.2033 23.7881C15.6525 23.8695 16.1691 24.0718 17.0158 24.2512C18.4891 24.5636 18.707 26.6543 20.033 27.9298C20.842 28.7077 22.58 29.1852 23.8129 29.4392L23.7962 29.4024Z" fill="url(#paint1_radial_2005_3561)"/>
<path style="mix-blend-mode:overlay" d="M15.5947 24.3206C15.5947 24.3206 15.2998 26.5414 14.5892 27.3916C13.8787 28.2417 14.4851 28.7623 17.0153 28.8144C19.5456 28.8666 17.0502 23.713 15.5942 24.3206H15.5947Z" fill="url(#paint2_linear_2005_3561)"/>
<path d="M16.2618 24.6938C15.7925 24.4589 15.8198 26.351 15.3262 27.2442C14.832 28.1379 14.8497 28.4589 15.7247 28.0944C16.6001 27.7298 16.4004 24.7632 16.2618 24.6938Z" fill="white"/>
<path d="M10.614 31.9662H24.3854C25.0716 31.9662 24.9469 31.4041 24.9469 30.7171V30.6094C24.9469 29.9224 24.3854 29.3603 23.6992 29.3603H11.3002C10.614 29.3603 10.0525 29.9224 10.0525 30.6094V30.7171C10.0525 31.4041 9.92778 31.9662 10.614 31.9662Z" fill="url(#paint3_linear_2005_3561)"/>
<path style="mix-blend-mode:overlay" d="M17.1315 29.5254C17.2763 29.7928 17.4918 30.408 16.6431 30.4879C16.3731 30.5133 11.5228 30.663 11.1429 30.375C10.763 30.087 10.8534 29.4321 11.6132 29.4321C12.373 29.4321 17.0292 29.3364 17.1315 29.5258V29.5254Z" fill="url(#paint4_linear_2005_3561)"/>
<path style="mix-blend-mode:multiply" d="M20.8062 31.9662H24.3854C25.0716 31.9662 24.9468 31.4041 24.9468 30.7171V30.6094C24.9468 29.9224 24.3854 29.3603 23.6992 29.3603H23.6021C23.7259 29.7129 23.7293 30.1363 23.1515 30.3033C22.0859 30.6104 19.6158 30.6635 19.6158 30.6635H10.0529V30.7171C10.0529 31.4041 9.92821 31.9662 10.6144 31.9662H20.8067H20.8062Z" fill="url(#paint5_radial_2005_3561)"/>
<path d="M9.05424 33.5001H25.9451C26.6313 33.5001 26.5066 32.9379 26.5066 32.2509V32.1433C26.5066 31.4562 25.9451 30.8941 25.2589 30.8941H9.74044C9.05424 30.8941 8.49275 31.4562 8.49275 32.1433V32.2509C8.49275 32.9379 8.36803 33.5001 9.05424 33.5001Z" fill="url(#paint6_linear_2005_3561)"/>
<path style="mix-blend-mode:overlay" d="M16.9031 31.3577C17.2165 31.7175 17.4038 32.7757 16.3053 32.8068C15.966 32.8164 9.85798 32.7676 9.47713 32.6332C8.83632 32.4069 9.06378 31.1993 10.0128 31.1993C10.9618 31.1993 16.548 30.9501 16.9035 31.3577H16.9031Z" fill="url(#paint7_linear_2005_3561)"/>
<path style="mix-blend-mode:multiply" d="M26.5047 32.1433C26.5047 31.4562 25.9432 30.8941 25.257 30.8941H24.771C25.01 31.1993 24.9555 31.9662 24.492 32.4604C23.4932 33.524 8.83587 33.3087 8.4856 32.9006C8.50232 33.2589 8.60363 33.5001 9.05281 33.5001H25.9437C26.6299 33.5001 26.5052 32.9379 26.5052 32.2509V32.1433H26.5047Z" fill="url(#paint8_radial_2005_3561)"/>
<path d="M12.6138 29.5258C12.2157 29.5454 11.9806 30.1468 12.0418 30.3315C12.103 30.5161 13.3937 30.4975 13.6278 30.0463C13.862 29.5952 13.3158 29.4909 12.6138 29.5258Z" fill="white"/>
<path d="M11.5539 31.2003C10.9203 31.2314 10.5466 32.1882 10.6436 32.4829C10.7406 32.7771 12.7949 32.747 13.1672 32.0289C13.5394 31.3108 12.6707 31.1453 11.5534 31.2003H11.5539Z" fill="white"/>
<path style="mix-blend-mode:multiply" d="M26.5066 32.2504V32.1428C26.5066 31.4557 25.9451 30.8936 25.2589 30.8936H24.9493C24.9478 30.8357 24.9469 30.7769 24.9469 30.7166V30.6089C24.9469 29.9219 24.3854 29.3598 23.6992 29.3598H23.6055C22.9681 29.2005 20.909 28.536 20.1659 26.4797C19.2819 24.0331 20.1659 22.36 20.1659 22.36H17.4999C17.4999 22.36 18.394 24.4139 18.394 26.1338C18.394 28.7627 17.4999 29.3612 17.4999 29.3612C17.5081 29.3612 17.5157 29.3598 17.5238 29.3598H20.5506C20.9085 29.3598 21.2014 29.6531 21.2014 30.0114C21.2014 30.3697 20.9085 30.663 20.5506 30.663H17.5238C17.5157 30.663 17.5081 30.662 17.4999 30.6616V30.8936H21.3577C22.0439 30.8936 22.6054 31.4557 22.6054 32.1428V32.2504C22.6054 32.9374 22.0439 33.4995 21.3577 33.4995H25.9456C26.6318 33.4995 26.5071 32.9374 26.5071 32.2504H26.5066Z" fill="url(#paint9_linear_2005_3561)"/>
<path d="M11.5792 21.8027C11.5792 21.8027 8.46311 19.1111 7.3798 13.5456C6.29649 7.98018 7.9279 6.2818 7.47107 5.6101C7.01376 4.9384 3.46231 5.23741 2.78853 5.35079C2.11475 5.46418 2.08034 6.13684 2.08751 7.10372C2.0942 8.0706 1.83998 11.9889 4.86148 16.6257C7.88299 21.2625 11.616 22.6528 11.616 22.6528C11.616 22.6528 12.1947 22.4332 11.5797 21.8022L11.5792 21.8027Z" fill="url(#paint10_linear_2005_3561)"/>
<g style="mix-blend-mode:overlay" opacity="0.72">
<path d="M5.75889 17.3261C2.73739 12.6893 2.99161 8.77101 2.98492 7.80413C2.97775 6.83724 3.01216 6.16458 3.68594 6.0512C4.19343 5.96556 6.33137 5.77515 7.5523 5.97274C7.55899 5.82491 7.53653 5.70674 7.47058 5.6101C7.01327 4.9384 3.46182 5.23741 2.78804 5.35079C2.11426 5.46418 2.07986 6.13684 2.08702 7.10372C2.09371 8.0706 1.83949 11.9889 4.86099 16.6257C6.32133 18.8671 7.94796 20.3497 9.23866 21.2836C8.13576 20.3588 6.89667 19.0728 5.75841 17.3256L5.75889 17.3261Z" fill="#FCFCFC"/>
</g>
<path style="mix-blend-mode:multiply" d="M11.5529 21.8026C11.5529 21.8026 8.43682 19.111 7.35351 13.5456C6.27021 7.98015 7.90162 6.28177 7.44479 5.61007C7.33583 5.4498 7.05007 5.34502 6.67018 5.27948C6.60662 6.17364 5.584 8.11555 6.4991 12.8179C7.58241 18.3838 10.6985 21.075 10.6985 21.075C11.3135 21.706 10.7348 21.9256 10.7348 21.9256C10.7348 21.9256 9.45896 21.45 7.79553 20.1291C9.85606 22.0074 11.5893 22.6537 11.5893 22.6537C11.5893 22.6537 12.1679 22.4341 11.5529 21.8031V21.8026Z" fill="url(#paint11_linear_2005_3561)"/>
<path d="M12.7581 22.2213C12.7581 22.2213 9.5641 21.0166 7.16047 17.1793C4.75684 13.3414 5.5606 11.6774 5.01488 11.2966C4.46917 10.9153 1.76974 12.0286 1.27325 12.2812C0.777227 12.5343 0.937788 13.0395 1.21351 13.7519C1.48924 14.4642 2.38427 17.4209 6.04753 20.0861C9.71032 22.7514 13.0238 22.8404 13.0238 22.8404C13.0238 22.8404 13.4161 22.5332 12.7576 22.2213H12.7581Z" fill="url(#paint12_linear_2005_3561)"/>
<g style="mix-blend-mode:overlay" opacity="0.72">
<path d="M1.58291 14.2456C1.30718 13.5337 1.14615 13.028 1.64264 12.7749C2.10139 12.541 4.44289 11.5726 5.22515 11.7281C5.1874 11.5191 5.13244 11.3779 5.01537 11.2956C4.46965 10.9143 1.77023 12.0276 1.27373 12.2802C0.777716 12.5333 0.938276 13.0385 1.214 13.7509C1.39511 14.2183 1.84286 15.654 3.16653 17.339C2.12576 15.8727 1.74586 14.6661 1.58291 14.2451V14.2456Z" fill="#FCFCFC"/>
</g>
<g style="mix-blend-mode:multiply">
<path d="M6.27928 16.4511C7.31623 18.1069 8.50037 19.2719 9.512 20.0622C8.72353 19.3317 7.88966 18.3854 7.13417 17.1788C4.73054 13.3409 5.5343 11.677 4.98858 11.2961C4.87103 11.2139 4.65265 11.2014 4.37836 11.2344C4.48253 12.0836 4.56616 13.7145 6.27976 16.4506L6.27928 16.4511Z" fill="url(#paint13_linear_2005_3561)"/>
</g>
<path d="M17.1976 21.9969C17.1976 21.9969 14.0055 22.559 10.1329 20.8449C6.26037 19.1312 6.07687 17.5553 5.44371 17.5232C4.81054 17.4911 3.18152 19.5201 2.90628 19.9282C2.63151 20.3363 3.01523 20.6324 3.59583 21.0271C4.17642 21.4223 6.38509 23.1748 10.6896 23.4656C14.9942 23.757 17.7237 22.3275 17.7237 22.3275C17.7237 22.3275 17.8872 21.9266 17.1976 21.9959V21.9969Z" fill="url(#paint14_linear_2005_3561)"/>
<g style="mix-blend-mode:overlay" opacity="0.72">
<path d="M5.44353 18.216C6.07669 18.248 6.26019 19.8234 10.1328 21.5376C13.0821 22.8432 15.6367 22.8284 16.6871 22.7471C17.3589 22.5193 17.7235 22.3284 17.7235 22.3284C17.7235 22.3284 17.887 21.9275 17.1974 21.9969C17.1974 21.9969 14.0053 22.559 10.1328 20.8449C6.26019 19.1312 6.07669 17.5553 5.44353 17.5232C4.81037 17.4911 3.18135 19.5201 2.9061 19.9282C2.75605 20.1512 2.8024 20.3401 2.96965 20.5305C3.37297 19.9765 4.84764 18.1858 5.44353 18.2155V18.216Z" fill="#FCFCFC"/>
</g>
<g style="mix-blend-mode:multiply">
<path d="M17.1711 21.9969C17.1711 21.9969 16.5853 22.0997 15.6119 22.083C14.4134 22.4672 12.3959 22.9135 9.80875 22.7384C5.77179 22.4657 3.57842 20.9075 2.84204 20.3889C2.9529 20.5965 3.22672 20.7951 3.56886 21.0281C4.14946 21.4233 6.35813 23.1757 10.6627 23.4666C14.9672 23.7579 17.6968 22.3284 17.6968 22.3284C17.6968 22.3284 17.8602 21.9275 17.1706 21.9969H17.1711Z" fill="url(#paint15_linear_2005_3561)"/>
</g>
<path d="M23.4196 21.8027C23.4196 21.8027 26.5357 19.1111 27.619 13.5456C28.7023 7.98018 27.0709 6.2818 27.5278 5.6101C27.9851 4.9384 31.5365 5.23741 32.2103 5.35079C32.8841 5.46418 32.9185 6.13684 32.9113 7.10372C32.9046 8.0706 33.1593 11.9889 30.1373 16.6257C27.1158 21.2625 23.3828 22.6528 23.3828 22.6528C23.3828 22.6528 22.8041 22.4332 23.4191 21.8022L23.4196 21.8027Z" fill="url(#paint16_linear_2005_3561)"/>
<g style="mix-blend-mode:overlay" opacity="0.72">
<path d="M28.4185 14.2035C29.5018 8.63801 27.8704 6.93962 28.3272 6.26792C28.7597 5.63258 31.9623 5.86605 32.8764 5.989C32.7918 5.63976 32.615 5.41251 32.2485 5.35079C31.5747 5.23741 28.0233 4.9384 27.566 5.6101C27.1091 6.2818 28.7406 7.98018 27.6572 13.5456C26.5739 19.1116 23.4578 21.8027 23.4578 21.8027C22.8428 22.4337 23.4215 22.6533 23.4215 22.6533C23.4215 22.6533 23.896 22.4763 24.6434 22.039C25.5336 21.0846 27.5817 18.5011 28.4185 14.2035Z" fill="#FCFCFC"/>
</g>
<path style="mix-blend-mode:multiply" d="M32.9113 7.10417C32.9185 6.13729 32.8841 5.46463 32.2103 5.35125C32.1563 5.34216 32.0842 5.33211 31.9967 5.32111C32.055 5.60577 32.0598 5.9641 32.0569 6.3765C32.0502 7.34338 32.3044 11.2616 29.2829 15.8985C27.4958 18.6417 25.4596 20.2483 24.0944 21.1032C23.6882 21.5711 23.4196 21.8031 23.4196 21.8031C22.8046 22.4341 23.3833 22.6537 23.3833 22.6537C23.3833 22.6537 27.1163 21.2635 30.1378 16.6266C33.1593 11.9898 32.9051 8.07154 32.9118 7.10465L32.9113 7.10417Z" fill="url(#paint17_linear_2005_3561)"/>
<path d="M22.2412 22.2212C22.2412 22.2212 25.4352 21.0166 27.8388 17.1792C30.2424 13.3413 29.4387 11.6774 29.9844 11.2966C30.5301 10.9153 33.2291 12.0285 33.726 12.2811C34.222 12.5342 34.0615 13.0394 33.7858 13.7518C33.51 14.4642 32.615 17.4208 28.9517 20.0861C25.2889 22.7513 21.9755 22.8403 21.9755 22.8403C21.9755 22.8403 21.5832 22.5332 22.2416 22.2212H22.2412Z" fill="url(#paint18_linear_2005_3561)"/>
<g style="mix-blend-mode:overlay" opacity="0.72">
<path d="M28.3922 17.8442C30.7958 14.0063 29.9921 12.3424 30.5378 11.9616C31.0242 11.6219 33.2224 12.4692 34.0453 12.8366C34.0558 12.5931 33.9712 12.406 33.7256 12.2812C33.2291 12.0281 30.5297 10.9153 29.9839 11.2966C29.4382 11.6774 30.242 13.3413 27.8384 17.1792C25.4347 21.0166 22.2407 22.2213 22.2407 22.2213C21.5827 22.5327 21.9745 22.8403 21.9745 22.8403C21.9745 22.8403 22.4739 22.827 23.2987 22.6547C24.2936 22.1495 26.5692 20.7535 28.3917 17.8447L28.3922 17.8442Z" fill="#FCFCFC"/>
</g>
<path style="mix-blend-mode:multiply" d="M33.7256 12.2811C33.6252 12.2299 33.4351 12.1438 33.1909 12.0419C33.1995 12.3012 33.0829 12.6309 32.9309 13.0236C32.6552 13.736 31.7602 16.6926 28.0969 19.3579C26.2461 20.7047 24.4852 21.3931 23.195 21.7452C22.6115 22.0811 22.2412 22.2208 22.2412 22.2208C21.5832 22.5322 21.975 22.8398 21.975 22.8398C21.975 22.8398 25.2885 22.7509 28.9513 20.0856C32.6146 17.4208 33.5101 14.4637 33.7853 13.7513C34.061 13.0394 34.2221 12.5337 33.7256 12.2807V12.2811Z" fill="url(#paint19_linear_2005_3561)"/>
<path d="M17.8014 21.9969C17.8014 21.9969 20.9935 22.559 24.8661 20.8449C28.7387 19.1312 28.9222 17.5553 29.5553 17.5232C30.1885 17.4911 31.8175 19.5201 32.0928 19.9282C32.3675 20.3363 31.9838 20.6324 31.4032 21.0271C30.8226 21.4223 28.614 23.1748 24.3094 23.4656C20.0049 23.757 17.2753 22.3275 17.2753 22.3275C17.2753 22.3275 17.1119 21.9266 17.8014 21.9959V21.9969Z" fill="url(#paint20_linear_2005_3561)"/>
<path style="mix-blend-mode:multiply" d="M32.0928 19.9287C31.8624 19.5871 30.6836 18.1097 29.9343 17.6562C30.5182 18.2513 31.0859 18.9747 31.2384 19.201C31.5131 19.6091 31.1294 19.9052 30.5488 20.2999C29.9682 20.6951 27.7595 22.4476 23.455 22.7384C20.7126 22.9241 18.6095 22.4112 17.4445 22.0146C17.1802 22.0935 17.2753 22.3284 17.2753 22.3284C17.2753 22.3284 20.0044 23.7575 24.3094 23.4666C28.614 23.1757 30.8231 21.4233 31.4032 21.0281C31.9838 20.6334 32.3675 20.3372 32.0928 19.9292V19.9287Z" fill="url(#paint21_linear_2005_3561)"/>
<g style="mix-blend-mode:overlay" opacity="0.72">
<path d="M29.5558 18.216C28.9227 18.248 28.7392 19.8234 24.8666 21.5376C21.9173 22.8432 19.3626 22.8284 18.3123 22.7471C17.6404 22.5193 17.2758 22.3284 17.2758 22.3284C17.2758 22.3284 17.1124 21.9275 17.8019 21.9969C17.8019 21.9969 20.994 22.559 24.8666 20.8449C28.7392 19.1312 28.9227 17.5553 29.5558 17.5232C30.189 17.4911 31.818 19.5201 32.0933 19.9282C32.2433 20.1512 30.1512 18.1858 29.5558 18.2155V18.216Z" fill="#FCFCFC"/>
</g>
<path d="M17.5047 21.0042C16.2164 21.0042 15.1723 22.0203 15.1723 23.2742C15.1723 24.5282 16.2164 25.5443 17.5047 25.5443C18.793 25.5443 19.8367 24.5277 19.8367 23.2742C19.8367 22.0208 18.7926 21.0042 17.5047 21.0042Z" fill="url(#paint22_linear_2005_3561)"/>
<path d="M17.4947 25.4429C16.224 25.4429 15.1909 24.454 15.1632 23.2235C15.1632 23.2403 15.1627 23.2575 15.1627 23.2742C15.1627 24.5282 16.2068 25.5443 17.4952 25.5443C18.7835 25.5443 19.8271 24.5277 19.8271 23.2742C19.8271 23.257 19.8271 23.2403 19.8266 23.2235C19.7989 24.454 18.7658 25.4429 17.4952 25.4429H17.4947Z" fill="#E5E5E5"/>
<g style="mix-blend-mode:overlay" opacity="0.35">
<path d="M17.5047 21.0042C16.2164 21.0042 15.1723 22.0203 15.1723 23.2742C15.1723 23.302 15.1733 23.3293 15.1747 23.3565C15.7687 23.8751 16.5868 24.1957 17.4894 24.1957C18.3921 24.1957 19.2389 23.8637 19.8353 23.3288C19.8357 23.3106 19.8367 23.2924 19.8367 23.2742C19.8367 22.0208 18.7926 21.0042 17.5047 21.0042Z" fill="white"/>
</g>
<g style="mix-blend-mode:overlay" opacity="0.49">
<path d="M19.366 21.9007C18.9402 21.3563 18.2674 21.0046 17.51 21.0046C16.7526 21.0046 16.0692 21.3615 15.6439 21.9132C16.171 22.2299 16.8085 22.4155 17.4951 22.4155C18.1818 22.4155 18.8351 22.2251 19.3664 21.9007H19.366Z" fill="white"/>
</g>
<g style="mix-blend-mode:overlay" opacity="0.49">
<path d="M17.5047 21.1343C18.7701 21.1343 19.7994 22.116 19.8352 23.3393C19.8362 23.3178 19.8371 23.2963 19.8371 23.2742C19.8371 22.0208 18.793 21.0042 17.5052 21.0042C16.2173 21.0042 15.1732 22.0203 15.1732 23.2742C15.1732 23.2963 15.1742 23.3178 15.1751 23.3393C15.2105 22.116 16.2398 21.1343 17.5056 21.1343H17.5047Z" fill="white"/>
</g>
<path d="M17.1917 21.1534C17.3002 21.1453 17.412 21.1864 17.358 21.2338C17.3035 21.2812 16.9365 21.4931 16.7765 21.362C16.6164 21.2309 17.0641 21.1635 17.1917 21.1534Z" fill="white"/>
<path d="M15.9297 21.7309C15.5899 22.017 15.3152 22.5461 15.3223 22.8552C15.3295 23.1642 15.4939 22.6791 15.5794 22.5035C15.6645 22.3279 16.0903 21.7916 16.399 21.6295C16.7077 21.4668 16.4616 21.284 15.9302 21.7314L15.9297 21.7309Z" fill="white"/>
<path d="M17.4823 21.9882C16.7593 21.9882 16.1734 22.559 16.1734 23.2622C16.1734 23.9655 16.7593 24.5363 17.4823 24.5363C18.2053 24.5363 18.7911 23.966 18.7911 23.2622C18.7911 22.5585 18.2053 21.9882 17.4823 21.9882Z" fill="url(#paint23_linear_2005_3561)"/>
<g style="mix-blend-mode:overlay" opacity="0.35">
<path d="M17.4804 24.6215C16.7182 24.6215 16.0984 24.0172 16.0984 23.2742C16.0984 22.5312 16.7186 21.927 17.4804 21.927C18.2421 21.927 18.8623 22.5312 18.8623 23.2742C18.8623 24.0172 18.2425 24.6215 17.4804 24.6215ZM17.4804 22.0495C16.7855 22.0495 16.2202 22.5987 16.2202 23.2742C16.2202 23.9498 16.7855 24.499 17.4804 24.499C18.1752 24.499 18.74 23.9498 18.74 23.2742C18.74 22.5987 18.1747 22.0495 17.4804 22.0495Z" fill="white"/>
</g>
<g style="mix-blend-mode:multiply" opacity="0.44">
<path d="M17.4823 21.9882C17.0986 21.9882 16.7531 22.149 16.5137 22.4054C16.7473 22.1939 17.0603 22.0648 17.4044 22.0648C18.1269 22.0648 18.7133 22.635 18.7133 23.3388C18.7133 23.6689 18.5842 23.9694 18.373 24.1956C18.6306 23.9631 18.7911 23.6311 18.7911 23.2622C18.7911 22.5585 18.2053 21.9882 17.4823 21.9882Z" fill="#8A8A8A"/>
</g>
<g style="mix-blend-mode:multiply" opacity="0.44">
<path d="M16.667 24.0162C16.667 23.1938 17.2529 22.7422 17.9759 22.7422C18.2712 22.7422 18.5436 22.8374 18.7624 22.9982C18.6372 22.4217 18.1116 21.9887 17.4823 21.9887C16.7597 21.9887 16.1734 22.5595 16.1734 23.2627C16.1734 23.679 16.3784 24.0488 16.6957 24.2813C16.6775 24.1957 16.6675 24.1071 16.6675 24.0167L16.667 24.0162Z" fill="#8A8A8A"/>
</g>
<path d="M17.4823 24.4669C16.7722 24.4669 16.1944 23.9163 16.1744 23.2292C16.1739 23.2417 16.1734 23.2536 16.1734 23.2661C16.1734 23.9698 16.7593 24.5401 17.4823 24.5401C18.2053 24.5401 18.7911 23.9698 18.7911 23.2661C18.7911 23.2536 18.7906 23.2417 18.7902 23.2292C18.7701 23.9158 18.1924 24.4669 17.4823 24.4669Z" fill="#E5E5E5"/>
<path style="mix-blend-mode:overlay" d="M16.9021 20.9343C16.6446 20.9343 16.4357 21.129 16.4357 21.3692C16.4357 21.6094 16.6446 21.8036 16.9021 21.8036C17.1597 21.8036 17.368 21.6089 17.368 21.3692C17.368 21.1295 17.1592 20.9343 16.9021 20.9343Z" fill="url(#paint24_radial_2005_3561)"/>
<path opacity="0.7" d="M16.4764 21.9409C16.6016 21.8002 16.9695 21.3687 16.9695 21.3687C16.9695 21.3687 17.2768 20.7913 17.2844 20.775C17.2864 20.7702 16.8916 21.318 16.8916 21.318L16.4769 21.9409H16.4764Z" fill="white"/>
<path d="M17.0034 21.2654C16.8902 21.1764 16.9107 20.9271 16.9098 20.8563V20.9243C16.9098 20.9133 16.9088 20.9018 16.9088 20.8994V20.8568C16.9088 20.8769 16.9074 20.9089 16.9026 20.9463C16.9026 20.9463 16.8692 21.197 16.8094 21.2486C16.6742 21.3673 16.3344 21.3443 16.4649 21.3472C16.905 21.3567 16.905 21.7868 16.9088 21.928V21.8572C16.9088 21.8624 16.9098 21.8667 16.9098 21.8691V21.9285C16.9193 21.5945 16.9179 21.3831 17.3021 21.3548C17.4292 21.3453 17.1363 21.3697 17.0034 21.2663V21.2654Z" fill="white"/>
<g style="mix-blend-mode:overlay" opacity="0.35">
<path d="M19.1691 1.5H10.8692V6.46551H18.2588C18.577 6.46551 18.6291 6.43633 18.6301 6.43633C18.6325 6.4392 18.663 6.42915 18.663 6.74012V7.44531L10.397 13.37V18.9977H24.5675V14.2685H18.6984L21.4896 12.1812C21.911 11.8726 22.3024 11.5176 22.636 11.2296C23.003 10.9119 23.3384 10.5354 23.6323 10.1312C23.9472 9.69771 24.1742 9.2169 24.3161 8.80593C24.4943 8.29116 24.5675 7.72566 24.5675 7.19653V6.7406C24.5675 4.89342 24.1001 3.61174 23.2385 2.74867C22.375 1.88465 21.0112 1.5 19.1691 1.5Z" fill="white"/>
</g>
<path d="M19.1691 1.97266H11.5778V5.75599H18.2588C18.9813 5.75599 19.3712 6.13347 19.3712 6.85683V7.81798L11.1052 13.7427V18.5245H24.0949V14.7412H17.1755L21.1962 11.8247C21.5952 11.5329 21.9703 11.2286 22.3105 10.9339C22.6627 10.6292 22.9719 10.2914 23.2295 9.93737C23.4918 9.57665 23.7116 9.17573 23.8588 8.75042C24.0074 8.32032 24.0953 7.83568 24.0953 7.31277V6.85731C24.0953 5.17424 23.6849 3.93322 22.8993 3.1467C22.1137 2.36065 20.8507 1.97313 19.1691 1.97313V1.97266Z" fill="#777C84"/>
<path d="M23.7217 7.38409C23.7217 7.87016 23.6533 8.31079 23.5167 8.70596C23.38 9.10113 23.1903 9.46569 22.948 9.79962C22.7048 10.134 22.4166 10.4455 22.0826 10.734C21.7486 11.0229 21.3849 11.3119 20.9902 11.5999L16.0965 15.1321H23.7212V18.3222H11.4307V13.9925L19.6245 8.06775V6.92863C19.6245 6.01677 19.1691 5.56131 18.2593 5.56131H11.8861V2.37122H19.1691C20.7623 2.37122 21.9197 2.73242 22.6403 3.4534C23.3609 4.17533 23.7217 5.33359 23.7217 6.92863V7.38457V7.38409Z" fill="url(#paint25_linear_2005_3561)"/>
<path d="M20.0799 7.57353C20.0799 7.02191 19.8897 6.6387 19.5567 6.42102C19.6044 6.58225 19.6073 6.76644 19.6073 6.97599V8.1151L11.3413 14.0398V18.2877H11.8134V14.6374L20.0794 8.71265V7.57353H20.0799Z" fill="white"/>
<path d="M16.3574 14.9775L15.5292 15.687H23.6227V14.9775H16.3574Z" fill="white"/>
<path d="M12.2865 2.91854H19.5968C21.19 2.91854 22.3469 3.32855 23.068 4.05C23.0938 4.07584 23.1177 4.1275 23.1425 4.1543C23.0011 3.89691 22.8338 3.57828 22.6403 3.38404C21.9197 2.66259 20.7623 2.20905 19.1691 2.20905H11.8139V5.51923H12.286V2.91854H12.2865Z" fill="white"/>
<g style="mix-blend-mode:overlay" opacity="0.35">
<path d="M13.1136 12.9046C14.0512 13.2471 15.0437 13.4342 16.0998 13.4342C17.3589 13.4342 18.545 13.1682 19.6269 12.6898L21.1326 11.5994C21.5268 11.3114 21.8881 11.0225 22.2221 10.7335C22.5557 10.4455 22.8433 10.1336 23.0861 9.79915C23.3284 9.46521 23.5176 9.10066 23.6543 8.70549C23.7909 8.31079 23.8588 7.87017 23.8588 7.38361V6.92768C23.8588 5.33263 23.498 4.09353 22.7774 3.37207C22.0563 2.65062 20.8994 2.20856 19.3062 2.20856H12.0499V5.51874H18.3964C19.3067 5.51874 19.8438 6.01581 19.8438 6.92768V8.0668L13.1136 12.9041V12.9046Z" fill="white"/>
</g>
</g>
<defs>
<linearGradient id="paint0_linear_2005_3561" x1="10.9614" y1="26.3458" x2="24.0375" y2="26.3458" gradientUnits="userSpaceOnUse">
<stop stop-color="#D7D7D7"/>
<stop offset="1" stop-color="#979797"/>
</linearGradient>
<radialGradient id="paint1_radial_2005_3561" cx="0" cy="0" r="1" gradientUnits="userSpaceOnUse" gradientTransform="translate(19.2216 23.1054) scale(7.33944 7.34804)">
<stop offset="0.25" stop-color="#D7D7D7"/>
<stop offset="1" stop-color="#979797"/>
</radialGradient>
<linearGradient id="paint2_linear_2005_3561" x1="14.4602" y1="25.3133" x2="17.1673" y2="28.1558" gradientUnits="userSpaceOnUse">
<stop stop-color="white"/>
<stop offset="1" stop-color="white"/>
</linearGradient>
<linearGradient id="paint3_linear_2005_3561" x1="16.9738" y1="27.3916" x2="17.8426" y2="33.3256" gradientUnits="userSpaceOnUse">
<stop offset="0.25" stop-color="#D7D7D7"/>
<stop offset="1" stop-color="#979797"/>
</linearGradient>
<linearGradient id="paint4_linear_2005_3561" x1="13.9633" y1="29.4416" x2="14.5499" y2="31.7167" gradientUnits="userSpaceOnUse">
<stop stop-color="white"/>
<stop offset="1" stop-color="white"/>
</linearGradient>
<radialGradient id="paint5_radial_2005_3561" cx="0" cy="0" r="1" gradientUnits="userSpaceOnUse" gradientTransform="translate(17.4994 30.663) scale(5.35202 5.35829)">
<stop offset="0.25" stop-color="#D7D7D7"/>
<stop offset="1" stop-color="#979797"/>
</radialGradient>
<linearGradient id="paint6_linear_2005_3561" x1="17.207" y1="25.6746" x2="17.6242" y2="35.4955" gradientUnits="userSpaceOnUse">
<stop offset="0.25" stop-color="#D7D7D7"/>
<stop offset="1" stop-color="#979797"/>
</linearGradient>
<linearGradient id="paint7_linear_2005_3561" x1="12.9406" y1="31.3051" x2="13.7447" y2="34.4225" gradientUnits="userSpaceOnUse">
<stop stop-color="white"/>
<stop offset="1" stop-color="white"/>
</linearGradient>
<radialGradient id="paint8_radial_2005_3561" cx="0" cy="0" r="1" gradientUnits="userSpaceOnUse" gradientTransform="translate(17.4994 32.1968) scale(6.4401 6.44765)">
<stop offset="0.25" stop-color="#D7D7D7"/>
<stop offset="1" stop-color="#979797"/>
</radialGradient>
<linearGradient id="paint9_linear_2005_3561" x1="8.13629" y1="27.6987" x2="27.0963" y2="28.0448" gradientUnits="userSpaceOnUse">
<stop offset="0.25" stop-color="#D7D7D7"/>
<stop offset="1" stop-color="#979797"/>
</linearGradient>
<linearGradient id="paint10_linear_2005_3561" x1="3.97766" y1="15.3239" x2="10.3952" y2="12.6793" gradientUnits="userSpaceOnUse">
<stop stop-color="#979797"/>
<stop offset="1" stop-color="#D7D7D7"/>
</linearGradient>
<linearGradient id="paint11_linear_2005_3561" x1="7.91882" y1="2.54388" x2="8.7508" y2="13.1397" gradientUnits="userSpaceOnUse">
<stop offset="0.25" stop-color="#D7D7D7"/>
<stop offset="1" stop-color="#979797"/>
</linearGradient>
<linearGradient id="paint12_linear_2005_3561" x1="4.99904" y1="19.4505" x2="9.05933" y2="15.8561" gradientUnits="userSpaceOnUse">
<stop stop-color="#979797"/>
<stop offset="1" stop-color="#D7D7D7"/>
</linearGradient>
<linearGradient id="paint13_linear_2005_3561" x1="5.93044" y1="2.69991" x2="6.76242" y2="13.2958" gradientUnits="userSpaceOnUse">
<stop offset="0.25" stop-color="#D7D7D7"/>
<stop offset="1" stop-color="#979797"/>
</linearGradient>
<linearGradient id="paint14_linear_2005_3561" x1="9.57162" y1="23.551" x2="10.9009" y2="19.1617" gradientUnits="userSpaceOnUse">
<stop stop-color="#979797"/>
<stop offset="1" stop-color="#D7D7D7"/>
</linearGradient>
<linearGradient id="paint15_linear_2005_3561" x1="8.09514" y1="17.1457" x2="11.9758" y2="24.4828" gradientUnits="userSpaceOnUse">
<stop offset="0.25" stop-color="#D7D7D7"/>
<stop offset="1" stop-color="#979797"/>
</linearGradient>
<linearGradient id="paint16_linear_2005_3561" x1="31.0223" y1="15.3236" x2="24.6047" y2="12.679" gradientUnits="userSpaceOnUse">
<stop stop-color="#979797"/>
<stop offset="1" stop-color="#D7D7D7"/>
</linearGradient>
<linearGradient id="paint17_linear_2005_3561" x1="25.9279" y1="0.791436" x2="28.9788" y2="20.5285" gradientUnits="userSpaceOnUse">
<stop offset="0.25" stop-color="#D7D7D7"/>
<stop offset="1" stop-color="#979797"/>
</linearGradient>
<linearGradient id="paint18_linear_2005_3561" x1="29.9979" y1="19.45" x2="25.938" y2="15.8559" gradientUnits="userSpaceOnUse">
<stop stop-color="#979797"/>
<stop offset="1" stop-color="#D7D7D7"/>
</linearGradient>
<linearGradient id="paint19_linear_2005_3561" x1="25.3607" y1="0.879464" x2="28.4111" y2="20.6165" gradientUnits="userSpaceOnUse">
<stop offset="0.25" stop-color="#D7D7D7"/>
<stop offset="1" stop-color="#979797"/>
</linearGradient>
<linearGradient id="paint20_linear_2005_3561" x1="25.4324" y1="23.5502" x2="24.1031" y2="19.1609" gradientUnits="userSpaceOnUse">
<stop stop-color="#979797"/>
<stop offset="1" stop-color="#D7D7D7"/>
</linearGradient>
<linearGradient id="paint21_linear_2005_3561" x1="21.674" y1="1.44928" x2="24.7249" y2="21.1863" gradientUnits="userSpaceOnUse">
<stop offset="0.25" stop-color="#D7D7D7"/>
<stop offset="1" stop-color="#979797"/>
</linearGradient>
<linearGradient id="paint22_linear_2005_3561" x1="17.402" y1="20.7645" x2="17.5969" y2="25.5161" gradientUnits="userSpaceOnUse">
<stop stop-color="#D7D7D7"/>
<stop offset="1" stop-color="#8A8A8A"/>
</linearGradient>
<linearGradient id="paint23_linear_2005_3561" x1="17.4823" y1="24.365" x2="17.4823" y2="22.2729" gradientUnits="userSpaceOnUse">
<stop stop-color="#D7D7D7"/>
<stop offset="1" stop-color="#8A8A8A"/>
</linearGradient>
<radialGradient id="paint24_radial_2005_3561" cx="0" cy="0" r="1" gradientUnits="userSpaceOnUse" gradientTransform="translate(16.9021 21.3687) scale(0.450621 0.451149)">
<stop offset="0.09" stop-color="white"/>
<stop offset="1" stop-color="white"/>
</radialGradient>
<linearGradient id="paint25_linear_2005_3561" x1="16.8386" y1="5.22307" x2="17.8717" y2="15.2309" gradientUnits="userSpaceOnUse">
<stop stop-color="#B5C0C9"/>
<stop offset="1" stop-color="#8F939C"/>
</linearGradient>
<clipPath id="clip0_2005_3561">
<rect width="35" height="35" fill="white" transform="translate(-0.000305176)"/>
</clipPath>
</defs>
</svg>
