<svg width="35" height="35" viewBox="0 0 35 35" fill="none" xmlns="http://www.w3.org/2000/svg">
<path d="M18.0557 30.2678L24.0158 29.9415L23.7728 29.4028C23.7728 29.4028 21.0228 28.9263 20.1378 26.4801C19.2527 24.0335 19.5455 22.36 19.5455 22.36H15.388C15.388 22.36 15.687 24.0335 14.802 26.4801C13.9169 28.9268 11.1669 29.4028 11.1669 29.4028L10.9239 29.9415L16.884 30.2678V30.3319L17.4696 30.2998L18.0552 30.3319V30.2678H18.0557Z" fill="url(#paint0_linear_2005_3723)"/>
<path style="mix-blend-mode:multiply" d="M23.7742 29.4023C23.7742 29.4023 21.0243 28.9258 20.1392 26.4797C19.2541 24.033 19.5469 22.36 19.5469 22.36H15.3895C15.3895 22.36 15.6693 22.8896 15.7569 23.7881C16.2066 23.8694 16.1377 24.0718 16.9855 24.2512C18.4604 24.5636 18.6786 26.6543 20.0062 27.9297C20.8162 28.7076 22.5562 29.1851 23.7905 29.4391L23.7738 29.4023H23.7742Z" fill="url(#paint1_radial_2005_3723)"/>
<g style="mix-blend-mode:overlay" opacity="0.49">
<path d="M15.5626 24.3206C15.5626 24.3206 15.2675 26.5414 14.5561 27.3915C13.8446 28.2417 14.4518 28.7622 16.985 28.8143C19.5182 28.8665 17.0199 23.713 15.5622 24.3206H15.5626Z" fill="#FFF6CC"/>
</g>
<path d="M16.231 24.6937C15.7612 24.4588 15.7885 26.351 15.2942 27.2442C14.7996 28.1379 14.8173 28.4589 15.6932 28.0943C16.5697 27.7298 16.3697 24.7631 16.231 24.6937Z" fill="white"/>
<path d="M10.5761 31.9662H24.3632C25.0502 31.9662 24.9253 31.404 24.9253 30.717V30.6094C24.9253 29.9224 24.3632 29.3602 23.6762 29.3602H11.2636C10.5766 29.3602 10.0144 29.9224 10.0144 30.6094V30.717C10.0144 31.404 9.88956 31.9662 10.5766 31.9662H10.5761Z" fill="url(#paint2_linear_2005_3723)"/>
<g style="mix-blend-mode:overlay" opacity="0.49">
<path d="M17.1012 29.5253C17.2462 29.7927 17.4619 30.408 16.6123 30.4879C16.342 30.5132 11.486 30.663 11.1057 30.375C10.7253 30.087 10.8157 29.432 11.5764 29.432C12.3371 29.432 16.9988 29.3363 17.1012 29.5258V29.5253Z" fill="#FFF6CC"/>
</g>
<path style="mix-blend-mode:multiply" d="M20.7803 31.9662H24.3636C25.0507 31.9662 24.9258 31.404 24.9258 30.717V30.6094C24.9258 29.9224 24.3636 29.3602 23.6766 29.3602H23.5795C23.7034 29.7128 23.7068 30.1362 23.1284 30.3032C22.0615 30.6103 19.5885 30.6634 19.5885 30.6634H10.0144V30.717C10.0144 31.404 9.88956 31.9662 10.5766 31.9662H20.7808H20.7803Z" fill="url(#paint3_radial_2005_3723)"/>
<path d="M9.01451 33.5H25.9252C26.6122 33.5 26.4873 32.9378 26.4873 32.2508V32.1432C26.4873 31.4562 25.9252 30.894 25.2382 30.894H9.702C9.01499 30.894 8.45284 31.4562 8.45284 32.1432V32.2508C8.45284 32.9378 8.32798 33.5 9.01499 33.5H9.01451Z" fill="url(#paint4_linear_2005_3723)"/>
<g style="mix-blend-mode:overlay" opacity="0.49">
<path d="M16.8725 31.3576C17.1863 31.7174 17.3739 32.7757 16.274 32.8068C15.9343 32.8163 9.81918 32.7675 9.43788 32.6331C8.79632 32.4068 9.02405 31.1993 9.97419 31.1993C10.9243 31.1993 16.517 30.95 16.873 31.3576H16.8725Z" fill="#FFF6CC"/>
</g>
<path style="mix-blend-mode:multiply" d="M26.4859 32.1432C26.4859 31.4562 25.9238 30.894 25.2367 30.894H24.7502C24.9894 31.1993 24.9349 31.9662 24.4708 32.4604C23.4709 33.5239 8.79636 33.3086 8.44568 32.9005C8.46242 33.2589 8.56385 33.5 9.01356 33.5H25.9242C26.6112 33.5 26.4864 32.9378 26.4864 32.2508V32.1432H26.4859Z" fill="url(#paint5_radial_2005_3723)"/>
<path d="M12.5783 29.5257C12.1798 29.5454 11.9444 30.1467 12.0056 30.3314C12.0668 30.5165 13.3591 30.4974 13.593 30.0463C13.8274 29.5951 13.2806 29.4908 12.5778 29.5257H12.5783Z" fill="white"/>
<path d="M11.5176 31.2002C10.8832 31.2313 10.5091 32.1882 10.6062 32.4829C10.7033 32.7776 12.76 32.7469 13.1332 32.0288C13.5059 31.3107 12.6361 31.1452 11.5176 31.2002Z" fill="white"/>
<path style="mix-blend-mode:multiply" d="M26.4873 32.2503V32.1427C26.4873 31.4557 25.9252 30.8935 25.2382 30.8935H24.9282C24.9267 30.8357 24.9258 30.7768 24.9258 30.7165V30.6089C24.9258 29.9219 24.3636 29.3597 23.6766 29.3597H23.5828C22.9446 29.2004 20.8831 28.5359 20.1392 26.4797C19.2541 24.033 19.5469 22.36 19.5469 22.36H17.4696C17.4696 22.36 18.3647 24.4138 18.3647 26.1338C18.3647 28.7627 17.4696 29.3612 17.4696 29.3612C17.4777 29.3612 17.4854 29.3597 17.4935 29.3597H20.5238C20.8822 29.3597 21.1754 29.653 21.1754 30.0113C21.1754 30.3697 20.8822 30.6629 20.5238 30.6629H17.4935C17.4854 30.6629 17.4777 30.662 17.4696 30.6615V30.8935H21.3319C22.0189 30.8935 22.581 31.4557 22.581 32.1427V32.2503C22.581 32.9373 22.0189 33.4995 21.3319 33.4995H25.9252C26.6122 33.4995 26.4873 32.9373 26.4873 32.2503Z" fill="url(#paint6_linear_2005_3723)"/>
<path d="M17.3204 21.8964C9.77475 21.8964 5.63834 16.1573 4.38584 8.58347C4.16003 7.21758 4.06865 5.40629 4.2471 4.25378L4.23801 4.25043C4.23801 4.25043 3.31897 5.46561 2.80945 7.22141C2.29946 8.97768 2.58699 10.4067 2.58699 10.4067L0.804876 10.0106C0.804876 10.0106 0.386738 10.9866 1.26751 14.0016C2.14828 17.0166 2.88839 17.2161 2.88839 17.2161L1.47897 18.149C1.47897 18.149 1.60384 18.4953 3.75385 20.366C5.90434 22.2366 8.31462 22.438 8.31462 22.438L7.38122 24.3292C7.38122 24.3292 9.27385 25.2171 12.8744 24.4555C16.0377 23.7862 17.2811 22.2562 17.5366 21.8945C17.4649 21.8955 17.3936 21.8974 17.3213 21.8974L17.3204 21.8964Z" fill="url(#paint7_linear_2005_3723)"/>
<path d="M17.6801 21.8964C25.2257 21.8964 29.3621 16.1573 30.6146 8.58347C30.8405 7.21758 30.9318 5.40629 30.7534 4.25378L30.7625 4.25043C30.7625 4.25043 31.6815 5.46561 32.191 7.22141C32.701 8.97768 32.4135 10.4067 32.4135 10.4067L34.1956 10.0106C34.1956 10.0106 34.6137 10.9866 33.733 14.0016C32.8522 17.0166 32.1121 17.2161 32.1121 17.2161L33.5215 18.149C33.5215 18.149 33.3966 18.4953 31.2466 20.366C29.0961 22.2366 26.6859 22.438 26.6859 22.438L27.6193 24.3292C27.6193 24.3292 25.7266 25.2171 22.1261 24.4555C18.9628 23.7862 17.7193 22.2562 17.4639 21.8945C17.5356 21.8955 17.6069 21.8974 17.6792 21.8974L17.6801 21.8964Z" fill="url(#paint8_linear_2005_3723)"/>
<g style="mix-blend-mode:multiply">
<path d="M2.60038 16.6037C2.60038 16.6037 2.29659 16.5204 1.84735 15.6708C2.0569 16.1659 2.24635 16.5042 2.40423 16.7338L2.60038 16.6042V16.6037Z" fill="url(#paint9_linear_2005_3723)"/>
<path d="M6.00767 14.1647C5.25655 12.4831 4.71928 10.5981 4.38583 8.58347C4.16001 7.21758 4.06864 5.40629 4.24709 4.25378L4.238 4.25043C4.238 4.25043 4.0849 4.4528 3.86913 4.81161C3.84761 5.82921 3.93946 7.0109 4.0983 7.97253C4.47242 10.2354 5.10441 12.3343 6.00719 14.1652L6.00767 14.1647Z" fill="url(#paint10_linear_2005_3723)"/>
<path d="M8.02662 21.8256C8.02662 21.8256 5.61635 21.6242 3.46586 19.7536C2.50184 18.9149 1.94544 18.3834 1.62442 18.0514L1.47803 18.148C1.47803 18.148 1.60289 18.4944 3.75291 20.365C5.27859 21.6922 6.93392 22.1787 7.7678 22.3495L8.02662 21.8256Z" fill="url(#paint11_linear_2005_3723)"/>
<path d="M32.1265 9.79485L32.4863 9.71495C32.514 9.1308 32.4844 8.23042 32.1911 7.22096C31.9921 6.5349 31.7304 5.93162 31.4854 5.45081C31.6361 5.80005 31.7816 6.18901 31.9036 6.60954C32.4135 8.36581 32.126 9.79485 32.126 9.79485H32.1265Z" fill="url(#paint12_linear_2005_3723)"/>
<path d="M21.8395 23.8431C19.6575 23.3815 18.3892 22.5103 17.7285 21.8955C17.7122 21.8955 17.6964 21.896 17.6802 21.896C17.6314 21.896 17.5831 21.895 17.5347 21.894C17.5347 21.894 17.5347 21.8936 17.5352 21.8931C17.5232 21.8931 17.5118 21.8931 17.4998 21.8931C17.4878 21.8931 17.4764 21.8931 17.4644 21.8931C17.4644 21.8931 17.4644 21.8936 17.4649 21.894C17.4166 21.895 17.3682 21.896 17.3194 21.896C17.1137 21.896 16.9109 21.8907 16.7099 21.8826C16.0531 22.4978 14.7829 23.3781 12.5855 23.8431C10.0623 24.3766 8.37923 24.1005 7.59701 23.8871L7.37933 24.3278C7.37933 24.3278 9.27196 25.2157 12.8725 24.4541C15.9119 23.8111 17.1778 22.3744 17.4993 21.9419C17.8203 22.3744 19.0867 23.8111 22.1261 24.4541C25.7267 25.2157 27.6193 24.3278 27.6193 24.3278L27.3203 23.7216C27.1643 23.7905 25.2842 24.5718 21.8391 23.8427L21.8395 23.8431Z" fill="url(#paint13_linear_2005_3723)"/>
<path d="M30.9601 19.7536C28.8096 21.6242 26.3994 21.8256 26.3994 21.8256L26.7003 22.4356C26.8883 22.4169 29.1866 22.1576 31.2472 20.365C33.3972 18.4944 33.5221 18.148 33.5221 18.148L33.0202 17.816C32.7618 18.1078 32.1954 18.6786 30.9601 19.7536Z" fill="url(#paint14_linear_2005_3723)"/>
<path d="M34.1956 10.0101L34.0048 10.0527C34.0253 10.6483 33.9402 11.698 33.446 13.3897C32.5652 16.4047 31.8251 16.6042 31.8251 16.6042L32.4001 16.985C32.6953 16.6568 33.1867 15.8703 33.733 14.0011C34.6138 10.9861 34.1956 10.0101 34.1956 10.0101Z" fill="url(#paint15_linear_2005_3723)"/>
</g>
<g style="mix-blend-mode:overlay" opacity="0.35">
<path d="M16.7697 22.6963C17.2003 22.3346 17.4385 22.0303 17.5352 21.8935C17.4634 21.8945 17.3921 21.8964 17.3199 21.8964C13.0328 21.8964 9.84649 20.043 7.66394 17.0538C9.66756 20.2501 12.6706 22.371 16.7692 22.6968L16.7697 22.6963Z" fill="white"/>
<path d="M2.67022 17.0582C2.42575 16.5812 2.14013 15.8784 1.83825 14.8455C0.957481 11.8305 1.37562 10.8545 1.37562 10.8545L3.15773 11.2506C3.15773 11.2506 2.87068 9.82159 3.38019 8.06532C3.59931 7.31085 3.89354 6.65638 4.15858 6.15499C4.13945 5.45315 4.16432 4.78337 4.24661 4.2528L4.23752 4.24945C4.23752 4.24945 3.31848 5.46463 2.80896 7.22043C2.29897 8.97671 2.5865 10.4057 2.5865 10.4057L0.804387 10.0096C0.804387 10.0096 0.386249 10.9856 1.26702 14.0006C1.8593 16.0286 2.38748 16.7816 2.67022 17.0582Z" fill="white"/>
<path d="M2.16499 18.9168L3.45959 18.06C3.45959 18.06 3.19311 17.9872 2.79028 17.2797L1.47845 18.148C1.47845 18.148 1.53204 18.2958 2.16499 18.9168Z" fill="white"/>
<path d="M8.71313 23.6311C8.71313 23.6311 8.86718 22.5772 8.31413 22.437L7.38074 24.3282C7.38074 24.3282 7.67257 24.4646 8.24285 24.5846L8.71361 23.6316L8.71313 23.6311Z" fill="white"/>
</g>
<g style="mix-blend-mode:overlay" opacity="0.49">
<path d="M32.6843 18.06L33.2823 18.4556C33.4971 18.2164 33.5225 18.148 33.5225 18.148L32.1131 17.2151C31.9169 17.4419 32.6848 18.06 32.6848 18.06H32.6843Z" fill="white"/>
<path d="M33.1938 10.844L34.2932 10.9603C34.3095 10.2771 34.1961 10.0101 34.1961 10.0101L32.414 10.4063L33.1943 10.844H33.1938Z" fill="white"/>
<path d="M31.1864 9.42787C31.4084 8.08686 31.4997 6.31862 31.3337 5.1642C31.0175 4.5877 30.7625 4.24994 30.7625 4.24994L30.7534 4.25329C30.9323 5.4058 30.8405 7.21709 30.6147 8.58298C29.3622 16.1573 25.2258 21.8959 17.6801 21.8959C17.6084 21.8959 17.5366 21.8945 17.4648 21.8931C17.5653 22.0356 17.8203 22.3595 18.2839 22.7403C25.8089 22.7241 29.9353 16.9907 31.1859 9.42739L31.1864 9.42787Z" fill="white"/>
</g>
<path d="M17.4447 20.4818L14.29 22.437L17.4447 24.3919L20.5994 22.437L17.4447 20.4818Z" fill="url(#paint16_linear_2005_3723)"/>
<g style="mix-blend-mode:overlay" opacity="0.49">
<path d="M17.4447 20.6679L20.4497 22.5299L20.5994 22.437L17.4447 20.4818L14.29 22.437L14.4398 22.5299L17.4447 20.6679Z" fill="#FFF6CC"/>
</g>
<path opacity="0.44" d="M17.505 24.3794L20.6396 22.4371L17.505 20.4942V24.3794Z" fill="#723600"/>
<g style="mix-blend-mode:overlay" opacity="0.49">
<path d="M17.4466 24.3522L17.3873 21.9892L17.4447 20.4818L14.3871 22.3768L16.4089 22.9159L17.4466 24.3522Z" fill="#FFF6CC"/>
</g>
<g style="mix-blend-mode:overlay" opacity="0.49">
<path d="M17.4447 20.519L14.29 22.437L17.4447 22.3131L20.5994 22.437L17.4447 20.519Z" fill="#FFF6CC"/>
</g>
<g style="mix-blend-mode:overlay" opacity="0.49">
<path d="M17.5002 21.9409C17.5117 21.9409 17.5232 21.9409 17.5347 21.9409C17.5347 21.9409 17.5347 21.9404 17.5352 21.9399C17.5232 21.9399 17.5117 21.9399 17.4998 21.9404L17.5002 21.9409Z" fill="#FFF6CC"/>
<path d="M17.4653 21.9414C17.4768 21.9414 17.4883 21.9414 17.4998 21.9414C17.4878 21.9414 17.4763 21.9414 17.4644 21.9409C17.4644 21.9409 17.4644 21.9414 17.4648 21.9419L17.4653 21.9414Z" fill="#FFF6CC"/>
<path d="M17.5003 21.9409C17.4888 21.9409 17.4773 21.9409 17.4658 21.9409C17.4759 21.9548 17.4878 21.9711 17.5003 21.9888C17.5132 21.9715 17.5251 21.9553 17.5347 21.9409C17.5232 21.9409 17.5117 21.9409 17.5003 21.9409Z" fill="#FFF6CC"/>
<path d="M17.5003 21.9409C17.4888 21.9409 17.4773 21.9409 17.4658 21.9409C17.4759 21.9548 17.4878 21.9711 17.5003 21.9888C17.5132 21.9715 17.5251 21.9553 17.5347 21.9409C17.5232 21.9409 17.5117 21.9409 17.5003 21.9409Z" fill="#FFF6CC"/>
<path d="M10.6517 20.0167C7.24247 17.7193 5.20201 13.5647 4.38583 8.63033C4.16002 7.26445 4.06864 5.45315 4.24709 4.30064L4.238 4.29681C4.238 4.29681 3.31896 5.512 2.80944 7.26779C2.29945 9.02407 2.58698 10.4531 2.58698 10.4531L0.804866 10.057C0.804866 10.057 0.590056 10.5593 0.792905 11.9553C3.05487 15.6459 6.52436 18.5164 10.6517 20.0167Z" fill="#FFF6CC"/>
<path d="M10.6517 20.0167C7.24247 17.7193 5.20201 13.5647 4.38583 8.63033C4.16002 7.26445 4.06864 5.45315 4.24709 4.30064L4.238 4.29681C4.238 4.29681 3.31896 5.512 2.80944 7.26779C2.29945 9.02407 2.58698 10.4531 2.58698 10.4531L0.804866 10.057C0.804866 10.057 0.590056 10.5593 0.792905 11.9553C3.05487 15.6459 6.52436 18.5164 10.6517 20.0167Z" fill="#FFF6CC"/>
<path d="M32.4135 10.4531C32.4135 10.4531 32.7006 9.02407 32.1911 7.26779C31.6816 5.51152 30.7625 4.29681 30.7625 4.29681L30.7534 4.30064C30.9324 5.45315 30.8405 7.26445 30.6147 8.63033C29.8521 13.2418 28.0202 17.173 25.0009 19.5431C28.9905 17.7854 32.2705 14.7144 34.2947 10.8779C34.2947 10.2904 34.1956 10.0575 34.1956 10.0575L32.4135 10.4536V10.4531Z" fill="#FFF6CC"/>
<path d="M32.4135 10.4531C32.4135 10.4531 32.7006 9.02407 32.1911 7.26779C31.6816 5.51152 30.7625 4.29681 30.7625 4.29681L30.7534 4.30064C30.9324 5.45315 30.8405 7.26445 30.6147 8.63033C29.8521 13.2418 28.0202 17.173 25.0009 19.5431C28.9905 17.7854 32.2705 14.7144 34.2947 10.8779C34.2947 10.2904 34.1956 10.0575 34.1956 10.0575L32.4135 10.4536V10.4531Z" fill="#FFF6CC"/>
</g>
<g style="mix-blend-mode:overlay" opacity="0.35">
<path d="M24.4947 12.0104C24.2861 11.3904 24.0862 10.9296 23.8072 10.5598C23.5733 10.2503 23.3355 9.99337 23.0585 9.78191C23.2666 9.59389 23.4628 9.38386 23.6317 9.15374C24.1574 8.43659 24.4278 7.5209 24.4278 6.43154C24.4278 4.82597 24.0024 3.59404 23.1236 2.74341C22.2849 1.93249 21.0209 1.5 19.256 1.5H10.4804V6.46551H18.1165C18.3461 6.46551 18.4437 6.48656 18.4719 6.49804C18.4844 6.52866 18.5198 6.62147 18.5198 6.88795V7.34389C18.5198 7.95387 18.4269 8.12132 18.1165 8.12132H12.8448V12.8505H18.5724C18.8456 12.8505 18.9355 12.8754 18.9609 12.8868C18.9704 12.9089 18.9929 12.9816 18.9929 13.1959V14.059C18.9929 14.224 18.9833 14.2149 18.9752 14.2441C18.8724 14.3398 18.8503 14.2695 18.8006 14.2695H10.4809V18.8054L11.1937 18.8939C12.1826 19.0235 13.1122 19.1704 14.0705 19.1742C14.8866 19.3077 15.8186 19.4713 16.852 19.4713H19.712C21.3472 19.4713 22.5787 18.9881 23.4795 18.0944C24.3048 17.2759 24.6679 15.9282 24.6679 14.1465V13.9202C24.6679 13.2815 24.6952 12.6089 24.4952 12.0113L24.4947 12.0104Z" fill="#FFF6CC"/>
</g>
<path d="M24.1531 12.2859C23.9823 11.7779 23.7479 11.3377 23.4752 10.9775C23.1982 10.611 22.8638 10.3139 22.4906 10.0957C22.3945 10.0398 22.2954 9.98713 22.1988 9.93833C22.6045 9.69194 22.9523 9.36997 23.2413 8.97671C23.702 8.34854 23.935 7.5314 23.935 6.54873C23.935 5.0752 23.546 3.8892 22.7801 3.14765C22.017 2.40993 20.831 1.97266 19.256 1.97266H11.1899V5.99233H18.1164C18.8398 5.99233 18.9924 6.28082 18.9924 7.00419V7.46012C18.9924 8.18349 18.8398 8.59302 18.1164 8.59302H13.3179V12.3764H18.5724C19.2957 12.3764 19.7019 12.6404 19.7019 13.3117V14.1747C19.7019 14.4077 19.5813 14.5001 19.4474 14.6273C19.3082 14.7589 19.0594 14.7407 18.8001 14.7407H10.9531V18.4752L11.2459 18.5154C12.1716 18.6369 13.1303 18.7446 14.1054 18.746C14.9349 18.8824 15.8554 18.9967 16.8515 18.9967H19.7115C21.2888 18.9967 22.4959 18.5671 23.259 17.8098C24.023 17.0519 24.4306 15.8277 24.4306 14.2618V14.0355C24.4306 13.3829 24.3234 12.7945 24.1526 12.2855L24.1531 12.2859Z" fill="#723600"/>
<path d="M24.0412 14.2542C24.0412 15.731 23.6915 16.8161 22.993 17.5093C22.294 18.203 21.2003 18.5494 19.7115 18.5494H16.8515C15.8564 18.5494 14.9488 18.4805 14.1284 18.3437C13.1562 18.3437 12.2065 18.2834 11.2798 18.1614V15.245H18.7996C19.1489 15.245 19.4264 15.1483 19.6311 14.9536C19.8364 14.7594 19.9387 14.4972 19.9387 14.1661V13.3031C19.9387 12.4405 19.4828 12.0085 18.5719 12.0085H13.7863V8.81838H18.116C19.0274 8.81838 19.4833 8.36244 19.4833 7.45105V6.99512C19.4833 6.08325 19.0278 5.6278 18.116 5.6278H11.5076V2.43866H19.2556C20.7439 2.43866 21.8381 2.7769 22.537 3.45243C23.2355 4.12844 23.5853 5.15799 23.5853 6.54014C23.5853 7.45201 23.3762 8.19212 22.9585 8.76192C22.5404 9.33172 21.9902 9.73024 21.3065 9.95845C21.6405 10.0489 21.9749 10.1924 22.3093 10.3881C22.6433 10.5837 22.936 10.8478 23.1867 11.1794C23.4374 11.5114 23.6422 11.9142 23.802 12.3888C23.9613 12.8639 24.0412 13.4102 24.0412 14.0279V14.2542Z" fill="url(#paint17_linear_2005_3723)"/>
<path d="M23.1868 11.2268C22.9361 10.8952 22.6433 10.5843 22.3093 10.3881C22.2845 10.3733 21.3319 9.97237 21.3066 9.9585C21.1487 10.0393 21.01 10.3867 21.7348 10.6034C22.0687 10.6938 22.4031 10.8374 22.7371 11.0335C22.9954 11.1852 23.2289 11.378 23.4375 11.611C23.3595 11.4736 23.2758 11.3454 23.1863 11.2268H23.1868Z" fill="white"/>
<path d="M19.8996 12.8654C19.9397 13.0089 19.9388 13.1701 19.9388 13.3514V14.2145C19.9388 14.5451 19.8369 14.7685 19.6316 14.9623C19.4264 15.1565 19.1494 15.2144 18.8006 15.2144H11.4268V18.2093C11.4268 18.228 11.5057 18.2447 11.6631 18.2605V15.9239H19.2283C19.5776 15.9239 19.8771 15.8105 20.0818 15.6163C20.2871 15.4225 20.4115 15.1436 20.4115 14.8125V13.9495C20.4115 13.4337 20.2249 13.0735 19.8996 12.8658V12.8654Z" fill="white"/>
<path d="M11.8994 2.91854H19.6843C21.1726 2.91854 22.2668 3.33907 22.9657 4.01555C23.0035 4.05144 23.0394 4.13085 23.0748 4.16913C22.9275 3.90026 22.749 3.66344 22.5375 3.45915C21.8386 2.78363 20.7444 2.44586 19.2561 2.44586H11.4263V5.75604H11.8989V2.91854H11.8994Z" fill="white"/>
<path d="M18.1169 8.82991H13.7911V12.1401H14.2638V9.53892H18.5446C19.456 9.53892 19.9388 9.00788 19.9388 8.09697V7.64104C19.9388 7.08942 19.7483 6.70621 19.4154 6.48853C19.4632 6.64975 19.4661 6.83394 19.4661 7.04349V7.49895C19.4661 8.41033 19.0288 8.82943 18.1169 8.82943V8.82991Z" fill="white"/>
<g style="mix-blend-mode:overlay" opacity="0.35">
<path d="M21.3071 9.95846C21.9907 9.73074 22.5409 9.33221 22.959 8.76194C23.3767 8.19214 23.5858 7.45155 23.5858 6.54016C23.5858 5.15801 23.236 4.1318 22.5375 3.45579C21.8386 2.78027 20.7444 2.44537 19.2561 2.44537H11.4263V5.75555H18.1165C19.0279 5.75555 19.4656 6.08423 19.4656 6.99562V7.45155C19.4656 8.36294 19.0283 8.82939 18.1165 8.82939H13.7906V11.9032H18.5724C19.1987 11.9032 19.6101 12.1601 19.8058 12.5678C20.8487 12.0563 21.7749 11.3712 22.5352 10.5091C22.462 10.456 22.3868 10.4197 22.3093 10.3747C21.9749 10.179 21.6405 10.0484 21.3066 9.95798L21.3071 9.95846Z" fill="#FFF6CC"/>
</g>
<defs>
<linearGradient id="paint0_linear_2005_3723" x1="10.9244" y1="26.3457" x2="24.0158" y2="26.3457" gradientUnits="userSpaceOnUse">
<stop offset="0.06" stop-color="#E38250"/>
<stop offset="0.45" stop-color="#BD6E50"/>
<stop offset="1" stop-color="#572600"/>
</linearGradient>
<radialGradient id="paint1_radial_2005_3723" cx="0" cy="0" r="1" gradientUnits="userSpaceOnUse" gradientTransform="translate(19.4933 23.1054) scale(7.18633)">
<stop offset="0.25" stop-color="#F7E436"/>
<stop offset="1" stop-color="#D58D21"/>
</radialGradient>
<linearGradient id="paint2_linear_2005_3723" x1="16.9438" y1="27.3915" x2="17.8112" y2="33.3258" gradientUnits="userSpaceOnUse">
<stop offset="0.06" stop-color="#E38250"/>
<stop offset="0.45" stop-color="#BD6E50"/>
<stop offset="1" stop-color="#572600"/>
</linearGradient>
<radialGradient id="paint3_radial_2005_3723" cx="0" cy="0" r="1" gradientUnits="userSpaceOnUse" gradientTransform="translate(17.4701 30.663) scale(5.35829 5.35829)">
<stop offset="0.25" stop-color="#F7E436"/>
<stop offset="1" stop-color="#D58D21"/>
</radialGradient>
<linearGradient id="paint4_linear_2005_3723" x1="17.1773" y1="25.6745" x2="17.5935" y2="35.4955" gradientUnits="userSpaceOnUse">
<stop offset="0.06" stop-color="#E38250"/>
<stop offset="0.45" stop-color="#BD6E50"/>
<stop offset="1" stop-color="#572600"/>
</linearGradient>
<radialGradient id="paint5_radial_2005_3723" cx="0" cy="0" r="1" gradientUnits="userSpaceOnUse" gradientTransform="translate(17.4701 32.1968) scale(6.44765 6.44765)">
<stop offset="0.25" stop-color="#F7E436"/>
<stop offset="1" stop-color="#D58D21"/>
</radialGradient>
<linearGradient id="paint6_linear_2005_3723" x1="8.09547" y1="27.7039" x2="27.0777" y2="28.0513" gradientUnits="userSpaceOnUse">
<stop offset="0.25" stop-color="#F7E436"/>
<stop offset="1" stop-color="#D58D21"/>
</linearGradient>
<linearGradient id="paint7_linear_2005_3723" x1="9.30542" y1="4.03227" x2="8.89637" y2="31.2318" gradientUnits="userSpaceOnUse">
<stop offset="0.06" stop-color="#E38250"/>
<stop offset="0.45" stop-color="#BD6E50"/>
<stop offset="1" stop-color="#572600"/>
</linearGradient>
<linearGradient id="paint8_linear_2005_3723" x1="26.062" y1="4.28439" x2="25.653" y2="31.4835" gradientUnits="userSpaceOnUse">
<stop offset="0.06" stop-color="#E38250"/>
<stop offset="0.45" stop-color="#BD6E50"/>
<stop offset="1" stop-color="#572600"/>
</linearGradient>
<linearGradient id="paint9_linear_2005_3723" x1="2.22387" y1="9.36569" x2="2.22387" y2="16.1946" gradientUnits="userSpaceOnUse">
<stop offset="0.25" stop-color="#F7E436"/>
<stop offset="1" stop-color="#D58D21"/>
</linearGradient>
<linearGradient id="paint10_linear_2005_3723" x1="4.93697" y1="9.36568" x2="4.93697" y2="16.1946" gradientUnits="userSpaceOnUse">
<stop offset="0.25" stop-color="#F7E436"/>
<stop offset="1" stop-color="#D58D21"/>
</linearGradient>
<linearGradient id="paint11_linear_2005_3723" x1="4.75233" y1="9.3657" x2="4.75233" y2="16.1946" gradientUnits="userSpaceOnUse">
<stop offset="0.25" stop-color="#F7E436"/>
<stop offset="1" stop-color="#D58D21"/>
</linearGradient>
<linearGradient id="paint12_linear_2005_3723" x1="31.9897" y1="9.36571" x2="31.9897" y2="16.1947" gradientUnits="userSpaceOnUse">
<stop offset="0.25" stop-color="#F7E436"/>
<stop offset="1" stop-color="#D58D21"/>
</linearGradient>
<linearGradient id="paint13_linear_2005_3723" x1="17.5003" y1="9.3657" x2="17.5003" y2="16.1946" gradientUnits="userSpaceOnUse">
<stop offset="0.25" stop-color="#F7E436"/>
<stop offset="1" stop-color="#D58D21"/>
</linearGradient>
<linearGradient id="paint14_linear_2005_3723" x1="29.9607" y1="9.36567" x2="29.9607" y2="16.1946" gradientUnits="userSpaceOnUse">
<stop offset="0.25" stop-color="#F7E436"/>
<stop offset="1" stop-color="#D58D21"/>
</linearGradient>
<linearGradient id="paint15_linear_2005_3723" x1="33.0604" y1="9.3657" x2="33.0604" y2="16.1947" gradientUnits="userSpaceOnUse">
<stop offset="0.25" stop-color="#F7E436"/>
<stop offset="1" stop-color="#D58D21"/>
</linearGradient>
<linearGradient id="paint16_linear_2005_3723" x1="17.416" y1="20.9721" x2="17.5605" y2="28.3202" gradientUnits="userSpaceOnUse">
<stop offset="0.06" stop-color="#E38250"/>
<stop offset="0.45" stop-color="#BD6E50"/>
<stop offset="1" stop-color="#572600"/>
</linearGradient>
<linearGradient id="paint17_linear_2005_3723" x1="17.5089" y1="1.93728" x2="17.6926" y2="18.9963" gradientUnits="userSpaceOnUse">
<stop offset="0.06" stop-color="#E38250"/>
<stop offset="0.45" stop-color="#BD6E50"/>
<stop offset="1" stop-color="#572600"/>
</linearGradient>
</defs>
</svg>
