<svg width="512" height="512" viewBox="0 0 512 512" fill="none" xmlns="http://www.w3.org/2000/svg">
<path d="M459.4 151.75C459.7 156.25 459.7 160.85 459.7 165.35C459.7 304.05 354.1 463.95 161.1 463.95C101.6 463.95 46.4 446.75 0 416.85C8.4 417.85 16.6 418.15 25.3 418.15C74.4 418.15 119.5 401.55 155.6 373.35C109.5 372.35 70.8 342.15 57.5 300.55C64 301.55 70.5 302.15 77.3 302.15C86.7 302.15 96.1 300.85 104.9 298.55C56.8 288.85 20.8 246.55 20.8 195.55V194.25C34.8 202.05 51 206.95 68.2 207.55C39.9 188.75 21.4 156.55 21.4 120.15C21.4 100.65 26.6 82.75 35.7 67.15C87.4 130.85 165 172.45 252.1 176.95C250.5 169.15 249.5 161.05 249.5 152.95C249.5 95.15 296.3 48.05 354.4 48.05C384.6 48.05 411.9 60.75 431.1 81.15C454.8 76.65 477.6 67.85 497.7 55.85C489.9 80.25 473.3 100.65 451.6 113.65C472.7 111.35 493.2 105.55 512 97.4501C497.7 118.25 479.8 136.75 459.4 151.75Z" fill="white"/>
</svg>
