<svg width="186" height="56" viewBox="0 0 186 56" fill="none" xmlns="http://www.w3.org/2000/svg">
<path d="M25.2038 1.39071C41.4789 1.39071 48.3573 8.64495 48.3573 8.64495C48.3573 8.64495 55.1605 38.7519 25.2038 53.8618C-4.75283 38.7519 2.05037 8.64495 2.05037 8.64495C2.05037 8.64495 8.92875 1.39071 25.2038 1.39071ZM25.2038 0C8.55288 0 1.33622 7.367 1.03553 7.6677C0.885183 7.85563 0.772423 8.08115 0.697249 8.34426C0.622076 8.68254 -1.03174 16.2751 1.03553 25.8973C2.27589 31.5353 4.5311 36.7223 7.80115 41.2703C11.8981 46.9083 17.5361 51.6066 24.5648 55.1398C24.7528 55.2525 24.9783 55.2901 25.2038 55.2901C25.4293 55.2901 25.6173 55.2525 25.8428 55.1398C54.6342 40.5937 50.5373 12.5916 49.748 8.60737C49.748 8.11874 49.6728 7.78046 47.8686 6.42733C46.5907 5.48767 45.1248 4.58558 43.5086 3.79626C39.9378 2.06727 33.8864 0 25.2038 0Z" fill="#F58332"/>
<path d="M27.3463 18.7558C26.1059 18.6431 24.8279 18.4175 23.5876 18.0417C18.5134 16.5006 14.4916 13.0426 12.1988 8.68257C12.1988 8.64499 12.1236 8.53223 12.1236 8.53223L12.0109 8.79533C12.0109 8.79533 4.60628 21.9131 13.1761 35.0685C12.9505 33.1515 13.1009 31.1219 13.7023 29.1298C15.544 22.8904 21.2196 18.8686 27.3463 18.7558Z" fill="#F58332"/>
<path d="M45.3127 11.6141C45.3127 11.4262 45.3127 11.2758 45.3127 11.0879C42.0427 16.1245 36.9309 19.808 30.9546 21.2363C24.7152 22.7774 19.9416 27.9643 18.8892 34.3917C18.7389 35.2186 18.6637 36.0831 18.6637 36.9476C18.6637 42.3977 21.3699 47.2088 25.5045 50.1405C25.4293 49.5016 25.4293 48.8626 25.4293 48.2236C25.4293 41.007 29.1504 34.6548 34.7884 30.9713C34.7884 30.9713 38.4343 28.1523 39.9002 26.3857C39.9378 26.3481 39.9754 26.3105 39.9754 26.2729C40.2009 25.9722 40.464 25.6716 40.6895 25.3709C40.7647 25.2957 40.8023 25.2205 40.8775 25.1453C41.0654 24.8822 41.2533 24.5815 41.4413 24.3184C41.5164 24.2057 41.5916 24.0929 41.6668 23.9802C41.8171 23.717 41.9675 23.4539 42.1178 23.2284C42.193 23.0781 42.3058 22.9277 42.3809 22.7398C42.3809 22.7022 42.4185 22.6646 42.4185 22.6646C44.2979 19.357 45.3127 15.5983 45.3127 11.6141Z" fill="#F2672E"/>
<path d="M29.376 18.3797C27.7222 18.718 26.0308 18.9059 24.2642 18.9059C17.0851 18.9059 10.5826 15.9742 5.92184 11.2758C5.88426 11.2382 5.7715 11.0879 5.7715 11.0879L5.69632 11.4638C5.69632 11.4638 1.2235 31.272 17.3858 44.8408C16.3334 42.4352 15.732 39.8042 15.732 37.0227C15.7696 28.265 21.4828 20.898 29.376 18.3797Z" fill="#F2672E"/>
<path d="M66.3989 15.7867V26.1607H76.8481V30.7087H66.3989V45.7809H61.3999V11.0508H77.7501V15.7491H66.3989V15.7867Z" fill="#F58332"/>
<path d="M81.2834 36.459V28.9041C81.2834 22.5144 84.8166 18.9812 90.4546 18.9812C96.1678 18.9812 99.6634 22.5144 99.6634 28.9041V36.459C99.6634 42.8488 96.1302 46.382 90.4546 46.382C84.8166 46.382 81.2834 42.8488 81.2834 36.459ZM94.8147 36.459V28.9041C94.8147 25.2206 93.1609 23.642 90.4546 23.642C87.786 23.642 86.1321 25.2206 86.1321 28.9041V36.459C86.1321 40.1426 87.786 41.7212 90.4546 41.7212C93.1984 41.7212 94.8147 40.105 94.8147 36.459Z" fill="#F58332"/>
<path d="M116.728 45.781L112.067 36.4971L107.368 45.781H101.918L109.173 32.7008L102.482 19.6582H107.782L112.104 28.5287L116.352 19.6582H121.651L115.036 32.6632L122.178 45.7434H116.728V45.781Z" fill="#F58332"/>
<path d="M142.399 29.0926V36.5723C142.399 43.0373 139.317 46.3449 134.318 46.3449C131.988 46.3449 129.695 45.4052 128.267 43.4131V54.6516H125.373V19.6959H127.741L128.154 22.139C129.545 20.2221 131.762 19.1321 134.318 19.1321C139.054 19.1321 142.399 22.5149 142.399 29.0926ZM139.43 29.0926C139.43 23.9808 137.288 21.8383 133.679 21.8383C130.71 21.8383 128.267 24.1311 128.267 28.9798V36.5723C128.267 40.7445 130.409 43.6011 133.679 43.6011C137.513 43.6011 139.43 41.5338 139.43 36.5723V29.0926Z" fill="#515455"/>
<path d="M163.937 27.777V45.7811H161.418L161.155 43.3379C159.952 45.0669 157.998 46.3449 155.141 46.3449C150.368 46.3449 146.91 43.4131 146.91 38.3765C146.91 33.3774 150.142 30.596 155.818 30.596H160.967V27.8146C160.967 23.9808 159.163 21.9511 155.818 21.9511C152.849 21.9511 150.819 23.6425 150.593 26.4991H147.662C147.849 22.0262 151.082 19.0945 155.893 19.0945C160.892 19.1321 163.937 22.4773 163.937 27.777ZM161.005 38.4141V33.3023H155.743C151.909 33.3023 149.879 35.0688 149.879 38.4141C149.879 41.8345 152.21 43.4883 155.592 43.4883C158.938 43.4883 161.005 41.421 161.005 38.4141Z" fill="#515455"/>
<path d="M186 19.7332L177.205 48.9381C176.077 52.8095 174.574 55.2527 171.003 55.2527H169.312V52.3585H170.589C172.882 52.3585 173.596 50.6295 174.273 48.487L175.927 43.1497L167.583 19.7332H170.702L177.205 38.7145L182.918 19.7332H186Z" fill="#515455"/>
</svg>
