<svg width="14" height="15" viewBox="0 0 14 15" fill="none" xmlns="http://www.w3.org/2000/svg">
<g clip-path="url(#clip0_1_4050)">
<path d="M6.51015 13.9202C5.99175 14.254 5.37472 14.4003 4.76163 14.3348C4.14855 14.2693 3.57634 13.996 3.14015 13.5602L2.76015 13.1802C2.59161 13.0098 2.49707 12.7799 2.49707 12.5402C2.49707 12.3006 2.59161 12.0706 2.76015 11.9002L4.36015 10.3102C4.52882 10.1423 4.75714 10.048 4.99515 10.048C5.23316 10.048 5.46148 10.1423 5.63015 10.3102C5.80052 10.4788 6.0305 10.5733 6.27015 10.5733C6.5098 10.5733 6.73978 10.4788 6.91015 10.3102L9.46015 7.76025C9.6287 7.58988 9.72324 7.3599 9.72324 7.12025C9.72324 6.8806 9.6287 6.65062 9.46015 6.48025C9.29222 6.31158 9.19794 6.08326 9.19794 5.84525C9.19794 5.60724 9.29222 5.37892 9.46015 5.21025L11.0001 3.61025C11.1705 3.4417 11.4005 3.34717 11.6401 3.34717C11.8798 3.34717 12.1098 3.4417 12.2801 3.61025L12.6601 3.99025C13.1037 4.42029 13.3864 4.98945 13.461 5.60275C13.5357 6.21605 13.3977 6.8364 13.0701 7.36025C11.3264 9.94903 9.09893 12.1765 6.51015 13.9202Z" stroke="white" stroke-linecap="round" stroke-linejoin="round"/>
<path d="M7 1.3501C6.14641 1.3501 5.30117 1.51822 4.51256 1.84488C3.72394 2.17154 3.00739 2.65033 2.40381 3.25391C1.80022 3.85749 1.32144 4.57404 0.994783 5.36266C0.668128 6.15127 0.5 6.99651 0.5 7.8501" stroke="white" stroke-linecap="round" stroke-linejoin="round"/>
<path d="M7 3.8501C5.93913 3.8501 4.92172 4.27153 4.17157 5.02167C3.42143 5.77182 3 6.78923 3 7.8501" stroke="white" stroke-linecap="round" stroke-linejoin="round"/>
</g>
<defs>
<clipPath id="clip0_1_4050">
<rect width="14" height="14" fill="white" transform="translate(0 0.850098)"/>
</clipPath>
</defs>
</svg>
