<svg width="120" height="120" viewBox="0 0 120 120" fill="none" xmlns="http://www.w3.org/2000/svg">
<g clip-path="url(#clip0_1856_18609)">
<path d="M60 120C93.1371 120 120 93.1371 120 60C120 26.8629 93.1371 0 60 0C26.8629 0 0 26.8629 0 60C0 93.1371 26.8629 120 60 120Z" fill="#FFE255"/>
<path d="M60.0002 118.506C92.3122 118.506 118.506 92.312 118.506 60C118.506 27.688 92.3122 1.4939 60.0002 1.4939C27.6882 1.4939 1.49414 27.688 1.49414 60C1.49414 92.312 27.6882 118.506 60.0002 118.506Z" fill="#FFCC3E"/>
<path d="M60.0006 107.538C86.255 107.538 107.538 86.2546 107.538 60.0002C107.538 33.7459 86.255 12.4625 60.0006 12.4625C33.7463 12.4625 12.4629 33.7459 12.4629 60.0002C12.4629 86.2546 33.7463 107.538 60.0006 107.538Z" fill="#FFE357"/>
<path d="M60.0004 105.988C85.3982 105.988 105.987 85.3986 105.987 60.0008C105.987 34.603 85.3982 14.014 60.0004 14.014C34.6026 14.014 14.0137 34.603 14.0137 60.0008C14.0137 85.3986 34.6026 105.988 60.0004 105.988Z" fill="#E59638"/>
<path d="M105.987 60.0008C105.987 60.5964 105.976 61.1889 105.954 61.7783C105.019 37.205 84.8025 17.5705 60.0004 17.5705C35.1984 17.5705 14.9821 37.205 14.0468 61.7783C14.0245 61.1889 14.0137 60.5964 14.0137 60.0008C14.0137 34.6032 34.6028 14.014 60.0004 14.014C85.3981 14.014 105.987 34.6032 105.987 60.0008Z" fill="#CC8232"/>
<path d="M120 59.9994C120 92.7403 93.7757 119.356 61.1857 119.987C60.792 119.996 60.396 119.999 60 119.999C58.0615 119.999 56.1454 119.908 54.2539 119.727C51.5873 119.474 48.9716 119.046 46.4182 118.455C39.3816 116.827 32.8195 113.961 26.9732 110.099C25.5147 109.136 24.1009 108.111 22.7349 107.027C17.9988 103.27 13.8437 98.8124 10.4259 93.8097C9.18087 91.9884 8.03364 90.0946 6.99274 88.1353C6.02196 86.31 5.14286 84.4286 4.36083 82.497C3.51409 80.4067 2.78215 78.2571 2.17271 76.0567C1.09483 72.1689 0.399101 68.1217 0.128668 63.9596C0.0431461 62.6498 0 61.3292 0 59.9979C0 59.3669 0.0100161 58.7389 0.0292777 58.1125C0.0870626 59.9763 0.228828 61.8177 0.453034 63.6345C0.94305 67.6147 1.82292 71.4755 3.05335 75.1753C3.75602 77.291 4.57425 79.3535 5.50035 81.3567C6.35865 83.2166 7.31095 85.0257 8.34953 86.7777C9.46825 88.6654 10.6887 90.4875 12.0008 92.2341C15.6327 97.0681 19.9774 101.336 24.8799 104.88C26.3037 105.91 27.7753 106.878 29.2885 107.782C35.4191 111.443 42.2577 114.041 49.5502 115.321C52.2406 115.793 54.992 116.086 57.7926 116.187C58.5253 116.214 59.2611 116.228 60 116.228C61.7389 116.228 63.4609 116.154 65.1637 116.008C95.2658 113.444 119.028 88.6515 119.971 58.1133C119.99 58.7389 120 59.3676 120 59.9986V59.9994Z" fill="#E59638"/>
<path d="M32.7282 97.0333L22.7338 107.028C17.9977 103.271 13.8426 98.8131 10.4248 93.8112L11.9989 92.2371L20.5641 83.6719C23.7015 88.8887 27.8466 93.4321 32.7282 97.0325V97.0333Z" fill="#FFE357"/>
<path d="M107.027 22.7355L97.0325 32.7299C93.4321 27.8483 88.8887 23.7032 83.6719 20.5658L93.8112 10.4265C98.8131 13.8443 103.271 17.9994 107.028 22.7355H107.027Z" fill="#FFE357"/>
<path d="M17.5101 77.6202L6.99324 88.137C6.02245 86.3118 5.14335 84.4303 4.36133 82.4988L15.4414 71.4187C15.9861 73.549 16.6788 75.6208 17.5101 77.6202Z" fill="#FFE357"/>
<path d="M88.1373 6.99287L77.6204 17.5097C75.6211 16.6792 73.5493 15.9857 71.4189 15.441L82.499 4.36096C84.4306 5.14298 86.312 6.02209 88.1373 6.99287Z" fill="#FFE357"/>
<path d="M79.525 101.648L65.1627 116.011L61.1848 119.989C60.7911 119.997 60.3951 120.001 59.9991 120.001C58.0606 120.001 56.1444 119.909 54.2529 119.729L68.844 105.138C72.5862 104.409 76.1665 103.226 79.5242 101.649L79.525 101.648Z" fill="#FFE357"/>
<path d="M120.001 59.9985C120.001 60.3946 119.997 60.7906 119.989 61.1843L101.648 79.5244C103.226 76.166 104.408 72.5864 105.137 68.8442L119.728 54.2532C119.908 56.1447 120 58.0608 120 59.9993L120.001 59.9985Z" fill="#FFE357"/>
<path d="M14.0117 60C14.0117 61.3622 14.071 62.7105 14.1874 64.0426L3.05262 75.1774L2.17197 76.058C1.09409 72.1703 0.398363 68.123 0.12793 63.9609L15.4186 48.6703C14.5002 52.2946 14.0125 56.0899 14.0125 59.9992L14.0117 60Z" fill="#FFE357"/>
<path d="M76.0588 2.17222L64.0434 14.1876C62.7121 14.0713 61.363 14.012 60.0008 14.012C56.0915 14.012 52.2961 14.4997 48.6719 15.4181L63.9625 0.128174C68.1246 0.399378 72.1711 1.09511 76.0596 2.17222H76.0588Z" fill="#FFE357"/>
<path d="M58.899 105.975L46.4167 118.457C39.38 116.829 32.818 113.963 26.9717 110.1L29.2869 107.785L37.1518 99.9203C43.5852 103.61 50.9948 105.79 58.8982 105.975L58.899 105.975Z" fill="#FFE357"/>
<path d="M118.457 46.4192L105.975 58.9015C105.789 50.9981 103.61 43.5885 99.9199 37.1551L110.1 26.975C113.962 32.8213 116.829 39.3833 118.457 46.42L118.457 46.4192Z" fill="#FFE357"/>
<path d="M24.8807 104.882L22.7357 107.027C17.9997 103.27 13.8445 98.8119 10.4268 93.81L12.0008 92.236C15.6328 97.0699 19.9774 101.337 24.8799 104.882H24.8807Z" fill="#FCBB47"/>
<path d="M8.35003 86.7804L6.99324 88.1372C6.02245 86.3119 5.14335 84.4305 4.36133 82.4989L5.50085 81.3594C6.35915 83.2193 7.31144 85.0283 8.35003 86.7804Z" fill="#FCBB47"/>
<path d="M65.1627 116.009L61.1848 119.987C60.7911 119.996 60.3951 120 59.9991 120C58.0606 120 56.1444 119.908 54.2529 119.728L57.7917 116.189C58.5244 116.216 59.2602 116.23 59.9991 116.23C61.738 116.23 63.46 116.156 65.1627 116.01V116.009Z" fill="#FCBB47"/>
<path d="M3.05262 75.1768L2.17197 76.0574C1.09409 72.1697 0.398363 68.1224 0.12793 63.9603L0.452296 63.636C0.942312 67.6162 1.82218 71.477 3.05262 75.1768Z" fill="#FCBB47"/>
<path d="M49.5494 115.323L46.4167 118.456C39.38 116.828 32.818 113.962 26.9717 110.1L29.2869 107.784C35.4175 111.445 42.2562 114.043 49.5486 115.323H49.5494Z" fill="#FCBB47"/>
<g filter="url(#filter0_d_1856_18609)">
<path d="M44.1934 67V41.84H38.4334V37.2H49.6334V67H44.1934ZM67.5663 67.48C65.1929 67.48 63.1129 66.84 61.3263 65.56C59.5396 64.28 58.1396 62.48 57.1263 60.16C56.1396 57.84 55.6463 55.1467 55.6463 52.08C55.6463 48.9867 56.1396 46.2933 57.1263 44C58.1129 41.7067 59.4996 39.92 61.2863 38.64C63.0729 37.36 65.1529 36.72 67.5263 36.72C69.9529 36.72 72.0463 37.36 73.8063 38.64C75.5929 39.92 76.9929 41.72 78.0063 44.04C79.0196 46.3333 79.5263 49.0133 79.5263 52.08C79.5263 55.1467 79.0196 57.84 78.0063 60.16C77.0196 62.4533 75.6329 64.2533 73.8463 65.56C72.0596 66.84 69.9663 67.48 67.5663 67.48ZM67.6063 62.52C68.9663 62.52 70.1263 62.1067 71.0863 61.28C72.0463 60.4267 72.7796 59.2267 73.2863 57.68C73.8196 56.1067 74.0863 54.24 74.0863 52.08C74.0863 49.92 73.8196 48.0667 73.2863 46.52C72.7796 44.9467 72.0329 43.7467 71.0463 42.92C70.0863 42.0933 68.9129 41.68 67.5263 41.68C66.1929 41.68 65.0463 42.0933 64.0863 42.92C63.1263 43.7467 62.3796 44.9467 61.8463 46.52C61.3396 48.0667 61.0863 49.92 61.0863 52.08C61.0863 54.2133 61.3396 56.0667 61.8463 57.64C62.3796 59.1867 63.1263 60.3867 64.0863 61.24C65.0729 62.0933 66.2463 62.52 67.6063 62.52Z" fill="#FFE357"/>
</g>
<g filter="url(#filter1_d_1856_18609)">
<path d="M47.2297 88.192C46.3764 88.192 45.587 88.0373 44.8617 87.728C44.1364 87.4187 43.5017 86.9867 42.9577 86.432C42.4137 85.8773 41.987 85.2267 41.6777 84.48C41.379 83.7333 41.2297 82.9173 41.2297 82.032C41.2297 81.1467 41.3737 80.3307 41.6617 79.584C41.9604 78.8267 42.3764 78.176 42.9097 77.632C43.4537 77.0773 44.0884 76.6507 44.8137 76.352C45.539 76.0427 46.3284 75.888 47.1817 75.888C48.035 75.888 48.7977 76.032 49.4697 76.32C50.1524 76.608 50.7284 76.992 51.1977 77.472C51.667 77.9413 52.003 78.4587 52.2057 79.024L50.2697 79.952C50.0457 79.3333 49.667 78.832 49.1337 78.448C48.6004 78.064 47.9497 77.872 47.1817 77.872C46.435 77.872 45.7737 78.048 45.1977 78.4C44.6324 78.752 44.1897 79.2373 43.8697 79.856C43.5604 80.4747 43.4057 81.2 43.4057 82.032C43.4057 82.864 43.5657 83.5947 43.8857 84.224C44.2164 84.8427 44.6697 85.328 45.2457 85.68C45.8217 86.032 46.483 86.208 47.2297 86.208C47.8377 86.208 48.3977 86.0907 48.9097 85.856C49.4217 85.6107 49.8324 85.2693 50.1417 84.832C50.451 84.384 50.6057 83.856 50.6057 83.248V82.336L51.5977 83.2H47.1817V81.36H52.7817V82.56C52.7817 83.4773 52.627 84.288 52.3177 84.992C52.0084 85.696 51.587 86.288 51.0537 86.768C50.531 87.2373 49.939 87.5947 49.2777 87.84C48.6164 88.0747 47.9337 88.192 47.2297 88.192ZM58.5836 88.192C57.7302 88.192 56.9516 87.9947 56.2476 87.6C55.5542 87.2053 54.9996 86.6667 54.5836 85.984C54.1782 85.3013 53.9756 84.5227 53.9756 83.648C53.9756 82.7733 54.1782 81.9947 54.5836 81.312C54.9996 80.6293 55.5542 80.0907 56.2476 79.696C56.9409 79.3013 57.7196 79.104 58.5836 79.104C59.4369 79.104 60.2102 79.3013 60.9036 79.696C61.5969 80.0907 62.1462 80.6293 62.5516 81.312C62.9676 81.984 63.1756 82.7627 63.1756 83.648C63.1756 84.5227 62.9676 85.3013 62.5516 85.984C62.1356 86.6667 61.5809 87.2053 60.8876 87.6C60.1942 87.9947 59.4262 88.192 58.5836 88.192ZM58.5836 86.272C59.0529 86.272 59.4636 86.16 59.8156 85.936C60.1782 85.712 60.4609 85.4027 60.6636 85.008C60.8769 84.6027 60.9836 84.1493 60.9836 83.648C60.9836 83.136 60.8769 82.688 60.6636 82.304C60.4609 81.9093 60.1782 81.6 59.8156 81.376C59.4636 81.1413 59.0529 81.024 58.5836 81.024C58.1036 81.024 57.6822 81.1413 57.3196 81.376C56.9569 81.6 56.6689 81.9093 56.4556 82.304C56.2529 82.688 56.1516 83.136 56.1516 83.648C56.1516 84.1493 56.2529 84.6027 56.4556 85.008C56.6689 85.4027 56.9569 85.712 57.3196 85.936C57.6822 86.16 58.1036 86.272 58.5836 86.272ZM64.7651 88V75.888H66.8611V88H64.7651ZM72.8443 88.192C72.0016 88.192 71.2496 87.9947 70.5883 87.6C69.927 87.1947 69.4043 86.6453 69.0203 85.952C68.6363 85.2587 68.4443 84.4907 68.4443 83.648C68.4443 82.7947 68.6363 82.0267 69.0203 81.344C69.4043 80.6613 69.927 80.1173 70.5883 79.712C71.2603 79.3067 72.007 79.104 72.8283 79.104C73.4896 79.104 74.0763 79.2373 74.5883 79.504C75.111 79.76 75.5216 80.1227 75.8203 80.592L75.5003 81.024V75.888H77.5963V88H75.6123V86.32L75.8363 86.736C75.5376 87.2053 75.1216 87.568 74.5883 87.824C74.055 88.0693 73.4736 88.192 72.8443 88.192ZM73.0683 86.272C73.5483 86.272 73.9696 86.16 74.3323 85.936C74.695 85.712 74.9776 85.4027 75.1803 85.008C75.3936 84.6133 75.5003 84.16 75.5003 83.648C75.5003 83.1467 75.3936 82.6987 75.1803 82.304C74.9776 81.8987 74.695 81.584 74.3323 81.36C73.9696 81.136 73.5483 81.024 73.0683 81.024C72.599 81.024 72.1776 81.1413 71.8043 81.376C71.431 81.6 71.1376 81.9093 70.9243 82.304C70.7216 82.688 70.6203 83.136 70.6203 83.648C70.6203 84.16 70.7216 84.6133 70.9243 85.008C71.1376 85.4027 71.431 85.712 71.8043 85.936C72.1776 86.16 72.599 86.272 73.0683 86.272Z" fill="#FFE357"/>
</g>
</g>
<defs>
<filter id="filter0_d_1856_18609" x="38.4336" y="36.72" width="42.0928" height="32.76" filterUnits="userSpaceOnUse" color-interpolation-filters="sRGB">
<feFlood flood-opacity="0" result="BackgroundImageFix"/>
<feColorMatrix in="SourceAlpha" type="matrix" values="0 0 0 0 0 0 0 0 0 0 0 0 0 0 0 0 0 0 127 0" result="hardAlpha"/>
<feOffset dx="1" dy="2"/>
<feComposite in2="hardAlpha" operator="out"/>
<feColorMatrix type="matrix" values="0 0 0 0 0.716878 0 0 0 0 0.304283 0 0 0 0 0.00550727 0 0 0 1 0"/>
<feBlend mode="normal" in2="BackgroundImageFix" result="effect1_dropShadow_1856_18609"/>
<feBlend mode="normal" in="SourceGraphic" in2="effect1_dropShadow_1856_18609" result="shape"/>
</filter>
<filter id="filter1_d_1856_18609" x="41.2295" y="75.8879" width="37.3672" height="14.3041" filterUnits="userSpaceOnUse" color-interpolation-filters="sRGB">
<feFlood flood-opacity="0" result="BackgroundImageFix"/>
<feColorMatrix in="SourceAlpha" type="matrix" values="0 0 0 0 0 0 0 0 0 0 0 0 0 0 0 0 0 0 127 0" result="hardAlpha"/>
<feOffset dx="1" dy="2"/>
<feComposite in2="hardAlpha" operator="out"/>
<feColorMatrix type="matrix" values="0 0 0 0 0.716878 0 0 0 0 0.304283 0 0 0 0 0.00550727 0 0 0 1 0"/>
<feBlend mode="normal" in2="BackgroundImageFix" result="effect1_dropShadow_1856_18609"/>
<feBlend mode="normal" in="SourceGraphic" in2="effect1_dropShadow_1856_18609" result="shape"/>
</filter>
<clipPath id="clip0_1856_18609">
<rect width="120" height="120" fill="white"/>
</clipPath>
</defs>
</svg>
