<svg width="124" height="114" viewBox="0 0 124 114" fill="none" xmlns="http://www.w3.org/2000/svg">
<g filter="url(#filter0_d_94_2201)">
<path d="M109.983 77.2021V99.0254H80.3971L76.4459 56.6144C76.247 54.4045 74.3941 52.7118 72.1751 52.7136H48.9883C52.8109 50.7808 57.0351 49.7764 61.3188 49.7823H82.5522C97.6966 49.777 109.978 62.0492 109.983 77.1936C109.983 77.1965 109.983 77.1991 109.983 77.2021Z" fill="#318FB5"/>
<path d="M71.9355 49.7783C85.734 49.7783 96.9198 38.635 96.9198 24.8891C96.9198 11.1433 85.734 0 71.9355 0C58.137 0 46.9512 11.1433 46.9512 24.8891C46.9512 38.635 58.137 49.7783 71.9355 49.7783Z" fill="#FFF0E5"/>
<path d="M80.3964 99.0257H18.6605C15.9823 99.0231 13.7433 96.9877 13.4859 94.3221L10.056 57.405C9.83546 55.0451 11.5697 52.9529 13.9299 52.7324C14.062 52.7201 14.1944 52.7139 14.3268 52.7136H72.1745C74.3935 52.7119 76.2464 54.4045 76.4452 56.6145L80.3964 99.0257Z" fill="#80BFBE"/>
<path d="M80.3996 99.0296H90.0146C92.9659 99.0299 95.4845 96.8964 95.9695 93.9853L96.7724 89.1372H79.4775L80.3996 99.0296Z" fill="#B8D8D3"/>
<path d="M8.99543 99.0295H115.135C117.594 99.0295 119.586 101.022 119.586 103.481V103.548C119.586 106.007 117.594 108 115.135 108H8.99543C6.53683 108 4.54395 106.007 4.54395 103.548V103.481C4.54395 101.023 6.53683 99.0295 8.99543 99.0295Z" fill="#005086"/>
<path d="M45.2178 80.7383C47.907 80.7383 50.087 78.5583 50.087 75.8692C50.087 73.18 47.907 71 45.2178 71C42.5286 71 40.3486 73.18 40.3486 75.8692C40.3486 78.5583 42.5286 80.7383 45.2178 80.7383Z" fill="#F7D6BF"/>
</g>
<defs>
<filter id="filter0_d_94_2201" x="0.543945" y="0" width="123.042" height="116" filterUnits="userSpaceOnUse" color-interpolation-filters="sRGB">
<feFlood flood-opacity="0" result="BackgroundImageFix"/>
<feColorMatrix in="SourceAlpha" type="matrix" values="0 0 0 0 0 0 0 0 0 0 0 0 0 0 0 0 0 0 127 0" result="hardAlpha"/>
<feOffset dy="4"/>
<feGaussianBlur stdDeviation="2"/>
<feComposite in2="hardAlpha" operator="out"/>
<feColorMatrix type="matrix" values="0 0 0 0 0 0 0 0 0 0 0 0 0 0 0 0 0 0 0.25 0"/>
<feBlend mode="normal" in2="BackgroundImageFix" result="effect1_dropShadow_94_2201"/>
<feBlend mode="normal" in="SourceGraphic" in2="effect1_dropShadow_94_2201" result="shape"/>
</filter>
</defs>
</svg>
