<svg width="103" height="103" viewBox="0 0 103 103" fill="none" xmlns="http://www.w3.org/2000/svg">
<g filter="url(#filter0_d_94_2285)">
<path d="M90.9388 48.5746V88.0855C90.9388 91.8786 87.8174 94.9999 84.0244 94.9999H54.3912V51.538H48.4646V94.9999H18.8314C15.0384 94.9999 11.917 91.8786 11.917 88.0855V48.5746C11.917 46.9547 13.2604 45.6113 14.8803 45.6113H87.9754C89.5954 45.6113 90.9388 46.9547 90.9388 48.5746Z" fill="#D32F2F"/>
<path d="M98.8408 34.7459V44.6237C98.8408 48.4167 95.7194 51.5381 91.9264 51.5381H10.9291C7.13601 51.5381 4.01465 48.4167 4.01465 44.6237V34.7459C4.01465 30.9529 7.13601 27.8315 10.9291 27.8315H91.9264C95.7194 27.8315 98.8408 30.9529 98.8408 34.7459Z" fill="#F44336"/>
<path d="M51.4281 31.9564C50.5667 31.9564 49.7449 31.5811 49.1878 30.9291C48.6228 30.2772 48.3739 29.4119 48.4964 28.5585C49.9583 18.6807 57.6747 0 76.4345 0C87.142 0 90.939 5.78439 90.939 10.7391C90.939 19.546 78.6787 31.9564 51.4281 31.9564ZM76.4345 5.92663C62.2817 5.92663 56.9082 19.3801 55.1263 25.9428C66.2921 25.4213 73.3329 22.5963 77.3867 20.1901C83.0091 16.8514 85.0123 13.1176 85.0123 10.7351C85.0123 7.18703 80.5832 5.92663 76.4345 5.92663Z" fill="#FFC107"/>
<path d="M51.4318 31.9564C24.1772 31.9564 11.9209 19.546 11.9209 10.7391C11.9209 5.78439 15.7218 0 26.4293 0C45.1851 0 52.9016 18.6807 54.3635 28.5585C54.486 29.4119 54.2371 30.2772 53.672 30.9291C53.1149 31.5811 52.2931 31.9564 51.4318 31.9564ZM26.4293 5.92663C22.2807 5.92663 17.8475 7.19098 17.8475 10.7391C17.8475 15.7846 26.6703 24.9748 47.7336 25.9468C45.9516 19.3801 40.5781 5.92663 26.4293 5.92663Z" fill="#FFC107"/>
<path d="M54.3915 51.5381V95.0001H48.4648V51.5381H54.3915Z" fill="#FF8F00"/>
<path d="M54.3915 30.1627V51.5381H48.4648V30.1627C48.4648 29.2579 48.7809 28.4281 49.2946 27.8315C49.8477 27.2389 50.5984 26.8438 51.4282 26.8438C52.2579 26.8438 53.0086 27.2389 53.5617 27.8315C54.0754 28.4242 54.3915 29.2539 54.3915 30.1627Z" fill="#FFC107"/>
<path d="M48.4646 51.5381H11.917V88.0857C11.917 91.8787 15.0384 95.0001 18.8314 95.0001H48.4646V51.5381Z" fill="#B82929"/>
<path d="M27.5868 27.8315H10.9291C7.13601 27.8315 4.01465 30.9529 4.01465 34.7459V44.6237C4.01465 48.4167 7.13601 51.5381 10.9291 51.5381H11.9168H48.4644V31.9051C39.9616 31.6127 33.0314 30.0718 27.5868 27.8315Z" fill="#D43A2F"/>
<path d="M47.7296 25.9428C26.6703 24.9748 17.8436 15.7846 17.8436 10.7351C17.8436 7.18703 22.2767 5.92268 26.4253 5.92268C40.5781 5.92663 45.9516 19.3801 47.7296 25.9428ZM26.4293 0C15.7218 0 11.9209 5.78439 11.9209 10.7391C11.9209 16.3575 16.9072 23.4379 27.587 27.8315C33.0355 30.0717 39.9618 31.6127 48.4645 31.905V30.1626C48.4645 29.2578 48.7806 28.4281 49.2942 27.8315C49.8474 27.2388 50.5981 26.8437 51.4278 26.8437V18.4871C47.54 9.46681 39.78 0 26.4293 0Z" fill="#DEA806"/>
<path d="M51.4282 51.5381H48.4648V95.0001H51.4282V51.5381Z" fill="#DE7C00"/>
<path d="M51.4282 26.8438C50.5984 26.8438 49.8477 27.2389 49.2946 27.8315C48.7809 28.4242 48.4648 29.2539 48.4648 30.1627V31.9051V51.5381H51.4282V26.8438Z" fill="#DEA806"/>
</g>
<defs>
<filter id="filter0_d_94_2285" x="0.0146484" y="0" width="102.826" height="103" filterUnits="userSpaceOnUse" color-interpolation-filters="sRGB">
<feFlood flood-opacity="0" result="BackgroundImageFix"/>
<feColorMatrix in="SourceAlpha" type="matrix" values="0 0 0 0 0 0 0 0 0 0 0 0 0 0 0 0 0 0 127 0" result="hardAlpha"/>
<feOffset dy="4"/>
<feGaussianBlur stdDeviation="2"/>
<feComposite in2="hardAlpha" operator="out"/>
<feColorMatrix type="matrix" values="0 0 0 0 0 0 0 0 0 0 0 0 0 0 0 0 0 0 0.25 0"/>
<feBlend mode="normal" in2="BackgroundImageFix" result="effect1_dropShadow_94_2285"/>
<feBlend mode="normal" in="SourceGraphic" in2="effect1_dropShadow_94_2285" result="shape"/>
</filter>
</defs>
</svg>
