<svg width="109" height="109" viewBox="0 0 109 109" fill="none" xmlns="http://www.w3.org/2000/svg">
<g filter="url(#filter0_d_94_2238)">
<path d="M29.5025 93.6393C25.7218 97.4199 12.8703 99.951 6.78286 100.967C5.16634 101.236 3.76574 99.8357 4.03542 98.2192C5.05097 92.1318 7.58199 79.2802 11.3627 75.4996C16.3739 70.4885 24.4907 70.4887 29.5024 75.5004C34.5142 80.5122 34.5137 88.6282 29.5025 93.6393Z" fill="#FFD80C"/>
<path d="M31.289 91.3565C34.3906 86.4036 33.8115 79.8097 29.5023 75.5005C25.1931 71.1913 18.5985 70.6116 13.6455 73.7131L31.289 91.3565Z" fill="#FFBE00"/>
<path d="M29.5032 85.9635C29.0025 86.4642 28.2107 86.9222 27.2519 87.3395C24.104 88.7775 19.0808 89.757 16.3705 90.2159C15.4332 90.3615 14.6413 89.5696 14.7869 88.6323C15.2459 85.9221 16.225 80.8985 17.6636 77.7511C18.0803 76.7919 18.5388 76.0006 19.0396 75.4999C21.7071 72.8324 25.9588 72.6244 28.8564 74.9377C29.0859 75.0838 29.294 75.2919 29.5027 75.5006C29.7113 75.7092 29.9195 75.9173 30.0655 76.1468C32.3789 79.0444 32.1708 83.296 29.5032 85.9635Z" fill="#E5E8EF"/>
<path d="M29.5027 85.9635C29.002 86.4642 28.2102 86.9222 27.2515 87.3395L17.6631 77.7511C18.0799 76.7919 18.5384 76.0006 19.0391 75.4999C21.7067 72.8324 25.9584 72.6244 28.8559 74.9377C29.0854 75.0838 29.2936 75.2919 29.5022 75.5006C29.7109 75.7092 29.919 75.9173 30.065 76.1468C32.3784 79.0444 32.1703 83.296 29.5027 85.9635Z" fill="#CDD4DF"/>
<path d="M52.1708 84.9759L48.983 88.1638C47.0889 90.0417 44.0432 90.0417 42.1653 88.1638L16.8362 62.8342C14.9583 60.9563 14.9583 57.911 16.8362 56.0331L20.0398 52.8291L52.1708 84.9759Z" fill="#435E88"/>
<path d="M20.0254 52.8286L63.6186 9.23545L95.7564 41.3733L52.1632 84.9665L20.0254 52.8286Z" fill="#E5E8EF"/>
<path d="M73.3261 51.7234C68.6149 56.4345 61.0076 56.4135 56.2969 51.7028C51.5862 46.9921 51.5857 39.4053 56.2969 34.6942C61.0071 29.9842 68.6154 29.9634 73.3261 34.6741C78.0368 39.3848 78.0363 47.0133 73.3261 51.7234Z" fill="#CDD4DF"/>
<path d="M40.444 86.4431L37.3984 89.4892C36.2305 90.6574 34.3681 90.6574 33.2006 89.4892L15.5098 71.7983C14.3574 70.6463 14.3574 68.7684 15.5098 67.6164L18.5555 64.5549L40.444 86.4431Z" fill="#33527D"/>
<path d="M104.185 24.2016C102.875 30.4356 100.082 36.4006 95.7738 41.3723L63.627 9.2255C73.4433 0.703713 87.0466 -2.12121 99.4664 1.61839C101.376 2.17089 102.828 3.63883 103.396 5.5329C105.243 11.6713 105.479 18.0786 104.185 24.2016Z" fill="#5CBEFF"/>
<path d="M75.3999 61.7456L70.0818 91.9991C69.4033 95.8967 64.6215 97.3962 61.8281 94.6029L52.1855 84.9599L75.3999 61.7456Z" fill="#5CBEFF"/>
<path d="M74.317 67.872L54.7027 87.4856L52.1807 84.9636L75.4009 61.7441L74.317 67.872Z" fill="#079CFF"/>
<path d="M43.2537 29.5994L20.0394 52.8291L10.3968 43.1869C7.6035 40.3936 9.11844 35.596 13.001 34.9171L43.2537 29.5994Z" fill="#5CBEFF"/>
<path d="M73.3261 48.7273C68.6149 53.4384 61.0076 53.4174 56.2969 48.7067C51.5862 43.996 51.5857 36.4092 56.2969 31.6981C61.0071 26.9881 68.6154 26.9673 73.3261 31.678C78.0368 36.3887 78.0363 44.0173 73.3261 48.7273Z" fill="#33527D"/>
<path d="M70.4535 45.8475C67.3337 48.9672 62.2961 48.9533 59.1766 45.8338C56.0572 42.7144 56.0568 37.6904 59.1766 34.5707C62.2957 31.4517 67.334 31.4379 70.4534 34.5574C73.5729 37.6768 73.5726 42.7285 70.4535 45.8475Z" fill="#5CBEFF"/>
<path d="M72.6698 41.4634C72.4199 39.8376 71.6693 38.2951 70.4399 37.0657C67.3336 33.9595 62.2896 33.9594 59.163 37.0859C57.9336 38.3153 57.1825 39.8582 56.9535 41.4632C56.5367 39.0455 57.2878 36.4604 59.1839 34.5644C62.2901 31.4583 67.3545 31.438 70.4602 34.5437C72.3568 36.4403 73.0871 39.0452 72.6698 41.4634Z" fill="#079CFF"/>
<path d="M37.1319 30.6871L17.5176 50.3008L20.0396 52.8228L43.2598 29.6033L37.1319 30.6871Z" fill="#079CFF"/>
</g>
<defs>
<filter id="filter0_d_94_2238" x="0.00195312" y="0" width="108.998" height="109" filterUnits="userSpaceOnUse" color-interpolation-filters="sRGB">
<feFlood flood-opacity="0" result="BackgroundImageFix"/>
<feColorMatrix in="SourceAlpha" type="matrix" values="0 0 0 0 0 0 0 0 0 0 0 0 0 0 0 0 0 0 127 0" result="hardAlpha"/>
<feOffset dy="4"/>
<feGaussianBlur stdDeviation="2"/>
<feComposite in2="hardAlpha" operator="out"/>
<feColorMatrix type="matrix" values="0 0 0 0 0 0 0 0 0 0 0 0 0 0 0 0 0 0 0.25 0"/>
<feBlend mode="normal" in2="BackgroundImageFix" result="effect1_dropShadow_94_2238"/>
<feBlend mode="normal" in="SourceGraphic" in2="effect1_dropShadow_94_2238" result="shape"/>
</filter>
</defs>
</svg>
