<svg width="103" height="104" viewBox="0 0 103 104" fill="none" xmlns="http://www.w3.org/2000/svg">
<g filter="url(#filter0_d_94_2318)">
<path d="M62.828 67.1008H40.7786C39.235 67.1008 38.0225 68.3134 38.0225 69.857V86.7615C38.0225 91.3365 41.7155 95.03 46.291 95.03H57.3156C61.8911 95.03 65.5841 91.3365 65.5841 86.7615V69.857C65.5841 68.3134 64.3716 67.1008 62.828 67.1008Z" fill="#E1E4FB"/>
<path d="M65.5845 69.8565V86.761C65.5845 91.3361 61.8915 95.0295 57.316 95.0295H51.8037V67.1003H62.8284C64.372 67.1003 65.5845 68.3129 65.5845 69.8565Z" fill="#C5C9F7"/>
<path d="M46.291 84.0048H38.0225V78.4924H46.291C49.9423 78.4924 49.9423 84.0048 46.291 84.0048Z" fill="#C5C9F7"/>
<path d="M65.5842 78.4932V84.0055H57.3157C53.6643 84.0055 53.6643 78.4932 57.3157 78.4932H65.5842Z" fill="#A8AFF1"/>
<path d="M51.8039 0.952637C49.6541 0.952637 47.5041 1.17295 45.2993 1.61412C33.5581 4.09467 24.1869 13.7412 21.9824 25.6479C20.659 33.0346 21.9272 40.3656 25.7307 46.8154C30.9671 55.1938 32.5107 56.2963 32.5107 64.3445C32.5107 68.9195 36.2591 72.613 40.7792 72.613H62.8286C67.3487 72.613 71.0971 68.9747 71.0971 63.9033C71.0971 55.9655 73.5776 54.0364 77.8219 46.87C80.6332 42.1296 82.1217 36.7277 82.1217 31.2705C82.1217 14.4579 68.5065 0.952637 51.8039 0.952637Z" fill="#FEDB41"/>
<path d="M82.1215 31.2705C82.1215 36.7277 80.633 42.1296 77.8217 46.8702C73.5774 54.0364 71.0969 55.9655 71.0969 63.9033C71.0969 68.9747 67.3485 72.613 62.8284 72.613H51.8037V0.952637C68.5063 0.952637 82.1215 14.4579 82.1215 31.2705Z" fill="#FFCC33"/>
<path d="M96.2701 34.0267H90.7578C87.1246 34.0267 87.1097 28.5144 90.7578 28.5144H96.2701C99.9033 28.5144 99.9182 34.0267 96.2701 34.0267Z" fill="#FE9923"/>
<path d="M13.2174 34.0267H7.70508C4.0719 34.0267 4.05702 28.5144 7.70508 28.5144H13.2174C16.8506 28.5144 16.8655 34.0267 13.2174 34.0267Z" fill="#FEA832"/>
<path d="M84.2089 9.58975L88.9837 6.83359C92.1206 5.01709 94.9047 9.78066 91.7399 11.6084L86.9651 14.3645C83.8071 16.1888 81.0636 11.4063 84.2089 9.58975Z" fill="#FE9923"/>
<path d="M12.2346 50.9328L17.0094 48.1766C20.1251 46.3533 22.9432 51.1162 19.7655 52.9514L14.9908 55.7076C11.85 57.5219 9.05215 52.7708 12.2346 50.9328Z" fill="#FEA832"/>
<path d="M88.9839 55.7075L84.2091 52.9513C81.0517 51.1279 83.8135 46.3433 86.9653 48.1765L91.7401 50.9327C94.8854 52.7492 92.1419 57.5317 88.9839 55.7075Z" fill="#FE9923"/>
<path d="M17.0104 14.3647L12.2356 11.6086C9.09026 9.79187 11.8323 5.01176 14.9918 6.83377L19.7665 9.58994C22.9119 11.4064 20.1684 16.1889 17.0104 14.3647Z" fill="#FEA832"/>
<path d="M66.6324 34.2468L54.5604 29.3959V14.7333C54.5604 13.0245 53.2374 12.0323 51.8042 12.0323C50.9224 11.9771 50.0403 12.363 49.4892 13.2448L35.7084 35.2941C34.7711 36.7826 35.3225 38.7118 36.976 39.3179L49.048 44.1688V58.832C49.048 60.5408 50.4261 61.5881 51.8042 61.5881C52.686 61.5881 53.5682 61.2023 54.1192 60.3201L67.9 38.2708C68.8375 36.7826 68.2861 34.8531 66.6324 34.2468Z" fill="#FEA832"/>
<path d="M67.8995 38.2707L54.1187 60.3201C53.5677 61.2022 52.6855 61.5881 51.8037 61.5881V12.0322C53.2369 12.0322 54.5599 13.0244 54.5599 14.7333V29.3959L66.6319 34.2467C68.2856 34.8531 68.837 36.7826 67.8995 38.2707Z" fill="#FE9923"/>
</g>
<defs>
<filter id="filter0_d_94_2318" x="0.974609" y="0.952637" width="102.026" height="102.077" filterUnits="userSpaceOnUse" color-interpolation-filters="sRGB">
<feFlood flood-opacity="0" result="BackgroundImageFix"/>
<feColorMatrix in="SourceAlpha" type="matrix" values="0 0 0 0 0 0 0 0 0 0 0 0 0 0 0 0 0 0 127 0" result="hardAlpha"/>
<feOffset dy="4"/>
<feGaussianBlur stdDeviation="2"/>
<feComposite in2="hardAlpha" operator="out"/>
<feColorMatrix type="matrix" values="0 0 0 0 0 0 0 0 0 0 0 0 0 0 0 0 0 0 0.25 0"/>
<feBlend mode="normal" in2="BackgroundImageFix" result="effect1_dropShadow_94_2318"/>
<feBlend mode="normal" in="SourceGraphic" in2="effect1_dropShadow_94_2318" result="shape"/>
</filter>
</defs>
</svg>
