<svg width="290" height="187" viewBox="0 0 290 187" fill="none" xmlns="http://www.w3.org/2000/svg">
<path fill-rule="evenodd" clip-rule="evenodd" d="M24.2687 60.6492C18.6635 91.2762 42.2035 111.206 70.1677 130.741C53.4235 103.946 29.1358 93.5114 24.2687 60.6492Z" fill="url(#paint0_radial_47_6714)"/>
<path fill-rule="evenodd" clip-rule="evenodd" d="M24.2688 60.6492C29.1359 93.5114 53.4236 103.946 70.1678 130.741C62.8958 96.6014 34.2363 82.584 24.2688 60.6492Z" fill="url(#paint1_radial_47_6714)"/>
<path fill-rule="evenodd" clip-rule="evenodd" d="M27.4976 73.5621C40.6558 98.615 55.7142 106.993 70.1677 130.74C54.176 109.402 34.4315 94.2712 27.4976 73.5621Z" fill="url(#paint2_radial_47_6714)"/>
<path fill-rule="evenodd" clip-rule="evenodd" d="M5.51946 60.8372C-4.26706 105.28 29.6214 131.267 78.816 150.671C63.4814 130.61 45.9561 124.66 29.1024 109.14C10.0103 91.5581 6.37191 78.4189 5.51946 60.8372Z" fill="url(#paint3_radial_47_6714)"/>
<path fill-rule="evenodd" clip-rule="evenodd" d="M29.1024 109.14C45.9562 124.665 63.4862 130.614 78.8161 150.671C67.7009 112.953 19.254 96.935 5.51953 60.8372C6.37198 78.4189 10.0104 91.5534 29.1024 109.14Z" fill="url(#paint4_radial_47_6714)"/>
<path fill-rule="evenodd" clip-rule="evenodd" d="M7.87207 77.6526C26.0117 119.329 55.8094 118.85 78.816 150.675C53.7187 123.936 18.7587 114.22 7.87207 77.6526Z" fill="url(#paint5_radial_47_6714)"/>
<path fill-rule="evenodd" clip-rule="evenodd" d="M0.0047623 106.691C7.83398 139.154 32.1836 146.761 59.8049 155.66C70.7058 159.173 82.8449 162.188 95.7603 167.766C72.0298 148.757 63.2433 147.715 35.0077 135.923C14.5345 127.372 8.58642 120.779 0 106.686L0.0047623 106.691Z" fill="url(#paint6_radial_47_6714)"/>
<path fill-rule="evenodd" clip-rule="evenodd" d="M35.0125 135.93C63.2482 147.721 72.0346 148.764 95.7652 167.773C87.6026 156.85 77.5161 148.271 68.8677 142.058C47.2564 126.543 18.3254 122.382 0.00488281 106.693C8.59131 120.781 14.5394 127.379 35.0125 135.93Z" fill="url(#paint7_radial_47_6714)"/>
<path fill-rule="evenodd" clip-rule="evenodd" d="M10.0293 120.493C36.722 142.048 61.1811 138.451 95.7602 167.768C91.3789 164.734 84.5354 159.892 79.8493 157.009C57.5856 143.311 28.3737 139.634 10.0293 120.493Z" fill="url(#paint8_radial_47_6714)"/>
<path fill-rule="evenodd" clip-rule="evenodd" d="M12.5298 139.475C26.3928 164.669 39.4939 167.364 60.4718 170.44C72.5538 172.215 87.3074 170.604 101.128 172.163C82.2927 163.33 74.5206 164.058 53.176 160.006C31.2123 155.836 25.3166 153.056 12.5298 139.475Z" fill="url(#paint9_radial_47_6714)"/>
<path fill-rule="evenodd" clip-rule="evenodd" d="M12.5297 139.475C25.3164 153.056 31.2122 155.836 53.1759 160.006C74.5253 164.058 82.2926 163.33 101.127 172.163C90.2646 162.001 80.602 157.521 68.6581 154.577C48.1755 149.524 30.3978 150.647 12.5249 139.475H12.5297Z" fill="url(#paint10_radial_47_6714)"/>
<path fill-rule="evenodd" clip-rule="evenodd" d="M22.5115 148.888C45.4181 161.863 76.135 159.074 101.132 172.162C76.554 162.671 41.2225 162.976 22.5115 148.888Z" fill="url(#paint11_radial_47_6714)"/>
<path fill-rule="evenodd" clip-rule="evenodd" d="M101.318 170.741C78.5113 174.578 56.7619 182.749 36.8459 168.933C55.2475 189.675 80.702 184.801 101.318 170.741Z" fill="url(#paint12_radial_47_6714)"/>
<path fill-rule="evenodd" clip-rule="evenodd" d="M36.8413 168.933C56.762 182.749 78.5067 174.578 101.313 170.741C82.4403 166.679 54.438 174.484 36.8413 168.933Z" fill="url(#paint13_radial_47_6714)"/>
<path fill-rule="evenodd" clip-rule="evenodd" d="M45.937 173.76C65.6053 178.625 80.1208 174.558 101.318 170.745C82.9544 176.211 66.3387 180.968 45.937 173.76Z" fill="url(#paint14_radial_47_6714)"/>
<path fill-rule="evenodd" clip-rule="evenodd" d="M265.731 60.6492C271.337 91.2762 247.796 111.206 219.832 130.741C236.577 103.946 260.864 93.5114 265.731 60.6492Z" fill="url(#paint15_radial_47_6714)"/>
<path fill-rule="evenodd" clip-rule="evenodd" d="M265.731 60.6492C260.864 93.5114 236.577 103.946 219.832 130.741C227.104 96.6014 255.764 82.584 265.731 60.6492Z" fill="url(#paint16_radial_47_6714)"/>
<path fill-rule="evenodd" clip-rule="evenodd" d="M262.502 73.5621C249.344 98.615 234.291 106.993 219.832 130.74C235.824 109.402 255.573 94.2713 262.502 73.5621Z" fill="url(#paint17_radial_47_6714)"/>
<path fill-rule="evenodd" clip-rule="evenodd" d="M284.48 60.8372C294.267 105.28 260.378 131.267 211.184 150.671C226.518 130.61 244.044 124.66 260.897 109.14C279.99 91.5581 283.628 78.4189 284.48 60.8372Z" fill="url(#paint18_radial_47_6714)"/>
<path fill-rule="evenodd" clip-rule="evenodd" d="M260.897 109.14C244.044 124.665 226.514 130.614 211.184 150.671C222.299 112.953 270.741 96.935 284.48 60.8372C283.628 78.4189 279.99 91.5534 260.897 109.14Z" fill="url(#paint19_radial_47_6714)"/>
<path fill-rule="evenodd" clip-rule="evenodd" d="M282.128 77.6527C263.988 119.329 234.19 118.85 211.184 150.675C236.281 123.936 271.241 114.22 282.128 77.6527Z" fill="url(#paint20_radial_47_6714)"/>
<path fill-rule="evenodd" clip-rule="evenodd" d="M289.995 106.691C282.166 139.154 257.816 146.761 230.195 155.66C219.294 159.173 207.155 162.188 194.24 167.766C217.97 148.757 226.752 147.715 254.992 135.923C275.47 127.372 281.414 120.779 290 106.686L289.995 106.691Z" fill="url(#paint21_radial_47_6714)"/>
<path fill-rule="evenodd" clip-rule="evenodd" d="M254.987 135.93C226.752 147.721 217.965 148.764 194.235 167.773C202.397 156.85 212.484 148.271 221.132 142.058C242.739 126.543 271.675 122.382 289.995 106.693C281.409 120.781 275.461 127.379 254.987 135.93Z" fill="url(#paint22_radial_47_6714)"/>
<path fill-rule="evenodd" clip-rule="evenodd" d="M279.966 120.493C253.273 142.048 228.814 138.451 194.235 167.768C198.616 164.734 205.46 159.892 210.146 157.009C232.409 143.311 261.621 139.634 279.966 120.493Z" fill="url(#paint23_radial_47_6714)"/>
<path fill-rule="evenodd" clip-rule="evenodd" d="M277.466 139.475C263.607 164.669 250.501 167.364 229.524 170.44C217.442 172.215 202.688 170.604 188.863 172.163C207.698 163.33 215.47 164.058 236.819 160.006C258.783 155.836 264.679 153.056 277.466 139.475Z" fill="url(#paint24_radial_47_6714)"/>
<path fill-rule="evenodd" clip-rule="evenodd" d="M277.466 139.475C264.684 153.056 258.783 155.836 236.819 160.006C215.47 164.058 207.703 163.33 188.863 172.163C199.726 162.001 209.389 157.521 221.332 154.577C241.815 149.524 259.593 150.647 277.466 139.475Z" fill="url(#paint25_radial_47_6714)"/>
<path fill-rule="evenodd" clip-rule="evenodd" d="M267.489 148.888C244.582 161.863 213.865 159.074 188.868 172.162C213.446 162.671 248.778 162.976 267.489 148.888Z" fill="url(#paint26_radial_47_6714)"/>
<path fill-rule="evenodd" clip-rule="evenodd" d="M188.682 170.741C211.494 174.578 233.238 182.749 253.154 168.933C234.753 189.675 209.298 184.801 188.682 170.741Z" fill="url(#paint27_radial_47_6714)"/>
<path fill-rule="evenodd" clip-rule="evenodd" d="M253.154 168.933C233.233 182.749 211.489 174.578 188.682 170.741C207.555 166.679 235.557 174.484 253.154 168.933Z" fill="url(#paint28_radial_47_6714)"/>
<path fill-rule="evenodd" clip-rule="evenodd" d="M244.063 173.76C224.395 178.625 209.879 174.558 188.682 170.745C207.046 176.211 223.661 180.968 244.063 173.76Z" fill="url(#paint29_radial_47_6714)"/>
<path d="M199.433 27.9859C197.056 27.9859 195.127 29.8886 195.127 32.2325C195.127 33.3863 195.599 34.4307 196.358 35.1918C192.655 36.5034 186.099 38.5478 179.358 39.3574C178.779 38.483 178.43 37.3333 178.504 35.8112C178.668 32.4552 178.656 29.1033 178.606 26.6622C178.816 26.6865 179.025 26.7027 179.239 26.7027C182.26 26.7027 184.711 24.2859 184.711 21.3064C184.711 18.3269 182.26 15.9141 179.239 15.9141C176.217 15.9141 173.766 18.3269 173.766 21.3064C173.766 22.7637 174.357 24.0835 175.31 25.055L162.431 33.5563L148.156 12.4772C150.533 11.4975 152.2 9.18596 152.2 6.48984C152.2 2.90716 149.252 0.00457764 145.619 0.00457764C141.986 0.00457764 139.042 2.90716 139.042 6.48984C139.042 9.18596 140.709 11.4975 143.082 12.4772L128.832 33.5199L116.007 25.055C116.959 24.0835 117.546 22.7637 117.546 21.3064C117.546 18.3269 115.095 15.9141 112.074 15.9141C109.052 15.9141 106.601 18.3269 106.601 21.3064C106.601 24.2859 109.052 26.7027 112.074 26.7027C112.287 26.7027 112.497 26.6865 112.706 26.6622C112.661 29.1033 112.653 32.4552 112.813 35.8112C112.887 37.3414 112.538 38.4951 111.959 39.3655C105.222 38.564 98.6695 36.5237 94.95 35.212C95.7177 34.4469 96.1898 33.3944 96.1898 32.2325C96.1898 29.8886 94.2603 27.9859 91.8833 27.9859C89.5062 27.9859 87.5767 29.8886 87.5767 32.2325C87.5767 34.5765 89.5021 36.4791 91.8833 36.4791C92.0393 36.4791 92.1871 36.4508 92.3348 36.4346L97.9305 67.2862V69.9013C97.9305 69.9013 102.713 69.6017 143.993 69.6017H147.249C188.529 69.6017 193.308 69.9013 193.308 69.9013V67.2862L198.904 36.4265C199.076 36.4467 199.248 36.4791 199.425 36.4791C201.802 36.4791 203.732 34.5765 203.732 32.2325C203.732 29.8886 201.802 27.9859 199.425 27.9859H199.433Z" fill="url(#paint30_linear_47_6714)"/>
<g style="mix-blend-mode:overlay">
<path d="M148.365 12.4726C148.292 12.505 148.238 12.5981 148.164 12.6305L164.381 36.5474L176.307 25.9856C175.355 25.014 175.716 25.7549 175.716 24.2975C175.716 21.318 178.167 18.9012 181.188 18.9012C182.584 18.9012 183.853 19.4194 184.818 20.2655C184.329 17.7798 182.108 15.9055 179.448 15.9055C176.426 15.9055 173.975 18.3183 173.975 21.2978C173.975 22.7551 174.566 24.0748 175.519 25.0464L162.64 33.5477L148.365 12.4686V12.4726Z" fill="white"/>
<path d="M140.996 9.48501C140.996 5.89827 143.936 2.99569 147.573 2.99569C149.375 2.99569 151.009 3.71223 152.2 4.87002C151.469 2.06865 148.899 0 145.833 0C142.199 0 139.256 2.90258 139.256 6.48527C139.256 8.28673 140.003 9.91412 141.202 11.0881C141.07 10.574 140.996 10.0396 140.996 9.48096V9.48501Z" fill="white"/>
<path d="M180.446 39.2387C180.454 40.5463 180.786 41.5664 181.304 42.3518C188.041 41.5421 194.597 39.4978 198.304 38.1862C197.545 37.421 197.073 36.3806 197.073 35.2269C197.073 32.883 199.002 30.9803 201.383 30.9803C202.336 30.9803 203.214 31.292 203.929 31.8061C203.711 29.6606 201.876 27.9846 199.643 27.9846C197.265 27.9846 195.336 29.8873 195.336 32.2312C195.336 33.385 195.808 34.4294 196.568 35.1905C193.025 36.4454 186.875 38.3683 180.45 39.2387H180.446Z" fill="white"/>
<path d="M114.771 38.8069C114.611 35.4509 114.619 32.0989 114.668 29.6579C114.459 29.6781 113.264 26.7391 112.899 26.6622C112.899 28.577 112.928 33.6535 113.03 35.8112C113.104 37.3414 112.755 38.4951 112.176 39.3655C106.934 38.7421 101.806 37.3697 98.0372 36.1715C97.8566 36.9528 97.4583 37.6572 96.9082 38.2077C100.628 39.5194 107.184 41.5637 113.917 42.3653C114.496 41.4908 114.845 40.3371 114.771 38.8069Z" fill="white"/>
<path d="M117.965 28.0462L130.79 36.511L143.661 17.1443C144.548 15.1242 143.973 13.2661 143.299 12.4686L129.054 33.5113L116.228 25.0464C115.986 25.5039 116.212 26.1678 117.969 28.0421L117.965 28.0462Z" fill="white"/>
<path d="M100.037 69.8523L94.404 39.4339C94.2562 39.4501 94.0509 39.4784 93.8949 39.4784C93.6404 39.4784 93.5911 39.4501 93.3489 39.4096L98.6079 67.2898V69.9049C98.6079 69.9049 98.727 69.8847 100.041 69.8523H100.037Z" fill="white"/>
<path d="M89.5307 35.2269C89.5307 32.883 91.4562 30.9803 93.8373 30.9803C94.7939 30.9803 95.6684 31.288 96.3827 31.8061C96.1651 29.6606 94.33 27.9846 92.0966 27.9846C89.7155 27.9846 87.79 29.8873 87.79 32.2312C87.79 33.64 88.4839 34.8788 89.5513 35.656C89.5389 35.5143 89.5266 35.3726 89.5266 35.2269H89.5307Z" fill="white"/>
<path d="M108.662 25.3343C108.596 24.9983 108.56 24.6542 108.56 24.302C108.56 21.3225 111.01 18.9057 114.032 18.9057C115.428 18.9057 116.697 19.4238 117.661 20.2699C117.169 17.7843 114.956 15.91 112.291 15.91C109.27 15.91 106.819 18.3227 106.819 21.3022C106.819 22.9053 107.533 24.3424 108.662 25.3302V25.3343Z" fill="white"/>
</g>
<path d="M131.679 184.219C131.679 184.219 119.684 189.943 98.7832 181.805C77.8872 173.662 71.2424 162.914 71.2424 162.914L82.371 156.521C82.371 156.521 70.7752 147.564 66.1341 131.026C61.4931 114.488 62.0232 112.397 62.0232 112.397H72.3432C72.3432 112.397 69.2476 108.875 74.922 90.8128C80.6009 72.7509 86.0147 69.2067 86.0147 69.2067L93.7558 77.1013C93.7558 77.1013 97.1074 68.9675 105.621 61.8437C114.135 54.72 122.905 51.672 122.905 51.672L133.216 66.203L131.675 184.219H131.679Z" fill="url(#paint31_linear_47_6714)"/>
<g style="mix-blend-mode:overlay" opacity="0.6">
<path d="M68.0204 133.908C63.3748 117.375 63.9095 115.373 63.9095 115.373H74.2294C74.2294 115.373 71.1339 111.757 76.8082 93.6956C82.4871 75.6337 87.9009 72.0452 87.9009 72.0452L95.642 79.9177C95.642 79.9177 98.9936 71.7705 107.507 64.6468C114.876 58.4799 122.432 55.3655 124.333 54.639L122.904 51.6752C122.904 51.6752 114.13 54.7276 105.62 61.8513C97.1067 68.9751 93.755 77.1133 93.755 77.1133L86.014 69.2232C86.014 69.2232 80.5957 72.7496 74.9213 90.8115C69.2469 108.873 72.3424 112.395 72.3424 112.395H62.0225C62.0225 112.395 61.4923 114.486 66.1334 131.024C68.0608 137.891 71.1878 143.491 74.189 147.638C71.8213 143.894 69.5479 139.335 68.0204 133.908Z" fill="white"/>
<path d="M85.7618 156.2C85.7618 156.2 85.4698 155.752 81.6374 156.944L71.2456 162.911C71.2456 162.911 71.8791 163.93 73.3572 165.574L85.7663 156.195L85.7618 156.2Z" fill="white"/>
</g>
<g style="mix-blend-mode:overlay" opacity="0.23">
<path d="M133.22 66.2025L122.909 51.6715C122.909 51.6715 114.134 54.7239 105.625 61.8477C97.1111 68.9714 93.7594 77.1097 93.7594 77.1097L86.0184 69.2195C86.0184 69.2195 80.6001 72.7459 74.9257 90.8078C69.2513 108.87 72.3468 112.392 72.3468 112.392H62.0269C62.0269 112.392 61.4967 114.483 66.1378 131.021C70.7833 147.559 82.3747 156.499 82.3747 156.499L71.2461 162.9C71.2461 162.9 73.4431 166.449 79.2612 171.008C84.5043 172.182 89.9585 172.806 95.561 172.806C108.572 172.806 120.788 169.457 131.373 163.587L133.224 66.1981L133.22 66.2025Z" fill="white"/>
</g>
<g style="mix-blend-mode:overlay" opacity="0.35">
<path d="M130.977 137.346L133.219 66.2055L122.908 51.6745C122.908 51.6745 114.134 54.7269 105.625 61.8507C97.1108 68.9744 93.7592 77.1127 93.7592 77.1127L86.0181 69.2225C86.0181 69.2225 80.5998 72.7489 74.9254 90.8108C69.251 108.873 72.3466 112.395 72.3466 112.395H62.0266C62.0266 112.395 61.4965 114.486 66.1375 131.024C66.3577 131.808 66.6003 132.588 66.8474 133.341C76.453 140.854 88.6015 145.351 101.819 145.351C112.494 145.351 122.477 142.427 130.982 137.341L130.977 137.346Z" fill="white"/>
</g>
<g style="mix-blend-mode:overlay" opacity="0.35">
<path d="M130.591 111.202L133.224 66.2046L122.913 51.6736C122.913 51.6736 114.138 54.726 105.629 61.8497C97.1151 68.9735 93.7635 77.1118 93.7635 77.1118L86.0224 69.2216C86.0224 69.2216 80.7569 72.6904 75.1724 90.0878C82.1182 104.455 96.9804 114.379 114.192 114.379C120.001 114.379 125.541 113.244 130.6 111.198L130.591 111.202Z" fill="white"/>
</g>
<g style="mix-blend-mode:overlay" opacity="0.2">
<path d="M99.5098 68.036C103.688 76.5199 112.512 82.3721 122.724 82.3721C125.303 82.3721 127.792 81.9956 130.142 81.3L133.219 66.2019L122.908 51.6709C122.908 51.6709 114.134 54.7233 105.624 61.8471C103.171 63.8982 101.15 66.0336 99.5143 68.036H99.5098Z" fill="white"/>
</g>
<g style="mix-blend-mode:overlay" opacity="0.49">
<path d="M72.3372 110.614C72.3372 110.614 71.6813 109.856 71.5285 107.278C71.4566 108.7 71.5151 109.426 71.6229 110.614H72.3372Z" fill="white"/>
<path d="M98.7861 179.473C82.8233 173.257 75.181 165.522 72.4629 162.213L71.2454 162.913C71.2454 162.913 77.8902 173.66 98.7861 181.803C119.682 189.946 131.682 184.218 131.682 184.218L131.646 181.909C130.932 182.233 119.04 187.367 98.7861 179.477V179.473Z" fill="white"/>
<path d="M82.3022 156.519L85.7617 155.965C85.7617 155.965 70.7423 145.235 66.0967 128.697C63.5224 119.527 62.5744 114.773 62.2105 112.394H62.0218C62.0218 112.394 61.4557 114.485 66.0967 131.023C69.6775 143.764 77.9757 153.094 82.3022 156.519Z" fill="white"/>
</g>
<path d="M162.507 184.219C162.507 184.219 174.503 189.943 195.399 181.805C216.299 173.662 222.94 162.915 222.94 162.915L211.816 156.522C211.816 156.522 223.412 147.564 228.053 131.026C232.698 114.488 232.163 112.397 232.163 112.397H221.844C221.844 112.397 224.939 108.875 219.265 90.8131C213.59 72.7512 208.172 69.2071 208.172 69.2071L200.431 77.1017C200.431 77.1017 197.075 68.9678 188.565 61.8441C180.052 54.7203 171.277 51.6724 171.277 51.6724L163.325 63.8775L162.507 184.219Z" fill="url(#paint32_linear_47_6714)"/>
<g style="mix-blend-mode:overlay" opacity="0.6">
<path d="M226.166 133.908C230.807 117.374 230.277 115.372 230.277 115.372H219.957C219.957 115.372 223.052 111.757 217.378 93.6949C211.703 75.633 206.285 72.0445 206.285 72.0445L198.544 79.917C198.544 79.917 195.192 71.7699 186.679 64.6461C179.31 58.4793 171.753 55.3648 169.853 54.6383L171.282 51.6745C171.282 51.6745 180.056 54.7269 188.57 61.8507C197.084 68.9744 200.435 77.1127 200.435 77.1127L208.176 69.2225C208.176 69.2225 213.595 72.7489 219.269 90.8108C224.944 108.873 221.848 112.395 221.848 112.395H232.168C232.168 112.395 232.703 114.486 228.057 131.024C226.13 137.891 222.998 143.49 220.002 147.637C222.369 143.893 224.643 139.335 226.17 133.908H226.166Z" fill="white"/>
<path d="M208.424 156.201C208.424 156.201 208.716 155.753 212.548 156.945L222.94 162.912C222.94 162.912 222.306 163.931 220.828 165.575L208.419 156.196L208.424 156.201Z" fill="white"/>
</g>
<g style="mix-blend-mode:overlay" opacity="0.23">
<path d="M163.325 63.8751L171.277 51.6743C171.277 51.6743 180.052 54.7267 188.565 61.8505C197.079 68.9742 200.431 77.1125 200.431 77.1125L208.172 69.2223C208.172 69.2223 213.59 72.7487 219.265 90.8107C224.939 108.873 221.843 112.395 221.843 112.395H232.163C232.163 112.395 232.698 114.486 228.053 131.024C223.407 147.561 211.816 156.502 211.816 156.502L222.94 162.903C222.94 162.903 220.743 166.452 214.925 171.01C209.682 172.184 204.227 172.809 198.625 172.809C185.614 172.809 173.398 169.46 162.813 163.59L163.325 63.8751Z" fill="white"/>
</g>
<g style="mix-blend-mode:overlay" opacity="0.35">
<path d="M163.204 137.345L163.321 63.8793L171.273 51.6785C171.273 51.6785 180.047 54.7309 188.561 61.8547C197.075 68.9784 200.426 77.1167 200.426 77.1167L208.168 69.2265C208.168 69.2265 213.586 72.753 219.26 90.8149C224.935 108.877 221.839 112.399 221.839 112.399H232.159C232.159 112.399 232.694 114.49 228.048 131.028C227.828 131.812 227.585 132.592 227.334 133.345C217.728 140.858 205.58 145.355 192.362 145.355C181.687 145.355 171.704 142.431 163.199 137.345H163.204Z" fill="white"/>
</g>
<g style="mix-blend-mode:overlay" opacity="0.35">
<path d="M163.595 111.202L163.325 63.8745L171.277 51.6738C171.277 51.6738 180.052 54.7262 188.565 61.8499C197.079 68.9737 200.431 77.1119 200.431 77.1119L208.172 69.2218C208.172 69.2218 213.437 72.6906 219.022 90.088C212.076 104.455 197.214 114.379 180.002 114.379C174.193 114.379 168.653 113.245 163.595 111.198V111.202Z" fill="white"/>
</g>
<g style="mix-blend-mode:overlay" opacity="0.2">
<path d="M194.676 68.0345C190.493 76.5183 181.673 82.3706 171.461 82.3706C168.883 82.3706 166.394 81.994 164.044 81.2985L163.325 63.8745L171.277 51.6738C171.277 51.6738 180.052 54.7262 188.565 61.8499C191.014 63.9011 193.036 66.0365 194.676 68.0389V68.0345Z" fill="white"/>
</g>
<g style="mix-blend-mode:overlay" opacity="0.49">
<path d="M221.844 110.614C221.844 110.614 222.499 109.856 222.652 107.278C222.72 108.7 222.666 109.427 222.558 110.614H221.844Z" fill="white"/>
<path d="M195.399 179.473C211.362 173.258 219.004 165.523 221.722 162.213L222.94 162.913C222.94 162.913 216.295 173.661 195.399 181.804C174.503 189.946 162.507 184.218 162.507 184.218L162.543 181.91C163.253 182.233 175.146 187.368 195.404 179.478L195.399 179.473Z" fill="white"/>
<path d="M211.883 156.519L208.424 155.965C208.424 155.965 223.443 145.235 228.089 128.698C230.663 119.527 231.611 114.773 231.975 112.394H232.164C232.164 112.394 232.73 114.486 228.089 131.023C224.512 143.765 216.21 153.095 211.888 156.519H211.883Z" fill="white"/>
</g>
<path d="M147.259 17.0005L122.351 51.7288L147.259 86.4571L172.167 51.7288L147.259 17.0005Z" fill="url(#paint33_linear_47_6714)"/>
<g style="mix-blend-mode:overlay" opacity="0.49">
<path d="M147.259 20.301L170.985 53.3813L172.167 51.7288L147.259 17.0005L122.351 51.7288L123.537 53.3813L147.259 20.301Z" fill="white"/>
</g>
<path opacity="0.25" d="M147.075 86.2408L171.825 51.7296L147.075 17.2228V86.2408Z" fill="#CC5F00"/>
<g style="mix-blend-mode:overlay" opacity="0.49">
<path d="M147.91 59.2286L147.439 17.2525L147.259 17L123.119 50.6606L145.884 36.3644L147.91 59.2286Z" fill="white"/>
</g>
<path d="M147.259 17.6594L145.768 44.5196L147.416 59.2279L147.911 44.431L147.259 17.6594Z" fill="white"/>
<path d="M194.015 47.4185L147.56 78.1729L185.538 72.5067L194.015 47.4185Z" fill="url(#paint34_linear_47_6714)"/>
<path d="M194.015 47.4175L147.56 78.1719L167.252 45.6587L194.015 47.4175Z" fill="url(#paint35_linear_47_6714)"/>
<g style="mix-blend-mode:overlay" opacity="0.61">
<path d="M194.016 47.4174L167.418 45.6675L185.592 72.355L194.016 47.4174Z" fill="white"/>
</g>
<g style="mix-blend-mode:overlay" opacity="0.97">
<path d="M175.101 58.0892L167.418 45.6669L194.015 47.4169L147.56 78.1713L175.101 58.0892Z" fill="white"/>
</g>
<path d="M101.459 47.4181L147.91 78.1725L109.933 72.5063L101.459 47.4181Z" fill="url(#paint36_linear_47_6714)"/>
<path d="M101.459 47.418L147.91 78.1724L128.219 45.6592L101.459 47.418Z" fill="url(#paint37_linear_47_6714)"/>
<g style="mix-blend-mode:overlay" opacity="0.61">
<path d="M101.459 47.4171L128.057 45.6672L109.883 72.3547L101.459 47.4171Z" fill="white"/>
</g>
<g style="mix-blend-mode:overlay" opacity="0.97">
<path d="M120.37 58.0894L128.057 45.6672L101.459 47.4171L147.91 78.1715L120.37 58.0894Z" fill="white"/>
</g>
<path d="M147.91 62.1382C112.053 62.1382 82.9851 90.0041 82.9851 124.378C82.9851 158.752 112.049 186.627 147.91 186.627C183.772 186.627 212.831 158.756 212.831 124.378C212.831 89.9997 183.763 62.1382 147.91 62.1382Z" fill="url(#paint38_linear_47_6714)"/>
<path d="M147.717 183.836C112.346 183.836 83.5872 156.715 82.81 122.983C82.801 123.448 82.792 123.914 82.792 124.379C82.792 158.753 111.856 186.627 147.717 186.627C183.579 186.627 212.638 158.757 212.638 124.379C212.638 123.914 212.629 123.448 212.62 122.983C211.847 156.715 183.084 183.836 147.717 183.836Z" fill="#FFEF57"/>
<g style="mix-blend-mode:overlay" opacity="0.35">
<path d="M147.91 62.1382C112.053 62.1382 82.9851 90.0041 82.9851 124.378C82.9851 125.14 83.0166 125.88 83.048 126.633C99.586 140.849 122.351 149.643 147.484 149.643C172.616 149.643 196.181 140.539 212.782 125.875C212.795 125.37 212.827 124.883 212.827 124.378C212.827 90.0041 183.758 62.1382 147.906 62.1382H147.91Z" fill="white"/>
</g>
<g style="mix-blend-mode:overlay" opacity="0.49">
<path d="M199.717 86.7129C187.86 71.7875 169.13 62.143 148.045 62.143C126.96 62.143 107.938 71.9337 96.095 87.054C110.773 95.7416 128.515 100.832 147.627 100.832C166.74 100.832 184.931 95.6131 199.717 86.7129Z" fill="white"/>
</g>
<g style="mix-blend-mode:overlay" opacity="0.49">
<path d="M147.911 65.7001C183.138 65.7001 211.793 92.6179 212.782 126.159C212.804 125.57 212.831 124.976 212.831 124.378C212.831 90.0041 183.763 62.1382 147.911 62.1382C112.058 62.1382 82.9897 90.0041 82.9897 124.378C82.9897 124.976 83.0212 125.57 83.0347 126.159C84.0231 92.6179 112.678 65.7001 147.906 65.7001H147.911Z" fill="white"/>
</g>
<path d="M90.2771 153.42C90.2771 153.42 92.6987 157.372 95.3 161.093L108.81 152.596L90.2771 153.416V153.42Z" fill="#E57D00"/>
<path d="M102.214 168.779L108.963 152.596H108.814L95.3044 161.097C95.5695 161.474 95.8346 161.846 96.0997 162.213C98.984 166.214 102.219 168.779 102.219 168.779H102.214Z" fill="url(#paint39_linear_47_6714)"/>
<path d="M109.138 152.6L104.227 170.6L102.214 168.779L109.138 152.6Z" fill="#FFEF57"/>
<path d="M89.9084 152.012L90.2769 153.421L109.138 152.601L89.9084 152.012Z" fill="#FFEF57"/>
<path d="M204.56 153.419C204.56 153.419 202.138 157.371 199.533 161.092L186.023 152.595L204.56 153.414V153.419Z" fill="#E57D00"/>
<path d="M192.618 168.779L185.875 152.595H186.023L199.533 161.097C199.268 161.474 199.002 161.846 198.737 162.213C195.853 166.214 192.618 168.779 192.618 168.779Z" fill="url(#paint40_linear_47_6714)"/>
<path d="M185.699 152.599L190.61 170.599L192.618 168.778L185.699 152.599Z" fill="#FFEF57"/>
<path d="M204.928 152.012L204.56 153.421L185.699 152.601L204.928 152.012Z" fill="#FFEF57"/>
<defs>
<radialGradient id="paint0_radial_47_6714" cx="0" cy="0" r="1" gradientUnits="userSpaceOnUse" gradientTransform="translate(34.8089 69.5026) rotate(5.60137) scale(57.2779 56.4952)">
<stop stop-color="#FFE11F"/>
<stop offset="0.64" stop-color="#EB00E3"/>
<stop offset="0.69" stop-color="#E601E3"/>
<stop offset="0.75" stop-color="#D805E6"/>
<stop offset="0.81" stop-color="#C20BEA"/>
<stop offset="0.88" stop-color="#A314EF"/>
<stop offset="0.94" stop-color="#7B20F7"/>
<stop offset="1" stop-color="#502DFF"/>
</radialGradient>
<radialGradient id="paint1_radial_47_6714" cx="0" cy="0" r="1" gradientUnits="userSpaceOnUse" gradientTransform="translate(29.3904 60.0709) rotate(5.60137) scale(56.2161 55.4479)">
<stop stop-color="#FFE11F"/>
<stop offset="1" stop-color="#EB00E3"/>
</radialGradient>
<radialGradient id="paint2_radial_47_6714" cx="0" cy="0" r="1" gradientUnits="userSpaceOnUse" gradientTransform="translate(29.3995 74.4028) rotate(5.60137) scale(52.5353 51.8174)">
<stop stop-color="#FFD500"/>
<stop offset="0.49" stop-color="#FF73FF"/>
<stop offset="1" stop-color="#9100E0"/>
</radialGradient>
<radialGradient id="paint3_radial_47_6714" cx="0" cy="0" r="1" gradientUnits="userSpaceOnUse" gradientTransform="translate(25.3978 68.7167) rotate(5.60137) scale(72.6152 71.623)">
<stop stop-color="#FFB81F"/>
<stop offset="0.6" stop-color="#DB00D3"/>
<stop offset="1" stop-color="#5900CC"/>
</radialGradient>
<radialGradient id="paint4_radial_47_6714" cx="0" cy="0" r="1" gradientUnits="userSpaceOnUse" gradientTransform="translate(10.3802 60.0802) rotate(5.60137) scale(86.8573 85.6704)">
<stop stop-color="#FFE11F"/>
<stop offset="0.6" stop-color="#FF22F7"/>
<stop offset="1" stop-color="#6300E3"/>
</radialGradient>
<radialGradient id="paint5_radial_47_6714" cx="0" cy="0" r="1" gradientUnits="userSpaceOnUse" gradientTransform="translate(9.0827 78.4464) rotate(5.60137) scale(80.0339 78.9402)">
<stop stop-color="#FFD500"/>
<stop offset="0.49" stop-color="#FF73FF"/>
<stop offset="1" stop-color="#9100E0"/>
</radialGradient>
<radialGradient id="paint6_radial_47_6714" cx="0" cy="0" r="1" gradientUnits="userSpaceOnUse" gradientTransform="translate(21.9733 103.852) rotate(5.60137) scale(65.7632 64.8646)">
<stop stop-color="#E600DD"/>
<stop offset="0.78" stop-color="#5900CC"/>
<stop offset="1" stop-color="#335BCC"/>
</radialGradient>
<radialGradient id="paint7_radial_47_6714" cx="0" cy="0" r="1" gradientUnits="userSpaceOnUse" gradientTransform="translate(4.56429 106.923) rotate(5.60137) scale(89.6095 88.3851)">
<stop stop-color="#FFB81F"/>
<stop offset="0.6" stop-color="#DB00D3"/>
<stop offset="1" stop-color="#5900CC"/>
</radialGradient>
<radialGradient id="paint8_radial_47_6714" cx="0" cy="0" r="1" gradientUnits="userSpaceOnUse" gradientTransform="translate(14.7851 120.411) rotate(5.60137) scale(78.5434 77.4702)">
<stop stop-color="#FFD500"/>
<stop offset="0.49" stop-color="#FF73FF"/>
<stop offset="1" stop-color="#9100E0"/>
</radialGradient>
<radialGradient id="paint9_radial_47_6714" cx="0" cy="0" r="1" gradientUnits="userSpaceOnUse" gradientTransform="translate(41.9041 127.077) rotate(5.60137) scale(58.3969 57.5989)">
<stop stop-color="#E600DD"/>
<stop offset="0.78" stop-color="#5900CC"/>
<stop offset="1" stop-color="#335BCC"/>
</radialGradient>
<radialGradient id="paint10_radial_47_6714" cx="0" cy="0" r="1" gradientUnits="userSpaceOnUse" gradientTransform="translate(23.8097 139.833) rotate(5.60137) scale(67.4536 66.5319)">
<stop stop-color="#FFB81F"/>
<stop offset="0.6" stop-color="#DB00D3"/>
<stop offset="1" stop-color="#5900CC"/>
</radialGradient>
<radialGradient id="paint11_radial_47_6714" cx="0" cy="0" r="1" gradientUnits="userSpaceOnUse" gradientTransform="translate(25.0002 148.004) rotate(5.60137) scale(67.7107 66.7855)">
<stop stop-color="#FFD500"/>
<stop offset="0.49" stop-color="#FF73FF"/>
<stop offset="1" stop-color="#9100E0"/>
</radialGradient>
<radialGradient id="paint12_radial_47_6714" cx="0" cy="0" r="1" gradientUnits="userSpaceOnUse" gradientTransform="translate(50.3976 149.959) rotate(5.60137) scale(46.1357 45.5052)">
<stop stop-color="#E600DD"/>
<stop offset="0.78" stop-color="#5900CC"/>
<stop offset="1" stop-color="#335BCC"/>
</radialGradient>
<radialGradient id="paint13_radial_47_6714" cx="0" cy="0" r="1" gradientUnits="userSpaceOnUse" gradientTransform="translate(43.0181 166.375) rotate(5.60137) scale(59.3064 58.496)">
<stop stop-color="#FFB81F"/>
<stop offset="0.6" stop-color="#DB00D3"/>
<stop offset="1" stop-color="#5900CC"/>
</radialGradient>
<radialGradient id="paint14_radial_47_6714" cx="0" cy="0" r="1" gradientUnits="userSpaceOnUse" gradientTransform="translate(46.2638 170.727) rotate(5.60138) scale(54.7019 53.9544)">
<stop stop-color="#FFD500"/>
<stop offset="0.49" stop-color="#FF73FF"/>
<stop offset="1" stop-color="#9100E0"/>
</radialGradient>
<radialGradient id="paint15_radial_47_6714" cx="0" cy="0" r="1" gradientUnits="userSpaceOnUse" gradientTransform="translate(255.215 69.4487) rotate(174.399) scale(57.2779 56.4952)">
<stop stop-color="#00FFDD"/>
<stop offset="1" stop-color="#6F27FF"/>
</radialGradient>
<radialGradient id="paint16_radial_47_6714" cx="0" cy="0" r="1" gradientUnits="userSpaceOnUse" gradientTransform="translate(260.638 60.0165) rotate(174.399) scale(56.2161 55.4479)">
<stop stop-color="#00FFDD"/>
<stop offset="1" stop-color="#6F27FF"/>
</radialGradient>
<radialGradient id="paint17_radial_47_6714" cx="0" cy="0" r="1" gradientUnits="userSpaceOnUse" gradientTransform="translate(260.624 74.349) rotate(174.399) scale(52.5353 51.8174)">
<stop stop-color="#4AFFFF"/>
<stop offset="1" stop-color="#6319FF"/>
</radialGradient>
<radialGradient id="paint18_radial_47_6714" cx="0" cy="0" r="1" gradientUnits="userSpaceOnUse" gradientTransform="translate(264.626 68.6628) rotate(174.399) scale(72.6152 71.623)">
<stop stop-color="#00FFDD"/>
<stop offset="1" stop-color="#6F27FF"/>
</radialGradient>
<radialGradient id="paint19_radial_47_6714" cx="0" cy="0" r="1" gradientUnits="userSpaceOnUse" gradientTransform="translate(279.648 60.0258) rotate(174.399) scale(86.8573 85.6704)">
<stop stop-color="#00FFDD"/>
<stop offset="1" stop-color="#6F27FF"/>
</radialGradient>
<radialGradient id="paint20_radial_47_6714" cx="0" cy="0" r="1" gradientUnits="userSpaceOnUse" gradientTransform="translate(280.941 78.3926) rotate(174.399) scale(80.0338 78.9402)">
<stop stop-color="#4AFFFF"/>
<stop offset="1" stop-color="#6319FF"/>
</radialGradient>
<radialGradient id="paint21_radial_47_6714" cx="0" cy="0" r="1" gradientUnits="userSpaceOnUse" gradientTransform="translate(268.051 103.798) rotate(174.399) scale(65.7632 64.8646)">
<stop stop-color="#00FFDD"/>
<stop offset="1" stop-color="#6F27FF"/>
</radialGradient>
<radialGradient id="paint22_radial_47_6714" cx="0" cy="0" r="1" gradientUnits="userSpaceOnUse" gradientTransform="translate(285.46 106.869) rotate(174.399) scale(89.6095 88.3851)">
<stop stop-color="#00FFDD"/>
<stop offset="1" stop-color="#6F27FF"/>
</radialGradient>
<radialGradient id="paint23_radial_47_6714" cx="0" cy="0" r="1" gradientUnits="userSpaceOnUse" gradientTransform="translate(275.238 120.357) rotate(174.399) scale(78.5434 77.4702)">
<stop stop-color="#4AFFFF"/>
<stop offset="1" stop-color="#6319FF"/>
</radialGradient>
<radialGradient id="paint24_radial_47_6714" cx="0" cy="0" r="1" gradientUnits="userSpaceOnUse" gradientTransform="translate(248.125 127.023) rotate(174.399) scale(58.3969 57.5989)">
<stop stop-color="#00FFDD"/>
<stop offset="1" stop-color="#6F27FF"/>
</radialGradient>
<radialGradient id="paint25_radial_47_6714" cx="0" cy="0" r="1" gradientUnits="userSpaceOnUse" gradientTransform="translate(266.219 139.779) rotate(174.399) scale(67.4536 66.5319)">
<stop stop-color="#00FFDD"/>
<stop offset="1" stop-color="#6F27FF"/>
</radialGradient>
<radialGradient id="paint26_radial_47_6714" cx="0" cy="0" r="1" gradientUnits="userSpaceOnUse" gradientTransform="translate(265.024 147.95) rotate(174.399) scale(67.7107 66.7855)">
<stop stop-color="#4AFFFF"/>
<stop offset="1" stop-color="#6319FF"/>
</radialGradient>
<radialGradient id="paint27_radial_47_6714" cx="0" cy="0" r="1" gradientUnits="userSpaceOnUse" gradientTransform="translate(239.631 149.904) rotate(174.399) scale(46.1357 45.5052)">
<stop stop-color="#00FFDD"/>
<stop offset="1" stop-color="#6F27FF"/>
</radialGradient>
<radialGradient id="paint28_radial_47_6714" cx="0" cy="0" r="1" gradientUnits="userSpaceOnUse" gradientTransform="translate(247.011 166.32) rotate(174.399) scale(59.3064 58.496)">
<stop stop-color="#00FFDD"/>
<stop offset="1" stop-color="#6F27FF"/>
</radialGradient>
<radialGradient id="paint29_radial_47_6714" cx="0" cy="0" r="1" gradientUnits="userSpaceOnUse" gradientTransform="translate(243.76 170.673) rotate(174.399) scale(54.7019 53.9544)">
<stop stop-color="#4AFFFF"/>
<stop offset="1" stop-color="#6319FF"/>
</radialGradient>
<linearGradient id="paint30_linear_47_6714" x1="145.664" y1="94.5146" x2="145.664" y2="7.28735" gradientUnits="userSpaceOnUse">
<stop stop-color="#FDE403"/>
<stop offset="1" stop-color="#EA8D00"/>
</linearGradient>
<linearGradient id="paint31_linear_47_6714" x1="96.2807" y1="57.5376" x2="101.558" y2="187.827" gradientUnits="userSpaceOnUse">
<stop stop-color="#FDE403"/>
<stop offset="1" stop-color="#E57D00"/>
</linearGradient>
<linearGradient id="paint32_linear_47_6714" x1="199.034" y1="57.5822" x2="193.756" y2="187.871" gradientUnits="userSpaceOnUse">
<stop stop-color="#FDE403"/>
<stop offset="1" stop-color="#E57D00"/>
</linearGradient>
<linearGradient id="paint33_linear_47_6714" x1="147.259" y1="5.2118" x2="147.259" y2="78.5581" gradientUnits="userSpaceOnUse">
<stop offset="0.02" stop-color="#FFED50"/>
<stop offset="0.51" stop-color="#FDE403"/>
<stop offset="1" stop-color="#E57D00"/>
</linearGradient>
<linearGradient id="paint34_linear_47_6714" x1="167.575" y1="57.2491" x2="182.512" y2="83.7936" gradientUnits="userSpaceOnUse">
<stop stop-color="#FDE403"/>
<stop offset="1" stop-color="#EA8D00"/>
</linearGradient>
<linearGradient id="paint35_linear_47_6714" x1="147.56" y1="61.9175" x2="194.015" y2="61.9175" gradientUnits="userSpaceOnUse">
<stop offset="0.02" stop-color="#FFED50"/>
<stop offset="0.51" stop-color="#FDE403"/>
<stop offset="1" stop-color="#E57D00"/>
</linearGradient>
<linearGradient id="paint36_linear_47_6714" x1="127.895" y1="57.2487" x2="112.958" y2="83.7932" gradientUnits="userSpaceOnUse">
<stop stop-color="#FDE403"/>
<stop offset="1" stop-color="#EA8D00"/>
</linearGradient>
<linearGradient id="paint37_linear_47_6714" x1="124.871" y1="53.0754" x2="124.413" y2="77.7341" gradientUnits="userSpaceOnUse">
<stop offset="0.02" stop-color="#FFED50"/>
<stop offset="0.51" stop-color="#FDE403"/>
<stop offset="1" stop-color="#E57D00"/>
</linearGradient>
<linearGradient id="paint38_linear_47_6714" x1="145.044" y1="55.5638" x2="150.317" y2="185.849" gradientUnits="userSpaceOnUse">
<stop stop-color="#FDE403"/>
<stop offset="1" stop-color="#E57D00"/>
</linearGradient>
<linearGradient id="paint39_linear_47_6714" x1="106.406" y1="163.83" x2="94.4619" y2="143.751" gradientUnits="userSpaceOnUse">
<stop stop-color="#FDE403"/>
<stop offset="1" stop-color="#E57D00"/>
</linearGradient>
<linearGradient id="paint40_linear_47_6714" x1="188.431" y1="163.83" x2="200.371" y2="143.755" gradientUnits="userSpaceOnUse">
<stop stop-color="#FDE403"/>
<stop offset="1" stop-color="#E57D00"/>
</linearGradient>
</defs>
</svg>
