<svg width="24" height="24" viewBox="0 0 24 24" fill="none" xmlns="http://www.w3.org/2000/svg">
<path d="M0 2.25C0 1.00736 1.00736 0 2.25 0H17.75C18.9926 0 20 1.00736 20 2.25V13.75C20 14.9926 18.9926 16 17.75 16H2.25C1.00736 16 0 14.9926 0 13.75V2.25ZM2.25 1.5C1.83579 1.5 1.5 1.83579 1.5 2.25V13.75C1.5 14.1642 1.83579 14.5 2.25 14.5H17.75C18.1642 14.5 18.5 14.1642 18.5 13.75V2.25C18.5 1.83579 18.1642 1.5 17.75 1.5H2.25ZM9.99973 3.24547C10.1987 3.2454 10.3896 3.32443 10.5303 3.46514L13.7848 6.71966C14.0777 7.01255 14.0777 7.48742 13.7848 7.78032C13.4919 8.07321 13.0171 8.07321 12.7242 7.78032L10.75 5.80613V12.2528C10.75 12.667 10.4142 13.0028 9.99999 13.0028C9.58578 13.0028 9.24999 12.667 9.24999 12.2528V5.80791L7.2807 7.77995C6.98801 8.07305 6.51314 8.07338 6.22004 7.78069C5.92694 7.488 5.92661 7.01312 6.2193 6.72003L9.46929 3.46551C9.60991 3.3247 9.80073 3.24554 9.99973 3.24547Z" fill="#212121"/>
</svg>
