<svg width="20" height="20" viewBox="0 0 20 20" fill="none" xmlns="http://www.w3.org/2000/svg">
<path d="M0 4C0 1.79086 1.79086 0 4 0H16C18.2091 0 20 1.79086 20 4V16C20 18.2091 18.2091 20 16 20H4C1.79086 20 0 18.2091 0 16V4Z" fill="#FD9246"/>
<g clip-path="url(#clip0_5854_6313)">
<path d="M17.3888 14.7768C17.7894 14.1653 18 13.491 18 12.813C18 10.5483 15.806 8.70005 13.0667 8.60352C12.4284 10.5083 10.5272 12.103 7.73612 12.3032C7.71147 12.4716 7.6875 12.6404 7.6875 12.8131C7.6875 15.1394 10.0006 17.0318 12.8437 17.0318C13.8183 17.0318 14.7645 16.8043 15.594 16.3717L17.3742 17.0048C17.5413 17.0645 17.7335 17.0244 17.8632 16.894C17.9909 16.7659 18.0334 16.5755 17.9726 16.4047L17.3888 14.7768ZM11.4375 13.2818C11.4375 13.5409 11.2278 13.7505 10.9687 13.7505C10.7096 13.7505 10.5 13.5409 10.5 13.2818V12.3443C10.5 12.0852 10.7096 11.8755 10.9687 11.8755C11.2278 11.8755 11.4375 12.0852 11.4375 12.3443V13.2818ZM13.3125 13.2818C13.3125 13.5409 13.1028 13.7505 12.8437 13.7505C12.5846 13.7505 12.375 13.5409 12.375 13.2818V12.3443C12.375 12.0852 12.5846 11.8755 12.8437 11.8755C13.1028 11.8755 13.3125 12.0852 13.3125 12.3443V13.2818ZM15.1875 13.2818C15.1875 13.5409 14.9778 13.7505 14.7187 13.7505C14.4596 13.7505 14.25 13.5409 14.25 13.2818V12.3443C14.25 12.0852 14.4596 11.8755 14.7187 11.8755C14.9778 11.8755 15.1875 12.0852 15.1875 12.3443V13.2818Z" fill="white"/>
<path d="M7.15625 2.96898C6.18075 2.96898 5.23503 3.19648 4.406 3.62907L2.62575 2.99598C2.45547 2.9351 2.26459 2.97813 2.13688 3.10676C2.00916 3.23495 1.96659 3.42535 2.02747 3.5961L2.61112 5.22391C2.21056 5.83548 2 6.50976 2 7.18773C2 9.51407 4.31309 11.4065 7.15625 11.4065C9.93003 11.4065 12.3125 9.57535 12.3125 7.18773C12.3125 4.86135 9.99941 2.96898 7.15625 2.96898ZM7.15625 9.53148C6.89738 9.53148 6.6875 9.3216 6.6875 9.06273C6.6875 8.80379 6.89738 8.59398 7.15625 8.59398C7.41512 8.59398 7.625 8.80379 7.625 9.06273C7.625 9.32157 7.41512 9.53148 7.15625 9.53148ZM7.63094 7.57451C7.63094 7.83313 7.41806 8.08401 7.15944 8.08401C6.90034 8.08401 6.68747 7.91554 6.68747 7.65645C6.68747 7.18357 6.93969 6.82607 7.31459 6.69195C7.5 6.6251 7.62497 6.44795 7.62497 6.2502C7.62497 5.99157 7.41484 5.78145 7.15622 5.78145C6.89759 5.78145 6.68747 5.99157 6.68747 6.2502C6.68747 6.50929 6.47781 6.71895 6.21872 6.71895C5.95962 6.71895 5.74997 6.50929 5.74997 6.2502C5.74997 5.47476 6.38078 4.84395 7.15622 4.84395C7.93166 4.84395 8.56247 5.47476 8.56247 6.2502C8.5625 6.8421 8.18806 7.37448 7.63094 7.57451Z" fill="white"/>
</g>
<defs>
<clipPath id="clip0_5854_6313">
<rect width="16" height="16" fill="white" transform="translate(2 2)"/>
</clipPath>
</defs>
</svg>
