<svg width="20" height="20" viewBox="0 0 20 20" fill="none" xmlns="http://www.w3.org/2000/svg">
<rect width="20" height="20" rx="4" fill="#106EBE"/>
<path d="M11.7072 7.67188C11.6674 7.29972 11.4998 7.00994 11.2044 6.80256C10.9118 6.59517 10.5311 6.49148 10.0623 6.49148C9.73278 6.49148 9.45011 6.54119 9.21431 6.64062C8.97852 6.74006 8.79812 6.875 8.67312 7.04545C8.54812 7.21591 8.4842 7.41051 8.48136 7.62926C8.48136 7.81108 8.52255 7.96875 8.60494 8.10227C8.69016 8.2358 8.80522 8.34943 8.95011 8.44318C9.09499 8.53409 9.2555 8.6108 9.43164 8.6733C9.60778 8.7358 9.78533 8.78835 9.96431 8.83097L10.7825 9.03551C11.112 9.11222 11.4288 9.21591 11.7328 9.34659C12.0396 9.47727 12.3137 9.64205 12.5552 9.84091C12.7995 10.0398 12.9927 10.2798 13.1348 10.5611C13.2768 10.8423 13.3478 11.1719 13.3478 11.5497C13.3478 12.0611 13.2172 12.5114 12.9558 12.9006C12.6944 13.2869 12.3166 13.5895 11.8223 13.8082C11.3308 14.0241 10.7356 14.1321 10.0368 14.1321C9.35778 14.1321 8.76829 14.027 8.26829 13.8168C7.77113 13.6065 7.38192 13.2997 7.10067 12.8963C6.82227 12.4929 6.6717 12.0014 6.64897 11.4219H8.20437C8.2271 11.7259 8.32085 11.9787 8.48562 12.1804C8.65039 12.3821 8.86488 12.5327 9.12908 12.6321C9.39613 12.7315 9.69442 12.7812 10.024 12.7812C10.3677 12.7812 10.6689 12.7301 10.9274 12.6278C11.1887 12.5227 11.3933 12.3778 11.541 12.1932C11.6887 12.0057 11.764 11.7869 11.7669 11.5369C11.764 11.3097 11.6973 11.1222 11.5666 10.9744C11.4359 10.8239 11.2527 10.6989 11.0169 10.5994C10.7839 10.4972 10.5112 10.4062 10.1987 10.3267L9.20579 10.071C8.48704 9.88636 7.91886 9.60653 7.50124 9.23153C7.08647 8.85369 6.87908 8.35227 6.87908 7.72727C6.87908 7.21307 7.01829 6.76278 7.2967 6.37642C7.57795 5.99006 7.96005 5.69034 8.443 5.47727C8.92596 5.26136 9.47283 5.15341 10.0836 5.15341C10.7029 5.15341 11.2456 5.26136 11.7115 5.47727C12.1802 5.69034 12.5481 5.98722 12.8152 6.3679C13.0822 6.74574 13.22 7.1804 13.2285 7.67188H11.7072Z" fill="white"/>
</svg>
