<svg width="20" height="20" viewBox="0 0 20 20" fill="none" xmlns="http://www.w3.org/2000/svg">
<path d="M0 4C0 1.79086 1.79086 0 4 0H16C18.2091 0 20 1.79086 20 4V16C20 18.2091 18.2091 20 16 20H4C1.79086 20 0 18.2091 0 16V4Z" fill="#F67B94"/>
<path d="M4.77863 6.71949L9.19359 7.82325H10.8066L15.2215 6.71949C15.6041 6.62387 15.8725 6.28012 15.8725 5.88578V5.38835C15.8725 4.83462 15.4236 4.38574 14.8699 4.38574H12.1485V3.95606C12.1485 3.24527 11.5703 2.66699 10.8595 2.66699H9.14071C8.42992 2.66699 7.85165 3.24527 7.85165 3.95606V4.38574H5.13029C4.57657 4.38574 4.12769 4.83462 4.12769 5.38835V5.88578C4.12769 6.28012 4.39607 6.62387 4.77863 6.71949ZM8.71102 3.95606C8.71102 3.71913 8.90378 3.52637 9.14071 3.52637H10.8595C11.0964 3.52637 11.2892 3.71913 11.2892 3.95606V4.38574H8.71102V3.95606Z" fill="white"/>
<path d="M10 9.54199C10.2369 9.54199 10.4297 9.34924 10.4297 9.11231V8.68262H9.57031V9.11231C9.57031 9.34924 9.76307 9.54199 10 9.54199Z" fill="white"/>
<path d="M15.2997 11.4041V7.58597L11.2892 8.58857V9.11245C11.2892 9.82324 10.711 10.4015 10.0002 10.4015C9.28938 10.4015 8.7111 9.82324 8.7111 9.11245V8.58854L4.70068 7.58594V11.4041C4.70068 12.1149 5.27896 12.6932 5.98975 12.6932H14.0106C14.7214 12.6932 15.2997 12.1149 15.2997 11.4041Z" fill="white"/>
<path d="M11.4498 15.454C11.282 15.2862 11.0099 15.2862 10.8421 15.454L10.4298 15.8663V14.0391C10.4298 13.8018 10.2374 13.6094 10.0001 13.6094C9.7628 13.6094 9.57041 13.8018 9.57041 14.0391V15.8663L9.15808 15.454C8.99027 15.2862 8.71822 15.2862 8.55042 15.454C8.38261 15.6218 8.38261 15.8938 8.55042 16.0616L9.69625 17.2075C9.86406 17.3753 10.1361 17.3753 10.3039 17.2075L11.4498 16.0616C11.6176 15.8939 11.6176 15.6218 11.4498 15.454Z" fill="white"/>
<path d="M16.9042 13.9374C16.6669 13.9374 16.4745 14.1297 16.4745 14.367V14.9501L15.1825 13.6581C15.0147 13.4903 14.7426 13.4903 14.5748 13.6581C14.407 13.8259 14.407 14.0979 14.5748 14.2657L15.8669 15.5578H15.2838C15.0465 15.5578 14.8541 15.7502 14.8541 15.9875C14.8541 16.2248 15.0465 16.4172 15.2838 16.4172H16.9042C17.1415 16.4172 17.3339 16.2248 17.3339 15.9875V14.367C17.3339 14.1297 17.1415 13.9374 16.9042 13.9374Z" fill="white"/>
<path d="M4.81817 13.6581L3.52612 14.9501V14.367C3.52612 14.1297 3.33374 13.9374 3.09644 13.9374C2.85913 13.9374 2.66675 14.1297 2.66675 14.367V15.9875C2.66675 16.2248 2.85913 16.4172 3.09644 16.4172H4.71688C4.95418 16.4172 5.14656 16.2248 5.14656 15.9875C5.14656 15.7502 4.95418 15.5578 4.71688 15.5578H4.13379L5.42583 14.2657C5.59364 14.0979 5.59364 13.8259 5.42583 13.6581C5.25802 13.4903 4.98597 13.4903 4.81817 13.6581Z" fill="white"/>
</svg>
