<svg width="24" height="24" viewBox="0 0 24 24" fill="none" xmlns="http://www.w3.org/2000/svg">
<path d="M0 9C0 10.8026 1.55468 12.653 4.22176 12.9567C3.93668 12.6043 3.69426 12.216 3.50235 11.7996C1.88187 11.333 1 10.1281 1 9V8.5C1 8.22386 1.22386 8 1.5 8H3.20703C3.30564 7.65136 3.43777 7.31679 3.59971 7H1.5C0.671573 7 0 7.67157 0 8.5V9ZM7.75 3.25C7.75 3.53525 7.70657 3.81036 7.62596 4.06907C7.14016 4.14664 6.67558 4.28783 6.24104 4.48382C6.55561 4.16743 6.75 3.73141 6.75 3.25C6.75 2.2835 5.9665 1.5 5 1.5C4.0335 1.5 3.25 2.2835 3.25 3.25C3.25 4.2165 4.0335 5 5 5C5.13934 5 5.27488 4.98371 5.40482 4.95294C5.00446 5.226 4.64202 5.55055 4.32704 5.91706C3.13357 5.61687 2.25 4.53662 2.25 3.25C2.25 1.73122 3.48122 0.5 5 0.5C6.51878 0.5 7.75 1.73122 7.75 3.25ZM13 9.5C13 11.9853 10.9853 14 8.5 14C6.01472 14 4 11.9853 4 9.5C4 7.01472 6.01472 5 8.5 5C10.9853 5 13 7.01472 13 9.5ZM8.5 7C8.22386 7 8 7.22386 8 7.5V9.5C8 9.77614 8.22386 10 8.5 10H10C10.2761 10 10.5 9.77614 10.5 9.5C10.5 9.22386 10.2761 9 10 9H9V7.5C9 7.22386 8.77614 7 8.5 7Z" fill="#212121"/>
</svg>
