<svg width="20" height="20" viewBox="0 0 20 20" fill="none" xmlns="http://www.w3.org/2000/svg">
<rect width="20" height="20" rx="4" fill="#FFD422"/>
<path d="M5.49258 6.27243C5.93986 6.27243 6.30423 5.90846 6.30423 5.46078V2.729L2.81055 6.22269C2.89709 6.25423 2.9901 6.27243 3.08757 6.27243H5.49258Z" fill="white"/>
<path fill-rule="evenodd" clip-rule="evenodd" d="M6.99116 2.6665H15.0631C16.3164 2.6665 17.3327 3.68238 17.3327 4.93604V15.0636C17.3327 16.3173 16.3164 17.3332 15.0631 17.3332H4.93555C3.68189 17.3332 2.66602 16.3169 2.66602 15.0636V6.89944C2.79987 6.93867 2.94101 6.9601 3.087 6.9601H5.49202C6.31863 6.9601 6.99116 6.28757 6.99116 5.46096V2.6665ZM14.2946 9.76588C15.1167 8.9413 15.1167 7.60715 14.2946 6.78257C13.4696 5.96405 12.1379 5.96526 11.3149 6.7858L7.97166 10.129C7.44593 10.6552 7.44593 11.5077 7.97166 12.0338C8.50467 12.5421 9.343 12.5421 9.87642 12.0338L11.8176 10.0926C11.9862 9.92401 11.9862 9.65063 11.8176 9.48199C11.6489 9.31335 11.3756 9.31335 11.2069 9.48199L9.26212 11.4195C9.07326 11.6084 8.76753 11.6084 8.57867 11.4195C8.38982 11.2306 8.38982 10.9249 8.57867 10.7361L11.9219 7.39282C12.4145 6.92209 13.1905 6.92209 13.6835 7.39282L13.6847 7.39403C14.1704 7.88053 14.17 8.66913 13.6835 9.15482L9.69322 13.1451C8.91352 13.9046 7.67037 13.9046 6.89068 13.1451C6.09602 12.3711 6.07903 11.0996 6.85307 10.305L9.44127 7.71675C9.60991 7.54811 9.60991 7.27473 9.44127 7.10609C9.27264 6.93745 8.99926 6.93745 8.83062 7.10609L6.24241 9.6943C5.12058 10.8161 5.12058 12.6343 6.24241 13.7562C7.36424 14.8776 9.18245 14.8776 10.3043 13.7562L14.2946 9.76588Z" fill="white"/>
</svg>
