<svg width="20" height="20" viewBox="0 0 20 20" fill="none" xmlns="http://www.w3.org/2000/svg">
<g clip-path="url(#clip0_6802_67856)">
<path d="M15.5729 15.5729V11.0937H13.3333V15.5729H15.5729ZM11.0937 15.5729V4.42708H8.90625V15.5729H11.0937ZM6.66667 15.5729V7.76042H4.42708V15.5729H6.66667ZM17.7604 0C18.3507 0 18.8715 0.225694 19.3229 0.677083C19.7743 1.12847 20 1.64931 20 2.23958V17.7604C20 18.3507 19.7743 18.8715 19.3229 19.3229C18.8715 19.7743 18.3507 20 17.7604 20H2.23958C1.64931 20 1.12847 19.7743 0.677083 19.3229C0.225694 18.8715 0 18.3507 0 17.7604V2.23958C0 1.64931 0.225694 1.12847 0.677083 0.677083C1.12847 0.225694 1.64931 0 2.23958 0H17.7604Z" fill="#FF0099"/>
</g>
<defs>
<clipPath id="clip0_6802_67856">
<rect width="20" height="20" rx="4" fill="white"/>
</clipPath>
</defs>
</svg>
