<svg width="24" height="24" viewBox="0 0 24 24" fill="none" xmlns="http://www.w3.org/2000/svg">
<path d="M0 4C0 1.79086 1.79086 0 4 0H16C18.2091 0 20 1.79086 20 4V16C20 18.2091 18.2091 20 16 20H4C1.79086 20 0 18.2091 0 16V4Z" fill="#977BF5"/>
<g clip-path="url(#clip0_5854_6504)">
<path d="M10.5882 5.06337H10.3941C10.8054 4.96668 11.1668 4.72222 11.4096 4.37647C11.6523 4.03072 11.7596 3.6078 11.7109 3.18814C11.6623 2.76847 11.4611 2.38133 11.1456 2.10033C10.8301 1.81933 10.4224 1.66406 9.99988 1.66406C9.57741 1.66406 9.16966 1.81933 8.85419 2.10033C8.53871 2.38133 8.33751 2.76847 8.28883 3.18814C8.24016 3.6078 8.34742 4.03072 8.59021 4.37647C8.833 4.72222 9.19438 4.96668 9.60565 5.06337H9.42369C8.87999 5.06337 8.35855 5.27936 7.97409 5.66382C7.58964 6.04827 7.37365 6.56971 7.37365 7.11341C7.36692 7.19226 7.37667 7.27165 7.40229 7.34652C7.42791 7.42139 7.46884 7.49011 7.52246 7.5483C7.57609 7.6065 7.64125 7.65289 7.71378 7.68452C7.78632 7.71616 7.86465 7.73235 7.94378 7.73206H12.056C12.1325 7.73206 12.2082 7.717 12.2788 7.68774C12.3495 7.65848 12.4136 7.61559 12.4677 7.56152C12.5218 7.50746 12.5647 7.44327 12.5939 7.37262C12.6232 7.30198 12.6382 7.22627 12.6382 7.1498C12.6431 6.87754 12.5936 6.60705 12.4928 6.35411C12.3919 6.10117 12.2417 5.87086 12.0508 5.67663C11.86 5.48239 11.6323 5.32812 11.3812 5.22283C11.1301 5.11754 10.8605 5.06333 10.5882 5.06337Z" fill="white"/>
<path d="M5.21456 14.295H5.0326C5.44716 14.1982 5.81167 13.9524 6.05674 13.6044C6.3018 13.2563 6.41032 12.8302 6.36162 12.4073C6.31293 11.9844 6.11043 11.5942 5.79266 11.3109C5.4749 11.0276 5.06406 10.8711 4.63836 10.8711C4.21266 10.8711 3.80183 11.0276 3.48406 11.3109C3.1663 11.5942 2.9638 11.9844 2.9151 12.4073C2.86641 12.8302 2.97492 13.2563 3.21999 13.6044C3.46506 13.9524 3.82957 14.1982 4.24412 14.295H4.05004C3.50633 14.295 2.9849 14.511 2.60044 14.8954C2.21599 15.2799 2 15.8013 2 16.345C2 16.4995 2.06135 16.6476 2.17054 16.7568C2.27973 16.8659 2.42783 16.9273 2.58226 16.9273H6.68234C6.83676 16.9273 6.98486 16.8659 7.09406 16.7568C7.20325 16.6476 7.2646 16.4995 7.2646 16.345C7.2646 16.0758 7.21157 15.8092 7.10854 15.5605C7.00552 15.3118 6.85452 15.0858 6.66415 14.8954C6.47379 14.7051 6.24779 14.5541 5.99907 14.451C5.75035 14.348 5.48377 14.295 5.21456 14.295Z" fill="white"/>
<path d="M15.9497 14.21H15.7677C16.1823 14.1133 16.5468 13.8675 16.7918 13.5194C17.0369 13.1713 17.1454 12.7453 17.0967 12.3224C17.048 11.8995 16.8455 11.5092 16.5278 11.2259C16.21 10.9427 15.7992 10.7861 15.3735 10.7861C14.9478 10.7861 14.5369 10.9427 14.2192 11.2259C13.9014 11.5092 13.6989 11.8995 13.6502 12.3224C13.6015 12.7453 13.71 13.1713 13.9551 13.5194C14.2002 13.8675 14.5647 14.1133 14.9792 14.21H14.7851C14.2477 14.21 13.7317 14.4209 13.3483 14.7976C12.9648 15.1742 12.7446 15.6863 12.7351 16.2237C12.7382 16.3771 12.8005 16.5234 12.9091 16.632C13.0176 16.7405 13.1639 16.8028 13.3174 16.8059H17.4296C17.5819 16.8028 17.7269 16.74 17.8335 16.6312C17.9401 16.5223 17.9997 16.376 17.9997 16.2237C17.9902 15.6863 17.77 15.1742 17.3865 14.7976C17.0031 14.4209 16.4871 14.21 15.9497 14.21Z" fill="white"/>
<path d="M16.7871 8.70228C16.6944 8.6126 16.5704 8.56247 16.4414 8.56247C16.3124 8.56247 16.1884 8.6126 16.0957 8.70228L15.9259 8.85997C15.7896 7.79246 15.3717 6.78042 14.7151 5.92773C14.2034 5.26312 13.561 4.71397 12.8303 4.31247C12.533 4.14914 12.1897 4.3784 12.1897 4.71755C12.1897 4.89947 12.2939 5.06398 12.4522 5.15366C13.0478 5.49118 13.5721 5.94317 13.9942 6.48459C14.4773 7.10424 14.8142 7.82501 14.9797 8.5931C14.8949 8.53192 14.7931 8.49899 14.6886 8.49899C14.584 8.49899 14.4822 8.53192 14.3974 8.5931C14.3516 8.63825 14.3152 8.69207 14.2903 8.75142C14.2655 8.81077 14.2527 8.87448 14.2527 8.93882C14.2527 9.00317 14.2655 9.06687 14.2903 9.12622C14.3152 9.18557 14.3516 9.23939 14.3974 9.28454L15.6105 10.4976L16.8235 9.28454C16.8795 9.19602 16.9062 9.09207 16.8997 8.98751C16.8931 8.88295 16.8537 8.78313 16.7871 8.70228Z" fill="white"/>
<path d="M3.80762 9.67326C3.81051 9.80674 3.81832 9.94003 3.83102 10.0729C3.8519 10.2912 4.04113 10.4496 4.26045 10.4496C4.53773 10.4496 4.74739 10.2003 4.72861 9.92367C4.72295 9.84032 4.71921 9.75683 4.7174 9.67326C4.71974 8.97847 4.86283 8.29136 5.13803 7.65339C5.41323 7.01543 5.81484 6.43984 6.31861 5.96135C6.31652 6.06948 6.34973 6.17534 6.41321 6.2629C6.47669 6.35046 6.56697 6.41494 6.67039 6.44657C6.73253 6.46294 6.7973 6.4668 6.86094 6.45793C6.92458 6.44907 6.98582 6.42765 7.04112 6.39492C7.09642 6.3622 7.14466 6.31881 7.18306 6.26729C7.22145 6.21577 7.24923 6.15713 7.26478 6.09479L7.68935 4.46931L6.05174 4.09327C5.92659 4.06654 5.79597 4.08789 5.68584 4.15307C5.57571 4.21824 5.49414 4.32248 5.45735 4.44505C5.43062 4.5702 5.45197 4.70083 5.51715 4.81096C5.58233 4.92109 5.68656 5.00265 5.80913 5.03944H6.00322C5.32105 5.60461 4.77097 6.31236 4.39165 7.11291C4.01233 7.91347 3.81298 8.7874 3.80762 9.67326Z" fill="white"/>
<path d="M9.76791 15.1709C9.46814 15.1364 9.17268 15.0713 8.88614 14.9768L8.95849 14.9847C9.08241 14.9465 9.18608 14.8606 9.24668 14.7459C9.30728 14.6312 9.31985 14.4972 9.28163 14.3733C9.24341 14.2494 9.15752 14.1457 9.04286 14.0851C8.9282 14.0245 8.79416 14.0119 8.67023 14.0501L7.05288 14.5566L7.5593 16.1739C7.59705 16.2954 7.68102 16.3973 7.79312 16.4574C7.90523 16.5176 8.03649 16.5314 8.15863 16.4957C8.28129 16.4557 8.38356 16.3695 8.44386 16.2554C8.50415 16.1413 8.51775 16.0083 8.48178 15.8843L8.48969 15.812C8.87497 15.9488 9.2733 16.0455 9.67839 16.1007C10.6849 16.2013 11.6995 16.0524 12.6328 15.669C12.7751 15.6106 12.8706 15.4765 12.8873 15.3236C12.9269 14.9621 12.5254 14.7013 12.1873 14.8351C11.4234 15.1376 10.5939 15.2548 9.76791 15.1709Z" fill="white"/>
</g>
<defs>
<clipPath id="clip0_5854_6504">
<rect width="16" height="15.26" fill="white" transform="translate(2 1.66699)"/>
</clipPath>
</defs>
</svg>
