<svg width="17" height="17" viewBox="0 0 17 17" fill="none" xmlns="http://www.w3.org/2000/svg">
<path d="M9 8C9.79531 8 10.4822 8.46422 10.8045 9.13647L9.99838 9.94257C9.96862 9.41701 9.53301 9 9 9H2C1.44772 9 1 9.44772 1 10V11.5C1 12.9071 2.57862 14 5.5 14C6.15408 14 6.74085 13.9452 7.25767 13.8444L7.05545 14.6533C7.03511 14.7346 7.0203 14.8155 7.01072 14.8957C6.54198 14.9641 6.03741 15 5.5 15C2.08805 15 0 13.5544 0 11.5V10C0 8.89543 0.89543 8 2 8H9ZM13.8075 7.54776C14.5378 6.81741 15.7219 6.81741 16.4523 7.54776C17.1826 8.27811 17.1826 9.46223 16.4523 10.1926L11.6229 15.022C11.3413 15.3036 10.9885 15.5033 10.6022 15.5999L9.10426 15.9744C8.45285 16.1372 7.86281 15.5472 8.02566 14.8958L8.40013 13.3979C8.49671 13.0116 8.69647 12.6588 8.97804 12.3772L13.8075 7.54776ZM12.5 7C12.6672 7 12.8306 6.98358 12.9887 6.95226C13.5667 6.83771 14.073 6.5239 14.4331 6.0854C14.7874 5.65396 15 5.10181 15 4.5C15 3.11929 13.8807 2 12.5 2C11.1193 2 10 3.11929 10 4.5C10 5.88071 11.1193 7 12.5 7ZM12.5 3C13.3284 3 14 3.67157 14 4.5C14 5.32843 13.3284 6 12.5 6C11.6716 6 11 5.32843 11 4.5C11 3.67157 11.6716 3 12.5 3ZM5.5 0C7.433 0 9 1.567 9 3.5C9 5.433 7.433 7 5.5 7C3.567 7 2 5.433 2 3.5C2 1.567 3.567 0 5.5 0ZM5.5 1C4.11929 1 3 2.11929 3 3.5C3 4.88071 4.11929 6 5.5 6C6.88071 6 8 4.88071 8 3.5C8 2.11929 6.88071 1 5.5 1Z" fill="#212121"/>
</svg>
