<svg width="24" height="24" viewBox="0 0 24 24" fill="none" xmlns="http://www.w3.org/2000/svg">
<path d="M6.22217 0H1.77776C0.795931 0 0 0.795931 0 1.77776V6.22217C0 7.204 0.795931 7.99993 1.77776 7.99993H6.22217C7.204 7.99993 7.99993 7.204 7.99993 6.22217V1.77776C7.99993 0.795931 7.204 0 6.22217 0Z" fill="#0078D4"/>
<path d="M18.2222 0H13.7778C12.7959 0 12 0.795931 12 1.77776V6.22217C12 7.204 12.7959 7.99993 13.7778 7.99993H18.2222C19.204 7.99993 19.9999 7.204 19.9999 6.22217V1.77776C19.9999 0.795931 19.204 0 18.2222 0Z" fill="#0078D4"/>
<path d="M6.22217 12H1.77776C0.795931 12 0 12.7959 0 13.7778V18.2222C0 19.204 0.795931 19.9999 1.77776 19.9999H6.22217C7.204 19.9999 7.99993 19.204 7.99993 18.2222V13.7778C7.99993 12.7959 7.204 12 6.22217 12Z" fill="#0078D4"/>
<path d="M16 19.9999C14.9391 19.9999 13.9217 19.5785 13.1716 18.8284C12.4214 18.0782 12 17.0608 12 16C12 14.9391 12.4214 13.9217 13.1716 13.1716C13.9217 12.4214 14.9391 12 16 12C17.0608 12 18.0782 12.4214 18.8284 13.1716C19.5785 13.9217 19.9999 14.9391 19.9999 16C19.9999 17.0608 19.5785 18.0782 18.8284 18.8284C18.0782 19.5785 17.0608 19.9999 16 19.9999Z" fill="#0078D4"/>
</svg>
