<svg width="126" height="126" viewBox="0 0 126 126" fill="none" xmlns="http://www.w3.org/2000/svg">
<g clip-path="url(#clip0_521_6006)">
<path d="M124.91 63.2687C123.685 61.3927 123.521 58.9561 124.566 56.9755C125.238 55.7049 125.514 54.2025 125.246 52.6778C124.992 51.1979 124.268 49.9198 123.26 48.9631C121.639 47.4234 120.915 45.084 121.475 42.9165C121.834 41.5263 121.759 40.0016 121.147 38.574C120.557 37.1987 119.556 36.115 118.362 35.4199C116.428 34.2913 115.189 32.191 115.233 29.9488C115.263 28.5062 114.838 27.0488 113.912 25.8006C113.016 24.5972 111.799 23.7751 110.47 23.3715C108.327 22.7212 106.632 20.9648 106.162 18.7748C105.856 17.3697 105.102 16.0468 103.922 15.0452C102.772 14.081 101.406 13.5653 100.017 13.4831C97.7849 13.3486 95.7317 12.0256 94.7685 10.0076C94.1488 8.7071 93.111 7.59345 91.7223 6.89834C90.3859 6.22567 88.9299 6.03881 87.5562 6.27799C85.3536 6.65917 83.0466 5.85196 81.6429 4.11047C80.7395 2.98934 79.4702 2.14476 77.9621 1.78599C76.5062 1.44218 75.0502 1.59914 73.7661 2.14476C71.7128 3.02671 69.2788 2.77259 67.5168 1.39734C66.382 0.515381 64.9559 -0.0078125 63.4029 -0.0078125C62.0217 -0.0078125 60.745 0.410743 59.6773 1.12079C57.7958 2.38393 55.4663 2.66795 53.3683 1.80842C52.1364 1.30765 50.7477 1.16564 49.359 1.48703C47.8956 1.82337 46.6637 2.60816 45.7528 3.66202C44.2969 5.36614 42.0047 6.21072 39.8171 5.75479C38.406 5.4633 36.8978 5.62773 35.5017 6.30788C34.1577 6.97309 33.1349 8.01947 32.5002 9.26019C31.4774 11.2483 29.4391 12.6012 27.2067 12.6684C25.7657 12.7133 24.3322 13.214 23.1376 14.2081C21.9803 15.1648 21.2262 16.4205 20.8977 17.7733C20.3601 19.9483 18.6952 21.7346 16.53 22.3176C15.1413 22.6913 13.8645 23.5135 12.9238 24.7542C12.0204 25.9501 11.5799 27.3477 11.5649 28.7379C11.5425 30.9802 10.333 33.1029 8.36939 34.1642C7.1076 34.8518 6.0474 35.9431 5.4277 37.3706C4.82294 38.7459 4.71841 40.2108 5.02452 41.5637C5.52476 43.7461 4.8304 46.093 3.16543 47.5879C2.0903 48.5446 1.32128 49.86 1.03756 51.3848C0.768775 52.8572 1.00023 54.3072 1.61246 55.5554C2.598 57.5659 2.47107 60.01 1.19435 61.8412C0.373065 63.0221 -0.0749082 64.4796 -0.000245986 66.0267C0.0744163 67.5216 0.641849 68.8819 1.52286 69.9507C2.94891 71.6772 3.38195 74.0839 2.56814 76.1692C2.03803 77.5071 1.94097 79.0243 2.37401 80.5192C2.79212 81.9542 3.65074 83.1501 4.76321 83.9872C6.54763 85.34 7.52571 87.5748 7.21213 89.7947C7.01054 91.2222 7.25692 92.7245 8.02594 94.0699C8.7651 95.3704 9.87757 96.3346 11.1468 96.8951C13.1926 97.7995 14.6634 99.7503 14.865 101.978C14.9994 103.413 15.5892 104.818 16.642 105.946C17.6648 107.045 18.964 107.718 20.3303 107.972C22.5328 108.376 24.4143 109.938 25.1236 112.06C25.579 113.428 26.4825 114.654 27.7666 115.513C29.0135 116.343 30.4396 116.702 31.8208 116.627C34.0532 116.515 36.2483 117.599 37.4279 119.497C38.1895 120.723 39.3468 121.709 40.8027 122.248C42.2063 122.771 43.6772 122.786 45.0062 122.397C47.1564 121.769 49.5307 122.315 51.121 123.892C52.1439 124.908 53.4953 125.596 55.0333 125.783C56.5191 125.962 57.9526 125.641 59.1621 124.953C61.1033 123.847 63.5523 123.825 65.4561 124.991C66.6806 125.738 68.1589 126.104 69.7044 125.932C71.1902 125.768 72.5117 125.125 73.5271 124.176C75.1622 122.651 77.5365 122.068 79.6644 122.756C81.0307 123.204 82.5538 123.212 84.0097 122.689C85.4208 122.18 86.5557 121.254 87.3247 120.095C88.5641 118.234 90.7368 117.113 92.9692 117.3C94.4027 117.419 95.881 117.075 97.1801 116.231C98.4345 115.409 99.3229 114.243 99.8082 112.942C100.585 110.842 102.444 109.257 104.654 108.914C106.072 108.697 107.439 108.024 108.506 106.896C109.537 105.812 110.134 104.466 110.306 103.084C110.575 100.864 112.016 98.8833 114.091 98.0462C115.428 97.508 116.592 96.5364 117.376 95.191C118.13 93.898 118.399 92.4555 118.242 91.0653C117.996 88.838 118.937 86.5882 120.766 85.2877C121.938 84.4506 122.856 83.2398 123.304 81.7524C123.737 80.3174 123.67 78.8524 123.2 77.5444C122.446 75.4367 122.849 73.0226 124.32 71.3409C125.268 70.2571 125.88 68.8669 125.97 67.3123C126.059 65.8174 125.656 64.4048 124.895 63.2388L124.91 63.2687Z" fill="#1FC7A7"/>
<path d="M113.147 63.2163C112.158 61.7018 112.027 59.7206 112.869 58.1242C113.417 57.0926 113.638 55.881 113.417 54.6448C113.213 53.4495 112.624 52.418 111.814 51.6403C110.505 50.3959 109.916 48.5047 110.374 46.7446C110.669 45.6148 110.603 44.3868 110.104 43.2325C109.63 42.1191 108.82 41.2431 107.847 40.6782C106.285 39.7695 105.279 38.0666 105.311 36.2492C105.336 35.0866 104.984 33.8996 104.24 32.8926C103.52 31.9184 102.53 31.2552 101.451 30.9278C99.7165 30.4038 98.3423 28.9793 97.9661 27.2028C97.7207 26.0648 97.1072 24.9924 96.1502 24.1819C95.2259 23.4041 94.1135 22.9866 92.9847 22.9129C91.1771 22.8065 89.5166 21.734 88.7314 20.0967C88.2324 19.0406 87.39 18.1483 86.2694 17.5834C85.1897 17.0349 84.0118 16.8875 82.8994 17.084C81.1163 17.3951 79.2513 16.7401 78.1144 15.3238C77.3864 14.4151 76.3558 13.7356 75.137 13.4491C73.9592 13.1707 72.7731 13.2935 71.7425 13.7438C70.0821 14.456 68.1108 14.2514 66.6794 13.138C65.7633 12.4257 64.6018 12 63.3503 12C62.2297 12 61.1991 12.3357 60.3321 12.9169C58.8107 13.9403 56.9212 14.1695 55.2199 13.4736C54.222 13.0725 53.1014 12.9578 51.9726 13.2116C50.7948 13.4818 49.7887 14.1204 49.0525 14.9718C47.8747 16.3472 46.0179 17.0349 44.243 16.6664C43.106 16.429 41.8791 16.56 40.7503 17.1167C39.6624 17.6489 38.8363 18.5003 38.321 19.5073C37.4949 21.12 35.8426 22.2171 34.0349 22.2662C32.8734 22.2989 31.7119 22.7083 30.7386 23.5106C29.8061 24.2801 29.1926 25.3035 28.9227 26.4005C28.4892 28.1606 27.1396 29.6015 25.3892 30.0763C24.2686 30.3793 23.2298 31.0424 22.4691 32.0494C21.7411 33.0154 21.3812 34.1534 21.373 35.2749C21.3567 37.0842 20.3751 38.8034 18.7801 39.6712C17.7577 40.2279 16.8988 41.1121 16.3999 42.2664C15.9091 43.3798 15.8273 44.5587 16.0727 45.6639C16.4735 47.4323 15.9173 49.3316 14.5677 50.535C13.7006 51.3128 13.0708 52.3771 12.85 53.6051C12.6291 54.8003 12.8172 55.971 13.3162 56.9862C14.1178 58.6154 14.0115 60.5884 12.9727 62.0784C12.3101 63.0362 11.942 64.2151 12.0075 65.4677C12.0729 66.6793 12.5228 67.7763 13.2426 68.6441C14.3959 70.0441 14.7476 71.9925 14.0851 73.679C13.6597 74.7596 13.5779 75.9958 13.9297 77.1993C14.2732 78.3618 14.9685 79.3278 15.86 80.0073C17.3078 81.1044 18.1012 82.9136 17.8395 84.7065C17.6759 85.8609 17.8804 87.0725 18.502 88.1695C19.0991 89.2256 19.9989 90.0034 21.0295 90.4536C22.6899 91.1823 23.876 92.7623 24.0395 94.5716C24.1459 95.7341 24.6203 96.8721 25.4791 97.789C26.3053 98.6731 27.3604 99.2216 28.4647 99.4263C30.2478 99.7538 31.7692 101.015 32.3418 102.734C32.7098 103.839 33.4378 104.83 34.4848 105.525C35.4909 106.197 36.6442 106.483 37.773 106.426C39.5806 106.336 41.3556 107.212 42.3126 108.751C42.9261 109.742 43.8667 110.544 45.0446 110.978C46.1815 111.395 47.3675 111.412 48.4472 111.101C50.1813 110.593 52.1117 111.035 53.3959 112.312C54.222 113.131 55.318 113.696 56.5613 113.843C57.7637 113.991 58.9252 113.729 59.8986 113.172C61.469 112.271 63.4485 112.263 64.9944 113.205C65.9923 113.81 67.1865 114.105 68.4298 113.966C69.6322 113.827 70.7037 113.311 71.5217 112.541C72.8468 111.305 74.7689 110.83 76.4866 111.395C77.5909 111.756 78.826 111.764 80.0038 111.338C81.1408 110.929 82.0651 110.176 82.6867 109.234C83.6928 107.728 85.4514 106.819 87.2591 106.975C88.4206 107.073 89.623 106.794 90.6699 106.107C91.6842 105.444 92.404 104.502 92.7966 103.446C93.4264 101.743 94.9315 100.458 96.7228 100.188C97.8761 100.016 98.9803 99.4673 99.8392 98.5585C100.674 97.6825 101.156 96.5937 101.295 95.4721C101.516 93.671 102.677 92.0746 104.362 91.3951C105.442 90.9612 106.391 90.1753 107.021 89.0865C107.626 88.0386 107.847 86.8678 107.724 85.7463C107.52 83.9452 108.289 82.1195 109.769 81.0716C110.718 80.4003 111.462 79.4097 111.822 78.2144C112.174 77.0519 112.117 75.8648 111.74 74.8088C111.127 73.1059 111.454 71.1493 112.648 69.7903C113.417 68.9143 113.908 67.7845 113.99 66.532C114.063 65.3203 113.736 64.1824 113.123 63.2327L113.147 63.2163Z" fill="#14B294"/>
</g>
<defs>
<clipPath id="clip0_521_6006">
<rect width="126" height="126" fill="white"/>
</clipPath>
</defs>
</svg>
