<svg width="20" height="21" viewBox="0 0 20 21" fill="none" xmlns="http://www.w3.org/2000/svg">
<path d="M9.99992 20.4998C15.5227 20.4998 19.9998 16.0227 19.9998 10.4999C19.9998 4.97712 15.5227 0.5 9.99992 0.5C4.47712 0.5 0 4.97712 0 10.4999C0 16.0227 4.47712 20.4998 9.99992 20.4998Z" fill="#FFE255"/>
<path d="M9.99996 20.2509C15.3853 20.2509 19.7509 15.8853 19.7509 10.5C19.7509 5.11467 15.3853 0.749023 9.99996 0.749023C4.61467 0.749023 0.249023 5.11467 0.249023 10.5C0.249023 15.8853 4.61467 20.2509 9.99996 20.2509Z" fill="#FFCC3E"/>
<path d="M10 18.4229C14.3757 18.4229 17.9229 14.8757 17.9229 10.5C17.9229 6.12435 14.3757 2.57715 10 2.57715C5.62435 2.57715 2.07715 6.12435 2.07715 10.5C2.07715 14.8757 5.62435 18.4229 10 18.4229Z" fill="#FFE357"/>
<path d="M10.0001 18.1643C14.233 18.1643 17.6645 14.7328 17.6645 10.4999C17.6645 6.26692 14.233 2.83545 10.0001 2.83545C5.76716 2.83545 2.33569 6.26692 2.33569 10.4999C2.33569 14.7328 5.76716 18.1643 10.0001 18.1643Z" fill="#E59638"/>
<path d="M17.6645 10.4999C17.6645 10.5991 17.6626 10.6979 17.659 10.7961C17.5031 6.70059 14.1337 3.42819 10.0001 3.42819C5.86645 3.42819 2.4971 6.70059 2.34121 10.7961C2.33749 10.6979 2.33569 10.5991 2.33569 10.4999C2.33569 6.26695 5.76719 2.83545 10.0001 2.83545C14.233 2.83545 17.6645 6.26695 17.6645 10.4999Z" fill="#CC8232"/>
<path d="M19.9998 10.5C19.9998 15.9568 15.6292 20.3927 10.1975 20.4979C10.1319 20.4993 10.0659 20.4999 9.99992 20.4999C9.67684 20.4999 9.35749 20.4847 9.04224 20.4546C8.59781 20.4124 8.16186 20.3411 7.73631 20.2426C6.56354 19.9713 5.46988 19.4936 4.4955 18.8499C4.25242 18.6894 4.01679 18.5186 3.78912 18.3379C2.99978 17.7117 2.30727 16.9688 1.73764 16.135C1.53013 15.8315 1.33893 15.5158 1.16545 15.1893C1.00365 14.8851 0.857136 14.5715 0.7268 14.2496C0.585678 13.9012 0.463688 13.543 0.362116 13.1762C0.182471 12.5283 0.0665163 11.8537 0.0214445 11.16C0.00719095 10.9418 0 10.7217 0 10.4998C0 10.3946 0.00166933 10.2899 0.00487958 10.1855C0.0145103 10.4962 0.0381377 10.8031 0.075505 11.1059C0.157174 11.7692 0.303818 12.4127 0.508889 13.0293C0.625998 13.3819 0.76237 13.7257 0.916718 14.0595C1.05977 14.3695 1.21848 14.671 1.39158 14.963C1.57803 15.2776 1.78143 15.5813 2.00011 15.8724C2.60544 16.6781 3.32954 17.3893 4.14661 17.98C4.38391 18.1517 4.62918 18.3131 4.88137 18.4637C5.90313 19.0738 7.0429 19.5068 8.2583 19.7202C8.70671 19.7988 9.16526 19.8478 9.63203 19.8646C9.75415 19.8691 9.87678 19.8714 9.99992 19.8714C10.2897 19.8714 10.5767 19.8591 10.8605 19.8348C15.8775 19.4073 19.8379 15.2753 19.995 10.1857C19.9982 10.2899 19.9998 10.3947 19.9998 10.4999V10.5Z" fill="#E59638"/>
<path d="M5.45476 16.6722L3.78903 18.3379C2.99969 17.7118 2.30718 16.9688 1.73755 16.1352L1.99989 15.8728L3.42742 14.4453C3.95031 15.3148 4.64115 16.072 5.45476 16.6721V16.6722Z" fill="#FFE357"/>
<path d="M17.8376 4.28927L16.1718 5.955C15.5718 5.1414 14.8145 4.45055 13.9451 3.92767L15.6349 2.23779C16.4686 2.80742 17.2116 3.49993 17.8377 4.28927H17.8376Z" fill="#FFE357"/>
<path d="M2.91825 13.4364L1.16545 15.1892C1.00366 14.885 0.857143 14.5714 0.726807 14.2495L2.57347 12.4028C2.66426 12.7579 2.7797 13.1032 2.91825 13.4364Z" fill="#FFE357"/>
<path d="M14.6892 1.6657L12.9364 3.41849C12.6032 3.28007 12.2579 3.1645 11.9028 3.07371L13.7495 1.22705C14.0714 1.35739 14.385 1.5039 14.6892 1.6657Z" fill="#FFE357"/>
<path d="M13.2542 17.4414L10.8605 19.8351L10.1975 20.4981C10.1319 20.4995 10.0659 20.5001 9.99992 20.5001C9.67684 20.5001 9.35748 20.4848 9.04224 20.4548L11.4741 18.023C12.0978 17.9015 12.6945 17.7043 13.2541 17.4415L13.2542 17.4414Z" fill="#FFE357"/>
<path d="M19.9999 10.4995C19.9999 10.5655 19.9992 10.6316 19.9978 10.6972L16.9412 13.7538C17.204 13.1941 17.4011 12.5975 17.5226 11.9738L19.9544 9.54199C19.9845 9.85724 19.9998 10.1766 19.9998 10.4997L19.9999 10.4995Z" fill="#FFE357"/>
<path d="M2.33543 10.4996C2.33543 10.7266 2.34532 10.9513 2.36471 11.1734L0.508928 13.0291L0.362156 13.1759C0.18251 12.528 0.0665563 11.8534 0.0214844 11.1598L2.56991 8.61133C2.41684 9.21537 2.33556 9.84792 2.33556 10.4995L2.33543 10.4996Z" fill="#FFE357"/>
<path d="M12.6763 0.862156L10.6737 2.86471C10.4518 2.84532 10.227 2.83543 9.99996 2.83543C9.3484 2.83543 8.71586 2.91671 8.11182 3.06978L10.6602 0.521484C11.3539 0.566685 12.0283 0.682639 12.6764 0.862156H12.6763Z" fill="#FFE357"/>
<path d="M9.81654 18.1624L7.73617 20.2427C6.5634 19.9714 5.46974 19.4937 4.49536 18.85L4.88123 18.4641L6.19204 17.1533C7.26426 17.7683 8.49918 18.1315 9.81641 18.1625L9.81654 18.1624Z" fill="#FFE357"/>
<path d="M19.7426 8.23629L17.6622 10.3167C17.6313 8.99943 17.268 7.76451 16.6531 6.69229L18.3498 4.99561C18.9935 5.96998 19.4712 7.06365 19.7425 8.23641L19.7426 8.23629Z" fill="#FFE357"/>
<path d="M4.14652 17.9802L3.78903 18.3376C2.99969 17.7115 2.30718 16.9685 1.73755 16.1349L1.99989 15.8726C2.60521 16.6782 3.32932 17.3895 4.14639 17.9802H4.14652Z" fill="#FCBB47"/>
<path d="M1.39158 14.9631L1.16546 15.1892C1.00366 14.885 0.857143 14.5714 0.726807 14.2495L0.916725 14.0596C1.05977 14.3696 1.21849 14.6711 1.39158 14.9631Z" fill="#FCBB47"/>
<path d="M10.8605 19.835L10.1975 20.4979C10.1319 20.4994 10.0659 20.5 9.99992 20.5C9.67684 20.5 9.35748 20.4847 9.04224 20.4547L9.63202 19.8649C9.75414 19.8694 9.87677 19.8717 9.99992 19.8717C10.2897 19.8717 10.5767 19.8594 10.8605 19.8351V19.835Z" fill="#FCBB47"/>
<path d="M0.508928 13.0294L0.362156 13.1762C0.18251 12.5282 0.0665563 11.8537 0.0214844 11.16L0.0755449 11.106C0.157214 11.7693 0.303858 12.4128 0.508928 13.0294Z" fill="#FCBB47"/>
<path d="M8.25829 19.7204L7.73617 20.2425C6.5634 19.9711 5.46974 19.4935 4.49536 18.8497L4.88123 18.4639C5.90299 19.0739 7.04276 19.5069 8.25816 19.7204H8.25829Z" fill="#FCBB47"/>
<path d="M9.70085 6.57865C9.80285 6.39768 10.0635 6.39768 10.1655 6.57865L11.2486 8.5004C11.2867 8.56791 11.3522 8.61553 11.4282 8.63086L13.5906 9.06717C13.7942 9.10825 13.8748 9.3561 13.7342 9.50904L12.2412 11.133C12.1888 11.1901 12.1637 11.2672 12.1726 11.3441L12.4259 13.5355C12.4497 13.7419 12.2389 13.8951 12.05 13.8086L10.0441 12.8906C9.97366 12.8583 9.89265 12.8583 9.82218 12.8906L7.8163 13.8086C7.6274 13.8951 7.41657 13.7419 7.44042 13.5355L7.69369 11.3441C7.70258 11.2672 7.67755 11.1901 7.6251 11.133L6.13213 9.50904C5.99154 9.3561 6.07207 9.10825 6.2757 9.06717L8.43811 8.63086C8.51408 8.61553 8.57962 8.56791 8.61767 8.5004L9.70085 6.57865Z" fill="#F0E87A"/>
</svg>
