<svg width="20" height="20" viewBox="0 0 20 20" fill="none" xmlns="http://www.w3.org/2000/svg">
<rect width="20" height="20" rx="4" fill="#2140BD"/>
<path d="M16.671 5.95833C16.5646 5.88519 16.4439 5.84669 16.321 5.84669C16.1981 5.84669 16.0774 5.88519 15.971 5.95833L13.5 7.40833C13.4801 6.76131 13.25 6.14873 12.8583 5.69953C12.4667 5.25034 11.9439 4.99957 11.4 5H5.1C4.54304 5 4.0089 5.26339 3.61508 5.73223C3.22125 6.20107 3 6.83696 3 7.5V12.5C3 13.163 3.22125 13.7989 3.61508 14.2678C4.0089 14.7366 4.54304 15 5.1 15H11.4C11.9439 15.0004 12.4667 14.7497 12.8583 14.3005C13.25 13.8513 13.4801 13.2387 13.5 12.5917L15.992 14.075C16.0874 14.1332 16.1928 14.1646 16.3 14.1667C16.4311 14.1672 16.5596 14.1239 16.671 14.0417C16.7719 13.9666 16.855 13.8622 16.9126 13.7382C16.9702 13.6143 17.0002 13.475 17 13.3333V6.66667C17.0002 6.52505 16.9702 6.38569 16.9126 6.26176C16.855 6.13782 16.7719 6.03339 16.671 5.95833V5.95833ZM12.1 12.5C12.1 12.721 12.0262 12.933 11.895 13.0893C11.7637 13.2455 11.5856 13.3333 11.4 13.3333H5.1C4.91435 13.3333 4.7363 13.2455 4.60502 13.0893C4.47375 12.933 4.4 12.721 4.4 12.5V7.5C4.4 7.27899 4.47375 7.06703 4.60502 6.91074C4.7363 6.75446 4.91435 6.66667 5.1 6.66667H11.4C11.5856 6.66667 11.7637 6.75446 11.895 6.91074C12.0262 7.06703 12.1 7.27899 12.1 7.5V12.5ZM15.6 11.9833L13.5 10.7333V9.26667L15.6 8.01667V11.9833Z" fill="white"/>
</svg>
