<svg width="20" height="20" viewBox="0 0 20 20" fill="none" xmlns="http://www.w3.org/2000/svg">
<rect width="20" height="20" rx="4" fill="#8D5027"/>
<path d="M12.2061 13.1137C12.1707 13.0048 12.0765 12.9255 11.9632 12.909L10.7924 12.7389L10.2688 11.6779C10.2181 11.5753 10.1135 11.5103 9.99905 11.5103C9.88455 11.5103 9.78002 11.5753 9.72932 11.6779L9.20573 12.7389L8.03489 12.909C7.9216 12.9255 7.82747 13.0048 7.79206 13.1137C7.75671 13.2226 7.78619 13.3421 7.86817 13.422L8.7154 14.2479L8.5154 15.414C8.49603 15.5268 8.54241 15.6409 8.63505 15.7082C8.72769 15.7755 8.85049 15.7844 8.95181 15.7311L9.99905 15.1805L11.0463 15.7311C11.0903 15.7542 11.1384 15.7656 11.1862 15.7656C11.2486 15.7656 11.3107 15.7463 11.3631 15.7082C11.4557 15.6409 11.5021 15.5268 11.4827 15.414L11.2827 14.2479L12.13 13.422C12.2119 13.3421 12.2414 13.2226 12.2061 13.1137Z" fill="white"/>
<path d="M7.34281 13.1137C7.30735 13.0048 7.21322 12.9255 7.09992 12.909L5.92908 12.7389L5.40549 11.6779C5.35479 11.5753 5.25026 11.5103 5.13577 11.5103C5.02127 11.5103 4.91674 11.5753 4.86604 11.6779L4.34245 12.7389L3.17161 12.909C3.05832 12.9255 2.96419 13.0048 2.92878 13.1137C2.89343 13.2226 2.92291 13.3421 3.00489 13.422L3.85212 14.2479L3.65214 15.414C3.63278 15.5269 3.67916 15.6409 3.7718 15.7082C3.86438 15.7755 3.98721 15.7844 4.08856 15.7311L5.13579 15.1805L6.18306 15.7311C6.22706 15.7543 6.27512 15.7657 6.32299 15.7657C6.38535 15.7657 6.44743 15.7463 6.49982 15.7082C6.59243 15.6409 6.63884 15.5269 6.61947 15.414L6.41947 14.2479L7.2667 13.4221C7.34868 13.3422 7.37819 13.2226 7.34281 13.1137Z" fill="white"/>
<path d="M17.0713 13.1137C17.0359 13.0048 16.9417 12.9255 16.8284 12.909L15.6576 12.7389L15.134 11.6779C15.0833 11.5753 14.9788 11.5103 14.8643 11.5103C14.7498 11.5103 14.6453 11.5753 14.5946 11.6779L14.071 12.7389L12.9001 12.909C12.7868 12.9255 12.6927 13.0048 12.6573 13.1137C12.6219 13.2226 12.6514 13.3421 12.7334 13.422L13.5806 14.2479L13.3806 15.414C13.3613 15.5268 13.4076 15.6409 13.5003 15.7082C13.5527 15.7463 13.6147 15.7656 13.6771 15.7656C13.725 15.7656 13.773 15.7542 13.817 15.7311L14.8643 15.1805L15.9115 15.7311C16.0128 15.7843 16.1356 15.7755 16.2283 15.7082C16.3209 15.6409 16.3673 15.5268 16.348 15.414L16.148 14.2479L16.9952 13.422C17.0772 13.3421 17.1067 13.2226 17.0713 13.1137Z" fill="white"/>
<path d="M15.267 4.6665H4.73172C3.59271 4.6665 2.66602 5.59317 2.66602 6.73221V8.12609C2.66602 9.18957 3.47371 10.0679 4.50797 10.1797L4.95462 10.7748C5.10186 10.971 5.32693 11.0857 5.57214 11.0895C5.57635 11.0895 5.58059 11.0896 5.58477 11.0896C5.82519 11.0896 6.04852 10.9824 6.19914 10.7943L6.68156 10.1918H15.267C16.406 10.1918 17.3327 9.26511 17.3327 8.12606V6.73218C17.3327 5.59317 16.406 4.6665 15.267 4.6665ZM9.07787 8.7052H5.16668C4.92938 8.7052 4.73699 8.51281 4.73699 8.27551C4.73699 8.03821 4.92938 7.84582 5.16668 7.84582H9.07787C9.31517 7.84582 9.50756 8.03821 9.50756 8.27551C9.50756 8.51281 9.31517 8.7052 9.07787 8.7052ZM14.832 6.97751H5.16668C4.92938 6.97751 4.73699 6.78512 4.73699 6.54782C4.73699 6.31052 4.92938 6.11813 5.16668 6.11813H14.832C15.0693 6.11813 15.2617 6.31052 15.2617 6.54782C15.2617 6.78512 15.0693 6.97751 14.832 6.97751Z" fill="white"/>
</svg>
