<svg width="20" height="20" viewBox="0 0 20 20" fill="none" xmlns="http://www.w3.org/2000/svg">
<path d="M0 4C0 1.79086 1.79086 0 4 0H16C18.2091 0 20 1.79086 20 4V16C20 18.2091 18.2091 20 16 20H4C1.79086 20 0 18.2091 0 16V4Z" fill="#2BDA73"/>
<path d="M5.24487 6.10449C4.29695 6.10449 3.52612 5.33366 3.52612 4.38574C3.52612 3.43782 4.29695 2.66699 5.24487 2.66699C6.19279 2.66699 6.96362 3.43782 6.96362 4.38574C6.96362 5.33366 6.19279 6.10449 5.24487 6.10449Z" fill="white"/>
<path d="M14.7554 14.7559C13.8075 14.7559 13.0366 13.985 13.0366 13.0371C13.0366 12.0892 13.8075 11.3184 14.7554 11.3184C15.7033 11.3184 16.4741 12.0892 16.4741 13.0371C16.4741 13.985 15.7033 14.7559 14.7554 14.7559Z" fill="white"/>
<path d="M11.8127 13.0543C10.9886 12.7803 10.2878 12.2184 9.83966 11.4728C9.13472 10.2999 7.89894 9.59961 6.53394 9.59961C4.40145 9.59961 2.66675 11.3343 2.66675 13.4668C2.66675 15.5993 4.40145 17.334 6.53394 17.334C7.89642 17.334 9.13094 16.6357 9.83674 15.4663C10.2887 14.7168 10.994 14.152 11.8261 13.8743C12.0015 13.8159 12.1132 13.6493 12.1132 13.4643C12.1132 13.2797 11.9881 13.113 11.8127 13.0543ZM6.53394 15.6152C6.29663 15.6152 6.10425 15.4228 6.10425 15.1855C6.10425 14.9482 6.29663 14.7559 6.53394 14.7559C6.77124 14.7559 6.96362 14.9482 6.96362 15.1855C6.96362 15.4228 6.77124 15.6152 6.53394 15.6152ZM6.96907 13.8214C6.96907 14.0584 6.77393 14.2884 6.53686 14.2884C6.29935 14.2884 6.10422 14.134 6.10422 13.8965C6.10422 13.463 6.33542 13.1349 6.67951 13.0124C6.84907 12.9511 6.96362 12.7887 6.96362 12.6074C6.96362 12.3703 6.77101 12.1777 6.53394 12.1777C6.29686 12.1777 6.10425 12.3703 6.10425 12.6074C6.10425 12.8449 5.91206 13.0371 5.67456 13.0371C5.43706 13.0371 5.24487 12.8449 5.24487 12.6074C5.24487 11.8966 5.82312 11.3184 6.53394 11.3184C7.24475 11.3184 7.823 11.8966 7.823 12.6074C7.823 13.15 7.47976 13.638 6.96907 13.8214Z" fill="white"/>
<path d="M7.39331 8.68262H3.09644C2.85893 8.68262 2.66675 8.49043 2.66675 8.25293C2.66675 7.06834 3.63059 6.10449 4.81519 6.10449H5.67456C6.85915 6.10449 7.823 7.06834 7.823 8.25293C7.823 8.49043 7.63081 8.68262 7.39331 8.68262Z" fill="white"/>
<path d="M16.9038 17.334H12.6069C12.3694 17.334 12.1772 17.1418 12.1772 16.9043C12.1772 15.7197 13.1411 14.7559 14.3257 14.7559H15.1851C16.3696 14.7559 17.3335 15.7197 17.3335 16.9043C17.3335 17.1418 17.1413 17.334 16.9038 17.334Z" fill="white"/>
<path d="M13.4665 2.66699C11.6512 2.66699 10.8556 3.38371 10.1607 4.53974C9.51159 5.6194 8.67696 5.9207 8.32072 6.04952C8.14908 6.1112 7.97201 6.17499 7.90069 6.39149C7.82873 6.61104 7.94119 6.86501 8.1768 6.94244C9.00639 7.21939 9.71176 7.7842 10.1637 8.53363C10.8695 9.70313 12.104 10.4014 13.4665 10.4014C15.5989 10.4014 17.3336 8.66666 17.3336 6.53418C17.3336 4.4017 15.5989 2.66699 13.4665 2.66699ZM15.1114 5.92657L13.3406 7.69734C13.2567 7.78128 13.1467 7.82324 13.0368 7.82324C12.9269 7.82324 12.8169 7.78128 12.733 7.69734L11.8216 6.78595C11.6538 6.61811 11.6538 6.34618 11.8216 6.17834C11.9894 6.01051 12.2614 6.01051 12.4292 6.17834L13.0368 6.78595L14.5038 5.31897C14.6716 5.15113 14.9435 5.15113 15.1114 5.31897C15.2792 5.4868 15.2792 5.75874 15.1114 5.92657Z" fill="white"/>
</svg>
