<svg width="20" height="21" viewBox="0 0 20 21" fill="none" xmlns="http://www.w3.org/2000/svg">
<path d="M9.99992 20.4998C15.5227 20.4998 19.9998 16.0227 19.9998 10.4999C19.9998 4.97712 15.5227 0.5 9.99992 0.5C4.47712 0.5 0 4.97712 0 10.4999C0 16.0227 4.47712 20.4998 9.99992 20.4998Z" fill="#CCFCFF"/>
<path d="M9.99996 20.2206C15.3853 20.2206 19.7509 15.855 19.7509 10.4697C19.7509 5.08439 15.3853 0.71875 9.99996 0.71875C4.61467 0.71875 0.249023 5.08439 0.249023 10.4697C0.249023 15.855 4.61467 20.2206 9.99996 20.2206Z" fill="#3EF3FF"/>
<path d="M10 18.3927C14.3757 18.3927 17.9229 14.8455 17.9229 10.4698C17.9229 6.09407 14.3757 2.54688 10 2.54688C5.62435 2.54688 2.07715 6.09407 2.07715 10.4698C2.07715 14.8455 5.62435 18.3927 10 18.3927Z" fill="#D8FDFF"/>
<path d="M9.99985 18.134C14.2328 18.134 17.6643 14.7025 17.6643 10.4696C17.6643 6.23665 14.2328 2.80518 9.99985 2.80518C5.76692 2.80518 2.33545 6.23665 2.33545 10.4696C2.33545 14.7025 5.76692 18.134 9.99985 18.134Z" fill="#00BBC6"/>
<path d="M17.6643 10.4696C17.6643 10.5688 17.6623 10.6676 17.6587 10.7658C17.5028 6.67031 14.1335 3.39792 9.99985 3.39792C5.86621 3.39792 2.49686 6.67031 2.34097 10.7658C2.33725 10.6676 2.33545 10.5688 2.33545 10.4696C2.33545 6.23667 5.76695 2.80518 9.99985 2.80518C14.2328 2.80518 17.6643 6.23667 17.6643 10.4696Z" fill="#02AEB9"/>
<path d="M19.9998 10.4697C19.9998 15.9265 15.6292 20.3624 10.1975 20.4676C10.1319 20.469 10.0659 20.4697 9.99992 20.4697C9.67684 20.4697 9.35749 20.4544 9.04224 20.4243C8.59781 20.3821 8.16186 20.3108 7.73631 20.2123C6.56354 19.941 5.46988 19.4633 4.4955 18.8196C4.25242 18.6591 4.01679 18.4883 3.78912 18.3076C2.99978 17.6814 2.30727 16.9385 1.73764 16.1048C1.53013 15.8012 1.33893 15.4856 1.16545 15.159C1.00365 14.8548 0.857136 14.5412 0.7268 14.2193C0.585678 13.8709 0.463688 13.5127 0.362116 13.1459C0.182471 12.498 0.0665163 11.8234 0.0214445 11.1298C0.00719095 10.9115 0 10.6914 0 10.4695C0 10.3643 0.00166933 10.2597 0.00487958 10.1553C0.0145103 10.4659 0.0381377 10.7728 0.075505 11.0756C0.157174 11.739 0.303818 12.3824 0.508889 12.999C0.625998 13.3517 0.76237 13.6954 0.916718 14.0293C1.05977 14.3393 1.21848 14.6408 1.39158 14.9328C1.57803 15.2474 1.78143 15.5511 2.00011 15.8422C2.60544 16.6478 3.32954 17.3591 4.14661 17.9498C4.38391 18.1214 4.62918 18.2829 4.88137 18.4335C5.90313 19.0436 7.0429 19.4766 8.2583 19.69C8.70671 19.7686 9.16526 19.8175 9.63203 19.8343C9.75415 19.8388 9.87678 19.8411 9.99992 19.8411C10.2897 19.8411 10.5767 19.8288 10.8605 19.8045C15.8775 19.377 19.8379 15.2451 19.995 10.1554C19.9982 10.2597 19.9998 10.3645 19.9998 10.4696V10.4697Z" fill="#0B777E"/>
<path d="M14.5832 12.9165C14.5832 13.027 14.5393 13.133 14.4611 13.2111C14.383 13.2893 14.277 13.3332 14.1665 13.3332H9.1665C9.056 13.3332 8.95002 13.2893 8.87188 13.2111C8.79374 13.133 8.74984 13.027 8.74984 12.9165C8.74984 12.2535 9.01323 11.6176 9.48207 11.1487C9.95091 10.6799 10.5868 10.4165 11.2498 10.4165H12.0832C12.7462 10.4165 13.3821 10.6799 13.8509 11.1487C14.3198 11.6176 14.5832 12.2535 14.5832 12.9165ZM11.6665 6.6665C11.3369 6.6665 11.0146 6.76425 10.7406 6.94739C10.4665 7.13052 10.2529 7.39082 10.1267 7.69536C10.0006 7.99991 9.96755 8.33502 10.0319 8.65832C10.0962 8.98162 10.2549 9.27859 10.488 9.51168C10.7211 9.74477 11.0181 9.9035 11.3414 9.96781C11.6647 10.0321 11.9998 9.99912 12.3043 9.87297C12.6089 9.74682 12.8692 9.5332 13.0523 9.25912C13.2354 8.98504 13.3332 8.66281 13.3332 8.33317C13.3332 7.89114 13.1576 7.46722 12.845 7.15466C12.5325 6.8421 12.1085 6.6665 11.6665 6.6665ZM7.9165 6.6665C7.58687 6.6665 7.26464 6.76425 6.99055 6.94739C6.71647 7.13052 6.50285 7.39082 6.3767 7.69536C6.25056 7.99991 6.21755 8.33502 6.28186 8.65832C6.34617 8.98162 6.50491 9.27859 6.73799 9.51168C6.97108 9.74477 7.26805 9.9035 7.59135 9.96781C7.91466 10.0321 8.24977 9.99912 8.55431 9.87297C8.85885 9.74682 9.11915 9.5332 9.30229 9.25912C9.48542 8.98504 9.58317 8.66281 9.58317 8.33317C9.58317 7.89114 9.40758 7.46722 9.09502 7.15466C8.78245 6.8421 8.35853 6.6665 7.9165 6.6665ZM7.9165 12.9165C7.91588 12.4788 8.00211 12.0454 8.17019 11.6413C8.33827 11.2372 8.58486 10.8705 8.89567 10.5623C8.64131 10.4663 8.37172 10.4169 8.09984 10.4165H7.73317C7.11909 10.4176 6.53048 10.662 6.09626 11.0963C5.66204 11.5305 5.41761 12.1191 5.4165 12.7332V12.9165C5.4165 13.027 5.4604 13.133 5.53854 13.2111C5.61668 13.2893 5.72266 13.3332 5.83317 13.3332H7.9915C7.94299 13.1996 7.91763 13.0586 7.9165 12.9165Z" fill="white"/>
</svg>
