<svg width="24" height="24" viewBox="0 0 24 24" fill="none" xmlns="http://www.w3.org/2000/svg">
<path d="M10.3561 3.66041C10.0554 3.95903 9.56778 3.95903 9.26705 3.66041C8.96632 3.36178 8.96632 2.87761 9.26705 2.57898C9.56778 2.28036 10.0554 2.28036 10.3561 2.57898C10.6568 2.87761 10.6568 3.36178 10.3561 3.66041ZM1.53547 8.15926C0.749246 7.37788 0.749245 6.11102 1.53547 5.32965L6.29487 0.599577C6.67037 0.226395 7.17901 0.0157686 7.71004 0.0135651L10.9741 1.78306e-05C12.095 -0.00463358 13.0038 0.901364 12.9957 2.01528L12.9712 5.38804C12.9674 5.91367 12.7556 6.4167 12.3816 6.78839L7.69245 11.4487C6.90623 12.23 5.63151 12.23 4.84529 11.4487L1.53547 8.15926ZM2.24726 6.03705C1.85415 6.42773 1.85415 7.06116 2.24726 7.45185L5.55708 10.7413C5.95019 11.132 6.58755 11.132 6.98066 10.7413L11.6698 6.08099C11.8568 5.89515 11.9627 5.64363 11.9646 5.38081L11.9892 2.00806C11.9932 1.4511 11.5388 0.998101 10.9783 1.00043L7.71425 1.01397C7.44873 1.01508 7.19441 1.12039 7.00666 1.30698L2.24726 6.03705ZM0.997169 8.75013C0.731946 9.4612 0.885183 10.2929 1.45688 10.8646L3.42134 12.8291C4.98344 14.3912 7.5161 14.3912 9.0782 12.8291L12.5604 9.34683C12.8417 9.06552 12.9998 8.68399 12.9998 8.28617V7.50781L9.07843 11.4292C9.00971 11.4979 8.93911 11.5636 8.8668 11.6262L8.37109 12.122C7.19952 13.2935 5.30002 13.2935 4.12845 12.122L3.62977 11.6233C3.55865 11.5615 3.4892 11.4968 3.42157 11.4292L1.45711 9.46469C1.24759 9.25518 1.09428 9.01075 0.997169 8.75013Z" fill="#212121"/>
</svg>
