<svg width="24" height="24" viewBox="0 0 24 24" fill="none" xmlns="http://www.w3.org/2000/svg">
<path d="M7.53491 4.36145C7.203 4.00443 7 3.52592 7 3C7 1.89543 7.89543 1 9 1C10.1046 1 11 1.89543 11 3C11 3.41572 10.8732 3.80182 10.6561 4.12171C10.2833 4.04197 9.89656 4 9.5 4C8.80764 4 8.14516 4.12793 7.53491 4.36145ZM10 3C10 2.44772 9.55228 2 9 2C8.44772 2 8 2.44772 8 3C8 3.55228 8.44772 4 9 4C9.55228 4 10 3.55228 10 3ZM4.20699 10.9998C4.15849 11.0005 4.10955 11.0008 4.06019 11.0008C1.44552 11.0008 0 10.0969 0 8.27457V7.5C0 6.67157 0.671573 6 1.5 6H5.25716C5.00353 6.30711 4.78261 6.64222 4.59971 7H1.5C1.22386 7 1 7.22386 1 7.5V8.27457C1 9.41378 1.917 9.99393 4.02249 10.0007C4.05345 10.3438 4.11593 10.6778 4.20699 10.9998ZM6.50041 2.5004C6.50041 1.11947 5.38094 0 4 0C2.61906 0 1.49959 1.11947 1.49959 2.5004C1.49959 3.88134 2.61906 5.00081 4 5.00081C5.38094 5.00081 6.50041 3.88134 6.50041 2.5004ZM2.4996 2.5004C2.4996 1.67175 3.17135 1 4 1C4.82865 1 5.5004 1.67175 5.5004 2.5004C5.5004 3.32906 4.82865 4.00081 4 4.00081C3.17135 4.00081 2.4996 3.32906 2.4996 2.5004ZM5 9.5C5 11.9853 7.01472 14 9.5 14C11.9853 14 14 11.9853 14 9.5C14 7.01472 11.9853 5 9.5 5C7.01472 5 5 7.01472 5 9.5ZM11.5 6.5C11.7761 6.5 12 6.72386 12 7V8.5C12 8.77614 11.7761 9 11.5 9H10C9.72386 9 9.5 8.77614 9.5 8.5C9.5 8.22386 9.72386 8 10 8H10.4682C10.4179 7.97215 10.3663 7.94644 10.3135 7.92296C10.0682 7.81372 9.80344 7.755 9.53495 7.75031C9.26646 7.74561 8.99977 7.79503 8.75079 7.89562C8.5018 7.99621 8.27563 8.1459 8.08575 8.33579C7.89048 8.53105 7.5739 8.53105 7.37864 8.33579C7.18338 8.14052 7.18338 7.82394 7.37864 7.62868C7.66346 7.34386 8.00273 7.11931 8.3762 6.96842C8.74967 6.81754 9.14971 6.74341 9.55245 6.75046C9.95518 6.75751 10.3524 6.84558 10.7203 7.00944C10.8162 7.05211 10.9095 7.0997 11 7.15195V7C11 6.72386 11.2239 6.5 11.5 6.5ZM10.6238 12.0316C10.2503 12.1825 9.85029 12.2566 9.44755 12.2495C9.04482 12.2425 8.64762 12.1544 8.27966 11.9906C8.18383 11.9479 8.09049 11.9003 8 11.8481V12C8 12.2761 7.77614 12.5 7.5 12.5C7.22386 12.5 7 12.2761 7 12V10.5C7 10.2239 7.22386 10 7.5 10H9C9.27614 10 9.5 10.2239 9.5 10.5C9.5 10.7761 9.27614 11 9 11H8.53179C8.58213 11.0278 8.63372 11.0536 8.68645 11.077C8.93176 11.1863 9.19656 11.245 9.46505 11.2497C9.73354 11.2544 10.0002 11.205 10.2492 11.1044C10.4982 11.0038 10.7244 10.8541 10.9143 10.6642C11.1095 10.469 11.4261 10.469 11.6214 10.6642C11.8166 10.8595 11.8166 11.1761 11.6214 11.3713C11.3365 11.6561 10.9973 11.8807 10.6238 12.0316Z" fill="#212121"/>
</svg>
