<svg width="22" height="22" viewBox="0 0 22 22" fill="none" xmlns="http://www.w3.org/2000/svg">
<path fill-rule="evenodd" clip-rule="evenodd" d="M5.46459 15.7509C4.95384 15.6497 4.33668 15.4878 3.82593 15.0427C2.65546 14.0512 2.29368 12.4122 1.485 12.8371C0.655027 13.262 0.676309 15.9127 3.27262 16.7221C4.16643 17.0054 4.97512 17.0054 5.63484 16.9852C5.80509 16.9852 7.27349 16.8435 7.78424 16.1556C8.29499 15.4676 7.93321 15.2855 7.76296 15.2045C7.57143 15.1034 6.18815 15.8723 5.46459 15.7509Z" fill="white" stroke="#637381" stroke-width="1.00418" stroke-linecap="round" stroke-linejoin="round"/>
<path fill-rule="evenodd" clip-rule="evenodd" d="M1.61312 12.8776C1.18749 12.999 0.974679 13.8488 1.18749 14.557C1.4003 15.2652 1.7408 15.6294 2.01746 15.8925C1.9749 15.7508 1.88977 15.3057 2.25155 15.0426C2.69846 14.6987 3.48587 14.8808 3.48587 14.8808C3.48587 14.8808 2.82615 14.1119 2.48565 13.5655C2.14515 13.1001 2.03874 12.7966 1.61312 12.8776Z" fill="white"/>
<path fill-rule="evenodd" clip-rule="evenodd" d="M8.82703 17.309C8.44396 17.5518 7.12453 18.4421 5.44331 18.948L5.35818 18.9682C5.27306 18.9884 5.2305 19.0896 5.27306 19.1706C5.63484 19.6562 6.29456 20.6274 5.12409 20.9714C3.99618 21.3154 1.88934 18.4623 2.78315 17.7137C3.1875 17.4304 3.54928 17.572 3.74081 17.653C3.84721 17.6934 3.95362 17.6934 4.06003 17.6732C4.3154 17.5923 4.78359 17.4304 5.14537 17.2483C6.06046 16.8031 6.27328 16.621 6.6989 16.3175C7.12453 16.014 8.10346 15.2653 8.89087 15.9128C9.57187 16.4591 9.18881 17.0662 8.82703 17.309ZM12.2107 13.1002C12.3171 13.1812 13.6153 14.638 14.0409 14.2738C14.5517 13.8489 15.254 13.0193 16.0201 13.687C16.7862 14.3548 15.3391 15.4879 14.7219 15.7914C13.2535 16.4187 12.0618 15.2248 11.8064 14.9011C11.551 14.5773 11.1041 14.031 11.1041 13.5049C11.1254 12.9384 11.849 12.7967 12.2107 13.1002Z" fill="white" stroke="#637381" stroke-width="1.00418" stroke-linecap="round" stroke-linejoin="round"/>
<path fill-rule="evenodd" clip-rule="evenodd" d="M10.6359 16.3376C10.8913 16.1555 11.1466 15.852 11.4871 15.3866C11.7638 15.0021 12.0617 14.2535 12.0617 14.2535C12.2533 13.7476 12.381 12.7764 11.6787 12.7966C11.2105 12.8168 10.7849 12.7561 10.0613 12.655C8.78443 12.4121 8.55033 12.2503 8.0183 13.0799C7.44371 14.0511 5.9753 14.7593 7.78421 16.4388C7.78421 16.4388 8.82699 17.2077 10.0826 18.3813C10.9338 19.1704 12.2745 20.3036 12.7427 20.688C12.8491 20.769 12.9768 20.8094 13.1045 20.8297C15.1688 21.0118 16.701 20.8094 16.701 19.9393C16.701 18.4825 13.6578 18.9883 13.6578 18.9883C13.6578 18.9883 12.6789 18.1992 12.232 17.8147L10.6359 16.3376Z" fill="white" stroke="#637381" stroke-width="1.00418" stroke-linecap="round" stroke-linejoin="round"/>
<path fill-rule="evenodd" clip-rule="evenodd" d="M11.5722 14.982C11.5722 14.982 11.9765 14.4761 11.0614 13.9298C10.1038 13.343 9.74198 13.9905 9.35892 14.4761C8.93329 15.1034 9.35892 15.4069 9.78454 15.7711C10.125 16.0747 10.4443 16.3175 10.4443 16.3175C10.4443 16.3175 11.104 15.8925 11.5722 14.982Z" fill="white"/>
<path fill-rule="evenodd" clip-rule="evenodd" d="M7.23097 14.6582C7.69916 15.2247 8.42272 15.9329 7.50763 16.5197C6.25204 17.1875 5.20926 15.164 4.99644 14.4558C4.80491 13.8285 5.35822 13.4239 5.82641 13.0799C6.74151 12.4526 7.50763 11.886 8.35888 12.1896C9.42294 12.5538 8.65682 13.3632 8.12479 13.7274C7.80557 13.9499 7.48635 14.1928 7.25226 14.3344C7.18841 14.4356 7.16713 14.557 7.23097 14.6582Z" fill="white" stroke="#637381" stroke-width="1.00418" stroke-linecap="round" stroke-linejoin="round"/>
<path fill-rule="evenodd" clip-rule="evenodd" d="M12.1046 2.63899C11.6151 2.55805 11.1044 2.51758 10.5085 2.55805C9.5083 2.59852 8.55064 2.9425 8.55064 2.9425L5.97561 1.34398C5.89049 1.30352 5.78408 1.36422 5.80536 1.44516L6.25227 5.06712C6.37996 4.90524 3.99646 7.65712 5.50743 9.96384C7.0184 12.2706 10.2319 13.3025 14.2327 12.5538C18.2336 11.8052 19.17 9.61986 18.9146 8.46649C18.6592 7.31313 17.1483 6.88821 17.1483 6.88821C17.1483 6.88821 17.127 5.97766 16.446 4.86477C16.0416 4.19704 14.6796 3.24602 14.6796 3.24602L14.1263 1.08094C14.105 1 13.9986 0.979766 13.9348 1.02023L12.1046 2.63899Z" fill="white" stroke="#637381" stroke-width="1.00418"/>
<path fill-rule="evenodd" clip-rule="evenodd" d="M17.0843 6.96913C17.0843 6.96913 18.5527 7.33335 18.808 8.48671C19.0634 9.64007 18.0419 11.7242 14.0836 12.4527C8.93354 13.4644 6.48619 10.5506 7.91204 8.40578C9.33788 6.24069 11.7852 8.08203 13.5728 7.96062C15.1051 7.85945 15.2753 6.58468 17.0843 6.96913Z" fill="white"/>
<path fill-rule="evenodd" clip-rule="evenodd" d="M10.3806 9.13424C10.3806 9.0533 10.4657 8.9926 10.5509 9.01283C10.9552 9.15447 12.1044 9.47822 13.3813 9.55916C14.5305 9.61987 15.2115 9.55916 15.5307 9.49846C15.6371 9.47822 15.7222 9.5794 15.6796 9.68057C15.4881 10.2269 14.6794 11.7445 12.4449 11.6231C10.5083 11.4207 10.3168 10.1257 10.3806 9.13424Z" fill="white" stroke="#637381" stroke-width="1.00418" stroke-linecap="round" stroke-linejoin="round"/>
<path d="M18.4673 7.98091C18.4673 7.98091 19.9995 7.96068 20.9998 7.19177M18.5524 9.17474C18.5524 9.17474 19.3824 9.5592 20.7231 9.45803" stroke="#637381" stroke-width="1.00418" stroke-linecap="round" stroke-linejoin="round"/>
<path fill-rule="evenodd" clip-rule="evenodd" d="M13.4878 7.43457C13.9347 7.43457 14.4029 7.47504 14.4242 7.61668C14.4455 7.89996 14.1262 8.46653 13.7857 8.48676C13.4027 8.52723 12.5089 8.02137 12.5089 7.69762C12.4876 7.4548 13.0622 7.43457 13.4878 7.43457Z" fill="#637381" stroke="#637381" stroke-width="1.00418" stroke-linecap="round" stroke-linejoin="round"/>
<path d="M3.91113 7.1311C3.91113 7.1311 5.74132 7.69767 6.48616 8.32493M4.0601 9.15454C4.0601 9.15454 5.63491 9.37712 6.55001 9.03314" stroke="#637381" stroke-width="1.00418" stroke-linecap="round" stroke-linejoin="round"/>
<path fill-rule="evenodd" clip-rule="evenodd" d="M15.9992 5.06719C16.6164 5.97773 16.6377 7.00969 16.0418 7.37391C15.4459 7.73813 14.467 7.31321 13.8285 6.40266C13.2114 5.49211 13.1901 4.46015 13.786 4.09594C14.3818 3.71148 15.3821 4.15664 15.9992 5.06719Z" fill="white" stroke="#637381" stroke-width="1.00418" stroke-linecap="round" stroke-linejoin="round"/>
<path fill-rule="evenodd" clip-rule="evenodd" d="M15.9136 6.22048C15.9136 6.44306 15.7433 6.62517 15.5305 6.62517C15.3177 6.62517 15.1475 6.44306 15.1475 6.22048C15.1475 5.99791 15.3177 5.8158 15.5305 5.8158C15.7433 5.8158 15.9136 5.99791 15.9136 6.22048Z" fill="#637381"/>
<path fill-rule="evenodd" clip-rule="evenodd" d="M10.7211 5.6338C11.3596 6.52412 11.317 7.61677 10.7424 8.00123C10.0401 8.38568 9.10375 8.1024 8.46532 7.21209C7.8056 6.32177 7.76303 5.16841 8.42275 4.72325C9.08247 4.25786 10.0827 4.74349 10.7211 5.6338Z" fill="white" stroke="#637381" stroke-width="1.00418" stroke-linecap="round" stroke-linejoin="round"/>
<path fill-rule="evenodd" clip-rule="evenodd" d="M10.5933 6.80728C10.5933 7.02985 10.423 7.21196 10.2102 7.21196C9.9974 7.21196 9.82715 7.02985 9.82715 6.80728C9.82715 6.5847 9.9974 6.40259 10.2102 6.40259C10.423 6.42282 10.5933 6.5847 10.5933 6.80728Z" fill="#637381"/>
</svg>
