<svg width="20" height="21" viewBox="0 0 20 21" fill="none" xmlns="http://www.w3.org/2000/svg">
<path d="M9.99992 20.4998C15.5227 20.4998 19.9998 16.0227 19.9998 10.4999C19.9998 4.97712 15.5227 0.5 9.99992 0.5C4.47712 0.5 0 4.97712 0 10.4999C0 16.0227 4.47712 20.4998 9.99992 20.4998Z" fill="#FDFFAA"/>
<path d="M9.99996 20.2509C15.3853 20.2509 19.7509 15.8853 19.7509 10.5C19.7509 5.11467 15.3853 0.749023 9.99996 0.749023C4.61467 0.749023 0.249023 5.11467 0.249023 10.5C0.249023 15.8853 4.61467 20.2509 9.99996 20.2509Z" fill="#FCD926"/>
<path d="M10 18.4229C14.3757 18.4229 17.9229 14.8757 17.9229 10.5C17.9229 6.12435 14.3757 2.57715 10 2.57715C5.62435 2.57715 2.07715 6.12435 2.07715 10.5C2.07715 14.8757 5.62435 18.4229 10 18.4229Z" fill="#FDFFAA"/>
<path d="M10.0001 18.1643C14.233 18.1643 17.6645 14.7328 17.6645 10.4999C17.6645 6.26692 14.233 2.83545 10.0001 2.83545C5.76716 2.83545 2.33569 6.26692 2.33569 10.4999C2.33569 14.7328 5.76716 18.1643 10.0001 18.1643Z" fill="white"/>
<path d="M17.6645 10.4999C17.6645 10.5991 17.6626 10.6979 17.659 10.7961C17.5031 6.70059 14.1337 3.42819 10.0001 3.42819C5.86645 3.42819 2.4971 6.70059 2.34121 10.7961C2.33749 10.6979 2.33569 10.5991 2.33569 10.4999C2.33569 6.26695 5.76719 2.83545 10.0001 2.83545C14.233 2.83545 17.6645 6.26695 17.6645 10.4999Z" fill="#CC9936"/>
<path d="M19.9998 10.5C19.9998 15.9568 15.6292 20.3927 10.1975 20.4979C10.1319 20.4993 10.0659 20.4999 9.99992 20.4999C9.67684 20.4999 9.35749 20.4847 9.04224 20.4546C8.59781 20.4124 8.16186 20.3411 7.73631 20.2426C6.56354 19.9713 5.46988 19.4936 4.4955 18.8499C4.25242 18.6894 4.01679 18.5186 3.78912 18.3379C2.99978 17.7117 2.30727 16.9688 1.73764 16.135C1.53013 15.8315 1.33893 15.5158 1.16545 15.1893C1.00365 14.8851 0.857136 14.5715 0.7268 14.2496C0.585678 13.9012 0.463688 13.543 0.362116 13.1762C0.182471 12.5283 0.0665163 11.8537 0.0214445 11.16C0.00719095 10.9418 0 10.7217 0 10.4998C0 10.3946 0.00166933 10.2899 0.00487958 10.1855C0.0145103 10.4962 0.0381377 10.8031 0.075505 11.1059C0.157174 11.7692 0.303818 12.4127 0.508889 13.0293C0.625998 13.3819 0.76237 13.7257 0.916718 14.0595C1.05977 14.3695 1.21848 14.671 1.39158 14.963C1.57803 15.2776 1.78143 15.5813 2.00011 15.8724C2.60544 16.6781 3.32954 17.3893 4.14661 17.98C4.38391 18.1517 4.62918 18.3131 4.88137 18.4637C5.90313 19.0738 7.0429 19.5068 8.2583 19.7202C8.70671 19.7988 9.16526 19.8478 9.63203 19.8646C9.75415 19.8691 9.87678 19.8714 9.99992 19.8714C10.2897 19.8714 10.5767 19.8591 10.8605 19.8348C15.8775 19.4073 19.8379 15.2753 19.995 10.1857C19.9982 10.2899 19.9998 10.3947 19.9998 10.4999V10.5Z" fill="#BFA82F"/>
<path d="M13.031 7.57218C12.7931 7.33761 12.4102 7.34022 12.1756 7.57804L10.7563 9.01698L10.899 9.70202L11.5619 9.92288L13.0369 8.42753C13.2714 8.18972 13.2688 7.80675 13.031 7.57218Z" fill="#405B6C"/>
<path d="M9.14378 9.07203L5.92495 6.20359C5.67554 5.98132 5.29323 6.00336 5.07101 6.25277C4.84878 6.50214 4.87077 6.88449 5.12019 7.10671L8.40241 10.0316L9.08636 9.80351L9.14378 9.07203Z" fill="#405B6C"/>
<path d="M14.2827 14.3999C14.214 14.3999 14.145 14.3767 14.0883 14.329L10.2573 11.1112C10.1295 11.0037 10.1128 10.813 10.2203 10.6851C10.3277 10.5572 10.5184 10.5406 10.6463 10.648L14.4773 13.866C14.6052 13.9734 14.6218 14.1642 14.5144 14.292C14.4546 14.3632 14.3689 14.3999 14.2827 14.3999Z" fill="#86DCFF"/>
<path d="M8.40234 10.0319L8.96719 10.5352L9.69258 10.2887L9.65324 9.52629L9.14375 9.07227C8.78926 9.28527 8.52094 9.62656 8.40234 10.0319Z" fill="#2D4456"/>
<path d="M10.7564 9.01709L10.2761 9.50396V10.4597H11.0326L11.562 9.92299C11.4165 9.52939 11.1264 9.20623 10.7564 9.01709Z" fill="#2D4456"/>
<path d="M10.9681 10.137C10.8211 9.74518 10.4431 9.46631 9.99999 9.46631C9.55687 9.46631 9.17886 9.74518 9.03191 10.137C8.98956 10.2499 9.0291 11.1706 9.99999 11.1706C10.9709 11.1706 11.0104 10.2499 10.9681 10.137Z" fill="#FF5876"/>
<path d="M9.99994 10.8079C9.55682 10.8079 9.17896 10.529 9.03201 10.1372C8.98963 10.2501 8.96631 10.3724 8.96631 10.5001C8.96631 11.071 9.42908 11.5337 9.9999 11.5337C10.5708 11.5337 11.0335 11.0709 11.0335 10.5001C11.0335 10.3724 11.0102 10.2501 10.9678 10.1372C10.8209 10.529 10.4431 10.8079 9.99994 10.8079Z" fill="#E6485D"/>
<path d="M10.303 4.15514V3.21658C10.303 3.04924 10.1674 2.91357 10 2.91357C9.83269 2.91357 9.69702 3.04924 9.69702 3.21658V4.15514C9.69702 4.32248 9.83265 4.45814 10 4.45814C10.1674 4.45814 10.303 4.32248 10.303 4.15514Z" fill="#405B6C"/>
<path d="M9.69702 16.8445V17.7831C9.69702 17.9504 9.83265 18.0861 10 18.0861C10.1674 18.0861 10.303 17.9504 10.303 17.7831V16.8445C10.303 16.6772 10.1674 16.5415 10 16.5415C9.83269 16.5415 9.69702 16.6772 9.69702 16.8445Z" fill="#405B6C"/>
<path d="M17.2833 10.8028C17.4507 10.8028 17.5863 10.6671 17.5863 10.4998C17.5863 10.3324 17.4507 10.1968 17.2833 10.1968H16.3448C16.1774 10.1968 16.0417 10.3324 16.0417 10.4998C16.0417 10.6671 16.1774 10.8028 16.3448 10.8028H17.2833Z" fill="#405B6C"/>
<path d="M2.71658 10.1968C2.5492 10.1968 2.41357 10.3324 2.41357 10.4998C2.41357 10.6671 2.5492 10.8028 2.71658 10.8028H3.65514C3.82252 10.8028 3.95814 10.6671 3.95814 10.4998C3.95814 10.3324 3.82248 10.1968 3.65514 10.1968H2.71658Z" fill="#405B6C"/>
</svg>
