<svg width="24" height="24" viewBox="0 0 24 24" fill="none" xmlns="http://www.w3.org/2000/svg">
<path d="M11.5 0C12.8807 0 14 1.11929 14 2.5V6.59971C13.6832 6.43777 13.3486 6.30564 13 6.20703V4H1V11.5C1 12.3284 1.67157 13 2.5 13H6.20703C6.30564 13.3486 6.43777 13.6832 6.59971 14H2.5C1.11929 14 0 12.8807 0 11.5V2.5C0 1.11929 1.11929 0 2.5 0H11.5ZM11.5 1H2.5C1.67157 1 1 1.67157 1 2.5V3H13V2.5C13 1.67157 12.3284 1 11.5 1ZM16 11.5C16 13.9853 13.9853 16 11.5 16C9.01472 16 7 13.9853 7 11.5C7 9.01472 9.01472 7 11.5 7C13.9853 7 16 9.01472 16 11.5ZM11.5 12.2071L12.6464 13.3536C12.8417 13.5488 13.1583 13.5488 13.3536 13.3536C13.5488 13.1583 13.5488 12.8417 13.3536 12.6464L12.2071 11.5L13.3536 10.3536C13.5488 10.1583 13.5488 9.84171 13.3536 9.64645C13.1583 9.45118 12.8417 9.45118 12.6464 9.64645L11.5 10.7929L10.3536 9.64645C10.1583 9.45118 9.84171 9.45118 9.64645 9.64645C9.45118 9.84171 9.45118 10.1583 9.64645 10.3536L10.7929 11.5L9.64645 12.6464C9.45118 12.8417 9.45119 13.1583 9.64645 13.3536C9.84171 13.5488 10.1583 13.5488 10.3536 13.3536L11.5 12.2071Z" fill="#212121"/>
</svg>
