<svg width="24" height="24" viewBox="0 0 24 24" fill="none" xmlns="http://www.w3.org/2000/svg">
<path d="M9.26754 3.66041C9.56827 3.95903 10.0558 3.95903 10.3566 3.66041C10.6573 3.36178 10.6573 2.87761 10.3566 2.57898C10.0558 2.28036 9.56827 2.28036 9.26754 2.57898C8.96681 2.87761 8.96681 3.36178 9.26754 3.66041ZM1.53595 5.32965C0.749733 6.11102 0.749735 7.37788 1.53596 8.15926L4.84578 11.4487C5.632 12.23 6.90672 12.23 7.69294 11.4487L12.3821 6.78839C12.7561 6.4167 12.9679 5.91367 12.9717 5.38804L12.9962 2.01528C13.0043 0.901364 12.0955 -0.00463358 10.9746 1.78306e-05L7.71053 0.0135651C7.1795 0.0157686 6.67086 0.226395 6.29536 0.599577L1.53595 5.32965ZM2.24775 7.45185C1.85463 7.06116 1.85463 6.42773 2.24774 6.03705L7.00715 1.30698C7.1949 1.12039 7.44922 1.01508 7.71473 1.01397L10.9788 1.00043C11.5393 0.998101 11.9937 1.4511 11.9896 2.00806L11.9651 5.38081C11.9632 5.64363 11.8573 5.89515 11.6703 6.08099L6.98115 10.7413C6.58804 11.132 5.95068 11.132 5.55757 10.7413L2.24775 7.45185Z" fill="#212121"/>
</svg>
