<svg width="24" height="24" viewBox="0 0 24 24" fill="none" xmlns="http://www.w3.org/2000/svg">
	<path d="M7.99921 4.00003C5.79007 4.00003 3.99921 5.79089 3.99921 8.00003C3.99921 10.2092 5.79007 12 7.99921 12C10.2083 12 11.9992 10.2092 11.9992 8.00003C11.9992 5.79089 10.2083 4.00003 7.99921 4.00003ZM4.99921 8.00003C4.99921 6.34318 6.34235 5.00003 7.99921 5.00003C9.65606 5.00003 10.9992 6.34318 10.9992 8.00003C10.9992 9.65689 9.65606 11 7.99921 11C6.34235 11 4.99921 9.65689 4.99921 8.00003ZM6.12314 0C5.55609 0 5.03751 0.319766 4.78288 0.826432L4.19339 1.9994H2.50391C1.1232 1.9994 0.00390625 3.11868 0.00390625 4.4994V12.5C0.00390625 13.8807 1.12319 15 2.50391 15H13.5039C14.8846 15 16.0039 13.8807 16.0039 12.5V4.4994C16.0039 3.11869 14.8846 1.9994 13.5039 1.9994H11.814L11.229 0.829302C10.975 0.321059 10.4556 0 9.88734 0H6.12314ZM5.67639 1.27548C5.76127 1.10659 5.93413 1 6.12314 1H9.88734C10.0767 1 10.2499 1.10702 10.3346 1.27643L11.0577 2.72296C11.1424 2.89238 11.3155 2.9994 11.5049 2.9994H13.5039C14.3323 2.9994 15.0039 3.67097 15.0039 4.4994V12.5C15.0039 13.3284 14.3323 14 13.5039 14H2.50391C1.67548 14 1.00391 13.3284 1.00391 12.5V4.4994C1.00391 3.67097 1.67548 2.9994 2.50391 2.9994H4.5017C4.69072 2.9994 4.86358 2.89281 4.94845 2.72392L5.67639 1.27548Z" fill="#212121" />
</svg>
