<svg width="13" height="16" viewBox="0 0 13 16" fill="none" xmlns="http://www.w3.org/2000/svg">
<path d="M11.3536 9.35355L6.85355 13.8536C6.65829 14.0488 6.34171 14.0488 6.14645 13.8536L1.64645 9.35355C1.45118 9.15829 1.45118 8.84171 1.64645 8.64645C1.84171 8.45118 2.15829 8.45118 2.35355 8.64645L6 12.2929V2.5C6 2.22386 6.22386 2 6.5 2C6.77614 2 7 2.22386 7 2.5V12.2929L10.6464 8.64645C10.8417 8.45118 11.1583 8.45118 11.3536 8.64645C11.5488 8.84171 11.5488 9.15829 11.3536 9.35355ZM0.5 1C0.223858 1 0 0.776142 0 0.5C0 0.223858 0.223858 0 0.5 0H12.5C12.7761 0 13 0.223858 13 0.5C13 0.776142 12.7761 1 12.5 1H0.5ZM0.5 16C0.223858 16 0 15.7761 0 15.5C0 15.2239 0.223858 15 0.5 15H1.5C1.77614 15 2 15.2239 2 15.5C2 15.7761 1.77614 16 1.5 16H0.5ZM3.5 16C3.22386 16 3 15.7761 3 15.5C3 15.2239 3.22386 15 3.5 15H5.5C5.77614 15 6 15.2239 6 15.5C6 15.7761 5.77614 16 5.5 16H3.5ZM7.5 16C7.22386 16 7 15.7761 7 15.5C7 15.2239 7.22386 15 7.5 15H9.5C9.77614 15 10 15.2239 10 15.5C10 15.7761 9.77614 16 9.5 16H7.5ZM11.5 16C11.2239 16 11 15.7761 11 15.5C11 15.2239 11.2239 15 11.5 15H12.5C12.7761 15 13 15.2239 13 15.5C13 15.7761 12.7761 16 12.5 16H11.5Z" fill="#212121"/>
</svg>
