<svg width="24" height="24" viewBox="0 0 24 24" fill="none" xmlns="http://www.w3.org/2000/svg">
<path d="M0.5 0C0.223858 0 0 0.223858 0 0.5C0 0.776142 0.223858 1 0.5 1H1.5C1.77614 1 2 0.776142 2 0.5C2 0.223858 1.77614 0 1.5 0H0.5ZM3.5 0C3.22386 0 3 0.223858 3 0.5C3 0.776142 3.22386 1 3.5 1H5.5C5.77614 1 6 0.776142 6 0.5C6 0.223858 5.77614 0 5.5 0H3.5ZM7.5 0C7.22386 0 7 0.223858 7 0.5C7 0.776142 7.22386 1 7.5 1H9.5C9.77614 1 10 0.776142 10 0.5C10 0.223858 9.77614 0 9.5 0H7.5ZM11.5 0C11.2239 0 11 0.223858 11 0.5C11 0.776142 11.2239 1 11.5 1H12.5C12.7761 1 13 0.776142 13 0.5C13 0.223858 12.7761 0 12.5 0H11.5ZM6.85355 2.14645C6.65829 1.95118 6.34171 1.95118 6.14645 2.14645L1.64645 6.64645C1.45118 6.84171 1.45118 7.15829 1.64645 7.35355C1.84171 7.54882 2.15829 7.54882 2.35355 7.35355L6 3.70711V13.5C6 13.7761 6.22386 14 6.5 14C6.77614 14 7 13.7761 7 13.5V3.70711L10.6464 7.35355C10.8417 7.54882 11.1583 7.54882 11.3536 7.35355C11.5488 7.15829 11.5488 6.84171 11.3536 6.64645L6.85355 2.14645ZM0.5 15C0.223858 15 0 15.2239 0 15.5C0 15.7761 0.223858 16 0.5 16H12.5C12.7761 16 13 15.7761 13 15.5C13 15.2239 12.7761 15 12.5 15H0.5Z" fill="#212121"/>
</svg>
