<svg width="20" height="21" viewBox="0 0 20 21" fill="none" xmlns="http://www.w3.org/2000/svg">
<path d="M9.99992 20.4998C15.5227 20.4998 19.9998 16.0227 19.9998 10.4999C19.9998 4.97712 15.5227 0.5 9.99992 0.5C4.47712 0.5 0 4.97712 0 10.4999C0 16.0227 4.47712 20.4998 9.99992 20.4998Z" fill="#9BF59F"/>
<path d="M9.99996 20.2509C15.3853 20.2509 19.7509 15.8853 19.7509 10.5C19.7509 5.11467 15.3853 0.749023 9.99996 0.749023C4.61467 0.749023 0.249023 5.11467 0.249023 10.5C0.249023 15.8853 4.61467 20.2509 9.99996 20.2509Z" fill="#6ACF6E"/>
<path d="M10 18.4229C14.3757 18.4229 17.9229 14.8757 17.9229 10.5C17.9229 6.12435 14.3757 2.57715 10 2.57715C5.62435 2.57715 2.07715 6.12435 2.07715 10.5C2.07715 14.8757 5.62435 18.4229 10 18.4229Z" fill="#9BF59F"/>
<path d="M10.0001 18.1643C14.233 18.1643 17.6645 14.7328 17.6645 10.4999C17.6645 6.26692 14.233 2.83545 10.0001 2.83545C5.76716 2.83545 2.33569 6.26692 2.33569 10.4999C2.33569 14.7328 5.76716 18.1643 10.0001 18.1643Z" fill="#2F9933"/>
<path fill-rule="evenodd" clip-rule="evenodd" d="M13.8733 8.14828C14.0422 8.31722 14.0422 8.59514 13.8733 8.76408L9.7861 12.8513C9.70164 12.9357 9.58992 12.9793 9.4782 12.9793C9.36649 12.9793 9.25477 12.9357 9.1703 12.8513L7.1267 10.8077C6.95777 10.6387 6.95777 10.3608 7.1267 10.1919C7.29564 10.0229 7.57357 10.0229 7.74251 10.1919L9.4782 11.9276L13.2575 8.14828C13.4264 7.97662 13.7044 7.97662 13.8733 8.14828Z" fill="white"/>
<path d="M17.6645 10.4999C17.6645 10.5991 17.6626 10.6979 17.659 10.7961C17.5031 6.70059 14.1337 3.42819 10.0001 3.42819C5.86645 3.42819 2.4971 6.70059 2.34121 10.7961C2.33749 10.6979 2.33569 10.5991 2.33569 10.4999C2.33569 6.26695 5.76719 2.83545 10.0001 2.83545C14.233 2.83545 17.6645 6.26695 17.6645 10.4999Z" fill="#226E25"/>
<path d="M19.9998 10.5C19.9998 15.9568 15.6292 20.3927 10.1975 20.4979C10.1319 20.4993 10.0659 20.4999 9.99992 20.4999C9.67684 20.4999 9.35749 20.4847 9.04224 20.4546C8.59781 20.4124 8.16186 20.3411 7.73631 20.2426C6.56354 19.9713 5.46988 19.4936 4.4955 18.8499C4.25242 18.6894 4.01679 18.5186 3.78912 18.3379C2.99978 17.7117 2.30727 16.9688 1.73764 16.135C1.53013 15.8315 1.33893 15.5158 1.16545 15.1893C1.00365 14.8851 0.857136 14.5715 0.7268 14.2496C0.585678 13.9012 0.463688 13.543 0.362116 13.1762C0.182471 12.5283 0.0665163 11.8537 0.0214445 11.16C0.00719095 10.9418 0 10.7217 0 10.4998C0 10.3946 0.00166933 10.2899 0.00487958 10.1855C0.0145103 10.4962 0.0381377 10.8031 0.075505 11.1059C0.157174 11.7692 0.303818 12.4127 0.508889 13.0293C0.625998 13.3819 0.76237 13.7257 0.916718 14.0595C1.05977 14.3695 1.21848 14.671 1.39158 14.963C1.57803 15.2776 1.78143 15.5813 2.00011 15.8724C2.60544 16.6781 3.32954 17.3893 4.14661 17.98C4.38391 18.1517 4.62918 18.3131 4.88137 18.4637C5.90313 19.0738 7.0429 19.5068 8.2583 19.7202C8.70671 19.7988 9.16526 19.8478 9.63203 19.8646C9.75415 19.8691 9.87678 19.8714 9.99992 19.8714C10.2897 19.8714 10.5767 19.8591 10.8605 19.8348C15.8775 19.4073 19.8379 15.2753 19.995 10.1857C19.9982 10.2899 19.9998 10.3947 19.9998 10.4999V10.5Z" fill="#40A044"/>
</svg>
