<svg width="20" height="20" viewBox="0 0 20 20" fill="none" xmlns="http://www.w3.org/2000/svg">
<path d="M0 4C0 1.79086 1.79086 0 4 0H16C18.2091 0 20 1.79086 20 4V16C20 18.2091 18.2091 20 16 20H4C1.79086 20 0 18.2091 0 16V4Z" fill="#045FBB"/>
<g clip-path="url(#clip0_1658_12532)">
<path d="M16.2326 10.4361L13.3345 7.21738C13.2444 7.11729 13.0761 7.10847 12.976 7.19859L12.2782 7.82691C12.174 7.92075 12.1656 8.08128 12.2594 8.18551L14.3595 10.5176L12.0273 12.6177C11.923 12.7116 11.9146 12.8721 12.0085 12.9763L12.6368 13.6741C12.6818 13.7242 12.745 13.7544 12.8122 13.758C12.8793 13.7615 12.9453 13.738 12.9954 13.6929L16.2138 10.7949C16.3181 10.701 16.3265 10.5403 16.2326 10.4361Z" fill="white"/>
<path d="M8.35193 12.4251L6.25229 10.0929L8.58458 7.99314C8.63463 7.94808 8.66476 7.88507 8.66829 7.81774C8.67181 7.75053 8.64856 7.68459 8.60338 7.63454L7.97506 6.93673C7.93 6.88668 7.86686 6.85655 7.79966 6.85302C7.73245 6.8495 7.6665 6.87287 7.61646 6.91793L4.39766 9.81579C4.29343 9.90964 4.28502 10.0702 4.37886 10.1745L7.27699 13.3931C7.32204 13.4431 7.38518 13.4734 7.45239 13.4769C7.51959 13.4804 7.58555 13.4569 7.63559 13.4119L8.3334 12.7836C8.43762 12.6898 8.44603 12.5293 8.35193 12.4251Z" fill="white"/>
<path d="M12.2686 6.12981C12.2395 6.06903 12.1875 6.02231 12.1241 5.99991L11.5948 5.81311C11.4628 5.76626 11.3175 5.83583 11.2709 5.96804L8.33261 14.2879C8.31021 14.3515 8.31393 14.4212 8.34292 14.4819C8.3719 14.5428 8.424 14.5893 8.48742 14.6119L9.01663 14.7987C9.04022 14.807 9.06426 14.8117 9.08797 14.813C9.19741 14.8187 9.30222 14.7525 9.3406 14.6437L12.2789 6.32375C12.3013 6.2602 12.2977 6.19046 12.2686 6.12981Z" fill="white"/>
</g>
<defs>
<clipPath id="clip0_1658_12532">
<rect width="12" height="12" fill="white" transform="translate(4.62793 4) rotate(3)"/>
</clipPath>
</defs>
</svg>
