<svg width="20" height="21" viewBox="0 0 20 21" fill="none" xmlns="http://www.w3.org/2000/svg">
<path d="M9.99992 20.4998C15.5227 20.4998 19.9998 16.0227 19.9998 10.4999C19.9998 4.97712 15.5227 0.5 9.99992 0.5C4.47712 0.5 0 4.97712 0 10.4999C0 16.0227 4.47712 20.4998 9.99992 20.4998Z" fill="#B6C3FE"/>
<path d="M9.99996 20.2206C15.3853 20.2206 19.7509 15.855 19.7509 10.4697C19.7509 5.08439 15.3853 0.71875 9.99996 0.71875C4.61467 0.71875 0.249023 5.08439 0.249023 10.4697C0.249023 15.855 4.61467 20.2206 9.99996 20.2206Z" fill="#7F96FF"/>
<path d="M10 18.3927C14.3757 18.3927 17.9229 14.8455 17.9229 10.4698C17.9229 6.09407 14.3757 2.54688 10 2.54688C5.62435 2.54688 2.07715 6.09407 2.07715 10.4698C2.07715 14.8455 5.62435 18.3927 10 18.3927Z" fill="#C7D0FF"/>
<path d="M10.0001 18.134C14.233 18.134 17.6645 14.7025 17.6645 10.4696C17.6645 6.23665 14.233 2.80518 10.0001 2.80518C5.76716 2.80518 2.33569 6.23665 2.33569 10.4696C2.33569 14.7025 5.76716 18.134 10.0001 18.134Z" fill="#3552DC"/>
<path d="M17.6645 10.4696C17.6645 10.5688 17.6626 10.6676 17.659 10.7658C17.5031 6.67031 14.1337 3.39792 10.0001 3.39792C5.86645 3.39792 2.4971 6.67031 2.34121 10.7658C2.33749 10.6676 2.33569 10.5688 2.33569 10.4696C2.33569 6.23667 5.76719 2.80518 10.0001 2.80518C14.233 2.80518 17.6645 6.23667 17.6645 10.4696Z" fill="#112997"/>
<path d="M19.9998 10.4697C19.9998 15.9265 15.6292 20.3624 10.1975 20.4676C10.1319 20.469 10.0659 20.4697 9.99992 20.4697C9.67684 20.4697 9.35749 20.4544 9.04224 20.4243C8.59781 20.3821 8.16186 20.3108 7.73631 20.2123C6.56354 19.941 5.46988 19.4633 4.4955 18.8196C4.25242 18.6591 4.01679 18.4883 3.78912 18.3076C2.99978 17.6814 2.30727 16.9385 1.73764 16.1048C1.53013 15.8012 1.33893 15.4856 1.16545 15.159C1.00365 14.8548 0.857136 14.5412 0.7268 14.2193C0.585678 13.8709 0.463688 13.5127 0.362116 13.1459C0.182471 12.498 0.0665163 11.8234 0.0214445 11.1298C0.00719095 10.9115 0 10.6914 0 10.4695C0 10.3643 0.00166933 10.2597 0.00487958 10.1553C0.0145103 10.4659 0.0381377 10.7728 0.075505 11.0756C0.157174 11.739 0.303818 12.3824 0.508889 12.999C0.625998 13.3517 0.76237 13.6954 0.916718 14.0293C1.05977 14.3393 1.21848 14.6408 1.39158 14.9328C1.57803 15.2474 1.78143 15.5511 2.00011 15.8422C2.60544 16.6478 3.32954 17.3591 4.14661 17.9498C4.38391 18.1214 4.62918 18.2829 4.88137 18.4335C5.90313 19.0436 7.0429 19.4766 8.2583 19.69C8.70671 19.7686 9.16526 19.8175 9.63203 19.8343C9.75415 19.8388 9.87678 19.8411 9.99992 19.8411C10.2897 19.8411 10.5767 19.8288 10.8605 19.8045C15.8775 19.377 19.8379 15.2451 19.995 10.1554C19.9982 10.2597 19.9998 10.3645 19.9998 10.4696V10.4697Z" fill="#506CF0"/>
<path d="M13.5744 7.40366C13.3549 7.40366 13.1773 7.5815 13.1773 7.80081V8.19934C12.4399 7.21824 11.2704 6.60938 10.0002 6.60938C8.13275 6.60938 6.53988 7.87972 6.12685 9.69848C6.07836 9.91238 6.21256 10.1253 6.42626 10.1738C6.45612 10.1806 6.48559 10.1837 6.51466 10.1837C6.6958 10.1837 6.85982 10.0588 6.90172 9.87457C7.23179 8.41979 8.50622 7.40366 10.0002 7.40366C11.1458 7.40366 12.1851 8.02539 12.7461 8.99224H11.9859C11.7664 8.99224 11.5887 9.17008 11.5887 9.38938C11.5887 9.60868 11.7664 9.78652 11.9859 9.78652H13.5744C13.7939 9.78652 13.9716 9.60868 13.9716 9.38938V7.80081C13.9716 7.5815 13.7939 7.40366 13.5744 7.40366Z" fill="white"/>
<path d="M6.42571 13.758C6.64521 13.758 6.82285 13.5802 6.82285 13.3609V12.9537C7.56424 13.9506 8.72445 14.5523 10 14.5523C11.8674 14.5523 13.4603 13.2819 13.8733 11.4632C13.9218 11.2493 13.7876 11.0364 13.5739 10.9879C13.3579 10.938 13.1469 11.0732 13.0984 11.2871C12.7684 12.7419 11.4939 13.758 10 13.758C8.854 13.758 7.82445 13.1514 7.25649 12.1694H8.01428C8.23378 12.1694 8.41143 11.9916 8.41143 11.7723C8.41143 11.553 8.23378 11.3751 8.01428 11.3751H6.42571C6.20621 11.3751 6.02856 11.553 6.02856 11.7723V13.3609C6.02856 13.5802 6.20621 13.758 6.42571 13.758Z" fill="white"/>
</svg>
