<svg width="20" height="20" viewBox="0 0 20 20" fill="none" xmlns="http://www.w3.org/2000/svg">
<path d="M0 4C0 1.79086 1.79086 0 4 0H16C18.2091 0 20 1.79086 20 4V16C20 18.2091 18.2091 20 16 20H4C1.79086 20 0 18.2091 0 16V4Z" fill="#00B2EA"/>
<g clip-path="url(#clip0_5854_6338)">
<path d="M4.44747 4C4.44704 4 4.44655 4 4.44612 4C4.29479 4 4.15246 4.05899 4.04498 4.1662C3.93632 4.27459 3.87646 4.41892 3.87646 4.57257V13.1581C3.87646 13.4729 4.1336 13.7297 4.44973 13.7305C5.78245 13.7337 8.01528 14.0114 9.55563 15.6234V6.63839C9.55563 6.53167 9.52837 6.43141 9.47692 6.34845C8.21268 4.31247 5.7832 4.00312 4.44747 4Z" fill="white"/>
<path d="M16.1237 13.1581V4.57257C16.1237 4.41892 16.0638 4.27459 15.9552 4.1662C15.8477 4.05899 15.7053 4 15.5541 4C15.5536 4 15.5531 4 15.5527 4C14.217 4.00318 11.7875 4.31252 10.5232 6.3485C10.4718 6.43146 10.4446 6.53172 10.4446 6.63845V15.6234C11.9849 14.0114 14.2178 13.7337 15.5505 13.7305C15.8665 13.7297 16.1237 13.4729 16.1237 13.1581Z" fill="white"/>
<path d="M17.4276 5.98047H17.0125V13.1586C17.0125 13.9624 16.3575 14.6179 15.5524 14.6199C14.422 14.6226 12.5581 14.8436 11.238 16.093C13.5211 15.534 15.9278 15.8974 17.2994 16.21C17.4707 16.249 17.6477 16.2087 17.7849 16.0993C17.9216 15.9902 18.0001 15.8272 18.0001 15.6521V6.55293C18.0001 6.23728 17.7432 5.98047 17.4276 5.98047Z" fill="white"/>
<path d="M2.98761 13.1586V5.98047H2.57246C2.25687 5.98047 2 6.23728 2 6.55293V15.652C2 15.827 2.07844 15.9901 2.21517 16.0992C2.35228 16.2085 2.52909 16.2489 2.70062 16.2098C4.07224 15.8972 6.47903 15.5339 8.76196 16.0929C7.44196 14.8435 5.57805 14.6225 4.44763 14.6199C3.6426 14.6179 2.98761 13.9624 2.98761 13.1586Z" fill="white"/>
</g>
<defs>
<clipPath id="clip0_5854_6338">
<rect width="16" height="16" fill="white" transform="translate(2 2)"/>
</clipPath>
</defs>
</svg>
