<svg width="20" height="20" viewBox="0 0 20 20" fill="none" xmlns="http://www.w3.org/2000/svg">
<g clip-path="url(#clip0_2008_19216)">
<path d="M0 4C0 1.79086 1.79086 0 4 0H16C18.2091 0 20 1.79086 20 4V16C20 18.2091 18.2091 20 16 20H4C1.79086 20 0 18.2091 0 16V4Z" fill="#F9A83A"/>
<path fill-rule="evenodd" clip-rule="evenodd" d="M9.54208 9.2622C8.63217 9.15906 8.14645 8.71651 8.3875 7.34729L8.41573 7.18205C8.61841 5.99227 8.78852 5.72758 9.5761 5.75863C9.80629 5.76916 10.072 5.87492 10.3369 6.03332C10.583 6.24012 11.1295 6.50797 11.4372 7.0384C11.658 7.4278 11.734 7.68196 11.7658 7.95507L11.8143 8.29027V8.28869C11.8795 8.51812 12.1212 8.70651 12.4557 8.74755C12.8864 8.80491 13.3019 8.59653 13.3772 8.28343C13.3873 8.24607 13.582 4.63989 13.582 4.58095C13.582 4.26312 13.2317 4.00527 12.7915 4.00001C12.3529 3.99843 11.9967 4.25785 11.9967 4.57464C11.9967 4.58148 11.9946 5.07928 11.9801 5.5813C11.3547 5.08665 10.5541 4.64357 9.6579 4.60516C7.25898 4.51202 6.99694 6.11541 6.83913 7.03945L6.81524 7.2031C6.49167 9.02908 7.32992 10.181 9.29813 10.4046C11.4372 10.6488 12.8654 11.0061 12.8784 11.9628C12.8864 12.3348 12.6171 12.7163 12.1473 13.0099C11.5812 13.3599 10.8241 13.5172 10.1103 13.432C9.88881 13.4072 9.68106 13.363 9.482 13.3151C9.20186 13.2015 8.49608 12.8894 8.13776 12.529C7.83591 12.2248 7.73094 11.747 7.69837 11.4439C7.70199 11.3081 7.70271 11.2182 7.70271 11.2082C7.71068 10.8887 7.35815 10.6288 6.92382 10.6214C6.48299 10.6141 6.12105 10.8719 6.11309 11.1908C6.11309 11.2013 6.09354 12.3311 6.03635 13.0115C5.95456 14.1076 6.03635 15.0359 6.03635 15.0764C6.06893 15.3948 6.44534 15.6347 6.88401 15.6137C7.32123 15.5968 7.65421 15.3211 7.62381 15.0022C7.62381 14.9969 7.58472 14.547 7.58979 13.9255C8.17178 14.1955 8.93619 14.4581 9.8461 14.5707C11.0333 14.7154 12.2472 14.466 13.1745 13.8866C14.0048 13.3704 14.4803 12.6647 14.4673 11.9506C14.4391 9.81894 11.1295 9.44427 9.54208 9.2622Z" fill="white"/>
</g>
<defs>
<clipPath id="clip0_2008_19216">
<rect width="20" height="20" fill="white"/>
</clipPath>
</defs>
</svg>
