<svg width="28" height="28" viewBox="0 0 28 28" fill="none" xmlns="http://www.w3.org/2000/svg">
<path d="M28 4.66666H0V23.3335H28V4.66666Z" fill="#F0F0F0"/>
<path d="M15.75 4.66647H12.25V12.2498H0V15.7498H12.25V23.3331H15.75V15.7498H28V12.2498H15.75V4.66647Z" fill="#D80027"/>
<path d="M21.5352 17.2462L28 20.8378V17.2462H21.5352Z" fill="#0052B4"/>
<path d="M17.0435 17.2462L28 23.3331V21.6119L20.1418 17.2462H17.0435Z" fill="#0052B4"/>
<path d="M25.0815 23.3331L17.0435 18.8671V23.3331H25.0815Z" fill="#0052B4"/>
<path d="M17.0435 17.2462L28 23.3331V21.6119L20.1418 17.2462H17.0435Z" fill="#F0F0F0"/>
<path d="M17.0435 17.2462L28 23.3331V21.6119L20.1418 17.2462H17.0435Z" fill="#D80027"/>
<path d="M4.94052 17.246L0 19.9908V17.246H4.94052Z" fill="#0052B4"/>
<path d="M10.9565 18.0201V23.333H1.39404L10.9565 18.0201Z" fill="#0052B4"/>
<path d="M7.85821 17.2462L0 21.6119V23.3331L10.9565 17.2462H7.85821Z" fill="#D80027"/>
<path d="M6.46488 10.7534L0 7.16174V10.7534H6.46488Z" fill="#0052B4"/>
<path d="M10.9565 10.7534L0 4.66647V6.38771L7.85821 10.7534H10.9565Z" fill="#0052B4"/>
<path d="M2.91846 4.66647L10.9565 9.13247V4.66647H2.91846Z" fill="#0052B4"/>
<path d="M10.9565 10.7534L0 4.66647V6.38771L7.85821 10.7534H10.9565Z" fill="#F0F0F0"/>
<path d="M10.9565 10.7534L0 4.66647V6.38771L7.85821 10.7534H10.9565Z" fill="#D80027"/>
<path d="M23.0594 10.7535L28 8.00876V10.7535H23.0594Z" fill="#0052B4"/>
<path d="M17.0435 9.97948V4.66653H26.6059L17.0435 9.97948Z" fill="#0052B4"/>
<path d="M20.1418 10.7534L28 6.38771V4.66647L17.0435 10.7534H20.1418Z" fill="#D80027"/>
</svg>
