<svg id="Layer_1" data-name="Layer 1" xmlns="http://www.w3.org/2000/svg" xmlns:xlink="http://www.w3.org/1999/xlink" viewBox="0 0 50 50"><defs><style>.cls-1{fill:none;}.cls-2{clip-path:url(#clip-path);}.cls-3{fill:#2f4794;}.cls-4{fill:#fcf5f9;}.cls-5{fill:#ee2d28;}.cls-6{fill:#fff;}.cls-7{fill:#cd202d;}</style><clipPath id="clip-path"><path class="cls-1" d="M48.17,8.43,48,7.33,25,.79,2,7.33l-.2,1.1a38.25,38.25,0,0,0,1,15.12A37.63,37.63,0,0,0,9.3,36.79a42.47,42.47,0,0,0,14.9,12l.8.4.8-.4a42.47,42.47,0,0,0,14.9-12,37.63,37.63,0,0,0,6.45-13.24A38.25,38.25,0,0,0,48.17,8.43Z"/></clipPath></defs><title>Country</title><g class="cls-2"><polygon class="cls-3" points="64.58 0.23 64.58 49.84 64.57 49.85 -14.55 49.85 -14.55 0.23 64.58 0.23"/><polygon class="cls-4" points="64.58 44.67 64.58 49.84 64.57 49.85 56.34 49.85 32.05 34.62 29.62 33.1 26.75 31.3 25.79 30.69 22.87 28.86 21.78 28.18 20.87 27.61 19.03 26.46 18.44 26.09 17.54 25.53 8.92 20.11 5.04 17.68 -14.55 5.4 -14.55 0.23 -14.49 0.14 -14.33 0.23 -6.32 0.23 18.44 15.75 20.87 17.28 21.52 17.68 25.4 20.11 25.79 20.36 27.27 21.29 29.62 22.76 30.02 23.02 32.05 24.29 34.03 25.53 39.36 28.86 43.24 31.3 64.58 44.67"/><polygon class="cls-5" points="64.59 49.7 64.61 49.88 59.31 49.85 32.05 32.76 29.73 31.3 29.62 31.23 27.27 29.76 25.86 28.86 23.27 27.24 20.87 25.75 20.53 25.53 19.03 24.59 18.44 24.22 11.89 20.11 8.02 17.68 -14.55 3.53 -14.55 0.12 -14.49 0.14 -14.33 0.23 13.51 17.68 17.38 20.11 18.44 20.78 20.87 22.31 21.78 22.88 23.27 23.81 26.01 25.53 29.62 27.79 30.02 28.04 31.34 28.86 32.05 29.32 35.21 31.3 64.59 49.7"/><polygon class="cls-4" points="64.58 1.21 64.58 6.38 46.54 17.68 42.67 20.11 34.03 25.53 32.05 26.77 30.02 28.04 29.62 28.29 28.7 28.86 27.27 29.76 25.79 30.69 24.82 31.3 20.87 33.78 18.44 35.3 -4.77 49.85 -14.55 49.85 -14.55 45.65 8.34 31.3 12.21 28.86 17.54 25.53 18.44 24.97 19.03 24.59 20.87 23.44 21.78 22.88 25.79 20.36 26.18 20.11 29.62 17.96 30.06 17.68 32.05 16.43 57.89 0.23 63.96 0.23 64.58 1.21"/><polygon class="cls-5" points="64.38 1.47 38.52 17.68 34.64 20.11 32.05 21.74 30.02 23.02 29.62 23.27 26.01 25.53 23.27 27.24 21.78 28.18 20.87 28.75 20.68 28.86 18.44 30.28 16.8 31.3 -12.77 49.85 -14.55 49.85 -14.55 47.53 11.32 31.3 15.2 28.86 18.44 26.84 19.03 26.46 20.53 25.53 20.87 25.31 23.27 23.81 27.27 21.29 29.15 20.11 29.62 19.82 32.05 18.3 33.03 17.68 60.86 0.23 63.61 0.23 64.58 0.23 64.59 1.32 64.38 1.47"/><rect class="cls-6" x="-14.62" y="17.68" width="79.24" height="13.61"/><rect class="cls-5" x="-14.62" y="20.11" width="79.24" height="8.75"/><rect class="cls-7" x="20.87" y="0.23" width="8.75" height="49.62"/><polygon class="cls-6" points="29.6 31.3 32.03 31.3 32.03 49.85 18.42 49.85 18.42 31.3 20.85 31.3 20.85 17.68 18.42 17.68 18.42 0.23 32.03 0.23 32.03 17.68 29.6 17.68 29.6 31.3"/><rect class="cls-5" x="20.8" y="0.23" width="8.84" height="49.62"/></g></svg>