<svg id="Layer_1" data-name="Layer 1" xmlns="http://www.w3.org/2000/svg" xmlns:xlink="http://www.w3.org/1999/xlink" viewBox="0 0 50 50"><defs><style>.cls-1{fill:none;}.cls-2{clip-path:url(#clip-path);}.cls-3{fill:#2f4794;}.cls-4{fill:#fcf5f9;}.cls-5{fill:#ee2d28;}.cls-6{fill:#fff;}.cls-7{fill:#ad1f23;}</style><clipPath id="clip-path"><path class="cls-1" d="M-8.16,8.43l-.2-1.1-23-6.54-23,6.54-.19,1.1a38.36,38.36,0,0,0,1,15.12A37.48,37.48,0,0,0-47,36.79a42.52,42.52,0,0,0,14.89,12l.81.4.8-.4a42.47,42.47,0,0,0,14.9-12A37.63,37.63,0,0,0-9.18,23.55,38.25,38.25,0,0,0-8.16,8.43Z"/></clipPath></defs><title>Country</title><g class="cls-2"><polygon class="cls-3" points="8.25 0.23 8.25 49.84 8.24 49.85 -70.89 49.85 -70.89 0.23 8.25 0.23"/><polygon class="cls-4" points="8.25 44.67 8.25 49.84 8.24 49.85 0 49.85 -24.28 34.62 -26.71 33.1 -29.58 31.3 -30.55 30.69 -33.46 28.86 -34.55 28.18 -35.47 27.61 -37.3 26.46 -37.9 26.09 -38.79 25.53 -47.42 20.11 -51.3 17.68 -70.89 5.4 -70.89 0.23 -70.82 0.14 -70.67 0.23 -62.65 0.23 -37.9 15.75 -35.47 17.28 -34.81 17.68 -30.93 20.11 -30.55 20.36 -29.06 21.29 -26.71 22.76 -26.32 23.02 -24.28 24.29 -22.3 25.53 -16.97 28.86 -13.09 31.3 8.25 44.67"/><polygon class="cls-5" points="8.26 49.7 8.27 49.88 2.98 49.85 -24.28 32.76 -26.61 31.3 -26.71 31.23 -29.06 29.76 -30.48 28.86 -33.06 27.24 -35.47 25.75 -35.81 25.53 -37.3 24.59 -37.9 24.22 -44.44 20.11 -48.31 17.68 -70.89 3.53 -70.89 0.12 -70.82 0.14 -70.67 0.23 -42.83 17.68 -38.96 20.11 -37.9 20.78 -35.47 22.31 -34.55 22.88 -33.06 23.81 -30.32 25.53 -26.71 27.79 -26.32 28.04 -25 28.86 -24.28 29.32 -21.12 31.3 8.26 49.7"/><polygon class="cls-4" points="8.25 1.21 8.25 6.38 -9.8 17.68 -13.67 20.11 -22.3 25.53 -24.28 26.77 -26.32 28.04 -26.71 28.29 -27.63 28.86 -29.06 29.76 -30.55 30.69 -31.51 31.3 -35.47 33.78 -37.9 35.3 -61.11 49.85 -70.89 49.85 -70.89 45.65 -47.99 31.3 -44.12 28.86 -38.79 25.53 -37.9 24.97 -37.3 24.59 -35.47 23.44 -34.55 22.88 -30.55 20.36 -30.16 20.11 -26.71 17.96 -26.28 17.68 -24.28 16.43 1.56 0.23 7.63 0.23 8.25 1.21"/><polygon class="cls-5" points="8.04 1.47 -17.82 17.68 -21.7 20.11 -24.28 21.74 -26.32 23.02 -26.71 23.27 -30.32 25.53 -33.06 27.24 -34.55 28.18 -35.47 28.75 -35.65 28.86 -37.9 30.28 -39.53 31.3 -69.11 49.85 -70.89 49.85 -70.89 47.53 -45.01 31.3 -41.13 28.86 -37.9 26.84 -37.3 26.46 -35.81 25.53 -35.47 25.31 -33.06 23.81 -29.06 21.29 -27.18 20.11 -26.71 19.82 -24.28 18.3 -23.3 17.68 4.52 0.23 7.28 0.23 8.25 0.23 8.26 1.32 8.04 1.47"/><rect class="cls-6" x="-70.96" y="17.68" width="79.24" height="13.61"/><rect class="cls-5" x="-70.96" y="20.11" width="79.24" height="8.75"/></g><path class="cls-7" d="M25,49.23l-.92-.47A42.28,42.28,0,0,1,9.26,36.81,37.34,37.34,0,0,1,2.84,23.62a38,38,0,0,1-1-15l.22-1.26.17,0L25,.77l.08,0L48,7.31l.22,1.26a38,38,0,0,1-1,15.05,37.34,37.34,0,0,1-6.42,13.19A42.28,42.28,0,0,1,25.92,48.76ZM2.54,7.75l-.16.92a37.57,37.57,0,0,0,1,14.81,36.74,36.74,0,0,0,6.33,13A41.67,41.67,0,0,0,24.33,48.26l.67.34.67-.34A41.67,41.67,0,0,0,40.29,36.47a36.74,36.74,0,0,0,6.33-13,37.57,37.57,0,0,0,1-14.81l-.16-.92L25,1.36Z"/><path class="cls-7" d="M25,15.65A7.35,7.35,0,1,1,17.65,23,7.35,7.35,0,0,1,25,15.65"/></svg>