<svg id="Layer_1" data-name="Layer 1" xmlns="http://www.w3.org/2000/svg" viewBox="0 0 50 50"><defs><style>.cls-1{fill:#273775;}.cls-2{fill:#010101;}.cls-3{fill:#b51e3a;}</style></defs><title>Country</title><path class="cls-1" d="M25,49.53l-.93-.47A42.49,42.49,0,0,1,9.08,37,37.79,37.79,0,0,1,2.57,23.62a38.63,38.63,0,0,1-1-15.24L1.78,7.1l.17,0L25,.49l.08,0L48.22,7.1l.23,1.28a38.63,38.63,0,0,1-1,15.24A37.79,37.79,0,0,1,40.92,37a42.49,42.49,0,0,1-15,12.1ZM2.27,7.55l-.16.93a37.92,37.92,0,0,0,1,15A37.13,37.13,0,0,0,9.53,36.62,42.27,42.27,0,0,0,24.32,48.56l.68.34.68-.34A42.27,42.27,0,0,0,40.47,36.62a37.13,37.13,0,0,0,6.41-13.15,37.92,37.92,0,0,0,1-15l-.16-.93L25,1.08Z"/><rect class="cls-2" x="32.26" y="14.08" width="1.12" height="3.07" transform="translate(-3.15 20.79) rotate(-33.64)"/><rect class="cls-2" x="34.27" y="17.1" width="1.11" height="3.07" transform="translate(-4.48 22.48) rotate(-33.74)"/><rect class="cls-2" x="34.66" y="12.84" width="1.12" height="6.7" transform="translate(-3.07 22.24) rotate(-33.68)"/><rect class="cls-2" x="35.04" y="12.22" width="1.12" height="3.07" transform="translate(-1.66 22.03) rotate(-33.64)"/><polygon class="cls-2" points="37.23 15.19 38.92 17.75 38 18.36 36.3 15.81 37.23 15.19"/><rect class="cls-2" x="15.62" y="25.53" width="1.12" height="6.69" transform="matrix(0.83, -0.55, 0.55, 0.83, -13.31, 13.83)"/><rect class="cls-2" x="13.23" y="26.77" width="1.12" height="3.06" transform="translate(-13.38 12.4) rotate(-33.69)"/><rect class="cls-2" x="15.24" y="29.79" width="1.12" height="3.07" transform="translate(-14.71 14) rotate(-33.66)"/><rect class="cls-2" x="12.84" y="27.39" width="1.12" height="6.69" transform="translate(-14.8 12.59) rotate(-33.68)"/><rect class="cls-2" x="12.83" y="16.56" width="6.69" height="1.11" transform="translate(-7.04 21.09) rotate(-56.32)"/><rect class="cls-2" x="11.44" y="15.63" width="6.7" height="1.12" transform="translate(-6.89 19.52) rotate(-56.32)"/><rect class="cls-2" x="10.05" y="14.71" width="6.7" height="1.12" transform="translate(-6.73 17.96) rotate(-56.35)"/><rect class="cls-2" x="31.28" y="29.83" width="3.06" height="1.12" transform="translate(-10.68 40.81) rotate(-56.27)"/><rect class="cls-2" x="33.29" y="26.82" width="3.07" height="1.11" transform="translate(-7.26 41.2) rotate(-56.36)"/><rect class="cls-2" x="32.67" y="30.76" width="3.07" height="1.12" transform="translate(-10.83 42.42) rotate(-56.32)"/><polygon class="cls-2" points="34.9 29.27 36.61 26.72 37.54 27.34 35.83 29.89 34.9 29.27"/><rect class="cls-2" x="34.07" y="31.69" width="3.07" height="1.12" transform="translate(-10.99 43.93) rotate(-56.25)"/><rect class="cls-2" x="36.08" y="28.67" width="3.07" height="1.11" transform="matrix(0.55, -0.83, 0.83, 0.55, -7.56, 44.34)"/><path class="cls-3" d="M19.43,19.29l-.07.11.07-.11"/><path class="cls-3" d="M28.72,17.43a6.71,6.71,0,0,0-9.29,1.86A3.35,3.35,0,0,0,25,23a3.35,3.35,0,1,1,5.57,3.72,6.71,6.71,0,0,0-1.85-9.29"/><path class="cls-1" d="M19.43,19.29A3.35,3.35,0,0,0,25,23a3.35,3.35,0,1,1,5.57,3.72,6.7,6.7,0,1,1-11.14-7.43"/></svg>