<svg id="Layer_1" data-name="Layer 1" xmlns="http://www.w3.org/2000/svg" xmlns:xlink="http://www.w3.org/1999/xlink" viewBox="0 0 50 50"><defs><style>.cls-1{fill:none;}.cls-2{clip-path:url(#clip-path);}.cls-3{clip-path:url(#clip-path-2);}.cls-4{fill:#f4f4f4;}.cls-5{fill:#324095;}.cls-6{fill:#d81f26;}</style><clipPath id="clip-path"><path class="cls-1" d="M48.5,8.43l-.19-1.1L25.33.79l-23,6.54-.2,1.1a38.48,38.48,0,0,0,1,15.12A37.63,37.63,0,0,0,9.63,36.79a42.47,42.47,0,0,0,14.9,12l.8.4.81-.4A42.52,42.52,0,0,0,41,36.79a37.48,37.48,0,0,0,6.46-13.24A38.36,38.36,0,0,0,48.5,8.43Z"/></clipPath><clipPath id="clip-path-2"><rect class="cls-1" y="-0.21" width="50" height="50.21"/></clipPath></defs><title>Country</title><g class="cls-2"><g id="RUSSIA"><g class="cls-3"><rect class="cls-4" y="-0.21" width="50" height="16.74"/><rect class="cls-5" y="16.52" width="50" height="16.74"/><rect class="cls-6" y="33.26" width="50" height="16.74"/></g></g></g></svg>