<svg id="Layer_1" data-name="Layer 1" xmlns="http://www.w3.org/2000/svg" xmlns:xlink="http://www.w3.org/1999/xlink" viewBox="0 0 50 50"><defs><style>.cls-1{fill:none;}.cls-2{clip-path:url(#clip-path);}.cls-3{clip-path:url(#clip-path-2);}.cls-4{fill:#cb2027;}.cls-5{fill:#fff;}.cls-6{fill:#2b3660;}</style><clipPath id="clip-path"><path class="cls-1" d="M48.5,8.43l-.19-1.1L25.33.79l-23,6.54-.2,1.1a38.48,38.48,0,0,0,1,15.12A37.63,37.63,0,0,0,9.63,36.79a42.47,42.47,0,0,0,14.9,12l.8.4.81-.4A42.52,42.52,0,0,0,41,36.79a37.48,37.48,0,0,0,6.46-13.24A38.36,38.36,0,0,0,48.5,8.43Z"/></clipPath><clipPath id="clip-path-2"><rect class="cls-1" x="0.11" y="-0.58" width="49.89" height="50.66"/></clipPath></defs><title>Country</title><g class="cls-2"><g id="USA"><g class="cls-3"><rect class="cls-4" x="0.11" y="46.18" width="49.89" height="3.9"/><rect class="cls-5" x="0.11" y="42.28" width="49.89" height="3.9"/><rect class="cls-4" x="0.11" y="38.39" width="49.89" height="3.89"/><rect class="cls-5" x="0.11" y="34.49" width="49.89" height="3.9"/><rect class="cls-4" x="0.11" y="30.59" width="49.89" height="3.9"/><rect class="cls-5" x="0.11" y="26.7" width="49.89" height="3.9"/><rect class="cls-4" x="0.11" y="22.8" width="49.89" height="3.9"/><rect class="cls-5" x="0.11" y="18.91" width="49.89" height="3.89"/><rect class="cls-4" x="0.11" y="15.01" width="49.89" height="3.9"/><rect class="cls-5" x="0.11" y="11.11" width="49.89" height="3.9"/><rect class="cls-4" x="0.11" y="7.21" width="49.89" height="3.9"/><rect class="cls-5" x="0.11" y="3.32" width="49.89" height="3.89"/><rect class="cls-4" x="0.11" y="-0.58" width="49.89" height="3.9"/><rect class="cls-6" x="0.11" y="-0.58" width="39.66" height="27.28"/><polygon class="cls-5" points="3.7 2.43 4.04 3.46 5.12 3.46 4.24 4.1 4.58 5.13 3.7 4.5 2.82 5.13 3.16 4.1 2.28 3.46 3.36 3.46 3.7 2.43"/><polygon class="cls-5" points="3.7 6.98 4.04 8.01 5.12 8.01 4.24 8.65 4.58 9.68 3.7 9.04 2.82 9.68 3.16 8.65 2.28 8.01 3.36 8.01 3.7 6.98"/><polygon class="cls-5" points="3.7 11.54 4.04 12.56 5.12 12.56 4.24 13.2 4.58 14.24 3.7 13.6 2.82 14.24 3.16 13.2 2.28 12.56 3.36 12.56 3.7 11.54"/><polygon class="cls-5" points="3.7 16.09 4.04 17.12 5.12 17.12 4.24 17.75 4.58 18.79 3.7 18.15 2.82 18.79 3.16 17.75 2.28 17.12 3.36 17.12 3.7 16.09"/><polygon class="cls-5" points="3.7 20.64 4.04 21.68 5.12 21.68 4.24 22.31 4.58 23.34 3.7 22.7 2.82 23.34 3.16 22.31 2.28 21.68 3.36 21.68 3.7 20.64"/><polygon class="cls-5" points="6.87 4.83 7.19 5.86 8.29 5.86 7.41 6.5 7.74 7.53 6.87 6.89 6 7.53 6.33 6.5 5.45 5.86 6.54 5.86 6.87 4.83"/><polygon class="cls-5" points="6.87 9.38 7.19 10.41 8.29 10.41 7.41 11.05 7.74 12.07 6.87 11.45 6 12.07 6.33 11.05 5.45 10.41 6.54 10.41 6.87 9.38"/><polygon class="cls-5" points="6.87 13.93 7.19 14.96 8.29 14.96 7.41 15.6 7.74 16.63 6.87 16 6 16.63 6.33 15.6 5.45 14.96 6.54 14.96 6.87 13.93"/><polygon class="cls-5" points="6.87 18.49 7.19 19.52 8.29 19.52 7.41 20.16 7.74 21.18 6.87 20.54 6 21.18 6.33 20.16 5.45 19.52 6.54 19.52 6.87 18.49"/><polygon class="cls-5" points="10.07 2.43 10.41 3.46 11.5 3.46 10.62 4.1 10.96 5.13 10.07 4.5 9.21 5.13 9.54 4.1 8.66 3.46 9.74 3.46 10.07 2.43"/><polygon class="cls-5" points="10.07 6.98 10.41 8.01 11.5 8.01 10.62 8.65 10.96 9.68 10.07 9.04 9.21 9.68 9.54 8.65 8.66 8.01 9.74 8.01 10.07 6.98"/><polygon class="cls-5" points="10.07 11.54 10.41 12.56 11.5 12.56 10.62 13.2 10.96 14.24 10.07 13.6 9.21 14.24 9.54 13.2 8.66 12.56 9.74 12.56 10.07 11.54"/><polygon class="cls-5" points="10.07 16.09 10.41 17.12 11.5 17.12 10.62 17.75 10.96 18.79 10.07 18.15 9.21 18.79 9.54 17.75 8.66 17.12 9.74 17.12 10.07 16.09"/><polygon class="cls-5" points="10.07 20.64 10.41 21.68 11.5 21.68 10.62 22.31 10.96 23.34 10.07 22.7 9.21 23.34 9.54 22.31 8.66 21.68 9.74 21.68 10.07 20.64"/><polygon class="cls-5" points="13.25 4.83 13.58 5.86 14.67 5.86 13.79 6.5 14.13 7.53 13.25 6.89 12.37 7.53 12.71 6.5 11.83 5.86 12.91 5.86 13.25 4.83"/><polygon class="cls-5" points="13.25 9.38 13.58 10.41 14.67 10.41 13.79 11.05 14.13 12.07 13.25 11.45 12.37 12.07 12.71 11.05 11.83 10.41 12.91 10.41 13.25 9.38"/><polygon class="cls-5" points="13.25 13.93 13.58 14.96 14.67 14.96 13.79 15.6 14.13 16.63 13.25 16 12.37 16.63 12.71 15.6 11.83 14.96 12.91 14.96 13.25 13.93"/><polygon class="cls-5" points="13.25 18.49 13.58 19.52 14.67 19.52 13.79 20.16 14.13 21.18 13.25 20.54 12.37 21.18 12.71 20.16 11.83 19.52 12.91 19.52 13.25 18.49"/><polygon class="cls-5" points="16.46 2.43 16.8 3.46 17.88 3.46 17 4.1 17.35 5.13 16.46 4.5 15.58 5.13 15.92 4.1 15.05 3.46 16.13 3.46 16.46 2.43"/><polygon class="cls-5" points="16.46 6.98 16.8 8.01 17.88 8.01 17 8.65 17.35 9.68 16.46 9.04 15.58 9.68 15.92 8.65 15.05 8.01 16.13 8.01 16.46 6.98"/><polygon class="cls-5" points="16.46 11.54 16.8 12.56 17.88 12.56 17 13.2 17.35 14.24 16.46 13.6 15.58 14.24 15.92 13.2 15.05 12.56 16.13 12.56 16.46 11.54"/><polygon class="cls-5" points="16.46 16.09 16.8 17.12 17.88 17.12 17 17.75 17.35 18.79 16.46 18.15 15.58 18.79 15.92 17.75 15.05 17.12 16.13 17.12 16.46 16.09"/><polygon class="cls-5" points="16.46 20.64 16.8 21.68 17.88 21.68 17 22.31 17.35 23.34 16.46 22.7 15.58 23.34 15.92 22.31 15.05 21.68 16.13 21.68 16.46 20.64"/><polygon class="cls-5" points="19.64 4.83 19.97 5.86 21.05 5.86 20.18 6.5 20.5 7.53 19.64 6.89 18.76 7.53 19.09 6.5 18.21 5.86 19.3 5.86 19.64 4.83"/><polygon class="cls-5" points="19.64 9.38 19.97 10.41 21.05 10.41 20.18 11.05 20.5 12.07 19.64 11.45 18.76 12.07 19.09 11.05 18.21 10.41 19.3 10.41 19.64 9.38"/><polygon class="cls-5" points="19.64 13.93 19.97 14.96 21.05 14.96 20.18 15.6 20.5 16.63 19.64 16 18.76 16.63 19.09 15.6 18.21 14.96 19.3 14.96 19.64 13.93"/><polygon class="cls-5" points="19.64 18.49 19.97 19.52 21.05 19.52 20.18 20.16 20.5 21.18 19.64 20.54 18.76 21.18 19.09 20.16 18.21 19.52 19.3 19.52 19.64 18.49"/><polygon class="cls-5" points="22.84 2.43 23.18 3.46 24.26 3.46 23.39 4.1 23.73 5.13 22.84 4.5 21.97 5.13 22.3 4.1 21.43 3.46 22.51 3.46 22.84 2.43"/><polygon class="cls-5" points="22.84 6.98 23.18 8.01 24.26 8.01 23.39 8.65 23.73 9.68 22.84 9.04 21.97 9.68 22.3 8.65 21.43 8.01 22.51 8.01 22.84 6.98"/><polygon class="cls-5" points="22.84 11.54 23.18 12.56 24.26 12.56 23.39 13.2 23.73 14.24 22.84 13.6 21.97 14.24 22.3 13.2 21.43 12.56 22.51 12.56 22.84 11.54"/><polygon class="cls-5" points="22.84 16.09 23.18 17.12 24.26 17.12 23.39 17.75 23.73 18.79 22.84 18.15 21.97 18.79 22.3 17.75 21.43 17.12 22.51 17.12 22.84 16.09"/><polygon class="cls-5" points="22.84 20.64 23.18 21.68 24.26 21.68 23.39 22.31 23.73 23.34 22.84 22.7 21.97 23.34 22.3 22.31 21.43 21.68 22.51 21.68 22.84 20.64"/><polygon class="cls-5" points="26.01 4.83 26.35 5.86 27.44 5.86 26.56 6.5 26.89 7.53 26.01 6.89 25.14 7.53 25.48 6.5 24.6 5.86 25.68 5.86 26.01 4.83"/><polygon class="cls-5" points="26.01 9.38 26.35 10.41 27.44 10.41 26.56 11.05 26.89 12.07 26.01 11.45 25.14 12.07 25.48 11.05 24.6 10.41 25.68 10.41 26.01 9.38"/><polygon class="cls-5" points="26.01 13.93 26.35 14.96 27.44 14.96 26.56 15.6 26.89 16.63 26.01 16 25.14 16.63 25.48 15.6 24.6 14.96 25.68 14.96 26.01 13.93"/><polygon class="cls-5" points="26.01 18.49 26.35 19.52 27.44 19.52 26.56 20.16 26.89 21.18 26.01 20.54 25.14 21.18 25.48 20.16 24.6 19.52 25.68 19.52 26.01 18.49"/><polygon class="cls-5" points="29.23 2.43 29.57 3.46 30.65 3.46 29.77 4.1 30.1 5.13 29.23 4.5 28.36 5.13 28.69 4.1 27.81 3.46 28.89 3.46 29.23 2.43"/><polygon class="cls-5" points="29.23 6.98 29.57 8.01 30.65 8.01 29.77 8.65 30.1 9.68 29.23 9.04 28.36 9.68 28.69 8.65 27.81 8.01 28.89 8.01 29.23 6.98"/><polygon class="cls-5" points="29.23 11.54 29.57 12.56 30.65 12.56 29.77 13.2 30.1 14.24 29.23 13.6 28.36 14.24 28.69 13.2 27.81 12.56 28.89 12.56 29.23 11.54"/><polygon class="cls-5" points="29.23 16.09 29.57 17.12 30.65 17.12 29.77 17.75 30.1 18.79 29.23 18.15 28.36 18.79 28.69 17.75 27.81 17.12 28.89 17.12 29.23 16.09"/><polygon class="cls-5" points="29.23 20.64 29.57 21.68 30.65 21.68 29.77 22.31 30.1 23.34 29.23 22.7 28.36 23.34 28.69 22.31 27.81 21.68 28.89 21.68 29.23 20.64"/><polygon class="cls-5" points="32.4 4.83 32.73 5.86 33.82 5.86 32.95 6.5 33.27 7.53 32.4 6.89 31.52 7.53 31.85 6.5 30.99 5.86 32.06 5.86 32.4 4.83"/><polygon class="cls-5" points="32.4 9.38 32.73 10.41 33.82 10.41 32.95 11.05 33.27 12.07 32.4 11.45 31.52 12.07 31.85 11.05 30.99 10.41 32.06 10.41 32.4 9.38"/><polygon class="cls-5" points="32.4 13.93 32.73 14.96 33.82 14.96 32.95 15.6 33.27 16.63 32.4 16 31.52 16.63 31.85 15.6 30.99 14.96 32.06 14.96 32.4 13.93"/><polygon class="cls-5" points="32.4 18.49 32.73 19.52 33.82 19.52 32.95 20.16 33.27 21.18 32.4 20.54 31.52 21.18 31.85 20.16 30.99 19.52 32.06 19.52 32.4 18.49"/><polygon class="cls-5" points="35.6 2.43 35.95 3.46 37.02 3.46 36.15 4.1 36.49 5.13 35.6 4.5 34.73 5.13 35.06 4.1 34.19 3.46 35.27 3.46 35.6 2.43"/><polygon class="cls-5" points="35.6 6.98 35.95 8.01 37.02 8.01 36.15 8.65 36.49 9.68 35.6 9.04 34.73 9.68 35.06 8.65 34.19 8.01 35.27 8.01 35.6 6.98"/><polygon class="cls-5" points="35.6 11.54 35.95 12.56 37.02 12.56 36.15 13.2 36.49 14.24 35.6 13.6 34.73 14.24 35.06 13.2 34.19 12.56 35.27 12.56 35.6 11.54"/><polygon class="cls-5" points="35.6 16.09 35.95 17.12 37.02 17.12 36.15 17.75 36.49 18.79 35.6 18.15 34.73 18.79 35.06 17.75 34.19 17.12 35.27 17.12 35.6 16.09"/><polygon class="cls-5" points="35.6 20.64 35.95 21.68 37.02 21.68 36.15 22.31 36.49 23.34 35.6 22.7 34.73 23.34 35.06 22.31 34.19 21.68 35.27 21.68 35.6 20.64"/></g></g></g></svg>