<?xml version="1.0" encoding="utf-8"?>
<!-- Generator: Adobe Illustrator 22.1.0, SVG Export Plug-In . SVG Version: 6.00 Build 0)  -->
<svg version="1.1" id="Layer_1" xmlns="http://www.w3.org/2000/svg" xmlns:xlink="http://www.w3.org/1999/xlink" x="0px" y="0px"
	 viewBox="0 0 50 50" style="enable-background:new 0 0 50 50;" xml:space="preserve">
<style type="text/css">
	.st0{fill:#ED1C24;}
	.st1{fill:#FFF200;}
</style>
<title>Country</title>
<path class="st0" d="M48.3,8.4l-0.2-1.1L25,0.7L1.9,7.2L1.7,8.4c-0.7,5.1-0.3,10.2,1,15.2c1.3,4.8,3.5,9.3,6.5,13.3
	c4,5.1,9.1,9.2,15,12.1l0.8,0.4l0.8-0.4c5.9-2.8,11-7,15-12.1c3-4,5.2-8.5,6.5-13.3C48.7,18.6,49,13.4,48.3,8.4z"/>
<polygon class="st1" points="25,13.6 27.9,19.5 34.5,20.5 29.7,25.1 30.9,31.6 25,28.5 19.1,31.6 20.3,25.1 15.5,20.5 22.1,19.5 "/>
</svg>
