<svg width="19" height="19" viewBox="0 0 19 19" fill="none" xmlns="http://www.w3.org/2000/svg">
<g clip-path="url(#clip0_3007_4401)">
<path d="M12.5075 5.57771C12.0267 5.57648 11.546 5.57114 11.0657 5.57484C10.8011 5.57689 10.5878 5.36363 10.5656 5.10106C10.5291 4.66427 10.8163 4.50731 11.1493 4.51552C11.5534 4.5258 11.9578 4.51881 12.3619 4.51717C12.4103 4.51717 12.4587 4.50402 12.5075 4.49703C12.5157 4.48676 12.5243 4.4769 12.5325 4.46663C12.5345 3.97888 12.5423 3.49114 12.5358 3.00381C12.5333 2.83041 12.7581 2.56825 12.9546 2.5551C13.3012 2.53209 13.5276 2.66152 13.5502 2.93067C13.5768 3.24994 13.5777 3.57127 13.585 3.89218C13.5896 4.09599 13.5859 4.30021 13.5859 4.5184C14.0391 4.5184 14.4788 4.51635 14.9182 4.52004C15.0072 4.52087 15.0966 4.54264 15.1848 4.55867C15.54 4.62318 15.6503 5.08052 15.4342 5.37473C15.3308 5.51525 15.2077 5.5773 15.0293 5.57442C14.5584 5.56662 14.0871 5.57566 13.6158 5.57812C13.6076 5.58798 13.599 5.59785 13.5908 5.60771C13.5891 6.05354 13.5887 6.49937 13.5859 6.9452C13.5838 7.25667 13.3881 7.47486 13.0846 7.548C12.9185 7.58786 12.697 7.47034 12.6014 7.30392C12.5674 7.24475 12.5427 7.18024 12.5136 7.1186C12.521 7.09765 12.5288 7.07669 12.5362 7.05573C12.5354 7.01506 12.5341 6.97396 12.5333 6.93328C12.5333 6.49156 12.5333 6.04984 12.5333 5.60812C12.5251 5.59826 12.5165 5.5884 12.5083 5.57853L12.5075 5.57771Z" fill="#666464"/>
<path d="M15.4915 13.5225C15.512 13.5644 15.5563 13.6104 15.5493 13.647C15.4837 13.9864 15.4242 14.3279 15.3311 14.6599C15.2864 14.8201 15.174 14.9611 15.092 15.1111C15.0846 15.1119 15.0772 15.1127 15.0694 15.1135C15.0768 15.1205 15.0837 15.1279 15.0911 15.1349C15.0116 15.2594 14.9459 15.3962 14.8499 15.5064C14.5074 15.8988 14.1231 16.2427 13.6259 16.4292C13.4106 16.5098 13.1879 16.5698 12.9684 16.6392C12.9376 16.6105 12.9073 16.5821 12.8765 16.5533C12.856 16.5924 12.8351 16.631 12.8146 16.67C12.7391 16.6898 12.6378 16.6376 12.5939 16.7518C12.5898 16.7621 12.5398 16.76 12.5127 16.7547C12.397 16.7317 12.2817 16.684 12.1665 16.684C10.3202 16.6795 8.47438 16.6811 6.62812 16.6807C6.41277 16.6807 6.19742 16.6733 5.98248 16.6783C5.9308 16.6795 5.88117 16.7222 5.82825 16.737C5.7737 16.7526 5.71504 16.7715 5.6609 16.7654C5.20066 16.7132 4.74782 16.6203 4.34132 16.3898C3.8536 16.1128 3.44752 15.7418 3.15218 15.2578C3.14316 15.2471 3.13413 15.2368 3.12511 15.2261C3.016 14.9792 2.8831 14.7396 2.80434 14.4836C2.73502 14.258 2.72559 14.0135 2.6899 13.7777C2.75471 13.6597 2.65708 13.6926 2.60376 13.6848C2.78875 13.0085 2.67718 12.3186 2.68334 11.6356C2.70138 9.67316 2.69277 7.71068 2.68826 5.7482C2.68662 4.98761 2.91878 4.31168 3.39296 3.72326C3.52997 3.55356 3.70676 3.41673 3.8655 3.26469C3.88355 3.25278 3.90201 3.24086 3.92005 3.22853C4.18299 2.97542 4.50457 2.82215 4.84503 2.71408C5.05218 2.64834 5.26875 2.62409 5.49108 2.60355C7.00631 2.46425 8.52319 2.58341 10.0384 2.5489C10.4585 2.53945 10.7267 3.02431 10.4905 3.3666C10.3908 3.51083 10.2156 3.60081 10.0105 3.59999C8.63722 3.59547 7.26432 3.59876 5.89101 3.59712C5.43078 3.5967 5.00993 3.72367 4.62558 3.97515C4.57102 4.0109 4.52508 4.05938 4.47504 4.10171C4.46396 4.10992 4.45248 4.11773 4.4414 4.12595C3.99594 4.5463 3.73629 5.04802 3.73711 5.67506C3.73957 8.36114 3.73465 11.0472 3.74039 13.7333C3.74121 14.0937 3.87822 14.4101 4.08167 14.7195C4.25026 14.9755 4.43976 15.1912 4.68629 15.3547C5.005 15.5659 5.35079 15.7147 5.74786 15.6904C5.80897 15.6867 5.87091 15.6941 5.93203 15.6941C8.04901 15.6941 10.166 15.6904 12.283 15.6991C12.5767 15.7003 12.8593 15.6744 13.1259 15.5614C13.8335 15.2615 14.3142 14.761 14.4422 13.9778C14.4812 13.7395 14.5021 13.4954 14.5025 13.2538C14.5074 11.5793 14.505 9.90491 14.5058 8.23088C14.5058 8.0694 14.4927 7.90339 14.5238 7.74684C14.5558 7.587 14.676 7.48756 14.8421 7.44153C15.0772 7.37661 15.345 7.4703 15.466 7.67329L15.4902 7.70534C15.4886 7.77642 15.4866 7.84792 15.4849 7.91901C15.4677 7.93216 15.4509 7.9453 15.4336 7.95845C15.4509 7.97653 15.4677 7.9942 15.4849 8.01228C15.4866 8.65904 15.489 9.3054 15.4894 9.95216C15.4902 10.8504 15.4915 11.7486 15.4886 12.6469C15.4878 12.9312 15.4742 13.2156 15.4665 13.4999C15.4742 13.5073 15.4825 13.5147 15.4902 13.5221L15.4915 13.5225Z" fill="#666464"/>
<path d="M11.9189 13.4367C11.8455 13.4457 11.7716 13.4622 11.6982 13.4622C9.94054 13.465 8.18288 13.4708 6.42564 13.4642C6.1102 13.463 5.92192 13.1795 5.95802 12.8869C5.98591 12.6634 6.1184 12.5023 6.34688 12.4448C6.38872 12.4341 6.43835 12.4587 6.4847 12.4645C6.53475 12.4702 6.5852 12.4764 6.63524 12.4764C8.28543 12.4772 9.93521 12.4776 11.5854 12.4752C11.6863 12.4752 11.7901 12.425 11.8877 12.4374C12.1252 12.4678 12.2036 12.6515 12.2643 12.8581C12.3336 13.094 12.1921 13.2201 12.046 13.352C11.9771 13.3405 11.9107 13.3319 11.9189 13.4367Z" fill="#666464"/>
<path d="M12.2302 9.4307C12.2314 9.5474 12.2576 9.67108 12.2293 9.77997C12.1608 10.0438 11.9767 10.1711 11.7084 10.1707C9.95032 10.1707 8.19225 10.1675 6.4346 10.1724C6.12983 10.1732 6.02646 9.94228 5.95878 9.68628C5.90381 9.47919 6.10111 9.20265 6.31359 9.15991C6.39727 9.14307 6.4912 9.18292 6.58021 9.18292C8.25624 9.18457 9.93227 9.18416 11.6083 9.18457C11.7404 9.18457 11.8753 9.17265 12.0033 9.19607C12.0648 9.20717 12.1137 9.28812 12.1686 9.33701C12.1891 9.36824 12.2096 9.39906 12.2302 9.43029V9.4307Z" fill="#666464"/>
<path d="M7.81526 6.88437C7.36446 6.88437 6.91367 6.88765 6.46287 6.88313C6.17738 6.88026 5.91281 6.55646 5.9567 6.29472C5.99608 6.06009 6.29592 5.8304 6.54491 5.82957C7.38005 5.82711 8.21561 5.8156 9.05034 5.83451C9.40146 5.84231 9.5479 5.93025 9.64224 6.3091C9.705 6.56098 9.46176 6.86916 9.18324 6.87533C8.72752 6.8856 8.27139 6.8782 7.81526 6.8782C7.81526 6.88026 7.81526 6.88231 7.81526 6.88437Z" fill="#666464"/>
</g>
<defs>
<clipPath id="clip0_3007_4401">
<rect width="12.9456" height="14.2329" fill="white" transform="translate(2.60425 2.53418)"/>
</clipPath>
</defs>
</svg>
