<svg width="19" height="19" viewBox="0 0 19 19" fill="none" xmlns="http://www.w3.org/2000/svg">
<g clip-path="url(#clip0_3007_5884)">
<path d="M2.55713 13.8343C2.15612 13.6334 1.9094 13.3062 1.77841 12.8839C1.77319 12.867 1.75792 12.8537 1.74707 12.8384C1.74747 9.68876 1.74747 6.53909 1.74747 3.38941C1.75832 3.37814 1.776 3.36808 1.77881 3.3552C1.87043 2.94343 2.10589 2.63872 2.46913 2.43143C2.76768 2.26117 3.10118 2.24909 3.42986 2.24869C7.58702 2.24507 11.7438 2.24507 15.9009 2.24869C16.2883 2.24869 16.6776 2.26358 17.063 2.30102C17.5267 2.3461 17.9679 2.77558 18.1085 3.16924C18.1354 3.24451 18.1732 3.31616 18.2061 3.38982V12.8388C18.1631 12.9177 18.1161 12.9946 18.0784 13.0759C17.8594 13.5517 17.5239 13.8846 16.9786 13.9313C16.6612 13.9582 16.3409 13.9578 16.0219 13.9582C14.7638 13.961 13.5057 13.961 12.2473 13.9562C12.1364 13.9558 12.0664 13.9941 12.0062 14.0754C11.6389 14.5709 11.2721 15.0676 10.9032 15.5618C10.734 15.7885 10.5564 16.0082 10.3889 16.2357C10.145 16.5669 9.77048 16.5585 9.52336 16.2208C8.99417 15.4974 8.44771 14.7866 7.9149 14.0661C7.8486 13.9763 7.77989 13.9574 7.67864 13.9578C6.21684 13.9602 4.75545 13.9639 3.29365 13.955C3.06743 13.9538 2.84161 13.8938 2.61579 13.8612C2.5965 13.8524 2.57681 13.8435 2.55753 13.8347L2.55713 13.8343ZM17.2402 3.55324C17.2213 3.51983 17.2024 3.48682 17.1835 3.45341C17.1212 3.34031 17.0332 3.25014 16.9031 3.23123C16.752 3.20949 16.5981 3.19782 16.4454 3.19782C12.7122 3.19621 8.9789 3.19661 5.24566 3.19661C4.61883 3.19661 3.9924 3.19178 3.36557 3.20023C3.21208 3.20224 3.04211 3.21593 2.90992 3.28315C2.71745 3.38136 2.69736 3.59148 2.69736 3.79193C2.69736 6.54995 2.69736 9.30798 2.69655 12.066C2.69655 12.2081 2.66521 12.353 2.6849 12.4919C2.70298 12.6191 2.75522 12.7479 2.81911 12.8606C2.90831 13.0171 3.07466 13.0047 3.23016 13.0043C4.77272 13.0035 6.31528 13.0031 7.85784 13.0043C8.08688 13.0043 8.30667 13.0027 8.47061 13.2273C8.93792 13.8665 9.42411 14.4916 9.89584 15.1271C9.95531 15.2068 9.99067 15.1984 10.0365 15.1368C10.4588 14.5692 10.8831 14.0037 11.2978 13.4309C11.5035 13.1472 11.7309 12.9874 12.1195 12.9934C13.6829 13.0176 15.2472 13.0031 16.811 13.0002C17.0188 13.0002 17.2273 12.7982 17.2394 12.5945C17.2478 12.4508 17.2534 12.3067 17.2534 12.1626C17.2542 10.6415 17.2559 9.12081 17.2534 7.59971C17.251 6.25089 17.2438 4.90166 17.239 3.55283L17.2402 3.55324Z" fill="#666464"/>
<path d="M6.63297 9.84698C6.68882 9.71938 6.74508 9.59139 6.80093 9.46379C6.8162 9.45292 6.83147 9.44245 6.84674 9.43159C6.83147 9.42072 6.8162 9.41025 6.80093 9.39939C6.88692 9.29513 6.97933 9.19491 7.05769 9.08542C7.31043 8.73202 7.62585 8.44744 7.98748 8.21036C8.04253 8.17413 8.09236 8.12945 8.14419 8.0888L8.16067 8.12623C8.16589 8.11335 8.17111 8.10047 8.17634 8.08759C8.24264 8.05338 8.30853 8.01916 8.37483 7.98495C8.38689 7.97811 8.39854 7.97086 8.41059 7.96402C8.39573 7.9608 8.38126 7.95718 8.36639 7.95396C7.96056 7.58968 7.7243 7.13363 7.62947 6.5995C7.49004 5.815 7.72791 5.13958 8.24906 4.56318C8.48412 4.30315 8.78066 4.11679 9.12019 3.99483C9.97123 3.68932 10.7463 3.82054 11.4523 4.36997C11.9188 4.73304 12.1961 5.21445 12.2913 5.80051C12.4291 6.65142 12.1631 7.36427 11.5544 7.97569C11.5885 8.00065 11.6215 8.03124 11.6601 8.05096C12.1828 8.31863 12.5927 8.70827 12.9402 9.17961C13.0885 9.38087 13.1954 9.5942 13.2902 9.81921C13.2978 9.83692 13.33 9.84416 13.3509 9.85624C13.3597 9.87556 13.3686 9.89448 13.377 9.9138C13.4397 10.1634 13.5237 10.4101 13.5594 10.6633C13.5928 10.8988 13.604 11.1455 13.5719 11.3802C13.5397 11.6168 13.3356 11.746 13.1038 11.7456C11.0063 11.7456 8.90884 11.7456 6.81097 11.7456C6.60766 11.7456 6.27415 11.4917 6.28621 11.3234C6.30188 11.1012 6.33483 10.879 6.37943 10.6609C6.43126 10.4097 6.50439 10.1626 6.56828 9.9138C6.58958 9.89166 6.61087 9.86912 6.63257 9.84698H6.63297ZM12.5223 10.5892C12.5292 10.5602 12.5485 10.5276 12.5412 10.5031C12.4283 10.1332 12.2483 9.79747 11.994 9.50686C11.5974 9.05322 11.0971 8.77106 10.5105 8.63622C10.4185 8.61489 10.3072 8.52271 10.2453 8.55129C10.0058 8.66198 9.75908 8.56135 9.51357 8.6169C9.0547 8.72115 8.63802 8.88578 8.27277 9.18122C8.25991 9.19008 8.24746 9.19893 8.2346 9.20819C7.74599 9.626 7.44504 10.1517 7.33253 10.7856H12.6079C12.5866 10.7245 12.5673 10.6693 12.5481 10.6146C12.5396 10.6061 12.5308 10.5981 12.5223 10.5896V10.5892ZM9.93306 7.63195C10.7849 7.61987 11.3611 6.99758 11.3868 6.22395C11.3989 5.86732 11.2803 5.53404 11.0304 5.26355C10.6816 4.8864 10.2236 4.73264 9.73979 4.79181C9.40026 4.83367 9.08443 5.03814 8.85219 5.31185C8.63722 5.56544 8.5223 5.88262 8.53837 6.20584C8.57694 6.99396 9.12582 7.59934 9.93306 7.63154V7.63195Z" fill="#666464"/>
</g>
<defs>
<clipPath id="clip0_3007_5884">
<rect width="16.4583" height="14.2329" fill="white" transform="translate(1.7478 2.24585)"/>
</clipPath>
</defs>
</svg>
