<svg viewBox="0 0 18 18" fill="none" xmlns="http://www.w3.org/2000/svg">
    <g>
        <path d="M10.8073 10.2475C10.3109 10.8121 9.70673 11.2765 9.02692 11.6114V13.54C9.02692 13.7105 8.9592 13.874 8.83864 13.9945C8.71808 14.1151 8.55456 14.1828 8.38407 14.1828H4.52692C4.35644 14.1828 4.19292 14.1151 4.07236 13.9945C3.9518 13.874 3.88406 13.7105 3.88406 13.54V11.6114C2.95893 11.1523 2.17352 10.4541 1.60938 9.58899C1.04524 8.72393 0.722933 7.72363 0.675921 6.69195C0.628908 5.66025 0.858903 4.63479 1.34203 3.722C1.82516 2.80922 2.5438 2.04238 3.42335 1.50112C4.30291 0.959849 5.31132 0.663879 6.34389 0.643932C7.20534 0.62729 8.05739 0.803271 8.83864 1.15639" stroke="currentColor" stroke-width="1.2" stroke-linecap="round" stroke-linejoin="round"/>
        <path d="M3.88379 17.3571H9.02665" stroke="currentColor" stroke-width="1.2" stroke-linecap="round" stroke-linejoin="round"/>
        <path d="M9.50734 5.05793C9.05615 4.97944 9.05615 4.33172 9.50734 4.25323C11.1419 3.96885 12.442 2.72382 12.7968 1.10304L12.824 0.9788C12.9216 0.532872 13.5566 0.530096 13.6581 0.975154L13.6911 1.11994C14.0591 2.73306 15.3594 3.96759 16.9896 4.25117C17.4431 4.33008 17.4431 4.98108 16.9896 5.05998C15.3594 5.34357 14.0591 6.5781 13.6911 8.19122L13.6581 8.336C13.5566 8.78106 12.9216 8.77829 12.824 8.33236L12.7968 8.20812C12.442 6.58735 11.1419 5.34231 9.50734 5.05793Z" stroke="currentColor" stroke-linecap="round" stroke-linejoin="round"/>
    </g>
</svg>
