<svg viewBox="0 0 20 20" fill="none" xmlns="http://www.w3.org/2000/svg">
    <path d="M9.99967 16.875C9.33301 16.3611 8.61079 15.9513 7.83301 15.6458C7.05523 15.3402 6.24967 15.1875 5.41634 15.1875C4.8469 15.1875 4.2844 15.2638 3.72884 15.4166C3.17329 15.5694 2.63856 15.7847 2.12467 16.0625C1.80523 16.2291 1.48926 16.2187 1.17676 16.0312C0.864258 15.8437 0.708008 15.5763 0.708008 15.2291V5.18746C0.708008 4.99301 0.753147 4.81246 0.843424 4.64579C0.933702 4.47913 1.06912 4.35413 1.24967 4.27079C1.90245 3.95135 2.57606 3.70829 3.27051 3.54163C3.96495 3.37496 4.68023 3.29163 5.41634 3.29163C6.2219 3.29163 7.01009 3.39579 7.78092 3.60413C8.55176 3.81246 9.29134 4.1319 9.99967 4.56246V15.2291C10.708 14.7708 11.4511 14.4236 12.2288 14.1875C13.0066 13.9513 13.7913 13.8333 14.583 13.8333C15.083 13.8333 15.6281 13.8819 16.2184 13.9791C16.8087 14.0763 17.3747 14.2777 17.9163 14.5833V3.91663C18.0552 3.97218 18.1941 4.02774 18.333 4.08329C18.4719 4.13885 18.6108 4.20135 18.7497 4.27079C18.9163 4.36801 19.0483 4.49996 19.1455 4.66663C19.2427 4.83329 19.2913 5.0069 19.2913 5.18746V15.2708C19.2913 15.618 19.1351 15.8784 18.8226 16.052C18.5101 16.2257 18.1941 16.2291 17.8747 16.0625C17.3608 15.7847 16.8261 15.5694 16.2705 15.4166C15.715 15.2638 15.1525 15.1875 14.583 15.1875C13.7497 15.1875 12.9441 15.3402 12.1663 15.6458C11.3886 15.9513 10.6663 16.3611 9.99967 16.875ZM11.2497 13.2916V5.81246L16.6663 0.354126V8.54163L11.2497 13.2916ZM8.62467 14.5416V5.39579C8.18023 5.14579 7.65592 4.96176 7.05176 4.84371C6.44759 4.72565 5.90245 4.66663 5.41634 4.66663C4.76356 4.66663 4.15592 4.7326 3.59342 4.86454C3.03092 4.99649 2.52745 5.16663 2.08301 5.37496V14.5833C2.56912 14.3472 3.09342 14.1632 3.65592 14.0312C4.21842 13.8993 4.81217 13.8333 5.43717 13.8333C6.0344 13.8333 6.60037 13.8958 7.13509 14.0208C7.66981 14.1458 8.16634 14.3194 8.62467 14.5416ZM8.62467 14.5416V5.39579V14.5416Z" fill="currentColor"/>
</svg>
