<svg viewBox="0 0 29 28" fill="none" xmlns="http://www.w3.org/2000/svg">
<path d="M14.5 27C21.5 27 26.5 24.5238 26.5 19.0123C26.5 13.0215 23.5 9.02764 17.5 6.03226L19.86 2.99692C19.9799 2.79778 20.0449 2.57052 20.0485 2.33818C20.0521 2.10584 19.9941 1.8767 19.8804 1.67396C19.7667 1.47122 19.6013 1.3021 19.401 1.18374C19.2008 1.06539 18.9727 1.002 18.74 1H10.26C10.0273 1.002 9.79924 1.06539 9.59898 1.18374C9.3987 1.3021 9.23334 1.47122 9.11964 1.67396C9.00592 1.8767 8.94792 2.10584 8.9515 2.33818C8.95508 2.57052 9.0201 2.79778 9.14 2.99692L11.5 6.05222C5.5 9.06758 2.5 13.0614 2.5 19.0522C2.5 24.5238 7.5 27 14.5 27Z" stroke="currentColor" stroke-width="2" stroke-linecap="round" stroke-linejoin="round"/>
<path d="M17.2658 13.6114C17.1707 13.3423 17.0239 13.0976 16.8374 12.8892C16.4407 12.446 15.8642 12.167 15.2225 12.167H13.5454C12.4772 12.167 11.6113 13.0329 11.6113 14.101C11.6113 15.0099 12.2442 15.7962 13.1321 15.9904L15.6855 16.549C16.6802 16.7666 17.3891 17.648 17.3891 18.6662C17.3891 19.8629 16.4191 20.8338 15.2225 20.8338H13.778C12.8346 20.8338 12.0321 20.2308 11.7346 19.3893" stroke="currentColor" stroke-width="2" stroke-linecap="round" stroke-linejoin="round"/>
<path d="M14.5 12.1667V10" stroke="currentColor" stroke-linecap="round" stroke-linejoin="round"/>
<path d="M14.5 23.0002V20.8334" stroke="currentColor" stroke-linecap="round" stroke-linejoin="round"/>
</svg>
