<svg viewBox="0 0 24 24" fill="none" xmlns="http://www.w3.org/2000/svg">
    <path d="M17.1975 15.399C16.0868 15.768 14.9535 15.21 14.505 14.3032C14.3115 13.9125 14.5868 13.452 15.0233 13.4512H15.141C15.3683 13.4512 15.5483 13.6065 15.6368 13.8157C15.7793 14.1525 16.113 14.3895 16.5008 14.3895C17.0175 14.3895 17.4383 13.9688 17.4383 13.452C17.4383 12.9563 17.052 12.5497 16.5653 12.5167C15.6458 12.4545 14.7833 11.9482 14.5268 11.0625C14.1225 9.666 15.165 8.3895 16.5 8.3895C17.3843 8.3895 18.1755 8.949 18.4838 9.73125C18.6203 10.077 18.3495 10.452 17.9775 10.4513H17.8598C17.6325 10.4513 17.4533 10.2953 17.3648 10.0868C17.2223 9.75075 16.8893 9.5145 16.5015 9.5145C15.9848 9.5145 15.564 9.93525 15.564 10.4513C15.564 10.9673 15.9848 11.3895 16.5015 11.3895C17.8433 11.3895 18.8888 12.6765 18.4703 14.0805C18.288 14.6918 17.8043 15.198 17.199 15.399H17.1975Z" fill="currentcolor"/>
    <path d="M15.9375 8.95125V8.073C15.9368 7.7625 16.188 7.5105 16.4993 7.50975C16.8098 7.50975 17.0618 7.761 17.0618 8.0715V8.94975H15.9375V8.95125Z" fill="currentcolor"/>
    <path d="M16.4993 16.4513C16.1888 16.4513 15.9368 16.1993 15.9368 15.8888V14.9513H17.0618V15.8888C17.0618 16.1993 16.8098 16.4513 16.4993 16.4513Z" fill="currentcolor"/>
    <path d="M7.68445 18.0187C7.99511 18.0187 8.24695 17.7669 8.24695 17.4562C8.24695 17.1456 7.99511 16.8937 7.68445 16.8937C7.37379 16.8937 7.12195 17.1456 7.12195 17.4562C7.12195 17.7669 7.37379 18.0187 7.68445 18.0187Z" fill="currentcolor"/>
    <path d="M9.5625 18.0187C9.87316 18.0187 10.125 17.7669 10.125 17.4562C10.125 17.1456 9.87316 16.8937 9.5625 16.8937C9.25184 16.8937 9 17.1456 9 17.4562C9 17.7669 9.25184 18.0187 9.5625 18.0187Z" fill="currentcolor"/>
    <path d="M10.6867 3.93H7.3125C7.00184 3.93 6.75 4.18184 6.75 4.4925C6.75 4.80316 7.00184 5.055 7.3125 5.055H10.6867C10.9974 5.055 11.2492 4.80316 11.2492 4.4925C11.2492 4.18184 10.9974 3.93 10.6867 3.93Z" fill="currentcolor"/>
    <path d="M9.186 5.85975H7.3125C7.00184 5.85975 6.75 6.11159 6.75 6.42225C6.75 6.73291 7.00184 6.98475 7.3125 6.98475H9.186C9.49666 6.98475 9.7485 6.73291 9.7485 6.42225C9.7485 6.11159 9.49666 5.85975 9.186 5.85975Z" fill="currentcolor"/>
    <path d="M16.4993 18.5625C12.8805 18.5625 9.93677 15.6187 9.93677 12C9.93677 8.38125 12.8805 5.4375 16.4993 5.4375C20.118 5.4375 23.0618 8.38125 23.0618 12C23.0618 15.6187 20.118 18.5625 16.4993 18.5625ZM16.4993 6.5625C13.5008 6.5625 11.0618 9.0015 11.0618 12C11.0618 14.9985 13.5008 17.4375 16.4993 17.4375C19.4978 17.4375 21.9368 14.9985 21.9368 12C21.9368 9.0015 19.4978 6.5625 16.4993 6.5625Z" fill="currentcolor"/>
    <path d="M17.1975 22.9462C16.9973 22.9462 16.7963 22.9005 16.6117 22.8082L14.3888 21.6967C14.3287 21.6667 14.2568 21.6712 14.2005 21.7087L12.7275 22.6912C12.2865 22.9852 11.712 22.9852 11.271 22.6912L9.798 21.7087C9.7425 21.6712 9.67125 21.6675 9.61125 21.6967L7.38825 22.8082C6.96675 23.019 6.4635 22.9875 6.07125 22.7257L4.521 21.69C4.1565 21.4462 3.9375 21.0367 3.9375 20.598V6.1275H5.0625V20.598L5.14575 20.754L6.69675 21.7897C6.753 21.8272 6.82425 21.8317 6.885 21.8017L9.108 20.6902C9.5295 20.4795 10.0305 20.511 10.4228 20.772L11.895 21.7537C11.958 21.7957 12.0405 21.7957 12.1035 21.7537L13.5758 20.772C13.968 20.5102 14.4697 20.4795 14.8912 20.6902L17.1135 21.801C17.1735 21.831 17.2455 21.8265 17.3018 21.789L18.8527 20.7532L18.936 20.5972V19.6282C18.936 19.3177 19.188 19.0657 19.4985 19.0657C19.809 19.0657 20.061 19.3177 20.061 19.6282V20.5972C20.061 21.036 19.842 21.4455 19.4775 21.6892L17.9272 22.725C17.7075 22.8712 17.4525 22.9455 17.1968 22.9455L17.1975 22.9462Z" fill="currentcolor"/>
    <path d="M19.4993 5.055C19.1888 5.055 18.9368 4.803 18.9368 4.4925V3.75C18.9368 2.81775 18.1815 2.0625 17.2493 2.0625H2.99927V0.9375H17.2493C18.8025 0.9375 20.0618 2.19675 20.0618 3.75V4.4925C20.0618 4.803 19.8098 5.055 19.4993 5.055Z" fill="currentcolor"/>
    <path d="M5.06177 12.5625H2.99927C1.86152 12.5625 0.936768 11.6377 0.936768 10.5V3C0.936768 1.86225 1.86152 0.9375 2.99927 0.9375C4.13702 0.9375 5.06177 1.86225 5.06177 3V12.5625ZM2.99927 2.0625C2.48252 2.0625 2.06177 2.48325 2.06177 3V10.5C2.06177 11.0168 2.48252 11.4375 2.99927 11.4375H3.93677V3C3.93677 2.48325 3.51602 2.0625 2.99927 2.0625Z" fill="currentcolor"/>
</svg>
