<svg viewBox="0 0 36 36" fill="none" xmlns="http://www.w3.org/2000/svg">
    <path d="M18.0004 30.375C16.8004 29.45 15.5004 28.7125 14.1004 28.1625C12.7004 27.6125 11.2504 27.3375 9.75039 27.3375C8.72539 27.3375 7.71289 27.475 6.71289 27.75C5.71289 28.025 4.75039 28.4125 3.82539 28.9125C3.25039 29.2125 2.68164 29.1937 2.11914 28.8562C1.55664 28.5187 1.27539 28.0375 1.27539 27.4125V9.33745C1.27539 8.98745 1.35664 8.66245 1.51914 8.36245C1.68164 8.06245 1.92539 7.83745 2.25039 7.68745C3.42539 7.11245 4.63789 6.67495 5.88789 6.37495C7.13789 6.07495 8.42539 5.92495 9.75039 5.92495C11.2004 5.92495 12.6191 6.11245 14.0066 6.48745C15.3941 6.86245 16.7254 7.43745 18.0004 8.21245V27.4125C19.2754 26.5875 20.6129 25.9625 22.0129 25.5375C23.4129 25.1125 24.8254 24.9 26.2504 24.9C27.1504 24.9 28.1316 24.9875 29.1941 25.1625C30.2566 25.3375 31.2754 25.7 32.2504 26.25V7.04995C32.5004 7.14995 32.7504 7.24995 33.0004 7.34995C33.2504 7.44995 33.5004 7.56245 33.7504 7.68745C34.0504 7.86245 34.2879 8.09995 34.4629 8.39995C34.6379 8.69995 34.7254 9.01245 34.7254 9.33745V27.4875C34.7254 28.1125 34.4441 28.5812 33.8816 28.8937C33.3191 29.2062 32.7504 29.2125 32.1754 28.9125C31.2504 28.4125 30.2879 28.025 29.2879 27.75C28.2879 27.475 27.2754 27.3375 26.2504 27.3375C24.7504 27.3375 23.3004 27.6125 21.9004 28.1625C20.5004 28.7125 19.2004 29.45 18.0004 30.375ZM20.2504 23.925V10.4625L30.0004 0.637451V15.375L20.2504 23.925ZM15.5254 26.175V9.71245C14.7254 9.26245 13.7816 8.9312 12.6941 8.7187C11.6066 8.5062 10.6254 8.39995 9.75039 8.39995C8.57539 8.39995 7.48164 8.5187 6.46914 8.7562C5.45664 8.9937 4.55039 9.29995 3.75039 9.67495V26.25C4.62539 25.825 5.56914 25.4937 6.58164 25.2562C7.59414 25.0187 8.66289 24.9 9.78789 24.9C10.8629 24.9 11.8816 25.0125 12.8441 25.2375C13.8066 25.4625 14.7004 25.775 15.5254 26.175ZM15.5254 26.175V9.71245V26.175Z" fill="currentColor"/>
</svg>