<svg viewBox="0 0 12 12" fill="none" xmlns="http://www.w3.org/2000/svg">
    <g>
        <path d="M0.857038 2.57138C1.09373 2.57138 1.28561 2.3795 1.28561 2.1428C1.28561 1.90611 1.09373 1.71423 0.857038 1.71423C0.620345 1.71423 0.428467 1.90611 0.428467 2.1428C0.428467 2.3795 0.620345 2.57138 0.857038 2.57138Z" stroke="currentColor" stroke-linecap="round" stroke-linejoin="round"/>
        <path d="M3.85693 2.14282H11.5712" stroke="currentColor" stroke-linecap="round" stroke-linejoin="round"/>
        <path d="M0.857038 6.42855C1.09373 6.42855 1.28561 6.23667 1.28561 5.99998C1.28561 5.76329 1.09373 5.57141 0.857038 5.57141C0.620345 5.57141 0.428467 5.76329 0.428467 5.99998C0.428467 6.23667 0.620345 6.42855 0.857038 6.42855Z" stroke="currentColor" stroke-linecap="round" stroke-linejoin="round"/>
        <path d="M3.85693 6H11.5712" stroke="currentColor" stroke-linecap="round" stroke-linejoin="round"/>
        <path d="M0.857038 10.2856C1.09373 10.2856 1.28561 10.0937 1.28561 9.85704C1.28561 9.62038 1.09373 9.42847 0.857038 9.42847C0.620345 9.42847 0.428467 9.62038 0.428467 9.85704C0.428467 10.0937 0.620345 10.2856 0.857038 10.2856Z" stroke="currentColor" stroke-linecap="round" stroke-linejoin="round"/>
        <path d="M3.85693 9.85706H11.5712" stroke="currentColor" stroke-linecap="round" stroke-linejoin="round"/>
    </g>
</svg>
