<svg width="24" height="24" viewBox="0 0 24 24" fill="none" xmlns="http://www.w3.org/2000/svg">
    <g clip-path="url(#clip0_1927_11847)">
        <path
            d="M17.3201 19.7325V18.2951C17.3201 17.6727 17.5007 17.0686 17.8426 16.5484L22.9126 8.83225C23.6453 7.77706 23.2408 6.11696 22.0285 5.54729C21.0041 5.035 19.7526 5.36744 19.1173 6.32034L15.8056 11.288C14.9554 12.5634 13.5327 13.3248 11.9999 13.3248C10.4671 13.3248 9.04441 12.5634 8.19415 11.288L4.88234 6.32034C4.2471 5.36748 2.99555 5.03519 1.97125 5.54725C0.804411 6.09521 0.326667 7.72686 1.08711 8.83225L6.15709 16.5483C6.49889 17.0686 6.67959 17.6726 6.67959 18.2951V19.1133C4.49178 19.0404 2.20122 19.1102 0 19.4051V23.6455C3.00451 23.3108 3.65259 23.0868 11.9482 23.6563C15.8953 23.956 20.0133 24.2384 23.9997 23.6808V19.4403C21.8908 19.6805 21.2052 19.8479 17.3201 19.7325ZM20.2874 7.10033C20.53 6.73631 21.0081 6.60923 21.3995 6.80502C21.8291 7.00883 22.0282 7.607 21.7373 8.05994L18.7491 12.6079L17.3398 11.5217L20.2874 7.10033ZM2.60012 6.80502C2.99138 6.60937 3.46955 6.73631 3.71226 7.10038L6.65991 11.5218L5.25063 12.6079L2.26234 8.05999C2.00528 7.69076 2.11319 7.0341 2.60012 6.80502ZM6.02499 13.7865L7.47904 12.6659C8.60707 13.9706 10.2485 14.731 11.9998 14.731C13.7512 14.731 15.3926 13.9706 16.5206 12.6659L17.9747 13.7865L16.6673 15.7762C16.1744 16.5265 15.9138 17.3975 15.9138 18.2951V19.6727C14.8213 19.6186 13.549 19.5397 12.0516 19.4296C10.7431 19.3334 9.41898 19.2361 8.08583 19.17V18.2951C8.08583 17.3975 7.82525 16.5265 7.33232 15.7762L6.02499 13.7865ZM22.5934 22.4311C20.9037 22.6178 18.6791 22.7413 12.0513 22.2538C8.57988 21.9969 4.94515 21.7354 1.40623 22.0709V20.6548C3.096 20.4682 5.32071 20.3445 11.9484 20.8321C15.4275 21.0879 19.0172 21.3519 22.5934 21.015V22.4311Z"
            fill="#EE5A00" />
        <path
            d="M11.1299 4.41599C10.9042 3.60853 10.3448 2.07358 9.13371 0.865723L8.14062 1.86133C9.124 2.84213 9.58707 4.12012 9.7756 4.79454L11.1299 4.41599Z"
            fill="#EE5A00" />
        <path
            d="M15.8585 1.86133L14.8654 0.865723C13.6543 2.07363 13.0948 3.60858 12.8691 4.41599L14.2235 4.79454C14.412 4.12012 14.8751 2.84213 15.8585 1.86133Z"
            fill="#EE5A00" />
        <path
            d="M18.6227 3.29157L17.9805 2.04053C17.4068 2.335 16.8929 2.70929 16.4531 3.15296L17.4519 4.14292C17.7871 3.80467 18.1811 3.51826 18.6227 3.29157Z"
            fill="#EE5A00" />
        <path
            d="M7.54652 3.15296C7.10673 2.70925 6.59284 2.335 6.01914 2.04053L5.37695 3.29157C5.81856 3.51826 6.2125 3.80467 6.5478 4.14292L7.54652 3.15296Z"
            fill="#EE5A00" />
        <path
            d="M3.34311 18.3592L4.57853 17.6875C4.17808 16.951 3.28967 15.58 1.83905 14.6733L1.09375 15.8658C2.27161 16.602 3.00861 17.744 3.34311 18.3592Z"
            fill="#EE5A00" />
        <path
            d="M2.11781 12.5762C1.61152 12.2103 1.04344 11.9249 0.429422 11.728L0 13.0671C0.472688 13.2187 0.90811 13.437 1.29413 13.7159L2.11781 12.5762Z"
            fill="#EE5A00" />
        <path
            d="M19.4209 17.6875L20.6563 18.3592C20.9908 17.7439 21.7278 16.6019 22.9057 15.8658L22.1604 14.6733C20.7098 15.5799 19.8213 16.9509 19.4209 17.6875Z"
            fill="#EE5A00" />
        <path
            d="M22.7055 13.7159C23.0915 13.437 23.527 13.2187 23.9996 13.0671L23.5702 11.728C22.9562 11.9249 22.3881 12.2103 21.8818 12.5762L22.7055 13.7159Z"
            fill="#EE5A00" />
        <path
            d="M7.61763 7.03953L8.78556 6.25629C8.72889 6.17178 8.21777 5.41554 7.72877 4.89209L6.70117 5.85209C7.03802 6.21265 7.44794 6.78645 7.61763 7.03953Z"
            fill="#EE5A00" />
        <path
            d="M16.3828 7.03948C16.5525 6.78645 16.9624 6.21261 17.2992 5.85209L16.2716 4.89209C15.7826 5.41554 15.2715 6.17178 15.2148 6.25629L16.3828 7.03948Z"
            fill="#EE5A00" />
        <path
            d="M12 5.91992C10.2047 5.91992 8.74414 7.38053 8.74414 9.17587C8.74414 10.9712 10.2047 12.4318 12 12.4318C13.7953 12.4318 15.2559 10.9712 15.2559 9.17587C15.2559 7.38053 13.7953 5.91992 12 5.91992ZM12 11.0256C10.9801 11.0256 10.1504 10.1958 10.1504 9.17587C10.1504 8.15593 10.9801 7.32615 12 7.32615C13.0199 7.32615 13.8497 8.15593 13.8497 9.17587C13.8497 10.1958 13.0199 11.0256 12 11.0256Z"
            fill="#EE5A00" />
        <path d="M11.2969 0H12.7031V1.40625H11.2969V0Z" fill="#EE5A00" />
    </g>
    <defs>
        <clipPath id="clip0_1927_11847">
            <rect width="24" height="24" fill="white" />
        </clipPath>
    </defs>
</svg>