<svg width="44px" height="50px" viewBox="0 0 44 50" version="1.1" xmlns="http://www.w3.org/2000/svg" xmlns:xlink="http://www.w3.org/1999/xlink">
    <!-- Generator: sketchtool 53.1 (72631) - https://sketchapp.com -->
    <title>AAEE9AA5-FD87-4711-957E-6D988256F9B6</title>
    <desc>Created with sketchtool.</desc>
    <g id="Page-1" stroke="none" stroke-width="1" fill="none" fill-rule="evenodd">
        <g id="Class-detail" transform="translate(-1207.000000, -489.000000)">
            <g id="Training" transform="translate(1170.000000, 464.000000)">
                <g transform="translate(37.000000, 25.000000)">
                    <g id="Group-6">
                        <path d="M21.0096328,43.9683926 C15.3117909,41.1386125 10.6725569,37.4412634 7.22077306,32.9791089 C4.44918028,29.3961421 2.43956134,25.3234969 1.2481134,20.8744275 C-0.777610819,13.3106373 0.260665646,7.30759165 0.305897492,7.0557022 L0.486596432,6.0487084 L21.7534454,0.0682233503 L43.0202943,6.0487084 L43.200879,7.0557022 C43.2461109,7.30759165 44.2843873,13.3106373 42.2585489,20.8744275 C41.067101,25.3234969 39.0575962,29.3961421 36.2860035,32.9791089 C32.8341054,37.4412634 28.1949857,41.1386125 22.4971437,43.9683926 L21.7534454,44.3377101 L21.0096328,43.9683926 Z" id="Fill-1" fill="#F8B64C"></path>
                        <path d="M41.5708992,7.34097011 L21.7534111,1.76804287 L1.93592301,7.34097011 C1.93592301,7.34097011 -2.2362579,30.5933108 21.7534111,42.507806 C45.7428517,30.5933108 41.5708992,7.34097011 41.5708992,7.34097011" id="Fill-4" fill="#FFC600"></path>
                    </g>
                    <g id="Group-44" transform="translate(2.777778, 8.333333)">
                        <path d="M19.4169005,0.264092635 L22.9825119,7.49473045 C23.0411194,7.61363705 23.1545789,7.69609719 23.2856776,7.71523159 L31.2585723,8.87468489 C31.5888227,8.92274867 31.7208318,9.32901291 31.481736,9.56215642 L25.7124829,15.1904024 C25.6175729,15.2829992 25.5743286,15.4164844 25.5967474,15.5472361 L26.9586034,23.4943888 C27.0150486,23.8236598 26.6697765,24.0746849 26.3743493,23.9192179 L19.2432402,20.1671678 C19.1259114,20.1054366 18.9857087,20.1054366 18.8683799,20.1671678 L11.7372708,23.9192179 C11.4418436,24.0746849 11.0964577,23.8236598 11.152903,23.4943888 L12.5148727,15.5472361 C12.5372915,15.4164844 12.4939334,15.2829992 12.3990234,15.1904024 L6.62988413,9.56215642 C6.39078833,9.32901291 6.52268363,8.92274867 6.8530478,8.87468489 L14.8258287,7.71523159 C14.9570412,7.69609719 15.0705007,7.61363705 15.1291082,7.49473045 L18.6946058,0.264092635 C18.8424333,-0.0354517844 19.2691868,-0.0354517844 19.4169005,0.264092635" id="Fill-14" fill="#FFFFFF"></path>
                        <path d="M5.91999379,30.5246279 C5.90269605,30.4398899 5.4783323,28.4378398 3.9486199,27.5098216 C2.41879371,26.5816894 0.449126836,27.13112 0.365938341,27.155038 C0.113300228,27.2274753 -0.0412414649,27.4824867 0.0114483758,27.7403455 C0.0287461204,27.8250835 0.452996069,29.8270197 1.98270846,30.7551519 C3.00509621,31.3754252 4.22379061,31.3357897 4.94471964,31.2340812 C5.30250983,31.1836257 5.5377364,31.1179081 5.56539003,31.1099355 C5.81814194,31.0374981 5.97256983,30.7824867 5.91999379,30.5246279" id="Fill-18" fill="#4D79F6"></path>
                        <path d="M5.56541279,31.1099582 C5.69173184,31.0737396 5.7935837,30.9918489 5.85719843,30.8868375 L0.0741754604,27.3781815 C0.0105607283,27.4833068 -0.0149306849,27.6114389 0.0114711359,27.7403683 C0.0287688806,27.8251063 0.453018829,29.8270425 1.98284502,30.7551746 C3.00511897,31.375448 4.22381337,31.3356986 4.9447424,31.234104 C5.30253259,31.1836484 5.53787296,31.1179309 5.56541279,31.1099582" id="Fill-20" fill="#4D79F6"></path>
                        <path d="M10.986526,35.24694 C10.9340637,35.1781473 9.68122905,33.5607213 7.90035796,33.3915869 C6.11937306,33.2225664 4.58522243,34.5754138 4.52069729,34.6331587 C4.32473205,34.8085573 4.29650941,35.1053683 4.45617215,35.3145938 C4.50863439,35.3833865 5.76135527,37.0008125 7.54234016,37.169833 C7.76482102,37.1910175 7.98331885,37.1883979 8.19578523,37.167555 C9.68361887,37.0210858 10.8655556,35.9789446 10.9220008,35.9283751 C11.1179661,35.7529765 11.1460749,35.4560516 10.986526,35.24694" id="Fill-22" fill="#4D79F6"></path>
                        <path d="M8.19578523,37.1675323 C9.68361887,37.021063 10.8655556,35.9789218 10.9220008,35.9284662 C11.0198696,35.8407669 11.0760873,35.7226576 11.0875812,35.6003341 L4.3551169,34.961268 C4.34350921,35.0834776 4.37639768,35.2100152 4.45617215,35.314571 C4.50863439,35.3833637 5.76135527,37.0009036 7.54234016,37.1699241 C7.76482102,37.1909947 7.98331885,37.188489 8.19578523,37.1675323" id="Fill-24" fill="#4D79F6"></path>
                        <path d="M16.7410873,38.7030676 C16.6700755,38.6536371 14.9828626,37.4973728 13.2357904,37.8817692 C11.4884906,38.2661655 10.441408,40.0240243 10.3977085,40.0986257 C10.2646752,40.3257327 10.3286313,40.6169628 10.5445117,40.7671906 C10.5959497,40.8029537 11.4941806,41.4186712 12.6491465,41.610243 C13.08967,41.6832498 13.567634,41.6946393 14.0499224,41.588489 C15.7971084,41.2040926 16.844191,39.4462339 16.8880043,39.3716325 C17.0209239,39.1446393 16.9569677,38.8534093 16.7410873,38.7030676" id="Fill-26" fill="#4D79F6"></path>
                        <path d="M16.8879474,39.3717008 C16.9544072,39.2581473 16.9717049,39.1286484 16.9453031,39.0086029 L10.3404097,40.461792 C10.3666977,40.5817236 10.4366853,40.6920881 10.5445686,40.7672589 C10.5960066,40.803022 11.4942375,41.4188535 12.6492034,41.6103113 C13.0897269,41.6833181 13.5676909,41.6947077 14.0499793,41.5885573 C15.7971653,41.2040471 16.8442479,39.4463022 16.8879474,39.3717008" id="Fill-28" fill="#4D79F6"></path>
                        <path d="M32.5043513,31.1099013 C32.532005,31.117874 32.7672315,31.1835915 33.1250217,31.2340471 C33.8459508,31.3357555 35.0646451,31.3755049 36.0869191,30.7552316 C37.6167453,29.8270995 38.0409952,27.8250494 38.058293,27.7403113 C38.1109828,27.4824525 37.9564411,27.227555 37.7036892,27.1550038 C37.6206145,27.1310858 35.6508339,26.5816553 34.1211215,27.5097874 C32.5912953,28.4379195 32.1670453,30.4398557 32.1497476,30.5245938 C32.0970577,30.7824525 32.2514856,31.0374639 32.5043513,31.1099013" id="Fill-31" fill="#4D79F6"></path>
                        <path d="M33.1249762,31.2340812 C33.8457914,31.3357897 35.0644858,31.3754252 36.0868736,30.7551519 C37.616586,29.8270197 38.0408359,27.8250835 38.0582475,27.7403455 C38.0846493,27.6114161 38.0590441,27.483284 37.9955431,27.3782726 L32.2125202,30.8868147 C32.2761349,30.9918261 32.3779868,31.0737168 32.5043058,31.1099355 C32.5318456,31.1179081 32.7670722,31.1837396 33.1249762,31.2340812" id="Fill-33" fill="#4D79F6"></path>
                        <path d="M27.1477064,35.9284207 C27.2041517,35.9788762 28.3860884,37.0211314 29.873922,37.1674867 C30.0862746,37.1884434 30.3048862,37.1909491 30.5273671,37.1698785 C32.308352,37.000858 33.5610728,35.3833181 33.6135351,35.3146393 C33.773084,35.1054138 33.7449752,34.8086029 33.5490099,34.6330904 C33.4844848,34.5754594 31.9503342,33.2224981 30.1693493,33.3916325 C28.3884782,33.560653 27.1356435,35.1781929 27.0831813,35.2469856 C26.9236323,35.4560972 26.9517412,35.7529081 27.1477064,35.9284207" id="Fill-35" fill="#4D79F6"></path>
                        <path d="M30.5273898,37.1698671 C32.3082609,37.0008466 33.5610956,35.3834207 33.6135578,35.3146279 C33.6933323,35.2099582 33.726107,35.0835345 33.7144993,34.9612111 L26.982035,35.600391 C26.9936427,35.7226006 27.0497465,35.8407099 27.1477292,35.9284093 C27.2041744,35.9788648 28.3861111,37.02112 29.8739448,37.1674753 C30.0862973,37.188432 30.3047952,37.1910516 30.5273898,37.1698671" id="Fill-37" fill="#4D79F6"></path>
                        <path d="M21.1817598,39.3715869 C21.2254593,39.4463022 22.2725419,41.2040471 24.0197279,41.5884434 C24.5021301,41.6945938 24.9799803,41.6832043 25.4205038,41.6101974 C26.5754697,41.4187396 27.4738144,40.8029081 27.5251386,40.767145 C27.741019,40.6169172 27.8049752,40.3256872 27.6720557,40.098694 C27.6282423,40.0239787 26.5811597,38.26612 24.8339737,37.8817236 C23.0867877,37.4973273 21.3995748,38.6535915 21.3286768,38.703022 C21.1126826,38.8533637 21.0488403,39.1445938 21.1817598,39.3715869" id="Fill-39" fill="#4D79F6"></path>
                        <path d="M24.0197279,41.5885345 C24.5020163,41.6946849 24.9799803,41.6834093 25.42039,41.6102885 C26.5754697,41.4188307 27.4737006,40.8031131 27.5251386,40.76735 C27.6330219,40.6920653 27.7030095,40.5817008 27.7292975,40.4617692 L21.1242903,39.008694 C21.0980023,39.1286257 21.1153,39.2581245 21.1817598,39.3716781 C21.2254593,39.4462794 22.2725419,41.2041382 24.0197279,41.5885345" id="Fill-41" fill="#4D79F6"></path>
                    </g>
                </g>
            </g>
        </g>
    </g>
</svg>