<svg viewBox="0 0 15 15" fill="none" xmlns="http://www.w3.org/2000/svg">
    <g>
        <path d="M9.36231 5.10742C10.4895 5.10742 11.5705 5.55519 12.3675 6.35222C13.1645 7.14925 13.6123 8.23025 13.6123 9.35742C13.615 10.194 13.3677 11.0123 12.9023 11.7074L13.6123 13.6074L11.2223 13.1774C10.6475 13.4577 10.0169 13.6047 9.37744 13.6074C8.73797 13.6101 8.10613 13.4684 7.529 13.193C6.95187 12.9176 6.44434 12.5154 6.04422 12.0166C5.6441 11.5178 5.3617 10.9351 5.21808 10.3119C5.07446 9.68881 5.07329 9.04128 5.2147 8.41763C5.35611 7.79398 5.63644 7.21028 6.03478 6.71002C6.43312 6.20976 6.93922 5.80585 7.51536 5.52837C8.09151 5.25089 8.72283 5.107 9.36231 5.10742Z" stroke="currentColor" stroke-linecap="round" stroke-linejoin="round"/>
        <path d="M9.97232 2.61746C9.29889 1.76053 8.37503 1.13491 7.32934 0.827705C6.28365 0.520499 5.16818 0.546997 4.13826 0.903508C3.10834 1.26002 2.21522 1.9288 1.58323 2.81674C0.951253 3.70467 0.611866 4.76758 0.612328 5.85746C0.609229 6.89346 0.915661 7.90678 1.49232 8.76746L0.612328 11.1074L2.73232 10.7274" stroke="currentColor" stroke-linecap="round" stroke-linejoin="round"/>
    </g>
</svg>
