<svg viewBox="0 0 24 24" fill="none" xmlns="http://www.w3.org/2000/svg">
    <path d="M10.5246 16.65L17.6496 9.49998L16.3746 8.24998L10.5246 14.125L7.57461 11.175L6.32461 12.425L10.5246 16.65ZM11.9996 22.15C10.5663 22.15 9.22878 21.8916 7.98711 21.375C6.74544 20.8583 5.67044 20.1458 4.76211 19.2375C3.85378 18.3291 3.14128 17.2541 2.62461 16.0125C2.10794 14.7708 1.84961 13.4333 1.84961 12C1.84961 10.5833 2.10794 9.25414 2.62461 8.01248C3.14128 6.77081 3.85378 5.69581 4.76211 4.78748C5.67044 3.87914 6.74544 3.16248 7.98711 2.63748C9.22878 2.11248 10.5663 1.84998 11.9996 1.84998C13.4163 1.84998 14.7454 2.11248 15.9871 2.63748C17.2288 3.16248 18.3038 3.87914 19.2121 4.78748C20.1204 5.69581 20.8371 6.76664 21.3621 7.99998C21.8871 9.23331 22.1496 10.5666 22.1496 12C22.1496 13.4333 21.8871 14.7708 21.3621 16.0125C20.8371 17.2541 20.1204 18.3291 19.2121 19.2375C18.3038 20.1458 17.2288 20.8583 15.9871 21.375C14.7454 21.8916 13.4163 22.15 11.9996 22.15ZM11.9996 20.45C14.3996 20.45 16.4079 19.6416 18.0246 18.025C19.6413 16.4083 20.4496 14.4 20.4496 12C20.4496 9.59998 19.6413 7.59164 18.0246 5.97498C16.4079 4.35831 14.3996 3.54998 11.9996 3.54998C9.59961 3.54998 7.59128 4.35831 5.97461 5.97498C4.35794 7.59164 3.54961 9.59998 3.54961 12C3.54961 14.4 4.35794 16.4083 5.97461 18.025C7.59128 19.6416 9.59961 20.45 11.9996 20.45Z" fill="currentColor"/>
</svg>
