<svg viewBox="0 0 70 90" fill="none" xmlns="http://www.w3.org/2000/svg">
    <g style="mix-blend-mode:luminosity" opacity="0.15">
        <path fill-rule="evenodd" clip-rule="evenodd" d="M69.5163 25.7108L34.9978 15.6348L0.484108 25.7108C0.484108 25.7108 -6.78335 67.7539 34.9978 89.2963C76.7813 67.7539 69.5163 25.7108 69.5163 25.7108Z" fill="#070F19"/>
        <path fill-rule="evenodd" clip-rule="evenodd" d="M51.4521 36.0778C51.435 36.0502 49.6726 33.2746 47.3521 30.5441C44.4588 27.1411 41.9302 25.2665 40.2388 25.2665C39.8839 25.2665 39.5706 25.3493 39.2817 25.5174C38.5841 25.924 37.9746 26.1222 37.4214 26.1222C36.2367 26.1222 35.4608 25.2238 35.4412 23.8335C35.402 21.1608 38.2121 16.1667 42.9216 16.0186C42.9828 16.0186 43.0415 16.0161 43.1052 16.0161C46.6128 16.0161 49.7117 19.118 51.6944 21.7179C53.1778 23.6679 55.792 27.9367 55.4958 29.1488C55.3024 29.9494 53.3393 35.2873 53.119 35.8946L52.463 37.6764L51.4521 36.0778Z" fill="#070F19"/>
        <path fill-rule="evenodd" clip-rule="evenodd" d="M59.9448 77.9222C59.798 77.852 59.6536 77.7792 59.5116 77.7089C58.3097 77.0916 57.2254 77.0088 56.2267 77.0088C55.9892 77.0088 55.7469 77.0138 55.5021 77.0188C55.2622 77.0238 55.0199 77.0288 54.7751 77.0288C53.2526 77.0288 51.2577 77.9599 50.7167 78.2259C50.6335 78.2008 50.5454 78.1832 50.4573 78.1832H49.3313C49.1966 78.1832 49.0743 78.2159 48.9568 78.2661C48.8956 78.2385 48.8319 78.2159 48.7634 78.2033L46.1932 77.6763L44.8812 76.4968C44.7025 76.3387 44.4847 76.2584 44.2619 76.2584C44.0661 76.2584 44.3035 75.3324 44.4847 75.0563C44.727 74.6748 44.6781 74.1704 44.3623 73.8467C43.5398 73.0035 41.9586 72.3735 41.0945 72.3735C40.8522 72.3735 40.6441 72.4187 40.463 72.5116C40.2329 72.6295 40.0713 72.8328 39.9955 73.0612C39.2415 72.4513 38.1523 71.8992 36.3923 71.8992C35.8832 71.8992 35.3251 71.9444 34.7376 72.0347C34.3533 72.095 34.0449 72.3886 33.9617 72.7776C33.925 72.9357 33.9323 73.0963 33.9739 73.2469C33.5896 73.4125 32.7721 73.9947 30.1358 76.0501L28.6231 75.0613C28.4689 74.9609 28.2926 74.9107 28.1188 74.9107C28.043 74.9107 27.9671 74.9233 27.8887 74.9434C27.83 74.2131 27.6562 73.3498 27.3306 72.3158C30.0746 69.7485 30.6107 68.4159 30.711 68.0545C30.9803 67.0909 31.1027 65.2764 30.3365 64.2375C29.9938 63.7707 29.5018 63.5147 28.9609 63.5147C28.7846 63.5147 28.6035 63.5423 28.4224 63.595C28.2094 63.6552 28.0234 63.7958 27.901 63.9865C27.8692 64.0342 27.8275 64.1019 27.7761 64.1822C27.2621 65.0179 25.7616 67.4648 23.1498 68.2628L20.9248 65.9816C20.2199 65.1459 17.9165 62.5786 16.1198 62.5786C15.6694 62.5786 15.2558 62.7317 14.9302 63.0203C13.9021 63.9212 13.2657 65.1033 13.2241 66.1749C13.2021 66.7872 13.3881 67.3293 13.7504 67.7007C14.2424 68.2051 16.6853 70.4412 17.4832 71.1715C16.9472 71.578 16.487 72.0373 16.3401 72.489C16.2226 72.8504 16.0733 73.4803 15.9779 74.0173C15.8604 74.6799 15.8187 75.1667 15.9338 75.5406C15.8824 75.754 15.7502 76.1379 15.618 76.4592C15.6033 76.4918 15.5911 76.5294 15.5789 76.5646C14.6487 79.807 17.449 81.9878 17.9777 82.3692C18.8687 83.0067 19.4586 83.1999 19.4978 83.2049C19.8478 83.2827 20.5797 83.4383 21.4168 83.4383C22.4253 83.4383 23.2796 83.2074 23.9601 82.7607C23.9943 82.8109 24.031 82.8611 24.0776 82.9038C24.359 83.1974 24.7654 83.3555 25.2207 83.3555C25.9036 83.3555 26.6183 83.0092 27.1813 82.4044C27.196 82.3868 27.2107 82.3692 27.2254 82.3567C27.3307 82.3943 27.4408 82.4169 27.5558 82.4169C27.6684 82.4169 28.3122 82.3968 29.847 82.0054C30.7722 81.7669 31.9643 80.8535 33.4844 79.5359C33.1588 82.1785 43.6916 84.4522 46.2667 81.9752L47.6448 82.6629C47.6962 83.8348 49.4953 84.1485 50.4573 84.1485C50.7363 84.1485 51.0056 84.0206 51.1818 83.7997C51.5906 83.9929 52.1291 84.2565 52.7533 84.5752C53.4582 85.1524 54.4545 85.446 55.7151 85.446C56.1753 85.446 56.6232 85.4058 57.0149 85.3531C56.9634 85.8852 56.9512 86.4599 57.054 86.884C57.2645 87.7498 57.8985 88.0585 58.4199 88.0585C58.6891 88.0585 58.9657 87.9757 59.213 87.8351C59.4798 87.9481 59.7417 88.0058 60.0011 88.0058C61.0047 88.0058 61.5212 87.2178 61.7831 86.6456C62.2188 86.5552 62.7647 86.2767 63.0902 85.4761C63.3081 84.9416 63.4085 84.2163 63.4085 83.1899C63.4085 79.6087 61.4086 78.635 59.9448 77.9222Z" fill="#070F19"/>
        <path fill-rule="evenodd" clip-rule="evenodd" d="M50.7183 78.2259C50.635 78.2008 50.5469 78.1832 50.4588 78.1832H49.3328C49.1982 78.1832 49.0734 78.2159 48.9559 78.2661C48.8971 78.2385 48.831 78.2159 48.7625 78.2033L46.1923 77.6763L44.8803 76.4968C44.7041 76.3387 44.4838 76.2584 44.261 76.2584C44.0652 76.2584 44.3051 75.3324 44.4838 75.0563C44.7286 74.6748 44.6772 74.1704 44.3614 73.8467C43.5389 73.0035 41.9601 72.371 41.0936 72.371C40.8537 72.371 40.6457 72.4187 40.4645 72.5116C40.2344 72.6295 40.0704 72.8328 39.9946 73.0612C39.2431 72.4513 38.1514 71.8992 36.3914 71.8992C35.8823 71.8992 35.3266 71.9444 34.7392 72.0347C34.3524 72.095 34.044 72.3886 33.9608 72.7776C33.9265 72.9357 33.9339 73.0963 33.973 73.2469C33.5912 73.4125 32.7736 73.9947 30.1374 76.0501L28.6246 75.0613C28.468 74.9609 28.2942 74.9107 28.1204 74.9107C28.0421 74.9107 27.9662 74.9233 27.8903 74.9434C27.8291 74.2131 27.6553 73.3498 27.3298 72.3158C30.0737 69.7485 30.6098 68.4159 30.7101 68.0545C30.9818 67.0909 31.1018 65.2764 30.3381 64.2375C29.9929 63.7707 29.5034 63.5147 28.96 63.5147C28.7837 63.5147 28.6051 63.5398 28.4239 63.5925C28.211 63.6552 28.0249 63.7958 27.9025 63.9865C27.8683 64.0342 27.8267 64.1019 27.7777 64.1822C27.2637 65.0179 25.7632 67.4623 23.149 68.2628L20.9239 65.9816C20.2214 65.1459 17.9181 62.5786 16.1189 62.5786C15.671 62.5786 15.2573 62.7317 14.9318 63.0178C13.9037 63.9212 13.2648 65.1033 13.2257 66.1749C13.2036 66.7872 13.3897 67.3293 13.7495 67.7007C14.2439 68.2051 16.6868 70.4412 17.4848 71.1689C16.9463 71.578 16.4885 72.0373 16.3392 72.489C16.2217 72.8504 16.0749 73.4803 15.9794 74.0173C15.9133 74.3837 15.8742 74.6924 15.8693 74.9634C18.5496 77.8821 21.6754 80.7029 25.3103 83.3505C25.9663 83.3229 26.6419 82.9841 27.1829 82.4044C27.1976 82.3868 27.2098 82.3692 27.2245 82.3567C27.3298 82.3943 27.4399 82.4169 27.555 82.4169C27.67 82.4169 28.3138 82.3968 29.8485 82.0054C30.7738 81.7669 31.9658 80.8535 33.4859 79.5359C33.2069 81.792 32.3453 85.3933 31.7896 87.544C32.825 88.1413 33.8947 88.7285 34.9986 89.2957C41.4657 85.963 46.7553 82.1384 51.0805 78.0553C50.9288 78.123 50.8039 78.1832 50.7183 78.2259Z" fill="#070F19"/>
        <path fill-rule="evenodd" clip-rule="evenodd" d="M44.2616 77.2214L45.7645 78.5691L48.5795 79.1463L48.2025 81.8416L45.9506 81.0711L44.2616 77.2214Z" fill="white"/>
        <path fill-rule="evenodd" clip-rule="evenodd" d="M49.3316 79.1467H50.4575C50.4575 79.1467 50.2691 82.226 50.4575 83.1897C49.3316 83.1897 48.5776 82.8032 48.5776 82.61C48.7686 81.842 49.3316 79.1467 49.3316 79.1467Z" fill="white"/>
        <path fill-rule="evenodd" clip-rule="evenodd" d="M37.5036 76.2597C37.5036 76.2597 37.8781 74.7188 40.5095 74.9121C39.5696 73.9509 38.6296 72.41 34.8772 72.9872C36.0031 73.7577 37.3176 74.9121 37.5036 76.2597Z" fill="white"/>
        <path fill-rule="evenodd" clip-rule="evenodd" d="M36.6556 73.7363C29.7504 73.7363 24.1719 70.7851 20.7083 68.3106C17.044 65.6906 14.3123 62.5436 14.0602 61.2436C13.7982 59.9135 10.0287 51.3232 7.55641 45.8699C7.49522 45.7343 7.46584 45.5838 7.47074 45.4332L8.03373 28.6892C8.04597 28.3103 8.27116 27.9765 8.61385 27.8309L20.4391 22.8293C20.5272 22.7917 20.6178 22.7691 20.7132 22.759L28.972 21.9886C29.0014 21.9861 29.0308 21.9861 29.0577 21.9861C29.1238 21.9861 29.1899 21.9936 29.2584 22.0087L44.8385 25.4719C44.8924 25.4845 44.9511 25.502 45.0025 25.5271C45.3697 25.6852 53.9883 29.5801 55.1486 44.4268C56.3137 59.3865 52.2406 69.4274 44.4567 72.459C41.9355 73.4427 39.2649 73.7363 36.6556 73.7363Z" fill="#070F19"/>
        <path fill-rule="evenodd" clip-rule="evenodd" d="M44.6368 26.4117C44.6368 26.4117 53.0841 30.0707 54.21 44.5034C55.3385 58.9385 51.4514 68.7435 44.1693 71.5442C27.6492 77.896 15.354 62.979 14.9795 61.0541C14.6026 59.1318 8.40723 45.4645 8.40723 45.4645L8.97266 28.7205L20.7979 23.7189L29.0567 22.9485L44.6368 26.4117Z" fill="#FFDEAB"/>
        <path fill-rule="evenodd" clip-rule="evenodd" d="M33.0005 37.1903C33.0005 37.1903 27.7451 32.5702 24.7393 35.0723C23.2388 37.9608 23.6133 40.2696 23.6133 40.2696C23.6133 40.2696 25.8653 34.3043 33.0005 37.1903Z" fill="#070F19"/>
        <path fill-rule="evenodd" clip-rule="evenodd" d="M43.1358 44.311C43.1358 44.311 45.9507 52.0079 48.0166 53.9328C47.8281 56.0509 44.2617 58.3597 38.8179 55.2805C38.8179 55.2805 45.0132 56.6281 46.3277 54.126C45.7647 53.1649 43.1358 46.6199 43.1358 44.311Z" fill="#070F19"/>
        <path fill-rule="evenodd" clip-rule="evenodd" d="M42.9348 4.43947C42.7439 4.16592 42.4526 4.0028 42.1295 4.0028C41.8603 4.0028 41.5984 4.12326 41.4148 4.32653C41.2067 4.55993 41.0549 4.72556 41.099 6.19869C34.6662 0.288603 26.4515 0.0527014 26.0696 0.0451726L23.8348 0L30.2578 6.97415H21.1716L17.3237 7.06952L20.7531 8.79611C20.8143 8.82874 21.6465 9.25286 22.8606 9.78991C20.0604 10.475 17.7129 11.6194 17.5759 11.6872L15.4145 12.7512L17.9504 13.5518L17.2699 13.9132L14.7193 15.2683L17.5636 15.7201C17.5685 15.7226 17.9602 15.7853 18.6406 16.0363C8.94744 20.3703 2.73987 30.9809 1.97372 33.5382C1.71181 34.409 1.73384 36.3339 4.23791 43.5514C5.59154 47.4513 7.05775 51.0902 7.07244 51.1254L7.21686 51.4868L7.56689 51.6424C7.90469 51.7929 15.9309 55.339 18.9735 56.1195L21.2206 56.6942L19.9992 54.679C17.1695 50.0011 16.5307 46.0911 15.9114 42.3092C15.8159 41.7244 15.7204 41.1472 15.6201 40.5776C15.1648 38.0203 19.4949 32.5494 22.6697 29.3045C24.2975 30.4087 28.8234 32.8756 37.2682 33.3399C37.6892 33.3625 38.1078 33.375 38.5044 33.375C43.0915 33.375 46.1145 31.8291 47.7447 28.647C49.1497 25.9015 49.3358 22.2726 49.5169 18.7642C49.8914 11.504 43.8405 5.32284 42.9348 4.43947Z" fill="#070F19"/>
        <path fill-rule="evenodd" clip-rule="evenodd" d="M19.0141 44.7928C19.0141 44.7928 25.7724 41.9067 30.9348 41.4249C36.457 40.9104 37.5046 42.1928 38.4421 42.5793C39.3821 42.9633 41.4455 42.9633 42.574 42.3861C43.6999 41.8089 42.197 40.2705 48.2038 39.3068C54.2107 38.3456 56.4651 37.5752 57.7771 40.2705C59.0916 42.9633 59.843 49.1218 57.2141 50.4695C54.5852 51.8171 50.0813 53.1648 48.2038 52.0078C46.3264 50.8559 44.4514 48.5446 43.5115 45.4653C42.3855 44.8881 39.5681 44.3109 39.1936 45.8493C38.8191 47.3902 39.1936 50.8559 36.9416 52.3943C34.6872 53.9352 26.1885 56.096 24.1765 54.3192C21.4545 51.9125 20.8915 49.4104 21.08 47.1016C20.1401 46.9084 19.0141 46.9084 19.0141 46.9084L10.6476 50.477L7.87671 48.512L18.8256 45.7539L19.0141 44.7928Z" fill="#070F19"/>
        <path fill-rule="evenodd" clip-rule="evenodd" d="M24.2707 44.6001C26.5226 43.6364 28.4197 43.3001 29.903 43.0592C33.4694 42.482 37.2219 41.9048 37.5034 45.6567C37.7922 49.4963 36.7544 51.4312 35.6284 51.8152C34.5024 52.2017 27.3573 54.3298 25.6782 53.5493C24.8435 53.1603 22.9807 51.8051 22.3565 48.1286C22.0187 46.1385 23.1863 45.0644 24.2707 44.6001Z" fill="white"/>
        <path fill-rule="evenodd" clip-rule="evenodd" d="M48.5955 40.9522C50.3334 40.6536 52.4018 40.365 53.9317 40.365C57.1211 40.365 57.4981 42.0991 57.7771 44.6965C58.0513 47.2112 58.2471 49.0256 55.0576 50.18C51.8657 51.3369 49.91 51.3219 48.6738 50.7572C47.1685 50.0721 44.6277 48.5663 44.9581 43.6049C45.1074 41.3287 47.7755 41.0928 48.5955 40.9522Z" fill="white"/>
        <path fill-rule="evenodd" clip-rule="evenodd" d="M15.9162 52.3938C15.1819 51.7639 9.43941 44.7923 2.96503 49.8918C1.65058 51.2394 0.150089 53.5482 5.40547 57.5912C10.6608 61.6316 12.2568 62.6907 14.8833 60.959C17.5122 59.2274 21.737 57.3979 15.9162 52.3938Z" fill="#FFDEAB"/>
        <path fill-rule="evenodd" clip-rule="evenodd" d="M3.27339 50.2545C2.69082 50.8568 2.1107 51.6097 2.18413 52.6235C2.2747 53.9486 3.45208 55.4895 5.68445 57.206C11.0989 61.3669 12.3571 62.0521 14.6311 60.5538C14.8612 60.4008 15.106 60.2477 15.3556 60.0896C16.7215 59.2313 18.2709 58.2576 18.3664 56.925C18.4472 55.8032 17.5219 54.4028 15.6151 52.7641C15.5343 52.6938 15.4315 52.5884 15.2724 52.4278C11.001 48.0962 6.96464 47.3659 3.27339 50.2545ZM12.6311 62.2427C10.7929 62.2427 8.79302 60.7972 5.1238 57.9764C2.62706 56.0591 1.36156 54.3299 1.24652 52.6937C1.14616 51.2532 1.99064 50.2117 2.63196 49.5517L2.67847 49.5115C5.32452 47.4286 8.16883 47.0019 11.1282 48.2492C13.4536 49.2305 15.1891 50.9897 15.9332 51.7426C16.058 51.8731 16.1682 51.981 16.2171 52.0261C18.4005 53.9008 19.409 55.527 19.3038 56.9976C19.1716 58.8196 17.4043 59.9314 15.8475 60.9126C15.6027 61.0657 15.3629 61.2138 15.1401 61.3643C14.2442 61.9516 13.4536 62.2427 12.6311 62.2427Z" fill="#070F19"/>
        <path fill-rule="evenodd" clip-rule="evenodd" d="M5.21649 53.1646C5.21649 53.1646 6.15644 52.2009 8.22236 52.2009C10.2834 52.2009 12.9148 52.9714 14.4152 55.2802C13.1008 54.5123 10.4719 53.1646 10.4719 53.1646C10.4719 53.1646 8.97138 56.0506 11.0373 56.4371C13.1008 56.8211 14.4152 56.4371 14.4152 56.4371C14.4152 56.4371 12.5378 58.1687 11.5978 57.7823C10.6603 57.3983 8.7829 56.8211 8.7829 53.1646C7.46845 53.1646 5.96796 52.7806 5.21649 53.1646Z" fill="#070F19"/>
        <path fill-rule="evenodd" clip-rule="evenodd" d="M41.1063 67.0628C37.0357 67.1181 35.004 64.9197 34.7837 64.616C34.2844 65.2334 34.1228 65.7378 34.1204 65.7428C34.1008 65.8256 34.0273 65.8833 33.9441 65.8858H33.9392C33.8584 65.8858 33.7875 65.8331 33.7605 65.7554C33.5207 65 33.5843 64.355 33.9515 63.8355C34.6099 62.9045 36.0566 62.656 36.8105 62.656C36.8472 62.656 36.879 62.656 36.9108 62.6585C37.0014 62.661 37.0773 62.7263 37.0895 62.8191C37.1042 62.907 37.0577 62.9948 36.9769 63.0299C36.4923 63.2232 36.0566 63.4641 35.6698 63.7452C35.6723 63.7477 37.0357 65.3864 39.8873 65.7729C40.1615 65.8106 40.4699 65.8582 40.8126 65.8582C43.7866 65.8582 47.7985 63.7552 47.845 63.7326C47.8695 63.7201 47.894 63.7151 47.9209 63.7151C47.9895 63.7151 48.0531 63.7527 48.0874 63.8179C48.1339 63.9058 48.1045 64.0162 48.0237 64.0714C47.9013 64.1492 45.7302 65.9687 43.2604 66.7441C42.5848 66.9549 41.8602 67.0628 41.1063 67.0628Z" fill="#070F19"/>
        <path fill-rule="evenodd" clip-rule="evenodd" d="M26.7281 48.6794C27.1858 48.5916 27.2054 48.3206 27.1638 48.0872C27.1295 47.9015 27.0707 47.7208 27.0095 47.5376C26.9508 47.3569 26.8921 47.1837 26.8602 46.998C26.7476 46.3857 27.0879 46.0519 27.6411 45.949L27.7781 45.9214L27.8442 46.2878L27.7267 46.3104C27.3449 46.3806 27.2543 46.6191 27.318 46.9779C27.3449 47.131 27.3938 47.2866 27.4501 47.4422C27.504 47.6028 27.553 47.7584 27.5872 47.9391C27.6704 48.3632 27.526 48.6092 27.2494 48.7447L27.2519 48.7572C27.5554 48.7773 27.7781 48.968 27.8491 49.3947C27.881 49.5728 27.8932 49.7435 27.8956 49.9066C27.9005 50.0798 27.9054 50.2354 27.9348 50.396C28.0033 50.7674 28.1894 50.9456 28.5516 50.8753L28.6691 50.8527L28.7352 51.2191L28.6006 51.2442C28.0596 51.3471 27.6141 51.1865 27.4942 50.5139C27.4624 50.3332 27.455 50.1425 27.4477 49.9593C27.4404 49.7736 27.4355 49.5904 27.4012 49.4097C27.3645 49.2039 27.2494 48.9304 26.7868 49.0182L26.7281 48.6794Z" fill="#0F1E33"/>
        <path fill-rule="evenodd" clip-rule="evenodd" d="M29.0371 50.035C28.993 49.7891 29.1228 49.5858 29.3504 49.5432C29.578 49.5005 29.7641 49.641 29.8081 49.887C29.8522 50.1279 29.7347 50.3362 29.4948 50.3814C29.2696 50.424 29.0811 50.2734 29.0371 50.035Z" fill="#0F1E33"/>
        <path fill-rule="evenodd" clip-rule="evenodd" d="M30.3806 49.7801C30.334 49.5342 30.4662 49.3309 30.6939 49.2883C30.9215 49.2456 31.1075 49.3861 31.1492 49.6321C31.1932 49.873 31.0782 50.0813 30.8383 50.1265C30.6106 50.1691 30.4246 50.0186 30.3806 49.7801Z" fill="#0F1E33"/>
        <path fill-rule="evenodd" clip-rule="evenodd" d="M31.7213 49.5249C31.6748 49.2789 31.807 49.0757 32.0346 49.033C32.2623 48.9878 32.4483 49.1309 32.4924 49.3768C32.5364 49.6177 32.4189 49.826 32.1791 49.8712C31.9539 49.9139 31.7654 49.7633 31.7213 49.5249Z" fill="#0F1E33"/>
        <path fill-rule="evenodd" clip-rule="evenodd" d="M34.1336 47.6219C33.6759 47.7097 33.6612 48.0083 33.6979 48.2141C33.7297 48.3948 33.7885 48.568 33.8472 48.7411C33.906 48.9168 33.9672 49.0975 33.9965 49.2782C34.1189 49.9483 33.7542 50.267 33.223 50.3674L33.086 50.3925L33.0199 50.0261L33.13 50.006C33.4923 49.9307 33.6122 49.7023 33.5437 49.3309C33.5143 49.1703 33.4629 49.0222 33.4115 48.8591C33.3577 48.706 33.3014 48.5429 33.2671 48.3647C33.1912 47.9381 33.3332 47.6771 33.6049 47.5516L33.6024 47.5365C33.3038 47.5114 33.0811 47.3333 33.0052 46.9091C32.9734 46.7285 32.9709 46.5653 32.966 46.3947C32.9587 46.229 32.9562 46.0659 32.9268 45.9128C32.8608 45.554 32.6894 45.3733 32.3125 45.4385L32.195 45.4611L32.1289 45.0947L32.2562 45.0696C32.8094 44.9642 33.2524 45.1499 33.3626 45.7623C33.3944 45.948 33.4017 46.1312 33.4091 46.3219C33.4189 46.5151 33.4262 46.7059 33.4605 46.8916C33.4996 47.125 33.6122 47.3709 34.0749 47.2831L34.1336 47.6219Z" fill="#0F1E33"/>
        <path fill-rule="evenodd" clip-rule="evenodd" d="M47.7519 45.9851C48.2096 45.8973 48.2292 45.6262 48.1876 45.3928C48.1533 45.2071 48.0945 45.0264 48.0333 44.8432C47.9746 44.665 47.9159 44.4894 47.884 44.3037C47.7739 43.6913 48.1141 43.3575 48.6649 43.2547L48.802 43.2271L48.868 43.5935L48.7505 43.616C48.3687 43.6888 48.2781 43.9247 48.3418 44.2836C48.3711 44.4367 48.4177 44.5923 48.4739 44.7479C48.5278 44.9085 48.5768 45.0641 48.611 45.2448C48.6942 45.6689 48.5498 45.9148 48.2732 46.0503L48.2757 46.0654C48.5817 46.083 48.8044 46.2737 48.8729 46.7003C48.9072 46.8785 48.917 47.0492 48.9194 47.2148C48.9243 47.3854 48.9292 47.541 48.9611 47.7017C49.0271 48.0731 49.2156 48.2513 49.5779 48.181L49.6929 48.1609L49.759 48.5248L49.6244 48.5499C49.0859 48.6528 48.6404 48.4922 48.518 47.8196C48.4862 47.6389 48.4788 47.4482 48.4715 47.265C48.4666 47.0793 48.4593 46.8961 48.425 46.7179C48.3907 46.5096 48.2732 46.236 47.8106 46.3239L47.7519 45.9851Z" fill="#0F1E33"/>
        <path fill-rule="evenodd" clip-rule="evenodd" d="M50.0632 47.3402C50.0167 47.0942 50.1489 46.8909 50.3765 46.8483C50.6042 46.8056 50.7902 46.9487 50.8318 47.1921C50.8759 47.433 50.7608 47.6413 50.5209 47.6865C50.2933 47.7291 50.1073 47.5786 50.0632 47.3402Z" fill="#0F1E33"/>
        <path fill-rule="evenodd" clip-rule="evenodd" d="M51.4044 47.0855C51.3579 46.8396 51.49 46.6363 51.7177 46.5936C51.9453 46.551 52.1314 46.694 52.1754 46.9375C52.2195 47.1784 52.102 47.3867 51.8621 47.4318C51.6369 47.4745 51.4484 47.3239 51.4044 47.0855Z" fill="#0F1E33"/>
        <path fill-rule="evenodd" clip-rule="evenodd" d="M52.7451 46.8304C52.701 46.5845 52.8332 46.3812 53.0608 46.3385C53.286 46.2959 53.4745 46.4389 53.5161 46.6823C53.5602 46.9233 53.4451 47.1315 53.2028 47.1767C52.9776 47.2194 52.7916 47.0688 52.7451 46.8304Z" fill="#0F1E33"/>
        <path fill-rule="evenodd" clip-rule="evenodd" d="M55.1594 44.9288C54.6992 45.0166 54.687 45.3127 54.7212 45.5185C54.7555 45.6992 54.8118 45.8724 54.873 46.048C54.9293 46.2237 54.9905 46.4044 55.0223 46.5851C55.1423 47.2552 54.7775 47.5714 54.2464 47.6717L54.1093 47.6994L54.0432 47.333L54.1558 47.3129C54.5156 47.2351 54.6356 47.0067 54.5695 46.6353C54.5401 46.4747 54.4863 46.3291 54.4373 46.166C54.3834 46.0104 54.3247 45.8498 54.2929 45.6691C54.217 45.245 54.359 44.984 54.6282 44.856L54.6258 44.8434C54.3271 44.8183 54.1068 44.6402 54.031 44.2135C53.9967 44.0354 53.9942 43.8697 53.9894 43.6991C53.982 43.5359 53.9796 43.3703 53.9502 43.2172C53.8841 42.8609 53.7128 42.6802 53.3358 42.7429L53.2183 42.768L53.1547 42.4016L53.2819 42.3765C53.8327 42.2711 54.2757 42.4568 54.3883 43.0666C54.4202 43.2549 54.4251 43.4381 54.4348 43.6288C54.4422 43.8195 54.4495 44.0103 54.4838 44.196C54.5254 44.4294 54.6356 44.6753 55.0982 44.59L55.1594 44.9288Z" fill="#0F1E33"/>
        <path fill-rule="evenodd" clip-rule="evenodd" d="M43.5113 36.4209C43.5113 36.4209 48.5782 26.7991 51.0186 36.4209C49.1436 34.3028 48.0176 33.5348 43.5113 36.4209Z" fill="#070F19"/>
        <path fill-rule="evenodd" clip-rule="evenodd" d="M41.259 74.9114C41.259 74.9114 42.7595 74.141 43.6995 74.5275C42.948 73.757 41.259 73.1798 40.8845 73.373C41.0706 73.757 41.259 74.9114 41.259 74.9114Z" fill="white"/>
        <path fill-rule="evenodd" clip-rule="evenodd" d="M31.4037 75.0671C31.0366 75.3507 30.618 75.6744 30.1358 76.0508L28.6231 75.062C28.4688 74.9617 28.2926 74.9115 28.1188 74.9115C28.0429 74.9115 27.9671 74.924 27.8887 74.9441C27.83 74.2138 27.6562 73.348 27.3306 72.3166C30.0746 69.7467 30.6107 68.4167 30.711 68.0553C30.9803 67.0916 31.1027 65.2772 30.3365 64.2382C29.9938 63.7714 29.5043 63.5129 28.9608 63.5129C28.7846 63.5129 28.6035 63.5405 28.4223 63.5932C28.2094 63.656 28.0234 63.7965 27.901 63.9847C27.8691 64.0349 27.8275 64.1002 27.7786 64.183C27.2645 65.0187 25.7616 67.463 23.1498 68.2636L20.9248 65.9824C20.2223 65.1441 17.9165 62.5793 16.1198 62.5793C15.6694 62.5793 15.2557 62.7299 14.9326 63.0185C13.9046 63.922 13.2657 65.1015 13.2241 66.1756C13.2021 66.7879 13.3905 67.33 13.7504 67.7014C14.2424 68.2058 16.6852 70.4419 17.4832 71.1697C16.9472 71.5762 16.487 72.0355 16.3401 72.4897C16.2226 72.8511 16.0733 73.481 15.9778 74.0181C15.8603 74.6781 15.8187 75.1675 15.9338 75.5389C15.8824 75.7522 15.7502 76.1387 15.618 76.4574C15.6033 76.4925 15.5911 76.5302 15.5788 76.5653C14.6487 79.8077 17.449 81.9885 17.9801 82.37C18.8687 83.0074 19.4586 83.1981 19.4977 83.2057C19.8478 83.281 20.5797 83.4391 21.4168 83.4391C22.4253 83.4391 23.2796 83.2082 23.96 82.759C23.9968 82.8117 24.031 82.8593 24.0775 82.9045C24.359 83.1956 24.7654 83.3562 25.2231 83.3562C25.9036 83.3562 26.6183 83.0099 27.1813 82.4051C27.196 82.3875 27.2107 82.37 27.2254 82.3549C27.3306 82.3951 27.4408 82.4177 27.5558 82.4177C27.6709 82.4177 28.3122 82.3976 29.8469 82.0061C30.2998 81.8881 30.8163 81.6096 31.4037 81.203V75.0671Z" fill="#070F19"/>
        <path fill-rule="evenodd" clip-rule="evenodd" d="M43.6998 77.9908C43.6998 77.9908 40.1334 77.0296 39.9449 75.682C38.0674 75.682 37.6929 77.2204 37.6929 77.2204C37.6929 77.2204 36.5669 76.066 35.813 74.9116C35.064 73.7571 34.501 74.1411 34.3125 74.1411C34.1265 74.1411 30.1856 77.2204 30.1856 77.2204L28.1197 75.8752C28.4942 77.9908 27.5542 81.4566 27.5542 81.4566C27.5542 81.4566 28.1197 81.4566 29.6202 81.0726C31.1206 80.6861 34.501 77.2204 35.813 76.2592C35.4385 77.0296 35.064 77.4136 34.501 77.9908C34.6552 80.0336 33.1792 85.9337 32.6334 88.0242C33.4044 88.4558 34.1926 88.8799 34.9979 89.2965C35.392 89.0932 35.7837 88.8875 36.168 88.6817C36.5865 88.4558 37.0002 88.2274 37.409 87.9991L37.5167 87.9413C38.344 87.4746 39.1542 87.0002 39.9424 86.5159C39.9694 86.5034 39.9914 86.4858 40.0183 86.4707C40.3953 86.2373 40.7698 86.0039 41.1369 85.7706C41.1565 85.758 41.1761 85.748 41.1932 85.7354C41.9619 85.246 42.7084 84.7441 43.4379 84.2397C43.4697 84.2146 43.5039 84.1945 43.5382 84.1694C44.2652 83.6625 44.9751 83.1455 45.6702 82.6235C44.838 79.9935 43.6998 77.9908 43.6998 77.9908Z" fill="white"/>
        <path fill-rule="evenodd" clip-rule="evenodd" d="M27.555 77.7983L26.429 78.5688C26.429 78.5688 26.429 81.2616 24.74 82.2253C25.303 82.8025 27.7434 82.032 27.555 77.7983Z" fill="white"/>
        <path fill-rule="evenodd" clip-rule="evenodd" d="M26.2403 72.0257C26.2403 72.0257 29.4322 69.1397 29.8067 67.792C30.1837 66.4444 29.9952 64.133 28.6807 64.5195C28.3062 65.0967 26.4288 68.56 22.8623 69.3304C22.2994 68.7532 20.2334 66.6376 20.2334 66.6376C20.2334 66.6376 16.8555 62.5947 15.541 63.7491C14.229 64.9035 13.8496 66.4444 14.4151 67.0216C14.9781 67.5988 18.356 70.6781 18.356 70.6781L19.1075 71.2553C19.1075 71.2553 17.4185 72.2189 17.23 72.7961C17.0415 73.3734 16.667 75.105 16.8555 75.2982C17.0415 75.4889 16.481 76.8366 16.481 76.8366C16.481 76.8366 15.541 80.1091 16.104 80.1091C16.667 80.1091 19.2959 82.2247 19.482 82.2247C19.6704 82.2247 22.1109 82.9951 23.6138 81.8407C25.1143 80.6863 25.4888 79.1454 25.6797 77.991C26.2403 77.607 27.9292 76.8366 26.2403 72.0257Z" fill="white"/>
        <path fill-rule="evenodd" clip-rule="evenodd" d="M20.4699 82.3361C20.3573 82.3361 20.2423 82.3286 20.1272 82.316C18.289 82.1052 16.3283 81.2645 15.359 80.2732C14.211 79.0962 14.539 76.9882 16.1227 75.3645C16.3063 75.1737 16.551 75.0784 16.7983 75.0784C16.9794 75.0784 17.1654 75.1311 17.327 75.2415C19.1408 76.4812 21.5714 77.8188 22.3351 77.8188C22.8639 77.8188 23.2898 78.258 23.2898 78.7976C23.2898 79.0511 23.2555 79.9445 22.8198 80.8078C22.3205 81.7915 21.4858 82.3361 20.4699 82.3361Z" fill="#070F19"/>
        <path fill-rule="evenodd" clip-rule="evenodd" d="M16.7984 76.0571C16.7984 76.0571 20.8079 78.7976 22.3353 78.7976C22.3353 79.5806 21.9534 81.5406 20.2351 81.3423C18.5167 81.1466 16.7984 80.3636 16.0347 79.5806C15.271 78.7976 15.6504 77.2316 16.7984 76.0571Z" fill="white"/>
        <path fill-rule="evenodd" clip-rule="evenodd" d="M22.7313 79.2003C22.6334 79.2003 22.5306 79.1953 22.4303 79.1852C20.3447 78.9694 16.5017 76.6606 15.9436 75.5162C15.5765 74.7633 15.4247 73.5612 15.9094 72.5699C16.1933 71.9852 16.8151 71.2323 18.154 70.9839C18.2103 70.9713 18.269 70.9663 18.3253 70.9663C18.4037 70.9663 18.4869 70.9763 18.5652 70.9964C18.624 71.014 20.0975 71.4055 21.6445 71.9501C24.7189 73.0342 25.3309 73.757 25.534 74.3768C25.8351 75.3029 25.7323 76.8915 24.9466 78.0057C24.4056 78.7762 23.6174 79.2003 22.7313 79.2003Z" fill="#070F19"/>
        <path fill-rule="evenodd" clip-rule="evenodd" d="M18.3259 71.9458C18.3259 71.9458 24.2446 73.5118 24.6265 74.6863C25.0083 75.8608 24.4355 78.4055 22.5263 78.2097C20.617 78.014 17.1412 75.7779 16.7985 75.0778C16.4166 74.2948 16.2257 72.3373 18.3259 71.9458Z" fill="white"/>
        <path fill-rule="evenodd" clip-rule="evenodd" d="M44.4148 79.0738C43.8029 77.3924 43.0245 75.7963 42.6034 75.1488C42.4468 74.9079 42.1947 74.7523 41.9156 74.7247C41.8838 74.7222 41.852 74.7197 41.8202 74.7197C41.5827 74.7197 41.3502 74.8125 41.1764 74.9857C41.0026 74.7749 40.7627 74.667 40.5081 74.667C40.349 74.667 40.1826 74.7097 40.0284 74.7975C39.5878 75.0484 39.4434 75.6508 39.6686 76.1125C40.1067 77.0109 40.0945 80.6423 39.9476 82.9311C39.9305 83.182 40.0112 83.4305 40.1728 83.6212L41.6782 85.4231C42.9363 84.6025 44.1431 83.7617 45.2936 82.9035C45.2911 82.1782 45.1149 80.9987 44.4148 79.0738Z" fill="#070F19"/>
        <path fill-rule="evenodd" clip-rule="evenodd" d="M40.5088 75.6821C41.2602 77.2205 40.8833 82.9951 40.8833 82.9951L42.4743 84.8973C43.0691 84.4983 43.6517 84.0943 44.2245 83.6827C44.2367 83.6476 44.249 83.6124 44.2612 83.5748C44.8266 81.8407 42.5747 76.8365 41.8208 75.6821C41.0693 76.4526 40.5088 75.6821 40.5088 75.6821Z" fill="#EE4035"/>
        <path fill-rule="evenodd" clip-rule="evenodd" d="M59.0919 78.5691C58.759 78.3985 58.4359 78.2906 58.1201 78.2002C58.5705 78.7724 58.7541 79.568 58.6023 80.2706C58.3845 81.282 56.649 81.7664 55.7286 81.3397C54.4974 80.765 54.561 78.805 54.7495 78.7749C54.8376 80.5116 56.0395 80.898 57.1508 80.7123C58.0956 80.5517 58.2645 79.3521 57.5571 78.4964C57.3197 78.2103 56.9941 78.0747 56.6539 77.9869C56.0419 77.9643 55.4275 77.9919 54.774 77.9919C53.2735 77.9919 51.0191 79.1463 51.0191 79.1463L50.7401 82.5318C50.7401 82.5318 51.609 82.9258 52.8868 83.5708C53.0361 83.5883 53.1976 83.646 53.342 83.646C53.3837 83.646 53.4253 83.646 53.462 83.6435C53.9001 83.6335 54.3505 83.518 54.7985 83.3047C55.266 83.0889 55.6625 82.7401 55.9538 82.464C55.9881 82.4289 56.0419 82.4088 56.086 82.4088C56.1374 82.4088 56.1913 82.4314 56.228 82.469C56.2892 82.5343 56.3014 82.6497 56.25 82.725C55.9416 83.1818 55.5255 83.5582 55.053 83.8192L54.9772 83.8568C54.7152 84.0024 54.4215 84.1329 54.1106 84.2283C55.7653 84.8155 58.1544 84.1505 58.1544 84.1505C58.1544 84.1505 57.7774 85.8821 57.9659 86.6525C58.1079 87.2272 58.5631 87.157 58.8618 86.9236C58.7345 86.7629 58.6268 86.5747 58.5436 86.3865C58.3747 85.995 58.3526 85.5734 58.3551 85.2522C58.3551 84.5771 58.475 83.8794 58.7174 83.124C58.7418 83.0437 58.8251 82.986 58.9058 82.986C58.9254 82.986 58.945 82.991 58.9646 82.9961C59.0649 83.0312 59.1212 83.1341 59.0968 83.237C59.0184 83.5482 58.9572 83.8844 58.9205 84.2383C58.874 84.6172 58.8618 84.9435 58.8789 85.2371C58.8985 85.5533 58.9597 85.867 59.0674 86.1707C59.1653 86.4543 59.3171 86.7454 59.5472 86.9236C60.5091 87.3552 60.8812 86.3965 61.0746 85.8946C60.9571 85.8219 60.8322 85.7641 60.7294 85.6512C60.4773 85.3802 60.2962 85.0288 60.1591 84.5495C60.0563 84.1906 59.9878 83.8092 59.9535 83.38C59.9315 83.0814 59.9143 82.7325 59.9608 82.3787C59.9021 82.3486 59.8531 82.3185 59.8066 82.2833C59.7014 82.2131 59.6084 82.1051 59.5447 81.9747C59.4321 81.7588 59.4027 81.4903 59.4615 81.2193C59.4835 81.1314 59.5667 81.0612 59.6549 81.0612C59.6695 81.0612 59.6842 81.0612 59.6989 81.0662C59.7944 81.0863 59.8654 81.1967 59.8507 81.2971C59.8213 81.4727 59.8458 81.6434 59.9143 81.7588C59.951 81.8241 59.9975 81.8718 60.0538 81.9044C60.1199 81.9521 60.1983 81.9747 60.2766 81.9972L60.3133 82.0073C60.4063 82.0324 60.4675 82.1252 60.4528 82.2231L60.4455 82.2633C60.4014 82.5619 60.4039 82.9007 60.4553 83.3273C60.5018 83.7038 60.5777 84.0551 60.6854 84.3738C60.8224 84.7728 60.9693 85.064 61.1407 85.2923C61.241 85.4178 61.3561 85.5182 61.4785 85.5834C61.5617 85.6286 61.662 85.6361 61.7599 85.6487C62.2593 85.4228 62.4723 84.6298 62.4723 83.1868C62.4723 79.8942 60.5924 79.3396 59.0919 78.5691Z" fill="white"/>
    </g>
</svg>
