<svg viewBox="0 0 56 56" fill="none" xmlns="http://www.w3.org/2000/svg"><path d="M11.66 1.86621C9.86694 1.86621 8.3999 3.33621 8.3999 5.13288V50.8662C8.3999 52.6629 9.86694 54.1329 11.66 54.1329H44.2609C46.054 54.1329 47.521 52.6629 47.521 50.8662V14.9329L34.4807 1.86621H11.66Z" fill="#F6F8FB"></path><path d="M37.7408 14.9329H47.5211L34.4807 1.86621V11.6662C34.4807 13.4629 35.9478 14.9329 37.7408 14.9329Z" fill="#2C95FF"></path><path d="M47.521 24.7326L37.7407 14.9326H47.521V24.7326Z" fill="#D9E8FF"></path><path d="M13.6265 28.8711L22.3376 28.8711" stroke="#B7D3FF" stroke-width="2" stroke-linecap="round"></path><path d="M13.6265 34.9688L42.3731 34.9687" stroke="#B7D3FF" stroke-width="2" stroke-linecap="round"></path><path d="M13.6265 41.0664L42.3731 41.0664" stroke="#B7D3FF" stroke-width="2" stroke-linecap="round"></path><path d="M13.6265 47.1641L42.3731 47.1641" stroke="#B7D3FF" stroke-width="2" stroke-linecap="round"></path><path d="M23.4265 21.0798C23.4265 21.3101 23.3471 21.5046 23.1883 21.6634C23.0295 21.8222 22.835 21.9016 22.6047 21.9016H13.5771C13.3469 21.9016 13.1524 21.8222 12.9936 21.6634C12.8348 21.5046 12.7554 21.3101 12.7554 21.0798C12.7554 20.5955 12.8348 20.135 12.9936 19.6983C13.1524 19.2616 13.3707 18.8686 13.6486 18.5192C13.9344 18.162 14.2679 17.8563 14.649 17.6022C15.0381 17.3561 15.4589 17.1774 15.9114 17.0663H15.9353L16.9476 21.1394L17.7098 17.9238L16.9476 16.5661H19.2343L18.472 17.8999L19.2343 21.1394L20.2466 17.0663C20.7071 17.1774 21.1319 17.3561 21.5209 17.6022C21.91 17.8563 22.2434 18.162 22.5213 18.5192C22.8072 18.8686 23.0295 19.2616 23.1883 19.6983C23.3471 20.135 23.4265 20.5955 23.4265 21.0798ZM15.042 12.7549C15.042 12.3341 15.1214 11.9371 15.2802 11.564C15.439 11.1987 15.6574 10.8772 15.9353 10.5993C16.2132 10.3214 16.5347 10.103 16.9 9.94425C17.2731 9.78545 17.6701 9.70605 18.0909 9.70605C18.5117 9.70605 18.9087 9.78545 19.2819 9.94425C19.6471 10.103 19.9687 10.3214 20.2466 10.5993C20.5245 10.8772 20.7428 11.1987 20.9016 11.564C21.0604 11.9371 21.1398 12.3341 21.1398 12.7549C21.1398 13.1758 21.0604 13.5727 20.9016 13.9459C20.7428 14.3111 20.5245 14.6327 20.2466 14.9106C19.9687 15.1885 19.6471 15.4068 19.2819 15.5656C18.9087 15.7244 18.5117 15.8038 18.0909 15.8038C17.6701 15.8038 17.2731 15.7244 16.9 15.5656C16.5347 15.4068 16.2132 15.1885 15.9353 14.9106C15.6574 14.6327 15.439 14.3111 15.2802 13.9459C15.1214 13.5727 15.042 13.1758 15.042 12.7549Z" fill="#2C95FF"></path></svg>