<svg width="291" height="265" viewBox="0 0 291 265" fill="none" xmlns="http://www.w3.org/2000/svg">
    <g clip-path="url(#clip0_236_11838)">
        <path d="M276.093 192.547H12.2107C5.70883 192.547 0.475586 187.315 0.475586 180.815V12.2076C0.475586 5.70741 5.70883 0.475586 12.2107 0.475586H276.093C282.595 0.475586 287.828 5.70741 287.828 12.2076V180.894C287.828 187.315 282.595 192.547 276.093 192.547Z" fill="white"/>
        <path d="M45 84L75 114" stroke="#407BFF" stroke-width="6"/>
        <path d="M291 131.35H290.207V124.216H291V131.35ZM291 118.588H290.207V103.844H291V118.588Z" fill="#407BFF"/>
        <path d="M276.093 193.023H12.2109C5.47112 193.023 0 187.553 0 180.815V12.2076C0 5.46964 5.47112 0 12.2109 0H276.093C282.833 0 288.304 5.46964 288.304 12.2076V180.894C288.225 187.553 282.754 193.023 276.093 193.023ZM12.2109 0.871971C5.94687 0.871971 0.872207 5.94526 0.872207 12.2076V180.894C0.872207 187.157 5.94687 192.23 12.2109 192.23H276.093C282.357 192.23 287.432 187.157 287.432 180.894V12.2076C287.432 5.94526 282.357 0.871971 276.093 0.871971H12.2109Z" fill="#407BFF"/>
        <path opacity="0.5" d="M96.4187 152.833H92.4541V151.961H96.4187V152.833ZM88.4102 152.833H84.4457V151.961H88.4102V152.833ZM80.4018 152.833H76.4372V151.961H80.4018V152.833ZM72.3934 152.833H68.4288V151.961H72.3934V152.833ZM64.3849 152.833H60.4203V151.961H64.3849V152.833ZM56.3765 152.833H52.4119V151.961H56.3765V152.833ZM48.4473 152.833H44.4827V151.961H48.4473V152.833ZM40.4389 152.833H36.4743V151.961H40.4389V152.833ZM32.4304 152.833H28.4658V151.961H32.4304V152.833ZM24.422 152.833H22.9154C21.9639 152.833 21.0917 152.595 20.2988 152.199L20.6953 151.406C21.4089 151.723 22.1225 151.961 22.9154 151.961H24.422V152.833ZM100.383 151.247L99.8282 150.613C100.7 149.741 101.335 148.632 101.414 147.363L102.286 147.443C102.128 148.949 101.414 150.296 100.383 151.247ZM17.4443 149.107C17.2064 148.473 17.0479 147.76 17.0479 147.046V145.064H17.9201V147.046C17.9201 147.68 17.9994 148.235 18.2372 148.869L17.4443 149.107ZM102.207 143.479H101.335V139.516H102.207V143.479ZM17.9201 141.022H17.0479V137.058H17.9201V141.022ZM102.207 135.473H101.335V131.509H102.207V135.473ZM17.9201 133.015H17.0479V129.052H17.9201V133.015ZM102.207 127.466H101.335V123.503H102.207V127.466ZM17.9201 125.009H17.0479V121.046H17.9201V125.009ZM102.207 119.46H101.335V115.497H102.207V119.46ZM17.9201 117.003H17.0479V113.039H17.9201V117.003ZM102.207 111.454H101.335V107.49H102.207V111.454ZM17.9201 109.076H17.0479V105.112H17.9201V109.076ZM102.207 103.448H101.335V99.4841H102.207V103.448ZM17.9201 101.069H17.0479V97.106H17.9201V101.069ZM102.207 95.5206H101.335V91.5571H102.207V95.5206ZM17.9201 93.0632H17.0479V89.0997H17.9201V93.0632ZM102.207 87.5143H101.335V83.5508H102.207V87.5143ZM17.9201 85.0569H17.0479V81.0934H17.9201V85.0569ZM102.207 79.508H101.335V75.5445H102.207V79.508ZM17.9201 77.0506H17.0479V73.0871H17.9201V77.0506ZM102.207 71.5017H101.335V67.5382H102.207V71.5017ZM17.9201 69.0444H17.0479V65.0809H17.9201V69.0444ZM102.207 63.4955H101.335V59.5319H102.207V63.4955ZM17.9201 61.0381H17.0479V57.0746H17.9201V61.0381ZM102.207 55.4892H101.335V53.5074C101.335 52.8733 101.255 52.2391 101.018 51.6842L101.811 51.3671C102.048 52.0806 102.207 52.794 102.207 53.5074V55.4892ZM17.9994 53.1111L17.1271 53.0318C17.2857 51.6049 17.9201 50.2573 18.9508 49.2268L19.5059 49.861C18.6337 50.733 18.0786 51.8427 17.9994 53.1111ZM98.5596 49.0683C97.8459 48.7512 97.1323 48.5927 96.3394 48.5927H94.8329V47.7207H96.3394C97.2116 47.7207 98.0838 47.9585 98.956 48.3549L98.5596 49.0683ZM90.8683 48.5927H86.9037V47.7207H90.8683V48.5927ZM82.8598 48.5927H78.8953V47.7207H82.8598V48.5927ZM74.8514 48.5927H70.8868V47.7207H74.8514V48.5927ZM66.8429 48.5927H62.8784V47.7207H66.8429V48.5927ZM58.9138 48.5927H54.9492V47.7207H58.9138V48.5927ZM50.9053 48.5927H46.9408V47.7207H50.9053V48.5927ZM42.8969 48.5927H38.9323V47.7207H42.8969V48.5927ZM34.8885 48.5927H30.9239V47.7207H34.8885V48.5927ZM26.88 48.5927H22.9154V47.7207H26.88V48.5927Z" fill="#407BFF"/>
        <path d="M23.153 12.763C23.153 14.824 21.4879 16.5679 19.347 16.5679C17.2061 16.5679 15.541 14.9033 15.541 12.763C15.541 10.6227 17.2061 8.95801 19.347 8.95801C21.4879 8.95801 23.153 10.702 23.153 12.763Z" fill="#407BFF"/>
        <path opacity="0.2" d="M47.9717 14.9821H29.4174C28.2281 14.9821 27.1973 13.9516 27.1973 12.7625C27.1973 11.5735 28.2281 10.543 29.4174 10.543H47.9717C49.161 10.543 50.1918 11.5735 50.1918 12.7625C50.1918 14.0309 49.2403 14.9821 47.9717 14.9821Z" fill="#407BFF"/>
        <path opacity="0.2" d="M137.492 14.0304H124.488C123.854 14.0304 123.299 13.4756 123.299 12.8414C123.299 12.2072 123.854 11.6523 124.488 11.6523H137.492C138.126 11.6523 138.681 12.2072 138.681 12.8414C138.761 13.4756 138.206 14.0304 137.492 14.0304Z" fill="#407BFF"/>
        <path opacity="0.2" d="M166.75 14.0304H153.746C153.112 14.0304 152.557 13.4756 152.557 12.8414C152.557 12.2072 153.112 11.6523 153.746 11.6523H166.75C167.384 11.6523 167.939 12.2072 167.939 12.8414C167.939 13.4756 167.384 14.0304 166.75 14.0304Z" fill="#407BFF"/>
        <path opacity="0.2" d="M196.01 14.0304H183.006C182.371 14.0304 181.816 13.4756 181.816 12.8414C181.816 12.2072 182.371 11.6523 183.006 11.6523H196.01C196.644 11.6523 197.199 12.2072 197.199 12.8414C197.199 13.4756 196.644 14.0304 196.01 14.0304Z" fill="#407BFF"/>
        <path opacity="0.2" d="M225.187 14.0304H212.184C211.549 14.0304 210.994 13.4756 210.994 12.8414C210.994 12.2072 211.549 11.6523 212.184 11.6523H225.187C225.822 11.6523 226.377 12.2072 226.377 12.8414C226.456 13.4756 225.901 14.0304 225.187 14.0304Z" fill="#407BFF"/>
        <path opacity="0.7" d="M262.613 14.9027H242.869C241.68 14.9027 240.729 13.9514 240.729 12.7624C240.729 11.5733 241.68 10.6221 242.869 10.6221H262.613C263.802 10.6221 264.754 11.5733 264.754 12.7624C264.754 13.9514 263.802 14.9027 262.613 14.9027Z" fill="#407BFF"/>
        <path opacity="0.7" d="M164.768 159.809H127.818C125.28 159.809 123.219 157.748 123.219 155.211V154.181C123.219 151.644 125.28 149.583 127.818 149.583H164.768C167.305 149.583 169.366 151.644 169.366 154.181V155.211C169.287 157.748 167.305 159.809 164.768 159.809Z" fill="#407BFF"/>
        <path opacity="0.2" d="M262.375 104.478V65.9527C262.375 65.3186 262.93 64.7637 263.564 64.7637C264.199 64.7637 264.754 65.3186 264.754 65.9527V104.478C264.754 105.112 264.199 105.667 263.564 105.667C262.851 105.667 262.375 105.112 262.375 104.478Z" fill="#407BFF"/>
        <path opacity="0.2" d="M263.564 116.606C264.221 116.606 264.754 116.074 264.754 115.417C264.754 114.761 264.221 114.228 263.564 114.228C262.908 114.228 262.375 114.761 262.375 115.417C262.375 116.074 262.908 116.606 263.564 116.606Z" fill="#407BFF"/>
        <path opacity="0.2" d="M263.564 133.808C264.221 133.808 264.754 133.276 264.754 132.619C264.754 131.962 264.221 131.43 263.564 131.43C262.908 131.43 262.375 131.962 262.375 132.619C262.375 133.276 262.908 133.808 263.564 133.808Z" fill="#407BFF"/>
        <path opacity="0.2" d="M263.564 150.93C264.221 150.93 264.754 150.398 264.754 149.741C264.754 149.085 264.221 148.552 263.564 148.552C262.908 148.552 262.375 149.085 262.375 149.741C262.375 150.398 262.908 150.93 263.564 150.93Z" fill="#407BFF"/>
        <path opacity="0.2" d="M226.932 67.6176H132.972C127.58 67.6176 123.219 63.2578 123.219 57.8674C123.219 52.477 127.58 48.1172 132.972 48.1172H226.932C232.324 48.1172 236.685 52.477 236.685 57.8674C236.685 63.2578 232.324 67.6176 226.932 67.6176Z" fill="#407BFF"/>
        <path opacity="0.2" d="M192.44 95.8374H132.972C127.58 95.8374 123.219 91.4775 123.219 86.0871C123.219 80.6968 127.58 76.3369 132.972 76.3369H192.44C197.832 76.3369 202.193 80.6968 202.193 86.0871C202.193 91.4775 197.832 95.8374 192.44 95.8374Z" fill="#407BFF"/>
        <path d="M209.964 118.588H125.518C124.25 118.588 123.219 117.557 123.219 116.289C123.219 115.021 124.25 113.99 125.518 113.99H209.964C211.232 113.99 212.263 115.021 212.263 116.289C212.263 117.557 211.232 118.588 209.964 118.588Z" fill="#EBEBEB"/>
        <path d="M229.786 118.588H221.143C219.875 118.588 218.844 117.557 218.844 116.289C218.844 115.021 219.875 113.99 221.143 113.99H229.786C231.055 113.99 232.085 115.021 232.085 116.289C232.085 117.557 231.055 118.588 229.786 118.588Z" fill="#EBEBEB"/>
        <path d="M162.706 123.503H199.021C200.29 123.503 201.321 124.533 201.321 125.802C201.321 127.07 200.29 128.101 199.021 128.101H162.706C161.437 128.101 160.406 127.07 160.406 125.802C160.486 124.533 161.516 123.503 162.706 123.503Z" fill="#EBEBEB"/>
        <path d="M125.518 123.503H151.526C152.795 123.503 153.825 124.533 153.825 125.802C153.825 127.07 152.795 128.101 151.526 128.101H125.518C124.25 128.101 123.219 127.07 123.219 125.802C123.298 124.533 124.329 123.503 125.518 123.503Z" fill="#EBEBEB"/>
        <path d="M176.661 137.454H125.518C124.25 137.454 123.219 136.424 123.219 135.155C123.219 133.887 124.25 132.856 125.518 132.856H176.661C177.93 132.856 178.961 133.887 178.961 135.155C178.961 136.424 177.93 137.454 176.661 137.454Z" fill="#EBEBEB"/>
        <path d="M213.85 137.454H187.842C186.574 137.454 185.543 136.424 185.543 135.155C185.543 133.887 186.574 132.856 187.842 132.856H213.85C215.119 132.856 216.15 133.887 216.15 135.155C216.15 136.424 215.119 137.454 213.85 137.454Z" fill="#EBEBEB"/>
        <path d="M112.198 144.351C112.198 144.351 122.505 180.26 126.708 197.937C131.148 216.487 144.231 244.469 145.341 256.756C146.451 257.231 150.178 256.677 152.081 255.725C152.081 255.725 150.257 216.566 139.632 198.73C142.011 154.814 130.117 144.351 130.117 144.351H112.198Z" fill="#407BFF"/>
        <path opacity="0.1" d="M125.598 162.424L119.809 171.382C121.633 178.12 123.536 185.175 125.122 191.199C126.708 180.736 125.598 162.424 125.598 162.424Z" fill="black"/>
        <path d="M133.606 113.436C133.765 113.911 133.923 114.307 134.003 114.704C134.161 115.1 134.24 115.497 134.32 115.893C134.558 116.686 134.716 117.478 134.875 118.271C135.192 119.856 135.43 121.442 135.588 123.027C135.747 124.613 135.826 126.277 135.826 127.863C135.826 129.527 135.668 131.113 135.43 132.777V133.015C135.43 133.174 135.35 133.412 135.271 133.57C134.875 134.601 134.32 135.473 133.685 136.186C133.051 136.899 132.417 137.375 131.782 137.851C130.514 138.723 129.166 139.198 127.976 139.674C126.708 140.07 125.518 140.308 124.25 140.467C122.981 140.625 121.871 140.704 120.523 140.704C119.334 140.704 118.382 139.674 118.382 138.485C118.382 137.613 118.937 136.899 119.651 136.582L119.809 136.503C120.682 136.107 121.712 135.631 122.664 135.235C123.615 134.759 124.488 134.284 125.28 133.808C126.073 133.332 126.787 132.777 127.263 132.223C127.738 131.747 127.897 131.271 127.818 131.192L127.659 131.985C127.659 130.637 127.659 129.369 127.58 128.021C127.501 126.674 127.342 125.326 127.104 123.978C126.866 122.631 126.628 121.283 126.391 119.936C126.232 119.302 126.073 118.588 125.915 117.954L125.677 117.003L125.439 116.131L125.36 115.893C124.725 113.594 126.073 111.216 128.373 110.661C130.593 110.106 132.813 111.295 133.606 113.436Z" fill="#FF8B7B"/>
        <path d="M123.14 136.582L117.986 135.076C117.272 134.838 116.479 134.918 115.766 135.235L113.863 136.107C112.911 136.503 112.515 137.692 112.99 138.643L113.863 140.546C114.259 141.339 115.131 141.735 115.924 141.576L119.413 140.784C119.413 140.784 123.298 141.022 124.726 138.723L123.14 136.582Z" fill="#FF8B7B"/>
        <path d="M127.897 106.143C125.122 108.996 123.615 113.356 125.915 121.68C128.849 123.186 136.064 121.204 136.064 121.204C136.064 121.204 136.064 108.759 127.897 106.143Z" fill="#407BFF"/>
        <path opacity="0.7" d="M127.897 106.143C125.122 108.996 123.615 113.356 125.915 121.68C128.849 123.186 136.064 121.204 136.064 121.204C136.064 121.204 136.064 108.759 127.897 106.143Z" fill="white"/>
        <path d="M132.892 111.929C132.734 111.929 132.655 112.088 132.655 112.167C132.655 112.326 132.813 112.405 132.892 112.405L134.161 112.326C134.082 112.167 134.002 112.009 133.923 111.85L132.892 111.929Z" fill="#263238"/>
        <path d="M132.575 117.082C132.496 117.003 132.337 117.003 132.179 117.082C132.1 117.161 132.1 117.32 132.179 117.478L135.906 120.649C135.906 120.491 135.906 120.173 135.826 119.936L132.575 117.082Z" fill="#263238"/>
        <path d="M125.043 117.954L129.245 115.338C129.404 115.259 129.404 115.1 129.324 114.942C129.245 114.783 129.086 114.783 128.928 114.862L124.884 117.399C124.963 117.637 125.043 117.795 125.043 117.954Z" fill="#407BFF"/>
        <path d="M120.761 93.7765C120.206 97.4229 119.889 104.002 122.426 106.063C122.426 106.063 119.016 105.984 112.514 111.216C110.136 108.521 111.484 107.411 111.484 107.411C115.369 105.984 115.131 103.051 114.338 100.356L120.761 93.7765Z" fill="#FF8B7B"/>
        <path d="M110.453 89.3373C110.294 89.813 109.977 90.13 109.66 90.13C109.343 90.0508 109.184 89.6544 109.343 89.1788C109.502 88.7032 109.819 88.3861 110.136 88.3861C110.453 88.3861 110.612 88.8617 110.453 89.3373Z" fill="#263238"/>
        <path d="M110.294 88.3862L109.264 87.8313C109.184 87.8313 109.581 88.8618 110.294 88.3862Z" fill="#263238"/>
        <path d="M110.294 90.2094C110.294 90.2094 108.947 92.1118 107.836 92.9045C108.312 93.618 109.422 93.5387 109.422 93.5387L110.294 90.2094Z" fill="#FF5652"/>
        <path d="M110.057 85.3739C110.057 85.2946 110.057 85.2153 110.057 85.1361C110.136 84.9775 110.295 84.8982 110.453 84.9775C111.96 85.5324 112.356 86.8007 112.356 86.88C112.356 87.0385 112.277 87.1971 112.118 87.1971C111.96 87.1971 111.801 87.1178 111.801 86.9593C111.801 86.88 111.484 85.9288 110.295 85.4531C110.136 85.5324 110.136 85.4531 110.057 85.3739Z" fill="#263238"/>
        <path d="M126.391 90.3679C124.726 95.996 124.171 98.3741 120.602 100.752C115.29 104.319 108.788 101.466 108.709 95.5997C108.709 90.2886 111.405 82.0445 117.51 80.7762C123.457 79.5079 128.056 84.7397 126.391 90.3679Z" fill="#FF8B7B"/>
        <path d="M113.466 90.685C110.136 88.3069 111.801 84.0263 114.814 83.8678C110.85 81.0933 112.911 76.0993 117.748 76.2578C122.585 76.4164 123.298 79.4286 123.298 79.4286C123.298 79.4286 131.148 79.825 132.179 85.5324C133.448 92.1911 129.404 96.4717 124.329 98.4535C127.739 101.228 119.651 103.21 115.686 100.99C111.642 98.6913 110.215 93.6973 113.466 90.685Z" fill="#263238"/>
        <path d="M131.862 83.1544C127.58 82.3617 125.439 88.2276 128.214 91.7155C128.69 92.3497 129.166 92.746 129.642 93.0631C131.386 94.2522 133.765 93.0631 133.923 90.9228C134.161 88.1484 134.161 83.63 131.862 83.1544Z" fill="white"/>
        <path d="M143.438 86.2459C143.755 86.0081 143.993 85.691 143.993 85.3739C144.152 83.7093 142.883 82.5995 141.377 82.3617C140.504 79.4287 136.619 79.4287 134.478 81.4897C132.734 80.6177 130.752 82.5995 130.989 84.6605C129.086 85.5325 128.611 88.624 130.355 90.3679C130.752 90.7643 131.069 91.0021 131.386 91.1606C131.465 91.2399 131.545 91.2399 131.624 91.2399C131.782 92.429 132.734 93.618 134.161 93.9351C134.558 94.0144 134.954 94.0144 135.192 94.0144C135.747 93.9351 136.143 93.618 136.381 93.1424C137.65 94.1729 138.919 94.8071 139.87 94.1729C140.822 93.4595 141.218 92.5082 141.218 91.4777C141.852 91.7155 142.487 91.7948 142.963 91.3985C144.786 90.1301 144.628 87.8313 143.438 86.2459Z" fill="#263238"/>
        <path d="M115.29 91.557C114.576 92.6667 113.545 93.3009 112.673 93.4594C111.325 93.6972 110.849 92.1118 111.484 90.6057C112.039 89.2581 113.307 87.5142 114.576 87.9898C115.765 88.4654 116.083 90.2886 115.29 91.557Z" fill="#FF8B7B"/>
        <path d="M113.466 87.3556C114.655 85.136 120.999 79.0323 125.281 79.2701C126.391 79.5871 127.263 79.9835 127.818 80.3006C127.976 80.3798 127.897 80.6177 127.739 80.6177C126.073 80.7762 120.682 82.0445 115.607 90.0508C114.418 89.2581 113.466 87.3556 113.466 87.3556Z" fill="#407BFF"/>
        <path d="M116.003 91.9532C114.973 94.2521 112.911 95.5204 111.404 94.8862C109.898 94.1728 109.501 91.7947 110.532 89.4958C111.563 87.197 113.625 85.9287 115.131 86.5629C116.638 87.2763 117.034 89.6544 116.003 91.9532Z" fill="white"/>
        <path d="M114.735 91.3191C113.783 93.3801 112.039 94.5692 110.77 94.0143C109.502 93.4594 109.264 91.3191 110.136 89.2581C111.087 87.1971 112.832 86.008 114.1 86.5629C115.369 87.1971 115.686 89.3374 114.735 91.3191Z" fill="#407BFF"/>
        <path d="M141.932 265C146.372 264.366 146.451 263.573 148.83 262.78C150.892 262.067 151.447 262.146 153.112 261.591C154.46 261.116 153.984 259.847 153.112 258.421C152.636 257.707 152.557 257.073 152.081 255.805L145.341 256.835C144.707 258.738 144.469 261.116 140.584 262.543C138.284 263.335 140.187 265.238 141.932 265Z" fill="#263238"/>
        <path d="M100.7 265C105.14 265 106.013 264.683 108.471 264.604C110.612 264.524 110.929 265 113.149 265C114.576 265 114.814 263.415 114.259 262.146C113.863 261.195 113.783 260.085 113.466 258.817H107.361C106.251 260.719 103.237 262.146 99.9072 262.384C97.4492 262.701 98.9557 265 100.7 265Z" fill="#263238"/>
        <path d="M105.854 144.351C105.854 144.351 104.982 176.217 106.885 196.431C106.806 215.377 107.361 258.896 107.361 258.896C107.519 259.847 112.594 259.451 113.466 258.896C113.466 258.896 122.981 227.267 118.779 196.431C129.404 164.327 127.104 144.351 127.104 144.351H105.854Z" fill="#407BFF"/>
        <path d="M144.469 254.378C144.548 255.012 144.628 256.042 144.628 256.914C144.628 257.231 144.865 257.469 145.183 257.469C147.72 257.469 151.209 256.359 152.319 256.042C152.557 255.963 152.636 255.805 152.636 255.567V253.189C152.636 252.872 152.319 252.634 152.002 252.634L144.865 253.823C144.628 253.823 144.469 254.061 144.469 254.378Z" fill="#407BFF"/>
        <path opacity="0.5" d="M144.469 254.378C144.548 255.012 144.628 256.042 144.628 256.914C144.628 257.231 144.865 257.469 145.183 257.469C147.72 257.469 151.209 256.359 152.319 256.042C152.557 255.963 152.636 255.805 152.636 255.567V253.189C152.636 252.872 152.319 252.634 152.002 252.634L144.865 253.823C144.628 253.823 144.469 254.061 144.469 254.378Z" fill="white"/>
        <path d="M106.647 256.201C106.647 256.835 106.568 258.024 106.568 258.896C106.568 259.213 106.726 259.451 107.043 259.451C109.184 259.768 112.673 259.451 113.783 259.372C114.021 259.372 114.18 259.213 114.259 258.975L114.735 256.597C114.814 256.28 114.576 255.963 114.18 255.963L107.202 255.725C106.885 255.725 106.647 255.963 106.647 256.201Z" fill="#407BFF"/>
        <path opacity="0.5" d="M106.647 256.201C106.647 256.835 106.568 258.024 106.568 258.896C106.568 259.213 106.726 259.451 107.043 259.451C109.184 259.768 112.673 259.451 113.783 259.372C114.021 259.372 114.18 259.213 114.259 258.975L114.735 256.597C114.814 256.28 114.576 255.963 114.18 255.963L107.202 255.725C106.885 255.725 106.647 255.963 106.647 256.201Z" fill="white"/>
        <path d="M101.81 117.716C102.048 120.094 102.286 123.107 103.317 128.735C104.11 133.491 104.665 138.168 105.775 146.016C116.717 147.125 129.562 146.253 130.117 144.43C129.245 137.613 129.245 128.418 131.703 112.643C132.258 108.996 129.642 105.826 125.994 105.905C125.043 105.905 124.012 105.984 122.981 106.063C118.937 106.381 115.607 106.618 112.039 107.411C110.85 107.649 109.66 107.966 108.471 108.283C104.348 109.314 101.414 113.436 101.81 117.716Z" fill="#407BFF"/>
        <path opacity="0.8" d="M101.81 117.716C102.048 120.094 102.286 123.107 103.317 128.735C104.11 133.491 104.665 138.168 105.775 146.016C116.717 147.125 129.562 146.253 130.117 144.43C129.245 137.613 129.245 128.418 131.703 112.643C132.258 108.996 129.642 105.826 125.994 105.905C125.043 105.905 124.012 105.984 122.981 106.063C118.937 106.381 115.607 106.618 112.039 107.411C110.85 107.649 109.66 107.966 108.471 108.283C104.348 109.314 101.414 113.436 101.81 117.716Z" fill="white"/>
        <path d="M103.792 111.375L105.061 112.96C105.14 113.039 105.22 113.039 105.299 113.039C105.378 113.039 105.378 113.039 105.458 112.96C105.537 112.881 105.616 112.722 105.537 112.564L104.189 110.899C104.03 111.057 103.872 111.216 103.792 111.375Z" fill="#263238"/>
        <path d="M109.581 110.423C109.739 110.423 109.819 110.344 109.819 110.185L109.977 107.807C109.819 107.887 109.66 107.887 109.422 107.966L109.264 110.185C109.343 110.265 109.422 110.423 109.581 110.423Z" fill="#407BFF"/>
        <path d="M120.999 112.484C121.078 112.484 121.078 112.564 121.157 112.564C121.237 112.564 121.316 112.484 121.395 112.484C121.474 112.326 121.474 112.167 121.316 112.088L114.655 107.649C114.497 107.57 114.338 107.57 114.259 107.728C114.18 107.887 114.18 108.045 114.338 108.124L120.999 112.484Z" fill="#407BFF"/>
        <path d="M109.66 113.99C109.581 114.149 109.66 114.307 109.819 114.307L117.272 117.24H117.351C117.431 117.24 117.589 117.161 117.589 117.082C117.668 116.923 117.589 116.765 117.431 116.765L109.977 113.832C109.819 113.753 109.66 113.832 109.66 113.99Z" fill="#263238"/>
        <path d="M105.299 127.229C105.378 127.229 105.378 127.308 105.457 127.308C105.537 127.308 105.616 127.229 105.695 127.149L110.056 120.411C110.136 120.253 110.136 120.094 109.977 120.015C109.819 119.936 109.66 119.936 109.581 120.094L105.22 126.832C105.14 126.991 105.22 127.149 105.299 127.229Z" fill="#407BFF"/>
        <path d="M103.237 121.363C103.317 121.442 103.317 121.442 103.396 121.442C103.475 121.442 103.555 121.442 103.555 121.363C103.634 121.283 103.634 121.125 103.555 120.966L101.969 119.539C101.969 119.777 102.048 120.094 102.048 120.332L103.237 121.363Z" fill="#407BFF"/>
        <path d="M126.708 125.802C126.549 125.881 126.47 126.04 126.549 126.119C126.549 126.198 126.708 126.277 126.787 126.277H126.866L130.197 125.088C130.197 124.93 130.197 124.692 130.276 124.533L126.708 125.802Z" fill="#407BFF"/>
        <path d="M125.28 120.411C125.36 120.411 125.36 120.411 125.439 120.332L131.148 116.765C131.148 116.527 131.227 116.289 131.227 116.131L125.122 119.936C124.963 120.015 124.963 120.174 125.043 120.332C125.122 120.411 125.201 120.411 125.28 120.411Z" fill="#407BFF"/>
        <path d="M121.395 121.442C121.316 121.283 121.157 121.283 120.999 121.363L114.259 125.643C114.1 125.722 114.1 125.881 114.18 126.04C114.259 126.119 114.338 126.198 114.417 126.198C114.497 126.198 114.497 126.198 114.576 126.119L121.316 121.838C121.474 121.759 121.474 121.6 121.395 121.442Z" fill="#407BFF"/>
        <path d="M127.104 112.405H127.183C127.342 112.326 127.421 112.167 127.342 112.088L124.963 105.905C124.805 105.905 124.567 105.905 124.408 105.905L126.787 112.247C126.946 112.405 127.025 112.405 127.104 112.405Z" fill="#263238"/>
        <path d="M120.444 144.906C120.285 144.827 120.126 144.827 120.047 144.985C119.968 145.144 119.968 145.302 120.126 145.381L121.633 146.333C121.95 146.333 122.188 146.333 122.505 146.253L120.444 144.906Z" fill="#407BFF"/>
        <path d="M129.959 142.448L124.17 140.229C124.012 140.15 123.853 140.229 123.853 140.387C123.774 140.546 123.853 140.704 124.012 140.704L130.038 143.083C130.038 142.845 129.959 142.686 129.959 142.448Z" fill="#407BFF"/>
        <path d="M105.537 144.192C105.537 144.351 105.616 144.509 105.616 144.668C105.695 144.589 105.775 144.509 105.775 144.43C105.775 144.272 105.695 144.192 105.537 144.192Z" fill="#263238"/>
        <path d="M105.458 136.186C105.537 136.186 105.616 136.186 105.696 136.107C105.775 136.027 105.775 135.869 105.696 135.71L104.268 134.521C104.268 134.759 104.348 134.997 104.348 135.314L105.378 136.186H105.458Z" fill="#407BFF"/>
        <path d="M117.668 133.57C117.748 133.57 117.906 133.491 117.906 133.412C117.986 133.253 117.906 133.095 117.748 133.095L110.294 130.162C110.136 130.082 109.977 130.162 109.977 130.32C109.898 130.479 109.977 130.637 110.136 130.637L117.589 133.57H117.668Z" fill="#263238"/>
        <path d="M115.924 137.058L109.184 141.339C109.026 141.418 109.026 141.576 109.105 141.735C109.184 141.814 109.264 141.894 109.343 141.894C109.422 141.894 109.422 141.894 109.502 141.814L116.241 137.534C116.4 137.454 116.4 137.296 116.321 137.137C116.241 136.979 116.083 136.979 115.924 137.058Z" fill="#407BFF"/>
        <path d="M122.188 134.997C122.267 135.076 122.347 135.156 122.426 135.156C122.505 135.156 122.505 135.156 122.585 135.076L129.324 130.796C129.483 130.716 129.483 130.558 129.404 130.399C129.324 130.241 129.166 130.241 129.007 130.32L122.267 134.601C122.188 134.759 122.109 134.918 122.188 134.997Z" fill="#263238"/>
        <path d="M114.497 145.144C114.418 144.985 114.259 144.906 114.18 144.985C114.021 145.064 113.942 145.223 114.021 145.302L114.418 146.491C114.576 146.491 114.814 146.491 114.973 146.491L114.497 145.144Z" fill="#263238"/>
        <path d="M109.026 117.875C108.946 118.43 108.946 118.747 108.867 119.143C108.788 119.539 108.709 119.936 108.629 120.332C108.471 121.125 108.312 121.917 108.154 122.71C107.757 124.296 107.281 125.802 106.726 127.308C106.171 128.814 105.537 130.32 104.823 131.747C104.11 133.253 103.238 134.601 102.365 136.028L102.207 136.265C102.127 136.424 101.969 136.582 101.89 136.662C100.462 138.009 99.1143 138.961 97.7664 139.912C96.4184 140.863 95.0705 141.735 93.7225 142.528C92.3746 143.32 90.9473 144.192 89.5994 144.906C88.1721 145.619 86.8241 146.412 85.3176 147.125C84.2075 147.601 82.9389 147.125 82.4631 146.095C82.0667 145.223 82.3045 144.272 82.9389 143.637C84.0489 142.528 85.2383 141.497 86.4277 140.467L89.9165 137.375C91.1059 136.345 92.216 135.314 93.3261 134.284C93.8811 133.808 94.4361 133.253 94.9119 132.777L95.6255 132.064C95.8634 131.826 96.022 131.588 96.2598 131.351L95.7841 131.985C96.3391 130.796 96.8942 129.607 97.4492 128.418C97.925 127.149 98.4007 125.881 98.7972 124.613C99.1936 123.344 99.5108 121.997 99.828 120.649C99.9865 120.015 100.145 119.302 100.304 118.667L100.621 116.765L100.7 116.527C101.176 114.228 103.396 112.643 105.696 113.118C107.757 113.594 109.264 115.655 109.026 117.875Z" fill="#FF8B7B"/>
        <path d="M84.8419 143.558L80.4015 142.211C79.6879 141.973 78.895 142.052 78.1814 142.369L76.1991 143.241C75.2476 143.637 74.8511 144.826 75.2476 145.698L76.1198 147.601C76.5162 148.394 77.3092 148.79 78.1814 148.631L81.6702 147.918C81.6702 147.918 83.4146 148.077 85.0004 147.442C86.2691 146.967 86.6656 145.461 85.9519 144.351C85.7141 143.954 85.3176 143.637 84.8419 143.558Z" fill="#FF8B7B"/>
        <path d="M107.044 108.838C103.317 110.265 100.066 113.515 98.5593 121.997C100.621 124.613 107.916 125.96 107.916 125.96C107.916 125.96 113.308 114.783 107.044 108.838Z" fill="#407BFF"/>
        <path opacity="0.8" d="M107.044 108.838C103.317 110.265 100.066 113.515 98.5593 121.997C100.621 124.613 107.916 125.96 107.916 125.96C107.916 125.96 113.308 114.783 107.044 108.838Z" fill="white"/>
        <path d="M105.061 112.96C105.141 113.039 105.22 113.039 105.299 113.039C105.378 113.039 105.378 113.039 105.458 112.96C105.537 112.881 105.616 112.722 105.537 112.564L103.951 110.582C103.793 110.661 103.713 110.82 103.555 110.899L105.061 112.96Z" fill="#263238"/>
        <path d="M109.66 113.99C109.581 114.149 109.66 114.307 109.819 114.307H109.898C109.898 114.149 109.819 113.99 109.819 113.753C109.739 113.911 109.66 113.911 109.66 113.99Z" fill="#263238"/>
        <path d="M106.647 125.643L109.422 121.283C109.502 120.887 109.581 120.491 109.66 120.015C109.581 120.015 109.581 120.094 109.502 120.094L106.013 125.485C106.33 125.564 106.488 125.643 106.647 125.643Z" fill="#407BFF"/>
        <path d="M103.237 121.362C103.317 121.442 103.317 121.442 103.396 121.442C103.475 121.442 103.555 121.442 103.555 121.362C103.634 121.283 103.634 121.125 103.555 120.966L99.6693 117.32C99.59 117.478 99.5107 117.716 99.5107 117.875L103.237 121.362Z" fill="#407BFF"/>
        <path d="M210.757 194.925C209.647 190.645 210.995 188.98 212.581 187.315C214.166 185.571 213.929 182.718 213.929 182.718C213.929 182.718 216.387 187.553 215.673 193.261C214.959 198.968 211.55 198.096 210.757 194.925Z" fill="#263238"/>
        <path d="M217.497 229.566C215.831 226.792 208.854 221.005 203.541 223.304C207.744 225.048 212.501 235.749 218.765 235.353C217.734 230.438 217.497 229.566 217.497 229.566Z" fill="#263238"/>
        <path d="M222.492 253.347C222.175 253.347 221.858 253.11 221.778 252.792C220.748 248.591 211.708 211.017 208.14 184.382C208.061 183.986 208.378 183.59 208.774 183.51C209.171 183.431 209.567 183.748 209.647 184.145C213.215 210.779 222.254 248.274 223.285 252.475C223.364 252.872 223.126 253.268 222.73 253.347C222.571 253.347 222.571 253.347 222.492 253.347Z" fill="#407BFF"/>
        <path d="M209.964 185.968C210.043 182.797 208.616 180.894 204.889 180.577C201.163 180.26 200.052 178.675 199.339 177.248C200.608 184.462 209.25 186.285 210.123 189.852C209.964 187.236 209.964 185.968 209.964 185.968Z" fill="#407BFF"/>
        <path d="M211.629 197.938C211.312 194.608 208.695 194.212 205.603 193.816C202.59 193.419 201.559 191.438 201.559 191.438C201.559 191.438 200.211 195.718 203.779 199.127C207.347 202.456 211.867 200.316 211.629 197.938Z" fill="#407BFF"/>
        <path d="M216.624 227.03C216.069 223.383 218.607 221.798 218.21 216.407C225.505 228.774 217.497 232.816 216.624 227.03Z" fill="#407BFF"/>
        <path d="M213.294 212.048C211.233 208.956 208.378 209.432 205.048 205.151C207.744 219.182 216.466 216.883 213.294 212.048Z" fill="#407BFF"/>
        <path d="M228.518 212.761C228.677 207.767 224.078 205.151 220.589 200.157C222.73 210.066 228.28 220.529 228.518 212.761Z" fill="#263238"/>
        <path d="M226.298 248.908C226.219 248.908 226.219 248.908 226.298 248.908C225.743 248.829 225.347 248.433 225.426 247.957C226.219 237.493 229.153 192.468 228.36 162.979C228.36 162.504 228.756 162.107 229.232 162.107C229.708 162.107 230.104 162.504 230.104 162.979C230.897 192.547 227.963 237.652 227.17 248.116C227.091 248.591 226.695 248.908 226.298 248.908Z" fill="#407BFF"/>
        <path d="M228.518 165.357C227.408 159.333 229.708 155.211 236.685 153.467C243.663 151.723 245.487 148.473 246.359 145.461C246.121 159.729 229.866 165.754 229.311 172.888C228.915 167.736 228.518 165.357 228.518 165.357Z" fill="#407BFF"/>
        <path d="M229.073 177.565C230.183 170.351 224.712 167.973 218.448 165.437C212.184 162.979 211.074 158.223 211.074 158.223C211.074 158.223 205.841 166.626 211.708 175.742C217.497 185.016 228.201 182.797 229.073 177.565Z" fill="#407BFF"/>
        <path d="M228.994 196.035C230.183 190.328 234.941 190.011 240.412 189.931C245.804 189.852 247.945 186.602 247.945 186.602C247.945 186.602 249.53 194.37 242.553 199.602C235.575 204.834 228.122 200.157 228.994 196.035Z" fill="#407BFF"/>
        <path d="M228.042 223.859C229.39 220.371 236.209 212.127 242.791 213.633C238.271 216.566 235.099 229.963 227.804 230.755C227.963 224.889 228.042 223.859 228.042 223.859Z" fill="#407BFF"/>
        <path d="M234.307 241.14H212.264C211.074 241.14 210.123 242.329 210.519 243.518L216.466 263.732C216.704 264.524 217.417 265.079 218.21 265.079H228.36C229.153 265.079 229.866 264.524 230.104 263.732L236.051 243.518C236.447 242.329 235.575 241.14 234.307 241.14Z" fill="#407BFF"/>
        <path opacity="0.2" d="M234.307 241.14H212.264C211.074 241.14 210.123 242.329 210.519 243.518L216.466 263.732C216.704 264.524 217.417 265.079 218.21 265.079H228.36C229.153 265.079 229.866 264.524 230.104 263.732L236.051 243.518C236.447 242.329 235.575 241.14 234.307 241.14Z" fill="#407BFF"/>
        <path opacity="0.7" d="M234.307 241.14H212.264C211.074 241.14 210.123 242.329 210.519 243.518L216.466 263.732C216.704 264.524 217.417 265.079 218.21 265.079H228.36C229.153 265.079 229.866 264.524 230.104 263.732L236.051 243.518C236.447 242.329 235.575 241.14 234.307 241.14Z" fill="white"/>
        <circle cx="60.5" cy="98.5" r="20.5" stroke="#407BFF" stroke-width="4"/>
    </g>
    <defs>
        <clipPath id="clip0_236_11838">
            <rect width="291" height="265" fill="white"/>
        </clipPath>
    </defs>
</svg>
