<svg viewBox="0 0 471 366" fill="none" xmlns="http://www.w3.org/2000/svg">
    <g clip-path="url(#clip0_652_5553)">
        <path d="M470.407 323.123H0V323.358H470.407V323.123Z" fill="#EBEBEB"/>
        <path d="M423.273 338.261H392.113V338.496H423.273V338.261Z" fill="#EBEBEB"/>
        <path d="M311.617 340.82H303.441V341.055H311.617V340.82Z" fill="#EBEBEB"/>
        <path d="M391.171 329.53H373.117V329.765H391.171V329.53Z" fill="#EBEBEB"/>
        <path d="M89.9893 331.11H49.3555V331.346H89.9893V331.11Z" fill="#EBEBEB"/>
        <path d="M104.326 331.11H98.3711V331.346H104.326V331.11Z" fill="#EBEBEB"/>
        <path d="M211.825 335.081H123.689V335.316H211.825V335.081Z" fill="#EBEBEB"/>
        <path d="M222.983 281.162H41.3115C38.3479 281.162 35.9395 278.754 35.9395 275.79V20.4251C35.9395 17.4615 38.3479 15.053 41.3115 15.053H222.983C225.946 15.053 228.355 17.4615 228.355 20.4251V275.79C228.355 278.754 225.946 281.162 222.983 281.162ZM41.3115 15.2882C38.4797 15.2882 36.1747 17.5932 36.1747 20.4251V275.79C36.1747 278.622 38.4797 280.927 41.3115 280.927H222.983C225.815 280.927 228.12 278.622 228.12 275.79V20.4251C228.12 17.5932 225.815 15.2882 222.983 15.2882H41.3115Z" fill="#EBEBEB"/>
        <path d="M426.481 281.162H244.81C241.846 281.162 239.438 278.754 239.438 275.79V20.4251C239.438 17.4615 241.846 15.053 244.81 15.053H426.481C429.444 15.053 431.853 17.4615 431.853 20.4251V275.79C431.853 278.754 429.444 281.162 426.481 281.162ZM244.81 15.2882C241.978 15.2882 239.673 17.5932 239.673 20.4251V275.79C239.673 278.622 241.978 280.927 244.81 280.927H426.481C429.313 280.927 431.618 278.622 431.618 275.79V20.4251C431.618 17.5932 429.313 15.2882 426.481 15.2882H244.81Z" fill="#EBEBEB"/>
        <path d="M76.9594 243.558L84.7117 244.988L85.8219 241.065C88.522 241.008 91.1281 240.425 93.5365 239.409L96.1614 242.551L102.653 238.083L100.659 234.507C102.465 232.626 103.942 230.396 104.958 227.894L109.022 228.251L110.452 220.499L106.529 219.389C106.473 216.688 105.889 214.082 104.873 211.674L108.006 209.049L103.537 202.557L99.9623 204.552C98.0807 202.746 95.851 201.268 93.3484 200.252L93.7059 196.188L85.9536 194.758L84.8434 198.681C82.1433 198.738 79.5372 199.321 77.1287 200.337L74.5039 197.204L68.0122 201.673L70.0068 205.248C68.2004 207.13 66.7233 209.36 65.7072 211.862L61.6429 211.505L60.2129 219.257L64.1361 220.367C64.1925 223.067 64.7758 225.673 65.7919 228.082L62.659 230.707L67.1279 237.198L70.703 235.204C72.594 237.01 74.8143 238.487 77.3169 239.503L76.9594 243.568V243.558ZM74.852 217.94C75.9245 212.144 81.4941 208.315 87.2895 209.388C93.085 210.46 96.9141 216.03 95.8509 221.825C94.7784 227.621 89.2088 231.45 83.4134 230.377C77.618 229.305 73.7888 223.735 74.8614 217.94H74.852Z" fill="#F0F0F0"/>
        <path d="M215.4 70.7963L221.271 71.8782L222.117 68.9147C224.159 68.8676 226.135 68.4255 227.951 67.6634L229.936 70.0342L234.847 66.6473L233.341 63.9472C234.706 62.5171 235.825 60.8331 236.597 58.942L239.673 59.2149L240.755 53.3536L237.791 52.5069C237.744 50.4653 237.302 48.4896 236.54 46.6738L238.911 44.6887L235.533 39.7776L232.833 41.283C231.403 39.9188 229.719 38.7992 227.828 38.0277L228.101 34.9513L222.23 33.8693L221.384 36.8423C219.342 36.8893 217.366 37.3315 215.551 38.0936L213.565 35.7227L208.654 39.1003L210.16 41.8004C208.796 43.2304 207.676 44.9145 206.905 46.8055L203.828 46.5327L202.746 52.4034L205.71 53.2501C205.757 55.2917 206.199 57.2674 206.961 59.0832L204.59 61.0683L207.968 65.9793L210.668 64.474C212.098 65.8382 213.782 66.9578 215.673 67.7292L215.4 70.8057V70.7963ZM213.801 51.4061C214.61 47.0219 218.825 44.1242 223.209 44.9333C227.593 45.7424 230.491 49.9573 229.682 54.3415C228.873 58.7257 224.658 61.6234 220.273 60.8143C215.889 60.0052 212.992 55.7903 213.801 51.4061Z" fill="#F0F0F0"/>
        <path d="M312.907 117.997L316.821 118.721L317.385 116.746C318.75 116.717 320.067 116.426 321.28 115.908L322.607 117.489L325.881 115.231L324.874 113.425C325.787 112.474 326.53 111.345 327.048 110.085L329.099 110.263L329.823 106.35L327.847 105.785C327.819 104.421 327.527 103.104 327.01 101.89L328.591 100.564L326.333 97.2897L324.526 98.2963C323.576 97.3837 322.447 96.6405 321.186 96.123L321.365 94.0721L317.451 93.3476L316.887 95.3233C315.523 95.3516 314.205 95.6432 312.992 96.1607L311.665 94.5801L308.391 96.8381L309.398 98.6444C308.485 99.5947 307.742 100.714 307.225 101.984L305.174 101.806L304.449 105.719L306.425 106.284C306.453 107.648 306.745 108.965 307.262 110.179L305.682 111.505L307.94 114.779L309.746 113.773C310.696 114.685 311.825 115.429 313.086 115.946L312.907 117.997ZM311.844 105.07C312.38 102.144 315.193 100.216 318.119 100.752C321.045 101.288 322.974 104.101 322.438 107.027C321.901 109.953 319.088 111.882 316.162 111.345C313.236 110.809 311.308 107.996 311.844 105.07Z" fill="#F0F0F0"/>
        <path d="M132.515 70.8528L136.428 71.5772L136.993 69.6015C138.357 69.5732 139.674 69.2816 140.888 68.7642L142.214 70.3447L145.488 68.0868L144.482 66.2804C145.394 65.3302 146.138 64.2012 146.655 62.9405L148.706 63.1193L149.43 59.2055L147.455 58.641C147.426 57.2768 147.135 55.9597 146.617 54.746L148.198 53.4195L145.94 50.1454L144.134 51.1521C143.183 50.2395 142.054 49.4963 140.794 48.9788L140.972 46.9278L137.059 46.2034L136.494 48.1791C135.13 48.2073 133.813 48.499 132.599 49.0164L131.273 47.4359L127.999 49.6938L129.005 51.5002C128.093 52.4504 127.35 53.57 126.832 54.8401L124.781 54.6613L124.057 58.5751L126.032 59.1396C126.061 60.5038 126.352 61.8209 126.87 63.0346L125.289 64.3611L127.547 67.6352L129.353 66.6285C130.304 67.5411 131.433 68.2843 132.693 68.8018L132.515 70.8528ZM131.451 57.926C131.988 55 134.801 53.0714 137.727 53.6076C140.653 54.1439 142.581 56.9569 142.045 59.8829C141.509 62.8088 138.696 64.7375 135.77 64.2012C132.844 63.6649 130.915 60.8519 131.451 57.926Z" fill="#F0F0F0"/>
        <path d="M306.443 279.422C306.49 281.802 307.008 284.098 307.901 286.215L305.135 288.529L309.068 294.249L312.21 292.499C313.875 294.089 315.832 295.388 318.034 296.291L317.714 299.866L324.544 301.127L325.523 297.674C327.903 297.627 330.199 297.109 332.315 296.216L334.63 298.982L340.35 295.049L338.6 291.907C340.19 290.241 341.488 288.284 342.392 286.083L345.967 286.403L347.227 279.572L343.775 278.594C343.727 276.214 343.21 273.918 342.316 271.801L345.082 269.487L341.15 263.767L338.007 265.517C336.342 263.927 334.385 262.628 332.184 261.725L332.504 258.15L325.673 256.889L324.695 260.342C322.315 260.389 320.019 260.907 317.902 261.8L315.588 259.035L309.868 262.967L311.617 266.109C310.028 267.775 308.729 269.732 307.826 271.933L304.251 271.613L302.99 278.444L306.443 279.422ZM315.861 277.286C316.801 272.178 321.703 268.81 326.812 269.75C331.92 270.691 335.288 275.593 334.348 280.701C333.407 285.81 328.505 289.178 323.397 288.237C318.288 287.297 314.92 282.395 315.861 277.286Z" fill="#F0F0F0"/>
        <path d="M365.535 238.91L355.026 242.758L365.535 246.578V250.52L350.51 244.809V240.707L365.535 234.997V238.91Z" fill="#E0E0E0"/>
        <path d="M376.843 227.226H381.227L370.812 256.955H366.428L376.843 227.226Z" fill="#E0E0E0"/>
        <path d="M396.835 240.707V244.809L381.811 250.52V246.578L392.319 242.758L381.811 238.91V234.997L396.835 240.707Z" fill="#E0E0E0"/>
        <path d="M104.375 289.122C105.88 289.583 106.567 290.533 106.567 292.791V298.041C106.567 299.584 107.357 300.468 108.957 300.468H109.55V304.466H107.649C103.547 304.466 101.449 302.368 101.449 298.596V292.659C101.449 291.615 100.894 291.116 100.01 291.116H98.9277V287.118H100.01C100.894 287.118 101.449 286.629 101.449 285.575V279.638C101.449 275.866 103.547 273.768 107.649 273.768H109.55V277.766H108.957C107.348 277.766 106.567 278.651 106.567 280.193V285.443C106.567 287.701 105.88 288.651 104.375 289.112V289.122Z" fill="#E0E0E0"/>
        <path d="M130.454 287.127V291.126H129.372C128.488 291.126 127.932 291.615 127.932 292.669V298.605C127.932 302.378 125.834 304.476 121.732 304.476H119.832V300.477H120.425C122.034 300.477 122.814 299.593 122.814 298.05V292.8C122.814 290.542 123.501 289.592 125.007 289.131C123.501 288.67 122.814 287.72 122.814 285.462V280.212C122.814 278.669 122.024 277.785 120.425 277.785H119.832V273.786H121.732C125.834 273.786 127.932 275.885 127.932 279.657V285.594C127.932 286.638 128.488 287.137 129.372 287.137H130.454V287.127Z" fill="#E0E0E0"/>
        <path d="M90.8746 98.1834C90.8746 91.7388 95.8233 87.1194 102.484 87.1194C106.182 87.1194 109.268 88.4648 111.281 90.9109L108.101 93.8463C106.662 92.1998 104.865 91.3437 102.719 91.3437C98.721 91.3437 95.8798 94.1567 95.8798 98.1834C95.8798 102.21 98.721 105.023 102.719 105.023C104.855 105.023 106.662 104.167 108.101 102.483L111.281 105.418C109.268 107.893 106.182 109.238 102.447 109.238C95.8139 109.238 90.8652 104.628 90.8652 98.174L90.8746 98.1834Z" fill="#E0E0E0"/>
        <path d="M128.338 100.046H123.022V105.24H119.08V100.046H113.793V96.3206H119.08V91.1273H123.022V96.3206H128.338V100.046Z" fill="#E0E0E0"/>
        <path d="M146.834 100.046H141.518V105.24H137.576V100.046H132.289V96.3206H137.576V91.1273H141.518V96.3206H146.834V100.046Z" fill="#E0E0E0"/>
        <path d="M169.498 205.916L172.593 202.209C173.901 203.959 175.341 204.853 177.062 204.853C179.292 204.853 180.468 203.517 180.468 200.864V189.414H172.01V184.945H186V200.553C186 206.499 183.008 209.416 177.335 209.416C174.108 209.416 171.248 208.183 169.498 205.907V205.916Z" fill="#E0E0E0"/>
        <path d="M189.33 207.29L191.118 203.442C192.764 204.505 195.276 205.229 197.543 205.229C200.018 205.229 200.949 204.58 200.949 203.545C200.949 200.516 189.782 203.611 189.782 196.226C189.782 192.716 192.943 190.242 198.343 190.242C200.883 190.242 203.706 190.825 205.456 191.86L203.668 195.68C201.843 194.645 200.027 194.306 198.343 194.306C195.935 194.306 194.909 195.059 194.909 196.028C194.909 199.189 206.077 196.132 206.077 203.414C206.077 206.848 202.878 209.294 197.346 209.294C194.222 209.294 191.052 208.437 189.339 207.299L189.33 207.29Z" fill="#E0E0E0"/>
        <path d="M235.204 365.61C335.948 365.61 417.618 360.842 417.618 354.96C417.618 349.078 335.948 344.31 235.204 344.31C134.459 344.31 52.7891 349.078 52.7891 354.96C52.7891 360.842 134.459 365.61 235.204 365.61Z" fill="#F5F5F5"/>
        <path d="M306.642 50.8604H278.577C277.398 50.8604 276.441 51.8166 276.441 52.9961V81.0606C276.441 82.2401 277.398 83.1962 278.577 83.1962H306.642C307.821 83.1962 308.777 82.2401 308.777 81.0606V52.9961C308.777 51.8166 307.821 50.8604 306.642 50.8604Z" fill="#407BFF"/>
        <g opacity="0.4">
            <path d="M306.642 50.8604H278.577C277.398 50.8604 276.441 51.8166 276.441 52.9961V81.0606C276.441 82.2401 277.398 83.1962 278.577 83.1962H306.642C307.821 83.1962 308.777 82.2401 308.777 81.0606V52.9961C308.777 51.8166 307.821 50.8604 306.642 50.8604Z" fill="white"/>
        </g>
        <path d="M288.267 65.3208L282.651 67.3811L288.267 69.4227V71.5301L280.242 68.4819V66.2898L288.267 63.2416V65.3302V65.3208Z" fill="white"/>
        <path d="M294.308 59.0832H296.651L291.091 74.9641H288.748L294.308 59.0832Z" fill="white"/>
        <path d="M304.967 66.2804V68.4725L296.941 71.5207V69.4133L302.558 67.3717L296.941 65.3114V63.2227L304.967 66.271V66.2804Z" fill="white"/>
        <path d="M283.562 89.0951V96.951H281.747V93.7334H278.181V96.951H276.365V89.0951H278.181V92.1904H281.747V89.0951H283.562Z" fill="#263238"/>
        <path d="M287.063 90.5816H284.551V89.1046H291.4V90.5816H288.888V96.9604H287.072V90.5816H287.063Z" fill="#263238"/>
        <path d="M299.527 96.9604V92.2469L297.203 96.1324H296.385L294.08 92.3504V96.9604H292.377V89.1046H293.882L296.827 93.9874L299.725 89.1046H301.221L301.239 96.9604H299.537H299.527Z" fill="#263238"/>
        <path d="M303.104 89.0951H304.919V95.4739H308.861V96.9604H303.104V89.1046V89.0951Z" fill="#263238"/>
        <g opacity="0.6">
            <path d="M283.562 89.0951V96.951H281.747V93.7334H278.181V96.951H276.365V89.0951H278.181V92.1904H281.747V89.0951H283.562Z" fill="white"/>
            <path d="M287.063 90.5816H284.551V89.1046H291.4V90.5816H288.888V96.9604H287.072V90.5816H287.063Z" fill="white"/>
            <path d="M299.527 96.9604V92.2469L297.203 96.1324H296.385L294.08 92.3504V96.9604H292.377V89.1046H293.882L296.827 93.9874L299.725 89.1046H301.221L301.239 96.9604H299.537H299.527Z" fill="white"/>
            <path d="M303.104 89.0951H304.919V95.4739H308.861V96.9604H303.104V89.1046V89.0951Z" fill="white"/>
        </g>
        <path d="M375.8 68.0962H347.735C346.556 68.0962 345.6 69.0523 345.6 70.2318V98.2963C345.6 99.4758 346.556 100.432 347.735 100.432H375.8C376.979 100.432 377.935 99.4758 377.935 98.2963V70.2318C377.935 69.0523 376.979 68.0962 375.8 68.0962Z" fill="#407BFF"/>
        <g opacity="0.4">
            <path d="M375.8 68.0962H347.735C346.556 68.0962 345.6 69.0523 345.6 70.2318V98.2963C345.6 99.4758 346.556 100.432 347.735 100.432H375.8C376.979 100.432 377.935 99.4758 377.935 98.2963V70.2318C377.935 69.0523 376.979 68.0962 375.8 68.0962Z" fill="white"/>
        </g>
        <path d="M356.466 84.2594C357.237 84.4946 357.595 84.9838 357.595 86.1504V88.8505C357.595 89.6408 357.999 90.1018 358.827 90.1018H359.128V92.1622H358.15C356.042 92.1622 354.96 91.0803 354.96 89.1422V86.094C354.96 85.5577 354.678 85.3037 354.217 85.3037H353.662V83.2433H354.217C354.669 83.2433 354.96 82.9893 354.96 82.453V79.4048C354.96 77.4667 356.042 76.3847 358.15 76.3847H359.128V78.4451H358.827C357.999 78.4451 357.595 78.8967 357.595 79.6964V82.3966C357.595 83.5632 357.237 84.0524 356.466 84.2876V84.2594Z" fill="white"/>
        <path d="M369.863 83.2339V85.2943H369.308C368.856 85.2943 368.564 85.5483 368.564 86.0845V89.1328C368.564 91.0709 367.482 92.1528 365.375 92.1528H364.396V90.0924H364.698C365.525 90.0924 365.93 89.6408 365.93 88.8411V86.141C365.93 84.9744 366.288 84.4852 367.059 84.25C366.288 84.0148 365.93 83.5255 365.93 82.3589V79.6588C365.93 78.8685 365.525 78.4075 364.698 78.4075H364.396V76.3471H365.375C367.482 76.3471 368.564 77.429 368.564 79.3671V82.4154C368.564 82.9516 368.847 83.2057 369.308 83.2057H369.863V83.2339Z" fill="white"/>
        <path d="M350.896 110.386C350.896 108.015 352.712 106.321 355.158 106.321C356.513 106.321 357.652 106.811 358.395 107.714L357.228 108.796C356.701 108.194 356.033 107.874 355.252 107.874C353.785 107.874 352.74 108.909 352.74 110.386C352.74 111.863 353.785 112.898 355.252 112.898C356.043 112.898 356.701 112.587 357.228 111.966L358.395 113.048C357.652 113.961 356.523 114.45 355.149 114.45C352.712 114.45 350.896 112.757 350.896 110.386Z" fill="#263238"/>
        <path d="M358.941 113.538L359.562 112.164C360.221 112.644 361.209 112.982 362.159 112.982C363.241 112.982 363.674 112.625 363.674 112.145C363.674 110.677 359.101 111.684 359.101 108.768C359.101 107.432 360.183 106.321 362.413 106.321C363.401 106.321 364.408 106.557 365.141 107.018L364.577 108.401C363.843 107.987 363.09 107.78 362.404 107.78C361.322 107.78 360.908 108.184 360.908 108.674C360.908 110.122 365.48 109.125 365.48 112.004C365.48 113.321 364.389 114.441 362.15 114.441C360.908 114.441 359.647 114.074 358.951 113.528L358.941 113.538Z" fill="#263238"/>
        <path d="M366.1 113.538L366.721 112.164C367.379 112.644 368.367 112.982 369.317 112.982C370.399 112.982 370.832 112.625 370.832 112.145C370.832 110.677 366.26 111.684 366.26 108.768C366.26 107.432 367.341 106.321 369.571 106.321C370.559 106.321 371.566 106.557 372.3 107.018L371.735 108.401C371.001 107.987 370.249 107.78 369.552 107.78C368.47 107.78 368.056 108.184 368.056 108.674C368.056 110.122 372.629 109.125 372.629 112.004C372.629 113.321 371.538 114.441 369.298 114.441C368.056 114.441 366.796 114.074 366.1 113.528V113.538Z" fill="#263238"/>
        <g opacity="0.6">
            <path d="M350.896 110.386C350.896 108.015 352.712 106.321 355.158 106.321C356.513 106.321 357.652 106.811 358.395 107.714L357.228 108.796C356.701 108.194 356.033 107.874 355.252 107.874C353.785 107.874 352.74 108.909 352.74 110.386C352.74 111.863 353.785 112.898 355.252 112.898C356.043 112.898 356.701 112.587 357.228 111.966L358.395 113.048C357.652 113.961 356.523 114.45 355.149 114.45C352.712 114.45 350.896 112.757 350.896 110.386Z" fill="white"/>
            <path d="M358.941 113.538L359.562 112.164C360.221 112.644 361.209 112.982 362.159 112.982C363.241 112.982 363.674 112.625 363.674 112.145C363.674 110.677 359.101 111.684 359.101 108.768C359.101 107.432 360.183 106.321 362.413 106.321C363.401 106.321 364.408 106.557 365.141 107.018L364.577 108.401C363.843 107.987 363.09 107.78 362.404 107.78C361.322 107.78 360.908 108.184 360.908 108.674C360.908 110.122 365.48 109.125 365.48 112.004C365.48 113.321 364.389 114.441 362.15 114.441C360.908 114.441 359.647 114.074 358.951 113.528L358.941 113.538Z" fill="white"/>
            <path d="M366.1 113.538L366.721 112.164C367.379 112.644 368.367 112.982 369.317 112.982C370.399 112.982 370.832 112.625 370.832 112.145C370.832 110.677 366.26 111.684 366.26 108.768C366.26 107.432 367.341 106.321 369.571 106.321C370.559 106.321 371.566 106.557 372.3 107.018L371.735 108.401C371.001 107.987 370.249 107.78 369.552 107.78C368.47 107.78 368.056 108.184 368.056 108.674C368.056 110.122 372.629 109.125 372.629 112.004C372.629 113.321 371.538 114.441 369.298 114.441C368.056 114.441 366.796 114.074 366.1 113.528V113.538Z" fill="white"/>
        </g>
        <path d="M255.017 64.9444H139.758V148.376H255.017V64.9444Z" fill="black"/>
        <path opacity="0.9" d="M255.017 64.9444H139.758V148.376H255.017V64.9444Z" fill="white"/>
        <path opacity="0.1" d="M155.808 64.9444H139.758V148.376H155.808V64.9444Z" fill="black"/>
        <path d="M255.017 64.9444H139.758V72.7438H255.017V64.9444Z" fill="#407BFF"/>
        <path opacity="0.4" d="M250.058 70.5047C250.947 70.5047 251.667 69.7844 251.667 68.8959C251.667 68.0073 250.947 67.2871 250.058 67.2871C249.17 67.2871 248.449 68.0073 248.449 68.8959C248.449 69.7844 249.17 70.5047 250.058 70.5047Z" fill="white"/>
        <path opacity="0.4" d="M244.404 70.5047C245.292 70.5047 246.012 69.7844 246.012 68.8959C246.012 68.0073 245.292 67.2871 244.404 67.2871C243.515 67.2871 242.795 68.0073 242.795 68.8959C242.795 69.7844 243.515 70.5047 244.404 70.5047Z" fill="white"/>
        <path opacity="0.4" d="M238.759 70.5047C239.648 70.5047 240.368 69.7844 240.368 68.8959C240.368 68.0073 239.648 67.2871 238.759 67.2871C237.871 67.2871 237.15 68.0073 237.15 68.8959C237.15 69.7844 237.871 70.5047 238.759 70.5047Z" fill="white"/>
        <path d="M359.41 133.022H208.381V229.728H359.41V133.022Z" fill="#263238"/>
        <path opacity="0.9" d="M359.41 133.022H208.381V229.728H359.41V133.022Z" fill="white"/>
        <path opacity="0.1" d="M231.939 133.022H208.381V229.728H231.939V133.022Z" fill="black"/>
        <path d="M359.41 133.022H208.381V140.821H359.41V133.022Z" fill="#407BFF"/>
        <path d="M219.049 149.373L216.547 150.295L219.049 151.208V152.149L215.465 150.784V149.806L219.049 148.442V149.373Z" fill="white"/>
        <path d="M221.749 146.588H222.794L220.31 153.673H219.266L221.749 146.588Z" fill="white"/>
        <path d="M226.51 149.797V150.775L222.926 152.139V151.198L225.428 150.286L222.926 149.364V148.432L226.51 149.797Z" fill="white"/>
        <path d="M255.573 160.117H234.574C234.056 160.117 233.633 159.694 233.633 159.176C233.633 158.659 234.056 158.236 234.574 158.236H255.573C256.09 158.236 256.513 158.659 256.513 159.176C256.513 159.694 256.09 160.117 255.573 160.117Z" fill="#407BFF"/>
        <path d="M315.87 160.117H261.162C260.644 160.117 260.221 159.694 260.221 159.176C260.221 158.659 260.644 158.236 261.162 158.236H315.87C316.387 158.236 316.811 158.659 316.811 159.176C316.811 159.694 316.387 160.117 315.87 160.117Z" fill="#263238"/>
        <g opacity="0.2">
            <path d="M340.838 160.117H324.986C324.468 160.117 324.045 159.694 324.045 159.176C324.045 158.659 324.468 158.236 324.986 158.236H340.838C341.356 158.236 341.779 158.659 341.779 159.176C341.779 159.694 341.356 160.117 340.838 160.117Z" fill="#263238"/>
        </g>
        <g opacity="0.2">
            <path d="M292.236 166.261H237.406C236.888 166.261 236.465 165.837 236.465 165.32C236.465 164.803 236.888 164.379 237.406 164.379H292.236C292.754 164.379 293.177 164.803 293.177 165.32C293.177 165.837 292.754 166.261 292.236 166.261Z" fill="#263238"/>
        </g>
        <path d="M348.364 166.261H297.259C296.742 166.261 296.318 165.837 296.318 165.32C296.318 164.803 296.742 164.379 297.259 164.379H348.364C348.882 164.379 349.305 164.803 349.305 165.32C349.305 165.837 348.882 166.261 348.364 166.261Z" fill="#407BFF"/>
        <path d="M269.901 172.404H237.396C236.878 172.404 236.455 171.981 236.455 171.463C236.455 170.946 236.878 170.523 237.396 170.523H269.901C270.418 170.523 270.842 170.946 270.842 171.463C270.842 171.981 270.418 172.404 269.901 172.404Z" fill="#263238"/>
        <path d="M308.615 172.404H276.609C276.091 172.404 275.668 171.981 275.668 171.463C275.668 170.946 276.091 170.523 276.609 170.523H308.615C309.133 170.523 309.556 170.946 309.556 171.463C309.556 171.981 309.133 172.404 308.615 172.404Z" fill="#407BFF"/>
        <path d="M348.364 172.404H313.818C313.3 172.404 312.877 171.981 312.877 171.463C312.877 170.946 313.3 170.523 313.818 170.523H348.364C348.882 170.523 349.305 170.946 349.305 171.463C349.305 171.981 348.882 172.404 348.364 172.404Z" fill="#263238"/>
        <path d="M272.913 178.548H253.41C252.892 178.548 252.469 178.124 252.469 177.607C252.469 177.09 252.892 176.666 253.41 176.666H272.913C273.43 176.666 273.853 177.09 273.853 177.607C273.853 178.124 273.43 178.548 272.913 178.548Z" fill="#263238"/>
        <path d="M300.534 178.548H279.244C278.726 178.548 278.303 178.124 278.303 177.607C278.303 177.09 278.726 176.666 279.244 176.666H300.534C301.052 176.666 301.475 177.09 301.475 177.607C301.475 178.124 301.052 178.548 300.534 178.548Z" fill="#263238"/>
        <g opacity="0.2">
            <path d="M339.898 178.548H305.371C304.853 178.548 304.43 178.124 304.43 177.607C304.43 177.09 304.853 176.666 305.371 176.666H339.898C340.416 176.666 340.839 177.09 340.839 177.607C340.839 178.124 340.416 178.548 339.898 178.548Z" fill="#263238"/>
        </g>
        <g opacity="0.2">
            <path d="M263.645 184.682H237.406C236.888 184.682 236.465 184.259 236.465 183.741C236.465 183.224 236.888 182.8 237.406 182.8H263.645C264.162 182.8 264.586 183.224 264.586 183.741C264.586 184.259 264.162 184.682 263.645 184.682Z" fill="#263238"/>
        </g>
        <path d="M266.928 190.825H237.406C236.888 190.825 236.465 190.402 236.465 189.885C236.465 189.367 236.888 188.944 237.406 188.944H266.928C267.446 188.944 267.869 189.367 267.869 189.885C267.869 190.402 267.446 190.825 266.928 190.825Z" fill="#407BFF"/>
        <path d="M316.245 190.825H271.773C271.255 190.825 270.832 190.402 270.832 189.885C270.832 189.367 271.255 188.944 271.773 188.944H316.245C316.763 188.944 317.186 189.367 317.186 189.885C317.186 190.402 316.763 190.825 316.245 190.825Z" fill="#263238"/>
        <path d="M348.365 190.825H321.636C321.119 190.825 320.695 190.402 320.695 189.885C320.695 189.367 321.119 188.944 321.636 188.944H348.365C348.882 188.944 349.305 189.367 349.305 189.885C349.305 190.402 348.882 190.825 348.365 190.825Z" fill="#263238"/>
        <g opacity="0.2">
            <path d="M263.72 196.969H246.814C246.296 196.969 245.873 196.546 245.873 196.028C245.873 195.511 246.296 195.087 246.814 195.087H263.72C264.238 195.087 264.661 195.511 264.661 196.028C264.661 196.546 264.238 196.969 263.72 196.969Z" fill="#263238"/>
        </g>
        <g opacity="0.2">
            <path d="M301.908 196.969H269.488C268.97 196.969 268.547 196.546 268.547 196.028C268.547 195.511 268.97 195.087 269.488 195.087H301.908C302.426 195.087 302.849 195.511 302.849 196.028C302.849 196.546 302.426 196.969 301.908 196.969Z" fill="#263238"/>
        </g>
        <path d="M339.898 196.969H308.24C307.722 196.969 307.299 196.546 307.299 196.028C307.299 195.511 307.722 195.087 308.24 195.087H339.898C340.416 195.087 340.839 195.511 340.839 196.028C340.839 196.546 340.416 196.969 339.898 196.969Z" fill="#263238"/>
        <path d="M276.158 203.112H256.232C255.714 203.112 255.291 202.689 255.291 202.172C255.291 201.654 255.714 201.231 256.232 201.231H276.158C276.676 201.231 277.099 201.654 277.099 202.172C277.099 202.689 276.676 203.112 276.158 203.112Z" fill="#263238"/>
        <g opacity="0.2">
            <path d="M299.227 203.112H280.242C279.724 203.112 279.301 202.689 279.301 202.172C279.301 201.654 279.724 201.231 280.242 201.231H299.227C299.745 201.231 300.168 201.654 300.168 202.172C300.168 202.689 299.745 203.112 299.227 203.112Z" fill="#263238"/>
        </g>
        <path d="M339.897 203.112H305.191C304.673 203.112 304.25 202.689 304.25 202.172C304.25 201.654 304.673 201.231 305.191 201.231H339.897C340.415 201.231 340.838 201.654 340.838 202.172C340.838 202.689 340.415 203.112 339.897 203.112Z" fill="#407BFF"/>
        <g opacity="0.2">
            <path d="M280.59 209.247H256.232C255.714 209.247 255.291 208.823 255.291 208.306C255.291 207.788 255.714 207.365 256.232 207.365H280.59C281.107 207.365 281.53 207.788 281.53 208.306C281.53 208.823 281.107 209.247 280.59 209.247Z" fill="#263238"/>
        </g>
        <path opacity="0.4" d="M352.842 136.973C352.842 137.867 353.566 138.582 354.451 138.582C355.335 138.582 356.059 137.858 356.059 136.973C356.059 136.089 355.335 135.364 354.451 135.364C353.566 135.364 352.842 136.089 352.842 136.973Z" fill="white"/>
        <path opacity="0.4" d="M348.806 138.582C349.695 138.582 350.415 137.862 350.415 136.973C350.415 136.085 349.695 135.364 348.806 135.364C347.918 135.364 347.197 136.085 347.197 136.973C347.197 137.862 347.918 138.582 348.806 138.582Z" fill="white"/>
        <path opacity="0.4" d="M343.152 138.582C344.04 138.582 344.761 137.862 344.761 136.973C344.761 136.085 344.04 135.364 343.152 135.364C342.263 135.364 341.543 136.085 341.543 136.973C341.543 137.862 342.263 138.582 343.152 138.582Z" fill="white"/>
        <path d="M106.557 138.733H79.5274C74.9268 138.733 71.2012 142.458 71.2012 147.059V170.579C71.2012 175.18 74.9268 178.905 79.5274 178.905H98.6918L104.337 186.328V178.905H106.557C111.158 178.905 114.883 175.18 114.883 170.579V147.059C114.883 142.458 111.158 138.733 106.557 138.733Z" fill="#407BFF"/>
        <path opacity="0.7" d="M106.557 138.733H79.5274C74.9268 138.733 71.2012 142.458 71.2012 147.059V170.579C71.2012 175.18 74.9268 178.905 79.5274 178.905H98.6918L104.337 186.328V178.905H106.557C111.158 178.905 114.883 175.18 114.883 170.579V147.059C114.883 142.458 111.158 138.733 106.557 138.733Z" fill="white"/>
        <path d="M102.532 168.204C107.771 162.965 107.771 154.47 102.532 149.231C97.2927 143.992 88.7981 143.992 83.5588 149.231C78.3195 154.47 78.3195 162.965 83.5588 168.204C88.7981 173.443 97.2927 173.443 102.532 168.204Z" fill="#407BFF"/>
        <path d="M91.636 164.708C91.2785 164.708 90.9304 164.549 90.6952 164.276L85.4361 158.076C84.9939 157.558 85.0597 156.777 85.5772 156.335C86.0946 155.893 86.8755 155.959 87.3177 156.476L91.6454 161.566L98.7862 153.155C99.2284 152.638 100.009 152.572 100.527 153.014C101.044 153.456 101.11 154.237 100.668 154.755L92.5863 164.276C92.351 164.549 92.0124 164.708 91.6454 164.708H91.636Z" fill="white"/>
        <path d="M192.604 305.323L212.794 304.335L210.827 321.9C210.827 321.9 196.809 324.581 190.553 314.599L192.594 305.323H192.604Z" fill="#EBB376"/>
        <path d="M225.823 310.45L221.223 323.198L210.836 321.9L212.802 304.325L225.823 310.45Z" fill="#EBB376"/>
        <path d="M173.214 333.829C185.275 327.752 193.987 318.4 193.987 318.4L192.614 305.313C173.525 308.098 162.517 312.172 162.517 312.172C162.517 312.172 169.583 286.807 163.119 277.569L145.347 280.786C145.347 280.786 126.465 320.037 139.166 333.81H173.224L173.214 333.829Z" fill="#407BFF"/>
        <path opacity="0.7" d="M173.185 333.829C185.256 327.761 193.977 318.409 193.977 318.409L192.603 305.313C174.126 308.023 163.203 311.918 162.535 312.153C162.77 311.231 169.459 286.647 163.118 277.569L145.356 280.796C145.356 280.796 139.739 292.452 136.691 305.313C134.15 316.029 133.407 327.563 139.184 333.829H173.194H173.185Z" fill="white"/>
        <path opacity="0.2" d="M158.573 333.829C164.849 294.061 159.279 283.975 159.279 283.975L136.671 305.313C134.131 316.029 133.388 327.563 139.164 333.829H158.564H158.573Z" fill="black"/>
        <path d="M154.652 333.829C158.886 313.733 163.637 282.263 163.11 277.578C162.348 270.776 125.298 241.582 93.1508 262.835C86.5839 267.173 83.2064 313.959 82.0586 333.829H154.652Z" fill="#407BFF"/>
        <path opacity="0.7" d="M154.651 333.829C158.884 313.724 163.635 282.263 163.118 277.569C162.365 270.776 125.307 241.592 93.159 262.835C90.7693 264.425 88.8124 271.613 87.2036 281.097C85.0492 294.005 83.5721 311.137 82.6877 324.064C82.4431 327.723 82.2361 331.035 82.0762 333.829H154.66H154.651Z" fill="white"/>
        <path d="M138.779 176.487C127.631 171.981 101.344 188.154 99.0395 216.99C96.7345 245.825 111.355 237.829 111.355 237.829C111.355 237.829 113.951 248.836 124.601 245.43C124.601 245.43 133.398 255.394 141.583 251.339C141.583 251.339 151.772 261.951 157.238 256.353C157.238 256.353 163.184 263.146 168.613 258C174.041 252.853 189.546 200.422 165.207 188.295C140.868 176.168 138.77 176.478 138.77 176.478L138.779 176.487Z" fill="#263238"/>
        <path d="M138.797 294.484L137.724 294.39C138.957 280.504 135.909 274.36 135.871 274.295L136.831 273.805C136.962 274.059 140.067 280.24 138.797 294.484Z" fill="#263238"/>
        <path d="M143.84 294.644C136.464 277.239 144.762 273.194 145.119 273.034L145.571 274.012C145.496 274.05 137.894 277.86 144.837 294.23L143.849 294.654L143.84 294.644Z" fill="#263238"/>
        <path d="M136.624 277.155C136.624 277.155 122.371 265.884 100.243 259.505L93.1492 262.835C93.1492 262.835 81.2384 248.093 101.09 243.266C120.941 238.45 147.942 251.706 154.725 263.118C161.509 274.53 142.946 278.152 142.946 278.152C142.946 278.152 141.215 275.866 136.615 277.155H136.624Z" fill="#407BFF"/>
        <path opacity="0.6" d="M136.624 277.155C136.624 277.155 122.371 265.884 100.243 259.505L93.1492 262.835C93.1492 262.835 81.2384 248.093 101.09 243.266C120.941 238.45 147.942 251.706 154.725 263.118C161.509 274.53 142.946 278.152 142.946 278.152C142.946 278.152 141.215 275.866 136.615 277.155H136.624Z" fill="white"/>
        <path d="M145.223 294.437C145.223 294.955 144.8 295.378 144.283 295.378C143.765 295.378 143.342 294.955 143.342 294.437C143.342 293.92 143.765 293.497 144.283 293.497C144.8 293.497 145.223 293.92 145.223 294.437Z" fill="white"/>
        <path d="M139.118 294.437C139.118 294.955 138.695 295.378 138.177 295.378C137.66 295.378 137.236 294.955 137.236 294.437C137.236 293.92 137.66 293.497 138.177 293.497C138.695 293.497 139.118 293.92 139.118 294.437Z" fill="white"/>
        <path d="M129.051 223.923C128.186 234.028 125.09 251.988 116.877 255.939C116.877 255.939 126.059 257.811 140.379 275.988C148.535 270.258 145.449 266.363 145.449 266.363C135.91 260.107 138.384 252.392 142.241 245.703L129.051 223.914V223.923Z" fill="#EBB376"/>
        <path opacity="0.2" d="M134.423 232.814L142.232 245.703C141.31 247.284 140.482 248.921 139.88 250.595C136.126 248.582 131.996 242.203 132.768 237.838C133.153 235.665 133.812 233.67 134.423 232.814Z" fill="black"/>
        <path d="M127.932 202.604C125.307 218.467 123.858 225.109 129.738 235.326C138.573 250.689 158.151 251.414 165.348 236.888C171.831 223.81 175.039 200.064 161.529 189.584C148.216 179.253 130.566 186.752 127.942 202.614L127.932 202.604Z" fill="#EBB376"/>
        <path d="M160.437 180.74C170.71 186.451 180.504 204.27 165.874 199.81C163.673 204.091 155.789 200.168 151.217 195.031C150.445 198.597 142.006 202.172 135.806 196.649C138.807 200.977 133.699 211.9 128.383 210.018C123.058 208.136 111.138 205.662 121.713 188.822C132.287 171.981 149.457 174.643 160.446 180.74H160.437Z" fill="#263238"/>
        <path d="M156.693 217.582C156.693 217.582 157.643 223.886 159.421 227.301C157.408 228.458 154.727 226.906 154.727 226.906L156.683 217.582H156.693Z" fill="#D58745"/>
        <path d="M146.438 229.728C147.068 230.039 147.755 230.302 148.517 230.518C148.724 230.575 148.922 230.453 148.969 230.236C149.016 230.02 148.894 229.803 148.677 229.747C143.136 228.176 141.395 223.387 141.377 223.34C141.301 223.124 141.085 223.011 140.887 223.077C140.69 223.142 140.596 223.368 140.661 223.585C140.727 223.773 142.129 227.63 146.429 229.728H146.438Z" fill="#263238"/>
        <path d="M119.944 214.007C120.941 217.667 123.397 220.433 125.946 221.835C129.775 223.933 132.579 220.339 132.25 215.861C131.958 211.834 129.606 205.888 125.401 205.653C121.261 205.417 118.796 209.83 119.944 214.007Z" fill="#EBB376"/>
        <path d="M145.355 203.037C145.543 203.112 145.759 203.103 145.947 203.009C148.911 201.419 151.395 202.896 151.423 202.915C151.79 203.131 152.251 203.018 152.448 202.633C152.646 202.247 152.505 201.758 152.129 201.532C151.997 201.457 148.883 199.594 145.204 201.57C144.837 201.767 144.706 202.247 144.912 202.651C145.007 202.84 145.167 202.981 145.345 203.047L145.355 203.037Z" fill="#263238"/>
        <path d="M170.635 209.237C170.804 209.331 171.011 209.36 171.199 209.294C171.594 209.171 171.811 208.72 171.67 208.296C170.305 204.025 166.919 202.896 166.768 202.858C166.363 202.727 165.949 202.971 165.846 203.395C165.743 203.818 165.987 204.27 166.392 204.401C166.523 204.448 169.148 205.352 170.23 208.757C170.296 208.974 170.447 209.153 170.635 209.247V209.237Z" fill="#263238"/>
        <path d="M150.417 213.424C149.956 214.675 148.902 215.447 148.065 215.136C147.228 214.826 146.927 213.565 147.388 212.314C147.849 211.062 148.902 210.291 149.73 210.601C150.568 210.912 150.869 212.173 150.408 213.424H150.417Z" fill="#263238"/>
        <path d="M149.363 210.536L152.487 210.47C152.487 210.47 150.285 212.267 149.363 210.536Z" fill="#263238"/>
        <path d="M166.214 218.429C165.753 219.68 164.699 220.452 163.862 220.141C163.025 219.831 162.724 218.57 163.185 217.319C163.646 216.068 164.699 215.296 165.527 215.607C166.365 215.917 166.666 217.178 166.205 218.429H166.214Z" fill="#263238"/>
        <path d="M165.17 215.541L168.293 215.475C168.293 215.475 166.092 217.272 165.17 215.541Z" fill="#263238"/>
        <path d="M148.929 222.315C147.97 222.315 147.02 222.117 146.126 221.722C144.254 220.884 142.871 219.266 142.221 217.168C141.591 215.098 141.751 212.793 142.692 210.695C143.633 208.597 145.232 206.932 147.198 206.02C149.193 205.098 151.319 205.051 153.201 205.888C155.073 206.725 156.456 208.343 157.105 210.441C157.735 212.511 157.576 214.816 156.635 216.914C155.694 219.012 154.095 220.677 152.128 221.59C151.084 222.07 149.993 222.315 148.929 222.315ZM150.407 206.358C149.494 206.358 148.563 206.565 147.659 206.989C145.928 207.788 144.517 209.256 143.68 211.128C142.842 212.991 142.692 215.023 143.256 216.848C143.802 218.645 144.987 220.028 146.568 220.734C148.149 221.44 149.964 221.402 151.677 220.612C153.408 219.812 154.819 218.344 155.656 216.472C156.494 214.609 156.644 212.577 156.08 210.752C155.534 208.955 154.349 207.572 152.768 206.866C152.015 206.528 151.225 206.368 150.407 206.368V206.358Z" fill="#263238"/>
        <path d="M164.586 227.113C163.636 227.113 162.695 226.925 161.802 226.52C159.929 225.683 158.546 224.064 157.897 221.966C157.267 219.887 157.427 217.592 158.368 215.494C159.308 213.396 160.908 211.73 162.874 210.818C164.869 209.896 166.995 209.849 168.877 210.686C170.749 211.523 172.132 213.142 172.781 215.24C173.411 217.319 173.251 219.614 172.31 221.712C170.815 225.062 167.691 227.103 164.586 227.103V227.113ZM166.082 211.166C165.17 211.166 164.238 211.373 163.335 211.796C161.604 212.596 160.193 214.064 159.355 215.936C158.518 217.799 158.368 219.831 158.932 221.656C159.478 223.453 160.663 224.836 162.244 225.542C165.546 227.019 169.62 225.109 171.332 221.28C172.169 219.417 172.32 217.385 171.755 215.559C171.2 213.763 170.024 212.38 168.444 211.674C167.7 211.335 166.901 211.175 166.082 211.175V211.166Z" fill="#263238"/>
        <path d="M157.869 217.3C157.784 217.093 157.68 217.037 157.586 216.999C157.21 216.848 156.57 217.084 156.373 217.178L155.902 216.209C156.025 216.152 157.088 215.654 157.972 215.992C158.386 216.152 158.697 216.463 158.866 216.905L157.869 217.3Z" fill="#263238"/>
        <path d="M130.437 206.994L130.119 208.018L142.789 211.947L143.107 210.923L130.437 206.994Z" fill="#263238"/>
        <path opacity="0.2" d="M129.154 306.235C129.154 306.235 104.401 325.202 82.6777 324.064C83.5621 311.137 85.0392 293.995 87.1936 281.097C89.4046 278.641 90.8722 277.164 90.8722 277.164L104.081 287.014L100.873 291.032C100.873 291.032 120.809 290.025 127.752 291.032L129.154 306.235Z" fill="black"/>
        <path d="M131.713 291.041L151.527 287.005L152.242 304.664C152.242 304.664 138.788 309.434 131.102 300.515L131.713 291.032V291.041Z" fill="#EBB376"/>
        <path d="M165.32 291.088L162.704 304.382L152.233 304.664L151.527 287.005L165.32 291.088Z" fill="#EBB376"/>
        <path d="M131.715 291.041L132.684 304.664L127.754 306.875L125.646 291.041H131.715Z" fill="#407BFF"/>
        <path opacity="0.6" d="M131.715 291.041L132.684 304.664L127.754 306.875L125.646 291.041H131.715Z" fill="white"/>
        <path d="M100.244 259.505C100.244 259.505 92.6325 260.352 86.6489 267.37C80.6747 274.389 59.6099 295.237 64.2951 312.247C68.9804 329.257 113.998 316.603 127.753 306.875L125.646 291.032L94.4576 293.318L104.073 286.996C110.668 268.64 100.244 259.496 100.244 259.496V259.505Z" fill="#407BFF"/>
        <path opacity="0.7" d="M100.244 259.505C100.244 259.505 92.6325 260.352 86.6489 267.37C80.6747 274.389 59.6099 295.237 64.2951 312.247C68.9804 329.257 113.998 316.603 127.753 306.875L125.646 291.032L94.4576 293.318L104.073 286.996C110.668 268.64 100.244 259.496 100.244 259.496V259.505Z" fill="white"/>
        <path d="M190.562 305.624L196.245 304.664V319.877L191.748 320.611L190.562 305.624Z" fill="#407BFF"/>
        <path opacity="0.6" d="M190.562 305.624L196.245 304.664V319.877L191.748 320.611L190.562 305.624Z" fill="white"/>
        <path d="M179.103 319.726C179.094 318.899 179.122 318.033 179.225 317.233L179.395 315.982L178.181 316.697L177.457 317.12C177.203 317.205 176.967 317.346 176.723 317.403C176.234 317.553 175.791 317.553 175.406 317.431C175.02 317.299 174.672 317.026 174.352 316.669C174.051 316.311 173.759 315.803 173.609 315.389L172.546 312.426L171.793 315.559C171.718 315.869 171.671 316.189 171.605 316.499C171.529 316.801 171.426 317.083 171.341 317.374C171.097 317.892 170.814 318.343 170.466 318.569C170.118 318.804 169.62 318.814 169.046 318.692C168.481 318.569 167.87 318.268 167.362 317.948L165.725 316.932L166.393 318.598C166.665 319.284 166.891 320.037 167.07 320.78C167.145 321.156 167.211 321.533 167.221 321.909C167.221 322.285 167.211 322.681 166.976 323.019C167.315 322.784 167.512 322.37 167.616 321.966C167.729 321.561 167.776 321.138 167.785 320.724C167.794 320.394 167.776 320.065 167.747 319.736C168.011 319.886 168.293 320.028 168.594 320.15C169.347 320.451 170.372 320.545 171.275 320.093C172.188 319.642 172.677 318.833 173.035 318.099C173.044 318.061 173.063 318.014 173.082 317.977C173.562 318.494 174.211 318.936 174.973 319.106C175.773 319.284 176.61 319.181 177.268 318.87C177.56 318.757 177.805 318.588 178.068 318.438C178.068 318.475 178.068 318.503 178.078 318.541C178.134 318.983 178.228 319.425 178.35 319.858C178.463 320.291 178.614 320.724 178.821 321.128C179.018 321.533 179.282 321.919 179.639 322.191C179.395 321.824 179.31 321.401 179.225 320.997C179.159 320.583 179.122 320.169 179.112 319.745L179.103 319.726Z" fill="#407BFF"/>
        <path d="M212.756 298.502C212.135 298.586 211.298 298.502 210.583 298.276C209.868 298.05 209.096 297.693 208.532 297.288C207.939 296.865 207.431 296.31 207.017 295.66C206.603 295.04 206.227 294.296 206.01 293.638L205.389 291.775L204.336 293.44C203.912 294.108 203.31 294.795 202.717 295.312C202.115 295.839 201.428 296.187 200.826 296.168H200.601C200.516 296.14 200.412 296.121 200.318 296.103C200.121 296.074 199.933 296.009 199.735 295.952C199.349 295.83 198.973 295.66 198.597 295.463C197.872 295.068 197.148 294.513 196.564 293.958L194.927 292.386L195.266 294.541C195.445 295.67 195.548 296.883 195.492 298.022C195.454 298.586 195.37 299.16 195.163 299.621C194.956 300.092 194.57 300.327 194.015 300.28L193.582 300.242L193.714 300.59C193.987 301.296 194.269 302.002 194.56 302.698C194.466 302.067 194.363 301.446 194.259 300.826L194.429 300.854C194.608 300.854 194.805 300.797 194.993 300.76C195.163 300.684 195.332 300.571 195.492 300.459C195.614 300.327 195.746 300.186 195.859 300.045C196.273 299.452 196.423 298.793 196.564 298.163C196.687 297.523 196.753 296.893 196.771 296.263C196.771 296.253 196.771 296.244 196.771 296.234C197.082 296.479 197.402 296.714 197.74 296.921C198.183 297.185 198.644 297.429 199.133 297.617C199.65 297.796 200.092 297.956 200.76 297.984C202.04 298.022 203.103 297.401 203.903 296.733C204.289 296.413 204.618 296.074 204.928 295.717C205.107 296.046 205.305 296.366 205.54 296.677C206.095 297.429 206.782 298.116 207.6 298.643C208.447 299.179 209.294 299.452 210.206 299.659C210.799 299.762 211.382 299.828 212.003 299.791C211.928 299.988 211.843 300.176 211.777 300.365C211.617 300.91 211.476 301.456 211.392 302.02C211.288 302.575 211.279 303.159 211.316 303.723C211.363 304.288 211.505 304.862 211.815 305.323C211.617 304.805 211.646 304.25 211.702 303.723C211.768 303.196 211.89 302.679 212.069 302.18C212.408 301.174 212.897 300.223 213.433 299.311L214.026 298.304L212.737 298.483L212.756 298.502Z" fill="#407BFF"/>
        <path d="M400.975 354.094L71.0314 354.094C68.7264 354.094 66.8542 352.222 66.8542 349.917V339.756L405.152 339.756V349.917C405.152 352.222 403.28 354.094 400.975 354.094Z" fill="#407BFF"/>
        <path opacity="0.2" d="M66.8448 346.925L405.152 346.925V339.756L66.8448 339.756V346.925Z" fill="black"/>
        <path d="M59.7607 341.629H412.256C414.485 341.629 416.292 339.822 416.292 337.593C416.292 335.363 414.485 333.556 412.256 333.556H59.7607C57.531 333.556 55.7246 335.363 55.7246 337.593C55.7246 339.822 57.531 341.629 59.7607 341.629Z" fill="#407BFF"/>
        <path d="M388.359 284.211L378.066 330.894C377.728 332.427 376.232 333.547 374.727 333.547H318.513C317.017 333.547 316.057 332.155 316.405 330.612L326.679 284.286C327.027 282.762 328.514 282 330.019 282H386.233C387.747 282 388.688 282.687 388.359 284.211Z" fill="#263238"/>
        <path opacity="0.4" d="M388.359 284.211L378.066 330.894C377.727 332.427 376.231 333.547 374.726 333.547H320.422C318.908 333.547 317.967 332.155 318.296 330.612L328.589 284.286C328.927 282.762 330.423 282 331.928 282H386.232C387.747 282 388.688 282.687 388.359 284.211Z" fill="white"/>
        <path d="M379.393 332.07L389.629 285.622C389.968 284.098 389.017 283.411 387.503 283.411H333.199C331.684 283.411 330.188 284.173 329.859 285.697L319.463 332.672L379.393 332.07Z" fill="#407BFF"/>
        <path opacity="0.4" d="M389.627 285.613L384.227 310.149L379.391 332.061L347.3 332.38L319.471 332.663L329.857 285.697C330.205 284.173 331.682 283.42 333.188 283.42H387.51C389.016 283.42 389.966 284.107 389.618 285.613H389.627Z" fill="white"/>
        <path opacity="0.2" d="M384.227 310.158L379.391 332.07L347.3 332.39H320.656L325.012 312.35C325.294 311.062 326.433 310.149 327.741 310.149H384.218L384.227 310.158Z" fill="black"/>
        <path d="M385.149 313.207C384.81 311.683 383.314 310.92 381.809 310.92H327.505C325.991 310.92 325.05 311.607 325.379 313.131L329.5 331.807H320.336C319.856 331.807 319.471 332.192 319.471 332.672C319.471 333.152 319.856 333.538 320.336 333.538H387.228C388.489 333.538 389.42 332.371 389.147 331.148L385.158 313.207H385.149Z" fill="#407BFF"/>
        <path opacity="0.4" d="M385.149 313.207C384.81 311.683 383.314 310.92 381.809 310.92H327.505C325.991 310.92 325.05 311.607 325.379 313.131L329.5 331.807H320.336C319.856 331.807 319.471 332.192 319.471 332.672C319.471 333.152 319.856 333.538 320.336 333.538H387.228C388.489 333.538 389.42 332.371 389.147 331.148L385.158 313.207H385.149Z" fill="white"/>
        <path d="M318.699 324.543H315.547L315.152 326.246H318.219L318.699 324.543Z" fill="black"/>
        <path d="M298.783 333.763H289.704C289.403 333.763 289.168 333.519 289.168 333.227C289.168 332.936 289.413 332.691 289.704 332.691H298.783C301.813 332.691 304.644 331.336 306.554 328.975C308.662 326.359 311.795 324.854 315.163 324.854H316.762C317.063 324.854 317.298 325.099 317.298 325.39C317.298 325.682 317.054 325.926 316.762 325.926H315.163C312.133 325.926 309.301 327.281 307.392 329.643C305.284 332.258 302.151 333.763 298.783 333.763Z" fill="black"/>
        <path d="M147.5 327.121V331.054C147.5 332.823 149.636 333.547 151.404 333.547H289.309C291.059 333.547 293.138 332.823 293.138 331.054V327.121H147.5Z" fill="#263238"/>
        <path opacity="0.4" d="M147.5 327.121V331.054C147.5 332.823 149.636 333.547 151.404 333.547H289.309C291.059 333.547 293.138 332.823 293.138 331.054V327.121H147.5Z" fill="white"/>
        <path opacity="0.2" d="M194.484 327.121V331.054C194.484 332.823 196.582 333.547 198.351 333.547H289.309C291.059 333.547 293.138 332.823 293.138 331.054V327.121H194.475H194.484Z" fill="black"/>
        <path d="M316.217 252.496L299.799 326.961C299.263 329.417 296.883 331.195 294.465 331.195H204.787C202.397 331.195 200.863 328.965 201.418 326.519L217.817 252.618C218.372 250.191 220.733 248.977 223.151 248.977H312.83C315.238 248.977 316.753 250.069 316.217 252.496Z" fill="#263238"/>
        <path opacity="0.4" d="M316.217 252.496L299.799 326.961C299.263 329.417 296.883 331.195 294.465 331.195H207.835C205.426 331.195 203.911 328.965 204.448 326.519L220.865 252.618C221.401 250.191 223.781 248.977 226.199 248.977H312.83C315.238 248.977 316.753 250.069 316.217 252.496Z" fill="white"/>
        <path opacity="0.2" d="M271.998 290.345V290.364C271.998 296.742 265.159 301.917 260.153 301.917C255.148 301.917 252.175 296.733 253.605 290.364C255.035 284.117 260.022 279.017 264.923 278.829C263.493 285.208 266.551 290.364 271.547 290.364C271.65 290.364 272.008 290.364 272.008 290.345H271.998Z" fill="black"/>
        <path d="M41.9762 32.5129L11.834 38.3975C9.26737 38.8961 7.58399 41.389 8.08976 43.9649L11.532 61.619C12.0302 64.1874 14.5213 65.8719 17.0954 65.3658L26.8485 63.4622L26.7881 63.5528L35.4163 67.4659L37.5602 61.4528L37.4696 61.3923L47.2226 59.4887C49.7891 58.9901 51.4725 56.4972 50.9668 53.9213L47.5245 36.2673C47.0263 33.6989 44.5352 32.0143 41.9611 32.5204L41.9762 32.5129Z" fill="#407BFF"/>
        <path d="M44.1656 32.0823L14.0234 37.9669C11.4568 38.4655 9.77345 40.9584 10.2792 43.5343L13.7215 61.1884C14.2197 63.7568 16.7108 65.4413 19.2849 64.9352L29.0379 63.0316L28.9775 63.1222L35.4166 67.4659L39.7571 61.0222L39.6666 60.9617L49.4196 59.0581C51.9861 58.5595 53.6695 56.0667 53.1638 53.4907L49.7215 35.8367C49.2233 33.2683 46.7322 31.5837 44.1581 32.0898L44.1656 32.0823Z" fill="#E0ECF9"/>
        <path d="M39.8289 45.4525C39.3005 42.7405 36.6735 40.9729 33.9635 41.5016C32.6274 41.766 31.5177 42.5366 30.8006 43.579C29.7438 42.884 28.4303 42.5819 27.0942 42.8463C24.3842 43.3751 22.6178 46.0039 23.1462 48.7158C23.6066 51.0878 25.7731 52.3343 27.766 53.3239C28.2793 53.5807 33.1256 56.4135 33.2464 56.2624C34.7033 54.4948 36.2055 52.7724 37.6322 50.9821C38.9759 49.2975 40.2743 47.7565 39.8289 45.4525Z" fill="#407BFF"/>
        <path d="M435.976 38.5129L405.834 44.3975C403.267 44.8961 401.584 47.389 402.09 49.9649L405.532 67.619C406.03 70.1874 408.521 71.8719 411.095 71.3658L420.848 69.4622L420.788 69.5528L429.416 73.4659L431.56 67.4528L431.47 67.3923L441.223 65.4887C443.789 64.9901 445.473 62.4972 444.967 59.9213L441.525 42.2673C441.026 39.6989 438.535 38.0143 435.961 38.5204L435.976 38.5129Z" fill="#407BFF"/>
        <path d="M438.166 38.0823L408.023 43.9669C405.457 44.4655 403.773 46.9584 404.279 49.5343L407.721 67.1884C408.22 69.7568 410.711 71.4413 413.285 70.9352L423.038 69.0316L422.978 69.1222L429.417 73.4659L433.757 67.0222L433.667 66.9617L443.42 65.0581C445.986 64.5595 447.67 62.0667 447.164 59.4907L443.722 41.8367C443.223 39.2683 440.732 37.5837 438.158 38.0898L438.166 38.0823Z" fill="#E0ECF9"/>
        <path d="M433.829 51.4525C433.301 48.7405 430.674 46.9729 427.964 47.5016C426.627 47.766 425.518 48.5366 424.801 49.579C423.744 48.884 422.43 48.5819 421.094 48.8463C418.384 49.3751 416.618 52.0039 417.146 54.7158C417.607 57.0878 419.773 58.3343 421.766 59.3239C422.279 59.5807 427.126 62.4135 427.246 62.2624C428.703 60.4948 430.206 58.7724 431.632 56.9821C432.976 55.2975 434.274 53.7565 433.829 51.4525Z" fill="#407BFF"/>
        <path d="M430.638 118.444L435.9 118.186L435.387 122.764C435.387 122.764 431.734 123.463 430.104 120.861L430.636 118.444H430.638Z" fill="#EBB376"/>
        <path d="M439.296 119.78L438.097 123.102L435.391 122.764L435.903 118.184L439.296 119.78Z" fill="#EBB376"/>
        <path d="M425.584 125.873C428.728 124.289 430.998 121.852 430.998 121.852L430.64 118.441C425.665 119.167 422.797 120.229 422.797 120.229C422.797 120.229 424.638 113.618 422.954 111.211L418.322 112.049C418.322 112.049 413.401 122.278 416.711 125.868H425.587L425.584 125.873Z" fill="#407BFF"/>
        <path opacity="0.7" d="M425.576 125.873C428.722 124.291 430.995 121.854 430.995 121.854L430.637 118.441C425.821 119.147 422.975 120.162 422.801 120.224C422.862 119.983 424.605 113.577 422.953 111.211L418.324 112.052C418.324 112.052 416.86 115.09 416.065 118.441C415.403 121.234 415.21 124.24 416.715 125.873H425.579H425.576Z" fill="white"/>
        <path opacity="0.2" d="M421.769 125.873C423.405 115.509 421.953 112.88 421.953 112.88L416.062 118.441C415.4 121.234 415.206 124.24 416.711 125.873H421.767H421.769Z" fill="black"/>
        <path d="M420.747 125.873C421.85 120.636 423.088 112.434 422.951 111.213C422.752 109.44 413.097 101.832 404.719 107.371C403.007 108.501 402.127 120.694 401.828 125.873H420.747Z" fill="#407BFF"/>
        <path opacity="0.7" d="M420.748 125.873C421.851 120.633 423.089 112.434 422.954 111.211C422.758 109.441 413.1 101.835 404.722 107.371C404.099 107.786 403.59 109.659 403.17 112.13C402.609 115.494 402.224 119.959 401.993 123.328C401.93 124.282 401.876 125.145 401.834 125.873H420.75H420.748Z" fill="white"/>
        <path d="M416.61 84.8681C413.705 83.6936 406.854 87.9084 406.254 95.4233C405.653 102.938 409.463 100.854 409.463 100.854C409.463 100.854 410.14 103.723 412.915 102.835C412.915 102.835 415.208 105.432 417.341 104.375C417.341 104.375 419.996 107.141 421.421 105.682C421.421 105.682 422.97 107.452 424.385 106.111C425.8 104.77 429.84 91.1056 423.498 87.9451C417.155 84.7847 416.608 84.8656 416.608 84.8656L416.61 84.8681Z" fill="#263238"/>
        <path d="M416.614 115.619L416.335 115.595C416.656 111.976 415.861 110.375 415.852 110.357L416.102 110.23C416.136 110.296 416.945 111.907 416.614 115.619Z" fill="#263238"/>
        <path d="M417.928 115.661C416.006 111.125 418.169 110.071 418.262 110.029L418.379 110.284C418.36 110.294 416.379 111.287 418.188 115.553L417.931 115.663L417.928 115.661Z" fill="#263238"/>
        <path d="M416.048 111.103C416.048 111.103 412.334 108.166 406.567 106.503L404.718 107.371C404.718 107.371 401.614 103.529 406.788 102.271C411.961 101.016 418.998 104.471 420.766 107.445C422.534 110.419 417.696 111.363 417.696 111.363C417.696 111.363 417.245 110.767 416.046 111.103H416.048Z" fill="#407BFF"/>
        <path opacity="0.6" d="M416.048 111.103C416.048 111.103 412.334 108.166 406.567 106.503L404.718 107.371C404.718 107.371 401.614 103.529 406.788 102.271C411.961 101.016 418.998 104.471 420.766 107.445C422.534 110.419 417.696 111.363 417.696 111.363C417.696 111.363 417.245 110.767 416.046 111.103H416.048Z" fill="white"/>
        <path d="M418.289 115.607C418.289 115.742 418.179 115.852 418.044 115.852C417.909 115.852 417.799 115.742 417.799 115.607C417.799 115.472 417.909 115.362 418.044 115.362C418.179 115.362 418.289 115.472 418.289 115.607Z" fill="white"/>
        <path d="M416.697 115.607C416.697 115.742 416.587 115.852 416.452 115.852C416.317 115.852 416.207 115.742 416.207 115.607C416.207 115.472 416.317 115.362 416.452 115.362C416.587 115.362 416.697 115.472 416.697 115.607Z" fill="white"/>
        <path d="M414.075 97.2303C413.849 99.8636 413.043 104.544 410.902 105.574C410.902 105.574 413.295 106.062 417.027 110.799C419.153 109.306 418.349 108.291 418.349 108.291C415.862 106.66 416.507 104.65 417.513 102.906L414.075 97.2278V97.2303Z" fill="#EBB376"/>
        <path opacity="0.2" d="M415.476 99.5473L417.511 102.906C417.27 103.318 417.054 103.745 416.898 104.181C415.919 103.657 414.843 101.994 415.044 100.857C415.145 100.29 415.316 99.7704 415.476 99.5473Z" fill="black"/>
        <path d="M413.786 91.6744C413.102 95.8082 412.724 97.5392 414.256 100.202C416.559 104.206 421.661 104.395 423.537 100.609C425.226 97.2009 426.062 91.0124 422.541 88.281C419.072 85.5889 414.472 87.543 413.788 91.6769L413.786 91.6744Z" fill="#EBB376"/>
        <path d="M422.256 85.9763C424.933 87.4646 427.486 92.1084 423.673 90.9462C423.099 92.0618 421.045 91.0394 419.853 89.7007C419.652 90.6299 417.453 91.5616 415.837 90.1224C416.619 91.2502 415.288 94.0968 413.902 93.6065C412.515 93.1161 409.408 92.4713 412.164 88.0824C414.92 83.6936 419.394 84.3875 422.258 85.9763H422.256Z" fill="#263238"/>
        <path d="M421.28 95.5777C421.28 95.5777 421.528 97.2205 421.991 98.1105C421.466 98.4121 420.768 98.0075 420.768 98.0075L421.278 95.5777H421.28Z" fill="#D58745"/>
        <path d="M418.609 98.7431C418.773 98.824 418.952 98.8926 419.15 98.949C419.204 98.9638 419.256 98.9319 419.268 98.8755C419.28 98.8191 419.248 98.7627 419.192 98.748C417.748 98.3385 417.294 97.0905 417.289 97.0783C417.27 97.0219 417.213 96.9925 417.162 97.0096C417.11 97.0268 417.086 97.0856 417.103 97.142C417.12 97.1911 417.486 98.1963 418.606 98.7431H418.609Z" fill="#263238"/>
        <path d="M411.702 94.646C411.962 95.5998 412.602 96.3207 413.267 96.686C414.265 97.2327 414.995 96.2961 414.909 95.1291C414.833 94.0797 414.22 92.5301 413.124 92.4688C412.046 92.4075 411.403 93.5574 411.702 94.646Z" fill="#EBB376"/>
        <path d="M418.326 91.7872C418.375 91.8068 418.432 91.8043 418.481 91.7798C419.253 91.3655 419.9 91.7504 419.908 91.7553C420.003 91.8117 420.124 91.7823 420.175 91.6818C420.227 91.5812 420.19 91.4537 420.092 91.3949C420.057 91.3753 419.246 90.8898 418.287 91.4047C418.191 91.4562 418.157 91.5812 418.211 91.6867C418.236 91.7357 418.277 91.7725 418.324 91.7896L418.326 91.7872Z" fill="#263238"/>
        <path d="M424.914 93.403C424.958 93.4275 425.012 93.4348 425.061 93.4177C425.164 93.3858 425.221 93.2681 425.184 93.1578C424.829 92.0446 423.946 91.7504 423.907 91.7406C423.801 91.7063 423.693 91.77 423.666 91.8804C423.639 91.9907 423.703 92.1084 423.809 92.1427C423.843 92.155 424.527 92.3903 424.809 93.2779C424.826 93.3343 424.865 93.3809 424.914 93.4054V93.403Z" fill="#263238"/>
        <path d="M419.645 94.494C419.524 94.8201 419.25 95.0212 419.032 94.9403C418.813 94.8594 418.735 94.5308 418.855 94.2047C418.975 93.8786 419.25 93.6776 419.466 93.7585C419.684 93.8394 419.762 94.1679 419.642 94.494H419.645Z" fill="#263238"/>
        <path d="M419.371 93.7413L420.185 93.7241C420.185 93.7241 419.611 94.1924 419.371 93.7413Z" fill="#263238"/>
        <path d="M423.762 95.7984C423.642 96.1245 423.367 96.3256 423.149 96.2447C422.931 96.1637 422.852 95.8352 422.972 95.5091C423.092 95.183 423.367 94.982 423.583 95.0629C423.801 95.1438 423.879 95.4723 423.759 95.7984H423.762Z" fill="#263238"/>
        <path d="M423.49 95.0457L424.304 95.0285C424.304 95.0285 423.731 95.4968 423.49 95.0457Z" fill="#263238"/>
        <path d="M419.257 96.811C419.007 96.811 418.759 96.7595 418.526 96.6566C418.038 96.4383 417.678 96.0166 417.509 95.4699C417.344 94.9305 417.386 94.3298 417.631 93.783C417.876 93.2362 418.293 92.8023 418.806 92.5644C419.325 92.3241 419.88 92.3119 420.37 92.5301C420.858 92.7483 421.218 93.17 421.387 93.7168C421.552 94.2562 421.51 94.8569 421.265 95.4037C421.02 95.9504 420.603 96.3844 420.09 96.6222C419.818 96.7473 419.534 96.811 419.257 96.811ZM419.642 92.6527C419.404 92.6527 419.161 92.7066 418.926 92.817C418.475 93.0254 418.107 93.4079 417.889 93.8958C417.67 94.3812 417.631 94.9108 417.778 95.3865C417.92 95.8548 418.229 96.2152 418.641 96.3991C419.053 96.583 419.526 96.5732 419.973 96.3672C420.424 96.1588 420.792 95.7763 421.01 95.2884C421.228 94.803 421.267 94.2734 421.12 93.7977C420.978 93.3294 420.669 92.969 420.257 92.7851C420.061 92.6968 419.855 92.6551 419.642 92.6551V92.6527Z" fill="#263238"/>
        <path d="M423.338 98.0615C423.09 98.0615 422.845 98.0124 422.612 97.907C422.124 97.6888 421.764 97.2671 421.595 96.7203C421.43 96.1784 421.472 95.5802 421.717 95.0334C421.962 94.4867 422.379 94.0527 422.892 93.8149C423.411 93.5746 423.965 93.5623 424.456 93.7805C424.944 93.9988 425.304 94.4205 425.473 94.9672C425.638 95.5091 425.596 96.1073 425.351 96.6541C424.961 97.527 424.147 98.059 423.338 98.059V98.0615ZM423.728 93.9056C423.49 93.9056 423.247 93.9595 423.012 94.0699C422.561 94.2783 422.193 94.6608 421.975 95.1487C421.756 95.6341 421.717 96.1637 421.864 96.6394C422.006 97.1077 422.315 97.4681 422.727 97.652C423.588 98.0369 424.65 97.5392 425.096 96.5413C425.314 96.0559 425.353 95.5263 425.206 95.0506C425.061 94.5823 424.755 94.2219 424.343 94.038C424.149 93.9497 423.941 93.908 423.728 93.908V93.9056Z" fill="#263238"/>
        <path d="M421.587 95.5042C421.565 95.4502 421.538 95.4355 421.513 95.4257C421.415 95.3865 421.248 95.4478 421.197 95.4723L421.074 95.2198C421.106 95.2051 421.383 95.0751 421.614 95.1634C421.722 95.2051 421.802 95.286 421.847 95.4012L421.587 95.5042Z" fill="#263238"/>
        <path d="M414.438 92.8183L414.355 93.0852L417.657 94.1092L417.74 93.8423L414.438 92.8183Z" fill="#263238"/>
        <path opacity="0.2" d="M414.102 118.682C414.102 118.682 407.652 123.624 401.99 123.328C402.221 119.959 402.606 115.492 403.167 112.13C403.743 111.49 404.126 111.105 404.126 111.105L407.568 113.672L406.732 114.719C406.732 114.719 411.928 114.457 413.737 114.719L414.102 118.682Z" fill="black"/>
        <path d="M414.769 114.722L419.932 113.67L420.119 118.272C420.119 118.272 416.613 119.515 414.609 117.191L414.769 114.719V114.722Z" fill="#EBB376"/>
        <path d="M423.526 114.734L422.844 118.198L420.116 118.272L419.932 113.67L423.526 114.734Z" fill="#EBB376"/>
        <path d="M414.769 114.722L415.021 118.272L413.737 118.848L413.188 114.722H414.769Z" fill="#407BFF"/>
        <path opacity="0.6" d="M414.769 114.722L415.021 118.272L413.737 118.848L413.188 114.722H414.769Z" fill="white"/>
        <path d="M406.568 106.503C406.568 106.503 404.584 106.724 403.025 108.553C401.468 110.382 395.978 115.815 397.199 120.248C398.42 124.681 410.152 121.383 413.737 118.848L413.188 114.719L405.06 115.315L407.566 113.667C409.284 108.884 406.568 106.501 406.568 106.501V106.503Z" fill="#407BFF"/>
        <path opacity="0.7" d="M406.568 106.503C406.568 106.503 404.584 106.724 403.025 108.553C401.468 110.382 395.978 115.815 397.199 120.248C398.42 124.681 410.152 121.383 413.737 118.848L413.188 114.719L405.06 115.315L407.566 113.667C409.284 108.884 406.568 106.501 406.568 106.501V106.503Z" fill="white"/>
        <path d="M430.105 118.522L431.586 118.272V122.237L430.414 122.428L430.105 118.522Z" fill="#407BFF"/>
        <path opacity="0.6" d="M430.105 118.522L431.586 118.272V122.237L430.414 122.428L430.105 118.522Z" fill="white"/>
        <path d="M427.119 122.197C427.117 121.982 427.124 121.756 427.151 121.548L427.195 121.222L426.879 121.408L426.69 121.518C426.624 121.54 426.563 121.577 426.499 121.592C426.372 121.631 426.256 121.631 426.156 121.599C426.055 121.565 425.965 121.494 425.881 121.401C425.803 121.307 425.727 121.175 425.687 121.067L425.41 120.295L425.214 121.111C425.195 121.192 425.182 121.276 425.165 121.356C425.146 121.435 425.119 121.508 425.097 121.584C425.033 121.719 424.959 121.837 424.869 121.896C424.778 121.957 424.648 121.96 424.498 121.928C424.351 121.896 424.192 121.817 424.059 121.734L423.633 121.469L423.807 121.903C423.878 122.082 423.937 122.278 423.983 122.472C424.003 122.57 424.02 122.668 424.023 122.766C424.023 122.864 424.02 122.967 423.959 123.056C424.047 122.994 424.099 122.886 424.126 122.781C424.155 122.676 424.167 122.565 424.17 122.457C424.172 122.372 424.167 122.286 424.16 122.2C424.229 122.239 424.302 122.276 424.381 122.308C424.577 122.386 424.844 122.411 425.079 122.293C425.317 122.175 425.445 121.965 425.538 121.773C425.54 121.763 425.545 121.751 425.55 121.741C425.675 121.876 425.844 121.992 426.043 122.036C426.251 122.082 426.47 122.055 426.641 121.974C426.717 121.945 426.781 121.901 426.85 121.862C426.85 121.871 426.85 121.879 426.852 121.889C426.867 122.004 426.891 122.119 426.923 122.232C426.953 122.345 426.992 122.457 427.046 122.563C427.097 122.668 427.166 122.769 427.259 122.84C427.195 122.744 427.173 122.634 427.151 122.528C427.134 122.421 427.124 122.313 427.122 122.202L427.119 122.197Z" fill="#407BFF"/>
        <path d="M435.889 116.666C435.728 116.688 435.509 116.666 435.323 116.607C435.137 116.548 434.936 116.455 434.789 116.35C434.634 116.239 434.502 116.095 434.394 115.926C434.286 115.764 434.188 115.57 434.131 115.398L433.97 114.913L433.695 115.347C433.585 115.521 433.428 115.7 433.273 115.835C433.116 115.972 432.937 116.063 432.781 116.058H432.722C432.7 116.051 432.673 116.046 432.648 116.041C432.597 116.034 432.548 116.016 432.496 116.002C432.396 115.97 432.297 115.926 432.199 115.874C432.011 115.771 431.822 115.627 431.67 115.482L431.243 115.072L431.331 115.634C431.378 115.928 431.405 116.244 431.39 116.541C431.38 116.688 431.358 116.838 431.304 116.958C431.251 117.08 431.15 117.142 431.005 117.129L430.893 117.12L430.927 117.21C430.998 117.394 431.072 117.578 431.148 117.76C431.123 117.595 431.096 117.434 431.069 117.272L431.113 117.279C431.16 117.279 431.211 117.264 431.26 117.255C431.304 117.235 431.349 117.205 431.39 117.176C431.422 117.142 431.457 117.105 431.486 117.068C431.594 116.914 431.633 116.742 431.67 116.578C431.702 116.411 431.719 116.247 431.724 116.083C431.724 116.08 431.724 116.078 431.724 116.075C431.805 116.139 431.888 116.2 431.976 116.254C432.092 116.323 432.212 116.387 432.339 116.436C432.474 116.482 432.589 116.524 432.763 116.531C433.097 116.541 433.374 116.379 433.582 116.205C433.683 116.122 433.769 116.034 433.85 115.94C433.896 116.026 433.948 116.11 434.009 116.19C434.154 116.387 434.333 116.566 434.546 116.703C434.767 116.843 434.987 116.914 435.225 116.968C435.379 116.995 435.531 117.012 435.693 117.002C435.674 117.053 435.652 117.103 435.634 117.152C435.593 117.294 435.556 117.436 435.534 117.583C435.507 117.728 435.505 117.88 435.514 118.027C435.527 118.174 435.563 118.324 435.644 118.444C435.593 118.309 435.6 118.164 435.615 118.027C435.632 117.89 435.664 117.755 435.71 117.625C435.799 117.362 435.926 117.115 436.066 116.877L436.22 116.615L435.885 116.661L435.889 116.666Z" fill="#407BFF"/>
        <path d="M418.885 124.125V125.149C418.885 125.61 419.441 125.799 419.902 125.799H455.841C456.298 125.799 456.839 125.61 456.839 125.149V124.125H418.885Z" fill="#263238"/>
        <path opacity="0.4" d="M418.885 124.125V125.149C418.885 125.61 419.441 125.799 419.902 125.799H455.841C456.298 125.799 456.839 125.61 456.839 125.149V124.125H418.885Z" fill="white"/>
        <path opacity="0.2" d="M431.129 124.125V125.149C431.129 125.61 431.676 125.799 432.137 125.799H455.842C456.298 125.799 456.839 125.61 456.839 125.149V124.125H431.127H431.129Z" fill="black"/>
        <path d="M462.853 104.677L458.575 124.083C458.435 124.723 457.815 125.186 457.185 125.186H433.814C433.191 125.186 432.791 124.605 432.936 123.968L437.209 104.708C437.354 104.076 437.97 103.76 438.6 103.76H461.971C462.598 103.76 462.993 104.044 462.853 104.677Z" fill="#263238"/>
        <path opacity="0.4" d="M462.853 104.677L458.575 124.083C458.435 124.723 457.815 125.186 457.185 125.186H434.608C433.98 125.186 433.586 124.605 433.725 123.968L438.004 104.708C438.144 104.076 438.764 103.76 439.394 103.76H461.971C462.598 103.76 462.993 104.044 462.853 104.677Z" fill="white"/>
        <path opacity="0.2" d="M451.33 114.54V114.545C451.33 116.208 449.548 117.556 448.243 117.556C446.939 117.556 446.164 116.205 446.537 114.545C446.91 112.917 448.209 111.588 449.487 111.539C449.114 113.202 449.911 114.545 451.213 114.545C451.24 114.545 451.333 114.545 451.333 114.54H451.33Z" fill="black"/>
    </g>
    <path d="M282.859 1.28059L252.18 0.00394776C249.561 -0.10181 247.357 1.93025 247.243 4.54398L246.496 22.5153C246.39 25.1366 248.421 27.3424 251.033 27.4557L260.967 27.8712L260.892 27.9467L268.38 33.7558L271.86 28.4L271.785 28.3244L281.719 28.7399C284.338 28.8456 286.542 26.8136 286.656 24.1999L287.403 6.22856C287.509 3.60728 285.478 1.40146 282.866 1.28815L282.859 1.28059Z" fill="#407BFF"/>
    <path d="M285.085 1.37124L254.407 0.0945926C251.787 -0.0111654 249.583 2.0209 249.47 4.63463L248.723 22.6059C248.617 25.2272 250.648 27.433 253.26 27.5463L263.194 27.9618L263.118 28.0374L268.372 33.7558L274.087 28.4982L274.011 28.4226L283.945 28.8381C286.565 28.9439 288.769 26.9118 288.882 24.2981L289.629 6.32676C289.735 3.70547 287.705 1.49967 285.093 1.38636L285.085 1.37124Z" fill="#E0ECF9"/>
    <path d="M269.141 14.4248C269.141 14.4248 262.438 14.9763 263.54 24.5398C263.54 24.5398 255.848 12.3323 269.141 9.25022V4.85371L280.351 12.4456L269.141 19.4861V14.4248Z" fill="#407BFF"/>
    <path d="M37.3763 106.213L42.638 105.956L42.1255 110.533C42.1255 110.533 38.4723 111.232 36.8418 108.631L37.3739 106.213H37.3763Z" fill="#EBB376"/>
    <path d="M46.0347 107.549L44.8357 110.872L42.1289 110.533L42.6413 105.953L46.0347 107.549Z" fill="#EBB376"/>
    <path d="M32.3227 113.642C35.4659 112.058 37.7364 109.621 37.7364 109.621L37.3784 106.211C32.4036 106.936 29.5349 107.998 29.5349 107.998C29.5349 107.998 31.3763 101.388 29.6918 98.9801L25.0603 99.8187C25.0603 99.8187 20.1394 110.048 23.4494 113.637H32.3251L32.3227 113.642Z" fill="#407BFF"/>
    <path opacity="0.7" d="M32.3164 113.642C35.4621 112.061 37.735 109.624 37.735 109.624L37.377 106.211C32.5616 106.917 29.715 107.932 29.5409 107.993C29.6022 107.753 31.3455 101.346 29.6929 98.9801L25.0638 99.8211C25.0638 99.8211 23.6001 102.859 22.8057 106.211C22.1437 109.003 21.95 112.009 23.4554 113.642H32.3189H32.3164Z" fill="white"/>
    <path opacity="0.2" d="M28.5077 113.642C30.1431 103.278 28.6916 100.65 28.6916 100.65L22.7998 106.211C22.1378 109.003 21.9441 112.009 23.4496 113.642H28.5053H28.5077Z" fill="black"/>
    <path d="M27.4849 113.642C28.5882 108.405 29.8264 100.204 29.6891 98.9826C29.4905 97.2099 19.8351 89.6018 11.4571 95.1405C9.74575 96.2709 8.86553 108.464 8.56641 113.642H27.4849Z" fill="#407BFF"/>
    <path opacity="0.7" d="M27.4858 113.642C28.5892 108.403 29.8273 100.204 29.6925 98.9801C29.4963 97.2099 19.8385 89.6043 11.4605 95.1406C10.8378 95.5549 10.3278 97.4281 9.90852 99.8996C9.34705 103.264 8.96211 107.728 8.73164 111.097C8.66789 112.051 8.61395 112.914 8.57227 113.642H27.4883H27.4858Z" fill="white"/>
    <path d="M23.3486 72.6375C20.4431 71.4631 13.5927 75.6778 12.992 83.1927C12.3913 90.7076 16.2014 88.6235 16.2014 88.6235C16.2014 88.6235 16.8782 91.4922 19.6536 90.6046C19.6536 90.6046 21.9461 93.2011 24.0792 92.1444C24.0792 92.1444 26.7346 94.9101 28.1591 93.4512C28.1591 93.4512 29.7087 95.2215 31.1234 93.8803C32.5381 92.5391 36.5788 78.875 30.2358 75.7146C23.8929 72.5541 23.3461 72.635 23.3461 72.635L23.3486 72.6375Z" fill="#263238"/>
    <path d="M23.3563 103.389L23.0768 103.364C23.398 99.7451 22.6036 98.1441 22.5938 98.1269L22.8438 97.9994C22.8782 98.0656 23.6873 99.6765 23.3563 103.389Z" fill="#263238"/>
    <path d="M24.6685 103.43C22.7463 98.8943 24.9088 97.84 25.002 97.7983L25.1196 98.0533C25.1 98.0632 23.1189 99.0561 24.9284 103.322L24.671 103.433L24.6685 103.43Z" fill="#263238"/>
    <path d="M22.7887 98.8723C22.7887 98.8723 19.0741 95.9349 13.3074 94.2726L11.4587 95.1405C11.4587 95.1405 8.35463 91.2985 13.528 90.0407C18.7014 88.7854 25.7382 92.24 27.506 95.2141C29.2738 98.1882 24.4363 99.1322 24.4363 99.1322C24.4363 99.1322 23.9852 98.5364 22.7862 98.8723H22.7887Z" fill="#407BFF"/>
    <path opacity="0.6" d="M22.7887 98.8723C22.7887 98.8723 19.0741 95.9349 13.3074 94.2726L11.4587 95.1405C11.4587 95.1405 8.35463 91.2985 13.528 90.0407C18.7014 88.7854 25.7382 92.24 27.506 95.2141C29.2738 98.1882 24.4363 99.1322 24.4363 99.1322C24.4363 99.1322 23.9852 98.5364 22.7862 98.8723H22.7887Z" fill="white"/>
    <path d="M25.0294 103.376C25.0294 103.511 24.9191 103.621 24.7842 103.621C24.6494 103.621 24.5391 103.511 24.5391 103.376C24.5391 103.241 24.6494 103.131 24.7842 103.131C24.9191 103.131 25.0294 103.241 25.0294 103.376Z" fill="white"/>
    <path d="M23.4376 103.376C23.4376 103.511 23.3273 103.621 23.1925 103.621C23.0576 103.621 22.9473 103.511 22.9473 103.376C22.9473 103.241 23.0576 103.131 23.1925 103.131C23.3273 103.131 23.4376 103.241 23.4376 103.376Z" fill="white"/>
    <path d="M20.8133 84.9997C20.5877 87.633 19.7811 92.3136 17.6406 93.3433C17.6406 93.3433 20.0336 93.8313 23.7653 98.5682C25.8911 97.0751 25.0869 96.06 25.0869 96.06C22.6007 94.4295 23.2455 92.419 24.2508 90.6757L20.8133 84.9973V84.9997Z" fill="#EBB376"/>
    <path opacity="0.2" d="M22.2118 87.3167L24.2469 90.6757C24.0066 91.0877 23.7908 91.5143 23.6339 91.9507C22.6556 91.426 21.5793 89.7637 21.7803 88.626C21.8808 88.0596 22.0525 87.5398 22.2118 87.3167Z" fill="black"/>
    <path d="M20.5219 79.4438C19.8379 83.5776 19.4603 85.3086 20.9927 87.9713C23.295 91.9752 28.3973 92.164 30.273 88.3784C31.9623 84.9703 32.7984 78.7818 29.2775 76.0505C25.8081 73.3583 21.2085 75.3125 20.5244 79.4463L20.5219 79.4438Z" fill="#EBB376"/>
    <path d="M28.9941 73.7457C31.6715 75.234 34.2239 79.8778 30.4112 78.7156C29.8375 79.8312 27.7829 78.8088 26.5913 77.4701C26.3902 78.3993 24.1909 79.331 22.5751 77.8918C23.3573 79.0196 22.0259 81.8662 20.6406 81.3759C19.2529 80.8855 16.1464 80.2407 18.9023 75.8519C21.6581 71.463 26.1328 72.1569 28.9965 73.7457H28.9941Z" fill="#263238"/>
    <path d="M28.0183 83.3472C28.0183 83.3472 28.2659 84.9899 28.7293 85.8799C28.2046 86.1815 27.5059 85.7769 27.5059 85.7769L28.0158 83.3472H28.0183Z" fill="#D58745"/>
    <path d="M25.3468 86.5125C25.5111 86.5934 25.6901 86.6621 25.8887 86.7185C25.9426 86.7332 25.9941 86.7013 26.0064 86.6449C26.0186 86.5885 25.9867 86.5321 25.9303 86.5174C24.4862 86.1079 24.0326 84.8599 24.0277 84.8477C24.0081 84.7913 23.9517 84.7619 23.9002 84.779C23.8487 84.7962 23.8242 84.855 23.8414 84.9114C23.8585 84.9605 24.2239 85.9657 25.3444 86.5125H25.3468Z" fill="#263238"/>
    <path d="M18.4426 82.4155C18.7025 83.3692 19.3424 84.0901 20.0069 84.4554C21.0048 85.0022 21.7354 84.0655 21.6496 82.8985C21.5736 81.8491 20.9606 80.2995 19.8647 80.2382C18.7858 80.1769 18.1435 81.3268 18.4426 82.4155Z" fill="#EBB376"/>
    <path d="M25.0646 79.5566C25.1137 79.5762 25.17 79.5738 25.2191 79.5492C25.9914 79.1349 26.6387 79.5198 26.6461 79.5247C26.7417 79.5811 26.8618 79.5517 26.9133 79.4512C26.9648 79.3506 26.928 79.2231 26.8299 79.1643C26.7956 79.1447 25.9841 78.6592 25.0254 79.1741C24.9298 79.2256 24.8954 79.3506 24.9494 79.4561C24.9739 79.5051 25.0156 79.5419 25.0622 79.5591L25.0646 79.5566Z" fill="#263238"/>
    <path d="M31.6507 81.1724C31.6948 81.1969 31.7487 81.2042 31.7978 81.1871C31.9007 81.1552 31.9571 81.0375 31.9204 80.9272C31.5648 79.814 30.6822 79.5198 30.6429 79.51C30.5375 79.4757 30.4296 79.5394 30.4027 79.6498C30.3757 79.7601 30.4394 79.8778 30.5449 79.9121C30.5792 79.9244 31.2633 80.1598 31.5452 81.0473C31.5624 81.1037 31.6016 81.1503 31.6507 81.1748V81.1724Z" fill="#263238"/>
    <path d="M26.3829 82.2634C26.2627 82.5895 25.9881 82.7906 25.7699 82.7097C25.5517 82.6288 25.4732 82.3002 25.5934 81.9741C25.7135 81.648 25.9881 81.447 26.2039 81.5279C26.4221 81.6088 26.5005 81.9373 26.3804 82.2634H26.3829Z" fill="#263238"/>
    <path d="M26.1094 81.5107L26.9234 81.4936C26.9234 81.4936 26.3497 81.9619 26.1094 81.5107Z" fill="#263238"/>
    <path d="M30.5 83.5678C30.3799 83.8939 30.1053 84.095 29.8871 84.0141C29.6689 83.9332 29.5904 83.6046 29.7106 83.2785C29.8307 82.9524 30.1053 82.7514 30.3211 82.8323C30.5393 82.9132 30.6177 83.2417 30.4976 83.5678H30.5Z" fill="#263238"/>
    <path d="M30.2285 82.8151L31.0425 82.7979C31.0425 82.7979 30.4688 83.2663 30.2285 82.8151Z" fill="#263238"/>
    <path d="M25.995 84.5804C25.7449 84.5804 25.4973 84.5289 25.2644 84.426C24.7765 84.2078 24.416 83.786 24.2469 83.2393C24.0826 82.6999 24.1243 82.0992 24.3695 81.5524C24.6146 81.0056 25.0315 80.5717 25.5439 80.3338C26.0637 80.0936 26.6178 80.0813 27.1082 80.2995C27.5961 80.5177 27.9565 80.9394 28.1257 81.4862C28.29 82.0256 28.2483 82.6263 28.0031 83.1731C27.7579 83.7198 27.3411 84.1538 26.8287 84.3916C26.5565 84.5167 26.2721 84.5804 25.995 84.5804ZM26.38 80.4221C26.1421 80.4221 25.8994 80.476 25.664 80.5864C25.2129 80.7948 24.8451 81.1773 24.6269 81.6652C24.4087 82.1507 24.3695 82.6803 24.5166 83.1559C24.6588 83.6242 24.9677 83.9846 25.3796 84.1685C25.7915 84.3524 26.2647 84.3426 26.711 84.1367C27.1621 83.9282 27.5299 83.5458 27.7481 83.0578C27.9663 82.5724 28.0055 82.0428 27.8584 81.5671C27.7162 81.0988 27.4073 80.7384 26.9954 80.5545C26.7992 80.4662 26.5933 80.4246 26.38 80.4246V80.4221Z" fill="#263238"/>
    <path d="M30.0761 85.8309C29.8284 85.8309 29.5832 85.7818 29.3503 85.6764C28.8624 85.4582 28.502 85.0365 28.3328 84.4897C28.1685 83.9479 28.2102 83.3496 28.4554 82.8028C28.7006 82.2561 29.1174 81.8221 29.6298 81.5843C30.1496 81.344 30.7037 81.3317 31.1941 81.55C31.682 81.7682 32.0424 82.1899 32.2116 82.7366C32.3759 83.2785 32.3342 83.8768 32.089 84.4235C31.6992 85.2964 30.8852 85.8284 30.0761 85.8284V85.8309ZM30.4659 81.675C30.2281 81.675 29.9853 81.7289 29.75 81.8393C29.2988 82.0477 28.9311 82.4302 28.7128 82.9181C28.4946 83.4035 28.4554 83.9331 28.6025 84.4088C28.7447 84.8771 29.0536 85.2375 29.4656 85.4214C30.3262 85.8064 31.3878 85.3086 31.834 84.3107C32.0523 83.8253 32.0915 83.2957 31.9444 82.82C31.7997 82.3517 31.4932 81.9913 31.0813 81.8074C30.8876 81.7191 30.6792 81.6774 30.4659 81.6774V81.675Z" fill="#263238"/>
    <path d="M28.323 83.2736C28.3009 83.2197 28.2739 83.2049 28.2494 83.1951C28.1514 83.1559 27.9846 83.2172 27.9331 83.2417L27.8105 82.9892C27.8424 82.9745 28.1195 82.8445 28.35 82.9328C28.4578 82.9745 28.5387 83.0554 28.5829 83.1706L28.323 83.2736Z" fill="#263238"/>
    <path d="M21.1765 80.5877L21.0938 80.8546L24.3957 81.8787L24.4785 81.6117L21.1765 80.5877Z" fill="#263238"/>
    <path opacity="0.2" d="M20.8406 106.451C20.8406 106.451 14.3898 111.394 8.72852 111.097C8.95899 107.728 9.34393 103.261 9.9054 99.8996C10.4816 99.2597 10.8641 98.8747 10.8641 98.8747L14.3065 101.442L13.4704 102.489C13.4704 102.489 18.6659 102.226 20.4753 102.489L20.8406 106.451Z" fill="black"/>
    <path d="M21.507 102.491L26.6706 101.439L26.857 106.041C26.857 106.041 23.3508 107.285 21.3477 104.96L21.507 102.489V102.491Z" fill="#EBB376"/>
    <path d="M30.2663 102.503L29.5847 105.968L26.8558 106.041L26.6719 101.439L30.2663 102.503Z" fill="#EBB376"/>
    <path d="M21.5072 102.491L21.7598 106.041L20.475 106.618L19.9258 102.491H21.5072Z" fill="#407BFF"/>
    <path opacity="0.6" d="M21.5072 102.491L21.7598 106.041L20.475 106.618L19.9258 102.491H21.5072Z" fill="white"/>
    <path d="M13.3059 94.2726C13.3059 94.2726 11.3223 94.4933 9.76297 96.3223C8.20604 98.1514 2.71636 103.585 3.93738 108.018C5.1584 112.451 16.8905 109.153 20.4751 106.618L19.9259 102.489L11.798 103.085L14.3038 101.437C16.0225 96.6533 13.3059 94.2701 13.3059 94.2701V94.2726Z" fill="#407BFF"/>
    <path opacity="0.7" d="M13.3059 94.2726C13.3059 94.2726 11.3223 94.4933 9.76297 96.3223C8.20604 98.1514 2.71636 103.585 3.93738 108.018C5.1584 112.451 16.8905 109.153 20.4751 106.618L19.9259 102.489L11.798 103.085L14.3038 101.437C16.0225 96.6533 13.3059 94.2701 13.3059 94.2701V94.2726Z" fill="white"/>
    <path d="M36.8438 106.292L38.3247 106.041V110.006L37.1527 110.197L36.8438 106.292Z" fill="#407BFF"/>
    <path opacity="0.6" d="M36.8438 106.292L38.3247 106.041V110.006L37.1527 110.197L36.8438 106.292Z" fill="white"/>
    <path d="M33.8576 109.967C33.8552 109.751 33.8625 109.526 33.8895 109.317L33.9336 108.991L33.6173 109.177L33.4285 109.288C33.3623 109.31 33.3011 109.347 33.2373 109.361C33.1098 109.4 32.9946 109.4 32.894 109.369C32.7935 109.334 32.7028 109.263 32.6194 109.17C32.541 109.077 32.465 108.944 32.4257 108.837L32.1487 108.064L31.9525 108.881C31.9329 108.962 31.9207 109.045 31.9035 109.126C31.8839 109.204 31.8569 109.278 31.8348 109.354C31.7711 109.489 31.6975 109.606 31.6068 109.665C31.5161 109.727 31.3862 109.729 31.2366 109.697C31.0895 109.665 30.9301 109.587 30.7977 109.503L30.3711 109.239L30.5452 109.673C30.6163 109.852 30.6751 110.048 30.7217 110.241C30.7413 110.34 30.7585 110.438 30.7609 110.536C30.7609 110.634 30.7585 110.737 30.6972 110.825C30.7855 110.764 30.8369 110.656 30.8639 110.55C30.8933 110.445 30.9056 110.335 30.908 110.227C30.9105 110.141 30.9056 110.055 30.8982 109.969C30.9669 110.009 31.0404 110.045 31.1189 110.077C31.3151 110.156 31.5823 110.18 31.8177 110.062C32.0555 109.945 32.183 109.734 32.2762 109.543C32.2786 109.533 32.2835 109.521 32.2884 109.511C32.4135 109.646 32.5827 109.761 32.7813 109.805C32.9897 109.852 33.2079 109.825 33.3795 109.744C33.4555 109.714 33.5193 109.67 33.5879 109.631C33.5879 109.641 33.5879 109.648 33.5904 109.658C33.6051 109.773 33.6296 109.888 33.6615 110.001C33.6909 110.114 33.7301 110.227 33.7841 110.332C33.8356 110.438 33.9042 110.538 33.9974 110.609C33.9336 110.514 33.9116 110.403 33.8895 110.298C33.8723 110.19 33.8625 110.082 33.8601 109.972L33.8576 109.967Z" fill="#407BFF"/>
    <path d="M42.6277 104.436C42.4659 104.458 42.2477 104.436 42.0614 104.377C41.875 104.318 41.674 104.225 41.5268 104.119C41.3724 104.009 41.24 103.864 41.1321 103.695C41.0242 103.533 40.9261 103.34 40.8698 103.168L40.7079 102.682L40.4333 103.116C40.323 103.29 40.1661 103.469 40.0116 103.604C39.8547 103.742 39.6757 103.832 39.5188 103.827H39.4599C39.4379 103.82 39.4109 103.815 39.3864 103.81C39.3349 103.803 39.2859 103.786 39.2344 103.771C39.1338 103.739 39.0358 103.695 38.9377 103.644C38.7489 103.541 38.5601 103.396 38.4081 103.251L37.9815 102.842L38.0697 103.403C38.1163 103.697 38.1433 104.014 38.1286 104.31C38.1188 104.458 38.0967 104.607 38.0428 104.727C37.9888 104.85 37.8883 104.911 37.7436 104.899L37.6309 104.889L37.6652 104.98C37.7363 105.164 37.8098 105.348 37.8859 105.529C37.8613 105.365 37.8344 105.203 37.8074 105.041L37.8515 105.048C37.8981 105.048 37.9496 105.034 37.9986 105.024C38.0428 105.004 38.0869 104.975 38.1286 104.945C38.1605 104.911 38.1948 104.874 38.2242 104.838C38.3321 104.683 38.3713 104.512 38.4081 104.347C38.44 104.181 38.4571 104.016 38.462 103.852C38.462 103.85 38.462 103.847 38.462 103.845C38.5429 103.908 38.6263 103.97 38.7146 104.024C38.8298 104.092 38.95 104.156 39.0775 104.205C39.2123 104.252 39.3275 104.293 39.5016 104.301C39.8351 104.31 40.1121 104.149 40.3205 103.975C40.4211 103.891 40.5069 103.803 40.5878 103.71C40.6344 103.796 40.6859 103.879 40.7472 103.96C40.8918 104.156 41.0708 104.335 41.2841 104.472C41.5048 104.612 41.7254 104.683 41.9633 104.737C42.1177 104.764 42.2698 104.781 42.4316 104.771C42.412 104.823 42.3899 104.872 42.3727 104.921C42.3311 105.063 42.2943 105.205 42.2722 105.352C42.2452 105.497 42.2428 105.649 42.2526 105.796C42.2649 105.943 42.3016 106.093 42.3825 106.213C42.3311 106.078 42.3384 105.934 42.3531 105.796C42.3703 105.659 42.4022 105.524 42.4487 105.394C42.537 105.132 42.6645 104.884 42.8043 104.646L42.9587 104.384L42.6228 104.431L42.6277 104.436Z" fill="#407BFF"/>
    <path d="M25.623 111.894V112.919C25.623 113.38 26.1796 113.569 26.6406 113.569H62.5798C63.0358 113.569 63.5777 113.38 63.5777 112.919V111.894H25.623Z" fill="#263238"/>
    <path opacity="0.4" d="M25.623 111.894V112.919C25.623 113.38 26.1796 113.569 26.6406 113.569H62.5798C63.0358 113.569 63.5777 113.38 63.5777 112.919V111.894H25.623Z" fill="white"/>
    <path opacity="0.2" d="M37.8677 111.894V112.919C37.8677 113.38 38.4144 113.569 38.8754 113.569H62.5799C63.0359 113.569 63.5778 113.38 63.5778 112.919V111.894H37.8652H37.8677Z" fill="black"/>
    <path d="M69.5916 92.446L65.3131 111.852C65.1734 112.492 64.5531 112.956 63.9229 112.956H40.5519C39.9292 112.956 39.5295 112.375 39.6742 111.737L43.9477 92.4778C44.0924 91.8453 44.7078 91.529 45.3379 91.529H68.709C69.3366 91.529 69.7314 91.8134 69.5916 92.446Z" fill="#263238"/>
    <path opacity="0.4" d="M69.5916 92.446L65.3132 111.852C65.1734 112.492 64.5531 112.956 63.923 112.956H41.3463C40.7187 112.956 40.3239 112.375 40.4637 111.737L44.7421 92.4778C44.8819 91.8453 45.5022 91.529 46.1323 91.529H68.709C69.3366 91.529 69.7314 91.8134 69.5916 92.446Z" fill="white"/>
    <path opacity="0.2" d="M58.0686 102.31V102.315C58.0686 103.977 56.2861 105.326 54.9817 105.326C53.6774 105.326 52.9026 103.975 53.2753 102.315C53.6479 100.687 54.9474 99.3577 56.2248 99.3087C55.8522 100.971 56.649 102.315 57.9509 102.315C57.9779 102.315 58.0711 102.315 58.0711 102.31H58.0686Z" fill="black"/>
    <defs>
        <clipPath id="clip0_652_5553">
            <rect width="470.407" height="350.557" fill="white" transform="translate(0 15.053)"/>
        </clipPath>
    </defs>
</svg>
