<svg viewBox="0 0 20 20" fill="none" xmlns="http://www.w3.org/2000/svg">
    <path d="M4.3125 7.5H8.4375V5.83333H4.3125V7.5ZM4.3125 10.8333H8.4375V9.16667H4.3125V10.8333ZM4.3125 14.1667H8.4375V12.5H4.3125V14.1667ZM12.125 12.5L16.2292 8.39583L15.0208 7.20833L12.125 10.1458L10.9375 8.95833L9.77083 10.1458L12.125 12.5ZM2.79167 17.625C2.41667 17.625 2.08681 17.4826 1.80208 17.1979C1.51736 16.9132 1.375 16.5833 1.375 16.2083V3.79167C1.375 3.40278 1.51736 3.06944 1.80208 2.79167C2.08681 2.51389 2.41667 2.375 2.79167 2.375H17.2083C17.5972 2.375 17.9306 2.51389 18.2083 2.79167C18.4861 3.06944 18.625 3.40278 18.625 3.79167V16.2083C18.625 16.5833 18.4861 16.9132 18.2083 17.1979C17.9306 17.4826 17.5972 17.625 17.2083 17.625H2.79167ZM2.79167 16.2083H17.2083V3.79167H2.79167V16.2083ZM2.79167 16.2083V3.79167V16.2083Z" fill="currentColor"/>
</svg>
