<svg width="20" height="20" viewBox="0 0 20 20" fill="none" xmlns="http://www.w3.org/2000/svg">
<g clip-path="url(#clip0_1438_61022)">
<path d="M14.1857 5.38124C14.1172 5.29046 14.0017 5.24835 13.8907 5.27387C13.7799 5.29935 13.6943 5.38762 13.6722 5.49922L13.4155 6.79768L10.2552 0.820372C10.2052 0.725836 10.107 0.666664 10 0.666664C9.99956 0.666664 9.99913 0.666664 9.99865 0.666664C9.89121 0.667175 9.79288 0.727331 9.74355 0.822779L5.36917 9.28476L4.83666 7.59845C4.80283 7.49126 4.70986 7.41346 4.59841 7.3991C4.48696 7.38462 4.37725 7.43628 4.31728 7.53133C3.0952 9.46792 2.47559 11.0625 2.47559 12.2708C2.47559 14.2573 3.26166 16.0681 4.68908 17.3696C6.07785 18.6359 7.96399 19.3333 10 19.3333C12.036 19.3333 13.9222 18.6359 15.3109 17.3696C16.7383 16.0681 17.5244 14.2573 17.5244 12.2708C17.5244 10.6332 16.4011 8.31518 14.1857 5.38124Z" fill="#FF7452"/>
<path d="M11.6935 18.602C9.65748 18.602 7.77134 17.9046 6.38257 16.6383C4.95515 15.3368 4.16908 13.526 4.16908 11.5395C4.16908 10.6849 4.47948 9.63683 5.09333 8.41132L4.83663 7.59841C4.80279 7.49123 4.70983 7.41342 4.59837 7.39906C4.48692 7.38458 4.37722 7.43625 4.31724 7.53129C3.0952 9.46792 2.47559 11.0625 2.47559 12.2708C2.47559 14.2573 3.26166 16.0681 4.68908 17.3696C6.07789 18.6359 7.96402 19.3333 10 19.3333C11.4931 19.3333 12.9053 18.9578 14.1001 18.2584C13.3392 18.4844 12.529 18.602 11.6935 18.602Z" fill="#E24642"/>
<path d="M5.22754 13.5794C5.22754 10.9436 10 5.57388 10 5.57388C10 5.57388 14.7726 10.9436 14.7726 13.5794C14.7726 16.2151 12.6358 18.3519 10 18.3519C7.36429 18.3519 5.22754 16.2152 5.22754 13.5794Z" fill="#FFD652"/>
<path d="M11.1547 17.1972C8.51892 17.1972 6.38217 15.0605 6.38217 12.4247C6.38217 10.5914 8.69075 7.43592 10.0967 5.68417C10.0346 5.61278 10 5.57384 10 5.57384C10 5.57384 5.22754 10.9436 5.22754 13.5794C5.22754 16.2151 7.36429 18.3519 10 18.3519C11.6128 18.3519 13.0385 17.5518 13.9025 16.3271C13.1255 16.8752 12.1777 17.1972 11.1547 17.1972Z" fill="#FB9D46"/>
</g>
<defs>
<clipPath id="clip0_1438_61022">
<rect width="18.6667" height="18.6667" fill="white" transform="translate(0.666992 0.666664)"/>
</clipPath>
</defs>
</svg>
