<svg viewBox="0 0 24 24" fill="none" xmlns="http://www.w3.org/2000/svg">
    <path d="M1.75 17.1V2.87498C1.75 2.60831 1.86667 2.34998 2.1 2.09998C2.33333 1.84998 2.58333 1.72498 2.85 1.72498H15.925C16.2083 1.72498 16.4667 1.84581 16.7 2.08748C16.9333 2.32914 17.05 2.59164 17.05 2.87498V11.875C17.05 12.1416 16.9333 12.4 16.7 12.65C16.4667 12.9 16.2083 13.025 15.925 13.025H5.825L1.75 17.1ZM7.05 18.225C6.78333 18.225 6.52917 18.1 6.2875 17.85C6.04583 17.6 5.925 17.3416 5.925 17.075V14.525H18.55V5.89998H21.15C21.4167 5.89998 21.6667 6.02498 21.9 6.27498C22.1333 6.52498 22.25 6.79164 22.25 7.07498V22.25L18.25 18.225H7.05ZM15.35 3.42498H3.45V13.025L5.175 11.325H15.35V3.42498ZM3.45 3.42498V11.325V13.025V3.42498Z" fill="currentColor"/>
</svg>
