<svg width="19" height="18" viewBox="0 0 19 18" fill="none" xmlns="http://www.w3.org/2000/svg">
<g clip-path="url(#clip0_1766_39524)">
<path d="M9.52507 0.581604C4.63692 0.581604 0.677734 4.47443 0.677734 9.27559C0.677734 13.1175 3.2125 16.3756 6.7271 17.5243C7.16947 17.6061 7.33167 17.337 7.33167 17.1062C7.33167 16.8998 7.3243 16.3527 7.32061 15.628C4.85958 16.1522 4.34053 14.4616 4.34053 14.4616C3.93798 13.4582 3.35627 13.1898 3.35627 13.1898C2.55484 12.6508 3.4182 12.6619 3.4182 12.6619C4.30662 12.7224 4.77331 13.5577 4.77331 13.5577C5.5622 14.887 6.84433 14.5029 7.3501 14.281C7.42973 13.7184 7.65755 13.3358 7.91043 13.1183C5.94559 12.9008 3.88047 12.1532 3.88047 8.82216C3.88047 7.87329 4.22331 7.09767 4.79101 6.48941C4.69148 6.26971 4.39288 5.38571 4.86842 4.18837C4.86842 4.18837 5.60939 3.95539 7.30144 5.07974C8.00923 4.88657 8.76125 4.79073 9.51328 4.7863C10.2653 4.79073 11.0173 4.88657 11.7251 5.07974C13.4061 3.95539 14.1471 4.18837 14.1471 4.18837C14.6226 5.38571 14.324 6.26971 14.2355 6.48941C14.7996 7.09767 15.1424 7.87329 15.1424 8.82216C15.1424 12.162 13.0743 12.8971 11.1058 13.1109C11.4155 13.3719 11.703 13.905 11.703 14.7197C11.703 15.8831 11.6919 16.8179 11.6919 17.1003C11.6919 17.3281 11.8468 17.6002 12.3002 17.5132C15.8399 16.3719 18.3724 13.1116 18.3724 9.27559C18.3724 4.47443 14.411 0.581604 9.52507 0.581604Z" fill="black"/>
</g>
<defs>
<clipPath id="clip0_1766_39524">
<rect width="17.6947" height="17.6947" fill="white" transform="translate(0.675781 0.212982)"/>
</clipPath>
</defs>
</svg>
