<svg width="18" height="18" viewBox="0 0 18 18" fill="none" xmlns="http://www.w3.org/2000/svg">
<g clip-path="url(#clip0_1766_39518)">
<path d="M4.0719 10.9061L3.45598 13.2054L1.20478 13.2531C0.532001 12.0052 0.150391 10.5775 0.150391 9.06032C0.150391 7.59322 0.507187 6.20972 1.13963 4.99152H1.14012L3.14432 5.35896L4.02228 7.35113C3.83852 7.88684 3.73837 8.46192 3.73837 9.06032C3.73844 9.70977 3.85608 10.332 4.0719 10.9061Z" fill="#FBBB00"/>
<path d="M17.6916 7.40753C17.7932 7.94273 17.8462 8.49544 17.8462 9.06033C17.8462 9.69374 17.7796 10.3116 17.6527 10.9076C17.222 12.9357 16.0967 14.7066 14.5377 15.9598L14.5372 15.9593L12.0128 15.8305L11.6555 13.6002C12.69 12.9935 13.4984 12.0441 13.9243 10.9076H9.19336V7.40753H13.9933H17.6916Z" fill="#518EF8"/>
<path d="M14.5364 15.9593L14.5368 15.9598C13.0207 17.1785 11.0946 17.9077 8.99803 17.9077C5.62875 17.9077 2.69941 16.0245 1.20508 13.2531L4.0722 10.9061C4.81935 12.9002 6.74292 14.3196 8.99803 14.3196C9.96733 14.3196 10.8754 14.0576 11.6546 13.6002L14.5364 15.9593Z" fill="#28B446"/>
<path d="M14.646 2.24984L11.7798 4.59632C10.9733 4.09223 10.02 3.80102 8.99872 3.80102C6.69257 3.80102 4.73303 5.28561 4.0233 7.35116L1.14111 4.99154H1.14062C2.61308 2.15262 5.57936 0.213013 8.99872 0.213013C11.1454 0.213013 13.1137 0.977685 14.646 2.24984Z" fill="#F14336"/>
</g>
<defs>
<clipPath id="clip0_1766_39518">
<rect width="17.6947" height="17.6947" fill="white" transform="translate(0.150391 0.212982)"/>
</clipPath>
</defs>
</svg>
