<svg viewBox="0 0 15 15" fill="none" xmlns="http://www.w3.org/2000/svg">
    <g>
        <path d="M7.1123 13.6075C10.7022 13.6075 13.6123 10.6974 13.6123 7.10754C13.6123 3.51769 10.7022 0.607544 7.1123 0.607544C3.52245 0.607544 0.612305 3.51769 0.612305 7.10754C0.612305 10.6974 3.52245 13.6075 7.1123 13.6075Z" stroke="currentColor" stroke-linecap="round" stroke-linejoin="round"/>
        <path d="M5.3623 5.35717C5.3623 5.01105 5.46503 4.67271 5.6575 4.38492C5.84996 4.09714 6.12353 3.87284 6.44359 3.74038C6.76365 3.60793 7.11584 3.57328 7.45561 3.6408C7.79539 3.70832 8.10749 3.87499 8.35246 4.11974C8.59742 4.36448 8.76424 4.6763 8.83183 5.01576C8.89941 5.35523 8.86473 5.70709 8.73215 6.02686C8.59958 6.34663 8.37507 6.61994 8.08702 6.81223C7.79898 7.00452 7.46032 7.10716 7.11389 7.10716V8.27382" stroke="currentColor" stroke-linecap="round" stroke-linejoin="round"/>
        <path d="M7.1123 10.566C6.97423 10.566 6.8623 10.4541 6.8623 10.316C6.8623 10.1779 6.97423 10.066 7.1123 10.066" stroke="currentColor" stroke-linecap="round" stroke-linejoin="round"/>
        <path d="M7.1123 10.566C7.25037 10.566 7.3623 10.4541 7.3623 10.316C7.3623 10.1779 7.25037 10.066 7.1123 10.066" stroke="currentColor" stroke-linecap="round" stroke-linejoin="round"/>
    </g>
</svg>
