<svg viewBox="0 0 18 18" fill="none" xmlns="http://www.w3.org/2000/svg">
    <g>
        <path d="M8.99972 17.3571C13.6153 17.3571 17.3569 13.6156 17.3569 9C17.3569 4.38447 13.6153 0.642853 8.99972 0.642853C4.3842 0.642853 0.642578 4.38447 0.642578 9C0.642578 13.6156 4.3842 17.3571 8.99972 17.3571Z" stroke="currentColor" stroke-width="1.2" stroke-linecap="round" stroke-linejoin="round"/>
        <path d="M6.75 6.74951C6.75 6.30449 6.88208 5.86949 7.12954 5.49947C7.37699 5.12947 7.72872 4.84108 8.14023 4.67078C8.55174 4.50048 9.00455 4.45593 9.4414 4.54274C9.87826 4.62956 10.2795 4.84385 10.5945 5.15852C10.9094 5.47319 11.1239 5.8741 11.2108 6.31055C11.2977 6.74701 11.2531 7.1994 11.0827 7.61054C10.9122 8.02167 10.6236 8.37307 10.2532 8.6203C9.88287 8.86753 9.44745 8.99949 9.00204 8.99949V10.4995" stroke="currentColor" stroke-width="1.2" stroke-linecap="round" stroke-linejoin="round"/>
        <path d="M9.00014 13.4466C8.82262 13.4466 8.67871 13.3028 8.67871 13.1252C8.67871 12.9476 8.82262 12.8038 9.00014 12.8038" stroke="currentColor" stroke-width="1.2" stroke-linecap="round" stroke-linejoin="round"/>
        <path d="M9 13.4466C9.17752 13.4466 9.32143 13.3028 9.32143 13.1252C9.32143 12.9476 9.17752 12.8038 9 12.8038" stroke="currentColor" stroke-width="1.2" stroke-linecap="round" stroke-linejoin="round"/>
    </g>
</svg>
