<svg viewBox="0 0 24 24" fill="none" xmlns="http://www.w3.org/2000/svg">
    <path d="M9.25039 12.75V8.12502L12.0004 6.30002L14.7504 8.12502V12.75H13.2504V9.75002H10.7504V12.75H9.25039ZM12.0004 19.875C14.1837 17.8917 15.7962 16.0917 16.8379 14.475C17.8796 12.8584 18.4004 11.4334 18.4004 10.2C18.4004 8.26669 17.7837 6.68336 16.5504 5.45002C15.3171 4.21669 13.8004 3.60002 12.0004 3.60002C10.2004 3.60002 8.68372 4.21669 7.45039 5.45002C6.21706 6.68336 5.60039 8.26669 5.60039 10.2C5.60039 11.4334 6.13372 12.8584 7.20039 14.475C8.26706 16.0917 9.86706 17.8917 12.0004 19.875ZM12.0004 22.125C9.28372 19.825 7.25456 17.6834 5.91289 15.7C4.57122 13.7167 3.90039 11.8834 3.90039 10.2C3.90039 7.66669 4.71289 5.65002 6.33789 4.15002C7.96289 2.65002 9.85039 1.90002 12.0004 1.90002C14.1504 1.90002 16.0379 2.65002 17.6629 4.15002C19.2879 5.65002 20.1004 7.66669 20.1004 10.2C20.1004 11.8834 19.4296 13.7167 18.0879 15.7C16.7462 17.6834 14.7171 19.825 12.0004 22.125Z" fill="currentColor"/>
</svg>
