<svg viewBox="0 0 14 14" fill="none" xmlns="http://www.w3.org/2000/svg">
<path d="M5.01367 8.76431V5.23565C5.01367 4.82805 5.4881 4.57041 5.87415 4.76836L9.31508 6.53268C9.7123 6.73636 9.7123 7.2636 9.31508 7.46727L5.87415 9.2316C5.4881 9.42955 5.01367 9.1719 5.01367 8.76431Z" stroke="currentColor" stroke-linecap="round" stroke-linejoin="round"/>
<path d="M0.609775 6.13892C0.577602 6.39986 0.561035 6.66563 0.561035 6.93528C0.561035 7.20492 0.577602 7.4707 0.609775 7.73164" stroke="currentColor" stroke-linecap="round" stroke-linejoin="round"/>
<path d="M3.11572 1.7988C3.32562 1.64047 3.5475 1.49323 3.78102 1.35841C4.01454 1.22359 4.25299 1.10505 4.49506 1.00244" stroke="currentColor" stroke-linecap="round" stroke-linejoin="round"/>
<path d="M1.06787 4.42927C1.17047 4.1872 1.28901 3.94875 1.42384 3.71523C1.55866 3.48171 1.70589 3.25983 1.86423 3.04993" stroke="currentColor" stroke-linecap="round" stroke-linejoin="round"/>
<path d="M7.01233 0.5C10.5618 0.5 13.4392 3.41015 13.4392 7C13.4392 10.5899 10.5618 13.5 7.01233 13.5C4.56637 13.5 2.43954 12.1181 1.35352 10.0841" stroke="currentColor" stroke-linecap="round" stroke-linejoin="round"/>
</svg>
