<svg xmlns="http://www.w3.org/2000/svg"  viewBox="0 0 327.26 186.08">
    <defs>
        <style>
            .cls-1 {
            opacity: 0.35;
            }
            .cls-2 {
            fill: #c3ecfe;
            }

            .cls-3 {
            fill: #cae0f9;
            }

            .cls-4 {
            fill: #fff;
            stroke: #4d96ff;
            stroke-miterlimit: 10;
            }

            .cls-5 {
            fill: #4d96ff;
            }

            .cls-6 {
            fill: #ebf9fa;
            }
        </style>
    </defs>
    <g class="cls-1">
        <path class="cls-2" d="M691.79,247.26c-4.58-16.43,10-17.07,10.3-38.24.13-8.65-4.61-17.47-16-21.52-5.6-2-11.2-3.35-16.19-6.51-11.37-7.2-11.16-20.91-14.26-32.59-6.82-25.66-33-46.05-59.58-45.38-19.13.47-36.43,1.06-53.88,17.3-11.93,11.11-19.69,24.79-30.77,36.24-11.74,12.14-26,18-42.09,21.85-15.19,3.69-31.71,8.08-43.33,19.13-10.92,10.39-9.33,21.25-4.65,34,5.17,14.06-6,23.63-17.71,29.11-9.83,4.61-22.92,4.21-27.48,15.24-4.95,12,9.75,12.17,23.42,12.17s190.66-1.05,240.13.41c13.31.39,55.79,4,61.8-12.58C705.56,264.6,695,258.73,691.79,247.26Z" transform="translate(-375.14 -103)" />
    </g>
    <path class="cls-3" d="M560.37,230.25c0,2.89-16.51,5.23-36.87,5.23s-36.87-2.34-36.87-5.23S503.14,225,523.5,225,560.37,227.36,560.37,230.25Z" transform="translate(-375.14 -103)" />
    <path class="cls-4" d="M526.68,250.41a3.59,3.59,0,0,0-5.79,2.86h7.21V239.94h-1.42Z" transform="translate(-375.14 -103)" />
    <path class="cls-4" d="M578.11,249.66a3.58,3.58,0,0,0-2.19.75V239.94h-1.41v13.33h7.2A3.61,3.61,0,0,0,578.11,249.66Z" transform="translate(-375.14 -103)" />
    <path class="cls-3" d="M510.39,257.07H478.25a.73.73,0,1,1,0-1.46h32.14a.73.73,0,0,1,0,1.46Z" transform="translate(-375.14 -103)" />
    <path class="cls-3" d="M473.69,257.07h-5.4a.73.73,0,1,1,0-1.46h5.4a.73.73,0,0,1,0,1.46Z" transform="translate(-375.14 -103)" />
    <path class="cls-3" d="M624.35,257.07H592.21a.73.73,0,0,1,0-1.46h32.14a.73.73,0,0,1,0,1.46Z" transform="translate(-375.14 -103)" />
    <path class="cls-3" d="M549.81,266.52H527.73a.73.73,0,1,1,0-1.46h22.08a.73.73,0,1,1,0,1.46Z" transform="translate(-375.14 -103)" />
    <path class="cls-3" d="M634.31,257.07h-5.39a.73.73,0,1,1,0-1.46h5.39a.73.73,0,0,1,0,1.46Z" transform="translate(-375.14 -103)" />
    <path class="cls-3" d="M559.31,266.52h-5.4a.73.73,0,1,1,0-1.46h5.4a.73.73,0,1,1,0,1.46Z" transform="translate(-375.14 -103)" />
    <path class="cls-3" d="M607.09,266.52H585a.73.73,0,1,1,0-1.46h22.09a.73.73,0,1,1,0,1.46Z" transform="translate(-375.14 -103)" />
    <path class="cls-3" d="M506.12,266.52h-5.4a.73.73,0,1,1,0-1.46h5.4a.73.73,0,0,1,0,1.46Z" transform="translate(-375.14 -103)" />
    <path class="cls-4" d="M564.89,236.8l2.78.71.7-2.78,2.78.7.71-2.77,2.78.7.7-2.78,2.78.71.71-2.78,2.78.7.7-2.77,2.78.7.71-2.78,2.78.71.7-2.78,2.78.7.71-2.77,2.78.7.7-2.78,2.78.71.71-2.78,2.78.71.7-2.78,2.78.7.71-2.78,2.77.71.71-2.78,2.78.71.71-2.78,2.77.7.71-2.78,2.78.71.7-2.78,1.16.29V161.34a3.1,3.1,0,0,0-3.09-3.09H483.89a3.1,3.1,0,0,0-3.09,3.09v75.51a3.1,3.1,0,0,0,3.09,3.09h80.2Z" transform="translate(-375.14 -103)" />
    <path class="cls-4" d="M621.32,208.73l-.71,2.77-2.78-.7-.7,2.78-2.78-.71-.71,2.78-2.78-.7-.7,2.77-2.78-.7-.71,2.78-2.78-.71-.7,2.78-2.78-.71-.71,2.78-2.78-.7-.7,2.78-2.78-.71-.71,2.78-2.78-.71-.7,2.78-2.78-.7-.71,2.78-2.78-.71-.7,2.78-2.78-.71-.71,2.78-2.78-.7-.7,2.78-2.78-.71-.56,2.19h46.74a3.1,3.1,0,0,0,3.09-3.09v-28Z" transform="translate(-375.14 -103)" />
    <path class="cls-5" d="M618.71,158.25H483.89a3.1,3.1,0,0,0-3.09,3.09v7.85h141v-7.85A3.1,3.1,0,0,0,618.71,158.25Z" transform="translate(-375.14 -103)" />
    <rect class="cls-3" x="105.66" y="66" width="141" height="2.44" />
    <path class="cls-6" d="M598.68,163.72a2.87,2.87,0,0,1-3,2.69H509.83a2.71,2.71,0,1,1,0-5.38h85.85A2.87,2.87,0,0,1,598.68,163.72Z" transform="translate(-375.14 -103)" />
    <path class="cls-6" d="M615.07,163.72a2.87,2.87,0,0,1-3,2.69h-6.29a2.71,2.71,0,1,1,0-5.38h6.29A2.87,2.87,0,0,1,615.07,163.72Z" transform="translate(-375.14 -103)" />
    <path class="cls-6" d="M490.46,163.72a1.86,1.86,0,1,1-1.86-1.86A1.85,1.85,0,0,1,490.46,163.72Z" transform="translate(-375.14 -103)" />
    <path class="cls-6" d="M496,163.72a1.86,1.86,0,1,1-1.86-1.86A1.85,1.85,0,0,1,496,163.72Z" transform="translate(-375.14 -103)" />
    <path class="cls-6" d="M501.44,163.72a1.86,1.86,0,1,1-1.86-1.86A1.85,1.85,0,0,1,501.44,163.72Z" transform="translate(-375.14 -103)" />
    <path class="cls-5" d="M512.06,205a.6.6,0,0,1-.4-.15l-6.55-5.8a.61.61,0,1,1,.81-.91l6.55,5.79a.61.61,0,0,1,0,.86A.6.6,0,0,1,512.06,205Z" transform="translate(-375.14 -103)" />
    <path class="cls-5" d="M505.89,205.33a.57.57,0,0,1-.4-.16.6.6,0,0,1-.05-.86l5.79-6.54a.61.61,0,0,1,.86-.06.61.61,0,0,1,0,.86l-5.79,6.55A.6.6,0,0,1,505.89,205.33Z" transform="translate(-375.14 -103)" />
    <path class="cls-5" d="M597.09,205a.63.63,0,0,1-.41-.15l-6.54-5.8a.61.61,0,0,1-.06-.86.61.61,0,0,1,.86,0l6.55,5.79a.61.61,0,0,1,0,.86A.6.6,0,0,1,597.09,205Z" transform="translate(-375.14 -103)" />
    <path class="cls-5" d="M590.92,205.33a.59.59,0,0,1-.41-.16.61.61,0,0,1,0-.86l5.79-6.54a.61.61,0,1,1,.91.8l-5.79,6.55A.6.6,0,0,1,590.92,205.33Z" transform="translate(-375.14 -103)" />
    <path class="cls-5" d="M535.23,223.21a.6.6,0,0,1-.49-.24.62.62,0,0,1,.13-.86c17.72-13.11,32.75-.09,32.9,0a.61.61,0,0,1-.8.91,25.76,25.76,0,0,0-9.31-4.75c-7.55-2.08-15-.47-22.07,4.78A.6.6,0,0,1,535.23,223.21Z" transform="translate(-375.14 -103)" />
    <path class="cls-5" d="M478.81,154.86a.59.59,0,0,1-.53-.31L474.6,148a.61.61,0,0,1,1.06-.6l3.68,6.51a.61.61,0,0,1-.24.83A.6.6,0,0,1,478.81,154.86Z" transform="translate(-375.14 -103)" />
    <path class="cls-5" d="M481.28,153.31h-.09a.6.6,0,0,1-.51-.69l1.06-6.52a.62.62,0,0,1,.7-.5.61.61,0,0,1,.5.7l-1.06,6.51A.6.6,0,0,1,481.28,153.31Z" transform="translate(-375.14 -103)" />
    <path class="cls-5" d="M476.63,156.62a.64.64,0,0,1-.23-.05L469.89,154a.61.61,0,0,1,.45-1.13l6.51,2.61a.61.61,0,0,1-.22,1.18Z" transform="translate(-375.14 -103)" />
    <path class="cls-5" d="M637,208.21a.32.32,0,0,0-.44.11.31.31,0,0,0,.1.44,3,3,0,0,1,.59.47.33.33,0,0,0,.23.09.35.35,0,0,0,.23-.09.34.34,0,0,0,0-.46A4.72,4.72,0,0,0,637,208.21Z" transform="translate(-375.14 -103)" />
    <path class="cls-5" d="M632.63,209.32a.33.33,0,0,0,.23-.09,3.09,3.09,0,0,1,2.69-.88.33.33,0,0,0,.37-.27.32.32,0,0,0-.27-.37,3.8,3.8,0,0,0-3.25,1.06.34.34,0,0,0,0,.46A.35.35,0,0,0,632.63,209.32Z" transform="translate(-375.14 -103)" />
    <path class="cls-5" d="M644.84,220.63l-3.9-3.9a.33.33,0,0,0-.45,0l-.16.16-.38-.38a6.12,6.12,0,1,0-1.12,1.12l.38.38-.16.16a.32.32,0,0,0-.09.23.31.31,0,0,0,.09.22l3.9,3.9a1.33,1.33,0,0,0,.94.39,1.34,1.34,0,0,0,1-2.28Zm-13.67-4a5.53,5.53,0,1,1,3.9,1.61,5.48,5.48,0,0,1-3.9-1.61Zm8.15.56.1-.11.11-.1.35.34-.22.22Zm5.06,4.85a.69.69,0,0,1-1,0l-3.66-3.66,1-1,3.66,3.66A.69.69,0,0,1,644.38,222.06Z" transform="translate(-375.14 -103)" />
</svg>