<svg viewBox="0 0 18 18" fill="none" xmlns="http://www.w3.org/2000/svg">
    <path d="M13.9411 10.6211V12.6786C13.9411 13.2033 14.1495 13.7065 14.5206 14.0776C14.8916 14.4486 15.5192 14.6571 16.0439 14.6571H1.28613C1.81087 14.6571 2.43842 14.4486 2.80947 14.0776C3.18051 13.7065 3.38897 13.2033 3.38897 12.6786L3.38895 7.84747C3.38895 6.44818 3.94482 5.10619 4.93428 4.11674C5.92373 3.12728 7.26572 2.57141 8.66501 2.57141" stroke="currentColor" stroke-linecap="round" stroke-linejoin="round"/>
    <path d="M3.38898 10.6211V12.6786C3.38898 13.2033 3.18054 13.7065 2.80945 14.0776C2.43849 14.4486 1.81089 14.6571 1.28618 14.6571H16.0439C15.5192 14.6571 14.8917 14.4486 14.5206 14.0776C14.1496 13.7065 13.9411 13.2033 13.9411 12.6786L13.9411 7.84747C13.9411 6.44818 13.3853 5.10619 12.3958 4.11674C11.4063 3.12728 10.0644 2.57141 8.66506 2.57141" stroke="currentColor" stroke-linecap="round" stroke-linejoin="round"/>
    <path d="M7.32324 16.7143H10.0065" stroke="currentColor" stroke-linecap="round" stroke-linejoin="round"/>
</svg>
