<svg viewBox="0 0 13 14" fill="none" xmlns="http://www.w3.org/2000/svg">
    <path d="M10.4326 7V8.53357C10.4326 8.92469 10.588 9.2998 10.8646 9.5764C11.1411 9.8529 11.6089 10.0083 12 10.0083H1C1.39112 10.0083 1.85888 9.8529 2.13545 9.5764C2.41201 9.2998 2.56739 8.92469 2.56739 8.53357L2.56738 4.93262C2.56738 3.88963 2.98171 2.88935 3.71922 2.15184C4.45673 1.41433 5.45701 1 6.5 1" stroke="currentColor" stroke-linecap="round" stroke-linejoin="round"/>
    <path d="M2.56736 7V8.53357C2.56736 8.92469 2.412 9.2998 2.1354 9.5764C1.8589 9.8529 1.3911 10.0083 1 10.0083H12C11.6089 10.0083 11.1411 9.8529 10.8645 9.5764C10.588 9.2998 10.4326 8.92469 10.4326 8.53357L10.4326 4.93262C10.4326 3.88963 10.0183 2.88935 9.28078 2.15184C8.54327 1.41433 7.54299 1 6.5 1" stroke="currentColor" stroke-linecap="round" stroke-linejoin="round"/>
    <path d="M5.5 12.5H7.5" stroke="currentColor" stroke-linecap="round" stroke-linejoin="round"/>
</svg>
