<svg viewBox="0 0 12 12" fill="none" xmlns="http://www.w3.org/2000/svg">
<g clip-path="url(#a35iu1h5i15)">
<path d="M11.0214 5.81717L5.98179 10.8992C5.78625 11.0984 5.55295 11.2567 5.29554 11.3647C5.03813 11.4728 4.76177 11.5284 4.4826 11.5284C4.20343 11.5284 3.92707 11.4728 3.66965 11.3647C3.41225 11.2567 3.17895 11.0984 2.98342 10.8992L1.47575 9.36609C1.08107 8.9652 0.859863 8.42523 0.859863 7.86267C0.859863 7.30012 1.08107 6.76012 1.47575 6.35925L6.84573 0.972343C7.0032 0.813567 7.19057 0.687544 7.39699 0.601542C7.60343 0.51554 7.82484 0.471262 8.04846 0.471262C8.27209 0.471262 8.49351 0.51554 8.69995 0.601542C8.90635 0.687544 9.09372 0.813567 9.25118 0.972343L9.85255 1.57371C10.0114 1.73119 10.1374 1.91855 10.2234 2.12498C10.3094 2.3314 10.3536 2.55282 10.3536 2.77645C10.3536 3.00008 10.3094 3.22149 10.2234 3.42792C10.1374 3.63435 10.0114 3.82171 9.85255 3.97918L5.09244 8.75623C5.0137 8.83569 4.92002 8.89869 4.8168 8.94163C4.71359 8.98466 4.60289 9.00677 4.49107 9.00677C4.37926 9.00677 4.26855 8.98466 4.16533 8.94163C4.06212 8.89869 3.96844 8.83569 3.8897 8.75623L3.59325 8.45134C3.51386 8.3726 3.45085 8.27892 3.40785 8.1757C3.36485 8.07249 3.34271 7.96179 3.34271 7.84997C3.34271 7.73816 3.36485 7.62745 3.40785 7.52423C3.45085 7.42102 3.51386 7.32734 3.59325 7.2486L6.78644 4.08082" stroke="currentColor" stroke-linecap="round" stroke-linejoin="round"/>
</g>
</svg>
