<svg viewBox="0 0 18 18" fill="none" xmlns="http://www.w3.org/2000/svg">
<g clip-path="url(#fiuhiru12oino1)">
<path d="M8.36964 16.8042C7.70312 17.2334 6.9098 17.4215 6.12154 17.3373C5.33329 17.2531 4.59759 16.9017 4.03678 16.3414L3.54821 15.8528C3.33151 15.6337 3.20996 15.3381 3.20996 15.0299C3.20996 14.7219 3.33151 14.4262 3.54821 14.2071L5.60535 12.1628C5.82221 11.9469 6.11577 11.8257 6.42178 11.8257C6.72779 11.8257 7.02135 11.9469 7.23821 12.1628C7.45725 12.3795 7.75294 12.501 8.06106 12.501C8.36919 12.501 8.66487 12.3795 8.88392 12.1628L12.1625 8.88423C12.3792 8.66518 12.5008 8.36949 12.5008 8.06137C12.5008 7.75325 12.3792 7.45756 12.1625 7.23851C11.9466 7.02165 11.8254 6.7281 11.8254 6.42208C11.8254 6.11607 11.9466 5.82252 12.1625 5.60565L14.1424 3.54851C14.3615 3.3318 14.6572 3.21027 14.9653 3.21027C15.2735 3.21027 15.5692 3.3318 15.7882 3.54851L16.2767 4.03708C16.8471 4.58999 17.2105 5.32177 17.3065 6.1103C17.4025 6.89883 17.2251 7.69642 16.8039 8.36994C14.562 11.6984 11.6981 14.5623 8.36964 16.8042Z" stroke="currentColor" stroke-linecap="round" stroke-linejoin="round"/>
<path d="M8.99972 0.642883C7.90225 0.642883 6.81551 0.859047 5.80158 1.27903C4.78764 1.69902 3.86637 2.31461 3.09033 3.09064C2.31429 3.86667 1.69872 4.78795 1.27873 5.80189C0.858743 6.81582 0.642578 7.90255 0.642578 9.00003" stroke="currentColor" stroke-linecap="round" stroke-linejoin="round"/>
<path d="M8.9993 3.85718C7.63533 3.85718 6.32723 4.39902 5.36275 5.36348C4.39828 6.32796 3.85645 7.63606 3.85645 9.00003" stroke="currentColor" stroke-linecap="round" stroke-linejoin="round"/>
</g>
<defs>
<clipPath id="fiuhiru12oino1">
<rect width="18" height="18" fill="currentColor"/>
</clipPath>
</defs>
</svg>
