<svg viewBox="0 0 20 20" fill="none" xmlns="http://www.w3.org/2000/svg">
    <path d="M7.95866 13.5833L13.6045 9.99996L7.95866 6.39579V13.5833ZM10.0003 18.4583C8.84755 18.4583 7.7538 18.2361 6.71908 17.7916C5.68435 17.3472 4.78505 16.743 4.02116 15.9791C3.25727 15.2152 2.6531 14.3159 2.20866 13.2812C1.76421 12.2465 1.54199 11.1527 1.54199 9.99996C1.54199 8.84718 1.76421 7.75343 2.20866 6.71871C2.6531 5.68399 3.25727 4.78468 4.02116 4.02079C4.78505 3.2569 5.68435 2.65274 6.71908 2.20829C7.7538 1.76385 8.84755 1.54163 10.0003 1.54163C11.1531 1.54163 12.2469 1.76385 13.2816 2.20829C14.3163 2.65274 15.2156 3.2569 15.9795 4.02079C16.7434 4.78468 17.3475 5.68399 17.792 6.71871C18.2364 7.75343 18.4587 8.84718 18.4587 9.99996C18.4587 11.1527 18.2364 12.2465 17.792 13.2812C17.3475 14.3159 16.7434 15.2152 15.9795 15.9791C15.2156 16.743 14.3198 17.3472 13.292 17.7916C12.2642 18.2361 11.167 18.4583 10.0003 18.4583ZM10.0003 17.0416C11.9309 17.0416 13.5871 16.3541 14.9691 14.9791C16.351 13.6041 17.042 11.9444 17.042 9.99996C17.042 8.0694 16.351 6.41315 14.9691 5.03121C13.5871 3.64926 11.9309 2.95829 10.0003 2.95829C8.06977 2.95829 6.41352 3.64926 5.03158 5.03121C3.64963 6.41315 2.95866 8.0694 2.95866 9.99996C2.95866 11.9444 3.64963 13.6041 5.03158 14.9791C6.41352 16.3541 8.06977 17.0416 10.0003 17.0416Z" fill="currentColor"/>
</svg>