<svg viewBox="0 0 24 24" fill="none" xmlns="http://www.w3.org/2000/svg">
    <path d="M6 8.23821C5.86739 8.23821 5.74021 8.29089 5.64645 8.38466C5.55268 8.47843 5.5 8.6056 5.5 8.73821V9.82415C5.5 9.95676 5.55268 10.0839 5.64645 10.1777C5.74021 10.2715 5.86739 10.3242 6 10.3242C6.13261 10.3242 6.25979 10.2715 6.35355 10.1777C6.44732 10.0839 6.5 9.95676 6.5 9.82415V8.73821C6.5 8.6056 6.44732 8.47843 6.35355 8.38466C6.25979 8.29089 6.13261 8.23821 6 8.23821Z" fill="currentcolor"/>
    <path d="M6 10.954C5.86739 10.954 5.74021 11.0067 5.64645 11.1005C5.55268 11.1942 5.5 11.3214 5.5 11.454V12.54C5.5 12.6726 5.55268 12.7998 5.64645 12.8935C5.74021 12.9873 5.86739 13.04 6 13.04C6.13261 13.04 6.25979 12.9873 6.35355 12.8935C6.44732 12.7998 6.5 12.6726 6.5 12.54V11.454C6.5 11.3214 6.44732 11.1942 6.35355 11.1005C6.25979 11.0067 6.13261 10.954 6 10.954Z" fill="currentcolor"/>
    <path d="M6 13.6699C5.86739 13.6699 5.74021 13.7225 5.64645 13.8163C5.55268 13.9101 5.5 14.0372 5.5 14.1699V15.2558C5.5 15.3884 5.55268 15.5156 5.64645 15.6093C5.74021 15.7031 5.86739 15.7558 6 15.7558C6.13261 15.7558 6.25979 15.7031 6.35355 15.6093C6.44732 15.5156 6.5 15.3884 6.5 15.2558V14.1699C6.5 14.0372 6.44732 13.9101 6.35355 13.8163C6.25979 13.7225 6.13261 13.6699 6 13.6699Z" fill="currentcolor"/>
    <path d="M4.4336 2.50091C3.85122 2.54967 3.32065 2.93781 3.12696 3.52337L2.46094 5.53411C1.64891 5.60202 1 6.28392 1 7.11224V9.10149C1.00016 9.31844 1.14019 9.51054 1.34668 9.57708C1.97044 9.7784 2.49978 10.562 2.5 11.5214C2.50008 12.4811 1.97064 13.2653 1.34668 13.4667C1.14019 13.5333 1.00016 13.7254 1 13.9423V16.9306C1 17.8033 1.71816 18.5214 2.59082 18.5214H10.4844L18.9736 21.4199C19.7573 21.6875 20.6148 21.2494 20.873 20.4687L21.5215 18.5097C22.3417 18.4504 23 17.7649 23 16.9306V13.9413C22.9998 13.7244 22.8598 13.5323 22.6533 13.4658C22.0296 13.2644 21.5002 12.4808 21.5 11.5214C21.4999 10.5617 22.0294 9.77749 22.6533 9.5761C22.8598 9.50956 22.9998 9.31747 23 9.10052V7.11224C23 6.23957 22.2818 5.52142 21.4092 5.52142H13.5176L5.02929 2.5722C4.83278 2.50338 4.61859 2.51208 4.4336 2.50091ZM4.50683 3.4931C4.57168 3.48868 4.63932 3.49721 4.70703 3.51946C6.62766 4.18639 8.54818 4.854 10.4688 5.52142H3.51855L4.07617 3.83685C4.14337 3.63371 4.31231 3.50636 4.50683 3.4931ZM2.59082 6.52142H5.5V6.997C5.5 7.27314 5.72386 7.497 6 7.497C6.27614 7.497 6.5 7.27314 6.5 6.997V6.52142H21.4092C21.7452 6.52142 22 6.77617 22 7.11224V8.81439C21.0766 9.30089 20.4999 10.3494 20.5 11.5214C20.5003 12.6931 21.0768 13.7412 22 14.2275V16.9306C22 17.2667 21.7452 17.5214 21.4092 17.5214H6.49902C6.50151 17.3489 6.5 17.1713 6.5 16.997C6.5 16.7209 6.27614 16.497 6 16.497C5.72386 16.497 5.5 16.7209 5.5 16.997C5.499 17.1705 5.50042 17.3499 5.501 17.5214H2.59085C2.25469 17.5214 2 17.2667 2 16.9306V14.2284C2.92344 13.7419 3.5001 12.6935 3.5 11.5214C3.49974 10.3497 2.92318 9.30168 2 8.81536V7.11224C2 6.77617 2.25476 6.52142 2.59082 6.52142ZM13.5791 18.5214H20.4639L19.9238 20.1542C19.8341 20.4254 19.5617 20.564 19.2969 20.4736L13.5791 18.5214Z" fill="currentcolor"/>
    <path d="M16.3811 12.7796C17.2712 12.7796 18.0032 13.5116 18.0032 14.4016C18.0032 15.2917 17.2712 16.0247 16.3811 16.0247C15.491 16.0247 14.7581 15.2917 14.7581 14.4016C14.7581 13.5116 15.491 12.7796 16.3811 12.7796ZM16.3811 13.7796C16.0315 13.7796 15.7581 14.052 15.7581 14.4016C15.7581 14.7513 16.0315 15.0247 16.3811 15.0247C16.7307 15.0247 17.0032 14.7513 17.0032 14.4016C17.0032 14.052 16.7307 13.7796 16.3811 13.7796Z" fill="currentcolor"/>
    <path d="M11.6196 8.01841C12.5097 8.01841 13.2417 8.75042 13.2417 9.64048C13.2417 10.5305 12.5097 11.2626 11.6196 11.2626C10.7296 11.2626 9.99658 10.5305 9.99658 9.64048C9.99658 8.75042 10.7296 8.01841 11.6196 8.01841ZM11.6196 9.01841C11.27 9.01841 10.9966 9.29086 10.9966 9.64048C10.9966 9.9901 11.27 10.2626 11.6196 10.2626C11.9693 10.2626 12.2417 9.9901 12.2417 9.64048C12.2417 9.29086 11.9693 9.01841 11.6196 9.01841Z" fill="currentcolor"/>
    <path d="M16.0274 9.28704L11.2657 14.0488C11.0705 14.244 11.0705 14.5605 11.2657 14.7558C11.4609 14.951 11.7774 14.951 11.9727 14.7558L16.7344 9.99408C16.9296 9.79882 16.9296 9.4823 16.7344 9.28704C16.5302 9.10545 16.22 9.08642 16.0274 9.28704Z" fill="currentcolor"/>
</svg>
