<svg viewBox="0 0 18 16" fill="none" xmlns="http://www.w3.org/2000/svg">
<path d="M10.4348 16V10.1565C10.4348 7.46667 11.0145 5.24058 12.1739 3.47826C13.3797 1.71594 15.1188 0.55652 17.3913 0V2.43478C16 2.8058 15.0029 3.50145 14.4 4.52174C13.7971 5.49565 13.4493 6.77101 13.3565 8.34783H16V16H10.4348ZM0 16V10.1565C0 7.46667 0.57971 5.24058 1.73913 3.47826C2.94493 1.71594 4.68406 0.55652 6.95652 0V2.43478C5.56522 2.8058 4.56812 3.50145 3.96522 4.52174C3.36232 5.49565 3.01449 6.77101 2.92174 8.34783H5.56522V16H0Z" fill="currentColor"/>
</svg>
