<svg viewBox="0 0 29 28" fill="none" xmlns="http://www.w3.org/2000/svg">
<g clip-path="url(#clip0_74_17662)">
<path d="M6 14L10 17L17 9" stroke="currentColor" stroke-width="2" stroke-linecap="round" stroke-linejoin="round"/>
<path d="M24.5 1H5.5C4.43914 1 3.42172 1.42143 2.67158 2.17158C1.92143 2.92172 1.5 3.93914 1.5 5V27L6.5 24L11.5 27L16.5 24L21.5 27V4C21.5 3.20436 21.816 2.44128 22.3786 1.87868C22.9412 1.31607 23.7044 1 24.5 1ZM24.5 1C25.2956 1 26.0588 1.31607 26.6214 1.87868C27.184 2.44128 27.5 3.20436 27.5 4V11H21.5" stroke="currentColor" stroke-width="2" stroke-linecap="round" stroke-linejoin="round"/>
</g>
<defs>
<clipPath id="clip0_74_17662">
<rect width="28" height="28" fill="white" transform="translate(0.5)"/>
</clipPath>
</defs>
</svg>
