<svg viewBox="0 0 24 24" fill="none" xmlns="http://www.w3.org/2000/svg">
    <path d="M2.84961 22.225V1.80005L4.37461 3.35005L5.89961 1.80005L7.42461 3.32505L8.94961 1.80005L10.4746 3.32505L11.9996 1.80005L13.5246 3.32505L15.0496 1.80005L16.5746 3.32505L18.1246 1.80005L19.6496 3.32505L21.1496 1.80005V22.225L19.6496 20.7001L18.1246 22.225L16.5746 20.7001L15.0496 22.225L13.5246 20.7001L11.9996 22.225L10.4746 20.7001L8.94961 22.225L7.42461 20.7001L5.87461 22.225L4.34961 20.7001L2.84961 22.225ZM5.97461 16.625H18.1246V15.075H5.97461V16.625ZM5.97461 12.775H18.1246V11.225H5.97461V12.775ZM5.97461 8.90005H18.1246V7.35005H5.97461V8.90005ZM4.54961 19.4H19.4496V4.60005H4.54961V19.4ZM4.54961 4.60005V19.4V4.60005Z"
          fill="currentColor"/>
</svg>