<svg width="21" height="21" viewBox="0 0 21 21" fill="none" xmlns="http://www.w3.org/2000/svg">
    <path fill-rule="evenodd" clip-rule="evenodd"
        d="M6.21401 0.125H10.9794C11.4529 0.125 11.9072 0.306725 12.2422 0.62983C12.9972 1.3588 14.579 2.88605 15.334 3.61502C15.6686 3.93847 15.8569 4.37709 15.8569 4.83434V12.8837C15.8569 13.1582 15.744 13.4213 15.5429 13.6151C15.3422 13.8092 15.0697 13.9182 14.7854 13.9182C12.9447 13.9182 8.05472 13.9182 6.21401 13.9182C5.92972 13.9182 5.65722 13.8092 5.45651 13.6151C5.25544 13.4213 5.14258 13.1582 5.14258 12.8837C5.14258 10.6189 5.14258 3.42433 5.14258 1.15949C5.14258 0.885004 5.25544 0.621899 5.45651 0.428105C5.65722 0.233966 5.92972 0.125 6.21401 0.125ZM8.35686 9.9823L9.17579 9.1916C9.31508 9.05712 9.54151 9.05712 9.68079 9.1916C9.82008 9.32609 9.82008 9.54471 9.68079 9.67919L8.86186 10.4699L9.68079 11.2606C9.82008 11.3951 9.82008 11.6137 9.68079 11.7482C9.54151 11.8827 9.31508 11.8827 9.17579 11.7482L8.35686 10.9575L7.53794 11.7482C7.39865 11.8827 7.17222 11.8827 7.03294 11.7482C6.89365 11.6137 6.89365 11.3951 7.03294 11.2606L7.85186 10.4699L7.03294 9.67919C6.89365 9.54471 6.89365 9.32609 7.03294 9.1916C7.17222 9.05712 7.39865 9.05712 7.53794 9.1916L8.35686 9.9823ZM11.214 10.8147H13.714C13.9111 10.8147 14.0711 10.6602 14.0711 10.4699C14.0711 10.2795 13.9111 10.1251 13.714 10.1251H11.214C11.0169 10.1251 10.8569 10.2795 10.8569 10.4699C10.8569 10.6602 11.0169 10.8147 11.214 10.8147ZM8.35686 6.87883L9.89008 5.39848C10.0294 5.26399 10.2558 5.26399 10.3951 5.39848C10.5344 5.53296 10.5344 5.75158 10.3951 5.88607L8.60936 7.61021C8.47008 7.74504 8.24365 7.74504 8.10436 7.61021L7.03294 6.57573C6.89365 6.44124 6.89365 6.22262 7.03294 6.08814C7.17222 5.95365 7.39865 5.95365 7.53794 6.08814L8.35686 6.87883ZM11.214 7.02159H13.714C13.9111 7.02159 14.0711 6.86711 14.0711 6.67676C14.0711 6.48641 13.9111 6.33193 13.714 6.33193H11.214C11.0169 6.33193 10.8569 6.48641 10.8569 6.67676C10.8569 6.86711 11.0169 7.02159 11.214 7.02159ZM11.9283 3.91812H14.6376L11.9283 1.30225V3.91812Z"
        fill="#106EBE" />
    <path fill-rule="evenodd" clip-rule="evenodd"
        d="M4.07143 3.57275C4.16607 3.57275 4.25714 3.60896 4.32393 3.67379C4.39107 3.73827 4.42857 3.8262 4.42857 3.91758C4.42857 4.00896 4.39107 4.09655 4.32393 4.16138C4.25714 4.22586 4.16607 4.26241 4.07143 4.26241C3.46179 4.26241 2.28571 4.26241 2.28571 4.26241C2.00143 4.26241 1.72893 4.37138 1.52821 4.56552C1.32714 4.75931 1.21429 5.02242 1.21429 5.2969V14.6076H19.7857V5.2969C19.7857 5.02242 19.6729 4.75931 19.4718 4.56552C19.2711 4.37138 18.9986 4.26241 18.7143 4.26241H16.9286C16.8339 4.26241 16.7429 4.22586 16.6761 4.16138C16.6089 4.09655 16.5714 4.00896 16.5714 3.91758C16.5714 3.8262 16.6089 3.73827 16.6761 3.67379C16.7429 3.60896 16.8339 3.57275 16.9286 3.57275H18.7143C19.1879 3.57275 19.6421 3.75448 19.9771 4.07758C20.3118 4.40103 20.5 4.83966 20.5 5.2969V15.6421C20.5 16.0994 20.3118 16.538 19.9771 16.8614C19.6421 17.1845 19.1879 17.3663 18.7143 17.3663H12.2882C12.3161 17.9673 12.5757 18.5377 13.0179 18.9649L13.505 19.4353H15.5C15.6971 19.4353 15.8571 19.5897 15.8571 19.7801C15.8571 19.9704 15.6971 20.1249 15.5 20.1249H5.5C5.30286 20.1249 5.14286 19.9704 5.14286 19.7801C5.14286 19.5897 5.30286 19.4353 5.5 19.4353H7.495L7.98214 18.9649C8.42429 18.5377 8.68393 17.9673 8.71179 17.3663H2.28571C1.81214 17.3663 1.35786 17.1845 1.02286 16.8614C0.688214 16.538 0.5 16.0994 0.5 15.6421C0.5 13.1249 0.5 7.81416 0.5 5.2969C0.5 4.83966 0.688214 4.40103 1.02286 4.07758C1.35786 3.75448 1.81214 3.57275 2.28571 3.57275H4.07143ZM11.5736 17.3663H9.42643C9.39857 18.1421 9.07036 18.8808 8.50464 19.4353H12.4954C11.9296 18.8808 11.6014 18.1421 11.5736 17.3663ZM9.07143 15.6421C9.26857 15.6421 9.42857 15.7966 9.42857 15.987C9.42857 16.1773 9.26857 16.3318 9.07143 16.3318C8.87429 16.3318 8.71429 16.1773 8.71429 15.987C8.71429 15.7966 8.87429 15.6421 9.07143 15.6421ZM10.5 15.6421C10.6971 15.6421 10.8571 15.7966 10.8571 15.987C10.8571 16.1773 10.6971 16.3318 10.5 16.3318C10.3029 16.3318 10.1429 16.1773 10.1429 15.987C10.1429 15.7966 10.3029 15.6421 10.5 15.6421ZM11.9286 15.6421C12.1257 15.6421 12.2857 15.7966 12.2857 15.987C12.2857 16.1773 12.1257 16.3318 11.9286 16.3318C11.7314 16.3318 11.5714 16.1773 11.5714 15.987C11.5714 15.7966 11.7314 15.6421 11.9286 15.6421Z"
        fill="#106EBE" />
</svg>