<svg viewBox="0 0 24 24" fill="none" xmlns="http://www.w3.org/2000/svg">
    <path d="M20.1113 4.22013C18.7523 4.22013 17.6467 3.11502 17.6467 1.75669C17.6467 1.40055 17.3578 1.11182 17.0015 1.11182H7.67187C7.31555 1.11182 7.02667 1.40055 7.02667 1.75669C7.02667 3.11502 5.92101 4.22013 4.56195 4.22013C4.20563 4.22013 3.91675 4.50886 3.91675 4.86501V14.708C3.91675 16.7063 5.31443 18.7308 8.07095 20.7251C10.0459 22.1539 11.9912 23.0307 12.073 23.0673C12.1568 23.1049 12.2467 23.1237 12.3366 23.1237C12.4265 23.1237 12.5164 23.1049 12.6003 23.0673C12.6821 23.0307 14.6274 22.1539 16.6023 20.7251C19.3589 18.7308 20.7565 16.7063 20.7565 14.708V4.86501C20.7565 4.50886 20.4677 4.22013 20.1113 4.22013ZM16.9335 10.2676L15.1031 12.0508L15.5292 14.5338C15.5398 14.5801 15.5455 14.6284 15.5455 14.6779C15.5455 15.0335 15.2574 15.3219 14.9018 15.3228C14.9009 15.3228 14.9002 15.3228 14.8993 15.3228C14.7965 15.3228 14.6935 15.2983 14.5991 15.2487L12.3366 14.0598L10.0741 15.2487C9.85674 15.3628 9.59328 15.3438 9.3946 15.1995C9.19593 15.0553 9.09643 14.8107 9.13794 14.5688L9.5701 12.0508L7.73975 10.2675C7.56391 10.0962 7.50059 9.83994 7.57651 9.60645C7.65239 9.373 7.85433 9.20284 8.09736 9.16759L10.6268 8.80022L11.758 6.50927C11.8667 6.2892 12.091 6.14982 12.3366 6.14982C12.5822 6.14982 12.8065 6.28915 12.9152 6.50927L14.0463 8.80022L16.5759 9.16759C16.819 9.20284 17.0209 9.373 17.0967 9.60645C17.1727 9.83998 17.1094 10.0963 16.9335 10.2676Z" fill="currentColor"/>
</svg>
