<svg viewBox="0 0 29 28" fill="none" xmlns="http://www.w3.org/2000/svg">
<g clip-path="url(#clip0_91_18778)">
<path d="M15.2067 26.7672C14.7472 26.9444 14.2381 26.9444 13.7786 26.7672C10.1929 25.3904 7.10909 22.9586 4.93463 19.7924C2.76015 16.6264 1.59729 12.8751 1.59961 9.03426V3.08364C1.59961 2.55758 1.80859 2.05304 2.18058 1.68106C2.55257 1.30908 3.05709 1.1001 3.58315 1.1001H25.4021C25.9281 1.1001 26.4327 1.30908 26.8047 1.68106C27.1767 2.05304 27.3857 2.55758 27.3857 3.08364V9.03426C27.3879 12.8751 26.2251 16.6264 24.0507 19.7924C21.8761 22.9586 18.7924 25.3904 15.2067 26.7672Z" stroke="currentColor" stroke-width="2" stroke-linecap="round" stroke-linejoin="round"/>
<path d="M20.5 8L12.5 17L8.5 14" stroke="currentColor" stroke-width="2" stroke-linecap="round" stroke-linejoin="round"/>
</g>
<defs>
<clipPath id="clip0_91_18778">
<rect width="28" height="28" fill="white" transform="translate(0.5)"/>
</clipPath>
</defs>
</svg>
