<svg viewBox="0 0 18 18" fill="none" xmlns="http://www.w3.org/2000/svg">
    <g>
        <path d="M0.652588 0.642883H3.79252L4.91109 11.7643C4.95759 12.0709 5.11331 12.3503 5.34959 12.5512C5.58585 12.752 5.88675 12.8606 6.19681 12.8572H14.2968C14.5772 12.8718 14.8547 12.7943 15.0868 12.6364C15.319 12.4785 15.493 12.249 15.5825 11.9829L17.2925 6.84003C17.3563 6.64668 17.3733 6.44094 17.3419 6.23978C17.3107 6.0386 17.232 5.84774 17.1125 5.68288C16.9881 5.50761 16.8216 5.36635 16.6285 5.27201C16.4353 5.17767 16.2215 5.13328 16.0068 5.14288H4.24252" stroke="currentColor" stroke-width="1.2" stroke-linecap="round" stroke-linejoin="round"/>
        <path d="M14.0783 17.3572C13.7233 17.3572 13.4354 17.0693 13.4354 16.7143C13.4354 16.3593 13.7233 16.0715 14.0783 16.0715C14.4333 16.0715 14.7211 16.3593 14.7211 16.7143C14.7211 17.0693 14.4333 17.3572 14.0783 17.3572Z" stroke="currentColor" stroke-width="1.2" stroke-linecap="round" stroke-linejoin="round"/>
        <path d="M5.7211 17.3572C5.36605 17.3572 5.07825 17.0693 5.07825 16.7143C5.07825 16.3593 5.36605 16.0715 5.7211 16.0715C6.07614 16.0715 6.36396 16.3593 6.36396 16.7143C6.36396 17.0693 6.07614 17.3572 5.7211 17.3572Z" stroke="currentColor" stroke-width="1.2" stroke-linecap="round" stroke-linejoin="round"/>
    </g>
</svg>
