<svg viewBox="0 0 24 24" fill="none" xmlns="http://www.w3.org/2000/svg">
    <path d="M10.1172 23.2969C11.1571 23.2969 12 22.4539 12 21.414C12 20.3742 11.1571 19.5312 10.1172 19.5312C9.07735 19.5312 8.23438 20.3742 8.23438 21.414C8.23438 22.4539 9.07735 23.2969 10.1172 23.2969Z" stroke="currentcolor" stroke-width="1.40625" stroke-miterlimit="10" stroke-linecap="round" stroke-linejoin="round"/>
    <path d="M18.4016 23.2969C19.4415 23.2969 20.2845 22.4539 20.2845 21.414C20.2845 20.3742 19.4415 19.5312 18.4016 19.5312C17.3618 19.5312 16.5188 20.3742 16.5188 21.414C16.5188 22.4539 17.3618 23.2969 18.4016 23.2969Z" stroke="currentcolor" stroke-width="1.40625" stroke-miterlimit="10" stroke-linecap="round" stroke-linejoin="round"/>
    <path d="M18.4015 19.5313H9.36403C8.32434 19.5313 7.4812 18.6881 7.4812 17.6484C7.4812 16.6087 8.32434 15.7656 9.36403 15.7656" stroke="currentcolor" stroke-width="1.40625" stroke-miterlimit="10" stroke-linecap="round" stroke-linejoin="round"/>
    <path d="M23.2969 6.72811H5.22192C5.22192 6.72811 6.3166 11.1072 6.98199 13.7691C7.27533 14.9424 8.32969 15.7656 9.5392 15.7656C12.0938 15.7656 16.425 15.7656 18.9796 15.7656C20.1892 15.7656 21.2435 14.9424 21.5369 13.7691C22.2023 11.1072 23.2969 6.72811 23.2969 6.72811Z" stroke="currentcolor" stroke-width="1.40625" stroke-miterlimit="10" stroke-linecap="round" stroke-linejoin="round"/>
    <path d="M5.22188 6.72811C5.22188 6.72811 4.83023 5.16122 4.44614 3.62559C4.01686 1.90814 2.47373 0.703125 0.703125 0.703125" stroke="currentcolor" stroke-width="1.40625" stroke-miterlimit="10" stroke-linecap="round" stroke-linejoin="round"/>
</svg>
