<svg viewBox="0 0 22 23" fill="none" xmlns="http://www.w3.org/2000/svg">
<path d="M12.175 8.00001L6.575 3.82501C6.34167 3.65834 6.20833 3.44167 6.175 3.17501C6.14167 2.90834 6.20833 2.65834 6.375 2.42501C6.54167 2.19167 6.75833 2.05417 7.025 2.01251C7.29167 1.97084 7.54167 2.03334 7.775 2.20001L13.375 6.4L12.175 8.00001ZM8.35 6.4L7.45 7.32501C7.36667 7.40834 7.2875 7.49584 7.2125 7.58751C7.1375 7.67917 7.06667 7.77501 7 7.87501L5.575 6.82501C5.34167 6.65834 5.20833 6.44167 5.175 6.175C5.14167 5.90834 5.20833 5.65834 5.375 5.425C5.54167 5.19167 5.75833 5.05834 6.025 5.025C6.29167 4.99167 6.54167 5.05834 6.775 5.22501L8.35 6.4ZM17.575 8.27501L9.975 2.60001C9.74167 2.43334 9.60417 2.21667 9.5625 1.95001C9.52083 1.68334 9.58333 1.43334 9.75 1.20001C9.91667 0.966672 10.1333 0.833338 10.4 0.800005C10.6667 0.766672 10.9167 0.833338 11.15 1.00001L16.05 4.65001L16.275 2.92501C16.325 2.52501 16.4833 2.18334 16.75 1.90001C17.0167 1.61667 17.3417 1.44167 17.725 1.37501L18.725 1.22501L21.075 9.12501C21.2083 9.57501 21.2333 10.0333 21.15 10.5C21.0667 10.9667 20.8833 11.3917 20.6 11.775L18.475 14.6C18.4417 14.2 18.3542 13.8125 18.2125 13.4375C18.0708 13.0625 17.8833 12.7083 17.65 12.375L19 10.575C19.1 10.4417 19.1583 10.3 19.175 10.15C19.1917 10 19.1833 9.85001 19.15 9.70001L17.95 5.62501L17.575 8.27501ZM5.75 10.675L5.4 10.425C5.16667 10.2583 5.02917 10.0417 4.9875 9.77501C4.94583 9.50834 5.00833 9.25834 5.175 9.02501C5.34167 8.79167 5.55833 8.65834 5.825 8.62501C6.09167 8.59167 6.34167 8.65834 6.575 8.82501L6.6 8.85001C6.51667 9.15001 6.4875 9.45417 6.5125 9.76251C6.5375 10.0708 6.6 10.375 6.7 10.675H5.75ZM1 17C0.716667 17 0.479167 16.9042 0.2875 16.7125C0.0958333 16.5208 0 16.2833 0 16C0 15.7167 0.0958333 15.4792 0.2875 15.2875C0.479167 15.0958 0.716667 15 1 15H8V17H1ZM2 20C1.71667 20 1.47917 19.9042 1.2875 19.7125C1.09583 19.5208 1 19.2833 1 19C1 18.7167 1.09583 18.4792 1.2875 18.2875C1.47917 18.0958 1.71667 18 2 18H8V20H2ZM4 23C3.71667 23 3.47917 22.9042 3.2875 22.7125C3.09583 22.5208 3 22.2833 3 22C3 21.7167 3.09583 21.4792 3.2875 21.2875C3.47917 21.0958 3.71667 21 4 21H14C14.2833 21 14.5208 20.9042 14.7125 20.7125C14.9042 20.5208 15 20.2833 15 20V15C15 14.8333 14.9667 14.6833 14.9 14.55C14.8333 14.4167 14.7333 14.3 14.6 14.2L11.2 11.65L12.5 14H3C2.71667 14 2.47917 13.9042 2.2875 13.7125C2.09583 13.5208 2 13.2833 2 13C2 12.7167 2.09583 12.4792 2.2875 12.2875C2.47917 12.0958 2.71667 12 3 12H9.1L8.25 10.5C8.05 10.15 7.97083 9.77917 8.0125 9.38751C8.05417 8.99584 8.21667 8.65834 8.5 8.37501L9.2 7.67501L15.8 12.6C16.1833 12.8833 16.4792 13.2333 16.6875 13.65C16.8958 14.0667 17 14.5167 17 15V20C17 20.8333 16.7083 21.5417 16.125 22.125C15.5417 22.7083 14.8333 23 14 23H4Z" fill="#A8A8A8"/>
</svg>
