<svg viewBox="0 0 24 24" fill="none" xmlns="http://www.w3.org/2000/svg">
    <path d="M4.54961 19.45H14.4496V14.45H19.4496V4.54998H4.54961V19.45ZM4.54961 21.15C4.08294 21.15 3.68294 20.9833 3.34961 20.65C3.01628 20.3166 2.84961 19.9166 2.84961 19.45V4.54998C2.84961 4.08331 3.01628 3.68331 3.34961 3.34998C3.68294 3.01664 4.08294 2.84998 4.54961 2.84998H19.4496C19.9163 2.84998 20.3163 3.01664 20.6496 3.34998C20.9829 3.68331 21.1496 4.08331 21.1496 4.54998V15.025L15.0246 21.15H4.54961ZM7.54961 13.55V12H11.7496V13.55H7.54961ZM7.54961 9.49998V7.92498H16.4496V9.49998H7.54961ZM4.54961 19.45V14.45V4.54998V19.45Z" fill="currentColor"/>
</svg>
