<svg viewBox="0 0 18 18" fill="none" xmlns="http://www.w3.org/2000/svg">
    <path d="M15.0667 16.0715C15.0667 16.4124 14.9312 16.7395 14.6902 16.9806C14.449 17.2217 14.122 17.3572 13.781 17.3572H2.20954C1.86855 17.3572 1.54152 17.2217 1.3004 16.9806C1.05929 16.7395 0.923828 16.4124 0.923828 16.0715V1.9286C0.923828 1.5876 1.05929 1.26058 1.3004 1.01946C1.54152 0.778342 1.86855 0.642883 2.20954 0.642883H9.39127C9.73226 0.642883 10.0593 0.778342 10.3004 1.01946L14.6902 5.40917C14.9312 5.65028 15.0667 5.97731 15.0667 6.3183V16.0715Z" stroke="currentColor" stroke-width="1.2" stroke-linecap="round" stroke-linejoin="round"/>
    <path d="M8.71387 8.19647H11.9282" stroke="currentColor" stroke-width="1.2" stroke-linecap="round" stroke-linejoin="round"/>
    <path d="M8.71387 12.6562H11.9282" stroke="currentColor" stroke-width="1.2" stroke-linecap="round" stroke-linejoin="round"/>
    <path d="M3.74121 12.5835L4.8185 13.6608L6.61397 11.1471" stroke="currentColor" stroke-width="1.2" stroke-linecap="round" stroke-linejoin="round"/>
    <path d="M3.74121 8.04326L4.8185 9.12055L6.61397 6.60687" stroke="currentColor" stroke-width="1.2" stroke-linecap="round" stroke-linejoin="round"/>
</svg>
