<svg viewBox="0 0 24 24" fill="none" xmlns="http://www.w3.org/2000/svg">
    <path d="M4.05039 21.3251C3.38372 21.3251 2.81706 21.0917 2.35039 20.625C1.88372 20.1584 1.65039 19.5917 1.65039 18.925C1.65039 18.2584 1.88372 17.6917 2.35039 17.225C2.81706 16.7584 3.38372 16.525 4.05039 16.525C4.15039 16.525 4.26706 16.5334 4.40039 16.55C4.53372 16.5667 4.67539 16.6 4.82539 16.65L9.37539 9.55005C8.95872 9.21672 8.63372 8.79171 8.40039 8.27505C8.16706 7.75838 8.05039 7.20005 8.05039 6.60005C8.05039 5.50005 8.43789 4.57088 9.21289 3.81255C9.98789 3.05422 10.9171 2.67505 12.0004 2.67505C13.1004 2.67505 14.0337 3.05422 14.8004 3.81255C15.5671 4.57088 15.9504 5.50005 15.9504 6.60005C15.9504 7.20005 15.8337 7.75838 15.6004 8.27505C15.3671 8.79171 15.0421 9.21672 14.6254 9.55005L19.1754 16.65C19.3254 16.6 19.4671 16.5667 19.6004 16.55C19.7337 16.5334 19.8504 16.525 19.9504 16.525C20.6337 16.525 21.2046 16.7584 21.6629 17.225C22.1212 17.6917 22.3504 18.2584 22.3504 18.925C22.3504 19.5917 22.1212 20.1584 21.6629 20.625C21.2046 21.0917 20.6337 21.3251 19.9504 21.3251C19.3004 21.3251 18.7379 21.0917 18.2629 20.625C17.7879 20.1584 17.5504 19.5917 17.5504 18.925C17.5504 18.6417 17.6087 18.3667 17.7254 18.1C17.8421 17.8334 17.9921 17.575 18.1754 17.325L13.6254 10.2C13.4587 10.2834 13.2921 10.35 13.1254 10.4C12.9587 10.45 12.7837 10.4834 12.6004 10.5V16.6C13.1171 16.7834 13.5462 17.0875 13.8879 17.5125C14.2296 17.9375 14.4004 18.4084 14.4004 18.925C14.4004 19.5917 14.1671 20.1584 13.7004 20.625C13.2337 21.0917 12.6671 21.3251 12.0004 21.3251C11.3504 21.3251 10.7879 21.0917 10.3129 20.625C9.83789 20.1584 9.60039 19.5917 9.60039 18.925C9.60039 18.4084 9.77122 17.9375 10.1129 17.5125C10.4546 17.0875 10.8837 16.7834 11.4004 16.6V10.5C11.2171 10.4834 11.0421 10.45 10.8754 10.4C10.7087 10.35 10.5421 10.2834 10.3754 10.2L5.82539 17.325C6.00872 17.575 6.15872 17.8334 6.27539 18.1C6.39206 18.3667 6.45039 18.6417 6.45039 18.925C6.45039 19.5917 6.21706 20.1584 5.75039 20.625C5.28372 21.0917 4.71706 21.3251 4.05039 21.3251ZM4.05039 19.7001C4.26706 19.7001 4.44622 19.6209 4.58789 19.4625C4.72956 19.3042 4.80039 19.125 4.80039 18.925C4.80039 18.7084 4.72956 18.5292 4.58789 18.3875C4.44622 18.2459 4.26706 18.175 4.05039 18.175C3.83372 18.175 3.65039 18.2459 3.50039 18.3875C3.35039 18.5292 3.27539 18.7084 3.27539 18.925C3.27539 19.125 3.35039 19.3042 3.50039 19.4625C3.65039 19.6209 3.83372 19.7001 4.05039 19.7001ZM12.0004 8.92505C12.6504 8.92505 13.1962 8.69588 13.6379 8.23755C14.0796 7.77922 14.3004 7.24172 14.3004 6.62505C14.3004 5.97505 14.0796 5.42505 13.6379 4.97505C13.1962 4.52505 12.6504 4.30005 12.0004 4.30005C11.3671 4.30005 10.8254 4.52505 10.3754 4.97505C9.92539 5.42505 9.70039 5.97505 9.70039 6.62505C9.70039 7.24172 9.92539 7.77922 10.3754 8.23755C10.8254 8.69588 11.3671 8.92505 12.0004 8.92505ZM12.0004 19.7001C12.2171 19.7001 12.3962 19.6209 12.5379 19.4625C12.6796 19.3042 12.7504 19.125 12.7504 18.925C12.7504 18.7084 12.6796 18.5292 12.5379 18.3875C12.3962 18.2459 12.2171 18.175 12.0004 18.175C11.8004 18.175 11.6254 18.2459 11.4754 18.3875C11.3254 18.5292 11.2504 18.7084 11.2504 18.925C11.2504 19.125 11.3254 19.3042 11.4754 19.4625C11.6254 19.6209 11.8004 19.7001 12.0004 19.7001ZM19.9504 19.7001C20.1671 19.7001 20.3504 19.6209 20.5004 19.4625C20.6504 19.3042 20.7254 19.125 20.7254 18.925C20.7254 18.7084 20.6504 18.5292 20.5004 18.3875C20.3504 18.2459 20.1671 18.175 19.9504 18.175C19.7504 18.175 19.5754 18.2459 19.4254 18.3875C19.2754 18.5292 19.2004 18.7084 19.2004 18.925C19.2004 19.125 19.2754 19.3042 19.4254 19.4625C19.5754 19.6209 19.7504 19.7001 19.9504 19.7001Z" fill="currentColor"/>
</svg>
