<svg xmlns="http://www.w3.org/2000/svg" width="100" height="100" viewBox="0 0 100 100" fill="none">
    <path d="M100 40.5815V89.3903C100 90.4084 99.7324 91.3642 99.2595 92.1891C98.7565 93.0785 98.0161 93.8189 97.1247 94.3219C96.2998 94.7907 95.3481 95.0583 94.332 95.0583H5.66801C4.65191 95.0583 3.7002 94.7907 2.87525 94.3219C1.9839 93.8189 1.24346 93.0785 0.740443 92.1891C0.267606 91.3642 0 90.4084 0 89.3903V40.5815C0 38.994 0.651911 37.5593 1.70423 36.5312H98.2958C99.3481 37.5593 100 38.994 100 40.5815Z" fill="#0593FC"></path>
    <path d="M99.2595 92.1891C98.7564 93.0785 98.016 93.8189 97.1247 94.3219L68.0703 65.3078C67.4808 64.7183 67.4808 63.7646 68.0683 63.173C68.6579 62.5835 69.6136 62.5835 70.2031 63.173L99.2595 92.1891Z" fill="#0181FA"></path>
    <path d="M31.9294 65.3078L2.87504 94.3219C1.9837 93.8189 1.24325 93.0785 0.740234 92.1891L29.7966 63.173C30.3861 62.5835 31.3418 62.5835 31.9314 63.173C32.5189 63.7646 32.5189 64.7183 31.9294 65.3078Z" fill="#0181FA"></path>
    <path d="M98.2956 36.532L57.694 75.1115C53.3822 79.208 46.6176 79.208 42.3057 75.1115L1.7041 36.532C2.72623 35.53 4.12462 34.9143 5.66788 34.9143H94.3319C95.8751 34.9143 97.2735 35.53 98.2956 36.532Z" fill="#CEEBF7"></path>
    <path d="M51.7639 86.4187H48.2361C46.2594 86.4187 44.6572 84.8163 44.6572 82.8398V71.2978C44.6572 69.3211 46.2596 67.7189 48.2361 67.7189H51.7639C53.7405 67.7189 55.3427 69.3213 55.3427 71.2978V82.8398C55.3427 84.8163 53.7403 86.4187 51.7639 86.4187Z" fill="#FFAF20"></path>
    <path d="M50 55C63.8071 55 75 43.8071 75 30C75 16.1929 63.8071 4.99998 50 4.99998C36.1929 4.99998 25 16.1929 25 30C25 43.8071 36.1929 55 50 55Z" fill="#2CF299"></path>
    <path d="M46.5701 42C46.1748 42.0001 45.7836 41.9207 45.4196 41.7666C45.0556 41.6125 44.7263 41.3868 44.4512 41.1029L34.8541 31.2089C34.5796 30.9314 34.3628 30.6022 34.2162 30.2403C34.0697 29.8785 33.9962 29.4911 34.0002 29.1007C34.0041 28.7102 34.0853 28.3244 34.2392 27.9656C34.393 27.6067 34.6164 27.282 34.8964 27.01C35.1764 26.7381 35.5075 26.5244 35.8706 26.3813C36.2337 26.2382 36.6215 26.1685 37.0116 26.1763C37.4017 26.1841 37.7864 26.2692 38.1435 26.4267C38.5006 26.5841 38.8229 26.8109 39.0919 27.0937L46.4955 34.7261L59.8871 19.9393C60.4163 19.3717 61.1473 19.0352 61.9224 19.0026C62.6974 18.97 63.4542 19.2438 64.0292 19.7648C64.6041 20.2859 64.9511 21.0124 64.9952 21.7874C65.0393 22.5624 64.7769 23.3237 64.2647 23.9067L48.7622 41.0316C48.4903 41.331 48.1599 41.5714 47.7915 41.738C47.4231 41.9046 47.0244 41.9937 46.6202 42H46.5701Z" fill="white"></path>
</svg>