<svg viewBox="0 0 24 24" fill="none" xmlns="http://www.w3.org/2000/svg">
    <path d="M8.55039 21.1001C8.10039 21.1001 7.70039 20.9251 7.35039 20.5751C7.00039 20.2251 6.82539 19.8251 6.82539 19.3751V8.8751C6.82539 8.6251 6.86289 8.40426 6.93789 8.2126C7.01289 8.02093 7.15872 7.81676 7.37539 7.6001L13.8754 0.975098L14.9504 1.8501C15.0671 1.9501 15.1546 2.08343 15.2129 2.2501C15.2712 2.41676 15.3004 2.61676 15.3004 2.8501V3.0501L14.1754 8.1251H21.5254C21.9754 8.1251 22.3712 8.29593 22.7129 8.6376C23.0546 8.97926 23.2254 9.3751 23.2254 9.8251V11.6001C23.2254 11.8501 23.2129 12.0626 23.1879 12.2376C23.1629 12.4126 23.1421 12.5334 23.1254 12.6001L20.0504 19.7001C19.8837 20.0834 19.6087 20.4126 19.2254 20.6876C18.8421 20.9626 18.4421 21.1001 18.0254 21.1001H8.55039ZM8.55039 19.3751H18.3504L21.5004 11.8751V9.8251H12.1754L13.4504 3.7501L8.55039 8.8751V19.3751ZM0.775391 21.1001H5.32539V8.8751H0.775391V21.1001ZM8.55039 19.3751V8.8751V9.8251V11.8751V19.3751Z" fill="currentColor"/>
</svg>
