<svg viewBox="0 0 24 24" fill="none" xmlns="http://www.w3.org/2000/svg">
    <path d="M10.1254 23.0499L9.05039 22.1749C8.93372 22.0916 8.84622 21.9666 8.78789 21.7999C8.72956 21.6333 8.70039 21.4333 8.70039 21.2V21L9.82539 15.925H2.47539C2.02539 15.925 1.62956 15.7541 1.28789 15.4125C0.946224 15.0708 0.775391 14.675 0.775391 14.225V12.425C0.775391 12.175 0.787891 11.9625 0.812891 11.7875C0.837891 11.6125 0.858724 11.5 0.875391 11.45L3.95039 4.34995C4.11706 3.96662 4.39206 3.63745 4.77539 3.36245C5.15872 3.08745 5.55872 2.94995 5.97539 2.94995H15.4504C15.9004 2.94995 16.3004 3.12078 16.6504 3.46245C17.0004 3.80412 17.1754 4.19995 17.1754 4.64995V15.175C17.1754 15.425 17.1379 15.6416 17.0629 15.825C16.9879 16.0083 16.8421 16.2083 16.6254 16.425L10.1254 23.0499ZM10.5504 20.2999L15.4504 15.175V4.64995H5.65039L2.50039 12.15V14.225H11.8254L10.5504 20.2999ZM18.6754 15.175H23.2254V2.94995H18.6754V15.175ZM15.4504 14.225V12.15V4.64995V15.175V14.225Z" fill="currentColor"/>
</svg>
