<svg width="24" height="22" viewBox="0 0 24 22" fill="none" xmlns="http://www.w3.org/2000/svg">
    <path
        d="M15.5621 7.48454L14.1558 7.48389L14.1533 13.1092H19.7808V11.703H15.5602L15.5621 7.48454Z"
        fill="#18993A" />
    <path
        d="M20.6603 5.34748L21.8881 3.59408L20.7361 2.7875L19.5092 4.53973C18.3361 3.84364 16.9951 3.40189 15.5625 3.29239V1.85938H16.9688V0.453125H15.5625H14.1562H12.75V1.85938H14.1562V3.29239C12.7236 3.40189 11.3827 3.84364 10.2095 4.53973L8.98261 2.7875L7.8307 3.59408L9.05845 5.34748C7.91414 6.28958 7.00223 7.50406 6.4223 8.89062H2.90625V10.2969H5.96489C5.85661 10.7535 5.78222 11.2231 5.74556 11.7031H0V13.1094H5.74552C5.78222 13.5894 5.85656 14.059 5.96484 14.5156H2.90625V15.9219H6.42225C7.80253 19.222 11.0644 21.5469 14.8594 21.5469C19.8995 21.5469 24 17.4464 24 12.4062C24 9.56656 22.6983 7.02528 20.6603 5.34748ZM14.8594 20.1406C11.8597 20.1406 9.2535 18.4242 7.97119 15.9219H9.9375V14.5156H7.41741C7.28873 14.0623 7.20103 13.5921 7.1573 13.1094H8.53125V11.7031H7.1573C7.20103 11.2204 7.28873 10.7502 7.41741 10.2969H9.9375V8.89062H7.97119C9.2535 6.38834 11.8597 4.67188 14.8594 4.67188C19.1241 4.67188 22.5938 8.14152 22.5938 12.4062C22.5938 16.671 19.1241 20.1406 14.8594 20.1406Z"
        fill="#18993A" />
</svg>