<svg width="66px" height="40px" viewBox="0 0 66 40" version="1.1" xmlns="http://www.w3.org/2000/svg" xmlns:xlink="http://www.w3.org/1999/xlink">
    <!-- Generator: sketchtool 53.1 (72631) - https://sketchapp.com -->
    <title>116AA8F3-C8C4-445D-BF53-DE908D160D38</title>
    <desc>Created with sketchtool.</desc>
    <g id="Page-1" stroke="none" stroke-width="1" fill="none" fill-rule="evenodd">
        <g id="Class-detail" transform="translate(-817.000000, -491.000000)" fill-rule="nonzero">
            <g id="Total-Courses" transform="translate(780.000000, 464.000000)">
                <g id="Total-course" transform="translate(37.000000, 27.000000)">
                    <polygon id="Path" fill="#FFD15C" points="4.62491069 1.86119848 61.467016 1.86119848 61.467016 36.5980406 4.62491069 36.5980406"></polygon>
                    <polygon id="Path" fill="#FFFFFF" points="33.6842105 22.5952494 23.1578947 17.3684211 23.1578947 24.446437 33.6842105 30 44.2105263 24.446437 44.2105263 17.3684211"></polygon>
                    <polygon id="Path" fill="#FFFFFF" points="33.6842105 6.84210526 17.8947368 14.2105263 33.6842105 21.5789474 49.4736842 14.2105263"></polygon>
                    <path d="M65.179989,37.8956352 L61.3004199,37.8956352 C61.6362394,37.4261036 61.8388694,36.8536843 61.8388694,36.2329476 L61.8388694,2.87573903 C61.8388694,1.28979084 60.5462489,0 58.9582211,0 L6.26700126,0 C4.67954258,0 3.38749124,1.29035928 3.38749124,2.87573903 L3.38749124,36.2329476 C3.38749124,36.86619 3.60036666,37.4482727 3.94927744,37.9246256 L0.0327112367,37.9246256 C0.0327112367,37.9246256 -0.143167118,38.1025474 0.320719157,38.5652577 C1.63610711,39.8794915 4.59074963,39.9931796 4.59074963,39.9931796 L4.59074963,39.9897689 C4.59074963,39.9897689 59.9349436,40.002843 59.9964156,39.9994324 C63.0814016,39.9994324 64.0774765,39.0757171 64.8931194,38.5368357 C65.4970254,37.9308785 65.179989,37.8956352 65.179989,37.8956352 Z M36.3126022,38.5970904 L28.8978213,38.5970904 L28.8978213,38.0940208 L36.3114639,38.0940208 L36.3126022,38.5970904 L36.3126022,38.5970904 Z M59.7129612,35.5718516 L5.42745248,35.5718516 L5.42745248,1.93894956 L59.7135304,1.93894956 L59.7135304,35.5718516 L59.7129612,35.5718516 Z" id="Shape" fill="#4D79F6"></path>
                </g>
            </g>
        </g>
    </g>
</svg>