<svg viewBox="0 0 24 24" fill="none" xmlns="http://www.w3.org/2000/svg">
    <path d="M4.92578 22.1501V1.8501H6.62578V3.9001H21.3008L19.2008 8.9251L21.3008 13.9501H6.62578V22.1501H4.92578ZM6.62578 5.6001V8.9251V12.2501V5.6001ZM12.5758 10.7251C13.0758 10.7251 13.5008 10.5501 13.8508 10.2001C14.2008 9.8501 14.3758 9.4251 14.3758 8.9251C14.3758 8.4251 14.1966 8.0001 13.8383 7.6501C13.4799 7.3001 13.0591 7.1251 12.5758 7.1251C12.0758 7.1251 11.6508 7.3001 11.3008 7.6501C10.9508 8.0001 10.7758 8.4251 10.7758 8.9251C10.7758 9.4251 10.9508 9.8501 11.3008 10.2001C11.6508 10.5501 12.0758 10.7251 12.5758 10.7251ZM6.62578 12.2501H18.7758L17.4008 8.9251L18.7758 5.6001H6.62578V12.2501Z" fill="currentColor"/>
</svg>
