<svg viewBox="0 0 16 16" fill="none" xmlns="http://www.w3.org/2000/svg">
	<path d="M1.14258 4H14.8569" stroke="currentColor" stroke-width="1.2" stroke-linecap="round" stroke-linejoin="round" />
	<path d="M2.85742 4H13.1431V14.2857C13.1431 14.5888 13.0227 14.8795 12.8084 15.0938C12.5941 15.3081 12.3034 15.4286 12.0003 15.4286H4.00028C3.69717 15.4286 3.40648 15.3081 3.19215 15.0938C2.97783 14.8795 2.85742 14.5888 2.85742 14.2857V4Z" stroke="currentColor" stroke-width="1.2" stroke-linecap="round" stroke-linejoin="round" />
	<path d="M5.14258 3.99998V3.42855C5.14258 2.67079 5.4436 1.94406 5.97941 1.40825C6.51523 0.872431 7.24196 0.571411 7.99972 0.571411C8.75748 0.571411 9.48421 0.872431 10.02 1.40825C10.5558 1.94406 10.8569 2.67079 10.8569 3.42855V3.99998" stroke="currentColor" stroke-width="1.2" stroke-linecap="round" stroke-linejoin="round" />
	<path d="M6.28516 7.43018V12.0034" stroke="currentColor" stroke-width="1.2" stroke-linecap="round" stroke-linejoin="round" />
	<path d="M9.71484 7.43018V12.0034" stroke="currentColor" stroke-width="1.2" stroke-linecap="round" stroke-linejoin="round" />
</svg>
