<svg viewBox="0 0 14 14" fill="none" xmlns="http://www.w3.org/2000/svg">
    <g>
        <path d="M12.9537 8.18604H10.6024V1.9259H12.9537C13.0852 1.9259 13.2114 1.9781 13.3044 2.0712C13.3974 2.1642 13.4497 2.2904 13.4497 2.4219V7.68999C13.4497 7.82155 13.3974 7.94772 13.3044 8.04075C13.2114 8.13377 13.0852 8.18604 12.9537 8.18604Z" stroke="currentColor" stroke-linecap="round" stroke-linejoin="round"/>
        <path d="M10.6025 8.18642L8.08261 12.2144C7.98495 12.3736 7.84772 12.5048 7.68429 12.5952C7.52086 12.6856 7.33679 12.7321 7.15003 12.7302C7.00294 12.7356 6.85628 12.7113 6.71872 12.659C6.58115 12.6066 6.45548 12.5273 6.34911 12.4255C6.24275 12.3238 6.15786 12.2018 6.09947 12.0667C6.04107 11.9316 6.01035 11.7861 6.00912 11.6389V8.75192H1.65378C1.49288 8.7467 1.33488 8.70748 1.19018 8.63682C1.04548 8.56617 0.917379 8.4657 0.814279 8.342C0.711179 8.2183 0.635479 8.07419 0.592079 7.91913C0.548679 7.76407 0.538579 7.60158 0.562479 7.44235L1.35618 2.3231C1.38998 2.0495 1.52268 1.7977 1.72908 1.615C1.93548 1.4323 2.20158 1.3313 2.47728 1.331L8.98542 1.331C9.29523 1.3298 9.60102 1.4011 9.87831 1.5394L10.5926 1.8965" stroke="currentColor" stroke-linecap="round" stroke-linejoin="round"/>
        <path d="M10.6025 8.18628V1.9261" stroke="currentColor" stroke-linecap="round" stroke-linejoin="round"/>
    </g>
</svg>
