<svg viewBox="0 0 16 16" fill="none" xmlns="http://www.w3.org/2000/svg">
    <path d="M15.0633 15.4286C14.5834 13.9323 13.6408 12.6272 12.3716 11.7013C11.1022 10.7753 9.57156 10.2764 8.00036 10.2764C6.42915 10.2764 4.89853 10.7753 3.62917 11.7013C2.35982 12.6272 1.4173 13.9323 0.9375 15.4286H15.0633Z" stroke="currentColor" stroke-linecap="round" stroke-linejoin="round"/>
    <path d="M8.0007 10.2857C10.6719 10.2857 12.8374 8.12026 12.8374 5.44906C12.8374 2.77786 10.6719 0.612427 8.0007 0.612427C5.3295 0.612427 3.16406 2.77786 3.16406 5.44906C3.16406 8.12026 5.3295 10.2857 8.0007 10.2857Z" stroke="currentColor" stroke-linecap="round" stroke-linejoin="round"/>
    <path d="M9.57953 7.32043C9.57953 7.32043 9.17821 8.11008 8.00021 8.11008C6.82221 8.11008 6.4209 7.32043 6.4209 7.32043" stroke="currentColor" stroke-linecap="round" stroke-linejoin="round"/>
    <path d="M12.7493 4.5282C12.7384 4.52827 12.7277 4.5283 12.717 4.5283C11.3111 4.5283 10.0488 3.91323 9.1847 2.9375C8.32056 3.91325 7.05835 4.52834 5.65246 4.52834C4.83607 4.52834 4.06812 4.32092 3.39844 3.95591C4.02763 2.01545 5.85006 0.612427 8.0002 0.612427C10.3565 0.612427 12.3192 2.29742 12.7493 4.5282Z" stroke="currentColor" stroke-linecap="round" stroke-linejoin="round"/>
</svg>
