<svg viewBox="0 0 24 24" fill="none" xmlns="http://www.w3.org/2000/svg">
    <g clip-path="url(#clip0_2001_1184_351biuacs)">
        <path d="M4.04537 17.1347C4.05985 17.1093 4.07432 17.0833 4.08822 17.0573C4.14266 17.0309 4.19768 17.0049 4.25212 16.9784C4.27529 16.9644 4.29903 16.9493 4.3222 16.9348C4.30135 16.9234 4.2805 16.9125 4.25965 16.901C4.27471 16.8662 4.28513 16.8034 4.3054 16.8008C4.6222 16.7582 4.70386 16.4643 4.94073 16.3282C5.22452 16.1651 5.46139 15.9361 5.71795 15.7357C5.73475 15.7253 5.75212 15.7149 5.76892 15.7045C6.50965 15.2143 7.32568 14.8585 8.20135 14.6092C8.32066 14.5755 8.44691 14.5599 8.56332 14.521C8.63629 14.4966 8.6971 14.4436 8.7915 14.3865C8.99826 14.4327 9.24035 14.4285 9.46506 14.2971C9.47664 14.2971 9.4888 14.2971 9.50039 14.2961C9.84266 14.2914 10.1855 14.2883 10.5278 14.2816C10.5979 14.28 10.6674 14.2592 10.7375 14.2587C11.5454 14.2571 12.3544 14.2343 13.1606 14.2649C13.8573 14.2909 14.5627 14.2862 15.2415 14.4794C15.3405 14.5075 15.4552 14.4893 15.5629 14.4929C15.6075 14.5194 15.6515 14.5459 15.6961 14.5724C16.0106 14.6788 16.3239 14.7869 16.6396 14.8897C16.7178 14.9151 16.8023 14.9245 16.884 14.9416C16.8776 14.9515 16.8712 14.9619 16.8649 14.9717C16.8724 14.9629 16.8805 14.9541 16.888 14.9452C17.0838 15.0413 17.279 15.1379 17.4747 15.234C17.5118 15.2641 17.5488 15.2942 17.605 15.3399V15.1987C17.6421 15.2096 17.711 15.22 17.711 15.2314C17.7168 15.5014 17.9896 15.5399 18.1668 15.6604C18.1958 15.6733 18.2247 15.6863 18.2531 15.6993C18.4651 15.8645 18.6405 16.0888 18.893 16.0473C19.0147 16.2057 19.0859 16.3443 19.2023 16.4393C19.361 16.5687 19.4351 16.793 19.7137 16.805C19.7664 16.807 19.811 16.9493 19.8597 17.0272C19.8707 17.0366 19.8817 17.0459 19.8927 17.0553C19.9112 17.0812 19.9291 17.1067 19.9477 17.1326C19.9274 17.1493 19.9077 17.1659 19.8875 17.1825C19.917 17.1919 19.9471 17.2017 19.9766 17.2111C20.1527 17.4494 20.3322 17.6857 20.5031 17.9267C20.5882 18.0467 20.6571 18.1749 20.7336 18.2996C20.7452 18.3131 20.7568 18.3271 20.7683 18.3406C21.0197 18.9087 21.3295 19.4623 21.505 20.0487C21.6568 20.555 21.6533 21.0987 21.7245 21.6253C21.7541 21.845 21.7871 22.0621 21.6347 22.2599C21.6058 22.2859 21.5768 22.3119 21.5479 22.3378C21.5189 22.3633 21.4894 22.3882 21.4604 22.4137C21.4037 22.4417 21.3463 22.4698 21.2896 22.4978H2.69189C2.34556 22.3378 2.24537 22.0823 2.25 21.737C2.261 20.9959 2.40927 20.2813 2.65425 19.5792C2.9554 18.7156 3.42683 17.9314 4.03784 17.2137C4.06042 17.1986 4.08301 17.1835 4.1056 17.1685C4.08533 17.1571 4.06506 17.1461 4.04421 17.1347H4.04537Z" fill="#FF7B01"/>
    </g>
    <path d="M9.86344 13.9264C10.159 13.9234 10.4545 13.9181 10.7501 13.9175C11.4009 13.9164 12.0518 13.9123 12.7027 13.9193C13.0969 13.9234 13.4953 13.9864 13.8843 13.9464C14.1084 13.9234 14.3017 13.9911 14.5079 14.0122C14.7291 14.0346 14.9439 14.1134 15.1634 14.1569C15.3219 14.1887 15.4839 14.2034 15.6442 14.2251C15.6726 14.241 15.7011 14.2575 15.7295 14.2733C16.0523 14.3992 16.3746 14.5262 16.698 14.6497C16.7183 14.6574 16.7479 14.6385 16.7735 14.6315C16.8037 14.6574 16.8339 14.6827 16.8635 14.7085C17.2275 14.9285 17.5922 15.1484 17.9562 15.369C17.9823 15.3807 18.0079 15.3925 18.034 15.4042C18.3725 15.6718 18.7255 15.9224 19.0443 16.2123C19.3224 16.4652 19.5605 16.7627 19.8165 17.0403C19.8421 17.0562 19.8676 17.0721 19.8938 17.0874C20.1759 17.5243 20.4581 17.9613 20.7386 18.3994C20.7572 18.4282 20.7659 18.4635 20.7798 18.4959C20.7914 18.5111 20.803 18.527 20.8146 18.5423C21.0666 19.1857 21.3773 19.8126 21.5532 20.4765C21.7053 21.0499 21.7018 21.6657 21.7732 22.262C21.8029 22.5108 21.836 22.7566 21.6833 22.9806C21.6542 23.0101 21.6252 23.0395 21.5962 23.0689C21.5671 23.0977 21.5375 23.1259 21.5085 23.1547C21.4516 23.1865 21.3941 23.2182 21.3372 23.25H2.69212C2.64857 23.2229 2.60503 23.1959 2.56148 23.1688C2.33387 23.0059 2.25955 22.7866 2.25201 22.5025C2.2253 21.4616 2.46858 20.4742 2.7827 19.498C2.80592 19.425 2.84425 19.3574 2.8756 19.2868C2.88605 19.271 2.89708 19.2557 2.90753 19.2398C3.21585 18.4906 3.62112 17.7995 4.11814 17.1632C4.14427 17.1303 4.18143 17.1062 4.21336 17.0774C4.22788 17.0656 4.24239 17.0544 4.25691 17.0427C4.27143 17.0386 4.28594 17.035 4.30046 17.0309C4.31149 17.0203 4.3231 17.0097 4.33413 16.9992C4.59832 16.7028 4.86192 16.4064 5.12611 16.11C5.13772 16.0982 5.14933 16.0864 5.16095 16.0747C5.35023 15.9124 5.53951 15.7506 5.7288 15.5883C5.74447 15.5771 5.76073 15.5666 5.77641 15.5554C6.05743 15.3743 6.33265 15.1819 6.6218 15.0149C6.83779 14.8897 7.06656 14.7844 7.29823 14.6915C7.74125 14.5139 8.18485 14.3351 8.63774 14.1887C8.88857 14.1081 9.1603 14.0922 9.42216 14.0475C9.45294 14.0181 9.48429 13.9887 9.51506 13.9587C9.60042 13.9587 9.68635 13.9593 9.7717 13.9599C9.80189 13.9487 9.83209 13.9375 9.86228 13.9264H9.86344ZM6.64851 16.474C6.61716 16.5169 6.5858 16.5593 6.55445 16.6022C6.33033 16.7939 6.09924 16.9786 5.88266 17.1791C5.15166 17.8578 4.56813 18.6493 4.18375 19.5768C4.00376 20.0108 3.88008 20.4683 3.73086 20.9147C3.70415 20.9258 3.67744 20.937 3.65074 20.9476C3.66293 20.967 3.67512 20.9864 3.68732 21.0058C3.64725 21.3075 3.60719 21.6092 3.56713 21.9138H20.4796C20.4163 21.5533 20.3681 21.207 20.2915 20.8676C20.2218 20.5583 20.1202 20.256 20.0325 19.9502C20.0209 19.9349 20.0093 19.9196 19.9983 19.9043C19.7968 19.4915 19.6145 19.0675 19.3909 18.6676C18.8974 17.786 18.1229 17.1585 17.4098 16.4769C17.3895 16.4575 17.3651 16.4422 17.3407 16.4293C17.0278 16.2646 16.7131 16.1023 16.4013 15.9347C16.3456 15.9047 16.3078 15.8336 16.2509 15.8159C15.9861 15.733 15.7196 15.6565 15.4508 15.5895C15.1402 15.5119 14.8266 15.4472 14.5143 15.3772C14.4562 15.3625 14.3981 15.3478 14.3407 15.3331C13.972 15.3013 13.6027 15.239 13.234 15.2431C12.0896 15.2572 10.9446 15.2937 9.80015 15.3266C9.23172 15.3431 8.69115 15.503 8.17556 15.7265C7.69712 15.9335 7.24307 16.197 6.77799 16.4358C6.76347 16.4369 6.74838 16.4375 6.73386 16.4387C6.70541 16.4505 6.67696 16.4622 6.64851 16.474Z" fill="black"/>
    <path d="M6.38321 4.97972C7.03467 2.91257 8.42353 1.58348 10.4395 0.901884C10.6694 0.861305 10.9173 0.797203 11.1693 0.778972C11.5287 0.752508 11.8916 0.740746 12.251 0.758389C12.6964 0.780148 13.1405 0.831901 13.5836 0.887181C13.6979 0.901296 13.8036 0.980688 13.9157 1.02303C14.5718 1.26827 15.1826 1.5976 15.7232 2.04925C16.2649 2.5015 16.7253 3.02843 17.0749 3.64769C17.2061 3.87999 17.3141 4.12581 17.4331 4.36575C17.4447 4.38104 17.4563 4.39692 17.4685 4.41221C17.4859 4.46984 17.5034 4.52806 17.5208 4.5857C17.5324 4.60158 17.544 4.61745 17.5556 4.63333C17.6357 4.96855 17.7176 5.30376 17.7943 5.64015C17.8227 5.76482 17.8552 5.89185 17.8575 6.01829C17.8657 6.44231 17.8947 6.86985 17.8523 7.28975C17.7931 7.87137 17.6526 8.44065 17.4244 8.98287C17.4134 8.99875 17.4018 9.01521 17.3907 9.03109C17.1556 9.58625 16.8391 10.0844 16.4449 10.5407C15.9212 11.1465 15.326 11.6516 14.6066 11.9957C14.0243 12.2744 13.4152 12.4679 12.7724 12.5544C11.5502 12.7196 10.3924 12.5044 9.30608 11.9316C8.6163 11.5681 8.00954 11.0835 7.52182 10.4619C7.4144 10.3249 7.35053 10.152 7.23963 10.0191C6.80997 9.50333 6.57075 8.89818 6.38147 8.26245C6.14864 7.48264 6.11554 6.69166 6.21367 5.89068C6.24734 5.61604 6.29728 5.34375 6.33966 5.07029C6.35418 5.04029 6.36869 5.00971 6.38321 4.97972ZM15.999 4.40927C15.7203 3.8941 15.3632 3.43774 14.9085 3.07842C13.8234 2.22156 12.6017 1.88223 11.2291 2.1163C10.3332 2.2692 9.55343 2.64676 8.9101 3.29072C8.63778 3.56359 8.40495 3.87999 8.17096 4.18932C8.06238 4.33341 7.99329 4.50807 7.90619 4.66862C7.89516 4.6845 7.88355 4.70038 7.87252 4.71684C7.80052 4.94267 7.74071 5.1732 7.65478 5.39315C7.50904 5.76718 7.46027 6.15355 7.47537 6.5511C7.48524 6.81869 7.47711 7.09038 7.5224 7.35209C7.59962 7.80139 7.64607 8.26657 7.93813 8.64765C7.95903 8.67529 7.96774 8.71176 7.98632 8.74175C8.17444 9.04873 8.32715 9.38865 8.55998 9.65565C9.15396 10.3349 9.86406 10.8248 10.7518 11.0829C11.3929 11.2694 12.0159 11.3129 12.6621 11.2317C13.3014 11.1512 13.8872 10.923 14.4307 10.5742C15.1751 10.0967 15.7383 9.45511 16.1238 8.65589C16.4582 7.96253 16.6278 7.22976 16.5546 6.45583C16.5204 6.09121 16.4681 5.72601 16.3926 5.36845C16.3253 5.04735 16.208 4.7386 16.035 4.45632L15.9995 4.41045L15.999 4.40927Z" fill="black"/>
    <defs>
        <clipPath id="clip0_2001_1184_351biuacs">
            <rect width="19.5" height="8.25" fill="white" transform="translate(2.25 14.25)"/>
        </clipPath>
    </defs>
</svg>
