<svg width="59px" height="42px" viewBox="0 0 59 42" version="1.1" xmlns="http://www.w3.org/2000/svg" xmlns:xlink="http://www.w3.org/1999/xlink">
    <!-- Generator: sketchtool 53.1 (72631) - https://sketchapp.com -->
    <title>4F1742B1-EACB-49F3-8E07-489D1F9302C8</title>
    <desc>Created with sketchtool.</desc>
    <g id="Page-1" stroke="none" stroke-width="1" fill="none" fill-rule="evenodd">
        <g id="Class-detail" transform="translate(-427.000000, -490.000000)">
            <g id="User" transform="translate(390.000000, 464.000000)">
                <g transform="translate(37.000000, 26.000000)">
                    <path d="M17.247553,21 C14.8421396,20.9799932 12.5946575,20.079687 10.9211944,18.4534195 C9.2750656,16.8614495 8.37910988,14.7578768 8.40036985,12.5342634 C8.44288978,7.93841443 12.4488749,4.2 17.3325928,4.2 L17.402447,4.2 C19.8078604,4.21714869 22.0553425,5.12031303 23.7318427,6.74658047 C25.3749344,8.33855053 26.2708901,10.4421232 26.2496301,12.6657366 C26.2314073,14.8893501 25.2959688,16.9814903 23.6225057,18.5505954 C21.9368941,20.1282749 19.6985234,21 17.3204443,21 L17.247553,21 Z" id="Fill-1" fill="#F8B64C"></path>
                    <path d="M40.95,22.05 C35.1623231,22.05 30.45,17.1044344 30.45,11.0234698 C30.45,4.94556558 35.1623231,0 40.95,0 C46.7376769,0 51.45,4.94556558 51.45,11.0234698 C51.45,17.1044344 46.7376769,22.05 40.95,22.05" id="Fill-3" fill="#FFD15C"></path>
                    <path d="M20.1403965,39.740873 C20.1403965,34.6694224 22.4978576,30.1048272 26.25,26.8348856 C23.5416191,25.1260587 20.3383512,24.15 16.9911163,24.15 L16.1273138,24.15 C7.23434644,24.15 0,30.6116826 0,38.5504868 L0,42 L20.0894081,42 L20.116402,41.542382 C20.1194013,41.4902483 20.1373972,41.4439072 20.1403965,41.3917735 L20.1403965,39.740873 Z" id="Fill-5" fill="#3867EB"></path>
                    <path d="M23.1,42 L23.1,39.7205305 C23.1,31.1316061 30.8732901,24.15 40.4297759,24.15 L41.4702241,24.15 C45.2260613,24.15 48.7954599,25.2079077 51.7995283,27.2126719 C55.9102005,29.959725 58.4481722,34.1562868 58.7639151,38.7356827 C58.7879717,39.0571464 58.8,39.3873772 58.8,39.7205305 L58.8,42 L23.1,42 Z" id="Fill-8" fill="#4D79F6"></path>
                </g>
            </g>
        </g>
    </g>
</svg>