<svg xmlns="http://www.w3.org/2000/svg" fill="none" viewBox="0 0 24 24"><path stroke="currentColor" stroke-linecap="round" stroke-linejoin="round" d="M19.5035 8.29321C20.9851 9.35723 22.3277 10.6025 23.5 12c0 0 -5.1655 6.4943 -11.51 6.4943 -1.0183 -0.0177 -2.02837 -0.186 -2.99739 -0.4995" stroke-width="1"></path><path stroke="currentColor" stroke-linecap="round" stroke-linejoin="round" d="M6.83449 17.1555C4.41203 15.859 2.26149 14.1087 0.5 12c0 0 5.14553 -6.49432 11.49 -6.49432 1.7997 0.03591 3.5657 0.49453 5.1555 1.33883" stroke-width="1"></path><path stroke="currentColor" stroke-linecap="round" stroke-linejoin="round" d="M15.9865 12c0 1.0599 -0.421 2.0765 -1.1705 2.826 -0.7495 0.7495 -1.7661 1.1705 -2.826 1.1705" stroke-width="1"></path><path stroke="currentColor" stroke-linecap="round" stroke-linejoin="round" d="M21.7315 2.25848 2.24847 21.7415" stroke-width="1"></path><path stroke="currentColor" stroke-linecap="round" stroke-linejoin="round" d="M9.16248 14.8276c-0.74991 -0.7499 -1.17121 -1.767 -1.17121 -2.8276 0 -1.0605 0.4213 -2.0776 1.17121 -2.82751 0.74991 -0.74991 1.76702 -1.17121 2.82752 -1.17121 1.0606 0 2.0776 0.4213 2.8276 1.17121" stroke-width="1"></path></svg>