<svg viewBox="0 0 13 12" fill="none" xmlns="http://www.w3.org/2000/svg">
    <path d="M6.66699 4.17859V6.00002L7.73842 7.07145" stroke="currentColor" stroke-linecap="round" stroke-linejoin="round"/>
    <path d="M6.66671 9.85711C8.79695 9.85711 10.5239 8.1302 10.5239 5.99996C10.5239 3.86972 8.79695 2.14282 6.66671 2.14282C4.53647 2.14282 2.80957 3.86972 2.80957 5.99996C2.80957 8.1302 4.53647 9.85711 6.66671 9.85711Z" stroke="currentColor" stroke-linecap="round" stroke-linejoin="round"/>
    <path d="M8.80915 2.78573V1.28573C8.80915 1.0584 8.71884 0.840386 8.5581 0.67964C8.39736 0.518895 8.17934 0.428589 7.95201 0.428589H5.38058C5.15325 0.428589 4.93523 0.518895 4.77449 0.67964C4.61375 0.840386 4.52344 1.0584 4.52344 1.28573V2.78573" stroke="currentColor" stroke-linecap="round" stroke-linejoin="round"/>
    <path d="M8.80915 9.20093V10.7143C8.80915 10.9416 8.71884 11.1597 8.5581 11.3204C8.39736 11.4811 8.17934 11.5714 7.95201 11.5714H5.38058C5.15325 11.5714 4.93523 11.4811 4.77449 11.3204C4.61375 11.1597 4.52344 10.9416 4.52344 10.7143V9.20093" stroke="currentColor" stroke-linecap="round" stroke-linejoin="round"/>
</svg>
