<svg width="103" height="106" viewBox="0 0 103 106" fill="none" xmlns="http://www.w3.org/2000/svg">
<g style="mix-blend-mode:multiply" opacity="0.8">
<path d="M14.3345 58.5987C14.3977 58.7765 14.4103 58.9545 14.3345 58.9799C14.2713 59.0053 14.1575 58.8782 14.0942 58.6876C14.031 58.5097 14.0184 58.3319 14.0942 58.3065C14.1575 58.281 14.2713 58.4081 14.3345 58.5987Z" fill="#AD4200"/>
</g>
<g style="mix-blend-mode:multiply" opacity="0.8">
<path d="M88.7221 58.5987C88.6588 58.7765 88.6462 58.9545 88.7221 58.9799C88.7853 59.0053 88.8991 58.8782 88.9623 58.6876C89.0255 58.5097 89.0382 58.3319 88.9623 58.3065C88.8991 58.281 88.7853 58.4081 88.7221 58.5987Z" fill="#AD4200"/>
</g>
<path fill-rule="evenodd" clip-rule="evenodd" d="M89.8459 54.2206C89.8459 32.7335 72.5189 15.3224 51.1356 15.3224C29.7522 15.3224 12.4252 32.7335 12.4252 54.2206C12.4252 75.7078 29.7522 93.1189 51.1356 93.1189C72.5189 93.1189 89.8459 75.7078 89.8459 54.2206ZM51.1356 18.4172C70.8162 18.4172 86.7661 34.4444 86.7661 54.2206C86.7661 73.9968 70.8162 90.0241 51.1356 90.0241C31.4549 90.0241 15.505 73.9968 15.505 54.2206C15.505 34.4444 31.4549 18.4172 51.1356 18.4172Z" fill="url(#paint0_linear_2003_41888)"/>
<path fill-rule="evenodd" clip-rule="evenodd" d="M87.521 54.6091C87.521 34.6354 71.4119 18.4481 51.5347 18.4481C31.6575 18.4481 15.5484 34.6354 15.5484 54.6091C15.5484 74.5828 31.6575 90.7701 51.5347 90.7701C71.4119 90.7701 87.521 74.5828 87.521 54.6091ZM51.5347 21.561C69.6922 21.561 84.423 36.3507 84.423 54.6091C84.423 72.8675 69.7048 87.6571 51.5347 87.6571C33.3645 87.6571 18.6463 72.8675 18.6463 54.6091C18.6463 36.3507 33.3645 21.561 51.5347 21.561Z" fill="url(#paint1_linear_2003_41888)"/>
<path style="mix-blend-mode:screen" fill-rule="evenodd" clip-rule="evenodd" d="M16.7623 45.2576C20.0751 32.8058 29.824 23.0095 42.2157 19.6806L41.4064 16.6693C27.9527 20.2778 17.3566 30.938 13.7529 44.4571L16.7496 45.2703L16.7623 45.2576Z" fill="url(#paint2_radial_2003_41888)"/>
<path style="mix-blend-mode:screen" opacity="0.5" fill-rule="evenodd" clip-rule="evenodd" d="M83.2976 63.1729C80.2755 74.5447 71.3612 83.5023 60.0443 86.539L60.8536 89.5503C73.2452 86.2214 82.9941 76.4251 86.307 63.9734L83.3102 63.1602L83.2976 63.1729Z" fill="url(#paint3_radial_2003_41888)"/>
<path style="mix-blend-mode:screen" fill-rule="evenodd" clip-rule="evenodd" d="M51.5349 18.4481C71.4121 18.4481 87.5212 34.6354 87.5212 54.6091C87.5212 56.7945 87.3315 58.9291 86.9648 61.0129C87.42 58.7131 87.6603 56.3371 87.6603 53.9103C87.6603 33.9239 71.4879 17.7112 51.5349 17.7112C31.5818 17.7112 15.4095 33.9112 15.4095 53.9103C15.4095 56.3371 15.6498 58.7131 16.105 61.0129C15.7383 58.9291 15.5486 56.7945 15.5486 54.6091C15.5486 34.6354 31.6577 18.4481 51.5349 18.4481Z" fill="url(#paint4_radial_2003_41888)"/>
<path fill-rule="evenodd" clip-rule="evenodd" d="M46.9574 96.9197C36.0705 95.5856 26.5113 89.563 20.1131 80.7705C27.6113 89.7409 38.9029 95.4458 51.5221 95.4458C64.1413 95.4458 75.4329 89.7409 82.9311 80.7705C76.533 89.563 66.9737 95.5856 56.0868 96.9197C53.4188 97.25 52.4578 97.9235 51.5221 99.1813C50.5738 97.9235 49.6254 97.25 46.9574 96.9197Z" fill="#7600ED"/>
<path fill-rule="evenodd" clip-rule="evenodd" d="M46.9574 96.9197C36.0705 95.5856 26.5113 89.563 20.1131 80.7705C27.6113 89.7409 38.9029 95.4458 51.5221 95.4458V99.1813C50.5738 97.9235 49.6254 97.25 46.9574 96.9197Z" fill="url(#paint5_linear_2003_41888)"/>
<path fill-rule="evenodd" clip-rule="evenodd" d="M56.0992 96.9197C66.9861 95.5856 76.5454 89.563 82.9435 80.7705C75.4453 89.7409 64.1538 95.4458 51.5345 95.4458V99.1813C52.4829 97.9235 53.4312 97.25 56.0992 96.9197Z" fill="url(#paint6_linear_2003_41888)"/>
<path fill-rule="evenodd" clip-rule="evenodd" d="M51.5349 95.4458C38.9157 95.4458 27.6242 89.7409 20.126 80.7705C27.523 90.2491 38.8398 96.3225 51.5349 96.3225C64.23 96.3225 75.5469 90.2491 82.9439 80.7705C75.4457 89.7409 64.1542 95.4458 51.5349 95.4458Z" fill="url(#paint7_radial_2003_41888)"/>
<path style="mix-blend-mode:screen" fill-rule="evenodd" clip-rule="evenodd" d="M26.9917 87.7079C42.5445 99.3465 61.4986 98.6858 75.7996 87.9239C61.4227 99.5117 41.2674 99.41 26.9917 87.7079Z" fill="url(#paint8_radial_2003_41888)"/>
<g style="mix-blend-mode:screen" opacity="0.8">
<path d="M29.622 25.9573C29.5082 26.0463 29.3818 26.0971 29.3565 26.059C29.3312 26.0209 29.3944 25.9192 29.5208 25.8303C29.6346 25.7413 29.7611 25.6905 29.7864 25.7286C29.8117 25.7667 29.7484 25.8684 29.622 25.9573Z" fill="#FFF7BB"/>
</g>
<g clip-path="url(#clip0_2003_41888)">
<path d="M20.8953 26.2871L15.9565 22.0873L22.3553 21.903L24.4772 16L26.6014 21.903L33.0002 22.0873L28.0613 26.2871L29.6616 32.8224L24.4772 29.2456L19.2951 32.8224L20.8953 26.2871Z" fill="#FF8B2F"/>
<path style="mix-blend-mode:screen" opacity="0.6" d="M32.9037 22.0849L26.6014 21.903L24.5167 25.0201L32.9037 22.0849Z" fill="url(#paint9_linear_2003_41888)"/>
<path style="mix-blend-mode:multiply" opacity="0.6" d="M24.5167 25.0202L26.6014 21.903L24.4772 16V25.0342L24.5167 25.0202Z" fill="url(#paint10_linear_2003_41888)"/>
<path style="mix-blend-mode:screen" opacity="0.6" d="M24.4969 25.0505L24.4794 25.0739L29.6594 32.8201L29.6616 32.8224L28.0613 26.2871L24.4969 25.0505Z" fill="url(#paint11_linear_2003_41888)"/>
<path style="mix-blend-mode:multiply" opacity="0.8" d="M24.4772 25.0762V29.2456L29.6594 32.8224L24.4794 25.0739L24.4772 25.0762Z" fill="url(#paint12_linear_2003_41888)"/>
<path style="mix-blend-mode:multiply" opacity="0.5" d="M19.2951 32.8224L24.4772 29.2456V25.0762L19.2951 32.8224Z" fill="url(#paint13_linear_2003_41888)"/>
<path style="mix-blend-mode:multiply" opacity="0.6" d="M24.4969 25.0505L28.0613 26.2871L33.0002 22.0873L32.9037 22.085L24.5167 25.0201L24.4969 25.0505Z" fill="url(#paint14_linear_2003_41888)"/>
<path style="mix-blend-mode:multiply" opacity="0.6" d="M24.4772 25.0715L24.4575 25.0411L20.8953 26.2871L19.2951 32.8224L24.4772 25.0761V25.0715Z" fill="url(#paint15_linear_2003_41888)"/>
<path style="mix-blend-mode:multiply" opacity="0.67" d="M24.4641 25.0388L24.4772 25.0342V16L22.3575 21.8983L24.4553 25.0365L24.4641 25.0388Z" fill="url(#paint16_linear_2003_41888)"/>
<path style="mix-blend-mode:screen" opacity="0.6" d="M22.3574 21.8983L22.3553 21.903L15.9565 22.0873L24.4553 25.0365L22.3574 21.8983Z" fill="url(#paint17_linear_2003_41888)"/>
<path style="mix-blend-mode:multiply" opacity="0.7" d="M24.4553 25.0365L15.9565 22.0873L20.8953 26.287L24.4575 25.0411L24.4553 25.0365Z" fill="url(#paint18_linear_2003_41888)"/>
</g>
<g clip-path="url(#clip1_2003_41888)">
<path d="M74.9387 26.2871L69.9998 22.0873L76.3986 21.903L78.5206 16L80.6447 21.903L87.0435 22.0873L82.1047 26.2871L83.7049 32.8224L78.5206 29.2456L73.3384 32.8224L74.9387 26.2871Z" fill="#FF8B2F"/>
<path style="mix-blend-mode:screen" opacity="0.6" d="M86.9471 22.0849L80.6448 21.903L78.5601 25.0201L86.9471 22.0849Z" fill="url(#paint19_linear_2003_41888)"/>
<path style="mix-blend-mode:multiply" opacity="0.6" d="M78.5601 25.0202L80.6448 21.903L78.5206 16V25.0342L78.5601 25.0202Z" fill="url(#paint20_linear_2003_41888)"/>
<path style="mix-blend-mode:screen" opacity="0.6" d="M78.5403 25.0505L78.5228 25.0739L83.7027 32.8201L83.7049 32.8224L82.1047 26.2871L78.5403 25.0505Z" fill="url(#paint21_linear_2003_41888)"/>
<path style="mix-blend-mode:multiply" opacity="0.8" d="M78.5206 25.0762V29.2456L83.7028 32.8224L78.5228 25.0739L78.5206 25.0762Z" fill="url(#paint22_linear_2003_41888)"/>
<path style="mix-blend-mode:multiply" opacity="0.5" d="M73.3384 32.8224L78.5206 29.2456V25.0762L73.3384 32.8224Z" fill="url(#paint23_linear_2003_41888)"/>
<path style="mix-blend-mode:multiply" opacity="0.6" d="M78.5403 25.0505L82.1047 26.2871L87.0435 22.0873L86.9471 22.085L78.56 25.0201L78.5403 25.0505Z" fill="url(#paint24_linear_2003_41888)"/>
<path style="mix-blend-mode:multiply" opacity="0.6" d="M78.5206 25.0715L78.5009 25.0411L74.9387 26.2871L73.3384 32.8224L78.5206 25.0761V25.0715Z" fill="url(#paint25_linear_2003_41888)"/>
<path style="mix-blend-mode:multiply" opacity="0.67" d="M78.5074 25.0388L78.5206 25.0342V16L76.4008 21.8983L78.4987 25.0365L78.5074 25.0388Z" fill="url(#paint26_linear_2003_41888)"/>
<path style="mix-blend-mode:screen" opacity="0.6" d="M76.4008 21.8983L76.3986 21.903L69.9998 22.0873L78.4987 25.0365L76.4008 21.8983Z" fill="url(#paint27_linear_2003_41888)"/>
<path style="mix-blend-mode:multiply" opacity="0.7" d="M78.4987 25.0365L69.9998 22.0873L74.9387 26.287L78.5009 25.0411L78.4987 25.0365Z" fill="url(#paint28_linear_2003_41888)"/>
</g>
<g clip-path="url(#clip2_2003_41888)">
<path d="M37.0975 16.0072L31.5 11.5135L38.7522 11.3162L41.1571 5L43.5646 11.3162L50.8168 11.5135L45.2193 16.0072L47.0329 23L41.1571 19.1728L35.2839 23L37.0975 16.0072Z" fill="#FF8B2F"/>
<path style="mix-blend-mode:screen" opacity="0.6" d="M50.7075 11.511L43.5646 11.3163L41.2019 14.6517L50.7075 11.511Z" fill="url(#paint29_linear_2003_41888)"/>
<path style="mix-blend-mode:multiply" opacity="0.6" d="M41.2019 14.6516L43.5646 11.3162L41.1571 5V14.6666L41.2019 14.6516Z" fill="url(#paint30_linear_2003_41888)"/>
<path style="mix-blend-mode:screen" opacity="0.6" d="M41.1795 14.6841L41.1596 14.709L47.0304 22.9975L47.0329 23L45.2193 16.0072L41.1795 14.6841Z" fill="url(#paint31_linear_2003_41888)"/>
<path style="mix-blend-mode:multiply" opacity="0.8" d="M41.1571 14.7115V19.1728L47.0304 23L41.1596 14.709L41.1571 14.7115Z" fill="url(#paint32_linear_2003_41888)"/>
<path style="mix-blend-mode:multiply" opacity="0.5" d="M35.2838 23L41.1571 19.1729V14.7115L35.2838 23Z" fill="url(#paint33_linear_2003_41888)"/>
<path style="mix-blend-mode:multiply" opacity="0.6" d="M41.1795 14.6841L45.2193 16.0072L50.8168 11.5135L50.7075 11.511L41.2019 14.6516L41.1795 14.6841Z" fill="url(#paint34_linear_2003_41888)"/>
<path style="mix-blend-mode:multiply" opacity="0.6" d="M41.1571 14.7065L41.1348 14.6741L37.0975 16.0072L35.2838 23L41.1571 14.7115V14.7065Z" fill="url(#paint35_linear_2003_41888)"/>
<path style="mix-blend-mode:multiply" opacity="0.67" d="M41.1422 14.6716L41.1572 14.6666V5L38.7547 11.3112L41.1323 14.6691L41.1422 14.6716Z" fill="url(#paint36_linear_2003_41888)"/>
<path style="mix-blend-mode:screen" opacity="0.6" d="M38.7547 11.3113L38.7522 11.3163L31.5 11.5135L41.1323 14.6691L38.7547 11.3113Z" fill="url(#paint37_linear_2003_41888)"/>
<path style="mix-blend-mode:multiply" opacity="0.7" d="M41.1323 14.669L31.5 11.5134L37.0975 16.0072L41.1348 14.674L41.1323 14.669Z" fill="url(#paint38_linear_2003_41888)"/>
</g>
<g clip-path="url(#clip3_2003_41888)">
<path d="M56.9069 16.0072L51.3094 11.5135L58.5615 11.3162L60.9665 5L63.374 11.3162L70.6261 11.5135L65.0286 16.0072L66.8423 23L60.9665 19.1728L55.0932 23L56.9069 16.0072Z" fill="#FF8B2F"/>
<path style="mix-blend-mode:screen" opacity="0.6" d="M70.5168 11.511L63.374 11.3163L61.0112 14.6517L70.5168 11.511Z" fill="url(#paint39_linear_2003_41888)"/>
<path style="mix-blend-mode:multiply" opacity="0.6" d="M61.0112 14.6516L63.3739 11.3162L60.9665 5V14.6666L61.0112 14.6516Z" fill="url(#paint40_linear_2003_41888)"/>
<path style="mix-blend-mode:screen" opacity="0.6" d="M60.9889 14.6841L60.969 14.709L66.8398 22.9975L66.8423 23L65.0286 16.0072L60.9889 14.6841Z" fill="url(#paint41_linear_2003_41888)"/>
<path style="mix-blend-mode:multiply" opacity="0.8" d="M60.9665 14.7115V19.1728L66.8398 23L60.969 14.709L60.9665 14.7115Z" fill="url(#paint42_linear_2003_41888)"/>
<path style="mix-blend-mode:multiply" opacity="0.5" d="M55.0932 23L60.9665 19.1729V14.7115L55.0932 23Z" fill="url(#paint43_linear_2003_41888)"/>
<path style="mix-blend-mode:multiply" opacity="0.6" d="M60.9889 14.6841L65.0286 16.0072L70.6261 11.5135L70.5168 11.511L61.0112 14.6516L60.9889 14.6841Z" fill="url(#paint44_linear_2003_41888)"/>
<path style="mix-blend-mode:multiply" opacity="0.6" d="M60.9665 14.7065L60.9441 14.6741L56.9069 16.0072L55.0932 23L60.9665 14.7115V14.7065Z" fill="url(#paint45_linear_2003_41888)"/>
<path style="mix-blend-mode:multiply" opacity="0.67" d="M60.9516 14.6716L60.9665 14.6666V5L58.564 11.3112L60.9417 14.6691L60.9516 14.6716Z" fill="url(#paint46_linear_2003_41888)"/>
<path style="mix-blend-mode:screen" opacity="0.6" d="M58.564 11.3113L58.5615 11.3163L51.3094 11.5135L60.9417 14.6691L58.564 11.3113Z" fill="url(#paint47_linear_2003_41888)"/>
<path style="mix-blend-mode:multiply" opacity="0.7" d="M60.9417 14.669L51.3094 11.5134L56.9069 16.0072L60.9441 14.674L60.9417 14.669Z" fill="url(#paint48_linear_2003_41888)"/>
</g>
<defs>
<linearGradient id="paint0_linear_2003_41888" x1="51.1481" y1="93.1189" x2="51.1481" y2="15.3224" gradientUnits="userSpaceOnUse">
<stop stop-color="#CA6B34"/>
<stop offset="1" stop-color="#FFA933"/>
</linearGradient>
<linearGradient id="paint1_linear_2003_41888" x1="51.5347" y1="90.7828" x2="51.5347" y2="18.4481" gradientUnits="userSpaceOnUse">
<stop stop-color="#D16509"/>
<stop offset="1" stop-color="#D17632"/>
</linearGradient>
<radialGradient id="paint2_radial_2003_41888" cx="0" cy="0" r="1" gradientUnits="userSpaceOnUse" gradientTransform="translate(13.4494 15.8688) scale(32.8884 33.048)">
<stop offset="0.52" stop-color="#FFCCEB"/>
<stop offset="0.57" stop-color="#F9C7E6"/>
<stop offset="0.63" stop-color="#EABBD8"/>
<stop offset="0.69" stop-color="#D1A7C1"/>
<stop offset="0.76" stop-color="#AE8BA1"/>
<stop offset="0.83" stop-color="#826878"/>
<stop offset="0.91" stop-color="#4B3C45"/>
<stop offset="0.99" stop-color="#0C090B"/>
<stop offset="1"/>
</radialGradient>
<radialGradient id="paint3_radial_2003_41888" cx="0" cy="0" r="1" gradientUnits="userSpaceOnUse" gradientTransform="translate(85.0805 88.0129) scale(29.4111 29.5539)">
<stop offset="0.52" stop-color="#DEC4FF"/>
<stop offset="0.57" stop-color="#D9BFF9"/>
<stop offset="0.63" stop-color="#CCB4EA"/>
<stop offset="0.69" stop-color="#B6A1D1"/>
<stop offset="0.76" stop-color="#9886AE"/>
<stop offset="0.83" stop-color="#716482"/>
<stop offset="0.91" stop-color="#413A4B"/>
<stop offset="0.99" stop-color="#0A090C"/>
<stop offset="1"/>
</radialGradient>
<radialGradient id="paint4_radial_2003_41888" cx="0" cy="0" r="1" gradientUnits="userSpaceOnUse" gradientTransform="translate(33.7441 14.1535) scale(64.6135 64.9272)">
<stop offset="0.52" stop-color="#FFB6E2"/>
<stop offset="0.57" stop-color="#F9B2DD"/>
<stop offset="0.63" stop-color="#EAA7D0"/>
<stop offset="0.69" stop-color="#D195B9"/>
<stop offset="0.76" stop-color="#AE7C9B"/>
<stop offset="0.83" stop-color="#825C73"/>
<stop offset="0.91" stop-color="#4B3542"/>
<stop offset="0.99" stop-color="#0C080A"/>
<stop offset="1"/>
</radialGradient>
<linearGradient id="paint5_linear_2003_41888" x1="20.1131" y1="89.9696" x2="51.5348" y2="89.9696" gradientUnits="userSpaceOnUse">
<stop stop-color="#CB6D33"/>
<stop offset="1" stop-color="#D16509"/>
</linearGradient>
<linearGradient id="paint6_linear_2003_41888" x1="51.5345" y1="-319.071" x2="82.9435" y2="-319.071" gradientUnits="userSpaceOnUse">
<stop stop-color="#5500A6"/>
<stop offset="0.0001" stop-color="#8D2C1B"/>
<stop offset="1" stop-color="#D16509"/>
</linearGradient>
<radialGradient id="paint7_radial_2003_41888" cx="0" cy="0" r="1" gradientUnits="userSpaceOnUse" gradientTransform="translate(51.5349 88.5465) scale(30.9032 31.0532)">
<stop stop-color="#F5AF00"/>
<stop offset="1" stop-color="#8D2C1B"/>
</radialGradient>
<radialGradient id="paint8_radial_2003_41888" cx="0" cy="0" r="1" gradientUnits="userSpaceOnUse" gradientTransform="translate(51.5727 67.6326) scale(34.2034 34.3695)">
<stop offset="0.52" stop-color="#FFBD2B"/>
<stop offset="0.57" stop-color="#FFA933"/>
<stop offset="0.63" stop-color="#DB8531"/>
<stop offset="0.69" stop-color="#F5AF00"/>
<stop offset="0.76" stop-color="#CA6B34"/>
<stop offset="0.83" stop-color="#8D2C1B"/>
<stop offset="0.91" stop-color="#2F224B"/>
<stop offset="0.99" stop-color="#07050C"/>
<stop offset="1"/>
</radialGradient>
<linearGradient id="paint9_linear_2003_41888" x1="26.8118" y1="25.7621" x2="31.1837" y2="20.818" gradientUnits="userSpaceOnUse">
<stop stop-color="white"/>
<stop offset="1" stop-color="#513229"/>
</linearGradient>
<linearGradient id="paint10_linear_2003_41888" x1="24.8937" y1="20.5171" x2="30.5735" y2="20.5171" gradientUnits="userSpaceOnUse">
<stop stop-color="white"/>
<stop offset="0.26" stop-color="#CDC8C7"/>
<stop offset="0.82" stop-color="#51423E"/>
<stop offset="1" stop-color="#281511"/>
</linearGradient>
<linearGradient id="paint11_linear_2003_41888" x1="26.1366" y1="25.4402" x2="29.3014" y2="30.4108" gradientUnits="userSpaceOnUse">
<stop stop-color="white"/>
<stop offset="1" stop-color="#513229"/>
</linearGradient>
<linearGradient id="paint12_linear_2003_41888" x1="28.776" y1="33.674" x2="24.0603" y2="27.2363" gradientUnits="userSpaceOnUse">
<stop stop-color="#42210B"/>
<stop offset="1" stop-color="#A7877D"/>
</linearGradient>
<linearGradient id="paint13_linear_2003_41888" x1="21.2066" y1="32.1878" x2="25.3379" y2="25.9989" gradientUnits="userSpaceOnUse">
<stop stop-color="#42210B"/>
<stop offset="1" stop-color="#A7877D"/>
</linearGradient>
<linearGradient id="paint14_linear_2003_41888" x1="25.9218" y1="25.7924" x2="36.3377" y2="22.3134" gradientUnits="userSpaceOnUse">
<stop stop-color="white"/>
<stop offset="0.26" stop-color="#CDC8C7"/>
<stop offset="0.82" stop-color="#51423E"/>
<stop offset="1" stop-color="#281511"/>
</linearGradient>
<linearGradient id="paint15_linear_2003_41888" x1="22.5394" y1="26.0654" x2="16.9821" y2="33.0709" gradientUnits="userSpaceOnUse">
<stop stop-color="white"/>
<stop offset="0.26" stop-color="#CDC8C7"/>
<stop offset="0.82" stop-color="#51423E"/>
<stop offset="1" stop-color="#281511"/>
</linearGradient>
<linearGradient id="paint16_linear_2003_41888" x1="22.478" y1="20.5194" x2="24.8828" y2="20.5194" gradientUnits="userSpaceOnUse">
<stop stop-color="#DBCAC5"/>
<stop offset="0.99" stop-color="#91726A"/>
</linearGradient>
<linearGradient id="paint17_linear_2003_41888" x1="23.1795" y1="25.2721" x2="17.0176" y2="20.8371" gradientUnits="userSpaceOnUse">
<stop stop-color="white"/>
<stop offset="1" stop-color="#513229"/>
</linearGradient>
<linearGradient id="paint18_linear_2003_41888" x1="15.9565" y1="24.1872" x2="24.4575" y2="24.1872" gradientUnits="userSpaceOnUse">
<stop stop-color="#42210B"/>
<stop offset="1" stop-color="#A7877D"/>
</linearGradient>
<linearGradient id="paint19_linear_2003_41888" x1="80.8552" y1="25.7621" x2="85.2271" y2="20.818" gradientUnits="userSpaceOnUse">
<stop stop-color="white"/>
<stop offset="1" stop-color="#513229"/>
</linearGradient>
<linearGradient id="paint20_linear_2003_41888" x1="78.9371" y1="20.5171" x2="84.6169" y2="20.5171" gradientUnits="userSpaceOnUse">
<stop stop-color="white"/>
<stop offset="0.26" stop-color="#CDC8C7"/>
<stop offset="0.82" stop-color="#51423E"/>
<stop offset="1" stop-color="#281511"/>
</linearGradient>
<linearGradient id="paint21_linear_2003_41888" x1="80.18" y1="25.4402" x2="83.3448" y2="30.4108" gradientUnits="userSpaceOnUse">
<stop stop-color="white"/>
<stop offset="1" stop-color="#513229"/>
</linearGradient>
<linearGradient id="paint22_linear_2003_41888" x1="82.8193" y1="33.674" x2="78.1036" y2="27.2363" gradientUnits="userSpaceOnUse">
<stop stop-color="#42210B"/>
<stop offset="1" stop-color="#A7877D"/>
</linearGradient>
<linearGradient id="paint23_linear_2003_41888" x1="75.25" y1="32.1878" x2="79.3813" y2="25.9989" gradientUnits="userSpaceOnUse">
<stop stop-color="#42210B"/>
<stop offset="1" stop-color="#A7877D"/>
</linearGradient>
<linearGradient id="paint24_linear_2003_41888" x1="79.9652" y1="25.7924" x2="90.3811" y2="22.3134" gradientUnits="userSpaceOnUse">
<stop stop-color="white"/>
<stop offset="0.26" stop-color="#CDC8C7"/>
<stop offset="0.82" stop-color="#51423E"/>
<stop offset="1" stop-color="#281511"/>
</linearGradient>
<linearGradient id="paint25_linear_2003_41888" x1="76.5828" y1="26.0654" x2="71.0254" y2="33.0709" gradientUnits="userSpaceOnUse">
<stop stop-color="white"/>
<stop offset="0.26" stop-color="#CDC8C7"/>
<stop offset="0.82" stop-color="#51423E"/>
<stop offset="1" stop-color="#281511"/>
</linearGradient>
<linearGradient id="paint26_linear_2003_41888" x1="76.5214" y1="20.5194" x2="78.9261" y2="20.5194" gradientUnits="userSpaceOnUse">
<stop stop-color="#DBCAC5"/>
<stop offset="0.99" stop-color="#91726A"/>
</linearGradient>
<linearGradient id="paint27_linear_2003_41888" x1="77.2229" y1="25.2721" x2="71.061" y2="20.8371" gradientUnits="userSpaceOnUse">
<stop stop-color="white"/>
<stop offset="1" stop-color="#513229"/>
</linearGradient>
<linearGradient id="paint28_linear_2003_41888" x1="69.9998" y1="24.1872" x2="78.5009" y2="24.1872" gradientUnits="userSpaceOnUse">
<stop stop-color="#42210B"/>
<stop offset="1" stop-color="#A7877D"/>
</linearGradient>
<linearGradient id="paint29_linear_2003_41888" x1="43.8031" y1="15.4455" x2="48.4407" y2="9.89037" gradientUnits="userSpaceOnUse">
<stop stop-color="white"/>
<stop offset="1" stop-color="#513229"/>
</linearGradient>
<linearGradient id="paint30_linear_2003_41888" x1="41.6292" y1="9.83329" x2="48.0665" y2="9.83329" gradientUnits="userSpaceOnUse">
<stop stop-color="white"/>
<stop offset="0.26" stop-color="#CDC8C7"/>
<stop offset="0.82" stop-color="#51423E"/>
<stop offset="1" stop-color="#281511"/>
</linearGradient>
<linearGradient id="paint31_linear_2003_41888" x1="43.0379" y1="15.101" x2="46.3383" y2="20.5918" gradientUnits="userSpaceOnUse">
<stop stop-color="white"/>
<stop offset="1" stop-color="#513229"/>
</linearGradient>
<linearGradient id="paint32_linear_2003_41888" x1="46.0292" y1="23.9112" x2="41.0775" y2="16.7511" gradientUnits="userSpaceOnUse">
<stop stop-color="#42210B"/>
<stop offset="1" stop-color="#A7877D"/>
</linearGradient>
<linearGradient id="paint33_linear_2003_41888" x1="37.4503" y1="22.321" x2="41.7684" y2="15.4693" gradientUnits="userSpaceOnUse">
<stop stop-color="#42210B"/>
<stop offset="1" stop-color="#A7877D"/>
</linearGradient>
<linearGradient id="paint34_linear_2003_41888" x1="42.7944" y1="15.478" x2="54.4567" y2="11.3519" gradientUnits="userSpaceOnUse">
<stop stop-color="white"/>
<stop offset="0.26" stop-color="#CDC8C7"/>
<stop offset="0.82" stop-color="#51423E"/>
<stop offset="1" stop-color="#281511"/>
</linearGradient>
<linearGradient id="paint35_linear_2003_41888" x1="38.9609" y1="15.7701" x2="33.1009" y2="23.5945" gradientUnits="userSpaceOnUse">
<stop stop-color="white"/>
<stop offset="0.26" stop-color="#CDC8C7"/>
<stop offset="0.82" stop-color="#51423E"/>
<stop offset="1" stop-color="#281511"/>
</linearGradient>
<linearGradient id="paint36_linear_2003_41888" x1="38.8913" y1="9.83578" x2="41.6168" y2="9.83578" gradientUnits="userSpaceOnUse">
<stop stop-color="#DBCAC5"/>
<stop offset="0.99" stop-color="#91726A"/>
</linearGradient>
<linearGradient id="paint37_linear_2003_41888" x1="39.6863" y1="14.9213" x2="32.9817" y2="9.80976" gradientUnits="userSpaceOnUse">
<stop stop-color="white"/>
<stop offset="1" stop-color="#513229"/>
</linearGradient>
<linearGradient id="paint38_linear_2003_41888" x1="31.5" y1="13.7603" x2="41.1348" y2="13.7603" gradientUnits="userSpaceOnUse">
<stop stop-color="#42210B"/>
<stop offset="1" stop-color="#A7877D"/>
</linearGradient>
<linearGradient id="paint39_linear_2003_41888" x1="63.6125" y1="15.4455" x2="68.2501" y2="9.89037" gradientUnits="userSpaceOnUse">
<stop stop-color="white"/>
<stop offset="1" stop-color="#513229"/>
</linearGradient>
<linearGradient id="paint40_linear_2003_41888" x1="61.4385" y1="9.83329" x2="67.8758" y2="9.83329" gradientUnits="userSpaceOnUse">
<stop stop-color="white"/>
<stop offset="0.26" stop-color="#CDC8C7"/>
<stop offset="0.82" stop-color="#51423E"/>
<stop offset="1" stop-color="#281511"/>
</linearGradient>
<linearGradient id="paint41_linear_2003_41888" x1="62.8473" y1="15.101" x2="66.1477" y2="20.5918" gradientUnits="userSpaceOnUse">
<stop stop-color="white"/>
<stop offset="1" stop-color="#513229"/>
</linearGradient>
<linearGradient id="paint42_linear_2003_41888" x1="65.8385" y1="23.9112" x2="60.8869" y2="16.7511" gradientUnits="userSpaceOnUse">
<stop stop-color="#42210B"/>
<stop offset="1" stop-color="#A7877D"/>
</linearGradient>
<linearGradient id="paint43_linear_2003_41888" x1="57.2597" y1="22.321" x2="61.5777" y2="15.4693" gradientUnits="userSpaceOnUse">
<stop stop-color="#42210B"/>
<stop offset="1" stop-color="#A7877D"/>
</linearGradient>
<linearGradient id="paint44_linear_2003_41888" x1="62.6038" y1="15.478" x2="74.2661" y2="11.3519" gradientUnits="userSpaceOnUse">
<stop stop-color="white"/>
<stop offset="0.26" stop-color="#CDC8C7"/>
<stop offset="0.82" stop-color="#51423E"/>
<stop offset="1" stop-color="#281511"/>
</linearGradient>
<linearGradient id="paint45_linear_2003_41888" x1="58.7702" y1="15.7701" x2="52.9103" y2="23.5945" gradientUnits="userSpaceOnUse">
<stop stop-color="white"/>
<stop offset="0.26" stop-color="#CDC8C7"/>
<stop offset="0.82" stop-color="#51423E"/>
<stop offset="1" stop-color="#281511"/>
</linearGradient>
<linearGradient id="paint46_linear_2003_41888" x1="58.7007" y1="9.83578" x2="61.4261" y2="9.83578" gradientUnits="userSpaceOnUse">
<stop stop-color="#DBCAC5"/>
<stop offset="0.99" stop-color="#91726A"/>
</linearGradient>
<linearGradient id="paint47_linear_2003_41888" x1="59.4957" y1="14.9213" x2="52.791" y2="9.80976" gradientUnits="userSpaceOnUse">
<stop stop-color="white"/>
<stop offset="1" stop-color="#513229"/>
</linearGradient>
<linearGradient id="paint48_linear_2003_41888" x1="51.3094" y1="13.7603" x2="60.9441" y2="13.7603" gradientUnits="userSpaceOnUse">
<stop stop-color="#42210B"/>
<stop offset="1" stop-color="#A7877D"/>
</linearGradient>
<clipPath id="clip0_2003_41888">
<rect width="17.0437" height="16.8224" fill="white" transform="translate(15.9565 16)"/>
</clipPath>
<clipPath id="clip1_2003_41888">
<rect width="17.0437" height="16.8224" fill="white" transform="translate(69.9998 16)"/>
</clipPath>
<clipPath id="clip2_2003_41888">
<rect width="19.3168" height="18" fill="white" transform="translate(31.5 5)"/>
</clipPath>
<clipPath id="clip3_2003_41888">
<rect width="19.3168" height="18" fill="white" transform="translate(51.3094 5)"/>
</clipPath>
</defs>
</svg>
