<svg width="103" height="106" viewBox="0 0 103 106" fill="none" xmlns="http://www.w3.org/2000/svg">
<g style="mix-blend-mode:multiply" opacity="0.8">
<path d="M14.0795 58.438C14.1426 58.6156 14.1552 58.7932 14.0795 58.8185C14.0038 58.8439 13.9028 58.7171 13.8397 58.5268C13.7766 58.3492 13.7639 58.1717 13.8397 58.1463C13.9028 58.1209 14.0164 58.2477 14.0795 58.438Z" fill="#9C9D9E"/>
</g>
<g style="mix-blend-mode:multiply" opacity="0.8">
<path d="M88.3392 58.4381C88.276 58.6157 88.2634 58.7933 88.3392 58.8187C88.4023 58.844 88.5159 58.7172 88.579 58.5269C88.6421 58.3493 88.6547 58.1718 88.579 58.1464C88.5159 58.121 88.4023 58.2479 88.3392 58.4381Z" fill="#9C9D9E"/>
</g>
<path fill-rule="evenodd" clip-rule="evenodd" d="M90.2323 54.4553C90.2323 32.791 72.7624 15.2363 51.2028 15.2363C29.6432 15.2363 12.1733 32.791 12.1733 54.4553C12.1733 76.1196 29.6432 93.6742 51.2028 93.6742C72.7624 93.6742 90.2323 76.1196 90.2323 54.4553ZM51.2028 18.3566C71.0457 18.3566 87.1271 34.516 87.1271 54.4553C87.1271 74.3946 71.0457 90.554 51.2028 90.554C31.3599 90.554 15.2785 74.3946 15.2785 54.4553C15.2785 34.516 31.3599 18.3566 51.2028 18.3566Z" fill="url(#paint0_radial_2003_41880)"/>
<path fill-rule="evenodd" clip-rule="evenodd" d="M87.1398 54.4552C87.1398 34.516 71.0584 18.3566 51.2155 18.3566C31.3725 18.3566 15.2912 34.516 15.2912 54.4552C15.2912 74.3945 31.3725 90.5539 51.2155 90.5539C71.0584 90.5539 87.1398 74.3945 87.1398 54.4552ZM51.2155 21.4641C69.3417 21.4641 84.0472 36.2283 84.0472 54.4552C84.0472 72.6822 69.3543 87.4463 51.2155 87.4463C33.0766 87.4463 18.3837 72.6822 18.3837 54.4552C18.3837 36.2283 33.0766 21.4641 51.2155 21.4641Z" fill="url(#paint1_linear_2003_41880)"/>
<path style="mix-blend-mode:screen" fill-rule="evenodd" clip-rule="evenodd" d="M16.4903 45.1198C19.7974 32.6895 29.5295 22.9101 41.8998 19.5869L41.0919 16.5808C27.6614 20.1831 17.0835 30.8249 13.486 44.3207L16.4776 45.1325L16.4903 45.1198Z" fill="url(#paint2_radial_2003_41880)"/>
<path style="mix-blend-mode:screen" opacity="0.5" fill-rule="evenodd" clip-rule="evenodd" d="M82.9237 63.0044C79.9068 74.3566 71.0078 83.2988 59.7105 86.3303L60.5183 89.3364C72.8886 86.0132 82.6207 76.2338 85.9279 63.8035L82.9363 62.9917L82.9237 63.0044Z" fill="url(#paint3_radial_2003_41880)"/>
<path style="mix-blend-mode:screen" fill-rule="evenodd" clip-rule="evenodd" d="M51.2029 18.3565C71.0458 18.3565 87.1272 34.516 87.1272 54.4552C87.1272 56.6369 86.9378 58.7678 86.5718 60.848C87.0262 58.5522 87.266 56.1802 87.266 53.7576C87.266 33.8056 71.1215 17.6208 51.2029 17.6208C31.2842 17.6208 15.1397 33.7929 15.1397 53.7576C15.1397 56.1802 15.3795 58.5522 15.8339 60.848C15.4679 58.7678 15.2785 56.6369 15.2785 54.4552C15.2785 34.516 31.3599 18.3565 51.2029 18.3565Z" fill="url(#paint4_radial_2003_41880)"/>
<path fill-rule="evenodd" clip-rule="evenodd" d="M46.6461 96.693C35.778 95.3612 26.2352 89.349 19.8481 80.5717C27.3333 89.5266 38.6055 95.2217 51.203 95.2217C63.8004 95.2217 75.0725 89.5266 82.5578 80.5717C76.1707 89.349 66.6279 95.3612 55.7598 96.693C53.0964 97.0228 52.137 97.6951 51.203 98.9508C50.2563 97.6951 49.3095 97.0228 46.6461 96.693Z" fill="#46648A"/>
<path fill-rule="evenodd" clip-rule="evenodd" d="M46.6461 96.693C35.778 95.3612 26.2352 89.349 19.8481 80.5717C27.346 89.5266 38.6055 95.2217 51.203 95.2217V98.9508C50.2563 97.6951 49.3095 97.0228 46.6461 96.693Z" fill="url(#paint5_linear_2003_41880)"/>
<g style="mix-blend-mode:screen" opacity="0.8">
<path d="M29.3405 25.8528C29.2269 25.9416 29.1007 25.9923 29.0754 25.9543C29.0502 25.9162 29.1133 25.8148 29.2395 25.726C29.3531 25.6372 29.4794 25.5864 29.5046 25.6245C29.5298 25.6625 29.4667 25.764 29.3405 25.8528Z" fill="#EBFBFF"/>
</g>
<path fill-rule="evenodd" clip-rule="evenodd" d="M4.7 60.3629C5.74774 66.0668 9.88566 67.2529 14.8856 68.4657C19.6203 69.6118 18.7715 70.2915 22.684 74.9692C31.1454 85.0843 43.2275 88.7092 52.2062 88.2694C40.1241 87.7896 28.0818 79.9534 22.4585 68.9054C20.5354 65.1473 20.2834 64.4676 16.066 63.8946C9.68671 63.0283 6.17215 61.7489 4.71328 60.3629H4.7Z" fill="#EDEEF9"/>
<path fill-rule="evenodd" clip-rule="evenodd" d="M4.7 60.3629C6.64959 64.6808 10.9864 64.934 15.2437 65.9202C17.2331 66.3867 18.9174 66.5333 20.1773 68.3324C20.8537 69.2919 21.4373 70.3181 22.0474 71.3176C24.7131 75.6888 28.2012 79.1671 32.2993 81.9125C38.8377 86.3103 44.4875 88.0162 52.2062 88.2694C40.1241 87.7896 28.0818 79.9534 22.4585 68.9054C20.5354 65.1473 20.2834 64.4676 16.066 63.8946C9.68671 63.0283 6.17215 61.7489 4.71328 60.3629H4.7Z" fill="url(#paint6_radial_2003_41880)"/>
<path fill-rule="evenodd" clip-rule="evenodd" d="M15.2437 65.9202C10.9864 64.934 6.64959 64.6808 4.7 60.3629C5.74774 66.0668 9.88566 67.2529 14.8856 68.4657C19.6203 69.6118 18.7715 70.2915 22.684 74.9692C31.1454 85.0843 43.2275 88.7092 52.2062 88.2694C44.4875 88.0162 38.8377 86.297 32.2993 81.9125C28.2012 79.1671 24.7264 75.6755 22.0474 71.3176C21.4373 70.3181 20.8537 69.2919 20.1773 68.3324C18.9174 66.5333 17.2463 66.3867 15.2437 65.9202Z" fill="url(#paint7_linear_2003_41880)"/>
<path fill-rule="evenodd" clip-rule="evenodd" d="M13.0817 69.625C10.9995 69.2785 7.94914 68.5055 6.55658 66.6531C7.20644 70.0514 9.20905 72.5436 12.8695 73.09C15.827 73.5298 19.1692 73.2232 21.0127 75.0091C18.7713 71.1842 17.2329 70.3313 13.0817 69.6383V69.625Z" fill="#3B3C54"/>
<path fill-rule="evenodd" clip-rule="evenodd" d="M18.2806 75.2889C15.8403 74.9691 11.477 75.4222 9.55389 73.3699C10.6547 77.2613 13.4796 78.4341 17.1798 78.5141C19.766 78.5674 23.8509 79.287 26.0392 80.9662C22.9092 77.9677 22.2594 75.8087 18.2806 75.2889Z" fill="#3B3C54"/>
<path fill-rule="evenodd" clip-rule="evenodd" d="M9.56717 73.3699C10.9199 75.5822 12.6308 76.3551 15.1109 76.635C21.2779 77.328 21.4901 76.8082 26.0524 80.9529C22.9225 77.9544 22.2726 75.7954 18.2939 75.2756C15.8536 74.9558 11.4902 75.4089 9.56717 73.3566V73.3699Z" fill="url(#paint8_radial_2003_41880)"/>
<path fill-rule="evenodd" clip-rule="evenodd" d="M15.0976 76.6484C12.6176 76.3685 10.9199 75.5956 9.55389 73.3833C10.6547 77.2747 13.4796 78.4475 17.1798 78.5275C17.9225 78.5408 18.7846 78.6207 19.6865 78.7407C21.9411 79.0605 24.4742 79.7669 26.0392 80.9663C22.4848 77.7279 21.5697 77.328 18.4133 76.9949C17.5247 76.9016 16.4504 76.8083 15.0844 76.6484H15.0976Z" fill="url(#paint9_linear_2003_41880)"/>
<path fill-rule="evenodd" clip-rule="evenodd" d="M12.6971 71.3308C9.7661 70.6645 7.77672 69.4251 6.55658 66.6531C7.20644 70.0514 9.20905 72.5436 12.8695 73.09C15.827 73.5298 19.1692 73.2232 21.0127 75.0091C18.1878 71.6374 16.278 72.1571 12.6971 71.3442V71.3308Z" fill="url(#paint10_linear_2003_41880)"/>
<path fill-rule="evenodd" clip-rule="evenodd" d="M6.55658 66.6399C7.77672 69.4119 9.7661 70.6513 12.6971 71.3176C16.278 72.1305 18.201 71.6108 21.0127 74.9825C18.7713 71.1577 17.2329 70.3048 13.0817 69.6118C10.9995 69.2653 7.94914 68.4923 6.55658 66.6399Z" fill="url(#paint11_radial_2003_41880)"/>
<path style="mix-blend-mode:screen" fill-rule="evenodd" clip-rule="evenodd" d="M4.7 60.3629C6.1854 63.6547 9.06339 64.5875 12.2331 65.2805C10.4825 64.6009 9.20928 63.588 8.62573 62.3619C6.71593 61.7489 5.4427 61.0692 4.7 60.3629Z" fill="url(#paint12_radial_2003_41880)"/>
<path style="mix-blend-mode:screen" fill-rule="evenodd" clip-rule="evenodd" d="M9.73956 68.7589C8.47963 68.2924 7.28601 67.6128 6.55658 66.6399C7.77672 69.4119 9.7661 70.6513 12.6971 71.3176C12.7502 71.3176 12.7899 71.3443 12.843 71.3443C11.3311 70.7712 10.4027 69.9583 9.73956 68.7455V68.7589Z" fill="url(#paint13_radial_2003_41880)"/>
<path style="mix-blend-mode:screen" fill-rule="evenodd" clip-rule="evenodd" d="M12.5777 74.8093C11.3841 74.5694 10.2966 74.1563 9.56717 73.3833C10.9199 75.5956 12.6308 76.3685 15.1109 76.6484C16.0127 76.755 16.7952 76.8216 17.4716 76.8883C15.2833 76.5018 13.9305 76.142 12.5777 74.8093Z" fill="url(#paint14_radial_2003_41880)"/>
<path style="mix-blend-mode:screen" fill-rule="evenodd" clip-rule="evenodd" d="M15.9201 64.2277C18.798 64.6808 19.7927 65.0273 20.7211 66.4533C22.3789 69.012 24.6468 74.1029 29.5274 78.2609C26.6892 75.5555 24.2754 72.3971 22.5115 68.9187C20.5885 65.1606 20.3365 64.4809 16.119 63.9078C9.73974 63.0416 6.22518 61.7622 4.76631 60.3762C7.40554 63.2948 12.3922 63.6813 15.9333 64.2277H15.9201Z" fill="url(#paint15_radial_2003_41880)"/>
<path style="mix-blend-mode:screen" fill-rule="evenodd" clip-rule="evenodd" d="M32.2858 81.9125C26.9809 78.7273 24.4079 75.3956 21.0392 69.9183C19.713 67.7727 18.4796 66.9064 17.1401 66.4399C14.6998 65.587 11.9677 65.6004 9.22236 64.4409C12.0605 65.4138 14.9385 65.3338 17.2196 66.1068C18.9968 66.7198 19.9385 67.5194 21.3178 69.6917C25.1904 75.7821 26.8084 78.1543 32.2858 81.9125Z" fill="url(#paint16_radial_2003_41880)"/>
<path style="mix-blend-mode:screen" fill-rule="evenodd" clip-rule="evenodd" d="M8.13513 69.0386C11.0927 71.5307 13.6125 71.3575 16.1722 71.8905C18.2677 72.317 20.257 73.2366 22.1005 76.515C20.6417 74.3693 19.3286 72.8367 16.1059 72.1304C13.4136 71.544 10.6285 71.7439 8.13513 69.0386Z" fill="url(#paint17_radial_2003_41880)"/>
<path style="mix-blend-mode:screen" fill-rule="evenodd" clip-rule="evenodd" d="M11.1324 75.209C14.395 77.5678 19.1032 76.0219 22.6841 78.1409C26.9281 80.633 29.3153 84.6044 34.7397 87.2565C28.5992 84.6044 27.1403 81.2327 22.7371 78.5407C21.5435 77.8077 20.4427 77.5412 19.4746 77.3413C16.9149 76.8215 13.639 77.3146 11.1324 75.209Z" fill="url(#paint18_radial_2003_41880)"/>
<path fill-rule="evenodd" clip-rule="evenodd" d="M99.7002 60.3629C98.6524 66.0668 94.5145 67.2529 89.5146 68.4657C84.7799 69.6118 85.6287 70.2915 81.7162 74.9692C73.2548 85.0843 61.1727 88.7092 52.194 88.2694C64.2761 87.7896 76.3184 79.9534 81.9417 68.9054C83.8648 65.1473 84.1168 64.4676 88.3342 63.8946C94.7135 63.0283 98.2281 61.7489 99.6869 60.3629H99.7002Z" fill="#3B3C54"/>
<path fill-rule="evenodd" clip-rule="evenodd" d="M99.7002 60.3629C97.7506 64.6808 93.4138 64.934 89.1565 65.9202C87.1671 66.3867 85.4828 66.5333 84.2229 68.3324C83.5465 69.2919 82.9629 70.3181 82.3529 71.3176C79.6871 75.6888 76.199 79.1671 72.1009 81.9125C65.5625 86.3103 59.9127 88.0162 52.194 88.2694C64.2761 87.7896 76.3184 79.9534 81.9417 68.9054C83.8648 65.1473 84.1168 64.4676 88.3342 63.8946C94.7135 63.0283 98.2281 61.7489 99.6869 60.3629H99.7002Z" fill="url(#paint19_radial_2003_41880)"/>
<path fill-rule="evenodd" clip-rule="evenodd" d="M89.1425 65.9202C93.3997 64.934 97.7366 64.6808 99.6862 60.3629C98.6384 66.0668 94.5005 67.2529 89.5005 68.4657C84.7658 69.6118 85.6147 70.2915 81.7022 74.9692C73.2408 85.0843 61.1586 88.7092 52.1799 88.2694C59.8987 88.0162 65.5485 86.297 72.0869 81.9125C76.185 79.1671 79.6598 75.6755 82.3388 71.3176C82.9489 70.3181 83.5324 69.2919 84.2088 68.3324C85.4687 66.5333 87.1398 66.3867 89.1425 65.9202Z" fill="url(#paint20_linear_2003_41880)"/>
<path fill-rule="evenodd" clip-rule="evenodd" d="M91.3177 69.625C93.3999 69.2785 96.4502 68.5055 97.8428 66.6531C97.1929 70.0514 95.1903 72.5436 91.5298 73.09C88.5723 73.5298 85.2302 73.2232 83.3867 75.0091C85.628 71.1842 87.1665 70.3313 91.3177 69.6383V69.625Z" fill="#3B3C54"/>
<path fill-rule="evenodd" clip-rule="evenodd" d="M86.1053 75.2889C88.5456 74.9691 92.909 75.4222 94.8321 73.3699C93.7313 77.2613 90.9064 78.4341 87.2061 78.5141C84.6199 78.5674 80.5351 79.287 78.3468 80.9662C81.4767 77.9677 82.1266 75.8087 86.1053 75.2889Z" fill="#3B3C54"/>
<path fill-rule="evenodd" clip-rule="evenodd" d="M94.8321 73.3699C93.4793 75.5822 91.7684 76.3551 89.2884 76.635C83.1213 77.328 82.9091 76.8082 78.3468 80.9529C81.4767 77.9544 82.1266 75.7954 86.1053 75.2756C88.5456 74.9558 92.909 75.4089 94.8321 73.3566V73.3699Z" fill="url(#paint21_radial_2003_41880)"/>
<path fill-rule="evenodd" clip-rule="evenodd" d="M89.3019 76.6484C91.782 76.3685 93.4795 75.5956 94.8456 73.3833C93.7448 77.2747 90.9199 78.4475 87.2197 78.5275C86.477 78.5408 85.6149 78.6207 84.7131 78.7407C82.4584 79.0605 79.9253 79.7669 78.3603 80.9663C81.9147 77.7279 82.8298 77.328 85.9863 76.9949C86.8748 76.9016 87.9491 76.8083 89.3151 76.6484H89.3019Z" fill="url(#paint22_linear_2003_41880)"/>
<path fill-rule="evenodd" clip-rule="evenodd" d="M91.7023 71.3308C94.6333 70.6645 96.6226 69.4251 97.8428 66.6531C97.1929 70.0514 95.1903 72.5436 91.5298 73.09C88.5723 73.5298 85.2302 73.2232 83.3867 75.0091C86.2116 71.6374 88.1214 72.1571 91.7023 71.3442V71.3308Z" fill="url(#paint23_linear_2003_41880)"/>
<path fill-rule="evenodd" clip-rule="evenodd" d="M97.8428 66.6399C96.6226 69.4119 94.6333 70.6513 91.7023 71.3176C88.1214 72.1305 86.1983 71.6108 83.3867 74.9825C85.628 71.1577 87.1665 70.3048 91.3177 69.6118C93.3999 69.2653 96.4502 68.4923 97.8428 66.6399Z" fill="url(#paint24_radial_2003_41880)"/>
<path style="mix-blend-mode:screen" fill-rule="evenodd" clip-rule="evenodd" d="M99.6994 60.3629C98.214 63.6547 95.336 64.5875 92.1663 65.2805C93.9169 64.6009 95.1901 63.588 95.7737 62.3619C97.6835 61.7489 98.9567 61.0692 99.6994 60.3629Z" fill="url(#paint25_radial_2003_41880)"/>
<path style="mix-blend-mode:screen" fill-rule="evenodd" clip-rule="evenodd" d="M94.6597 68.7589C95.9196 68.2924 97.1132 67.6128 97.8427 66.6399C96.6225 69.4119 94.6331 70.6513 91.7021 71.3176C91.6491 71.3176 91.6093 71.3443 91.5562 71.3443C93.0682 70.7712 93.9965 69.9583 94.6597 68.7455V68.7589Z" fill="url(#paint26_radial_2003_41880)"/>
<path style="mix-blend-mode:screen" fill-rule="evenodd" clip-rule="evenodd" d="M91.8216 74.8093C93.0152 74.5694 94.1028 74.1563 94.8322 73.3833C93.4794 75.5956 91.7686 76.3685 89.2885 76.6484C88.3866 76.755 87.6041 76.8216 86.9277 76.8883C89.116 76.5018 90.4688 76.142 91.8216 74.8093Z" fill="url(#paint27_radial_2003_41880)"/>
<path style="mix-blend-mode:screen" fill-rule="evenodd" clip-rule="evenodd" d="M88.4796 64.2277C85.6017 64.6808 84.607 65.0273 83.6786 66.4533C82.0208 69.012 79.7529 74.1029 74.8723 78.2609C77.7105 75.5555 80.1243 72.3971 81.8882 68.9187C83.8112 65.1606 84.0632 64.4809 88.2807 63.9078C94.66 63.0416 98.1745 61.7622 99.6334 60.3762C96.9941 63.2948 92.0074 63.6813 88.4664 64.2277H88.4796Z" fill="url(#paint28_radial_2003_41880)"/>
<path style="mix-blend-mode:screen" fill-rule="evenodd" clip-rule="evenodd" d="M72.1002 81.9125C77.4052 78.7273 79.9782 75.3956 83.3468 69.9183C84.6731 67.7727 85.9065 66.9064 87.246 66.4399C89.6863 65.587 92.4184 65.6004 95.1637 64.4409C92.3256 65.4138 89.4476 65.3338 87.1664 66.1068C85.3893 66.7198 84.4476 67.5194 83.0683 69.6917C79.1957 75.7821 77.5776 78.1543 72.1002 81.9125Z" fill="url(#paint29_radial_2003_41880)"/>
<path style="mix-blend-mode:screen" fill-rule="evenodd" clip-rule="evenodd" d="M96.2644 69.0386C93.3068 71.5307 90.787 71.3575 88.2273 71.8905C86.1318 72.317 84.1425 73.2366 82.299 76.515C83.7578 74.3693 85.0709 72.8367 88.2936 72.1304C90.9859 71.544 93.771 71.7439 96.2644 69.0386Z" fill="url(#paint30_radial_2003_41880)"/>
<path style="mix-blend-mode:screen" fill-rule="evenodd" clip-rule="evenodd" d="M93.2671 75.209C90.0045 77.5678 85.2963 76.0219 81.7154 78.1409C77.4714 80.633 75.0842 84.6044 69.6598 87.2565C75.8004 84.6044 77.2593 81.2327 81.6624 78.5407C82.856 77.8077 83.9568 77.5412 84.925 77.3413C87.4846 76.8215 90.7605 77.3146 93.2671 75.209Z" fill="url(#paint31_radial_2003_41880)"/>
<g clip-path="url(#clip0_2003_41880)">
<path fill-rule="evenodd" clip-rule="evenodd" d="M51.0329 2L54.4554 8.29906L62.0729 9.32841L56.5742 14.2421L57.8567 21.1756L51.0329 17.9192L44.2162 21.1756L45.4987 14.2421L40 9.32841L47.6175 8.29906L51.0329 2Z" fill="#B05B00"/>
<path fill-rule="evenodd" clip-rule="evenodd" d="M51.0329 12.6041L40 9.32837L45.4987 14.242L51.0329 12.6041Z" fill="url(#paint32_radial_2003_41880)"/>
<path fill-rule="evenodd" clip-rule="evenodd" d="M40 9.32842L51.0329 12.6042L47.6175 8.29907L40 9.32842Z" fill="url(#paint33_radial_2003_41880)"/>
<path fill-rule="evenodd" clip-rule="evenodd" d="M47.6175 8.29906L51.0329 12.6042V2L47.6175 8.29906Z" fill="url(#paint34_radial_2003_41880)"/>
<path fill-rule="evenodd" clip-rule="evenodd" d="M51.0329 2V12.6042L54.4554 8.29906L51.0329 2Z" fill="url(#paint35_radial_2003_41880)"/>
<path fill-rule="evenodd" clip-rule="evenodd" d="M54.4554 8.29907L51.0329 12.6042L62.0729 9.32842L54.4554 8.29907Z" fill="url(#paint36_radial_2003_41880)"/>
<path fill-rule="evenodd" clip-rule="evenodd" d="M62.0729 9.32837L51.0329 12.6041L56.5742 14.242L62.0729 9.32837Z" fill="url(#paint37_radial_2003_41880)"/>
<path fill-rule="evenodd" clip-rule="evenodd" d="M56.5742 14.242L51.0329 12.6041L57.8567 21.1755L56.5742 14.242Z" fill="url(#paint38_radial_2003_41880)"/>
<path fill-rule="evenodd" clip-rule="evenodd" d="M57.8567 21.1755L51.0329 12.6041V17.9192L57.8567 21.1755Z" fill="url(#paint39_radial_2003_41880)"/>
<path fill-rule="evenodd" clip-rule="evenodd" d="M51.0329 17.9192V12.6041L44.2162 21.1755L51.0329 17.9192Z" fill="url(#paint40_radial_2003_41880)"/>
<path fill-rule="evenodd" clip-rule="evenodd" d="M44.2162 21.1755L51.0329 12.6041L45.4987 14.242L44.2162 21.1755Z" fill="url(#paint41_radial_2003_41880)"/>
<path style="mix-blend-mode:screen" fill-rule="evenodd" clip-rule="evenodd" d="M41.6865 9.82694L50.4873 11.918C50.2747 11.4713 49.9062 10.6556 49.9346 10.4484L51.0329 2.49207V12.6042L41.6865 9.82694Z" fill="url(#paint42_radial_2003_41880)"/>
<path style="mix-blend-mode:screen" fill-rule="evenodd" clip-rule="evenodd" d="M51.0329 12.6042C51.4652 12.0604 52.2163 11.5619 53.3075 11.3224L61.1517 9.60034L51.0329 12.6042Z" fill="url(#paint43_radial_2003_41880)"/>
<path style="mix-blend-mode:screen" fill-rule="evenodd" clip-rule="evenodd" d="M51.0329 12.6041C49.9417 13.2321 48.6308 14.2938 48.2481 14.8894L44.2162 21.1755L51.04 12.5977L51.0329 12.6041Z" fill="url(#paint44_radial_2003_41880)"/>
</g>
<g clip-path="url(#clip1_2003_41880)">
<path fill-rule="evenodd" clip-rule="evenodd" d="M30.7135 11.8834L33.5596 17.1215L39.894 17.9775L35.3215 22.0635L36.388 27.8292L30.7135 25.1213L25.045 27.8292L26.1115 22.0635L21.5389 17.9775L27.8734 17.1215L30.7135 11.8834Z" fill="#B05B00"/>
<path fill-rule="evenodd" clip-rule="evenodd" d="M30.7135 20.7014L21.5389 17.9774L26.1115 22.0634L30.7135 20.7014Z" fill="url(#paint45_radial_2003_41880)"/>
<path fill-rule="evenodd" clip-rule="evenodd" d="M21.5389 17.9774L30.7135 20.7014L27.8734 17.1215L21.5389 17.9774Z" fill="url(#paint46_radial_2003_41880)"/>
<path fill-rule="evenodd" clip-rule="evenodd" d="M27.8734 17.1215L30.7135 20.7015V11.8834L27.8734 17.1215Z" fill="url(#paint47_radial_2003_41880)"/>
<path fill-rule="evenodd" clip-rule="evenodd" d="M30.7135 11.8834V20.7015L33.5596 17.1215L30.7135 11.8834Z" fill="url(#paint48_radial_2003_41880)"/>
<path fill-rule="evenodd" clip-rule="evenodd" d="M33.5596 17.1215L30.7135 20.7014L39.894 17.9774L33.5596 17.1215Z" fill="url(#paint49_radial_2003_41880)"/>
<path fill-rule="evenodd" clip-rule="evenodd" d="M39.894 17.9774L30.7135 20.7014L35.3215 22.0634L39.894 17.9774Z" fill="url(#paint50_radial_2003_41880)"/>
<path fill-rule="evenodd" clip-rule="evenodd" d="M35.3215 22.0635L30.7135 20.7015L36.388 27.8292L35.3215 22.0635Z" fill="url(#paint51_radial_2003_41880)"/>
<path fill-rule="evenodd" clip-rule="evenodd" d="M36.388 27.8292L30.7135 20.7015V25.1213L36.388 27.8292Z" fill="url(#paint52_radial_2003_41880)"/>
<path fill-rule="evenodd" clip-rule="evenodd" d="M30.7135 25.1213V20.7015L25.045 27.8292L30.7135 25.1213Z" fill="url(#paint53_radial_2003_41880)"/>
<path fill-rule="evenodd" clip-rule="evenodd" d="M25.045 27.8292L30.7135 20.7015L26.1115 22.0635L25.045 27.8292Z" fill="url(#paint54_radial_2003_41880)"/>
<path style="mix-blend-mode:screen" fill-rule="evenodd" clip-rule="evenodd" d="M22.9414 18.392L30.2598 20.1309C30.083 19.7594 29.7766 19.0811 29.8002 18.9089L30.7135 12.2926V20.7015L22.9414 18.392Z" fill="url(#paint55_radial_2003_41880)"/>
<path style="mix-blend-mode:screen" fill-rule="evenodd" clip-rule="evenodd" d="M30.7135 20.7015C31.073 20.2493 31.6976 19.8348 32.605 19.6356L39.128 18.2036L30.7135 20.7015Z" fill="url(#paint56_radial_2003_41880)"/>
<path style="mix-blend-mode:screen" fill-rule="evenodd" clip-rule="evenodd" d="M30.7135 20.7015C29.8061 21.2237 28.716 22.1066 28.3978 22.6019L25.045 27.8292L30.7194 20.6962L30.7135 20.7015Z" fill="url(#paint57_radial_2003_41880)"/>
</g>
<g clip-path="url(#clip2_2003_41880)">
<path fill-rule="evenodd" clip-rule="evenodd" d="M71.279 11.8834L74.1251 17.1215L80.4595 17.9775L75.8869 22.0635L76.9535 27.8292L71.279 25.1213L65.6105 27.8292L66.677 22.0635L62.1044 17.9775L68.4388 17.1215L71.279 11.8834Z" fill="#B05B00"/>
<path fill-rule="evenodd" clip-rule="evenodd" d="M71.279 20.7014L62.1044 17.9774L66.677 22.0634L71.279 20.7014Z" fill="url(#paint58_radial_2003_41880)"/>
<path fill-rule="evenodd" clip-rule="evenodd" d="M62.1044 17.9774L71.279 20.7014L68.4388 17.1215L62.1044 17.9774Z" fill="url(#paint59_radial_2003_41880)"/>
<path fill-rule="evenodd" clip-rule="evenodd" d="M68.4389 17.1215L71.279 20.7015V11.8834L68.4389 17.1215Z" fill="url(#paint60_radial_2003_41880)"/>
<path fill-rule="evenodd" clip-rule="evenodd" d="M71.279 11.8834V20.7015L74.1251 17.1215L71.279 11.8834Z" fill="url(#paint61_radial_2003_41880)"/>
<path fill-rule="evenodd" clip-rule="evenodd" d="M74.1251 17.1215L71.279 20.7014L80.4595 17.9774L74.1251 17.1215Z" fill="url(#paint62_radial_2003_41880)"/>
<path fill-rule="evenodd" clip-rule="evenodd" d="M80.4595 17.9774L71.279 20.7014L75.8869 22.0634L80.4595 17.9774Z" fill="url(#paint63_radial_2003_41880)"/>
<path fill-rule="evenodd" clip-rule="evenodd" d="M75.8869 22.0635L71.279 20.7015L76.9535 27.8292L75.8869 22.0635Z" fill="url(#paint64_radial_2003_41880)"/>
<path fill-rule="evenodd" clip-rule="evenodd" d="M76.9535 27.8292L71.279 20.7015V25.1213L76.9535 27.8292Z" fill="url(#paint65_radial_2003_41880)"/>
<path fill-rule="evenodd" clip-rule="evenodd" d="M71.279 25.1213V20.7015L65.6105 27.8292L71.279 25.1213Z" fill="url(#paint66_radial_2003_41880)"/>
<path fill-rule="evenodd" clip-rule="evenodd" d="M65.6105 27.8292L71.279 20.7015L66.677 22.0635L65.6105 27.8292Z" fill="url(#paint67_radial_2003_41880)"/>
<path style="mix-blend-mode:screen" fill-rule="evenodd" clip-rule="evenodd" d="M63.5068 18.392L70.8253 20.1309C70.6485 19.7594 70.3421 19.0811 70.3657 18.9089L71.279 12.2926V20.7015L63.5068 18.392Z" fill="url(#paint68_radial_2003_41880)"/>
<path style="mix-blend-mode:screen" fill-rule="evenodd" clip-rule="evenodd" d="M71.279 20.7015C71.6385 20.2493 72.2631 19.8348 73.1705 19.6356L79.6935 18.2036L71.279 20.7015Z" fill="url(#paint69_radial_2003_41880)"/>
<path style="mix-blend-mode:screen" fill-rule="evenodd" clip-rule="evenodd" d="M71.279 20.7015C70.3716 21.2237 69.2815 22.1066 68.9633 22.6019L65.6105 27.8292L71.2849 20.6962L71.279 20.7015Z" fill="url(#paint70_radial_2003_41880)"/>
</g>
<defs>
<radialGradient id="paint0_radial_2003_41880" cx="0" cy="0" r="1" gradientUnits="userSpaceOnUse" gradientTransform="translate(72.7354 -43.3857) scale(106.385 250.294)">
<stop stop-color="#CEDBF0"/>
<stop offset="1" stop-color="#6D87AB"/>
</radialGradient>
<linearGradient id="paint1_linear_2003_41880" x1="-592.521" y1="26.3344" x2="189.929" y2="26.3344" gradientUnits="userSpaceOnUse">
<stop stop-color="#CCDBF5"/>
<stop offset="1" stop-color="#46648A"/>
</linearGradient>
<radialGradient id="paint2_radial_2003_41880" cx="0" cy="0" r="1" gradientUnits="userSpaceOnUse" gradientTransform="translate(13.1957 15.7817) scale(30.6985 30.8475)">
<stop offset="0.52" stop-color="#CDCECF"/>
<stop offset="0.57" stop-color="#E5ECF0"/>
<stop offset="0.63" stop-color="#C1C2C2"/>
<stop offset="0.69" stop-color="#B2BBC1"/>
<stop offset="0.76" stop-color="#889EAE"/>
<stop offset="0.83" stop-color="#657582"/>
<stop offset="0.91" stop-color="#3A444B"/>
<stop offset="0.99" stop-color="#090B0C"/>
<stop offset="1"/>
</radialGradient>
<radialGradient id="paint3_radial_2003_41880" cx="0" cy="0" r="1" gradientUnits="userSpaceOnUse" gradientTransform="translate(84.7035 87.8016) scale(25.2959 25.4188)">
<stop offset="0.52" stop-color="#DFDFE3"/>
<stop offset="0.57" stop-color="#CCCCCF"/>
<stop offset="0.63" stop-color="#B2B3B9"/>
<stop offset="0.69" stop-color="#B3B4BD"/>
<stop offset="0.76" stop-color="#AEAEB1"/>
<stop offset="0.83" stop-color="#6F7077"/>
<stop offset="0.91" stop-color="#32354B"/>
<stop offset="0.99" stop-color="#08080C"/>
<stop offset="1"/>
</radialGradient>
<radialGradient id="paint4_radial_2003_41880" cx="0" cy="0" r="1" gradientUnits="userSpaceOnUse" gradientTransform="translate(33.4553 14.0693) scale(64.5022 64.8153)">
<stop offset="0.38" stop-color="#E7EFF4"/>
<stop offset="0.495" stop-color="#CCD3D8"/>
<stop offset="0.63" stop-color="#C1C9CE"/>
<stop offset="0.69" stop-color="#D5DEE4"/>
<stop offset="0.76" stop-color="#C5CACD"/>
<stop offset="0.84" stop-color="#A7A8A9"/>
<stop offset="0.91" stop-color="#223A4B"/>
<stop offset="0.99" stop-color="#05090C"/>
<stop offset="1"/>
</radialGradient>
<linearGradient id="paint5_linear_2003_41880" x1="19.8481" y1="89.7549" x2="51.203" y2="89.7549" gradientUnits="userSpaceOnUse">
<stop offset="0.25" stop-color="#46648A"/>
<stop offset="1" stop-color="#D5E7FF"/>
</linearGradient>
<radialGradient id="paint6_radial_2003_41880" cx="0" cy="0" r="1" gradientUnits="userSpaceOnUse" gradientTransform="translate(42.1931 62.7618) rotate(-180) scale(45.6628 45.8844)">
<stop offset="0.33" stop-color="#B3D0FF"/>
<stop offset="1" stop-color="#4A5799"/>
</radialGradient>
<linearGradient id="paint7_linear_2003_41880" x1="52.2195" y1="74.3295" x2="4.71326" y2="74.3295" gradientUnits="userSpaceOnUse">
<stop stop-color="#7F93DE"/>
<stop offset="1" stop-color="#46648A"/>
</linearGradient>
<radialGradient id="paint8_radial_2003_41880" cx="0" cy="0" r="1" gradientUnits="userSpaceOnUse" gradientTransform="translate(10.9332 73.783) scale(13.9654 14.0332)">
<stop stop-color="#B3D0FF"/>
<stop offset="1" stop-color="#4A5799"/>
</radialGradient>
<linearGradient id="paint9_linear_2003_41880" x1="9.56715" y1="77.1681" x2="26.0392" y2="77.1681" gradientUnits="userSpaceOnUse">
<stop stop-color="#4F5B8A"/>
<stop offset="1" stop-color="#7F93DE"/>
</linearGradient>
<linearGradient id="paint10_linear_2003_41880" x1="6.55658" y1="70.8244" x2="21.0127" y2="70.8244" gradientUnits="userSpaceOnUse">
<stop stop-color="#4F5B8A"/>
<stop offset="1" stop-color="#7F93DE"/>
</linearGradient>
<radialGradient id="paint11_radial_2003_41880" cx="0" cy="0" r="1" gradientUnits="userSpaceOnUse" gradientTransform="translate(8.41332 66.6799) scale(15.5304 15.6057)">
<stop stop-color="#B3D0FF"/>
<stop offset="1" stop-color="#4A5799"/>
</radialGradient>
<radialGradient id="paint12_radial_2003_41880" cx="0" cy="0" r="1" gradientUnits="userSpaceOnUse" gradientTransform="translate(15.6549 58.9902) scale(12.0557 12.1141)">
<stop offset="0.44"/>
<stop offset="0.46" stop-color="#070C0C"/>
<stop offset="0.54" stop-color="#2D4B4B"/>
<stop offset="0.63" stop-color="#4E8282"/>
<stop offset="0.72" stop-color="#68AEAE"/>
<stop offset="0.8" stop-color="#7DD1D1"/>
<stop offset="0.87" stop-color="#8CEAEA"/>
<stop offset="0.94" stop-color="#95F9F9"/>
<stop offset="1" stop-color="#99FFFF"/>
</radialGradient>
<radialGradient id="paint13_radial_2003_41880" cx="0" cy="0" r="1" gradientUnits="userSpaceOnUse" gradientTransform="translate(13.2541 67.1863) scale(7.83812 7.87618)">
<stop offset="0.44"/>
<stop offset="0.46" stop-color="#070C0C"/>
<stop offset="0.54" stop-color="#2D4B4B"/>
<stop offset="0.63" stop-color="#4E8282"/>
<stop offset="0.72" stop-color="#68AEAE"/>
<stop offset="0.8" stop-color="#7DD1D1"/>
<stop offset="0.87" stop-color="#8CEAEA"/>
<stop offset="0.94" stop-color="#95F9F9"/>
<stop offset="1" stop-color="#99FFFF"/>
</radialGradient>
<radialGradient id="paint14_radial_2003_41880" cx="0" cy="0" r="1" gradientUnits="userSpaceOnUse" gradientTransform="translate(15.3894 71.6108) scale(7.90443 7.94283)">
<stop offset="0.44"/>
<stop offset="0.46" stop-color="#070C0C"/>
<stop offset="0.54" stop-color="#2D4B4B"/>
<stop offset="0.63" stop-color="#4E8282"/>
<stop offset="0.72" stop-color="#68AEAE"/>
<stop offset="0.8" stop-color="#7DD1D1"/>
<stop offset="0.87" stop-color="#8CEAEA"/>
<stop offset="0.94" stop-color="#95F9F9"/>
<stop offset="1" stop-color="#99FFFF"/>
</radialGradient>
<radialGradient id="paint15_radial_2003_41880" cx="0" cy="0" r="1" gradientUnits="userSpaceOnUse" gradientTransform="translate(6.90157 60.1497) scale(28.2491 28.3863)">
<stop stop-color="#92E8FF"/>
<stop offset="0.1" stop-color="#88D8ED"/>
<stop offset="0.3" stop-color="#6EB0C1"/>
<stop offset="0.57" stop-color="#456E79"/>
<stop offset="0.92" stop-color="#0E1618"/>
<stop offset="1"/>
</radialGradient>
<radialGradient id="paint16_radial_2003_41880" cx="0" cy="0" r="1" gradientUnits="userSpaceOnUse" gradientTransform="translate(16.0128 64.3876) scale(25.2651 25.3877)">
<stop stop-color="#92E8FF"/>
<stop offset="0.1" stop-color="#88D8ED"/>
<stop offset="0.3" stop-color="#6EB0C1"/>
<stop offset="0.57" stop-color="#456E79"/>
<stop offset="0.92" stop-color="#0E1618"/>
<stop offset="1"/>
</radialGradient>
<radialGradient id="paint17_radial_2003_41880" cx="0" cy="0" r="1" gradientUnits="userSpaceOnUse" gradientTransform="translate(13.0025 70.931) scale(10.3447 10.395)">
<stop stop-color="#92E8FF"/>
<stop offset="0.1" stop-color="#88D8ED"/>
<stop offset="0.3" stop-color="#6EB0C1"/>
<stop offset="0.57" stop-color="#456E79"/>
<stop offset="0.92" stop-color="#0E1618"/>
<stop offset="1"/>
</radialGradient>
<radialGradient id="paint18_radial_2003_41880" cx="0" cy="0" r="1" gradientUnits="userSpaceOnUse" gradientTransform="translate(16.6894 75.2889) scale(21.5781 21.6828)">
<stop stop-color="#92E8FF"/>
<stop offset="0.1" stop-color="#88D8ED"/>
<stop offset="0.3" stop-color="#6EB0C1"/>
<stop offset="0.57" stop-color="#456E79"/>
<stop offset="0.92" stop-color="#0E1618"/>
<stop offset="1"/>
</radialGradient>
<radialGradient id="paint19_radial_2003_41880" cx="0" cy="0" r="1" gradientUnits="userSpaceOnUse" gradientTransform="translate(89.687 62.7618) rotate(-180) scale(45.6627 45.8844)">
<stop stop-color="#B3D0FF"/>
<stop offset="1" stop-color="#4A5799"/>
</radialGradient>
<linearGradient id="paint20_linear_2003_41880" x1="99.6994" y1="74.3295" x2="52.1932" y2="74.3295" gradientUnits="userSpaceOnUse">
<stop stop-color="#46648A"/>
<stop offset="1" stop-color="#7F93DE"/>
</linearGradient>
<radialGradient id="paint21_radial_2003_41880" cx="0" cy="0" r="1" gradientUnits="userSpaceOnUse" gradientTransform="translate(93.466 73.783) rotate(180) scale(13.9654 14.0332)">
<stop stop-color="#B3D0FF"/>
<stop offset="1" stop-color="#4A5799"/>
</radialGradient>
<linearGradient id="paint22_linear_2003_41880" x1="94.8323" y1="77.1681" x2="78.3471" y2="77.1681" gradientUnits="userSpaceOnUse">
<stop stop-color="#4F5B8A"/>
<stop offset="1" stop-color="#7F93DE"/>
</linearGradient>
<linearGradient id="paint23_linear_2003_41880" x1="97.8428" y1="70.8244" x2="83.3867" y2="70.8244" gradientUnits="userSpaceOnUse">
<stop stop-color="#4F5B8A"/>
<stop offset="1" stop-color="#7F93DE"/>
</linearGradient>
<radialGradient id="paint24_radial_2003_41880" cx="0" cy="0" r="1" gradientUnits="userSpaceOnUse" gradientTransform="translate(95.986 66.6799) rotate(180) scale(15.5304 15.6057)">
<stop stop-color="#B3D0FF"/>
<stop offset="1" stop-color="#4A5799"/>
</radialGradient>
<radialGradient id="paint25_radial_2003_41880" cx="0" cy="0" r="1" gradientUnits="userSpaceOnUse" gradientTransform="translate(88.7446 58.9902) rotate(180) scale(12.0556 12.1141)">
<stop offset="0.44"/>
<stop offset="0.46" stop-color="#070C0C"/>
<stop offset="0.54" stop-color="#2D4B4B"/>
<stop offset="0.63" stop-color="#4E8282"/>
<stop offset="0.72" stop-color="#68AEAE"/>
<stop offset="0.8" stop-color="#7DD1D1"/>
<stop offset="0.87" stop-color="#8CEAEA"/>
<stop offset="0.94" stop-color="#95F9F9"/>
<stop offset="1" stop-color="#99FFFF"/>
</radialGradient>
<radialGradient id="paint26_radial_2003_41880" cx="0" cy="0" r="1" gradientUnits="userSpaceOnUse" gradientTransform="translate(91.1318 67.1863) rotate(-180) scale(7.83812 7.87618)">
<stop offset="0.44"/>
<stop offset="0.46" stop-color="#070C0C"/>
<stop offset="0.54" stop-color="#2D4B4B"/>
<stop offset="0.63" stop-color="#4E8282"/>
<stop offset="0.72" stop-color="#68AEAE"/>
<stop offset="0.8" stop-color="#7DD1D1"/>
<stop offset="0.87" stop-color="#8CEAEA"/>
<stop offset="0.94" stop-color="#95F9F9"/>
<stop offset="1" stop-color="#99FFFF"/>
</radialGradient>
<radialGradient id="paint27_radial_2003_41880" cx="0" cy="0" r="1" gradientUnits="userSpaceOnUse" gradientTransform="translate(89.01 71.6108) rotate(180) scale(7.90447 7.94283)">
<stop offset="0.44"/>
<stop offset="0.46" stop-color="#070C0C"/>
<stop offset="0.54" stop-color="#2D4B4B"/>
<stop offset="0.63" stop-color="#4E8282"/>
<stop offset="0.72" stop-color="#68AEAE"/>
<stop offset="0.8" stop-color="#7DD1D1"/>
<stop offset="0.87" stop-color="#8CEAEA"/>
<stop offset="0.94" stop-color="#95F9F9"/>
<stop offset="1" stop-color="#99FFFF"/>
</radialGradient>
<radialGradient id="paint28_radial_2003_41880" cx="0" cy="0" r="1" gradientUnits="userSpaceOnUse" gradientTransform="translate(97.4981 60.1497) rotate(-180) scale(28.2491 28.3863)">
<stop stop-color="#92E8FF"/>
<stop offset="0.1" stop-color="#88D8ED"/>
<stop offset="0.3" stop-color="#6EB0C1"/>
<stop offset="0.57" stop-color="#456E79"/>
<stop offset="0.92" stop-color="#0E1618"/>
<stop offset="1"/>
</radialGradient>
<radialGradient id="paint29_radial_2003_41880" cx="0" cy="0" r="1" gradientUnits="userSpaceOnUse" gradientTransform="translate(88.3866 64.3876) rotate(180) scale(25.2651 25.3877)">
<stop stop-color="#92E8FF"/>
<stop offset="0.1" stop-color="#88D8ED"/>
<stop offset="0.3" stop-color="#6EB0C1"/>
<stop offset="0.57" stop-color="#456E79"/>
<stop offset="0.92" stop-color="#0E1618"/>
<stop offset="1"/>
</radialGradient>
<radialGradient id="paint30_radial_2003_41880" cx="0" cy="0" r="1" gradientUnits="userSpaceOnUse" gradientTransform="translate(91.397 70.931) rotate(180) scale(10.3447 10.395)">
<stop stop-color="#92E8FF"/>
<stop offset="0.1" stop-color="#88D8ED"/>
<stop offset="0.3" stop-color="#6EB0C1"/>
<stop offset="0.57" stop-color="#456E79"/>
<stop offset="0.92" stop-color="#0E1618"/>
<stop offset="1"/>
</radialGradient>
<radialGradient id="paint31_radial_2003_41880" cx="0" cy="0" r="1" gradientUnits="userSpaceOnUse" gradientTransform="translate(87.7101 75.2889) rotate(180) scale(21.5781 21.6828)">
<stop stop-color="#92E8FF"/>
<stop offset="0.1" stop-color="#88D8ED"/>
<stop offset="0.3" stop-color="#6EB0C1"/>
<stop offset="0.57" stop-color="#456E79"/>
<stop offset="0.92" stop-color="#0E1618"/>
<stop offset="1"/>
</radialGradient>
<radialGradient id="paint32_radial_2003_41880" cx="0" cy="0" r="1" gradientUnits="userSpaceOnUse" gradientTransform="translate(43.0116 -1.7484) scale(17.6441 16.1199)">
<stop stop-color="#A5BEE8"/>
<stop offset="1" stop-color="#46648A"/>
</radialGradient>
<radialGradient id="paint33_radial_2003_41880" cx="0" cy="0" r="1" gradientUnits="userSpaceOnUse" gradientTransform="translate(48.5599 5.08157) scale(15.0365 13.7375)">
<stop stop-color="#CEDBF0"/>
<stop offset="1" stop-color="#6D87AB"/>
</radialGradient>
<radialGradient id="paint34_radial_2003_41880" cx="0" cy="0" r="1" gradientUnits="userSpaceOnUse" gradientTransform="translate(48.7158 4.96503) scale(18.9763 17.337)">
<stop stop-color="#E6F0FF"/>
<stop offset="1" stop-color="#99B2D6"/>
</radialGradient>
<radialGradient id="paint35_radial_2003_41880" cx="0" cy="0" r="1" gradientUnits="userSpaceOnUse" gradientTransform="translate(40.7157 3.17177) scale(18.6362 17.0262)">
<stop stop-color="#A5BEE8"/>
<stop offset="1" stop-color="#46648A"/>
</radialGradient>
<radialGradient id="paint36_radial_2003_41880" cx="0" cy="0" r="1" gradientUnits="userSpaceOnUse" gradientTransform="translate(57.1836 1.54037) scale(16.6167 15.1812)">
<stop stop-color="#CEDBF0"/>
<stop offset="1" stop-color="#6D87AB"/>
</radialGradient>
<radialGradient id="paint37_radial_2003_41880" cx="0" cy="0" r="1" gradientUnits="userSpaceOnUse" gradientTransform="translate(45.4279 -4.16315) scale(22.739 20.7746)">
<stop stop-color="#A5BEE8"/>
<stop offset="1" stop-color="#46648A"/>
</radialGradient>
<radialGradient id="paint38_radial_2003_41880" cx="0" cy="0" r="1" gradientUnits="userSpaceOnUse" gradientTransform="translate(65.5025 15.8087) scale(17.552 16.0357)">
<stop stop-color="#CCD8EB"/>
<stop offset="1" stop-color="#4C6E9C"/>
</radialGradient>
<radialGradient id="paint39_radial_2003_41880" cx="0" cy="0" r="1" gradientUnits="userSpaceOnUse" gradientTransform="translate(63.1358 11.0439) scale(19.9258 18.2045)">
<stop stop-color="#95B0DE"/>
<stop offset="1" stop-color="#394F6E"/>
</radialGradient>
<radialGradient id="paint40_radial_2003_41880" cx="0" cy="0" r="1" gradientUnits="userSpaceOnUse" gradientTransform="translate(34.9689 8.12422) scale(20.3014 18.5476)">
<stop stop-color="#596D8F"/>
<stop offset="1" stop-color="#46648A"/>
</radialGradient>
<radialGradient id="paint41_radial_2003_41880" cx="0" cy="0" r="1" gradientUnits="userSpaceOnUse" gradientTransform="translate(47.745 20.9878) scale(12.5281 11.4458)">
<stop stop-color="#CEDBF0"/>
<stop offset="1" stop-color="#6D87AB"/>
</radialGradient>
<radialGradient id="paint42_radial_2003_41880" cx="0" cy="0" r="1" gradientUnits="userSpaceOnUse" gradientTransform="translate(52.4785 10.5326) scale(15.7664 14.4043)">
<stop stop-color="#D4E5FF"/>
<stop offset="1"/>
</radialGradient>
<radialGradient id="paint43_radial_2003_41880" cx="0" cy="0" r="1" gradientUnits="userSpaceOnUse" gradientTransform="translate(59.0826 6.84248) scale(16.56 15.1294)">
<stop stop-color="#D4E5FF"/>
<stop offset="1"/>
</radialGradient>
<radialGradient id="paint44_radial_2003_41880" cx="0" cy="0" r="1" gradientUnits="userSpaceOnUse" gradientTransform="translate(41.9912 19.2398) scale(14.2287 12.9995)">
<stop stop-color="#D4E5FF"/>
<stop offset="1"/>
</radialGradient>
<radialGradient id="paint45_radial_2003_41880" cx="0" cy="0" r="1" gradientUnits="userSpaceOnUse" gradientTransform="translate(24.0432 8.76635) scale(14.6723 13.4048)">
<stop stop-color="#A5BEE8"/>
<stop offset="1" stop-color="#46648A"/>
</radialGradient>
<radialGradient id="paint46_radial_2003_41880" cx="0" cy="0" r="1" gradientUnits="userSpaceOnUse" gradientTransform="translate(28.6571 14.4459) scale(12.5038 11.4237)">
<stop stop-color="#CEDBF0"/>
<stop offset="1" stop-color="#6D87AB"/>
</radialGradient>
<radialGradient id="paint47_radial_2003_41880" cx="0" cy="0" r="1" gradientUnits="userSpaceOnUse" gradientTransform="translate(28.7867 14.349) scale(15.7801 14.4169)">
<stop stop-color="#E6F0FF"/>
<stop offset="1" stop-color="#99B2D6"/>
</radialGradient>
<radialGradient id="paint48_radial_2003_41880" cx="0" cy="0" r="1" gradientUnits="userSpaceOnUse" gradientTransform="translate(22.1341 12.8578) scale(15.4972 14.1584)">
<stop stop-color="#A5BEE8"/>
<stop offset="1" stop-color="#46648A"/>
</radialGradient>
<radialGradient id="paint49_radial_2003_41880" cx="0" cy="0" r="1" gradientUnits="userSpaceOnUse" gradientTransform="translate(35.8282 11.5011) scale(13.8179 12.6242)">
<stop stop-color="#CEDBF0"/>
<stop offset="1" stop-color="#6D87AB"/>
</radialGradient>
<radialGradient id="paint50_radial_2003_41880" cx="0" cy="0" r="1" gradientUnits="userSpaceOnUse" gradientTransform="translate(26.0526 6.75833) scale(18.909 17.2755)">
<stop stop-color="#A5BEE8"/>
<stop offset="1" stop-color="#46648A"/>
</radialGradient>
<radialGradient id="paint51_radial_2003_41880" cx="0" cy="0" r="1" gradientUnits="userSpaceOnUse" gradientTransform="translate(42.746 23.3663) scale(14.5957 13.3348)">
<stop stop-color="#CCD8EB"/>
<stop offset="1" stop-color="#4C6E9C"/>
</radialGradient>
<radialGradient id="paint52_radial_2003_41880" cx="0" cy="0" r="1" gradientUnits="userSpaceOnUse" gradientTransform="translate(40.7779 19.4041) scale(16.5697 15.1382)">
<stop stop-color="#95B0DE"/>
<stop offset="1" stop-color="#394F6E"/>
</radialGradient>
<radialGradient id="paint53_radial_2003_41880" cx="0" cy="0" r="1" gradientUnits="userSpaceOnUse" gradientTransform="translate(17.3553 16.9762) scale(16.882 15.4236)">
<stop stop-color="#596D8F"/>
<stop offset="1" stop-color="#46648A"/>
</radialGradient>
<radialGradient id="paint54_radial_2003_41880" cx="0" cy="0" r="1" gradientUnits="userSpaceOnUse" gradientTransform="translate(27.9794 27.6731) scale(10.4179 9.51792)">
<stop stop-color="#CEDBF0"/>
<stop offset="1" stop-color="#6D87AB"/>
</radialGradient>
<radialGradient id="paint55_radial_2003_41880" cx="0" cy="0" r="1" gradientUnits="userSpaceOnUse" gradientTransform="translate(31.9156 18.9788) scale(13.1108 11.9782)">
<stop stop-color="#D4E5FF"/>
<stop offset="1"/>
</radialGradient>
<radialGradient id="paint56_radial_2003_41880" cx="0" cy="0" r="1" gradientUnits="userSpaceOnUse" gradientTransform="translate(37.4074 15.9103) scale(13.7707 12.5811)">
<stop stop-color="#D4E5FF"/>
<stop offset="1"/>
</radialGradient>
<radialGradient id="paint57_radial_2003_41880" cx="0" cy="0" r="1" gradientUnits="userSpaceOnUse" gradientTransform="translate(23.1947 26.2196) scale(11.8321 10.8099)">
<stop stop-color="#D4E5FF"/>
<stop offset="1"/>
</radialGradient>
<radialGradient id="paint58_radial_2003_41880" cx="0" cy="0" r="1" gradientUnits="userSpaceOnUse" gradientTransform="translate(64.6087 8.76635) scale(14.6723 13.4048)">
<stop stop-color="#A5BEE8"/>
<stop offset="1" stop-color="#46648A"/>
</radialGradient>
<radialGradient id="paint59_radial_2003_41880" cx="0" cy="0" r="1" gradientUnits="userSpaceOnUse" gradientTransform="translate(69.2225 14.4459) scale(12.5038 11.4237)">
<stop stop-color="#CEDBF0"/>
<stop offset="1" stop-color="#6D87AB"/>
</radialGradient>
<radialGradient id="paint60_radial_2003_41880" cx="0" cy="0" r="1" gradientUnits="userSpaceOnUse" gradientTransform="translate(69.3522 14.349) scale(15.7801 14.4169)">
<stop stop-color="#E6F0FF"/>
<stop offset="1" stop-color="#99B2D6"/>
</radialGradient>
<radialGradient id="paint61_radial_2003_41880" cx="0" cy="0" r="1" gradientUnits="userSpaceOnUse" gradientTransform="translate(62.6996 12.8578) scale(15.4972 14.1584)">
<stop stop-color="#A5BEE8"/>
<stop offset="1" stop-color="#46648A"/>
</radialGradient>
<radialGradient id="paint62_radial_2003_41880" cx="0" cy="0" r="1" gradientUnits="userSpaceOnUse" gradientTransform="translate(76.3937 11.5011) scale(13.8179 12.6242)">
<stop stop-color="#CEDBF0"/>
<stop offset="1" stop-color="#6D87AB"/>
</radialGradient>
<radialGradient id="paint63_radial_2003_41880" cx="0" cy="0" r="1" gradientUnits="userSpaceOnUse" gradientTransform="translate(66.6181 6.75833) scale(18.909 17.2755)">
<stop stop-color="#A5BEE8"/>
<stop offset="1" stop-color="#46648A"/>
</radialGradient>
<radialGradient id="paint64_radial_2003_41880" cx="0" cy="0" r="1" gradientUnits="userSpaceOnUse" gradientTransform="translate(83.3115 23.3663) scale(14.5957 13.3348)">
<stop stop-color="#CCD8EB"/>
<stop offset="1" stop-color="#4C6E9C"/>
</radialGradient>
<radialGradient id="paint65_radial_2003_41880" cx="0" cy="0" r="1" gradientUnits="userSpaceOnUse" gradientTransform="translate(81.3434 19.4041) scale(16.5697 15.1382)">
<stop stop-color="#95B0DE"/>
<stop offset="1" stop-color="#394F6E"/>
</radialGradient>
<radialGradient id="paint66_radial_2003_41880" cx="0" cy="0" r="1" gradientUnits="userSpaceOnUse" gradientTransform="translate(57.9208 16.9762) scale(16.882 15.4236)">
<stop stop-color="#596D8F"/>
<stop offset="1" stop-color="#46648A"/>
</radialGradient>
<radialGradient id="paint67_radial_2003_41880" cx="0" cy="0" r="1" gradientUnits="userSpaceOnUse" gradientTransform="translate(68.5449 27.6731) scale(10.4179 9.51792)">
<stop stop-color="#CEDBF0"/>
<stop offset="1" stop-color="#6D87AB"/>
</radialGradient>
<radialGradient id="paint68_radial_2003_41880" cx="0" cy="0" r="1" gradientUnits="userSpaceOnUse" gradientTransform="translate(72.4811 18.9788) scale(13.1108 11.9782)">
<stop stop-color="#D4E5FF"/>
<stop offset="1"/>
</radialGradient>
<radialGradient id="paint69_radial_2003_41880" cx="0" cy="0" r="1" gradientUnits="userSpaceOnUse" gradientTransform="translate(77.9729 15.9103) scale(13.7707 12.5811)">
<stop stop-color="#D4E5FF"/>
<stop offset="1"/>
</radialGradient>
<radialGradient id="paint70_radial_2003_41880" cx="0" cy="0" r="1" gradientUnits="userSpaceOnUse" gradientTransform="translate(63.7602 26.2196) scale(11.8321 10.8099)">
<stop stop-color="#D4E5FF"/>
<stop offset="1"/>
</radialGradient>
<clipPath id="clip0_2003_41880">
<rect width="22.0729" height="19.81" fill="white" transform="translate(40 2)"/>
</clipPath>
<clipPath id="clip1_2003_41880">
<rect width="18.3551" height="16.4733" fill="white" transform="translate(21.5389 11.8834)"/>
</clipPath>
<clipPath id="clip2_2003_41880">
<rect width="18.3551" height="16.4733" fill="white" transform="translate(62.1044 11.8834)"/>
</clipPath>
</defs>
</svg>
