<svg width="103" height="106" viewBox="0 0 103 106" fill="none" xmlns="http://www.w3.org/2000/svg">
<g style="mix-blend-mode:multiply" opacity="0.8">
<path d="M14.5578 58.5076C14.621 58.6854 14.6336 58.8631 14.5578 58.8885C14.482 58.9139 14.3809 58.7869 14.3177 58.5965C14.2546 58.4187 14.2419 58.241 14.3177 58.2156C14.3809 58.1902 14.4946 58.3172 14.5578 58.5076Z" fill="#9C9D9E"/>
</g>
<g style="mix-blend-mode:multiply" opacity="0.8">
<path d="M88.8869 58.5076C88.8238 58.6854 88.8111 58.8631 88.8869 58.8885C88.9501 58.9139 89.0638 58.7869 89.127 58.5965C89.1902 58.4187 89.2028 58.241 89.127 58.2156C89.0638 58.1902 88.9501 58.3172 88.8869 58.5076Z" fill="#9C9D9E"/>
</g>
<path fill-rule="evenodd" clip-rule="evenodd" d="M90.7818 54.5211C90.7818 32.8366 73.2956 15.2655 51.7159 15.2655C30.1361 15.2655 12.6499 32.8366 12.6499 54.5211C12.6499 76.2057 30.1361 93.7767 51.7159 93.7767C73.2956 93.7767 90.7818 76.2057 90.7818 54.5211ZM51.7159 18.3887C71.5773 18.3887 87.6737 34.5632 87.6737 54.5211C87.6737 74.479 71.5773 90.6536 51.7159 90.6536C31.8544 90.6536 15.7579 74.479 15.7579 54.5211C15.7579 34.5632 31.8544 18.3887 51.7159 18.3887Z" fill="url(#paint0_radial_2005_154)"/>
<path fill-rule="evenodd" clip-rule="evenodd" d="M87.6864 54.5212C87.6864 34.5633 71.59 18.3888 51.7285 18.3888C31.867 18.3888 15.7706 34.5633 15.7706 54.5212C15.7706 74.4791 31.867 90.6536 51.7285 90.6536C71.59 90.6536 87.6864 74.4791 87.6864 54.5212ZM51.7285 21.4993C69.8717 21.4993 84.5909 36.2773 84.5909 54.5212C84.5909 72.7652 69.8843 87.5431 51.7285 87.5431C33.5727 87.5431 18.8661 72.7652 18.8661 54.5212C18.8661 36.2773 33.5727 21.4993 51.7285 21.4993Z" fill="url(#paint1_linear_2005_154)"/>
<path style="mix-blend-mode:screen" fill-rule="evenodd" clip-rule="evenodd" d="M16.9708 45.177C20.2811 32.7351 30.0223 22.9466 42.4041 19.6202L41.5955 16.6113C28.1524 20.217 17.5646 30.8688 13.9638 44.3772L16.9582 45.1897L16.9708 45.177Z" fill="url(#paint2_radial_2005_154)"/>
<path style="mix-blend-mode:screen" opacity="0.5" fill-rule="evenodd" clip-rule="evenodd" d="M83.4663 63.0783C80.4467 74.4411 71.5393 83.3917 60.2314 86.426L61.04 89.4349C73.4219 86.1086 83.1631 76.3201 86.4733 63.8781L83.479 63.0656L83.4663 63.0783Z" fill="url(#paint3_radial_2005_154)"/>
<path style="mix-blend-mode:screen" fill-rule="evenodd" clip-rule="evenodd" d="M51.7159 18.3888C71.5774 18.3888 87.6737 34.5634 87.6737 54.5213C87.6737 56.705 87.4842 58.8379 87.1178 60.92C87.5727 58.622 87.8127 56.2479 87.8127 53.823C87.8127 33.8524 71.6532 17.6525 51.7159 17.6525C31.7786 17.6525 15.619 33.8397 15.619 53.823C15.619 56.2479 15.859 58.622 16.3139 60.92C15.9475 58.8379 15.7579 56.705 15.7579 54.5213C15.7579 34.5634 31.8544 18.3888 51.7159 18.3888Z" fill="url(#paint4_radial_2005_154)"/>
<path fill-rule="evenodd" clip-rule="evenodd" d="M47.1549 96.7984C36.2765 95.4654 26.7248 89.4475 20.3317 80.662C27.824 89.6253 39.1067 95.3257 51.7159 95.3257C64.3252 95.3257 75.6078 89.6253 83.1001 80.662C76.707 89.4475 67.1553 95.4654 56.277 96.7984C53.6111 97.1285 52.6509 97.8014 51.7159 99.0583C50.7683 97.8014 49.8207 97.1285 47.1549 96.7984Z" fill="#46648A"/>
<path fill-rule="evenodd" clip-rule="evenodd" d="M47.1549 96.7984C36.2765 95.4654 26.7248 89.4475 20.3317 80.662C27.8366 89.6253 39.1067 95.3257 51.7159 95.3257V99.0583C50.7684 97.8014 49.8207 97.1285 47.1549 96.7984Z" fill="url(#paint5_linear_2005_154)"/>
<g style="mix-blend-mode:screen" opacity="0.8">
<path d="M29.833 25.8921C29.7193 25.9809 29.593 26.0317 29.5677 25.9937C29.5424 25.9556 29.6056 25.854 29.7319 25.7651C29.8456 25.6763 29.972 25.6255 29.9973 25.6635C30.0226 25.7016 29.9594 25.8032 29.833 25.8921Z" fill="#EBFBFF"/>
</g>
<path fill-rule="evenodd" clip-rule="evenodd" d="M4.19995 64.1406C5.24867 69.8499 9.39046 71.0371 14.3951 72.251C19.1342 73.3981 18.2846 74.0785 22.2007 78.7606C30.6701 88.8851 42.7635 92.5134 51.7506 92.0732C39.6572 91.593 27.6036 83.7494 21.975 72.6911C20.0502 68.9294 19.798 68.2492 15.5765 67.6756C9.19132 66.8085 5.67348 65.5279 4.21324 64.1406H4.19995Z" fill="#EDEEF9"/>
<path fill-rule="evenodd" clip-rule="evenodd" d="M4.19995 64.1406C6.15136 68.4626 10.4923 68.716 14.7535 69.7031C16.7447 70.17 18.4306 70.3167 19.6918 72.1176C20.3688 73.078 20.9529 74.1051 21.5635 75.1056C24.2318 79.4809 27.7231 82.9624 31.825 85.7103C38.3696 90.1123 44.0246 91.8197 51.7506 92.0732C39.6572 91.593 27.6036 83.7494 21.975 72.6911C20.0502 68.9294 19.798 68.2492 15.5765 67.6756C9.19132 66.8085 5.67348 65.5279 4.21324 64.1406H4.19995Z" fill="url(#paint6_radial_2005_154)"/>
<path fill-rule="evenodd" clip-rule="evenodd" d="M14.7535 69.7031C10.4923 68.716 6.15136 68.4626 4.19995 64.1406C5.24867 69.8499 9.39046 71.0371 14.3951 72.251C19.1342 73.3981 18.2846 74.0785 22.2007 78.7606C30.6701 88.8851 42.7635 92.5134 51.7506 92.0732C44.0246 91.8197 38.3696 90.099 31.825 85.7103C27.7231 82.9624 24.2451 79.4675 21.5635 75.1056C20.9529 74.1051 20.3688 73.078 19.6918 72.1176C18.4306 70.3167 16.758 70.17 14.7535 69.7031Z" fill="url(#paint7_linear_2005_154)"/>
<path fill-rule="evenodd" clip-rule="evenodd" d="M12.5895 73.4113C10.5053 73.0645 7.45211 72.2908 6.05824 70.4366C6.70871 73.8382 8.71319 76.3327 12.3771 76.8796C15.3374 77.3198 18.6827 77.013 20.5279 78.8004C18.2844 74.972 16.7445 74.1183 12.5895 73.4247V73.4113Z" fill="#3B3C54"/>
<path fill-rule="evenodd" clip-rule="evenodd" d="M17.7933 79.0807C15.3507 78.7605 10.9832 79.214 9.05838 77.1598C10.1602 81.0549 12.9877 82.2288 16.6914 82.3088C19.28 82.3621 23.3687 83.0825 25.5591 84.7632C22.4262 81.7619 21.7757 79.6009 17.7933 79.0807Z" fill="#3B3C54"/>
<path fill-rule="evenodd" clip-rule="evenodd" d="M9.07164 77.1598C10.4257 79.3742 12.1381 80.1479 14.6205 80.428C20.7934 81.1216 21.0058 80.6014 25.5723 84.7499C22.4394 81.7486 21.789 79.5876 17.8065 79.0674C15.3639 78.7472 10.9965 79.2007 9.07164 77.1465V77.1598Z" fill="url(#paint8_radial_2005_154)"/>
<path fill-rule="evenodd" clip-rule="evenodd" d="M14.6073 80.4413C12.1249 80.1612 10.4257 79.3875 9.05838 77.1732C10.1602 81.0683 12.9877 82.2421 16.6914 82.3222C17.4348 82.3355 18.2977 82.4156 19.2004 82.5356C21.4571 82.8558 23.9927 83.5628 25.5591 84.7633C22.0014 81.5218 21.0855 81.1216 17.926 80.7882C17.0366 80.6948 15.9613 80.6014 14.594 80.4413H14.6073Z" fill="url(#paint9_linear_2005_154)"/>
<path fill-rule="evenodd" clip-rule="evenodd" d="M12.2045 75.1188C9.27077 74.4518 7.27953 73.2112 6.05824 70.4366C6.70871 73.8382 8.71319 76.3327 12.3771 76.8796C15.3374 77.3198 18.6827 77.013 20.5279 78.8004C17.7003 75.4256 15.7887 75.9458 12.2045 75.1321V75.1188Z" fill="url(#paint10_linear_2005_154)"/>
<path fill-rule="evenodd" clip-rule="evenodd" d="M6.05824 70.4235C7.27953 73.198 9.27077 74.4386 12.2045 75.1055C15.7887 75.9192 17.7136 75.399 20.5279 78.7739C18.2844 74.9455 16.7445 74.0918 12.5895 73.3981C10.5053 73.0513 7.45211 72.2776 6.05824 70.4235Z" fill="url(#paint11_radial_2005_154)"/>
<path style="mix-blend-mode:screen" fill-rule="evenodd" clip-rule="evenodd" d="M4.19995 64.1406C5.68674 67.4354 8.56742 68.3692 11.7401 69.0628C9.98783 68.3825 8.71344 67.3687 8.12935 66.1415C6.21776 65.5279 4.94334 64.8476 4.19995 64.1406Z" fill="url(#paint12_radial_2005_154)"/>
<path style="mix-blend-mode:screen" fill-rule="evenodd" clip-rule="evenodd" d="M9.24421 72.5444C7.98309 72.0775 6.78836 71.3972 6.05824 70.4235C7.27953 73.198 9.27077 74.4386 12.2045 75.1055C12.2576 75.1055 12.2974 75.1322 12.3505 75.1322C10.8372 74.5587 9.90795 73.7449 9.24421 72.5311V72.5444Z" fill="url(#paint13_radial_2005_154)"/>
<path style="mix-blend-mode:screen" fill-rule="evenodd" clip-rule="evenodd" d="M12.085 78.6005C10.8903 78.3604 9.80176 77.9469 9.07164 77.1732C10.4257 79.3875 12.1381 80.1612 14.6205 80.4413C15.5232 80.548 16.3064 80.6148 16.9835 80.6815C14.7931 80.2946 13.4391 79.9345 12.085 78.6005Z" fill="url(#paint14_radial_2005_154)"/>
<path style="mix-blend-mode:screen" fill-rule="evenodd" clip-rule="evenodd" d="M15.4305 68.009C18.3112 68.4626 19.3068 68.8094 20.236 70.2367C21.8954 72.7978 24.1654 77.8935 29.0506 82.0553C26.2097 79.3474 23.7937 76.186 22.0282 72.7044C20.1033 68.9428 19.8511 68.2624 15.6297 67.6888C9.24444 66.8218 5.7266 65.5412 4.26636 64.1539C6.90806 67.0752 11.8994 67.4621 15.4438 68.009H15.4305Z" fill="url(#paint15_radial_2005_154)"/>
<path style="mix-blend-mode:screen" fill-rule="evenodd" clip-rule="evenodd" d="M31.8115 85.7104C26.5016 82.5223 23.9263 79.1875 20.5544 73.705C19.2269 71.5574 17.9924 70.6903 16.6516 70.2234C14.209 69.3697 11.4744 69.3831 8.7265 68.2225C11.5673 69.1963 14.448 69.1163 16.7313 69.89C18.5101 70.5036 19.4526 71.3039 20.8332 73.4782C24.7095 79.5743 26.329 81.9487 31.8115 85.7104Z" fill="url(#paint16_radial_2005_154)"/>
<path style="mix-blend-mode:screen" fill-rule="evenodd" clip-rule="evenodd" d="M7.63828 72.8245C10.5986 75.3189 13.1208 75.1455 15.6829 75.6791C17.7803 76.106 19.7715 77.0264 21.6167 80.3078C20.1565 78.1602 18.8423 76.6262 15.6165 75.9192C12.9217 75.3323 10.134 75.5323 7.63828 72.8245Z" fill="url(#paint17_radial_2005_154)"/>
<path style="mix-blend-mode:screen" fill-rule="evenodd" clip-rule="evenodd" d="M10.6384 79.0006C13.904 81.3617 18.6166 79.8143 22.2009 81.9353C26.4488 84.4297 28.8383 88.4048 34.2677 91.0594C28.1215 88.4048 26.6612 85.03 22.2539 82.3354C21.0592 81.6018 19.9574 81.335 18.9883 81.1349C16.4263 80.6147 13.1474 81.1082 10.6384 79.0006Z" fill="url(#paint18_radial_2005_154)"/>
<path fill-rule="evenodd" clip-rule="evenodd" d="M99.2886 64.1406C98.2399 69.8499 94.0981 71.0371 89.0935 72.251C84.3544 73.3981 85.204 74.0785 81.2879 78.7606C72.8185 88.8851 60.7251 92.5134 51.738 92.0732C63.8314 91.593 75.885 83.7494 81.5136 72.6911C83.4384 68.9294 83.6906 68.2492 87.9121 67.6756C94.2973 66.8085 97.8151 65.5279 99.2754 64.1406H99.2886Z" fill="#3B3C54"/>
<path fill-rule="evenodd" clip-rule="evenodd" d="M99.2886 64.1406C97.3372 68.4626 92.9963 68.716 88.7351 69.7031C86.7439 70.17 85.058 70.3167 83.7968 72.1176C83.1198 73.078 82.5357 74.1051 81.9251 75.1056C79.2568 79.4809 75.7655 82.9624 71.6636 85.7103C65.1191 90.1123 59.464 91.8197 51.738 92.0732C63.8314 91.593 75.885 83.7494 81.5136 72.6911C83.4384 68.9294 83.6906 68.2492 87.9121 67.6756C94.2973 66.8085 97.8151 65.5279 99.2754 64.1406H99.2886Z" fill="url(#paint19_radial_2005_154)"/>
<path fill-rule="evenodd" clip-rule="evenodd" d="M88.7213 69.7031C92.9826 68.716 97.3235 68.4626 99.2749 64.1406C98.2262 69.8499 94.0844 71.0371 89.0797 72.251C84.3406 73.3981 85.1902 74.0785 81.2741 78.7606C72.8047 88.8851 60.7113 92.5134 51.7242 92.0732C59.4502 91.8197 65.1053 90.099 71.6498 85.7103C75.7518 82.9624 79.2298 79.4675 81.9113 75.1056C82.5219 74.1051 83.106 73.078 83.7831 72.1176C85.0442 70.3167 86.7168 70.17 88.7213 69.7031Z" fill="url(#paint20_linear_2005_154)"/>
<path fill-rule="evenodd" clip-rule="evenodd" d="M90.8986 73.4113C92.9827 73.0645 96.0359 72.2908 97.4298 70.4366C96.7793 73.8382 94.7748 76.3327 91.1109 76.8796C88.1506 77.3198 84.8054 77.013 82.9602 78.8004C85.2036 74.972 86.7435 74.1183 90.8986 73.4247V73.4113Z" fill="#3B3C54"/>
<path fill-rule="evenodd" clip-rule="evenodd" d="M85.6813 79.0807C88.1239 78.7605 92.4914 79.214 94.4162 77.1598C93.3144 81.0549 90.4869 82.2288 86.7832 82.3088C84.1946 82.3621 80.1059 83.0825 77.9156 84.7632C81.0484 81.7619 81.6989 79.6009 85.6813 79.0807Z" fill="#3B3C54"/>
<path fill-rule="evenodd" clip-rule="evenodd" d="M94.4162 77.1598C93.0622 79.3742 91.3497 80.1479 88.8673 80.428C82.6945 81.1216 82.4821 80.6014 77.9156 84.7499C81.0484 81.7486 81.6989 79.5876 85.6813 79.0674C88.1239 78.7472 92.4914 79.2007 94.4162 77.1465V77.1598Z" fill="url(#paint21_radial_2005_154)"/>
<path fill-rule="evenodd" clip-rule="evenodd" d="M88.8808 80.4413C91.3632 80.1612 93.0624 79.3875 94.4297 77.1732C93.3279 81.0683 90.5004 82.2421 86.7967 82.3222C86.0533 82.3355 85.1904 82.4156 84.2877 82.5356C82.031 82.8558 79.4955 83.5628 77.929 84.7633C81.4867 81.5218 82.4027 81.1216 85.5621 80.7882C86.4515 80.6948 87.5268 80.6014 88.8941 80.4413H88.8808Z" fill="url(#paint22_linear_2005_154)"/>
<path fill-rule="evenodd" clip-rule="evenodd" d="M91.2835 75.1188C94.2173 74.4518 96.2085 73.2112 97.4298 70.4366C96.7793 73.8382 94.7748 76.3327 91.1109 76.8796C88.1506 77.3198 84.8054 77.013 82.9602 78.8004C85.7877 75.4256 87.6993 75.9458 91.2835 75.1321V75.1188Z" fill="url(#paint23_linear_2005_154)"/>
<path fill-rule="evenodd" clip-rule="evenodd" d="M97.4298 70.4235C96.2085 73.198 94.2173 74.4386 91.2835 75.1055C87.6993 75.9192 85.7744 75.399 82.9602 78.7739C85.2036 74.9455 86.7435 74.0918 90.8986 73.3981C92.9827 73.0513 96.0359 72.2776 97.4298 70.4235Z" fill="url(#paint24_radial_2005_154)"/>
<path style="mix-blend-mode:screen" fill-rule="evenodd" clip-rule="evenodd" d="M99.2881 64.1406C97.8013 67.4354 94.9207 68.3692 91.748 69.0628C93.5003 68.3825 94.7747 67.3687 95.3588 66.1415C97.2704 65.5279 98.5447 64.8476 99.2881 64.1406Z" fill="url(#paint25_radial_2005_154)"/>
<path style="mix-blend-mode:screen" fill-rule="evenodd" clip-rule="evenodd" d="M94.2437 72.5444C95.5048 72.0775 96.6995 71.3972 97.4297 70.4235C96.2084 73.198 94.2171 74.4386 91.2834 75.1055C91.2303 75.1055 91.1905 75.1322 91.1374 75.1322C92.6507 74.5587 93.5799 73.7449 94.2437 72.5311V72.5444Z" fill="url(#paint26_radial_2005_154)"/>
<path style="mix-blend-mode:screen" fill-rule="evenodd" clip-rule="evenodd" d="M91.403 78.6005C92.5977 78.3604 93.6863 77.9469 94.4164 77.1732C93.0624 79.3875 91.3499 80.1612 88.8675 80.4413C87.9648 80.548 87.1816 80.6148 86.5045 80.6815C88.6949 80.2946 90.0489 79.9345 91.403 78.6005Z" fill="url(#paint27_radial_2005_154)"/>
<path style="mix-blend-mode:screen" fill-rule="evenodd" clip-rule="evenodd" d="M88.0579 68.009C85.1772 68.4626 84.1816 68.8094 83.2524 70.2367C81.593 72.7978 79.323 77.8935 74.4378 82.0553C77.2786 79.3474 79.6947 76.186 81.4602 72.7044C83.3851 68.9428 83.6373 68.2624 87.8588 67.6888C94.244 66.8218 97.7618 65.5412 99.2221 64.1539C96.5804 67.0752 91.589 67.4621 88.0446 68.009H88.0579Z" fill="url(#paint28_radial_2005_154)"/>
<path style="mix-blend-mode:screen" fill-rule="evenodd" clip-rule="evenodd" d="M71.6632 85.7104C76.9731 82.5223 79.5485 79.1875 82.9203 73.705C84.2478 71.5574 85.4823 70.6903 86.8231 70.2234C89.2657 69.3697 92.0003 69.3831 94.7482 68.2225C91.9074 69.1963 89.0267 69.1163 86.7435 69.89C84.9646 70.5036 84.0221 71.3039 82.6415 73.4782C78.7653 79.5743 77.1457 81.9487 71.6632 85.7104Z" fill="url(#paint29_radial_2005_154)"/>
<path style="mix-blend-mode:screen" fill-rule="evenodd" clip-rule="evenodd" d="M95.8499 72.8245C92.8896 75.3189 90.3674 75.1455 87.8053 75.6791C85.7079 76.106 83.7167 77.0264 81.8715 80.3078C83.3317 78.1602 84.6459 76.6262 87.8717 75.9192C90.5665 75.3323 93.3542 75.5323 95.8499 72.8245Z" fill="url(#paint30_radial_2005_154)"/>
<path style="mix-blend-mode:screen" fill-rule="evenodd" clip-rule="evenodd" d="M92.8498 79.0006C89.5842 81.3617 84.8716 79.8143 81.2874 81.9353C77.0394 84.4297 74.6499 88.4048 69.2205 91.0594C75.3668 88.4048 76.827 85.03 81.2343 82.3354C82.4291 81.6018 83.5309 81.335 84.4999 81.1349C87.062 80.6147 90.3409 81.1082 92.8498 79.0006Z" fill="url(#paint31_radial_2005_154)"/>
<g clip-path="url(#clip0_2005_154)">
<path fill-rule="evenodd" clip-rule="evenodd" d="M51.3484 2.96118L54.4094 9.15744L61.2221 10.17L56.3043 15.0034L57.4513 21.8238L51.3484 18.6206L45.2518 21.8238L46.3988 15.0034L41.481 10.17L48.2937 9.15744L51.3484 2.96118Z" fill="#B05B00"/>
<path fill-rule="evenodd" clip-rule="evenodd" d="M51.3484 13.3922L41.481 10.1699L46.3988 15.0034L51.3484 13.3922Z" fill="url(#paint32_radial_2005_154)"/>
<path fill-rule="evenodd" clip-rule="evenodd" d="M41.481 10.17L51.3484 13.3923L48.2937 9.15747L41.481 10.17Z" fill="url(#paint33_radial_2005_154)"/>
<path fill-rule="evenodd" clip-rule="evenodd" d="M48.2937 9.15743L51.3484 13.3923V2.96118L48.2937 9.15743Z" fill="url(#paint34_radial_2005_154)"/>
<path fill-rule="evenodd" clip-rule="evenodd" d="M51.3484 2.96118V13.3923L54.4094 9.15743L51.3484 2.96118Z" fill="url(#paint35_radial_2005_154)"/>
<path fill-rule="evenodd" clip-rule="evenodd" d="M54.4094 9.15747L51.3484 13.3923L61.2221 10.17L54.4094 9.15747Z" fill="url(#paint36_radial_2005_154)"/>
<path fill-rule="evenodd" clip-rule="evenodd" d="M61.2221 10.1699L51.3484 13.3922L56.3043 15.0034L61.2221 10.1699Z" fill="url(#paint37_radial_2005_154)"/>
<path fill-rule="evenodd" clip-rule="evenodd" d="M56.3043 15.0035L51.3484 13.3923L57.4513 21.8238L56.3043 15.0035Z" fill="url(#paint38_radial_2005_154)"/>
<path fill-rule="evenodd" clip-rule="evenodd" d="M57.4513 21.8238L51.3484 13.3923V18.6206L57.4513 21.8238Z" fill="url(#paint39_radial_2005_154)"/>
<path fill-rule="evenodd" clip-rule="evenodd" d="M51.3484 18.6206V13.3923L45.2518 21.8238L51.3484 18.6206Z" fill="url(#paint40_radial_2005_154)"/>
<path fill-rule="evenodd" clip-rule="evenodd" d="M45.2518 21.8238L51.3484 13.3923L46.3988 15.0035L45.2518 21.8238Z" fill="url(#paint41_radial_2005_154)"/>
<path style="mix-blend-mode:screen" fill-rule="evenodd" clip-rule="evenodd" d="M42.9893 10.6604L50.8604 12.7173C50.6703 12.2779 50.3407 11.4755 50.3661 11.2717L51.3484 3.44519V13.3923L42.9893 10.6604Z" fill="url(#paint42_radial_2005_154)"/>
<path style="mix-blend-mode:screen" fill-rule="evenodd" clip-rule="evenodd" d="M51.3484 13.3923C51.735 12.8574 52.4067 12.3671 53.3827 12.1314L60.3982 10.4375L51.3484 13.3923Z" fill="url(#paint43_radial_2005_154)"/>
<path style="mix-blend-mode:screen" fill-rule="evenodd" clip-rule="evenodd" d="M51.3484 13.3922C50.3724 14.0099 49.2 15.0543 48.8578 15.6402L45.2518 21.8237L51.3547 13.3859L51.3484 13.3922Z" fill="url(#paint44_radial_2005_154)"/>
</g>
<defs>
<radialGradient id="paint0_radial_2005_154" cx="0" cy="0" r="1" gradientUnits="userSpaceOnUse" gradientTransform="translate(73.2686 -43.4113) scale(106.484 250.528)">
<stop stop-color="#CEDBF0"/>
<stop offset="1" stop-color="#6D87AB"/>
</radialGradient>
<linearGradient id="paint1_linear_2005_154" x1="-592.61" y1="26.3741" x2="190.572" y2="26.3741" gradientUnits="userSpaceOnUse">
<stop stop-color="#CCDBF5"/>
<stop offset="1" stop-color="#46648A"/>
</linearGradient>
<radialGradient id="paint2_radial_2005_154" cx="0" cy="0" r="1" gradientUnits="userSpaceOnUse" gradientTransform="translate(13.6732 15.8115) scale(30.7272 30.8764)">
<stop offset="0.52" stop-color="#CDCECF"/>
<stop offset="0.57" stop-color="#E5ECF0"/>
<stop offset="0.63" stop-color="#C1C2C2"/>
<stop offset="0.69" stop-color="#B2BBC1"/>
<stop offset="0.76" stop-color="#889EAE"/>
<stop offset="0.83" stop-color="#657582"/>
<stop offset="0.91" stop-color="#3A444B"/>
<stop offset="0.99" stop-color="#090B0C"/>
<stop offset="1"/>
</radialGradient>
<radialGradient id="paint3_radial_2005_154" cx="0" cy="0" r="1" gradientUnits="userSpaceOnUse" gradientTransform="translate(85.2478 87.8987) scale(25.3196 25.4425)">
<stop offset="0.52" stop-color="#DFDFE3"/>
<stop offset="0.57" stop-color="#CCCCCF"/>
<stop offset="0.63" stop-color="#B2B3B9"/>
<stop offset="0.69" stop-color="#B3B4BD"/>
<stop offset="0.76" stop-color="#AEAEB1"/>
<stop offset="0.83" stop-color="#6F7077"/>
<stop offset="0.91" stop-color="#32354B"/>
<stop offset="0.99" stop-color="#08080C"/>
<stop offset="1"/>
</radialGradient>
<radialGradient id="paint4_radial_2005_154" cx="0" cy="0" r="1" gradientUnits="userSpaceOnUse" gradientTransform="translate(33.9517 14.0976) scale(64.5625 64.8759)">
<stop offset="0.38" stop-color="#E7EFF4"/>
<stop offset="0.495" stop-color="#CCD3D8"/>
<stop offset="0.63" stop-color="#C1C9CE"/>
<stop offset="0.69" stop-color="#D5DEE4"/>
<stop offset="0.76" stop-color="#C5CACD"/>
<stop offset="0.84" stop-color="#A7A8A9"/>
<stop offset="0.91" stop-color="#223A4B"/>
<stop offset="0.99" stop-color="#05090C"/>
<stop offset="1"/>
</radialGradient>
<linearGradient id="paint5_linear_2005_154" x1="20.3317" y1="89.8538" x2="51.7159" y2="89.8538" gradientUnits="userSpaceOnUse">
<stop offset="0.25" stop-color="#46648A"/>
<stop offset="1" stop-color="#D5E7FF"/>
</linearGradient>
<radialGradient id="paint6_radial_2005_154" cx="0" cy="0" r="1" gradientUnits="userSpaceOnUse" gradientTransform="translate(41.7281 66.5417) rotate(180) scale(45.7054 45.9273)">
<stop offset="0.33" stop-color="#B3D0FF"/>
<stop offset="1" stop-color="#4A5799"/>
</radialGradient>
<linearGradient id="paint7_linear_2005_154" x1="51.7639" y1="78.1202" x2="4.21323" y2="78.1202" gradientUnits="userSpaceOnUse">
<stop stop-color="#7F93DE"/>
<stop offset="1" stop-color="#46648A"/>
</linearGradient>
<radialGradient id="paint8_radial_2005_154" cx="0" cy="0" r="1" gradientUnits="userSpaceOnUse" gradientTransform="translate(10.439 77.5733) scale(13.9784 14.0463)">
<stop stop-color="#B3D0FF"/>
<stop offset="1" stop-color="#4A5799"/>
</radialGradient>
<linearGradient id="paint9_linear_2005_154" x1="9.07166" y1="80.9616" x2="25.5591" y2="80.9616" gradientUnits="userSpaceOnUse">
<stop stop-color="#4F5B8A"/>
<stop offset="1" stop-color="#7F93DE"/>
</linearGradient>
<linearGradient id="paint10_linear_2005_154" x1="6.05824" y1="74.6119" x2="20.5279" y2="74.6119" gradientUnits="userSpaceOnUse">
<stop stop-color="#4F5B8A"/>
<stop offset="1" stop-color="#7F93DE"/>
</linearGradient>
<radialGradient id="paint11_radial_2005_154" cx="0" cy="0" r="1" gradientUnits="userSpaceOnUse" gradientTransform="translate(7.91673 70.4635) scale(15.5449 15.6203)">
<stop stop-color="#B3D0FF"/>
<stop offset="1" stop-color="#4A5799"/>
</radialGradient>
<radialGradient id="paint12_radial_2005_154" cx="0" cy="0" r="1" gradientUnits="userSpaceOnUse" gradientTransform="translate(15.1651 62.7667) scale(12.0669 12.1255)">
<stop offset="0.44"/>
<stop offset="0.46" stop-color="#070C0C"/>
<stop offset="0.54" stop-color="#2D4B4B"/>
<stop offset="0.63" stop-color="#4E8282"/>
<stop offset="0.72" stop-color="#68AEAE"/>
<stop offset="0.8" stop-color="#7DD1D1"/>
<stop offset="0.87" stop-color="#8CEAEA"/>
<stop offset="0.94" stop-color="#95F9F9"/>
<stop offset="1" stop-color="#99FFFF"/>
</radialGradient>
<radialGradient id="paint13_radial_2005_154" cx="0" cy="0" r="1" gradientUnits="userSpaceOnUse" gradientTransform="translate(12.762 70.9704) scale(7.84544 7.88354)">
<stop offset="0.44"/>
<stop offset="0.46" stop-color="#070C0C"/>
<stop offset="0.54" stop-color="#2D4B4B"/>
<stop offset="0.63" stop-color="#4E8282"/>
<stop offset="0.72" stop-color="#68AEAE"/>
<stop offset="0.8" stop-color="#7DD1D1"/>
<stop offset="0.87" stop-color="#8CEAEA"/>
<stop offset="0.94" stop-color="#95F9F9"/>
<stop offset="1" stop-color="#99FFFF"/>
</radialGradient>
<radialGradient id="paint14_radial_2005_154" cx="0" cy="0" r="1" gradientUnits="userSpaceOnUse" gradientTransform="translate(14.8993 75.3991) scale(7.91182 7.95025)">
<stop offset="0.44"/>
<stop offset="0.46" stop-color="#070C0C"/>
<stop offset="0.54" stop-color="#2D4B4B"/>
<stop offset="0.63" stop-color="#4E8282"/>
<stop offset="0.72" stop-color="#68AEAE"/>
<stop offset="0.8" stop-color="#7DD1D1"/>
<stop offset="0.87" stop-color="#8CEAEA"/>
<stop offset="0.94" stop-color="#95F9F9"/>
<stop offset="1" stop-color="#99FFFF"/>
</radialGradient>
<radialGradient id="paint15_radial_2005_154" cx="0" cy="0" r="1" gradientUnits="userSpaceOnUse" gradientTransform="translate(6.40361 63.9272) scale(28.2755 28.4128)">
<stop stop-color="#92E8FF"/>
<stop offset="0.1" stop-color="#88D8ED"/>
<stop offset="0.3" stop-color="#6EB0C1"/>
<stop offset="0.57" stop-color="#456E79"/>
<stop offset="0.92" stop-color="#0E1618"/>
<stop offset="1"/>
</radialGradient>
<radialGradient id="paint16_radial_2005_154" cx="0" cy="0" r="1" gradientUnits="userSpaceOnUse" gradientTransform="translate(15.5232 68.1692) scale(25.2887 25.4115)">
<stop stop-color="#92E8FF"/>
<stop offset="0.1" stop-color="#88D8ED"/>
<stop offset="0.3" stop-color="#6EB0C1"/>
<stop offset="0.57" stop-color="#456E79"/>
<stop offset="0.92" stop-color="#0E1618"/>
<stop offset="1"/>
</radialGradient>
<radialGradient id="paint17_radial_2005_154" cx="0" cy="0" r="1" gradientUnits="userSpaceOnUse" gradientTransform="translate(12.5102 74.7187) scale(10.3544 10.4047)">
<stop stop-color="#92E8FF"/>
<stop offset="0.1" stop-color="#88D8ED"/>
<stop offset="0.3" stop-color="#6EB0C1"/>
<stop offset="0.57" stop-color="#456E79"/>
<stop offset="0.92" stop-color="#0E1618"/>
<stop offset="1"/>
</radialGradient>
<radialGradient id="paint18_radial_2005_154" cx="0" cy="0" r="1" gradientUnits="userSpaceOnUse" gradientTransform="translate(16.2006 79.0806) scale(21.5983 21.7031)">
<stop stop-color="#92E8FF"/>
<stop offset="0.1" stop-color="#88D8ED"/>
<stop offset="0.3" stop-color="#6EB0C1"/>
<stop offset="0.57" stop-color="#456E79"/>
<stop offset="0.92" stop-color="#0E1618"/>
<stop offset="1"/>
</radialGradient>
<radialGradient id="paint19_radial_2005_154" cx="0" cy="0" r="1" gradientUnits="userSpaceOnUse" gradientTransform="translate(89.2661 66.5417) rotate(180) scale(45.7054 45.9273)">
<stop stop-color="#B3D0FF"/>
<stop offset="1" stop-color="#4A5799"/>
</radialGradient>
<linearGradient id="paint20_linear_2005_154" x1="99.2881" y1="78.1202" x2="51.7375" y2="78.1202" gradientUnits="userSpaceOnUse">
<stop stop-color="#46648A"/>
<stop offset="1" stop-color="#7F93DE"/>
</linearGradient>
<radialGradient id="paint21_radial_2005_154" cx="0" cy="0" r="1" gradientUnits="userSpaceOnUse" gradientTransform="translate(93.0489 77.5733) rotate(180) scale(13.9784 14.0463)">
<stop stop-color="#B3D0FF"/>
<stop offset="1" stop-color="#4A5799"/>
</radialGradient>
<linearGradient id="paint22_linear_2005_154" x1="94.4164" y1="80.9616" x2="77.9158" y2="80.9616" gradientUnits="userSpaceOnUse">
<stop stop-color="#4F5B8A"/>
<stop offset="1" stop-color="#7F93DE"/>
</linearGradient>
<linearGradient id="paint23_linear_2005_154" x1="97.4298" y1="74.6119" x2="82.9602" y2="74.6119" gradientUnits="userSpaceOnUse">
<stop stop-color="#4F5B8A"/>
<stop offset="1" stop-color="#7F93DE"/>
</linearGradient>
<radialGradient id="paint24_radial_2005_154" cx="0" cy="0" r="1" gradientUnits="userSpaceOnUse" gradientTransform="translate(95.5713 70.4635) rotate(180) scale(15.5449 15.6203)">
<stop stop-color="#B3D0FF"/>
<stop offset="1" stop-color="#4A5799"/>
</radialGradient>
<radialGradient id="paint25_radial_2005_154" cx="0" cy="0" r="1" gradientUnits="userSpaceOnUse" gradientTransform="translate(88.3231 62.7667) rotate(180) scale(12.0669 12.1255)">
<stop offset="0.44"/>
<stop offset="0.46" stop-color="#070C0C"/>
<stop offset="0.54" stop-color="#2D4B4B"/>
<stop offset="0.63" stop-color="#4E8282"/>
<stop offset="0.72" stop-color="#68AEAE"/>
<stop offset="0.8" stop-color="#7DD1D1"/>
<stop offset="0.87" stop-color="#8CEAEA"/>
<stop offset="0.94" stop-color="#95F9F9"/>
<stop offset="1" stop-color="#99FFFF"/>
</radialGradient>
<radialGradient id="paint26_radial_2005_154" cx="0" cy="0" r="1" gradientUnits="userSpaceOnUse" gradientTransform="translate(90.7126 70.9704) rotate(180) scale(7.84544 7.88354)">
<stop offset="0.44"/>
<stop offset="0.46" stop-color="#070C0C"/>
<stop offset="0.54" stop-color="#2D4B4B"/>
<stop offset="0.63" stop-color="#4E8282"/>
<stop offset="0.72" stop-color="#68AEAE"/>
<stop offset="0.8" stop-color="#7DD1D1"/>
<stop offset="0.87" stop-color="#8CEAEA"/>
<stop offset="0.94" stop-color="#95F9F9"/>
<stop offset="1" stop-color="#99FFFF"/>
</radialGradient>
<radialGradient id="paint27_radial_2005_154" cx="0" cy="0" r="1" gradientUnits="userSpaceOnUse" gradientTransform="translate(88.5887 75.3991) rotate(180) scale(7.91186 7.95025)">
<stop offset="0.44"/>
<stop offset="0.46" stop-color="#070C0C"/>
<stop offset="0.54" stop-color="#2D4B4B"/>
<stop offset="0.63" stop-color="#4E8282"/>
<stop offset="0.72" stop-color="#68AEAE"/>
<stop offset="0.8" stop-color="#7DD1D1"/>
<stop offset="0.87" stop-color="#8CEAEA"/>
<stop offset="0.94" stop-color="#95F9F9"/>
<stop offset="1" stop-color="#99FFFF"/>
</radialGradient>
<radialGradient id="paint28_radial_2005_154" cx="0" cy="0" r="1" gradientUnits="userSpaceOnUse" gradientTransform="translate(97.0848 63.9272) rotate(-180) scale(28.2755 28.4128)">
<stop stop-color="#92E8FF"/>
<stop offset="0.1" stop-color="#88D8ED"/>
<stop offset="0.3" stop-color="#6EB0C1"/>
<stop offset="0.57" stop-color="#456E79"/>
<stop offset="0.92" stop-color="#0E1618"/>
<stop offset="1"/>
</radialGradient>
<radialGradient id="paint29_radial_2005_154" cx="0" cy="0" r="1" gradientUnits="userSpaceOnUse" gradientTransform="translate(87.9647 68.1692) rotate(180) scale(25.2887 25.4115)">
<stop stop-color="#92E8FF"/>
<stop offset="0.1" stop-color="#88D8ED"/>
<stop offset="0.3" stop-color="#6EB0C1"/>
<stop offset="0.57" stop-color="#456E79"/>
<stop offset="0.92" stop-color="#0E1618"/>
<stop offset="1"/>
</radialGradient>
<radialGradient id="paint30_radial_2005_154" cx="0" cy="0" r="1" gradientUnits="userSpaceOnUse" gradientTransform="translate(90.978 74.7187) rotate(180) scale(10.3544 10.4047)">
<stop stop-color="#92E8FF"/>
<stop offset="0.1" stop-color="#88D8ED"/>
<stop offset="0.3" stop-color="#6EB0C1"/>
<stop offset="0.57" stop-color="#456E79"/>
<stop offset="0.92" stop-color="#0E1618"/>
<stop offset="1"/>
</radialGradient>
<radialGradient id="paint31_radial_2005_154" cx="0" cy="0" r="1" gradientUnits="userSpaceOnUse" gradientTransform="translate(87.2877 79.0806) rotate(180) scale(21.5983 21.7031)">
<stop stop-color="#92E8FF"/>
<stop offset="0.1" stop-color="#88D8ED"/>
<stop offset="0.3" stop-color="#6EB0C1"/>
<stop offset="0.57" stop-color="#456E79"/>
<stop offset="0.92" stop-color="#0E1618"/>
<stop offset="1"/>
</radialGradient>
<radialGradient id="paint32_radial_2005_154" cx="0" cy="0" r="1" gradientUnits="userSpaceOnUse" gradientTransform="translate(44.1744 -0.726059) scale(15.7802 15.8568)">
<stop stop-color="#A5BEE8"/>
<stop offset="1" stop-color="#46648A"/>
</radialGradient>
<radialGradient id="paint33_radial_2005_154" cx="0" cy="0" r="1" gradientUnits="userSpaceOnUse" gradientTransform="translate(49.1366 5.99248) scale(13.448 13.5133)">
<stop stop-color="#CEDBF0"/>
<stop offset="1" stop-color="#6D87AB"/>
</radialGradient>
<radialGradient id="paint34_radial_2005_154" cx="0" cy="0" r="1" gradientUnits="userSpaceOnUse" gradientTransform="translate(49.276 5.87781) scale(16.9716 17.054)">
<stop stop-color="#E6F0FF"/>
<stop offset="1" stop-color="#99B2D6"/>
</radialGradient>
<radialGradient id="paint35_radial_2005_154" cx="0" cy="0" r="1" gradientUnits="userSpaceOnUse" gradientTransform="translate(42.1211 4.11383) scale(16.6674 16.7484)">
<stop stop-color="#A5BEE8"/>
<stop offset="1" stop-color="#46648A"/>
</radialGradient>
<radialGradient id="paint36_radial_2005_154" cx="0" cy="0" r="1" gradientUnits="userSpaceOnUse" gradientTransform="translate(56.8493 2.50907) scale(14.8613 14.9334)">
<stop stop-color="#CEDBF0"/>
<stop offset="1" stop-color="#6D87AB"/>
</radialGradient>
<radialGradient id="paint37_radial_2005_154" cx="0" cy="0" r="1" gradientUnits="userSpaceOnUse" gradientTransform="translate(46.3355 -3.1014) scale(20.3368 20.4355)">
<stop stop-color="#A5BEE8"/>
<stop offset="1" stop-color="#46648A"/>
</radialGradient>
<radialGradient id="paint38_radial_2005_154" cx="0" cy="0" r="1" gradientUnits="userSpaceOnUse" gradientTransform="translate(64.2894 16.5446) scale(15.6978 15.774)">
<stop stop-color="#CCD8EB"/>
<stop offset="1" stop-color="#4C6E9C"/>
</radialGradient>
<radialGradient id="paint39_radial_2005_154" cx="0" cy="0" r="1" gradientUnits="userSpaceOnUse" gradientTransform="translate(62.1727 11.8576) scale(17.8209 17.9074)">
<stop stop-color="#95B0DE"/>
<stop offset="1" stop-color="#394F6E"/>
</radialGradient>
<radialGradient id="paint40_radial_2005_154" cx="0" cy="0" r="1" gradientUnits="userSpaceOnUse" gradientTransform="translate(36.9814 8.98554) scale(18.1567 18.2449)">
<stop stop-color="#596D8F"/>
<stop offset="1" stop-color="#46648A"/>
</radialGradient>
<radialGradient id="paint41_radial_2005_154" cx="0" cy="0" r="1" gradientUnits="userSpaceOnUse" gradientTransform="translate(48.4078 21.6391) scale(11.2046 11.259)">
<stop stop-color="#CEDBF0"/>
<stop offset="1" stop-color="#6D87AB"/>
</radialGradient>
<radialGradient id="paint42_radial_2005_154" cx="0" cy="0" r="1" gradientUnits="userSpaceOnUse" gradientTransform="translate(52.6412 11.3545) scale(14.1008 14.1692)">
<stop stop-color="#D4E5FF"/>
<stop offset="1"/>
</radialGradient>
<radialGradient id="paint43_radial_2005_154" cx="0" cy="0" r="1" gradientUnits="userSpaceOnUse" gradientTransform="translate(58.5477 7.72465) scale(14.8106 14.8825)">
<stop stop-color="#D4E5FF"/>
<stop offset="1"/>
</radialGradient>
<radialGradient id="paint44_radial_2005_154" cx="0" cy="0" r="1" gradientUnits="userSpaceOnUse" gradientTransform="translate(43.2618 19.9196) scale(12.7256 12.7873)">
<stop stop-color="#D4E5FF"/>
<stop offset="1"/>
</radialGradient>
<clipPath id="clip0_2005_154">
<rect width="19.7411" height="19.4867" fill="white" transform="translate(41.481 2.96118)"/>
</clipPath>
</defs>
</svg>
