<svg width="103" height="106" viewBox="0 0 103 106" fill="none" xmlns="http://www.w3.org/2000/svg">
<g style="mix-blend-mode:multiply" opacity="0.8">
<path d="M14.8988 58.3009C14.9617 58.4778 14.9743 58.6548 14.8988 58.68C14.836 58.7053 14.7228 58.5789 14.6599 58.3894C14.597 58.2125 14.5844 58.0356 14.6599 58.0103C14.7228 57.985 14.836 58.1114 14.8988 58.3009Z" fill="#AD4200"/>
</g>
<g style="mix-blend-mode:multiply" opacity="0.8">
<path d="M88.8823 58.3009C88.8194 58.4778 88.8068 58.6548 88.8823 58.68C88.9452 58.7053 89.0584 58.5789 89.1212 58.3894C89.1841 58.2125 89.1967 58.0356 89.1212 58.0103C89.0584 57.985 88.9452 58.1114 88.8823 58.3009Z" fill="#AD4200"/>
</g>
<path fill-rule="evenodd" clip-rule="evenodd" d="M90 53.9468C90 32.5764 72.7671 15.2599 51.5 15.2599C30.2329 15.2599 13 32.5764 13 53.9468C13 75.3172 30.2329 92.6337 51.5 92.6337C72.7671 92.6337 90 75.3172 90 53.9468ZM51.5 18.3379C71.0737 18.3379 86.9369 34.278 86.9369 53.9468C86.9369 73.6156 71.0737 89.5558 51.5 89.5558C31.9263 89.5558 16.0631 73.6156 16.0631 53.9468C16.0631 34.278 31.9263 18.3379 51.5 18.3379Z" fill="url(#paint0_linear_2003_41885)"/>
<path fill-rule="evenodd" clip-rule="evenodd" d="M87.6878 54.3332C87.6878 34.468 71.6662 18.3687 51.897 18.3687C32.1278 18.3687 16.1063 34.468 16.1063 54.3332C16.1063 74.1983 32.1278 90.2977 51.897 90.2977C71.6662 90.2977 87.6878 74.1983 87.6878 54.3332ZM51.897 21.4647C69.9559 21.4647 84.6067 36.174 84.6067 54.3332C84.6067 72.4923 69.9685 87.2016 51.897 87.2016C33.8256 87.2016 19.1873 72.4923 19.1873 54.3332C19.1873 36.174 33.8256 21.4647 51.897 21.4647Z" fill="url(#paint1_linear_2003_41885)"/>
<path style="mix-blend-mode:screen" fill-rule="evenodd" clip-rule="evenodd" d="M17.3135 45.0324C20.6083 32.6483 30.3043 22.9053 42.6286 19.5944L41.8237 16.5995C28.4431 20.1884 17.9045 30.7907 14.3204 44.2363L17.3009 45.0451L17.3135 45.0324Z" fill="url(#paint2_radial_2003_41885)"/>
<path style="mix-blend-mode:screen" opacity="0.5" fill-rule="evenodd" clip-rule="evenodd" d="M83.4873 62.8504C80.4817 74.1604 71.6157 83.0694 60.3604 86.0896L61.1652 89.0846C73.4895 85.7737 83.1855 76.0307 86.4803 63.6465L83.4999 62.8378L83.4873 62.8504Z" fill="url(#paint3_radial_2003_41885)"/>
<path style="mix-blend-mode:screen" fill-rule="evenodd" clip-rule="evenodd" d="M51.8972 18.3686C71.6664 18.3686 87.688 34.4679 87.688 54.3331C87.688 56.5066 87.4993 58.6296 87.1346 60.7021C87.5873 58.4148 87.8263 56.0517 87.8263 53.638C87.8263 33.7602 71.7418 17.6356 51.8972 17.6356C32.0525 17.6356 15.9681 33.7476 15.9681 53.638C15.9681 56.0517 16.207 58.4148 16.6598 60.7021C16.2951 58.6296 16.1064 56.5066 16.1064 54.3331C16.1064 34.4679 32.128 18.3686 51.8972 18.3686Z" fill="url(#paint4_radial_2003_41885)"/>
<path fill-rule="evenodd" clip-rule="evenodd" d="M47.3446 96.4139C36.5168 95.087 27.0095 89.0971 20.6461 80.3524C28.1036 89.274 39.3338 94.948 51.8845 94.948C64.4351 94.948 75.6653 89.274 83.1228 80.3524C76.7594 89.0971 67.2521 95.087 56.4243 96.4139C53.7708 96.7424 52.8151 97.4122 51.8845 98.6632C50.9413 97.4122 49.9981 96.7424 47.3446 96.4139Z" fill="#7600ED"/>
<path fill-rule="evenodd" clip-rule="evenodd" d="M47.3446 96.4139C36.5168 95.087 27.0095 89.0971 20.6461 80.3524C28.1036 89.274 39.3338 94.948 51.8845 94.948V98.6632C50.9413 97.4122 49.9981 96.7424 47.3446 96.4139Z" fill="url(#paint5_linear_2003_41885)"/>
<path fill-rule="evenodd" clip-rule="evenodd" d="M56.4367 96.4139C67.2645 95.087 76.7718 89.0971 83.1352 80.3524C75.6777 89.274 64.4475 94.948 51.8969 94.948V98.6632C52.84 97.4122 53.7832 96.7424 56.4367 96.4139Z" fill="url(#paint6_linear_2003_41885)"/>
<path fill-rule="evenodd" clip-rule="evenodd" d="M51.8972 94.948C39.3465 94.948 28.1163 89.274 20.6589 80.3524C28.0157 89.7795 39.2711 95.8199 51.8972 95.8199C64.5233 95.8199 75.7787 89.7795 83.1355 80.3524C75.6781 89.274 64.4479 94.948 51.8972 94.948Z" fill="url(#paint7_radial_2003_41885)"/>
<path style="mix-blend-mode:screen" fill-rule="evenodd" clip-rule="evenodd" d="M27.4874 87.2521C42.9556 98.8274 61.8068 98.1703 76.03 87.4669C61.7313 98.9917 41.6855 98.8906 27.4874 87.2521Z" fill="url(#paint8_radial_2003_41885)"/>
<g style="mix-blend-mode:screen" opacity="0.8">
<path d="M30.1033 25.837C29.9902 25.9254 29.8644 25.976 29.8393 25.9381C29.8141 25.9002 29.877 25.7991 30.0027 25.7107C30.1159 25.6222 30.2417 25.5716 30.2668 25.6095C30.292 25.6474 30.2291 25.7485 30.1033 25.837Z" fill="#FFF7BB"/>
</g>
<g clip-path="url(#clip0_2003_41885)">
<path d="M36.3222 16.8161L30.5676 12.1962L38.0233 11.9935L40.4957 5.5L42.9707 11.9935L50.4264 12.1962L44.6718 16.8161L46.5364 24.0052L40.4957 20.0706L34.4576 24.0052L36.3222 16.8161Z" fill="#FF8B2F"/>
<path style="mix-blend-mode:screen" opacity="0.6" d="M50.314 12.1937L42.9707 11.9935L40.5417 15.4225L50.314 12.1937Z" fill="url(#paint9_linear_2003_41885)"/>
<path style="mix-blend-mode:multiply" opacity="0.6" d="M40.5417 15.4225L42.9707 11.9935L40.4957 5.5V15.4379L40.5417 15.4225Z" fill="url(#paint10_linear_2003_41885)"/>
<path style="mix-blend-mode:screen" opacity="0.6" d="M40.5187 15.4558L40.4983 15.4815L46.5339 24.0026L46.5364 24.0051L44.6718 16.8161L40.5187 15.4558Z" fill="url(#paint11_linear_2003_41885)"/>
<path style="mix-blend-mode:multiply" opacity="0.8" d="M40.4957 15.484V20.0705L46.5338 24.0051L40.4983 15.4814L40.4957 15.484Z" fill="url(#paint12_linear_2003_41885)"/>
<path style="mix-blend-mode:multiply" opacity="0.5" d="M34.4576 24.0051L40.4957 20.0705V15.484L34.4576 24.0051Z" fill="url(#paint13_linear_2003_41885)"/>
<path style="mix-blend-mode:multiply" opacity="0.6" d="M40.5187 15.4559L44.6719 16.8162L50.4265 12.1963L50.3141 12.1937L40.5417 15.4225L40.5187 15.4559Z" fill="url(#paint14_linear_2003_41885)"/>
<path style="mix-blend-mode:multiply" opacity="0.6" d="M40.4957 15.4789L40.4727 15.4456L36.3221 16.8161L34.4576 24.0052L40.4957 15.4841V15.4789Z" fill="url(#paint15_linear_2003_41885)"/>
<path style="mix-blend-mode:multiply" opacity="0.67" d="M40.4804 15.443L40.4957 15.4379V5.5L38.0258 11.9884L40.4702 15.4404L40.4804 15.443Z" fill="url(#paint16_linear_2003_41885)"/>
<path style="mix-blend-mode:screen" opacity="0.6" d="M38.0258 11.9884L38.0233 11.9935L30.5676 12.1963L40.4702 15.4405L38.0258 11.9884Z" fill="url(#paint17_linear_2003_41885)"/>
<path style="mix-blend-mode:multiply" opacity="0.7" d="M40.4702 15.4405L30.5676 12.1963L36.3222 16.8162L40.4727 15.4456L40.4702 15.4405Z" fill="url(#paint18_linear_2003_41885)"/>
</g>
<g clip-path="url(#clip1_2003_41885)">
<path d="M57.4542 16.8161L51.6996 12.1962L59.1553 11.9935L61.6277 5.5L64.1028 11.9935L71.5585 12.1962L65.8039 16.8161L67.6684 24.0052L61.6277 20.0706L55.5896 24.0052L57.4542 16.8161Z" fill="#FF8B2F"/>
<path style="mix-blend-mode:screen" opacity="0.6" d="M71.4461 12.1937L64.1027 11.9935L61.6737 15.4225L71.4461 12.1937Z" fill="url(#paint19_linear_2003_41885)"/>
<path style="mix-blend-mode:multiply" opacity="0.6" d="M61.6737 15.4225L64.1028 11.9935L61.6277 5.5V15.4379L61.6737 15.4225Z" fill="url(#paint20_linear_2003_41885)"/>
<path style="mix-blend-mode:screen" opacity="0.6" d="M61.6507 15.4558L61.6303 15.4815L67.6659 24.0026L67.6684 24.0051L65.8039 16.8161L61.6507 15.4558Z" fill="url(#paint21_linear_2003_41885)"/>
<path style="mix-blend-mode:multiply" opacity="0.8" d="M61.6277 15.484V20.0705L67.6659 24.0051L61.6303 15.4814L61.6277 15.484Z" fill="url(#paint22_linear_2003_41885)"/>
<path style="mix-blend-mode:multiply" opacity="0.5" d="M55.5896 24.0051L61.6277 20.0705V15.484L55.5896 24.0051Z" fill="url(#paint23_linear_2003_41885)"/>
<path style="mix-blend-mode:multiply" opacity="0.6" d="M61.6508 15.4559L65.8039 16.8162L71.5585 12.1963L71.4461 12.1937L61.6737 15.4225L61.6508 15.4559Z" fill="url(#paint24_linear_2003_41885)"/>
<path style="mix-blend-mode:multiply" opacity="0.6" d="M61.6277 15.4789L61.6047 15.4456L57.4542 16.8161L55.5896 24.0052L61.6277 15.4841V15.4789Z" fill="url(#paint25_linear_2003_41885)"/>
<path style="mix-blend-mode:multiply" opacity="0.67" d="M61.6124 15.443L61.6277 15.4379V5.5L59.1578 11.9884L61.6022 15.4404L61.6124 15.443Z" fill="url(#paint26_linear_2003_41885)"/>
<path style="mix-blend-mode:screen" opacity="0.6" d="M59.1578 11.9884L59.1553 11.9935L51.6996 12.1963L61.6022 15.4405L59.1578 11.9884Z" fill="url(#paint27_linear_2003_41885)"/>
<path style="mix-blend-mode:multiply" opacity="0.7" d="M61.6022 15.4405L51.6996 12.1963L57.4542 16.8162L61.6048 15.4456L61.6022 15.4405Z" fill="url(#paint28_linear_2003_41885)"/>
</g>
<defs>
<linearGradient id="paint0_linear_2003_41885" x1="51.5125" y1="92.6337" x2="51.5125" y2="15.2599" gradientUnits="userSpaceOnUse">
<stop stop-color="#CA6B34"/>
<stop offset="1" stop-color="#FFA933"/>
</linearGradient>
<linearGradient id="paint1_linear_2003_41885" x1="51.897" y1="90.3103" x2="51.897" y2="18.3687" gradientUnits="userSpaceOnUse">
<stop stop-color="#D16509"/>
<stop offset="1" stop-color="#D17632"/>
</linearGradient>
<radialGradient id="paint2_radial_2003_41885" cx="0" cy="0" r="1" gradientUnits="userSpaceOnUse" gradientTransform="translate(14.0186 15.8034) scale(32.7097 32.8685)">
<stop offset="0.52" stop-color="#FFCCEB"/>
<stop offset="0.57" stop-color="#F9C7E6"/>
<stop offset="0.63" stop-color="#EABBD8"/>
<stop offset="0.69" stop-color="#D1A7C1"/>
<stop offset="0.76" stop-color="#AE8BA1"/>
<stop offset="0.83" stop-color="#826878"/>
<stop offset="0.91" stop-color="#4B3C45"/>
<stop offset="0.99" stop-color="#0C090B"/>
<stop offset="1"/>
</radialGradient>
<radialGradient id="paint3_radial_2003_41885" cx="0" cy="0" r="1" gradientUnits="userSpaceOnUse" gradientTransform="translate(85.2605 87.5555) scale(29.2514 29.3934)">
<stop offset="0.52" stop-color="#DEC4FF"/>
<stop offset="0.57" stop-color="#D9BFF9"/>
<stop offset="0.63" stop-color="#CCB4EA"/>
<stop offset="0.69" stop-color="#B6A1D1"/>
<stop offset="0.76" stop-color="#9886AE"/>
<stop offset="0.83" stop-color="#716482"/>
<stop offset="0.91" stop-color="#413A4B"/>
<stop offset="0.99" stop-color="#0A090C"/>
<stop offset="1"/>
</radialGradient>
<radialGradient id="paint4_radial_2003_41885" cx="0" cy="0" r="1" gradientUnits="userSpaceOnUse" gradientTransform="translate(34.203 14.0973) scale(64.2624 64.5744)">
<stop offset="0.52" stop-color="#FFB6E2"/>
<stop offset="0.57" stop-color="#F9B2DD"/>
<stop offset="0.63" stop-color="#EAA7D0"/>
<stop offset="0.69" stop-color="#D195B9"/>
<stop offset="0.76" stop-color="#AE7C9B"/>
<stop offset="0.83" stop-color="#825C73"/>
<stop offset="0.91" stop-color="#4B3542"/>
<stop offset="0.99" stop-color="#0C080A"/>
<stop offset="1"/>
</radialGradient>
<linearGradient id="paint5_linear_2003_41885" x1="20.6461" y1="89.5015" x2="51.897" y2="89.5015" gradientUnits="userSpaceOnUse">
<stop stop-color="#CB6D33"/>
<stop offset="1" stop-color="#D16509"/>
</linearGradient>
<linearGradient id="paint6_linear_2003_41885" x1="51.8969" y1="-317.317" x2="83.1352" y2="-317.317" gradientUnits="userSpaceOnUse">
<stop stop-color="#5500A6"/>
<stop offset="0.0001" stop-color="#8D2C1B"/>
<stop offset="1" stop-color="#D16509"/>
</linearGradient>
<radialGradient id="paint7_radial_2003_41885" cx="0" cy="0" r="1" gradientUnits="userSpaceOnUse" gradientTransform="translate(51.8972 88.0862) scale(30.7353 30.8845)">
<stop stop-color="#F5AF00"/>
<stop offset="1" stop-color="#8D2C1B"/>
</radialGradient>
<radialGradient id="paint8_radial_2003_41885" cx="0" cy="0" r="1" gradientUnits="userSpaceOnUse" gradientTransform="translate(51.9348 67.2858) scale(34.0176 34.1827)">
<stop offset="0.52" stop-color="#FFBD2B"/>
<stop offset="0.57" stop-color="#FFA933"/>
<stop offset="0.63" stop-color="#DB8531"/>
<stop offset="0.69" stop-color="#F5AF00"/>
<stop offset="0.76" stop-color="#CA6B34"/>
<stop offset="0.83" stop-color="#8D2C1B"/>
<stop offset="0.91" stop-color="#2F224B"/>
<stop offset="0.99" stop-color="#07050C"/>
<stop offset="1"/>
</radialGradient>
<linearGradient id="paint9_linear_2003_41885" x1="43.2159" y1="16.2387" x2="47.9837" y2="10.5276" gradientUnits="userSpaceOnUse">
<stop stop-color="white"/>
<stop offset="1" stop-color="#513229"/>
</linearGradient>
<linearGradient id="paint10_linear_2003_41885" x1="40.981" y1="10.4689" x2="47.599" y2="10.4689" gradientUnits="userSpaceOnUse">
<stop stop-color="white"/>
<stop offset="0.26" stop-color="#CDC8C7"/>
<stop offset="0.82" stop-color="#51423E"/>
<stop offset="1" stop-color="#281511"/>
</linearGradient>
<linearGradient id="paint11_linear_2003_41885" x1="42.4293" y1="15.8844" x2="45.8223" y2="21.5293" gradientUnits="userSpaceOnUse">
<stop stop-color="white"/>
<stop offset="1" stop-color="#513229"/>
</linearGradient>
<linearGradient id="paint12_linear_2003_41885" x1="45.5045" y1="24.9419" x2="40.4139" y2="17.5808" gradientUnits="userSpaceOnUse">
<stop stop-color="#42210B"/>
<stop offset="1" stop-color="#A7877D"/>
</linearGradient>
<linearGradient id="paint13_linear_2003_41885" x1="36.6848" y1="23.307" x2="41.1241" y2="16.2631" gradientUnits="userSpaceOnUse">
<stop stop-color="#42210B"/>
<stop offset="1" stop-color="#A7877D"/>
</linearGradient>
<linearGradient id="paint14_linear_2003_41885" x1="42.179" y1="16.272" x2="54.1686" y2="12.0302" gradientUnits="userSpaceOnUse">
<stop stop-color="white"/>
<stop offset="0.26" stop-color="#CDC8C7"/>
<stop offset="0.82" stop-color="#51423E"/>
<stop offset="1" stop-color="#281511"/>
</linearGradient>
<linearGradient id="paint15_linear_2003_41885" x1="38.2378" y1="16.5723" x2="32.2134" y2="24.6163" gradientUnits="userSpaceOnUse">
<stop stop-color="white"/>
<stop offset="0.26" stop-color="#CDC8C7"/>
<stop offset="0.82" stop-color="#51423E"/>
<stop offset="1" stop-color="#281511"/>
</linearGradient>
<linearGradient id="paint16_linear_2003_41885" x1="38.1663" y1="10.4715" x2="40.9683" y2="10.4715" gradientUnits="userSpaceOnUse">
<stop stop-color="#DBCAC5"/>
<stop offset="0.99" stop-color="#91726A"/>
</linearGradient>
<linearGradient id="paint17_linear_2003_41885" x1="38.9836" y1="15.6997" x2="32.0908" y2="10.4447" gradientUnits="userSpaceOnUse">
<stop stop-color="white"/>
<stop offset="1" stop-color="#513229"/>
</linearGradient>
<linearGradient id="paint18_linear_2003_41885" x1="30.5676" y1="14.5062" x2="40.4727" y2="14.5062" gradientUnits="userSpaceOnUse">
<stop stop-color="#42210B"/>
<stop offset="1" stop-color="#A7877D"/>
</linearGradient>
<linearGradient id="paint19_linear_2003_41885" x1="64.348" y1="16.2387" x2="69.1157" y2="10.5276" gradientUnits="userSpaceOnUse">
<stop stop-color="white"/>
<stop offset="1" stop-color="#513229"/>
</linearGradient>
<linearGradient id="paint20_linear_2003_41885" x1="62.113" y1="10.4689" x2="68.731" y2="10.4689" gradientUnits="userSpaceOnUse">
<stop stop-color="white"/>
<stop offset="0.26" stop-color="#CDC8C7"/>
<stop offset="0.82" stop-color="#51423E"/>
<stop offset="1" stop-color="#281511"/>
</linearGradient>
<linearGradient id="paint21_linear_2003_41885" x1="63.5613" y1="15.8844" x2="66.9544" y2="21.5293" gradientUnits="userSpaceOnUse">
<stop stop-color="white"/>
<stop offset="1" stop-color="#513229"/>
</linearGradient>
<linearGradient id="paint22_linear_2003_41885" x1="66.6365" y1="24.9419" x2="61.5459" y2="17.5808" gradientUnits="userSpaceOnUse">
<stop stop-color="#42210B"/>
<stop offset="1" stop-color="#A7877D"/>
</linearGradient>
<linearGradient id="paint23_linear_2003_41885" x1="57.8169" y1="23.307" x2="62.2561" y2="16.2631" gradientUnits="userSpaceOnUse">
<stop stop-color="#42210B"/>
<stop offset="1" stop-color="#A7877D"/>
</linearGradient>
<linearGradient id="paint24_linear_2003_41885" x1="63.311" y1="16.272" x2="75.3006" y2="12.0302" gradientUnits="userSpaceOnUse">
<stop stop-color="white"/>
<stop offset="0.26" stop-color="#CDC8C7"/>
<stop offset="0.82" stop-color="#51423E"/>
<stop offset="1" stop-color="#281511"/>
</linearGradient>
<linearGradient id="paint25_linear_2003_41885" x1="59.3698" y1="16.5723" x2="53.3454" y2="24.6163" gradientUnits="userSpaceOnUse">
<stop stop-color="white"/>
<stop offset="0.26" stop-color="#CDC8C7"/>
<stop offset="0.82" stop-color="#51423E"/>
<stop offset="1" stop-color="#281511"/>
</linearGradient>
<linearGradient id="paint26_linear_2003_41885" x1="59.2983" y1="10.4715" x2="62.1003" y2="10.4715" gradientUnits="userSpaceOnUse">
<stop stop-color="#DBCAC5"/>
<stop offset="0.99" stop-color="#91726A"/>
</linearGradient>
<linearGradient id="paint27_linear_2003_41885" x1="60.1157" y1="15.6997" x2="53.2229" y2="10.4447" gradientUnits="userSpaceOnUse">
<stop stop-color="white"/>
<stop offset="1" stop-color="#513229"/>
</linearGradient>
<linearGradient id="paint28_linear_2003_41885" x1="51.6996" y1="14.5062" x2="61.6048" y2="14.5062" gradientUnits="userSpaceOnUse">
<stop stop-color="#42210B"/>
<stop offset="1" stop-color="#A7877D"/>
</linearGradient>
<clipPath id="clip0_2003_41885">
<rect width="19.8589" height="18.5052" fill="white" transform="translate(30.5676 5.5)"/>
</clipPath>
<clipPath id="clip1_2003_41885">
<rect width="19.8589" height="18.5052" fill="white" transform="translate(51.6996 5.5)"/>
</clipPath>
</defs>
</svg>
